<?xml version="1.0" encoding="UTF-8"?>
<!DOCTYPE svg PUBLIC "-//W3C//DTD SVG 1.0//EN" "http://www.w3.org/TR/2001/REC-SVG-20010904/DTD/svg10.dtd">
<!-- Creator: CorelDRAW -->
<svg xmlns="http://www.w3.org/2000/svg" xml:space="preserve" width="1300px" height="1300px" version="1.0" style="shape-rendering:geometricPrecision; text-rendering:geometricPrecision; image-rendering:optimizeQuality; fill-rule:evenodd; clip-rule:evenodd"
viewBox="0 0 1300 1056"
 xmlns:xlink="http://www.w3.org/1999/xlink">
 <defs>
  <style type="text/css">
   <![CDATA[
    .fil0 {fill:black;fill-opacity:0.501961}
    .fil1 {fill:#663333;fill-opacity:0.501961}
    .fil2 {fill:#FF6633}
   ]]>
  </style>
 </defs>
 <g id="_100:master" visibility="hidden">
  <metadata id="CorelCorpID_0Corel-Layer"/>
  <path class="fil0" d="M923 658l-19 -550c-2,-52 -3,-57 29,-84l19 -16c13,-12 23,-11 23,9l0 617c0,16 -51,53 -52,24z"/>
 </g>
 <g id="Layer_x0020_1" visibility="hidden">
  <metadata id="CorelCorpID_1Corel-Layer"/>
  <path class="fil0" d="M975 634c0,12 -56,56 -57,32l-16 -588c0,-14 39,-66 61,-78 5,0 12,5 12,9l0 625z"/>
 </g>
 <g id="Layer_x0020_2" visibility="hidden">
  <metadata id="CorelCorpID_2Corel-Layer"/>
  <path class="fil1" d="M917 658l-19 -550c-1,-52 -2,-57 29,-84l19 -16c14,-12 23,-7 23,9l0 617c0,16 -51,53 -52,24z"/>
  <path class="fil2" d="M1085 650l12 0 0 -81c-93,0 -122,-38 -122,-118 0,-96 24,-247 -7,-441 -1,-5 -8,-14 -18,-5l-40 34c-4,4 -10,10 -6,22 30,146 16,284 15,390 -2,120 16,199 166,199z"/>
 </g>
 <g id="Layer_x0020_3" visibility="hidden">
  <metadata id="CorelCorpID_3Corel-Layer"/>
  <path class="fil1" d="M903 650c9,-81 9,-420 -7,-583 -2,-21 -2,-25 21,-44l19 -17c13,-11 21,-6 23,9 16,118 21,408 3,552 -7,52 -19,92 -51,99 -5,1 -11,4 -8,-16z"/>
 </g>
 <g id="Layer_x0020_4">
  <metadata id="CorelCorpID_4Corel-Layer"/>
  <path class="fil1" d="M926 650l-17 -581c-1,-21 5,-31 17,-40l30 -25c13,-11 19,4 19,11l0 586c0,30 -48,95 -49,49z"/>
 </g>
</svg>
