<?xml version="1.0" encoding="UTF-8"?>
<!DOCTYPE svg PUBLIC "-//W3C//DTD SVG 1.0//EN" "http://www.w3.org/TR/2001/REC-SVG-20010904/DTD/svg10.dtd">
<!-- Creator: CorelDRAW -->
<svg xmlns="http://www.w3.org/2000/svg" xml:space="preserve" width="1300px" height="1300px" version="1.0" style="shape-rendering:geometricPrecision; text-rendering:geometricPrecision; image-rendering:optimizeQuality; fill-rule:evenodd; clip-rule:evenodd"
viewBox="0 0 1300 1056"
 xmlns:xlink="http://www.w3.org/1999/xlink">
 <defs>
  <style type="text/css">
   <![CDATA[
    .fil2 {fill:#333333;fill-opacity:0.501961}
    .fil5 {fill:#663333;fill-opacity:0.501961}
    .fil0 {fill:#CC9933;fill-opacity:0.501961}
    .fil4 {fill:red;fill-opacity:0.501961}
    .fil1 {fill:fuchsia}
    .fil3 {fill:#FF6633}
    .fil6 {fill:#FF99CC}
   ]]>
  </style>
 </defs>
 <g id="_300:master" visibility="hidden">
  <metadata id="CorelCorpID_0Corel-Layer"/>
  <path class="fil0" d="M358 367l28 12c4,1 8,7 5,15 -110,299 451,134 581,95 -3,39 -18,81 -91,109 -214,48 -675,161 -536,-226 2,-5 8,-7 13,-5z"/>
 </g>
 <g id="_100:master" visibility="hidden">
  <metadata id="CorelCorpID_1Corel-Layer"/>
  <path class="fil0" d="M368 336l28 11c5,2 9,8 6,16 -65,174 36,223 174,222 136,0 252,-28 341,-59 22,-8 42,-18 58,-23 -3,39 -19,82 -91,110 -86,29 -168,54 -321,54 -167,0 -301,-64 -208,-326 2,-5 9,-7 13,-5z"/>
  <path class="fil1" d="M915 527c20,-8 42,-11 60,-24 5,-52 -8,-115 -29,-182 -2,-6 -8,-14 -18,-5l-39 33c-4,3 -10,9 -6,22 11,39 35,117 32,156z"/>
 </g>
 <g id="Layer_x0020_1" visibility="hidden">
  <metadata id="CorelCorpID_2Corel-Layer"/>
  <path class="fil2" d="M362 378l31 12c4,2 8,7 5,15 -48,132 26,180 138,180 244,0 357,-46 376,-54 20,-7 41,-20 62,-27 -5,45 -30,77 -55,99 -11,6 -115,64 -388,64 -155,0 -255,-82 -182,-284 2,-5 9,-7 13,-5z"/>
  <path class="fil3" d="M912 531l7 72c25,-22 51,-57 55,-99 6,-50 -6,-111 -31,-184 -2,-5 -8,-14 -18,-5l-40 34c-4,4 -10,10 -6,22 15,46 36,122 33,160z"/>
 </g>
 <g id="Layer_x0020_2" visibility="hidden">
  <metadata id="CorelCorpID_3Corel-Layer"/>
  <path class="fil3" d="M912 530l7 72c25,-22 51,-57 55,-99 6,-50 -6,-111 -31,-184 -2,-5 -8,-14 -18,-5l-40 34c-4,4 -10,10 -6,22 15,46 36,122 33,160z"/>
  <path class="fil2" d="M362 378l31 12c4,2 9,7 5,15 -118,284 444,158 576,100 -3,41 -26,87 -55,97 -202,69 -714,160 -570,-219 2,-5 9,-7 13,-5z"/>
 </g>
 <g id="Layer_x0020_3" visibility="hidden">
  <metadata id="CorelCorpID_4Corel-Layer"/>
  <path class="fil3" d="M912 530l7 72c25,-22 51,-57 55,-99 6,-50 -6,-111 -31,-184 -2,-5 -8,-14 -18,-5l-40 34c-4,4 -10,10 -6,22 15,46 36,122 33,160z"/>
  <path class="fil2" d="M354 378l31 12c4,2 8,7 5,15 -98,288 452,158 584,100 -3,41 -26,87 -55,97 -151,48 -708,194 -578,-219 2,-5 9,-7 13,-5z"/>
 </g>
 <g id="Layer_x0020_4" visibility="hidden">
  <metadata id="CorelCorpID_5Corel-Layer"/>
  <path class="fil3" d="M910 615c97,-79 64,-200 35,-288 -2,-5 -8,-14 -18,-5l-40 34c-5,4 -10,10 -7,22 38,100 40,185 30,237z"/>
  <path class="fil4" d="M356 365l16 5c11,3 7,12 6,20 -32,152 77,211 204,211 125,0 244,-31 379,-87 4,-2 7,-3 11,-5 -3,29 -26,81 -62,106 -52,22 -201,66 -329,68 -152,2 -309,-67 -237,-311 1,-6 7,-9 12,-7z"/>
 </g>
 <g id="Layer_x0020_5" visibility="hidden">
  <metadata id="CorelCorpID_6Corel-Layer"/>
  <path class="fil5" d="M372 352l15 8c10,4 5,13 2,20 -109,319 472,191 572,120 8,-2 5,-6 19,-4 -7,47 -36,98 -70,111 -205,77 -719,141 -552,-250 3,-5 9,-8 14,-5z"/>
  <path class="fil3" d="M926 597c87,-79 55,-195 26,-281 -2,-5 -8,-14 -18,-5l-40 34c-4,4 -10,10 -6,22 35,93 39,173 31,225 0,4 -4,15 7,5z"/>
 </g>
 <g id="Layer_x0020_6" visibility="hidden">
  <metadata id="CorelCorpID_7Corel-Layer"/>
  <path class="fil4" d="M372 352l13 7c9,4 7,14 4,21 -118,317 472,205 572,134 7,26 13,-43 14,-33 3,55 -36,122 -65,134 -203,86 -719,133 -552,-258 3,-5 8,-8 14,-5z"/>
  <path class="fil3" d="M918 610c88,-79 55,-195 27,-281 -2,-5 -10,-12 -19,-4l-39 33c-5,4 -11,10 -7,22 35,93 39,173 32,225 -1,4 -5,15 6,5z"/>
 </g>
 <g id="Layer_x0020_7">
  <metadata id="CorelCorpID_8Corel-Layer"/>
  <path class="fil6" d="M915 533c-1,-33 -21,-103 -39,-148 -5,-12 2,-18 7,-22l40 -35c6,-5 14,-4 18,6 24,71 34,126 34,169 0,54 -20,94 -63,110 -57,20 -190,48 -315,49 -172,0 -275,-36 -274,-162 1,-34 8,-74 21,-122 2,-10 8,-12 15,-11l14 4c9,2 6,14 4,21 -12,44 -14,78 -8,103 15,62 113,82 223,82 127,1 271,-25 323,-44z"/>
 </g>
</svg>
