<?xml version="1.0" encoding="UTF-8"?>
<!DOCTYPE svg PUBLIC "-//W3C//DTD SVG 1.0//EN" "http://www.w3.org/TR/2001/REC-SVG-20010904/DTD/svg10.dtd">
<!-- Creator: CorelDRAW -->
<svg xmlns="http://www.w3.org/2000/svg" xml:space="preserve" width="1300px" height="1300px" version="1.0" style="shape-rendering:geometricPrecision; text-rendering:geometricPrecision; image-rendering:optimizeQuality; fill-rule:evenodd; clip-rule:evenodd"
viewBox="0 0 1300 1056"
 xmlns:xlink="http://www.w3.org/1999/xlink">
 <defs>
  <style type="text/css">
   <![CDATA[
    .fil8 {fill:none}
    .fil9 {fill:black;fill-opacity:0.501961}
    .fil10 {fill:#00CCFF}
    .fil1 {fill:gray}
    .fil6 {fill:#996633}
    .fil3 {fill:#999966}
    .fil0 {fill:#99CCCC}
    .fil4 {fill:#CC9933}
    .fil5 {fill:fuchsia}
    .fil7 {fill:#FF6633}
    .fil2 {fill:#FF9933}
   ]]>
  </style>
 </defs>
 <g id="_100:master" visibility="hidden">
  <metadata id="CorelCorpID_0Corel-Layer"/>
  <path class="fil0" d="M760 650l21 0 0 -81 -21 0c-20,0 -40,19 -40,40 -1,21 20,41 40,41z"/>
  <path class="fil1" d="M974 504l-14 81c-37,45 -66,65 -180,65l0 -81c102,0 146,-17 194,-65z"/>
 </g>
 <g id="Layer_x0020_1" visibility="hidden">
  <metadata id="CorelCorpID_1Corel-Layer"/>
  <path class="fil1" d="M993 390l-65 -8 -11 105c-6,57 -10,64 -69,77l20 29c4,9 65,-9 71,-2 12,15 27,28 49,37l0 0c26,14 61,22 116,22l0 -81c-40,0 -72,-8 -99,-16 -29,-7 -26,-29 -24,-50l12 -113z"/>
  <path class="fil1" d="M982 488l-13 81c-10,32 -67,81 -181,81l0 -81c131,0 181,-67 194,-81z"/>
  <path class="fil0" d="M768 650l21 0 0 -81 -21 0c-20,0 -40,19 -40,40 -1,21 20,41 40,41z"/>
 </g>
 <g id="Layer_x0020_2" visibility="hidden">
  <metadata id="CorelCorpID_2Corel-Layer"/>
  <path class="fil0" d="M760 650l21 0 0 -81 -21 0c-20,0 -40,19 -40,40 -1,21 20,41 40,41z"/>
  <path class="fil1" d="M974 504l-14 81c-37,45 -66,65 -180,65l0 -81c102,0 146,-17 194,-65z"/>
  <path class="fil2" d="M975 564l-112 -1c39,-12 55,-32 55,-90l0 -83 57 0 0 82 0 92z"/>
  <path class="fil1" d="M975 520l-7 0 -34 71c12,15 28,28 49,37l0 0c26,14 62,22 117,22l0 -81c-40,0 -73,-8 -99,-16 -21,-5 -26,-18 -26,-33z"/>
 </g>
 <g id="Layer_x0020_3" visibility="hidden">
  <metadata id="CorelCorpID_3Corel-Layer"/>
  <path class="fil0" d="M760 650l21 0 0 -81 -21 0c-20,0 -40,19 -40,40 -1,21 20,41 40,41z"/>
  <path class="fil3" d="M972 520c-1,16 -11,48 -25,69 -34,48 -100,61 -167,61l0 -81c38,0 131,-5 131,-49l7 -97c1,-12 1,-21 16,-25l30 -8c11,-3 17,4 16,16l-8 114z"/>
  <path class="fil4" d="M926 585l47 -86c-2,28 -5,52 27,60 22,6 48,10 81,10l0 81c-108,0 -146,-51 -155,-65z"/>
 </g>
 <g id="Layer_x0020_4" visibility="hidden">
  <metadata id="CorelCorpID_4Corel-Layer"/>
  <path class="fil0" d="M760 650l21 0 0 -81 -21 0c-20,0 -40,19 -40,40 -1,21 20,41 40,41z"/>
  <path class="fil5" d="M955 375l-29 7c-15,4 -16,13 -16,24l0 114c0,24 -30,36 -49,43l33 56c4,-10 81,-34 81,-99l0 -130c0,-14 -8,-18 -20,-15z"/>
  <path class="fil6" d="M975 520l-7 0 -34 71c37,47 111,59 166,59l0 -81c-22,0 -68,-6 -98,-15 -17,-5 -27,-18 -27,-34z"/>
  <path class="fil1" d="M975 518c-14,98 -90,132 -195,132l0 -81c83,0 128,-22 173,-60l22 9z"/>
 </g>
 <g id="Layer_x0020_5" visibility="hidden">
  <metadata id="CorelCorpID_5Corel-Layer"/>
  <path class="fil0" d="M780 650l0 -81c-21,0 -41,19 -41,40 0,21 20,41 41,41z"/>
  <path class="fil5" d="M955 383l-29 7c-15,4 -16,13 -16,24l0 105c0,17 -3,28 -51,41l40 68c56,-27 76,-73 76,-107l0 -123c0,-14 -8,-18 -20,-15z"/>
  <path class="fil1" d="M973 518c-4,98 -89,132 -195,132l0 -81c83,0 128,-22 174,-60l21 9z"/>
  <path class="fil1" d="M910 518c4,98 90,132 195,132l0 -81c-83,0 -128,-22 -173,-60l-22 9z"/>
 </g>
 <g id="Layer_x0020_6" visibility="hidden">
  <metadata id="CorelCorpID_6Corel-Layer"/>
  <path class="fil7" d="M970 537l-59 0c-43,27 -83,32 -147,32l0 81 19 0c81,0 131,-21 160,-56 28,35 78,56 159,56l19 0 0 -81c-64,0 -107,-5 -151,-32z"/>
  <path class="fil5" d="M955 383l-28 7c-16,4 -16,13 -16,24l0 86c0,27 -16,50 -52,60l166 0c-26,-7 -50,-21 -50,-38l0 -124c0,-14 -8,-18 -20,-15z"/>
  <path class="fil0" d="M764 650l0 -81c-20,0 -40,19 -40,40 -1,21 20,41 40,41z"/>
 </g>
 <g id="Layer_x0020_7" visibility="hidden">
  <metadata id="CorelCorpID_7Corel-Layer"/>
  <path class="fil0" d="M748 650l0 -81c-20,0 -40,19 -41,40 0,21 21,41 41,41z"/>
  <path class="fil8" d="M1098 650c-88,0 -135,-24 -159,-56 -29,33 -87,56 -177,56l-16 0 1 -81 16 0c76,0 147,0 158,-102l5 -42c1,-12 3,-20 19,-23l21 -3c12,-1 19,4 18,18l-9 95c-4,50 89,57 124,57"/>
  <path class="fil9" d="M1099 569l-1 81c-88,0 -136,-27 -160,-58 -29,33 -86,58 -160,58l-32 0 1 -81 16 0c96,0 150,-32 156,-90l7 -71c1,-11 3,-20 19,-22l21 -3c12,-2 19,4 18,18l-9 111c-4,50 89,57 124,57z"/>
 </g>
 <g id="Layer_x0020_8" visibility="hidden">
  <metadata id="CorelCorpID_8Corel-Layer"/>
  <path class="fil0" d="M748 650l0 -81c-21,0 -41,19 -41,40 0,21 20,41 41,41z"/>
  <path class="fil9" d="M963 512c-18,119 -92,138 -205,138l-11 0 1 -81 15 0c82,0 140,-17 150,-67l16 -85c1,-8 5,-12 14,-15l23 -7c12,-3 14,5 13,11l-16 106z"/>
  <path class="fil9" d="M945 505l-39 46c19,57 55,99 142,99l41 0 0 -81 -37 0c-56,0 -91,-16 -107,-64z"/>
 </g>
 <g id="Layer_x0020_9">
  <metadata id="CorelCorpID_9Corel-Layer"/>
  <path class="fil10" d="M748 569l0 0 0 0 40 0c63,0 112,-10 136,-38 -5,-28 -5,-60 -1,-96 1,-6 1,-13 9,-16l23 -9c11,-4 15,2 15,10 -4,115 33,149 114,149l16 0 0 81 -19 0c-64,0 -105,-17 -130,-49 -35,41 -93,49 -169,49l-34 0 -1 0 0 0c-20,0 -40,-20 -40,-41 0,-21 20,-40 41,-40z"/>
 </g>
</svg>
