<?xml version="1.0" encoding="UTF-8"?>
<!DOCTYPE svg PUBLIC "-//W3C//DTD SVG 1.0//EN" "http://www.w3.org/TR/2001/REC-SVG-20010904/DTD/svg10.dtd">
<!-- Creator: CorelDRAW -->
<svg xmlns="http://www.w3.org/2000/svg" xml:space="preserve" width="1300px" height="1300px" version="1.0" style="shape-rendering:geometricPrecision; text-rendering:geometricPrecision; image-rendering:optimizeQuality; fill-rule:evenodd; clip-rule:evenodd"
viewBox="0 0 1300 1056"
 xmlns:xlink="http://www.w3.org/1999/xlink">
 <defs>
  <style type="text/css">
   <![CDATA[
    .fil6 {fill:#000066}
    .fil4 {fill:#663300}
    .fil0 {fill:gray}
    .fil1 {fill:#99CCCC}
    .fil2 {fill:fuchsia}
    .fil3 {fill:#FF6633}
    .fil5 {fill:yellow}
   ]]>
  </style>
 </defs>
 <g id="_100:master" visibility="hidden">
  <metadata id="CorelCorpID_0Corel-Layer"/>
  <path class="fil0" d="M974 488l-14 81c-37,45 -66,81 -180,81l0 -81c131,0 180,-67 194,-81z"/>
  <path class="fil1" d="M760 650l21 0 0 -81 -21 0c-20,0 -40,19 -40,40 -1,21 20,41 40,41z"/>
  <path class="fil2" d="M879 553l17 75c134,-62 64,-236 24,-347l-62 53c15,47 32,88 40,122 13,55 26,82 -19,97z"/>
 </g>
 <g id="Layer_x0020_1" visibility="hidden">
  <metadata id="CorelCorpID_1Corel-Layer"/>
  <path class="fil1" d="M760 650l21 0 0 -81 -21 0c-20,0 -40,19 -40,40 -1,21 20,41 40,41z"/>
  <path class="fil2" d="M939 325l-62 53c12,39 39,123 35,161 -29,15 -69,30 -125,30l-7 0 0 81 3 0c219,0 216,-146 156,-325z"/>
 </g>
 <g id="Layer_x0020_2" visibility="hidden">
  <metadata id="CorelCorpID_2Corel-Layer"/>
  <path class="fil1" d="M781 650l0 -81c-21,0 -41,19 -41,40 0,21 20,41 41,41z"/>
  <path class="fil2" d="M925 328l-40 34c-4,4 -10,10 -6,22 11,39 35,118 32,156 -26,16 -68,29 -124,29l-7 0 0 81 3 0c213,0 215,-145 160,-317 -2,-5 -8,-14 -18,-5z"/>
 </g>
 <g id="Layer_x0020_3" visibility="hidden">
  <metadata id="CorelCorpID_3Corel-Layer"/>
  <path class="fil1" d="M764 650l0 -81c-20,0 -40,19 -40,40 -1,21 20,41 40,41z"/>
  <path class="fil3" d="M925 328l-40 34c-4,4 -10,10 -6,22 15,46 36,114 32,153 -43,27 -83,32 -147,32l0 81 19 0c83,0 134,-22 162,-59 44,-58 37,-144 -2,-258 -2,-5 -8,-14 -18,-5z"/>
 </g>
 <g id="Layer_x0020_4" visibility="hidden">
  <metadata id="CorelCorpID_4Corel-Layer"/>
  <path class="fil1" d="M763 650l0 -81c-21,0 -41,19 -41,40 0,21 20,41 41,41z"/>
  <path class="fil0" d="M968 537l-42 -17c-34,36 -73,49 -164,49l0 81c105,0 179,-19 206,-113z"/>
  <path class="fil4" d="M907 537l34 52c50,-60 41,-145 0,-256 -1,-5 -8,-14 -17,-5l-40 34c-5,4 -11,10 -7,22 15,46 42,141 30,153z"/>
 </g>
 <g id="Layer_x0020_5" visibility="hidden">
  <metadata id="CorelCorpID_5Corel-Layer"/>
  <path class="fil1" d="M747 650l0 -81c-20,0 -40,19 -40,40 -1,21 20,41 40,41z"/>
  <path class="fil5" d="M974 495l-33 12c-15,35 -58,62 -146,62l-48 0 0 81 65 0c99,0 152,-53 162,-155z"/>
  <path class="fil3" d="M910 623c97,-79 64,-200 35,-288 -2,-5 -8,-14 -18,-5l-40 35c-5,3 -10,9 -7,22 38,99 40,184 30,236z"/>
 </g>
 <g id="Layer_x0020_6" visibility="hidden">
  <metadata id="CorelCorpID_6Corel-Layer"/>
  <path class="fil6" d="M823 650c89,0 197,-59 126,-316 -3,-10 -11,-11 -18,-6l-40 35c-5,4 -11,10 -7,22 20,49 38,109 35,155 -17,22 -61,29 -96,29l-76 0 0 81 76 0z"/>
  <path class="fil1" d="M747 650l0 -81c-20,0 -40,19 -40,40 -1,21 20,41 40,41z"/>
 </g>
 <g id="Layer_x0020_7">
  <metadata id="CorelCorpID_7Corel-Layer"/>
  <path class="fil1" d="M747 569l0 0 65 0c36,0 86,-12 103,-28 2,-28 -19,-104 -38,-153 -5,-15 -2,-18 9,-28l37 -32c9,-7 14,-4 18,6 24,71 35,126 34,169 -2,109 -96,147 -163,147l-65 0 0 0 0 0c-20,0 -41,-20 -40,-41 0,-21 20,-40 40,-40z"/>
 </g>
</svg>
