<?xml version="1.0" encoding="UTF-8"?>
<!DOCTYPE svg PUBLIC "-//W3C//DTD SVG 1.0//EN" "http://www.w3.org/TR/2001/REC-SVG-20010904/DTD/svg10.dtd">
<!-- Creator: CorelDRAW -->
<svg xmlns="http://www.w3.org/2000/svg" xml:space="preserve" width="1300px" height="1300px" version="1.0" style="shape-rendering:geometricPrecision; text-rendering:geometricPrecision; image-rendering:optimizeQuality; fill-rule:evenodd; clip-rule:evenodd"
viewBox="0 0 1300 1056"
 xmlns:xlink="http://www.w3.org/1999/xlink">
 <defs>
  <style type="text/css">
   <![CDATA[
    .fil2 {fill:#333333;fill-opacity:0.501961}
    .fil1 {fill:#CC9933;fill-opacity:0.501961}
    .fil0 {fill:#999966}
   ]]>
  </style>
 </defs>
 <g id="_100:master" visibility="hidden">
  <metadata id="CorelCorpID_0Corel-Layer"/>
  <path class="fil0" d="M1126 569l0 81c-155,0 -190,-87 -212,-197 -4,-16 -3,-12 -6,-29 -1,-8 3,-16 10,-19l38 -11c6,-1 15,5 16,11 4,17 4,13 7,28 21,85 46,136 147,136z"/>
  <path class="fil1" d="M368 352l28 12c5,1 9,7 6,15 -65,174 19,223 174,223 155,-1 247,-37 399,-83l-16 82c-86,29 -236,82 -396,82 -160,0 -301,-64 -208,-326 2,-5 9,-7 13,-5z"/>
 </g>
 <g id="Layer_x0020_1" visibility="hidden">
  <metadata id="CorelCorpID_1Corel-Layer"/>
  <path class="fil2" d="M362 378l31 12c4,2 9,7 5,15 -122,294 480,142 576,100l-11 80c-102,49 -780,233 -614,-202 2,-5 9,-7 13,-5z"/>
  <path class="fil0" d="M1117 569l15 0 0 81 -15 0c-165,0 -194,-114 -218,-247 -1,-7 3,-16 11,-18l35 -11c6,-2 14,4 15,10 33,128 31,185 157,185z"/>
 </g>
 <g id="Layer_x0020_2">
  <metadata id="CorelCorpID_2Corel-Layer"/>
  <path class="fil2" d="M358 378l30 12c4,2 8,7 5,15 -88,261 353,179 535,118 -13,-36 -21,-77 -29,-120 -1,-7 3,-16 11,-18l35 -11c6,-2 14,4 15,10 32,116 31,185 157,185l15 0 0 81 -15 0c-84,0 -132,-29 -163,-76 -9,14 -20,24 -32,28 -151,48 -707,194 -578,-219 2,-5 9,-7 14,-5z"/>
 </g>
</svg>
