<?xml version="1.0" encoding="UTF-8"?>
<!DOCTYPE svg PUBLIC "-//W3C//DTD SVG 1.0//EN" "http://www.w3.org/TR/2001/REC-SVG-20010904/DTD/svg10.dtd">
<!-- Creator: CorelDRAW -->
<svg xmlns="http://www.w3.org/2000/svg" xml:space="preserve" width="1300px" height="1300px" version="1.0" style="shape-rendering:geometricPrecision; text-rendering:geometricPrecision; image-rendering:optimizeQuality; fill-rule:evenodd; clip-rule:evenodd"
viewBox="0 0 1300 1056"
 xmlns:xlink="http://www.w3.org/1999/xlink">
 <defs>
  <style type="text/css">
   <![CDATA[
    .fil3 {fill:black;fill-opacity:0.501961}
    .fil2 {fill:#333333;fill-opacity:0.501961}
    .fil5 {fill:#9900CC;fill-opacity:0.501961}
    .fil1 {fill:#CC9933;fill-opacity:0.501961}
    .fil4 {fill:red;fill-opacity:0.501961}
    .fil0 {fill:#999966}
   ]]>
  </style>
 </defs>
 <g id="_100:master" visibility="hidden">
  <metadata id="CorelCorpID_0Corel-Layer"/>
  <path class="fil0" d="M1126 569l0 81c-155,0 -190,-87 -212,-197 -4,-16 -3,-12 -6,-29 -1,-8 3,-16 10,-19l38 -11c6,-1 15,5 16,11 4,17 4,13 7,28 21,85 46,136 147,136z"/>
  <path class="fil1" d="M368 352l28 12c5,1 9,7 6,15 -65,174 19,223 174,223 155,-1 247,-37 399,-83l-16 82c-86,29 -236,82 -396,82 -160,0 -301,-64 -208,-326 2,-5 9,-7 13,-5z"/>
 </g>
 <g id="Layer_x0020_1" visibility="hidden">
  <metadata id="CorelCorpID_1Corel-Layer"/>
  <path class="fil2" d="M362 378l31 12c4,2 9,7 5,15 -122,294 480,142 576,100l-11 80c-102,49 -780,233 -614,-202 2,-5 9,-7 13,-5z"/>
  <path class="fil0" d="M1117 569l15 0 0 81 -15 0c-165,0 -194,-114 -218,-247 -1,-7 3,-16 11,-18l35 -11c6,-2 14,4 15,10 33,128 31,185 157,185z"/>
 </g>
 <g id="Layer_x0020_2" visibility="hidden">
  <metadata id="CorelCorpID_2Corel-Layer"/>
  <path class="fil2" d="M358 378l30 12c4,2 8,7 5,15 -97,288 452,158 584,100 -3,41 -25,87 -55,97 -151,48 -707,194 -578,-219 2,-5 9,-7 14,-5z"/>
  <path class="fil0" d="M1117 569l15 0 0 81 -15 0c-165,0 -194,-114 -218,-247 -1,-7 3,-16 11,-18l35 -11c6,-2 14,4 15,10 32,116 31,185 157,185z"/>
 </g>
 <g id="Layer_x0020_3" visibility="hidden">
  <metadata id="CorelCorpID_3Corel-Layer"/>
  <path class="fil3" d="M1099 650l32 0 0 -81 -17 0c-127,0 -132,-81 -151,-161 -5,-18 -11,-25 -26,-20l-21 8c-13,4 -11,17 -8,30 24,120 48,224 191,224z"/>
  <path class="fil4" d="M356 365l16 2c5,1 9,7 7,15 -37,158 74,219 203,219 125,0 244,-31 379,-87 4,-2 7,-3 11,-5l6 65c1,12 -25,23 -68,41 -52,22 -201,66 -329,68 -152,2 -309,-67 -237,-311 1,-6 7,-9 12,-7z"/>
 </g>
 <g id="Layer_x0020_4" visibility="hidden">
  <metadata id="CorelCorpID_4Corel-Layer"/>
  <path class="fil4" d="M380 352l15 8c10,4 5,13 3,20 -60,172 41,205 184,205 125,0 244,-15 379,-71 4,-2 7,-3 11,-5l-13 76c-2,12 -6,12 -49,30 -52,22 -201,52 -329,52 -159,-1 -327,-46 -214,-310 2,-5 8,-8 13,-5z"/>
  <path class="fil3" d="M973 512c-3,28 -8,59 -26,80l-58 -50c35,-11 35,-36 38,-63l6 -61c1,-9 0,-14 19,-20l11 -3c16,-5 18,5 18,12l-8 105z"/>
  <path class="fil5" d="M942 601l19 -79c22,25 67,47 138,47l-1 81c-113,0 -139,-33 -156,-49z"/>
 </g>
 <g id="Layer_x0020_5" visibility="hidden">
  <metadata id="CorelCorpID_5Corel-Layer"/>
  <path class="fil4" d="M372 352l15 8c10,4 5,13 2,20 -109,319 472,205 572,134 3,-4 9,-7 13,-9 -3,40 6,81 -64,110 -203,86 -719,133 -552,-258 3,-5 9,-8 14,-5z"/>
  <path class="fil3" d="M973 516c-2,28 -7,59 -26,80l-57 -50c35,-11 35,-36 38,-63l6 -61c1,-9 0,-14 19,-20l10 -3c16,-5 19,5 19,12l-9 105z"/>
  <path class="fil5" d="M935 601l19 -79c21,25 67,47 137,47l0 81c-114,0 -139,-33 -156,-49z"/>
 </g>
 <g id="Layer_x0020_6" visibility="hidden">
  <metadata id="CorelCorpID_6Corel-Layer"/>
  <path class="fil4" d="M372 352l15 8c10,4 5,13 2,20 -109,319 472,205 572,134 7,26 9,44 5,53 -8,18 -23,34 -56,48 -203,86 -719,133 -552,-258 3,-5 9,-8 14,-5z"/>
  <path class="fil3" d="M918 512c18,119 91,138 205,138l10 0 0 -81 -15 0c-82,0 -140,-17 -150,-67l-16 -87c-2,-8 -11,-14 -19,-9l-18 11c-10,6 -9,14 -8,20l11 75z"/>
 </g>
 <g id="Layer_x0020_7">
  <metadata id="CorelCorpID_7Corel-Layer"/>
  <path class="fil3" d="M1081 650c-69,0 -112,-20 -136,-58 -12,12 -25,19 -35,23 -203,86 -719,133 -552,-258 3,-5 8,-8 14,-5l13 7c9,4 7,14 4,21 -107,289 374,221 535,153 -5,-28 -5,-61 -1,-98 1,-6 1,-13 9,-16l23 -9c11,-4 15,2 15,10 -4,115 33,149 114,149l16 0 0 81 -19 0z"/>
 </g>
</svg>
