<?xml version="1.0" encoding="UTF-8"?>
<!DOCTYPE svg PUBLIC "-//W3C//DTD SVG 1.0//EN" "http://www.w3.org/TR/2001/REC-SVG-20010904/DTD/svg10.dtd">
<!-- Creator: CorelDRAW -->
<svg xmlns="http://www.w3.org/2000/svg" xml:space="preserve" width="1300px" height="1300px" version="1.0" style="shape-rendering:geometricPrecision; text-rendering:geometricPrecision; image-rendering:optimizeQuality; fill-rule:evenodd; clip-rule:evenodd"
viewBox="0 0 1300 1056"
 xmlns:xlink="http://www.w3.org/1999/xlink">
 <defs>
  <style type="text/css">
   <![CDATA[
    .fil5 {fill:black;fill-opacity:0.501961}
    .fil1 {fill:gray}
    .fil3 {fill:#999966}
    .fil0 {fill:#99CCCC}
    .fil4 {fill:#CC9933}
    .fil2 {fill:fuchsia}
   ]]>
  </style>
 </defs>
 <g id="Layer_x0020_1" visibility="hidden">
  <metadata id="CorelCorpID_0Corel-Layer"/>
  <path class="fil0" d="M752 650l32 0 0 -81 -32 0c-20,0 -40,19 -41,40 0,21 21,41 41,41z"/>
  <path class="fil1" d="M958 572c-22,44 -70,78 -174,78l0 -81c45,0 101,-8 130,-33l44 36z"/>
  <path class="fil2" d="M949 371l-54 36c0,69 -5,243 201,243l0 -81c-160,0 -142,-142 -147,-198z"/>
 </g>
 <g id="Layer_x0020_3" visibility="hidden">
  <metadata id="CorelCorpID_1Corel-Layer"/>
  <path class="fil1" d="M993 390l-65 -8 -11 105c-6,57 -10,64 -69,77l20 29c4,9 65,-9 71,-2 12,15 27,28 49,37l0 0c26,14 61,22 116,22l0 -81c-40,0 -72,-8 -99,-16 -29,-7 -26,-29 -24,-50l12 -113z"/>
  <path class="fil1" d="M982 488l-13 81c-10,32 -67,81 -181,81l0 -81c131,0 181,-67 194,-81z"/>
  <path class="fil0" d="M768 650l21 0 0 -81 -21 0c-20,0 -40,19 -40,40 -1,21 20,41 40,41z"/>
 </g>
 <g id="Layer_x0020_4" visibility="hidden">
  <metadata id="CorelCorpID_2Corel-Layer"/>
  <path class="fil0" d="M780 650l0 -81c-21,0 -41,19 -41,40 0,21 20,41 41,41z"/>
  <path class="fil2" d="M955 383l-29 7c-15,4 -16,13 -16,24l0 105c0,17 -3,28 -51,41l40 68c56,-27 76,-73 76,-107l0 -123c0,-14 -8,-18 -20,-15z"/>
  <path class="fil1" d="M973 518c-4,98 -89,132 -195,132l0 -81c83,0 128,-22 174,-60l21 9z"/>
  <path class="fil1" d="M910 518c4,98 90,132 195,132l0 -81c-83,0 -128,-22 -173,-60l-22 9z"/>
 </g>
 <g id="Layer_x0020_5" visibility="hidden">
  <metadata id="CorelCorpID_3Corel-Layer"/>
  <path class="fil0" d="M760 650l21 0 0 -81 -21 0c-20,0 -40,19 -40,40 -1,21 20,41 40,41z"/>
  <path class="fil3" d="M972 520c0,16 -11,48 -25,69 -34,48 -100,61 -167,61l0 -81c38,0 131,-5 131,-49l7 -97c1,-12 1,-21 16,-25l30 -8c11,-3 17,4 16,16l-8 114z"/>
  <path class="fil4" d="M926 585l47 -86c-2,28 -5,52 27,60 22,6 48,10 81,10l0 81c-108,0 -146,-51 -155,-65z"/>
 </g>
 <g id="Layer_x0020_6" visibility="hidden">
  <metadata id="CorelCorpID_4Corel-Layer"/>
  <path class="fil0" d="M748 650l0 -81c-20,0 -40,19 -41,40 0,21 21,41 41,41z"/>
  <path class="fil5" d="M1099 569l-1 81c-88,0 -135,-24 -159,-56 -29,33 -87,56 -177,56l-16 0 1 -81 16 0c50,0 147,-6 147,-54l0 -101c0,-11 1,-20 16,-24l28 -7c13,-3 20,1 20,15l0 117c0,38 50,54 125,54z"/>
 </g>
 <g id="Layer_x0020_7" visibility="hidden">
  <metadata id="CorelCorpID_5Corel-Layer"/>
  <path class="fil0" d="M748 650l0 -81c-20,0 -40,19 -41,40 0,21 21,41 41,41z"/>
  <path class="fil5" d="M1099 569l-1 81c-88,0 -136,-27 -160,-58 -29,33 -86,58 -160,58l-32 0 1 -81 16 0c96,0 150,-32 156,-90l7 -71c1,-11 3,-20 19,-22l21 -3c12,-2 19,4 18,18l-9 111c-4,50 89,57 124,57z"/>
 </g>
 <g id="Layer_x0020_8" visibility="hidden">
  <metadata id="CorelCorpID_6Corel-Layer"/>
  <path class="fil0" d="M731 650l0 -81c-20,0 -40,19 -40,40 -1,21 20,41 40,41z"/>
  <path class="fil5" d="M1099 569l-1 81c-88,0 -136,-27 -160,-58 -29,33 -86,58 -160,58l-47 0 0 -81 32 0c96,0 150,-32 156,-90l6 -61c1,-9 0,-14 19,-20l10 -3c16,-5 19,5 19,12l-8 105c-4,50 99,57 134,57z"/>
 </g>
 <g id="Layer_x0020_10">
  <metadata id="CorelCorpID_7Corel-Layer"/>
  <path class="fil5" d="M1081 650c-64,0 -105,-17 -130,-49 -35,41 -93,49 -169,49l-34 0 -1 0 0 0c-20,0 -40,-20 -40,-41 0,-21 20,-40 41,-40l0 0 0 0 40 0c63,0 112,-10 136,-38 -5,-28 -5,-60 -1,-96 1,-6 1,-13 9,-16l23 -9c11,-4 15,2 15,10 -4,115 33,149 114,149l16 0 0 81 -19 0z"/>
 </g>
</svg>
