<?xml version="1.0" encoding="UTF-8"?>
<!DOCTYPE svg PUBLIC "-//W3C//DTD SVG 1.0//EN" "http://www.w3.org/TR/2001/REC-SVG-20010904/DTD/svg10.dtd">
<!-- Creator: CorelDRAW -->
<svg xmlns="http://www.w3.org/2000/svg" xml:space="preserve" width="1300px" height="1300px" version="1.0" style="shape-rendering:geometricPrecision; text-rendering:geometricPrecision; image-rendering:optimizeQuality; fill-rule:evenodd; clip-rule:evenodd"
viewBox="0 0 1300 1056"
 xmlns:xlink="http://www.w3.org/1999/xlink">
 <defs>
  <style type="text/css">
   <![CDATA[
    .fil2 {fill:#333333;fill-opacity:0.501961}
    .fil0 {fill:#CC9933;fill-opacity:0.501961}
    .fil1 {fill:fuchsia}
    .fil3 {fill:#FF6633}
   ]]>
  </style>
 </defs>
 <g id="_300:master" visibility="hidden">
  <metadata id="CorelCorpID_0Corel-Layer"/>
  <path class="fil0" d="M358 367l28 12c4,1 8,7 5,15 -110,299 451,134 581,95 -3,39 -18,81 -91,109 -214,48 -675,161 -536,-226 2,-5 8,-7 13,-5z"/>
 </g>
 <g id="_100:master" visibility="hidden">
  <metadata id="CorelCorpID_1Corel-Layer"/>
  <path class="fil0" d="M368 336l28 11c5,2 9,8 6,16 -65,174 36,223 174,222 136,0 252,-28 341,-59 22,-8 42,-18 58,-23 -3,39 -19,82 -91,110 -86,29 -168,54 -321,54 -167,0 -301,-64 -208,-326 2,-5 9,-7 13,-5z"/>
  <path class="fil1" d="M915 527c20,-8 42,-11 60,-24 5,-52 -8,-115 -29,-182 -2,-6 -8,-14 -18,-5l-39 33c-4,3 -10,9 -6,22 11,39 35,117 32,156z"/>
 </g>
 <g id="Layer_x0020_1" visibility="hidden">
  <metadata id="CorelCorpID_2Corel-Layer"/>
  <path class="fil2" d="M362 378l31 12c4,2 8,7 5,15 -48,132 26,180 138,180 244,0 357,-46 376,-54 20,-7 41,-20 62,-27 -5,45 -30,77 -55,99 -11,6 -115,64 -388,64 -155,0 -255,-82 -182,-284 2,-5 9,-7 13,-5z"/>
  <path class="fil3" d="M912 531l7 72c25,-22 51,-57 55,-99 6,-50 -6,-111 -31,-184 -2,-5 -8,-14 -18,-5l-40 34c-4,4 -10,10 -6,22 15,46 36,122 33,160z"/>
 </g>
 <g id="Layer_x0020_2">
  <metadata id="CorelCorpID_3Corel-Layer"/>
  <path class="fil2" d="M362 378l31 12c4,2 9,7 5,15 -106,255 334,175 514,121 2,-40 -19,-112 -33,-156 -4,-12 2,-18 6,-22l40 -34c10,-9 16,0 18,5 25,73 37,134 31,184l-1 2 1 0c-3,41 -11,78 -55,97l0 0 0 0c-179,61 -720,175 -570,-219 2,-5 9,-7 13,-5z"/>
 </g>
</svg>
