<?xml version="1.0" encoding="UTF-8"?>
<!DOCTYPE svg PUBLIC "-//W3C//DTD SVG 1.0//EN" "http://www.w3.org/TR/2001/REC-SVG-20010904/DTD/svg10.dtd">
<!-- Creator: CorelDRAW -->
<svg xmlns="http://www.w3.org/2000/svg" xml:space="preserve" width="1300px" height="1300px" version="1.0" style="shape-rendering:geometricPrecision; text-rendering:geometricPrecision; image-rendering:optimizeQuality; fill-rule:evenodd; clip-rule:evenodd"
viewBox="0 0 1300 1056"
 xmlns:xlink="http://www.w3.org/1999/xlink">
 <defs>
  <style type="text/css">
   <![CDATA[
    .fil0 {fill:gray}
   ]]>
  </style>
 </defs>
 <g id="_100:master">
  <metadata id="CorelCorpID_0Corel-Layer"/>
  <path class="fil0" d="M1101 650c-63,0 -135,-11 -167,-73 -14,5 -31,12 -50,20 -86,28 -168,54 -321,54 -167,0 -301,-65 -208,-326 2,-5 9,-8 13,-6l29 12c4,2 8,7 5,16 -65,173 36,223 174,222 135,0 251,-28 340,-59l-18 -93c-2,-7 4,-15 10,-16l35 -9c6,-1 14,3 16,10l12 62c17,92 29,105 130,105l0 81z"/>
 </g>
</svg>
