<?xml version="1.0" encoding="UTF-8"?>
<!DOCTYPE svg PUBLIC "-//W3C//DTD SVG 1.0//EN" "http://www.w3.org/TR/2001/REC-SVG-20010904/DTD/svg10.dtd">
<!-- Creator: CorelDRAW -->
<svg xmlns="http://www.w3.org/2000/svg" xml:space="preserve" width="1300px" height="1300px" version="1.0" style="shape-rendering:geometricPrecision; text-rendering:geometricPrecision; image-rendering:optimizeQuality; fill-rule:evenodd; clip-rule:evenodd"
viewBox="0 0 1300 1056"
 xmlns:xlink="http://www.w3.org/1999/xlink">
 <defs>
  <style type="text/css">
   <![CDATA[
    .fil3 {fill:#663300}
    .fil2 {fill:gray}
    .fil0 {fill:#99CCCC}
    .fil1 {fill:fuchsia}
   ]]>
  </style>
 </defs>
 <g id="Layer_x0020_2" visibility="hidden">
  <metadata id="CorelCorpID_0Corel-Layer"/>
  <path class="fil0" d="M760 650l21 0 0 -81 -21 0c-20,0 -40,19 -40,40 -1,21 20,41 40,41z"/>
  <path class="fil1" d="M897 602l30 16c44,-29 52,-67 48,-112 -3,-47 -20,-108 -48,-181l-62 53c48,125 65,188 32,224z"/>
  <path class="fil2" d="M974 504l-14 81c-37,45 -66,65 -180,65l0 -81c102,0 146,-17 194,-65z"/>
 </g>
 <g id="Layer_x0020_3" visibility="hidden">
  <metadata id="CorelCorpID_1Corel-Layer"/>
  <path class="fil2" d="M974 488l-14 81c-37,45 -66,81 -180,81l0 -81c131,0 180,-67 194,-81z"/>
  <path class="fil0" d="M760 650l21 0 0 -81 -21 0c-20,0 -40,19 -40,40 -1,21 20,41 40,41z"/>
  <path class="fil1" d="M853 591l31 41c113,-42 110,-144 55,-307l-62 53c35,118 69,204 -24,213z"/>
 </g>
 <g id="Layer_x0020_4" visibility="hidden">
  <metadata id="CorelCorpID_2Corel-Layer"/>
  <path class="fil0" d="M760 650l21 0 0 -81 -21 0c-20,0 -40,19 -40,40 -1,21 20,41 40,41z"/>
  <path class="fil1" d="M939 325l-62 53c12,39 39,123 35,161 -29,15 -69,30 -125,30l-7 0 0 81 3 0c219,0 216,-146 156,-325z"/>
 </g>
 <g id="Layer_x0020_5" visibility="hidden">
  <metadata id="CorelCorpID_3Corel-Layer"/>
  <path class="fil0" d="M781 650l0 -81c-21,0 -41,19 -41,40 0,21 20,41 41,41z"/>
  <path class="fil1" d="M925 328l-40 34c-4,4 -10,10 -6,22 11,39 35,118 32,156 -26,16 -68,29 -124,29l-7 0 0 81 3 0c213,0 215,-145 160,-317 -2,-5 -8,-14 -18,-5z"/>
 </g>
 <g id="Layer_x0020_6" visibility="hidden">
  <metadata id="CorelCorpID_4Corel-Layer"/>
  <path class="fil0" d="M763 650l0 -81c-21,0 -41,19 -41,40 0,21 20,41 41,41z"/>
  <path class="fil2" d="M968 537l-42 -17c-34,36 -73,49 -164,49l0 81c105,0 179,-19 206,-113z"/>
  <path class="fil3" d="M907 537l34 52c50,-60 41,-145 0,-256 -1,-5 -8,-14 -17,-5l-40 34c-5,4 -11,10 -7,22 15,46 42,141 30,153z"/>
 </g>
 <g id="Layer_x0020_7">
  <metadata id="CorelCorpID_5Corel-Layer"/>
  <path class="fil0" d="M747 569l0 0 15 0c74,0 123,-14 154,-37 6,-32 -19,-133 -32,-170 -3,-12 2,-18 7,-22l40 -35c10,-8 16,0 18,6 13,38 22,73 27,106 24,148 -26,233 -214,233 -5,0 -10,0 -15,0l0 0c-20,0 -41,-20 -40,-41 0,-21 20,-40 40,-40z"/>
 </g>
</svg>
