<?xml version="1.0" encoding="UTF-8"?>
<!DOCTYPE svg PUBLIC "-//W3C//DTD SVG 1.0//EN" "http://www.w3.org/TR/2001/REC-SVG-20010904/DTD/svg10.dtd">
<!-- Creator: CorelDRAW -->
<svg xmlns="http://www.w3.org/2000/svg" xml:space="preserve" width="1300px" height="1300px" version="1.0" style="shape-rendering:geometricPrecision; text-rendering:geometricPrecision; image-rendering:optimizeQuality; fill-rule:evenodd; clip-rule:evenodd"
viewBox="0 0 1300 1056"
 xmlns:xlink="http://www.w3.org/1999/xlink">
 <defs>
  <style type="text/css">
   <![CDATA[
    .fil0 {fill:#CC9933;fill-opacity:0.501961}
   ]]>
  </style>
 </defs>
 <g id="_100:master">
  <metadata id="CorelCorpID_0Corel-Layer"/>
  <path class="fil0" d="M368 319l29 12c4,2 8,7 5,16 -65,173 36,223 174,222 136,0 252,-29 341,-59 7,-3 12,-5 17,-6 -9,-34 -15,-71 -21,-109 -2,-8 2,-16 10,-18l38 -11c6,-2 14,4 15,10 20,102 15,193 150,193l0 81c-93,0 -141,-34 -168,-85 -15,10 -43,19 -74,32 -86,28 -168,54 -321,54 -167,0 -301,-65 -208,-326 2,-5 9,-8 13,-6z"/>
 </g>
</svg>
