<?xml version="1.0" encoding="UTF-8"?>
<!DOCTYPE svg PUBLIC "-//W3C//DTD SVG 1.0//EN" "http://www.w3.org/TR/2001/REC-SVG-20010904/DTD/svg10.dtd">
<!-- Creator: CorelDRAW -->
<svg xmlns="http://www.w3.org/2000/svg" xml:space="preserve" width="1300px" height="1300px" version="1.0" style="shape-rendering:geometricPrecision; text-rendering:geometricPrecision; image-rendering:optimizeQuality; fill-rule:evenodd; clip-rule:evenodd"
viewBox="0 0 1300 1056"
 xmlns:xlink="http://www.w3.org/1999/xlink">
 <defs>
  <style type="text/css">
   <![CDATA[
    .fil2 {fill:#333333;fill-opacity:0.501961}
    .fil0 {fill:#6666CC;fill-opacity:0.549020}
    .fil1 {fill:#CC9933}
   ]]>
  </style>
 </defs>
 <g id="_100:master" visibility="hidden">
  <metadata id="CorelCorpID_0Corel-Layer"/>
  <path class="fil0" d="M923 533c-1,-45 -20,-123 -161,-215 -6,-4 -7,-9 -5,-19l16 -56c1,-3 7,-10 15,-5 153,90 187,204 187,250l-52 45z"/>
  <path class="fil1" d="M975 488c10,116 -68,162 -169,162 -137,0 -145,-49 -145,-114l0 -15c0,-9 5,-17 16,-17l8 0c10,0 16,8 16,16 0,32 34,49 106,49 56,0 90,-16 117,-38 18,-31 44,-40 51,-43z"/>
 </g>
 <g id="Layer_x0020_1" visibility="hidden">
  <metadata id="CorelCorpID_1Corel-Layer"/>
  <path class="fil2" d="M946 528l32 16c-4,23 -7,48 -15,60 -56,34 -303,158 -280,-79 2,-16 32,-17 32,0 3,103 144,50 231,3z"/>
  <path class="fil0" d="M793 313c-13,-10 -7,-21 -1,-30l20 -35c7,-12 18,-9 25,-4 51,40 109,96 138,164 20,43 43,175 -12,196 -21,0 -27,-19 -25,-35 18,-102 -70,-198 -145,-256z"/>
 </g>
 <g id="Layer_x0020_2">
  <metadata id="CorelCorpID_2Corel-Layer"/>
  <path class="fil2" d="M945 594c-1,2 -2,4 -3,6 -28,17 -102,50 -167,50 -67,0 -115,-30 -105,-129 2,-16 36,-17 36,0 -1,36 25,47 70,48 45,0 100,-19 143,-42 -8,-86 -82,-164 -147,-214 -13,-10 -7,-21 -2,-30l21 -35c7,-12 18,-9 25,-4 87,68 154,150 160,259 2,41 -13,57 -31,91z"/>
 </g>
</svg>
