<?xml version="1.0" encoding="UTF-8"?>
<!DOCTYPE svg PUBLIC "-//W3C//DTD SVG 1.0//EN" "http://www.w3.org/TR/2001/REC-SVG-20010904/DTD/svg10.dtd">
<!-- Creator: CorelDRAW -->
<svg xmlns="http://www.w3.org/2000/svg" xml:space="preserve" width="1300px" height="1300px" version="1.0" style="shape-rendering:geometricPrecision; text-rendering:geometricPrecision; image-rendering:optimizeQuality; fill-rule:evenodd; clip-rule:evenodd"
viewBox="0 0 1300 1056"
 xmlns:xlink="http://www.w3.org/1999/xlink">
 <defs>
  <style type="text/css">
   <![CDATA[
    .fil2 {fill:#333333;fill-opacity:0.501961}
    .fil0 {fill:#6666CC;fill-opacity:0.549020}
    .fil1 {fill:#CC9933}
   ]]>
  </style>
 </defs>
 <g id="_100:master" visibility="hidden">
  <metadata id="CorelCorpID_0Corel-Layer"/>
  <path class="fil0" d="M923 533c-1,-45 -20,-123 -161,-215 -6,-4 -7,-9 -5,-19l16 -56c1,-3 7,-10 15,-5 153,90 187,204 187,250l-52 45z"/>
  <path class="fil1" d="M975 488c10,116 -68,162 -169,162 -137,0 -145,-49 -145,-114l0 -15c0,-9 5,-17 16,-17l8 0c10,0 16,8 16,16 0,32 34,49 106,49 56,0 90,-16 117,-38 18,-31 44,-40 51,-43z"/>
 </g>
 <g id="Layer_x0020_1">
  <metadata id="CorelCorpID_1Corel-Layer"/>
  <path class="fil2" d="M963 604c-56,34 -303,158 -280,-79 2,-16 32,-17 32,0 3,101 139,52 225,6 -6,-88 -81,-167 -147,-218 -13,-10 -7,-21 -1,-30l20 -35c7,-12 18,-9 25,-4 51,40 109,96 138,164 20,43 43,175 -12,196z"/>
 </g>
</svg>
