<?xml version="1.0" encoding="UTF-8"?>
<!DOCTYPE svg PUBLIC "-//W3C//DTD SVG 1.0//EN" "http://www.w3.org/TR/2001/REC-SVG-20010904/DTD/svg10.dtd">
<!-- Creator: CorelDRAW -->
<svg xmlns="http://www.w3.org/2000/svg" xml:space="preserve" width="1300px" height="1300px" version="1.0" style="shape-rendering:geometricPrecision; text-rendering:geometricPrecision; image-rendering:optimizeQuality; fill-rule:evenodd; clip-rule:evenodd"
viewBox="0 0 1300 1056"
 xmlns:xlink="http://www.w3.org/1999/xlink">
 <defs>
  <style type="text/css">
   <![CDATA[
    .fil2 {fill:#333333;fill-opacity:0.501961}
    .fil3 {fill:#9900CC;fill-opacity:0.501961}
    .fil0 {fill:#6666CC;fill-opacity:0.549020}
    .fil1 {fill:#CC9933}
   ]]>
  </style>
 </defs>
 <g id="_100:master" visibility="hidden">
  <metadata id="CorelCorpID_0Corel-Layer"/>
  <path class="fil0" d="M923 533c-1,-45 -20,-123 -161,-215 -6,-4 -7,-9 -5,-19l16 -56c1,-3 7,-10 15,-5 153,90 187,204 187,250l-52 45z"/>
  <path class="fil1" d="M975 488c10,116 -68,162 -169,162 -137,0 -145,-49 -145,-114l0 -15c0,-9 5,-17 16,-17l8 0c10,0 16,8 16,16 0,32 34,49 106,49 56,0 90,-16 117,-38 18,-31 44,-40 51,-43z"/>
 </g>
 <g id="Layer_x0020_1" visibility="hidden">
  <metadata id="CorelCorpID_1Corel-Layer"/>
  <path class="fil2" d="M946 528l32 16c-4,23 -7,48 -15,60 -56,34 -303,158 -280,-79 2,-16 32,-17 32,0 3,103 144,50 231,3z"/>
  <path class="fil0" d="M793 313c-13,-10 -7,-21 -1,-30l20 -35c7,-12 18,-9 25,-4 51,40 109,96 138,164 20,43 43,175 -12,196 -21,0 -27,-19 -25,-35 18,-102 -70,-198 -145,-256z"/>
 </g>
 <g id="Layer_x0020_2" visibility="hidden">
  <metadata id="CorelCorpID_2Corel-Layer"/>
  <path class="fil3" d="M974 569l-48 48c0,-65 0,-162 -163,-287 -13,-10 -6,-21 -1,-30l21 -36c7,-11 18,-8 24,-3 156,122 184,243 167,308z"/>
  <path class="fil2" d="M942 504l32 65c-64,113 -269,126 -305,45 -8,-19 -10,-39 -7,-77 2,-21 35,-21 36,-4l1 13c3,64 211,50 243,-42z"/>
 </g>
 <g id="Layer_x0020_3">
  <metadata id="CorelCorpID_3Corel-Layer"/>
  <path class="fil3" d="M926 536c-13,-56 -60,-124 -146,-190 -13,-10 -7,-21 -1,-30l20 -35c7,-12 18,-9 25,-4 150,118 165,227 151,293 -23,111 -313,141 -313,10l0 -36c0,-7 -1,-13 7,-15l19 -4c7,-2 11,1 11,9 0,90 231,41 227,2z"/>
 </g>
</svg>
