<?xml version="1.0" encoding="UTF-8"?>
<!DOCTYPE svg PUBLIC "-//W3C//DTD SVG 1.0//EN" "http://www.w3.org/TR/2001/REC-SVG-20010904/DTD/svg10.dtd">
<!-- Creator: CorelDRAW -->
<svg xmlns="http://www.w3.org/2000/svg" xml:space="preserve" width="1300px" height="1300px" version="1.0" style="shape-rendering:geometricPrecision; text-rendering:geometricPrecision; image-rendering:optimizeQuality; fill-rule:evenodd; clip-rule:evenodd"
viewBox="0 0 1300 1056"
 xmlns:xlink="http://www.w3.org/1999/xlink">
 <defs>
  <style type="text/css">
   <![CDATA[
    .fil0 {fill:#663333}
   ]]>
  </style>
 </defs>
 <g id="_100:master">
  <metadata id="CorelCorpID_0Corel-Layer"/>
  <path class="fil0" d="M798 655l39 39c6,6 6,15 0,20l-39 39c-5,5 -14,5 -19,0l-39 -39c-6,-5 -6,-14 0,-20l39 -39c5,-5 14,-5 19,0zm139 0l38 39c6,6 6,15 0,20l-38 39c-6,5 -15,5 -20,0l-39 -39c-5,-5 -6,-14 0,-20l39 -39c5,-5 14,-5 20,0zm-71 97l37 36c5,5 5,14 0,19l-37 36c-5,6 -13,6 -19,0l-36 -36c-5,-5 -5,-14 0,-19l36 -36c6,-5 14,-5 19,0z"/>
 </g>
</svg>
