<?xml version="1.0" encoding="UTF-8"?>
<!DOCTYPE svg PUBLIC "-//W3C//DTD SVG 1.0//EN" "http://www.w3.org/TR/2001/REC-SVG-20010904/DTD/svg10.dtd">
<!-- Creator: CorelDRAW -->
<svg xmlns="http://www.w3.org/2000/svg" xml:space="preserve" width="1300px" height="1300px" version="1.0" style="shape-rendering:geometricPrecision; text-rendering:geometricPrecision; image-rendering:optimizeQuality; fill-rule:evenodd; clip-rule:evenodd"
viewBox="0 0 1300 1056"
 xmlns:xlink="http://www.w3.org/1999/xlink">
 <defs>
  <style type="text/css">
   <![CDATA[
    .fil0 {fill:#663333}
   ]]>
  </style>
 </defs>
 <g id="_100:master">
  <metadata id="CorelCorpID_0Corel-Layer"/>
  <path class="fil0" d="M798 545l39 39c6,5 6,14 0,19l-39 39c-5,6 -14,6 -19,0l-39 -39c-6,-5 -6,-14 0,-19l39 -39c5,-6 14,-6 19,0zm139 0l38 39c6,5 6,14 0,19l-38 39c-6,6 -15,6 -20,0l-39 -39c-5,-5 -6,-14 0,-19l39 -39c5,-6 14,-6 20,0zm-68 -95l36 37c5,5 5,13 0,18l-36 37c-6,5 -14,5 -19,0l-37 -37c-5,-5 -5,-13 0,-18l37 -37c5,-5 13,-5 19,0z"/>
 </g>
</svg>
