<?xml version="1.0" encoding="UTF-8"?>
<!DOCTYPE svg PUBLIC "-//W3C//DTD SVG 1.0//EN" "http://www.w3.org/TR/2001/REC-SVG-20010904/DTD/svg10.dtd">
<!-- Creator: CorelDRAW -->
<svg xmlns="http://www.w3.org/2000/svg" xml:space="preserve" width="1300px" height="1300px" version="1.0" style="shape-rendering:geometricPrecision; text-rendering:geometricPrecision; image-rendering:optimizeQuality; fill-rule:evenodd; clip-rule:evenodd"
viewBox="0 0 1300 1056"
 xmlns:xlink="http://www.w3.org/1999/xlink">
 <defs>
  <style type="text/css">
   <![CDATA[
    .fil0 {fill:#006633}
    .fil1 {fill:#663333}
   ]]>
  </style>
 </defs>
 <g id="_200:master" visibility="hidden">
  <metadata id="CorelCorpID_0Corel-Layer"/>
  <path class="fil0" d="M683 529l85 49 -41 71 -67 -39c-9,-6 -13,-18 -7,-28l30 -53z"/>
 </g>
 <g id="_100:master" visibility="hidden">
  <metadata id="CorelCorpID_1Corel-Layer"/>
  <path class="fil0" d="M696 552l0 0c27,0 49,22 49,49l0 0c0,27 -22,48 -49,48l0 0c-26,0 -48,-21 -48,-48l0 0c0,-27 22,-49 48,-49z"/>
 </g>
 <g id="Layer_x0020_1">
  <metadata id="CorelCorpID_2Corel-Layer"/>
  <path class="fil1" d="M922 532l45 45c6,6 6,17 0,23l-45 45c-6,6 -17,6 -23,0l-45 -45c-6,-6 -6,-17 0,-23l45 -45c6,-6 17,-6 23,0z"/>
 </g>
</svg>
