<?xml version="1.0" encoding="UTF-8"?>
<!DOCTYPE svg PUBLIC "-//W3C//DTD SVG 1.0//EN" "http://www.w3.org/TR/2001/REC-SVG-20010904/DTD/svg10.dtd">
<!-- Creator: CorelDRAW -->
<svg xmlns="http://www.w3.org/2000/svg" xml:space="preserve" width="1300px" height="1300px" version="1.0" style="shape-rendering:geometricPrecision; text-rendering:geometricPrecision; image-rendering:optimizeQuality; fill-rule:evenodd; clip-rule:evenodd"
viewBox="0 0 1300 1056"
 xmlns:xlink="http://www.w3.org/1999/xlink">
 <defs>
  <style type="text/css">
   <![CDATA[
    .fil0 {fill:#4D4D4D;fill-opacity:0.501961}
   ]]>
  </style>
 </defs>
 <g id="_100:master">
  <metadata id="CorelCorpID_0Corel-Layer"/>
  <path class="fil0" d="M727 448c58,-25 108,-54 138,-88 -36,-26 -99,-34 -149,-33 -35,1 -70,6 -102,12 42,26 83,63 113,109zm-52 29c-45,-64 -103,-107 -166,-108 -17,6 -29,10 -32,11l-9 -81c13,-3 132,-54 247,-54 128,0 240,25 180,163l0 -3c-23,41 -69,77 -126,107 31,39 71,57 187,57l41 0 -1 81 -40 0c-146,0 -199,-48 -241,-111 -78,46 -134,108 -148,171 -22,101 80,217 387,175 11,-1 13,0 10,13l-10 52c-2,9 -4,15 -21,16 -304,38 -445,-54 -416,-252 14,-88 68,-175 158,-237z"/>
 </g>
</svg>
