<?xml version="1.0" encoding="UTF-8"?>
<!DOCTYPE svg PUBLIC "-//W3C//DTD SVG 1.0//EN" "http://www.w3.org/TR/2001/REC-SVG-20010904/DTD/svg10.dtd">
<!-- Creator: CorelDRAW -->
<svg xmlns="http://www.w3.org/2000/svg" xml:space="preserve" width="1300px" height="1300px" version="1.0" style="shape-rendering:geometricPrecision; text-rendering:geometricPrecision; image-rendering:optimizeQuality; fill-rule:evenodd; clip-rule:evenodd"
viewBox="0 0 1300 1056"
 xmlns:xlink="http://www.w3.org/1999/xlink">
 <defs>
  <style type="text/css">
   <![CDATA[
    .fil2 {fill:#6666CC;fill-opacity:0.501961}
    .fil3 {fill:#669933;fill-opacity:0.501961}
    .fil1 {fill:red;fill-opacity:0.501961}
    .fil0 {fill:#FF9933;fill-opacity:0.501961}
    .fil4 {fill:#FFCC00;fill-opacity:0.501961}
   ]]>
  </style>
 </defs>
 <g id="_100:master" visibility="hidden">
  <metadata id="CorelCorpID_0Corel-Layer"/>
  <path class="fil0" d="M499 299l-6 71c75,-9 145,47 196,128 51,81 90,152 267,152l40 0 1 -81 -41 0c-158,0 -176,-33 -220,-107 -56,-94 -156,-156 -237,-163z"/>
  <path class="fil1" d="M713 454l28 72c117,-55 203,-135 153,-225 -7,63 -86,114 -181,153z"/>
  <path class="fil2" d="M895 408c60,-138 -52,-163 -180,-163 -115,0 -234,51 -247,54l9 81c10,-3 126,-51 239,-53 74,-1 175,16 179,81z"/>
  <path class="fil0" d="M756 519l-34 -69c-143,71 -211,202 -211,312 0,222 259,234 455,197l16 -82c-289,53 -417,-30 -416,-134 0,-80 74,-172 190,-224z"/>
 </g>
 <g id="Layer_x0020_1" visibility="hidden">
  <metadata id="CorelCorpID_1Corel-Layer"/>
  <path class="fil3" d="M783 538l-39 -68c-131,65 -207,179 -207,286 0,107 77,262 409,206 14,-2 22,-4 25,-20l10 -52c2,-11 -10,-11 -17,-9 -260,46 -379,-38 -379,-134 0,-77 78,-160 198,-209z"/>
  <path class="fil0" d="M536 317l0 81c33,-9 65,12 104,43 73,58 172,208 347,208l14 0 0 -81c-148,0 -248,-119 -320,-172 -64,-48 -107,-89 -145,-79z"/>
  <path class="fil1" d="M747 472l34 63c84,-50 149,-124 142,-210 -11,-133 -270,-97 -387,-8l0 81c114,-76 305,-107 332,-38 9,34 -46,78 -121,112z"/>
 </g>
 <g id="Layer_x0020_2" visibility="hidden">
  <metadata id="CorelCorpID_2Corel-Layer"/>
  <path class="fil0" d="M745 537l-43 -62c-115,66 -181,171 -181,271 0,107 77,263 409,207 14,-3 21,-5 24,-20l10 -53c3,-11 -9,-10 -16,-9 -261,46 -379,-38 -379,-134 -1,-72 68,-150 176,-200z"/>
  <path class="fil1" d="M536 308l-15 76c57,6 90,43 130,85 56,58 124,181 288,181l70 0 0 -81 -70 0c-124,0 -182,-93 -228,-136 -51,-48 -85,-103 -175,-125z"/>
  <path class="fil1" d="M727 465l32 66c70,-37 123,-82 143,-100 25,-24 25,-68 23,-91 -42,34 -113,86 -198,125z"/>
  <path class="fil4" d="M918 390c64,-222 -270,-165 -377,-106l-16 81c61,-21 357,-107 363,26l30 -1z"/>
 </g>
 <g id="Layer_x0020_3">
  <metadata id="CorelCorpID_3Corel-Layer"/>
  <path class="fil1" d="M752 446c73,-33 124,-75 108,-102 -19,-20 -50,-30 -89,-31 -47,0 -98,13 -141,27 47,24 83,65 122,106zm-215 -91l12 -59c47,-26 132,-64 216,-64 99,0 179,37 161,129 -1,5 -2,11 -4,16 -1,3 -2,5 -3,8l-1 0c-18,36 -58,78 -112,114 47,39 104,70 187,70l23 0 0 81 -15 0c-123,0 -193,-56 -251,-118 -101,55 -165,135 -165,205 0,96 119,180 379,134 7,-1 19,-6 17,5l-2 15c-71,62 -198,92 -307,50 -104,-41 -135,-128 -135,-195 0,-94 59,-199 162,-270 -46,-51 -93,-95 -166,-100l0 1 0 -1 0 0 4 -21z"/>
 </g>
</svg>
