<?xml version="1.0" encoding="UTF-8"?>
<!DOCTYPE svg PUBLIC "-//W3C//DTD SVG 1.0//EN" "http://www.w3.org/TR/2001/REC-SVG-20010904/DTD/svg10.dtd">
<!-- Creator: CorelDRAW -->
<svg xmlns="http://www.w3.org/2000/svg" xml:space="preserve" width="1300px" height="1300px" version="1.0" style="shape-rendering:geometricPrecision; text-rendering:geometricPrecision; image-rendering:optimizeQuality; fill-rule:evenodd; clip-rule:evenodd"
viewBox="0 0 1300 1056"
 xmlns:xlink="http://www.w3.org/1999/xlink">
 <defs>
  <style type="text/css">
   <![CDATA[
    .fil0 {fill:#663300;fill-opacity:0.501961}
   ]]>
  </style>
 </defs>
 <g id="_100:master">
  <metadata id="CorelCorpID_0Corel-Layer"/>
  <path class="fil0" d="M772 533c-106,54 -171,140 -171,214 0,98 108,184 382,130l-16 82c-350,65 -414,-94 -414,-203 0,-89 48,-187 136,-257 -29,-34 -49,-84 -51,-136 -1,-48 13,-98 53,-138 61,-63 170,-56 239,-10 8,5 6,15 5,19l-8 22c-2,7 -9,9 -16,7 -88,-17 -163,5 -213,44 3,65 29,119 59,147l2 -1 0 2c51,-19 151,-47 200,-52 14,-1 13,12 11,19l-8 31c-2,7 -2,14 -20,19 -44,12 -98,26 -170,61z"/>
 </g>
</svg>
