<?xml version="1.0" encoding="UTF-8"?>
<!DOCTYPE svg PUBLIC "-//W3C//DTD SVG 1.0//EN" "http://www.w3.org/TR/2001/REC-SVG-20010904/DTD/svg10.dtd">
<!-- Creator: CorelDRAW -->
<svg xmlns="http://www.w3.org/2000/svg" xml:space="preserve" width="1300px" height="1300px" version="1.0" style="shape-rendering:geometricPrecision; text-rendering:geometricPrecision; image-rendering:optimizeQuality; fill-rule:evenodd; clip-rule:evenodd"
viewBox="0 0 1300 1056"
 xmlns:xlink="http://www.w3.org/1999/xlink">
 <defs>
  <style type="text/css">
   <![CDATA[
    .fil3 {fill:#6666CC;fill-opacity:0.501961}
    .fil2 {fill:red;fill-opacity:0.501961}
    .fil1 {fill:#FF9933;fill-opacity:0.501961}
    .fil0 {fill:#99CCCC}
   ]]>
  </style>
 </defs>
 <g id="_100:master" visibility="hidden">
  <metadata id="CorelCorpID_0Corel-Layer"/>
  <path class="fil0" d="M553 569c-20,0 -41,19 -41,40 0,21 21,41 41,41l0 -81z"/>
  <path class="fil1" d="M600 390l-13 49c126,-38 119,211 377,211l60 0 0 -81 -79 0c-228,0 -214,-228 -345,-179z"/>
  <path class="fil2" d="M551 569l0 81 31 0c179,-2 379,-152 370,-268l-69 23c76,50 -178,164 -282,164l-50 0z"/>
  <path class="fil3" d="M918 480c135,-209 -154,-191 -317,-122l-16 82c93,-36 339,-112 333,40z"/>
 </g>
 <g id="Layer_x0020_1">
  <metadata id="CorelCorpID_1Corel-Layer"/>
  <path class="fil0" d="M810 501c81,-44 132,-97 118,-119 -45,-44 -169,-17 -258,10 53,22 85,69 140,109zm-259 68l0 0 18 0c62,0 125,-16 180,-39 -51,-47 -94,-91 -171,-91l12 -57 0 0 7 -41c103,-56 412,-133 384,53 -2,49 -44,101 -102,145 43,18 98,30 174,30l13 0 0 81 -14 0c-114,0 -186,-30 -240,-68 -74,41 -160,68 -232,68l-29 0 0 0c-20,0 -41,-20 -40,-41 0,-21 20,-40 40,-40z"/>
 </g>
</svg>
