<?xml version="1.0" encoding="UTF-8"?>
<!DOCTYPE svg PUBLIC "-//W3C//DTD SVG 1.0//EN" "http://www.w3.org/TR/2001/REC-SVG-20010904/DTD/svg10.dtd">
<!-- Creator: CorelDRAW -->
<svg xmlns="http://www.w3.org/2000/svg" xml:space="preserve" width="1300px" height="1300px" version="1.0" style="shape-rendering:geometricPrecision; text-rendering:geometricPrecision; image-rendering:optimizeQuality; fill-rule:evenodd; clip-rule:evenodd"
viewBox="0 0 1300 1056"
 xmlns:xlink="http://www.w3.org/1999/xlink">
 <defs>
  <style type="text/css">
   <![CDATA[
    .fil0 {fill:#663300;fill-opacity:0.501961}
   ]]>
  </style>
 </defs>
 <g id="_100:master">
  <metadata id="CorelCorpID_0Corel-Layer"/>
  <path class="fil0" d="M535 569l115 0c-62,-67 -65,-236 41,-291l0 0c61,-36 149,-21 214,33 12,10 12,13 10,20l-8 21c-2,7 -5,10 -21,5 -64,-17 -143,-31 -212,30 3,80 44,149 99,177 47,-6 94,-19 173,-47 18,-6 35,-12 26,16l-11 37c-6,20 -62,38 -88,48 -77,29 -121,32 -264,32l-74 0 0 0c-20,-1 -40,-20 -40,-41 0,-20 20,-40 40,-40l0 0z"/>
 </g>
</svg>
