<?xml version="1.0" encoding="UTF-8"?>
<!DOCTYPE svg PUBLIC "-//W3C//DTD SVG 1.0//EN" "http://www.w3.org/TR/2001/REC-SVG-20010904/DTD/svg10.dtd">
<!-- Creator: CorelDRAW -->
<svg xmlns="http://www.w3.org/2000/svg" xml:space="preserve" width="1300px" height="1300px" version="1.0" style="shape-rendering:geometricPrecision; text-rendering:geometricPrecision; image-rendering:optimizeQuality; fill-rule:evenodd; clip-rule:evenodd"
viewBox="0 0 1300 1056"
 xmlns:xlink="http://www.w3.org/1999/xlink">
 <defs>
  <style type="text/css">
   <![CDATA[
    .fil0 {fill:#663300;fill-opacity:0.501961}
   ]]>
  </style>
 </defs>
 <g id="_100:master">
  <metadata id="CorelCorpID_0Corel-Layer"/>
  <path class="fil0" d="M551 569l59 0c21,0 39,-1 56,-1 -32,-35 -59,-97 -50,-152 5,-40 25,-76 57,-101l0 0c55,-44 142,-52 225,2 13,9 12,13 10,20l-8 21c-3,7 -5,8 -21,5 -83,-15 -172,6 -209,48 14,63 57,120 112,143 44,-10 90,-27 164,-53 18,-6 35,-12 26,16l-11 37c-6,20 -62,38 -88,48 -77,28 -121,48 -264,48l-58 0 0 0c-20,-1 -40,-20 -40,-41 1,-20 20,-40 40,-40l0 0z"/>
 </g>
</svg>
