<?xml version="1.0" encoding="UTF-8"?>
<!DOCTYPE svg PUBLIC "-//W3C//DTD SVG 1.0//EN" "http://www.w3.org/TR/2001/REC-SVG-20010904/DTD/svg10.dtd">
<!-- Creator: CorelDRAW -->
<svg xmlns="http://www.w3.org/2000/svg" xml:space="preserve" width="1300px" height="1300px" version="1.0" style="shape-rendering:geometricPrecision; text-rendering:geometricPrecision; image-rendering:optimizeQuality; fill-rule:evenodd; clip-rule:evenodd"
viewBox="0 0 1300 1056"
 xmlns:xlink="http://www.w3.org/1999/xlink">
 <defs>
  <style type="text/css">
   <![CDATA[
    .fil0 {fill:#663300;fill-opacity:0.501961}
   ]]>
  </style>
 </defs>
 <g id="_100:master">
  <metadata id="CorelCorpID_0Corel-Layer"/>
  <path class="fil0" d="M593 569l57 0c11,0 22,-1 33,-2 -50,-53 -74,-146 -49,-208l0 0 0 0c32,-67 92,-92 144,-94 46,-2 95,13 149,32 15,6 14,14 11,22l-8 21c-3,9 -8,10 -21,7 -66,-16 -154,-3 -217,37 3,62 38,126 77,167 70,-18 137,-44 193,-44 14,0 14,12 11,19l-10 26c-3,10 -4,15 -19,17 -74,10 -164,81 -286,81l-65 0 0 0c-20,-1 -40,-20 -39,-41 0,-20 19,-39 39,-40l0 0z"/>
 </g>
</svg>
