<?xml version="1.0" encoding="UTF-8"?>
<!DOCTYPE svg PUBLIC "-//W3C//DTD SVG 1.0//EN" "http://www.w3.org/TR/2001/REC-SVG-20010904/DTD/svg10.dtd">
<!-- Creator: CorelDRAW -->
<svg xmlns="http://www.w3.org/2000/svg" xml:space="preserve" width="1300px" height="1300px" version="1.0" style="shape-rendering:geometricPrecision; text-rendering:geometricPrecision; image-rendering:optimizeQuality; fill-rule:evenodd; clip-rule:evenodd"
viewBox="0 0 1300 1056"
 xmlns:xlink="http://www.w3.org/1999/xlink">
 <defs>
  <style type="text/css">
   <![CDATA[
    .fil0 {fill:#99CCCC}
   ]]>
  </style>
 </defs>
 <g id="_100:master">
  <metadata id="CorelCorpID_0Corel-Layer"/>
  <path class="fil0" d="M793 502c61,-26 114,-59 145,-96 -36,-26 -99,-33 -150,-33 -41,1 -83,8 -120,17 40,32 75,75 125,112zm-287 67l0 0c57,0 145,-17 228,-45 -52,-55 -91,-107 -159,-107 -14,5 -23,9 -25,10l-9 -81c13,-4 132,-54 246,-54 128,0 240,24 180,163l0 -4c-19,34 -54,65 -98,92 41,16 91,26 155,26l41 0 0 81 -41 0c-107,0 -176,-31 -228,-70 -100,44 -217,70 -290,70l0 0c-21,0 -41,-20 -41,-41 0,-21 20,-40 41,-40z"/>
 </g>
</svg>
