<?xml version="1.0" encoding="UTF-8"?>
<!DOCTYPE svg PUBLIC "-//W3C//DTD SVG 1.0//EN" "http://www.w3.org/TR/2001/REC-SVG-20010904/DTD/svg10.dtd">
<!-- Creator: CorelDRAW -->
<svg xmlns="http://www.w3.org/2000/svg" xml:space="preserve" width="1300px" height="1300px" version="1.0" style="shape-rendering:geometricPrecision; text-rendering:geometricPrecision; image-rendering:optimizeQuality; fill-rule:evenodd; clip-rule:evenodd"
viewBox="0 0 1300 1056"
 xmlns:xlink="http://www.w3.org/1999/xlink">
 <defs>
  <style type="text/css">
   <![CDATA[
    .fil0 {fill:#663300;fill-opacity:0.501961}
   ]]>
  </style>
 </defs>
 <g id="_100:master">
  <metadata id="CorelCorpID_0Corel-Layer"/>
  <path class="fil0" d="M552 569c61,0 106,-5 142,-12 -51,-55 -83,-140 -60,-198l0 0 0 0c32,-67 92,-92 144,-94 46,-2 79,13 133,32 15,6 14,14 11,22l-8 21c-3,9 -8,10 -21,7 -65,-16 -142,-4 -201,34 6,61 48,117 92,152 46,-13 94,-26 178,-26 14,0 14,12 11,19l-10 26c-3,10 -4,15 -19,17 -139,18 -186,81 -390,81l0 0 -2 0 0 0c-20,-1 -39,-20 -39,-41 0,-20 19,-39 39,-40l0 0z"/>
 </g>
</svg>
