<?xml version="1.0" encoding="UTF-8"?>
<!DOCTYPE svg PUBLIC "-//W3C//DTD SVG 1.0//EN" "http://www.w3.org/TR/2001/REC-SVG-20010904/DTD/svg10.dtd">
<!-- Creator: CorelDRAW -->
<svg xmlns="http://www.w3.org/2000/svg" xml:space="preserve" width="1300px" height="1300px" version="1.0" style="shape-rendering:geometricPrecision; text-rendering:geometricPrecision; image-rendering:optimizeQuality; fill-rule:evenodd; clip-rule:evenodd"
viewBox="0 0 1300 1056"
 xmlns:xlink="http://www.w3.org/1999/xlink">
 <defs>
  <style type="text/css">
   <![CDATA[
    .fil0 {fill:#663300;fill-opacity:0.501961}
   ]]>
  </style>
 </defs>
 <g id="_100:master">
  <metadata id="CorelCorpID_0Corel-Layer"/>
  <path class="fil0" d="M560 569c44,0 83,-5 119,-12 -16,-30 -28,-67 -29,-105 -5,-170 157,-220 292,-132 9,6 6,16 5,20l-7 21c-3,8 -10,11 -17,8 -62,-28 -163,-11 -213,27 3,61 25,111 53,140 62,-17 122,-36 196,-41 14,-1 13,12 11,19l-8 35c-2,7 -1,17 -20,20 -133,21 -211,81 -342,81l-40 0 0 0c-20,-1 -40,-20 -40,-41 0,-20 20,-40 40,-40l0 0z"/>
 </g>
</svg>
