<?xml version="1.0" encoding="UTF-8"?>
<!DOCTYPE svg PUBLIC "-//W3C//DTD SVG 1.0//EN" "http://www.w3.org/TR/2001/REC-SVG-20010904/DTD/svg10.dtd">
<!-- Creator: CorelDRAW -->
<svg xmlns="http://www.w3.org/2000/svg" xml:space="preserve" width="1300px" height="1300px" version="1.0" style="shape-rendering:geometricPrecision; text-rendering:geometricPrecision; image-rendering:optimizeQuality; fill-rule:evenodd; clip-rule:evenodd"
viewBox="0 0 1300 1056"
 xmlns:xlink="http://www.w3.org/1999/xlink">
 <defs>
  <style type="text/css">
   <![CDATA[
    .fil0 {fill:#663300;fill-opacity:0.501961}
    .fil3 {fill:#996633;fill-opacity:0.501961}
    .fil2 {fill:#CC9933;fill-opacity:0.501961}
    .fil1 {fill:#FF9933;fill-opacity:0.501961}
   ]]>
  </style>
 </defs>
 <g id="_100:master" visibility="hidden">
  <metadata id="CorelCorpID_0Corel-Layer"/>
  <path class="fil0" d="M744 460l22 76c75,-37 130,-51 176,-64 18,-5 18,-12 20,-19l8 -31c2,-7 3,-20 -11,-19 -55,6 -170,40 -215,57z"/>
  <path class="fil1" d="M781 528l-22 -75c-133,69 -206,193 -206,303 0,109 64,268 414,203l16 -82c-274,54 -382,-32 -382,-130 0,-76 68,-165 180,-219z"/>
  <path class="fil2" d="M698 307c50,-39 125,-61 213,-44 7,2 14,0 16,-7l8 -22c1,-4 3,-14 -5,-19 -69,-46 -178,-53 -239,10 -40,40 -54,90 -53,138 2,57 27,112 59,145l73 -45c-36,-23 -68,-82 -72,-156z"/>
 </g>
 <g id="Layer_x0020_1" visibility="hidden">
  <metadata id="CorelCorpID_1Corel-Layer"/>
  <path class="fil1" d="M792 519l-57 -62c-135,64 -214,180 -214,289 0,107 77,263 409,207 14,-3 21,-5 24,-20l10 -53c3,-11 -9,-10 -16,-9 -261,46 -379,-38 -379,-134 -1,-82 89,-171 223,-218z"/>
  <path class="fil3" d="M666 205c-28,22 -45,54 -50,89 -11,73 50,157 99,195l72 -32c-65,-48 -149,-159 -121,-252z"/>
  <path class="fil2" d="M616 294l44 8c31,-54 144,-87 240,-63l11 -34c-131,-98 -268,-46 -295,89z"/>
  <path class="fil0" d="M728 461l30 71c58,-24 120,-45 194,-68 17,-6 43,-85 10,-77 -103,26 -166,45 -234,74z"/>
 </g>
 <g id="Layer_x0020_2">
  <metadata id="CorelCorpID_2Corel-Layer"/>
  <path class="fil0" d="M738 539c-94,54 -153,131 -153,198 0,96 119,180 379,134 7,-1 19,-6 17,5l-2 15c-71,62 -198,92 -307,50 -104,-41 -135,-128 -135,-195 0,-95 60,-201 166,-273l-4 -2c-45,-16 -94,-103 -83,-176 5,-40 25,-75 57,-100l0 0c55,-45 142,-52 225,2 13,9 12,13 10,19l-8 21c-3,8 -5,9 -21,6 -83,-15 -172,6 -209,48 13,58 53,117 109,141 57,-24 127,-44 168,-54 18,-5 32,-5 25,19 -12,41 -3,48 -46,63 -29,10 -68,24 -108,41l0 0c-4,2 -9,4 -13,5 -23,10 -47,21 -67,33z"/>
 </g>
</svg>
