<?xml version="1.0" encoding="UTF-8"?>
<!DOCTYPE svg PUBLIC "-//W3C//DTD SVG 1.0//EN" "http://www.w3.org/TR/2001/REC-SVG-20010904/DTD/svg10.dtd">
<!-- Creator: CorelDRAW -->
<svg xmlns="http://www.w3.org/2000/svg" xml:space="preserve" width="1300px" height="1300px" version="1.0" style="shape-rendering:geometricPrecision; text-rendering:geometricPrecision; image-rendering:optimizeQuality; fill-rule:evenodd; clip-rule:evenodd"
viewBox="0 0 1300 1056"
 xmlns:xlink="http://www.w3.org/1999/xlink">
 <defs>
  <style type="text/css">
   <![CDATA[
    .fil3 {fill:#6666CC;fill-opacity:0.501961}
    .fil2 {fill:red;fill-opacity:0.501961}
    .fil1 {fill:#FF9933;fill-opacity:0.501961}
    .fil0 {fill:#99CCCC}
   ]]>
  </style>
 </defs>
 <g id="_100:master" visibility="hidden">
  <metadata id="CorelCorpID_0Corel-Layer"/>
  <path class="fil0" d="M553 569c-20,0 -41,19 -41,40 0,21 21,41 41,41l0 -81z"/>
  <path class="fil1" d="M600 390l-13 49c126,-38 119,211 377,211l60 0 0 -81 -79 0c-228,0 -214,-228 -345,-179z"/>
  <path class="fil2" d="M551 569l0 81 31 0c179,-2 379,-152 370,-268l-69 23c76,50 -178,164 -282,164l-50 0z"/>
  <path class="fil3" d="M918 480c135,-209 -154,-191 -317,-122l-16 82c93,-36 339,-112 333,40z"/>
 </g>
 <g id="Layer_x0020_1">
  <metadata id="CorelCorpID_1Corel-Layer"/>
  <path class="fil0" d="M809 515c71,-32 119,-70 98,-96 -19,-19 -49,-28 -87,-29 -43,0 -90,7 -131,17 35,32 72,75 120,108zm-290 54l0 0 60 0c46,0 99,-10 149,-24 -48,-46 -85,-92 -146,-108l15 -80c47,-26 132,-48 216,-48 80,0 147,24 161,81l0 0c6,16 5,47 -6,72 -13,30 -43,62 -85,91 27,10 58,16 92,16l82 0 0 81 -69 0c-85,0 -144,-20 -190,-49 -65,29 -141,49 -216,49l-63 0 0 0c-21,0 -41,-20 -41,-41 0,-21 20,-40 41,-40z"/>
 </g>
</svg>
