<?xml version="1.0" encoding="UTF-8"?>
<!DOCTYPE svg PUBLIC "-//W3C//DTD SVG 1.0//EN" "http://www.w3.org/TR/2001/REC-SVG-20010904/DTD/svg10.dtd">
<!-- Creator: CorelDRAW -->
<svg xmlns="http://www.w3.org/2000/svg" xml:space="preserve" width="1300px" height="1300px" version="1.0" style="shape-rendering:geometricPrecision; text-rendering:geometricPrecision; image-rendering:optimizeQuality; fill-rule:evenodd; clip-rule:evenodd"
viewBox="0 0 1300 1056"
 xmlns:xlink="http://www.w3.org/1999/xlink">
 <defs>
  <style type="text/css">
   <![CDATA[
    .fil3 {fill:#6666CC;fill-opacity:0.501961}
    .fil2 {fill:red;fill-opacity:0.501961}
    .fil1 {fill:#FF9933;fill-opacity:0.501961}
    .fil0 {fill:#99CCCC}
   ]]>
  </style>
 </defs>
 <g id="_100:master" visibility="hidden">
  <metadata id="CorelCorpID_0Corel-Layer"/>
  <path class="fil0" d="M553 569c-20,0 -41,19 -41,40 0,21 21,41 41,41l0 -81z"/>
  <path class="fil1" d="M600 390l-13 49c126,-38 119,211 377,211l60 0 0 -81 -79 0c-228,0 -214,-228 -345,-179z"/>
  <path class="fil2" d="M551 569l0 81 31 0c179,-2 379,-152 370,-268l-69 23c76,50 -178,164 -282,164l-50 0z"/>
  <path class="fil3" d="M918 480c135,-209 -154,-191 -317,-122l-16 82c93,-36 339,-112 333,40z"/>
 </g>
 <g id="Layer_x0020_1">
  <metadata id="CorelCorpID_1Corel-Layer"/>
  <path class="fil0" d="M828 503c64,-34 110,-75 107,-105 -14,-55 -120,-42 -221,-1 20,17 41,39 65,62 16,15 32,30 49,44zm-261 66l0 0 34 0c51,0 113,-16 170,-40 -13,-13 -24,-27 -34,-39 -37,-45 -74,-70 -112,-49 -8,5 -16,10 -24,15l0 -82c117,-89 377,-150 387,-16l0 0 1 1c5,65 -39,130 -103,182 34,17 75,28 128,28l43 0 0 81 -43 0c-78,0 -139,-31 -187,-69 -72,42 -156,69 -230,69l-30 0 0 0c-19,-1 -39,-20 -39,-41 1,-20 20,-39 39,-40z"/>
 </g>
</svg>
