<?xml version="1.0" encoding="UTF-8"?>
<!DOCTYPE svg PUBLIC "-//W3C//DTD SVG 1.0//EN" "http://www.w3.org/TR/2001/REC-SVG-20010904/DTD/svg10.dtd">
<!-- Creator: CorelDRAW -->
<svg xmlns="http://www.w3.org/2000/svg" xml:space="preserve" width="1300px" height="1300px" version="1.0" style="shape-rendering:geometricPrecision; text-rendering:geometricPrecision; image-rendering:optimizeQuality; fill-rule:evenodd; clip-rule:evenodd"
viewBox="0 0 1300 1056"
 xmlns:xlink="http://www.w3.org/1999/xlink">
 <defs>
  <style type="text/css">
   <![CDATA[
    .fil0 {fill:#99CCCC}
   ]]>
  </style>
 </defs>
 <g id="_100:master">
  <metadata id="CorelCorpID_0Corel-Layer"/>
  <path class="fil0" d="M819 509c67,-30 119,-65 137,-89 8,-10 11,-17 6,-23 -55,-46 -175,-34 -271,-13 46,28 78,82 128,125zm-284 60l0 0 26 0c65,0 132,-14 192,-35 -59,-69 -98,-140 -166,-119l0 0 -2 0 16 -82c139,-58 423,-80 419,45l0 0c0,58 -55,121 -133,172 29,12 63,19 105,19l73 0 0 81 -90 0c-71,0 -122,-24 -164,-58 -73,35 -155,58 -226,58l-50 0 0 0c-20,-1 -39,-20 -39,-41 0,-20 19,-39 39,-40z"/>
 </g>
</svg>
