<?xml version="1.0" encoding="UTF-8"?>
<!DOCTYPE svg PUBLIC "-//W3C//DTD SVG 1.0//EN" "http://www.w3.org/TR/2001/REC-SVG-20010904/DTD/svg10.dtd">
<!-- Creator: CorelDRAW -->
<svg xmlns="http://www.w3.org/2000/svg" xml:space="preserve" width="1300px" height="1300px" version="1.0" style="shape-rendering:geometricPrecision; text-rendering:geometricPrecision; image-rendering:optimizeQuality; fill-rule:evenodd; clip-rule:evenodd"
viewBox="0 0 1300 1056"
 xmlns:xlink="http://www.w3.org/1999/xlink">
 <defs>
  <style type="text/css">
   <![CDATA[
    .fil0 {fill:#663300;fill-opacity:0.501961}
   ]]>
  </style>
 </defs>
 <g id="_100:master">
  <metadata id="CorelCorpID_0Corel-Layer"/>
  <path class="fil0" d="M560 569c46,0 86,-3 122,-7 -18,-31 -31,-70 -32,-110 -1,-48 13,-97 53,-137 61,-63 170,-56 239,-11 9,6 6,16 5,20l-7 21c-3,8 -10,9 -17,8 -88,-18 -163,5 -213,43 4,68 31,123 63,150 84,-20 137,-46 186,-51 14,-1 13,12 11,19l-8 31c-2,6 -2,14 -20,19 -75,21 -167,86 -381,86l0 0 -1 0 0 0c-20,-1 -40,-20 -40,-41 0,-20 20,-40 40,-40l0 0z"/>
 </g>
</svg>
