<?xml version="1.0" encoding="UTF-8"?>
<!DOCTYPE svg PUBLIC "-//W3C//DTD SVG 1.0//EN" "http://www.w3.org/TR/2001/REC-SVG-20010904/DTD/svg10.dtd">
<!-- Creator: CorelDRAW -->
<svg xmlns="http://www.w3.org/2000/svg" xml:space="preserve" width="1300px" height="1300px" version="1.0" style="shape-rendering:geometricPrecision; text-rendering:geometricPrecision; image-rendering:optimizeQuality; fill-rule:evenodd; clip-rule:evenodd"
viewBox="0 0 1300 1056"
 xmlns:xlink="http://www.w3.org/1999/xlink">
 <defs>
  <style type="text/css">
   <![CDATA[
    .fil0 {fill:#663300;fill-opacity:0.501961}
    .fil2 {fill:#CC9933;fill-opacity:0.501961}
    .fil1 {fill:#FF9933;fill-opacity:0.501961}
   ]]>
  </style>
 </defs>
 <g id="_100:master" visibility="hidden">
  <metadata id="CorelCorpID_0Corel-Layer"/>
  <path class="fil0" d="M744 460l22 76c75,-37 130,-51 176,-64 18,-5 18,-12 20,-19l8 -31c2,-7 3,-20 -11,-19 -55,6 -170,40 -215,57z"/>
  <path class="fil1" d="M781 528l-22 -75c-133,69 -206,193 -206,303 0,109 64,268 414,203l16 -82c-274,54 -382,-32 -382,-130 0,-76 68,-165 180,-219z"/>
  <path class="fil2" d="M698 307c50,-39 125,-61 213,-44 7,2 14,0 16,-7l8 -22c1,-4 3,-14 -5,-19 -69,-46 -178,-53 -239,10 -40,40 -54,90 -53,138 2,57 27,112 59,145l73 -45c-36,-23 -68,-82 -72,-156z"/>
 </g>
 <g id="Layer_x0020_1">
  <metadata id="CorelCorpID_1Corel-Layer"/>
  <path class="fil0" d="M780 539c-118,49 -195,131 -195,208 0,96 119,180 379,134 7,-2 19,-2 17,9l-10 52c-3,16 -11,18 -25,20 -332,56 -409,-99 -409,-206 0,-99 64,-203 177,-269 -58,-54 -97,-147 -72,-209l0 -1 0 0c32,-66 92,-91 144,-93 46,-2 79,13 133,32 15,5 14,13 11,21l-8 22c-3,9 -8,10 -21,7 -64,-16 -142,-4 -200,34 5,60 47,116 90,151 48,-20 109,-34 187,-48 14,-2 13,12 12,19l-8 34c-2,6 -7,21 -21,25 -45,12 -101,25 -155,48l0 0 -8 3c-6,2 -11,5 -17,8l-1 -1z"/>
 </g>
</svg>
