<?xml version="1.0" encoding="UTF-8"?>
<!DOCTYPE svg PUBLIC "-//W3C//DTD SVG 1.0//EN" "http://www.w3.org/TR/2001/REC-SVG-20010904/DTD/svg10.dtd">
<!-- Creator: CorelDRAW -->
<svg xmlns="http://www.w3.org/2000/svg" xml:space="preserve" width="1300px" height="1300px" version="1.0" style="shape-rendering:geometricPrecision; text-rendering:geometricPrecision; image-rendering:optimizeQuality; fill-rule:evenodd; clip-rule:evenodd"
viewBox="0 0 1300 1056"
 xmlns:xlink="http://www.w3.org/1999/xlink">
 <defs>
  <style type="text/css">
   <![CDATA[
    .fil0 {fill:#99CCCC}
   ]]>
  </style>
 </defs>
 <g id="_100:master">
  <metadata id="CorelCorpID_0Corel-Layer"/>
  <path class="fil0" d="M822 511c66,-30 115,-66 134,-91 10,-12 11,-19 4,-25 -56,-44 -175,-32 -269,-11 47,29 79,84 131,127zm-269 58l0 16 0 -16 24 0c62,0 124,-13 179,-32 -61,-70 -100,-143 -169,-122l0 0 -2 0 16 -82c149,-67 462,-86 414,72 -4,15 -11,30 -21,46l-3 4 0 0c-22,33 -58,67 -100,97 28,10 61,17 101,17l73 0 0 81 -90 0c-68,0 -119,-23 -159,-54 -67,32 -143,54 -215,54l-48 0 0 0c-20,0 -41,-20 -41,-41 0,-21 21,-40 41,-40z"/>
 </g>
</svg>
