<?xml version="1.0" encoding="UTF-8"?>
<!DOCTYPE svg PUBLIC "-//W3C//DTD SVG 1.0//EN" "http://www.w3.org/TR/2001/REC-SVG-20010904/DTD/svg10.dtd">
<!-- Creator: CorelDRAW -->
<svg xmlns="http://www.w3.org/2000/svg" xml:space="preserve" width="1300px" height="1300px" version="1.0" style="shape-rendering:geometricPrecision; text-rendering:geometricPrecision; image-rendering:optimizeQuality; fill-rule:evenodd; clip-rule:evenodd"
viewBox="0 0 1300 1056"
 xmlns:xlink="http://www.w3.org/1999/xlink">
 <defs>
  <style type="text/css">
   <![CDATA[
    .fil2 {fill:#6666CC;fill-opacity:0.501961}
    .fil1 {fill:red;fill-opacity:0.501961}
    .fil0 {fill:#FF9933;fill-opacity:0.501961}
   ]]>
  </style>
 </defs>
 <g id="_100:master" visibility="hidden">
  <metadata id="CorelCorpID_0Corel-Layer"/>
  <path class="fil0" d="M499 299l-6 71c75,-9 145,47 196,128 51,81 90,152 267,152l40 0 1 -81 -41 0c-158,0 -176,-33 -220,-107 -56,-94 -156,-156 -237,-163z"/>
  <path class="fil1" d="M713 454l28 72c117,-55 203,-135 153,-225 -7,63 -86,114 -181,153z"/>
  <path class="fil2" d="M895 408c60,-138 -52,-163 -180,-163 -115,0 -234,51 -247,54l9 81c10,-3 126,-51 239,-53 74,-1 175,16 179,81z"/>
  <path class="fil0" d="M756 519l-34 -69c-143,71 -211,202 -211,312 0,222 259,234 455,197l16 -82c-289,53 -417,-30 -416,-134 0,-80 74,-172 190,-224z"/>
 </g>
 <g id="Layer_x0020_1">
  <metadata id="CorelCorpID_1Corel-Layer"/>
  <path class="fil0" d="M757 458c101,-47 164,-106 136,-117 -69,-23 -177,-19 -264,-5 43,28 83,77 128,122zm-58 32c-64,-76 -116,-147 -177,-128l0 0 -2 1 16 -83c115,-43 418,-73 418,45l0 0 0 2c-1,58 -60,127 -143,181 44,34 94,59 157,59l72 0 0 81 -89 0c-84,0 -148,-47 -203,-103 -86,54 -139,130 -140,198 0,104 127,187 416,134l-16 82c-196,37 -455,25 -454,-197 0,-91 47,-198 145,-272z"/>
 </g>
</svg>
