<?xml version="1.0" encoding="UTF-8"?>
<!DOCTYPE svg PUBLIC "-//W3C//DTD SVG 1.0//EN" "http://www.w3.org/TR/2001/REC-SVG-20010904/DTD/svg10.dtd">
<!-- Creator: CorelDRAW -->
<svg xmlns="http://www.w3.org/2000/svg" xml:space="preserve" width="1300px" height="1300px" version="1.0" style="shape-rendering:geometricPrecision; text-rendering:geometricPrecision; image-rendering:optimizeQuality; fill-rule:evenodd; clip-rule:evenodd"
viewBox="0 0 1300 1056"
 xmlns:xlink="http://www.w3.org/1999/xlink">
 <defs>
  <style type="text/css">
   <![CDATA[
    .fil0 {fill:#99CCCC}
   ]]>
  </style>
 </defs>
 <g id="_100:master">
  <metadata id="CorelCorpID_0Corel-Layer"/>
  <path class="fil0" d="M788 516c78,-36 136,-83 96,-110 -45,-28 -125,-17 -195,1 30,27 56,73 99,109zm-237 53l0 0 50 0c34,0 83,-12 132,-30 -50,-61 -80,-120 -146,-100l0 0 -2 1 16 -82c131,-55 343,-78 351,24l0 0c0,1 1,3 1,4 1,55 -42,116 -106,165 27,11 59,18 98,18l79 0 0 81 -60 0c-82,0 -137,-25 -178,-58 -63,34 -135,57 -204,58l-29 0 0 0 -2 0 0 0c-20,-1 -39,-20 -39,-41 0,-20 20,-39 39,-40z"/>
 </g>
</svg>
