<?xml version="1.0" encoding="UTF-8"?>
<!DOCTYPE svg PUBLIC "-//W3C//DTD SVG 1.0//EN" "http://www.w3.org/TR/2001/REC-SVG-20010904/DTD/svg10.dtd">
<!-- Creator: CorelDRAW -->
<svg xmlns="http://www.w3.org/2000/svg" xml:space="preserve" width="1300px" height="1300px" version="1.0" style="shape-rendering:geometricPrecision; text-rendering:geometricPrecision; image-rendering:optimizeQuality; fill-rule:evenodd; clip-rule:evenodd"
viewBox="0 0 1300 1056"
 xmlns:xlink="http://www.w3.org/1999/xlink">
 <defs>
  <style type="text/css">
   <![CDATA[
    .fil0 {fill:#6699FF;fill-opacity:0.501961}
   ]]>
  </style>
 </defs>
 <g id="_100:master">
  <metadata id="CorelCorpID_0Corel-Layer"/>
  <path class="fil0" d="M785 506c-114,44 -200,124 -218,204 -22,101 80,217 387,175 11,-1 13,0 10,13l-10 52c-2,9 -4,15 -21,16 -304,38 -445,-54 -416,-252 15,-95 77,-188 179,-250 -42,-62 -64,-124 -35,-204 47,-130 200,-130 281,-70 8,6 6,16 5,20l-7 21c-3,8 -10,10 -17,8 -67,-21 -176,-12 -211,42 -12,41 11,104 58,148 54,-18 143,-43 189,-48 14,-1 13,12 11,19l-8 31c-2,7 -2,14 -20,19 -42,12 -92,24 -158,55l1 1z"/>
 </g>
</svg>
