<?xml version="1.0" encoding="UTF-8"?>
<!DOCTYPE svg PUBLIC "-//W3C//DTD SVG 1.0//EN" "http://www.w3.org/TR/2001/REC-SVG-20010904/DTD/svg10.dtd">
<!-- Creator: CorelDRAW -->
<svg xmlns="http://www.w3.org/2000/svg" xml:space="preserve" width="1300px" height="1300px" version="1.0" style="shape-rendering:geometricPrecision; text-rendering:geometricPrecision; image-rendering:optimizeQuality; fill-rule:evenodd; clip-rule:evenodd"
viewBox="0 0 1300 1056"
 xmlns:xlink="http://www.w3.org/1999/xlink">
 <defs>
  <style type="text/css">
   <![CDATA[
    .fil2 {fill:#6666CC;fill-opacity:0.501961}
    .fil3 {fill:#669933;fill-opacity:0.501961}
    .fil1 {fill:red;fill-opacity:0.501961}
    .fil0 {fill:#FF9933;fill-opacity:0.501961}
   ]]>
  </style>
 </defs>
 <g id="_100:master" visibility="hidden">
  <metadata id="CorelCorpID_0Corel-Layer"/>
  <path class="fil0" d="M499 299l-6 71c75,-9 145,47 196,128 51,81 90,152 267,152l40 0 1 -81 -41 0c-158,0 -176,-33 -220,-107 -56,-94 -156,-156 -237,-163z"/>
  <path class="fil1" d="M713 454l28 72c117,-55 203,-135 153,-225 -7,63 -86,114 -181,153z"/>
  <path class="fil2" d="M895 408c60,-138 -52,-163 -180,-163 -115,0 -234,51 -247,54l9 81c10,-3 126,-51 239,-53 74,-1 175,16 179,81z"/>
  <path class="fil0" d="M756 519l-34 -69c-143,71 -211,202 -211,312 0,222 259,234 455,197l16 -82c-289,53 -417,-30 -416,-134 0,-80 74,-172 190,-224z"/>
 </g>
 <g id="Layer_x0020_1" visibility="hidden">
  <metadata id="CorelCorpID_1Corel-Layer"/>
  <path class="fil3" d="M783 538l-39 -68c-131,65 -207,179 -207,286 0,107 77,262 409,206 14,-2 22,-4 25,-20l10 -52c2,-11 -10,-11 -17,-9 -260,46 -379,-38 -379,-134 0,-77 78,-160 198,-209z"/>
  <path class="fil0" d="M536 317l0 81c33,-9 65,12 104,43 73,58 172,208 347,208l14 0 0 -81c-148,0 -248,-119 -320,-172 -64,-48 -107,-89 -145,-79z"/>
  <path class="fil1" d="M747 472l34 63c84,-50 149,-124 142,-210 -11,-133 -270,-97 -387,-8l0 81c114,-76 305,-107 332,-38 9,34 -46,78 -121,112z"/>
 </g>
 <g id="Layer_x0020_2">
  <metadata id="CorelCorpID_2Corel-Layer"/>
  <path class="fil3" d="M729 477c80,-44 132,-98 117,-119 -44,-44 -168,-17 -257,10 49,20 80,62 129,100 3,3 7,6 11,9zm-54 35c-55,-50 -98,-98 -178,-97l11 -58 0 0 8 -40c103,-57 411,-133 384,52 -3,50 -45,104 -106,149 52,27 120,51 202,51l13 0 0 81 -13 0c-117,0 -201,-43 -263,-89 -91,50 -148,120 -148,186 0,96 119,180 379,134 7,-2 19,-2 17,9l-10 52c-3,16 -11,18 -25,20 -332,56 -409,-99 -409,-206 0,-87 50,-178 138,-244z"/>
 </g>
</svg>
