<?xml version="1.0" encoding="UTF-8"?>
<!DOCTYPE svg PUBLIC "-//W3C//DTD SVG 1.0//EN" "http://www.w3.org/TR/2001/REC-SVG-20010904/DTD/svg10.dtd">
<!-- Creator: CorelDRAW -->
<svg xmlns="http://www.w3.org/2000/svg" xml:space="preserve" width="1300px" height="1300px" version="1.0" style="shape-rendering:geometricPrecision; text-rendering:geometricPrecision; image-rendering:optimizeQuality; fill-rule:evenodd; clip-rule:evenodd"
viewBox="0 0 1300 1056"
 xmlns:xlink="http://www.w3.org/1999/xlink">
 <defs>
  <style type="text/css">
   <![CDATA[
    .fil0 {fill:#663300;fill-opacity:0.501961}
   ]]>
  </style>
 </defs>
 <g id="_100:master">
  <metadata id="CorelCorpID_0Corel-Layer"/>
  <path class="fil0" d="M519 569c58,0 103,-5 142,-11 -46,-59 -67,-156 -43,-215l0 -1 0 0c32,-66 92,-91 144,-93 46,-2 95,13 149,32 15,5 14,13 11,21l-8 22c-3,9 -8,10 -21,7 -66,-16 -155,-3 -218,37 3,61 34,127 70,172 63,-16 120,-33 217,-33 14,0 14,12 11,19l-10 26c-3,10 -4,15 -19,17 -139,18 -218,81 -423,81l0 0 -2 0 0 0c-19,-1 -39,-20 -39,-41 1,-20 20,-39 39,-40l0 0z"/>
 </g>
</svg>
