<?xml version="1.0" encoding="UTF-8"?>
<!DOCTYPE svg PUBLIC "-//W3C//DTD SVG 1.0//EN" "http://www.w3.org/TR/2001/REC-SVG-20010904/DTD/svg10.dtd">
<!-- Creator: CorelDRAW -->
<svg xmlns="http://www.w3.org/2000/svg" xml:space="preserve" width="1300px" height="1300px" version="1.0" style="shape-rendering:geometricPrecision; text-rendering:geometricPrecision; image-rendering:optimizeQuality; fill-rule:evenodd; clip-rule:evenodd"
viewBox="0 0 1300 1056"
 xmlns:xlink="http://www.w3.org/1999/xlink">
 <defs>
  <style type="text/css">
   <![CDATA[
    .fil2 {fill:#6666CC;fill-opacity:0.501961}
    .fil1 {fill:red;fill-opacity:0.501961}
    .fil0 {fill:#FF9933;fill-opacity:0.501961}
   ]]>
  </style>
 </defs>
 <g id="_100:master" visibility="hidden">
  <metadata id="CorelCorpID_0Corel-Layer"/>
  <path class="fil0" d="M499 299l-6 71c75,-9 145,47 196,128 51,81 90,152 267,152l40 0 1 -81 -41 0c-158,0 -176,-33 -220,-107 -56,-94 -156,-156 -237,-163z"/>
  <path class="fil1" d="M713 454l28 72c117,-55 203,-135 153,-225 -7,63 -86,114 -181,153z"/>
  <path class="fil2" d="M895 408c60,-138 -52,-163 -180,-163 -115,0 -234,51 -247,54l9 81c10,-3 126,-51 239,-53 74,-1 175,16 179,81z"/>
  <path class="fil0" d="M756 519l-34 -69c-143,71 -211,202 -211,312 0,222 259,234 455,197l16 -82c-289,53 -417,-30 -416,-134 0,-80 74,-172 190,-224z"/>
 </g>
 <g id="Layer_x0020_1">
  <metadata id="CorelCorpID_1Corel-Layer"/>
  <path class="fil0" d="M756 459c66,-31 116,-67 135,-91 6,-8 9,-14 8,-19 -53,-50 -177,-38 -274,-16 45,28 85,78 131,126zm-225 -99c-4,1 -8,3 -12,4l16 -82c141,-59 430,-80 419,50 -4,57 -62,124 -143,177 63,50 119,60 194,60l52 0 0 81 -65 0c-118,0 -172,-27 -244,-104 -92,55 -147,133 -147,201 0,98 108,184 382,130l-16 82c-350,65 -414,-94 -414,-203 0,-92 51,-194 146,-265 -61,-73 -111,-141 -168,-131z"/>
 </g>
</svg>
