<?xml version="1.0" encoding="UTF-8"?>
<!DOCTYPE svg PUBLIC "-//W3C//DTD SVG 1.0//EN" "http://www.w3.org/TR/2001/REC-SVG-20010904/DTD/svg10.dtd">
<!-- Creator: CorelDRAW -->
<svg xmlns="http://www.w3.org/2000/svg" xml:space="preserve" width="1300px" height="1300px" version="1.0" style="shape-rendering:geometricPrecision; text-rendering:geometricPrecision; image-rendering:optimizeQuality; fill-rule:evenodd; clip-rule:evenodd"
viewBox="0 0 1300 1056"
 xmlns:xlink="http://www.w3.org/1999/xlink">
 <defs>
  <style type="text/css">
   <![CDATA[
    .fil0 {fill:red;fill-opacity:0.501961}
   ]]>
  </style>
 </defs>
 <g id="_100:master">
  <metadata id="CorelCorpID_0Corel-Layer"/>
  <path class="fil0" d="M1009 422c-10,-35 -50,-87 -78,-89 -26,-1 -74,60 -82,104 -2,11 23,45 75,75 46,-31 78,-67 85,-90zm-14 122c44,15 98,25 161,25l0 81c-98,0 -174,-19 -231,-49l-3 1c-69,22 -224,65 -358,65 -159,0 -290,-60 -220,-284 2,-5 9,-7 14,-5l30 12c4,2 8,7 5,15 -47,141 59,182 195,180 87,-1 184,-19 263,-40 -33,-37 -50,-80 -50,-121 0,-83 80,-181 142,-173 63,9 108,84 108,148 0,56 -21,105 -56,145z"/>
 </g>
</svg>
