<?xml version="1.0" encoding="UTF-8"?>
<!DOCTYPE svg PUBLIC "-//W3C//DTD SVG 1.0//EN" "http://www.w3.org/TR/2001/REC-SVG-20010904/DTD/svg10.dtd">
<!-- Creator: CorelDRAW -->
<svg xmlns="http://www.w3.org/2000/svg" xml:space="preserve" width="1300px" height="1300px" version="1.0" style="shape-rendering:geometricPrecision; text-rendering:geometricPrecision; image-rendering:optimizeQuality; fill-rule:evenodd; clip-rule:evenodd"
viewBox="0 0 1300 1056"
 xmlns:xlink="http://www.w3.org/1999/xlink">
 <defs>
  <style type="text/css">
   <![CDATA[
    .fil1 {fill:black;fill-opacity:0.501961}
    .fil2 {fill:gray}
    .fil0 {fill:#99CCCC}
   ]]>
  </style>
 </defs>
 <g id="_100:master" visibility="hidden">
  <metadata id="CorelCorpID_0Corel-Layer"/>
  <path class="fil0" d="M689 569c-20,0 -40,19 -40,40 -1,21 20,41 40,41l0 -81z"/>
  <path class="fil1" d="M918 469c0,1 0,-82 -1,-82 -232,79 -145,-127 -92,-127 23,0 44,21 60,55 13,29 23,66 27,107 5,57 -2,121 -27,176l83 -54c21,-79 13,-191 -19,-270 -24,-60 -62,-100 -113,-95 -149,15 -203,403 82,290z"/>
  <path class="fil2" d="M973 488c7,78 -36,123 -96,146 -30,11 -64,16 -99,16l-89 0 0 -81 89 0c35,0 65,-5 89,-12 66,-20 96,-58 106,-69z"/>
 </g>
 <g id="Layer_x0020_1">
  <metadata id="CorelCorpID_1Corel-Layer"/>
  <path class="fil0" d="M822 406c-32,0 -76,-7 -69,-63l1 -1c8,-36 34,-90 70,-90 34,1 68,56 81,144 -26,9 -54,10 -83,10l0 0zm-142 163l0 0 77 0c73,0 122,-14 153,-36 1,-20 2,-39 2,-57 -26,10 -54,11 -90,11l0 0c-90,0 -126,-65 -119,-121l1 -1c13,-110 70,-194 132,-194 95,0 146,171 140,306 -1,111 -68,173 -219,173l-77 0 0 0c-20,-2 -38,-21 -38,-41 1,-20 19,-38 38,-40z"/>
 </g>
</svg>
