<?xml version="1.0" encoding="UTF-8"?>
<!DOCTYPE svg PUBLIC "-//W3C//DTD SVG 1.0//EN" "http://www.w3.org/TR/2001/REC-SVG-20010904/DTD/svg10.dtd">
<!-- Creator: CorelDRAW -->
<svg xmlns="http://www.w3.org/2000/svg" xml:space="preserve" width="1300px" height="1300px" version="1.0" style="shape-rendering:geometricPrecision; text-rendering:geometricPrecision; image-rendering:optimizeQuality; fill-rule:evenodd; clip-rule:evenodd"
viewBox="0 0 1300 1056"
 xmlns:xlink="http://www.w3.org/1999/xlink">
 <defs>
  <style type="text/css">
   <![CDATA[
    .fil0 {fill:#99CCCC}
   ]]>
  </style>
 </defs>
 <g id="_100:master">
  <metadata id="CorelCorpID_0Corel-Layer"/>
  <path class="fil0" d="M641 569c53,0 96,-7 131,-16 -38,-38 -58,-80 -58,-113 0,-78 76,-180 140,-180 57,0 120,86 120,164l-49 20c1,-38 -31,-87 -65,-103 -34,-16 -95,55 -95,98 7,24 37,56 83,82 52,-30 72,-66 77,-77l49 -20c1,37 -18,85 -57,127 36,11 77,18 122,18l28 0 0 81 -43 0c-71,0 -131,-17 -179,-43 -46,26 -106,43 -179,43l-25 0 0 0 0 0c-20,-1 -41,-20 -40,-41 0,-20 20,-40 40,-40l0 0 0 0z"/>
 </g>
</svg>
