<?xml version="1.0" encoding="UTF-8"?>
<!DOCTYPE svg PUBLIC "-//W3C//DTD SVG 1.0//EN" "http://www.w3.org/TR/2001/REC-SVG-20010904/DTD/svg10.dtd">
<!-- Creator: CorelDRAW -->
<svg xmlns="http://www.w3.org/2000/svg" xml:space="preserve" width="1300px" height="1300px" version="1.0" style="shape-rendering:geometricPrecision; text-rendering:geometricPrecision; image-rendering:optimizeQuality; fill-rule:evenodd; clip-rule:evenodd"
viewBox="0 0 1300 1056"
 xmlns:xlink="http://www.w3.org/1999/xlink">
 <defs>
  <style type="text/css">
   <![CDATA[
    .fil1 {fill:black;fill-opacity:0.501961}
    .fil4 {fill:#333333;fill-opacity:0.501961}
    .fil3 {fill:#CC9933;fill-opacity:0.501961}
    .fil0 {fill:gray}
    .fil2 {fill:fuchsia}
   ]]>
  </style>
 </defs>
 <g id="_100:master" visibility="hidden">
  <metadata id="CorelCorpID_0Corel-Layer"/>
  <path class="fil0" d="M962 357l14 75c-28,23 -73,55 -143,55l-1 0 0 -81 4 0c44,0 98,-25 126,-49z"/>
  <path class="fil1" d="M832 487l0 -81c-33,0 -81,0 -68,-64l-47 32c-7,57 26,113 115,113z"/>
  <path class="fil2" d="M903 563l72 -54c12,-141 -27,-332 -137,-332 -82,0 -118,131 -121,197l47 -32c11,-37 40,-82 69,-82 61,0 98,203 70,303z"/>
  <path class="fil3" d="M358 315l49 20c-74,183 28,235 169,234 136,0 252,-29 341,-59 22,-8 45,-16 59,-23 -2,42 -3,61 -16,75 -11,12 -33,20 -76,35 -86,28 -168,54 -321,54 -169,0 -304,-66 -205,-336z"/>
 </g>
 <g id="Layer_x0020_1">
  <metadata id="CorelCorpID_1Corel-Layer"/>
  <path class="fil4" d="M363 378l30 12c5,2 9,7 6,15 -106,255 333,175 513,121 1,-14 2,-28 1,-42 -26,10 -53,12 -89,12l0 0c-91,0 -127,-65 -120,-122l1 0c10,-114 69,-187 132,-187 104,0 154,184 138,322l-1 1c-4,39 -13,74 -54,92 -180,61 -720,175 -571,-219 2,-5 9,-7 14,-5zm461 36l0 0c29,0 58,-1 83,-10 -13,-85 -47,-135 -81,-136 -36,0 -62,38 -70,74l0 0c-13,64 34,72 68,72z"/>
 </g>
</svg>
