<?xml version="1.0" encoding="UTF-8"?>
<!DOCTYPE svg PUBLIC "-//W3C//DTD SVG 1.0//EN" "http://www.w3.org/TR/2001/REC-SVG-20010904/DTD/svg10.dtd">
<!-- Creator: CorelDRAW -->
<svg xmlns="http://www.w3.org/2000/svg" xml:space="preserve" width="1300px" height="1300px" version="1.0" style="shape-rendering:geometricPrecision; text-rendering:geometricPrecision; image-rendering:optimizeQuality; fill-rule:evenodd; clip-rule:evenodd"
viewBox="0 0 1300 1056"
 xmlns:xlink="http://www.w3.org/1999/xlink">
 <defs>
  <style type="text/css">
   <![CDATA[
    .fil0 {fill:#CC9933;fill-opacity:0.501961}
   ]]>
  </style>
 </defs>
 <g id="_100:master">
  <metadata id="CorelCorpID_0Corel-Layer"/>
  <path class="fil0" d="M863 603c-78,26 -159,48 -300,48 -167,0 -301,-65 -208,-326 2,-5 9,-8 13,-6l29 12c4,2 8,7 5,16 -65,173 36,223 174,222 76,0 146,-9 208,-22 -24,-25 -40,-51 -47,-76 -13,-42 43,-195 135,-195 69,0 130,134 123,180 -4,30 -21,63 -50,94 38,12 79,19 115,19l28 0 0 81 -24 0c-78,0 -147,-19 -201,-47zm2 -245c33,-1 82,70 82,102 -1,3 -22,34 -75,63 -52,-25 -90,-55 -89,-79 1,-38 50,-86 82,-86z"/>
 </g>
</svg>
