<?xml version="1.0" encoding="UTF-8"?>
<!DOCTYPE svg PUBLIC "-//W3C//DTD SVG 1.0//EN" "http://www.w3.org/TR/2001/REC-SVG-20010904/DTD/svg10.dtd">
<!-- Creator: CorelDRAW -->
<svg xmlns="http://www.w3.org/2000/svg" xml:space="preserve" width="1300px" height="1300px" version="1.0" style="shape-rendering:geometricPrecision; text-rendering:geometricPrecision; image-rendering:optimizeQuality; fill-rule:evenodd; clip-rule:evenodd"
viewBox="0 0 1300 1056"
 xmlns:xlink="http://www.w3.org/1999/xlink">
 <defs>
  <style type="text/css">
   <![CDATA[
    .fil0 {fill:red;fill-opacity:0.501961}
   ]]>
  </style>
 </defs>
 <g id="_100:master" visibility="hidden">
  <metadata id="CorelCorpID_0Corel-Layer"/>
  <path class="fil0" d="M380 352l15 8c10,4 5,13 3,20 -110,319 463,205 563,134 3,-4 9,-7 13,-9 -3,40 6,81 -64,110 -203,86 -710,133 -543,-258 2,-5 8,-8 13,-5z"/>
 </g>
 <g id="Layer_x0020_1">
  <metadata id="CorelCorpID_1Corel-Layer"/>
  <path class="fil0" d="M928 523c44,-26 73,-59 81,-84 0,-29 -43,-81 -69,-82 -26,0 -54,40 -73,81 -5,11 10,52 61,85zm-104 -110c18,-71 71,-143 135,-136 57,6 99,104 97,142 0,42 -21,92 -60,135 30,9 67,15 110,15l16 0 0 81 -19 0c-76,0 -136,-16 -181,-41 -4,2 -8,4 -12,6 -203,86 -719,133 -552,-258 3,-5 8,-8 14,-5l13 7c9,4 7,14 4,21 -95,257 272,232 469,176 -35,-44 -46,-97 -34,-143z"/>
 </g>
</svg>
