<?xml version="1.0" encoding="UTF-8"?>
<!DOCTYPE svg PUBLIC "-//W3C//DTD SVG 1.0//EN" "http://www.w3.org/TR/2001/REC-SVG-20010904/DTD/svg10.dtd">
<!-- Creator: CorelDRAW -->
<svg xmlns="http://www.w3.org/2000/svg" xml:space="preserve" width="1300px" height="1300px" version="1.0" style="shape-rendering:geometricPrecision; text-rendering:geometricPrecision; image-rendering:optimizeQuality; fill-rule:evenodd; clip-rule:evenodd"
viewBox="0 0 1300 1056"
 xmlns:xlink="http://www.w3.org/1999/xlink">
 <defs>
  <style type="text/css">
   <![CDATA[
    .fil0 {fill:#99CCCC}
   ]]>
  </style>
 </defs>
 <g id="_100:master">
  <metadata id="CorelCorpID_0Corel-Layer"/>
  <path class="fil0" d="M650 569l16 0c37,0 73,-5 105,-14 -32,-41 -41,-90 -30,-134 18,-71 85,-145 131,-145 54,0 103,89 103,159 -2,49 -23,90 -56,122 29,7 64,12 105,12l32 0 -1 81 -35 0c-76,0 -136,-15 -181,-39 -56,26 -119,39 -173,39l-16 0c-20,0 -41,-20 -41,-41 1,-21 21,-40 41,-40zm276 -106c0,-41 -42,-107 -64,-106 -21,1 -73,51 -78,89 -5,11 11,51 63,82 49,-23 79,-50 79,-65z"/>
 </g>
</svg>
