<?xml version="1.0" encoding="UTF-8"?>
<!DOCTYPE svg PUBLIC "-//W3C//DTD SVG 1.0//EN" "http://www.w3.org/TR/2001/REC-SVG-20010904/DTD/svg10.dtd">
<!-- Creator: CorelDRAW -->
<svg xmlns="http://www.w3.org/2000/svg" xml:space="preserve" width="1300px" height="1300px" version="1.0" style="shape-rendering:geometricPrecision; text-rendering:geometricPrecision; image-rendering:optimizeQuality; fill-rule:evenodd; clip-rule:evenodd"
viewBox="0 0 1300 1056"
 xmlns:xlink="http://www.w3.org/1999/xlink">
 <defs>
  <style type="text/css">
   <![CDATA[
    .fil0 {fill:#99CCCC}
   ]]>
  </style>
 </defs>
 <g id="_100:master">
  <metadata id="CorelCorpID_0Corel-Layer"/>
  <path class="fil0" d="M641 569l0 0 22 0c38,0 74,-8 107,-21 -36,-37 -53,-82 -53,-124 0,-83 79,-181 142,-173 62,9 108,84 108,148 0,56 -22,105 -56,145 43,15 97,25 161,25l-1 81c-97,0 -174,-19 -231,-49 -53,31 -118,49 -182,49 -6,0 -12,0 -17,0l0 0c-21,0 -41,-20 -41,-41 1,-21 20,-40 41,-40l0 0 0 0zm284 -147c-11,-35 -50,-87 -79,-89 -25,-1 -73,60 -82,104 -2,11 23,45 76,75 46,-31 77,-67 85,-90z"/>
 </g>
</svg>
