<?xml version="1.0" encoding="UTF-8"?>
<!DOCTYPE svg PUBLIC "-//W3C//DTD SVG 1.0//EN" "http://www.w3.org/TR/2001/REC-SVG-20010904/DTD/svg10.dtd">
<!-- Creator: CorelDRAW -->
<svg xmlns="http://www.w3.org/2000/svg" xml:space="preserve" width="1300px" height="1300px" version="1.0" style="shape-rendering:geometricPrecision; text-rendering:geometricPrecision; image-rendering:optimizeQuality; fill-rule:evenodd; clip-rule:evenodd"
viewBox="0 0 1300 1056"
 xmlns:xlink="http://www.w3.org/1999/xlink">
 <defs>
  <style type="text/css">
   <![CDATA[
    .fil1 {fill:black;fill-opacity:0.501961}
    .fil2 {fill:gray}
    .fil5 {fill:#9900CC}
    .fil0 {fill:#99CCCC}
    .fil3 {fill:fuchsia}
    .fil4 {fill:yellow}
   ]]>
  </style>
 </defs>
 <g id="_100:master" visibility="hidden">
  <metadata id="CorelCorpID_0Corel-Layer"/>
  <path class="fil0" d="M689 569c-20,0 -40,19 -40,40 -1,21 20,41 40,41l0 -81z"/>
  <path class="fil1" d="M918 469c0,1 0,-82 -1,-82 -232,79 -145,-127 -92,-127 23,0 44,21 60,55 13,29 23,66 27,107 5,57 -2,121 -27,176l83 -54c21,-79 13,-191 -19,-270 -24,-60 -62,-100 -113,-95 -149,15 -203,403 82,290z"/>
  <path class="fil2" d="M973 488c7,78 -36,123 -96,146 -30,11 -64,16 -99,16l-89 0 0 -81 89 0c35,0 65,-5 89,-12 66,-20 96,-58 106,-69z"/>
 </g>
 <g id="Layer_x0020_1" visibility="hidden">
  <metadata id="CorelCorpID_1Corel-Layer"/>
  <path class="fil0" d="M683 569c-20,0 -40,19 -41,40 0,21 21,41 41,41l0 -81z"/>
  <path class="fil3" d="M915 544l59 -44c1,-94 -32,-305 -148,-305l-6 81c74,0 94,215 95,268z"/>
  <path class="fil4" d="M915 544c-26,14 -63,25 -120,25l-113 0 0 81 130 0c73,0 121,-29 145,-85 10,-21 15,-42 17,-65l-59 44z"/>
  <path class="fil5" d="M914 470l12 -80c-61,24 -167,26 -169,-25 -2,-38 38,-87 63,-89l6 -81c-63,1 -119,115 -119,196 0,106 127,112 207,79z"/>
 </g>
 <g id="Layer_x0020_2">
  <metadata id="CorelCorpID_2Corel-Layer"/>
  <path class="fil0" d="M682 569l0 0 113 0c49,0 83,-8 108,-19 5,-25 6,-51 6,-77 -80,29 -201,20 -202,-90 0,-58 49,-187 127,-188 101,0 155,183 140,306l1 0c-1,8 -3,18 -6,28 -1,8 -4,16 -6,23l0 0c-2,5 -4,9 -6,13 -24,56 -72,85 -145,85l-130 0 0 0c-20,0 -40,-20 -40,-41 1,-21 20,-40 40,-40zm218 -171c-14,-68 -45,-122 -80,-122 -24,0 -63,64 -63,89 1,45 82,48 143,33z"/>
 </g>
</svg>
