<?xml version="1.0" encoding="UTF-8"?>
<!DOCTYPE svg PUBLIC "-//W3C//DTD SVG 1.0//EN" "http://www.w3.org/TR/2001/REC-SVG-20010904/DTD/svg10.dtd">
<!-- Creator: CorelDRAW -->
<svg xmlns="http://www.w3.org/2000/svg" xml:space="preserve" width="1300px" height="1300px" version="1.0" style="shape-rendering:geometricPrecision; text-rendering:geometricPrecision; image-rendering:optimizeQuality; fill-rule:evenodd; clip-rule:evenodd"
viewBox="0 0 1300 1056"
 xmlns:xlink="http://www.w3.org/1999/xlink">
 <defs>
  <style type="text/css">
   <![CDATA[
    .fil0 {fill:#99CCCC}
   ]]>
  </style>
 </defs>
 <g id="_100:master">
  <metadata id="CorelCorpID_0Corel-Layer"/>
  <path class="fil0" d="M641 569c51,0 94,-6 130,-15 -29,-27 -48,-55 -55,-83 -13,-42 43,-195 135,-195 69,0 130,134 123,180 -4,30 -21,63 -50,94 38,12 79,19 115,19l28 0 0 81 -25 0c-74,0 -140,-17 -193,-43 -48,26 -109,43 -183,43l-25 0 0 0 0 0c-20,-1 -41,-20 -40,-41 0,-20 20,-40 40,-40l0 0 0 0zm202 -211c-31,0 -80,48 -81,86 -1,24 37,54 89,79 53,-29 74,-60 74,-63 1,-32 -48,-103 -82,-102z"/>
 </g>
</svg>
