<?xml version="1.0" encoding="UTF-8"?>
<!DOCTYPE svg PUBLIC "-//W3C//DTD SVG 1.0//EN" "http://www.w3.org/TR/2001/REC-SVG-20010904/DTD/svg10.dtd">
<!-- Creator: CorelDRAW -->
<svg xmlns="http://www.w3.org/2000/svg" xml:space="preserve" width="1300px" height="1300px" version="1.0" style="shape-rendering:geometricPrecision; text-rendering:geometricPrecision; image-rendering:optimizeQuality; fill-rule:evenodd; clip-rule:evenodd"
viewBox="0 0 1300 1056"
 xmlns:xlink="http://www.w3.org/1999/xlink">
 <defs>
  <style type="text/css">
   <![CDATA[
    .fil0 {fill:black;fill-opacity:0.501961}
   ]]>
  </style>
 </defs>
 <g id="_100:master">
  <metadata id="CorelCorpID_0Corel-Layer"/>
  <path class="fil0" d="M872 525c61,-29 96,-61 98,-81 1,-32 -49,-103 -82,-102 -32,0 -80,64 -81,102 43,76 157,125 277,125l28 0 0 81 -25 0c-82,0 -154,-21 -209,-51 -84,28 -166,52 -315,52 -167,0 -301,-65 -208,-326 2,-5 9,-8 13,-6l29 12c4,2 8,7 5,16 -65,173 36,223 174,222 84,0 160,-11 227,-27 -21,-23 -36,-47 -43,-71 -15,-54 41,-211 136,-211 74,0 123,116 123,163 0,69 -46,129 -120,171l-27 -69z"/>
 </g>
</svg>
