<?xml version="1.0" encoding="UTF-8"?>
<!DOCTYPE svg PUBLIC "-//W3C//DTD SVG 1.0//EN" "http://www.w3.org/TR/2001/REC-SVG-20010904/DTD/svg10.dtd">
<!-- Creator: CorelDRAW -->
<svg xmlns="http://www.w3.org/2000/svg" xml:space="preserve" width="1300px" height="1300px" version="1.0" style="shape-rendering:geometricPrecision; text-rendering:geometricPrecision; image-rendering:optimizeQuality; fill-rule:evenodd; clip-rule:evenodd"
viewBox="0 0 1300 1056"
 xmlns:xlink="http://www.w3.org/1999/xlink">
 <defs>
  <style type="text/css">
   <![CDATA[
    .fil0 {fill:red;fill-opacity:0.501961}
   ]]>
  </style>
 </defs>
 <g id="_100:master">
  <metadata id="CorelCorpID_0Corel-Layer"/>
  <path class="fil0" d="M910 519c41,-27 64,-58 76,-78 -4,-35 -49,-105 -80,-108 -26,0 -66,60 -74,104 -2,12 22,50 78,82zm8 -268c68,8 116,117 116,173 1,37 -16,84 -52,125 38,12 85,20 141,20l-1 81c-91,0 -163,-17 -216,-44 -191,62 -703,162 -557,-223 2,-5 9,-7 14,-5l30 12c5,2 9,7 6,15 -92,221 226,190 430,143 -33,-38 -47,-82 -45,-124 5,-94 66,-173 134,-173z"/>
 </g>
</svg>
