<?xml version="1.0" encoding="UTF-8"?>
<!DOCTYPE svg PUBLIC "-//W3C//DTD SVG 1.0//EN" "http://www.w3.org/TR/2001/REC-SVG-20010904/DTD/svg10.dtd">
<!-- Creator: CorelDRAW -->
<svg xmlns="http://www.w3.org/2000/svg" xml:space="preserve" width="1300px" height="1300px" version="1.0" style="shape-rendering:geometricPrecision; text-rendering:geometricPrecision; image-rendering:optimizeQuality; fill-rule:evenodd; clip-rule:evenodd"
viewBox="0 0 1300 1056"
 xmlns:xlink="http://www.w3.org/1999/xlink">
 <defs>
  <style type="text/css">
   <![CDATA[
    .fil0 {fill:#99CCCC}
   ]]>
  </style>
 </defs>
 <g id="_100:master">
  <metadata id="CorelCorpID_0Corel-Layer"/>
  <path class="fil0" d="M683 569l0 0c33,0 63,-6 91,-14 -34,-44 -45,-96 -33,-142 18,-71 71,-143 135,-136 57,6 99,104 97,142 0,42 -21,92 -60,135 31,9 67,15 111,15l15 0 0 81 -19 0c-74,0 -133,-15 -177,-39 -42,24 -93,39 -153,39 -2,0 -5,0 -8,0l0 0c-20,0 -40,-20 -40,-41 0,-21 20,-40 40,-40l0 0 1 0zm243 -130c0,-29 -42,-81 -69,-82 -26,0 -54,40 -73,81 -5,11 10,52 61,85 44,-26 73,-59 81,-84z"/>
 </g>
</svg>
