<?xml version="1.0" encoding="UTF-8"?>
<!DOCTYPE svg PUBLIC "-//W3C//DTD SVG 1.0//EN" "http://www.w3.org/TR/2001/REC-SVG-20010904/DTD/svg10.dtd">
<!-- Creator: CorelDRAW -->
<svg xmlns="http://www.w3.org/2000/svg" xml:space="preserve" width="1300px" height="1300px" version="1.0" style="shape-rendering:geometricPrecision; text-rendering:geometricPrecision; image-rendering:optimizeQuality; fill-rule:evenodd; clip-rule:evenodd"
viewBox="0 0 1300 1056"
 xmlns:xlink="http://www.w3.org/1999/xlink">
 <defs>
  <style type="text/css">
   <![CDATA[
    .fil0 {fill:red;fill-opacity:0.501961}
   ]]>
  </style>
 </defs>
 <g id="_100:master">
  <metadata id="CorelCorpID_0Corel-Layer"/>
  <path class="fil0" d="M771 554c-28,-26 -47,-55 -55,-83 -13,-42 44,-211 136,-211 69,0 123,116 123,163 0,47 -21,92 -59,130 40,10 83,16 124,16l28 0 0 81 -25 0c-77,0 -145,-18 -199,-46 -55,29 -125,46 -203,46 -20,0 -41,-20 -40,-41 0,-21 20,-40 40,-40l0 0c52,0 94,-6 130,-15zm73 -212c-31,0 -80,64 -81,102 7,33 38,61 81,82 57,-31 80,-69 82,-82 1,-32 -49,-103 -82,-102z"/>
 </g>
</svg>
