<?xml version="1.0" encoding="UTF-8"?>
<!DOCTYPE svg PUBLIC "-//W3C//DTD SVG 1.0//EN" "http://www.w3.org/TR/2001/REC-SVG-20010904/DTD/svg10.dtd">
<!-- Creator: CorelDRAW -->
<svg xmlns="http://www.w3.org/2000/svg" xml:space="preserve" width="1300px" height="1300px" version="1.0" style="shape-rendering:geometricPrecision; text-rendering:geometricPrecision; image-rendering:optimizeQuality; fill-rule:evenodd; clip-rule:evenodd"
viewBox="0 0 1300 1056"
 xmlns:xlink="http://www.w3.org/1999/xlink">
 <defs>
  <style type="text/css">
   <![CDATA[
    .fil1 {fill:black;fill-opacity:0.501961}
    .fil3 {fill:#CC9933;fill-opacity:0.501961}
    .fil6 {fill:#669999}
    .fil0 {fill:gray}
    .fil4 {fill:#9900CC}
    .fil2 {fill:fuchsia}
    .fil5 {fill:#FF99CC}
   ]]>
  </style>
 </defs>
 <g id="_100:master" visibility="hidden">
  <metadata id="CorelCorpID_0Corel-Layer"/>
  <path class="fil0" d="M962 357l14 75c-28,23 -73,55 -143,55l-1 0 0 -81 4 0c44,0 98,-25 126,-49z"/>
  <path class="fil1" d="M832 487l0 -81c-33,0 -81,0 -68,-64l-47 32c-7,57 26,113 115,113z"/>
  <path class="fil2" d="M903 563l72 -54c12,-141 -27,-332 -137,-332 -82,0 -118,131 -121,197l47 -32c11,-37 40,-82 69,-82 61,0 98,203 70,303z"/>
  <path class="fil3" d="M358 315l49 20c-74,183 28,235 169,234 136,0 252,-29 341,-59 22,-8 45,-16 59,-23 -2,42 -3,61 -16,75 -11,12 -33,20 -76,35 -86,28 -168,54 -321,54 -169,0 -304,-66 -205,-336z"/>
 </g>
 <g id="Layer_x0020_1" visibility="hidden">
  <metadata id="CorelCorpID_1Corel-Layer"/>
  <path class="fil2" d="M894 585l69 -33c41,-113 -12,-357 -129,-357l-14 81c65,1 115,186 74,309z"/>
  <path class="fil4" d="M914 470l12 -80c-61,24 -167,26 -169,-25 0,-25 39,-89 63,-89l14 -81c-78,1 -127,130 -127,188 1,113 127,120 207,87z"/>
  <path class="fil5" d="M915 533l57 -19c-10,46 -16,83 -60,99 -93,33 -222,48 -315,49 -172,0 -275,-36 -274,-162 1,-34 8,-74 21,-122 2,-10 8,-12 15,-10 21,7 25,5 20,26 -12,45 -16,76 -10,101 15,62 113,82 223,82 107,1 258,-20 323,-44z"/>
 </g>
 <g id="Layer_x0020_2">
  <metadata id="CorelCorpID_2Corel-Layer"/>
  <path class="fil6" d="M813 275c-43,-1 -122,132 10,131 28,0 58,-6 79,-14 -15,-65 -44,-116 -89,-117zm163 239c-9,34 -21,83 -64,99 -93,33 -222,48 -315,49 -172,0 -275,-36 -274,-162 1,-34 8,-74 21,-122 2,-10 8,-12 15,-10 21,7 25,5 20,26 -12,45 -16,76 -10,101 15,62 113,82 223,82 106,1 256,-20 322,-44 1,-24 1,-49 -1,-75 -20,17 -60,30 -99,30 -194,0 -105,-293 7,-293 108,-13 180,182 155,319l0 0 0 0z"/>
 </g>
</svg>
