<?xml version="1.0" encoding="UTF-8"?>
<!DOCTYPE svg PUBLIC "-//W3C//DTD SVG 1.0//EN" "http://www.w3.org/TR/2001/REC-SVG-20010904/DTD/svg10.dtd">
<!-- Creator: CorelDRAW -->
<svg xmlns="http://www.w3.org/2000/svg" xml:space="preserve" width="1300px" height="1300px" version="1.0" style="shape-rendering:geometricPrecision; text-rendering:geometricPrecision; image-rendering:optimizeQuality; fill-rule:evenodd; clip-rule:evenodd"
viewBox="0 0 1300 1056"
 xmlns:xlink="http://www.w3.org/1999/xlink">
 <defs>
  <style type="text/css">
   <![CDATA[
    .fil1 {fill:black;fill-opacity:0.501961}
    .fil2 {fill:gray}
    .fil3 {fill:#999966}
    .fil0 {fill:#99CCCC}
   ]]>
  </style>
 </defs>
 <g id="_100:master" visibility="hidden">
  <metadata id="CorelCorpID_0Corel-Layer"/>
  <path class="fil0" d="M689 569c-20,0 -40,19 -40,40 -1,21 20,41 40,41l0 -81z"/>
  <path class="fil1" d="M918 469c0,1 0,-82 -1,-82 -232,79 -145,-127 -92,-127 23,0 44,21 60,55 13,29 23,66 27,107 5,57 -2,121 -27,176l83 -54c21,-79 13,-191 -19,-270 -24,-60 -62,-100 -113,-95 -149,15 -203,403 82,290z"/>
  <path class="fil2" d="M973 488c7,78 -36,123 -96,146 -30,11 -64,16 -99,16l-89 0 0 -81 89 0c35,0 65,-5 89,-12 66,-20 96,-58 106,-69z"/>
 </g>
 <g id="Layer_x0020_1">
  <metadata id="CorelCorpID_1Corel-Layer"/>
  <path class="fil3" d="M913 484c-26,10 -53,12 -89,12l0 0c-91,0 -127,-65 -120,-122l1 0c10,-114 69,-187 132,-187 104,0 154,184 138,322l0 0c-3,103 -102,141 -195,141l-98 0 0 0c-20,-1 -40,-20 -40,-41 1,-20 20,-40 40,-40l0 0 1 0 97 0c52,0 93,-9 131,-30 2,-19 2,-37 2,-55zm-89 -70l0 0c29,0 58,-1 83,-10 -13,-85 -47,-135 -81,-136 -36,0 -62,38 -70,74l0 0c-13,64 34,72 68,72z"/>
 </g>
</svg>
