<?xml version="1.0" encoding="UTF-8"?>
<!DOCTYPE svg PUBLIC "-//W3C//DTD SVG 1.0//EN" "http://www.w3.org/TR/2001/REC-SVG-20010904/DTD/svg10.dtd">
<!-- Creator: CorelDRAW -->
<svg xmlns="http://www.w3.org/2000/svg" xml:space="preserve" width="1300px" height="1300px" version="1.0" style="shape-rendering:geometricPrecision; text-rendering:geometricPrecision; image-rendering:optimizeQuality; fill-rule:evenodd; clip-rule:evenodd"
viewBox="0 0 1300 1056"
 xmlns:xlink="http://www.w3.org/1999/xlink">
 <defs>
  <style type="text/css">
   <![CDATA[
    .fil0 {fill:black;fill-opacity:0.501961}
   ]]>
  </style>
 </defs>
 <g id="_100:master">
  <metadata id="CorelCorpID_0Corel-Layer"/>
  <path class="fil0" d="M975 423c0,122 -140,226 -332,227l0 0 -2 0 0 0c-19,-1 -39,-20 -39,-41 1,-20 19,-39 39,-40l0 0c171,0 282,-89 285,-125 1,-32 -49,-103 -82,-102 -31,0 -80,64 -81,102 43,76 157,125 277,125l28 0 0 81 -25 0c-175,0 -303,-94 -327,-179 -14,-54 41,-211 136,-211 74,0 123,116 123,163z"/>
 </g>
</svg>
