<?xml version="1.0" encoding="UTF-8"?>
<!DOCTYPE svg PUBLIC "-//W3C//DTD SVG 1.0//EN" "http://www.w3.org/TR/2001/REC-SVG-20010904/DTD/svg10.dtd">
<!-- Creator: CorelDRAW -->
<svg xmlns="http://www.w3.org/2000/svg" xml:space="preserve" width="1300px" height="1300px" version="1.0" style="shape-rendering:geometricPrecision; text-rendering:geometricPrecision; image-rendering:optimizeQuality; fill-rule:evenodd; clip-rule:evenodd"
viewBox="0 0 1300 1056"
 xmlns:xlink="http://www.w3.org/1999/xlink">
 <defs>
  <style type="text/css">
   <![CDATA[
    .fil0 {fill:red;fill-opacity:0.501961}
    .fil1 {fill:#FF99CC}
   ]]>
  </style>
 </defs>
 <g id="_100:master" visibility="hidden">
  <metadata id="CorelCorpID_0Corel-Layer"/>
  <path class="fil0" d="M380 352l15 8c10,4 5,13 3,20 -110,319 463,205 563,134 3,-4 9,-7 13,-9 -3,40 6,81 -64,110 -203,86 -710,133 -543,-258 2,-5 8,-8 13,-5z"/>
 </g>
 <g id="Layer_x0020_1">
  <metadata id="CorelCorpID_1Corel-Layer"/>
  <path class="fil1" d="M914 612l-2 1c-93,33 -222,48 -315,49 -172,0 -275,-36 -274,-162 1,-34 8,-74 21,-122 2,-10 8,-12 15,-10 21,7 25,5 20,26 -12,45 -16,76 -10,101 15,62 113,82 223,82 77,0 176,-10 250,-25 -30,-40 -39,-88 -28,-131 18,-71 85,-145 131,-145 54,0 103,89 103,159 -2,49 -23,90 -56,122 29,7 64,12 105,12l32 0 -1 81 -35 0c-75,0 -134,-15 -179,-38zm85 -149c0,15 -30,42 -78,65 -53,-31 -69,-71 -64,-82 6,-38 57,-88 78,-89 22,-1 64,65 64,106z"/>
 </g>
</svg>
