<?xml version="1.0" encoding="UTF-8"?>
<!DOCTYPE svg PUBLIC "-//W3C//DTD SVG 1.0//EN" "http://www.w3.org/TR/2001/REC-SVG-20010904/DTD/svg10.dtd">
<!-- Creator: CorelDRAW -->
<svg xmlns="http://www.w3.org/2000/svg" xml:space="preserve" width="1300px" height="1300px" version="1.0" style="shape-rendering:geometricPrecision; text-rendering:geometricPrecision; image-rendering:optimizeQuality; fill-rule:evenodd; clip-rule:evenodd"
viewBox="0 0 1300 1056"
 xmlns:xlink="http://www.w3.org/1999/xlink">
 <defs>
  <style type="text/css">
   <![CDATA[
    .fil0 {fill:#CC9933;fill-opacity:0.501961}
   ]]>
  </style>
 </defs>
 <g id="_100:master">
  <metadata id="CorelCorpID_0Corel-Layer"/>
  <path class="fil0" d="M851 608c-75,23 -155,43 -288,43 -167,0 -301,-65 -208,-326 2,-5 9,-8 13,-6l29 12c4,2 8,7 5,16 -65,173 36,223 174,222 69,0 133,-8 191,-19 -26,-25 -43,-52 -51,-79 -14,-54 41,-211 136,-211 79,0 123,116 123,163 0,47 -21,91 -58,128 39,12 80,18 123,18l28 0 0 81 -25 0c-74,0 -139,-17 -192,-42zm-2 -85c-38,-21 -68,-47 -86,-79 1,-38 50,-102 81,-102 33,-1 83,70 82,102 -2,13 -23,49 -77,79z"/>
 </g>
</svg>
