<?xml version="1.0" encoding="UTF-8"?>
<!DOCTYPE svg PUBLIC "-//W3C//DTD SVG 1.0//EN" "http://www.w3.org/TR/2001/REC-SVG-20010904/DTD/svg10.dtd">
<!-- Creator: CorelDRAW -->
<svg xmlns="http://www.w3.org/2000/svg" xml:space="preserve" width="1300px" height="1300px" version="1.0" style="shape-rendering:geometricPrecision; text-rendering:geometricPrecision; image-rendering:optimizeQuality; fill-rule:evenodd; clip-rule:evenodd"
viewBox="0 0 1300 1056"
 xmlns:xlink="http://www.w3.org/1999/xlink">
 <defs>
  <style type="text/css">
   <![CDATA[
    .fil0 {fill:red;fill-opacity:0.501961}
   ]]>
  </style>
 </defs>
 <g id="_100:master">
  <metadata id="CorelCorpID_0Corel-Layer"/>
  <path class="fil0" d="M974 551c36,11 77,18 122,18l28 0 0 81 -43 0c-70,0 -130,-17 -178,-43 -193,62 -699,159 -554,-224 2,-5 9,-7 14,-5l30 12c5,2 9,7 6,15 -92,220 222,190 426,144 -35,-37 -54,-78 -54,-109 0,-78 76,-180 140,-180 57,0 120,86 120,164l-49 20c1,-38 -31,-87 -65,-103 -35,-16 -95,55 -95,98 7,24 36,56 83,82 52,-30 72,-66 77,-77l49 -20c0,37 -18,85 -57,127z"/>
 </g>
</svg>
