<?xml version="1.0" encoding="UTF-8"?>
<!DOCTYPE svg PUBLIC "-//W3C//DTD SVG 1.0//EN" "http://www.w3.org/TR/2001/REC-SVG-20010904/DTD/svg10.dtd">
<!-- Creator: CorelDRAW -->
<svg xmlns="http://www.w3.org/2000/svg" xml:space="preserve" width="1300px" height="1300px" version="1.0" style="shape-rendering:geometricPrecision; text-rendering:geometricPrecision; image-rendering:optimizeQuality; fill-rule:evenodd; clip-rule:evenodd"
viewBox="0 0 1300 1056"
 xmlns:xlink="http://www.w3.org/1999/xlink">
 <defs>
  <style type="text/css">
   <![CDATA[
    .fil1 {fill:black;fill-opacity:0.501961}
    .fil4 {fill:#333333;fill-opacity:0.501961}
    .fil3 {fill:#CC9933;fill-opacity:0.501961}
    .fil0 {fill:gray}
    .fil2 {fill:fuchsia}
   ]]>
  </style>
 </defs>
 <g id="_100:master" visibility="hidden">
  <metadata id="CorelCorpID_0Corel-Layer"/>
  <path class="fil0" d="M962 357l14 75c-28,23 -73,55 -143,55l-1 0 0 -81 4 0c44,0 98,-25 126,-49z"/>
  <path class="fil1" d="M832 487l0 -81c-33,0 -81,0 -68,-64l-47 32c-7,57 26,113 115,113z"/>
  <path class="fil2" d="M903 563l72 -54c12,-141 -27,-332 -137,-332 -82,0 -118,131 -121,197l47 -32c11,-37 40,-82 69,-82 61,0 98,203 70,303z"/>
  <path class="fil3" d="M358 315l49 20c-74,183 28,235 169,234 136,0 252,-29 341,-59 22,-8 45,-16 59,-23 -2,42 -3,61 -16,75 -11,12 -33,20 -76,35 -86,28 -168,54 -321,54 -169,0 -304,-66 -205,-336z"/>
 </g>
 <g id="Layer_x0020_1">
  <metadata id="CorelCorpID_1Corel-Layer"/>
  <path class="fil4" d="M363 378l30 12c5,2 9,7 6,15 -106,254 330,175 512,122 0,-15 1,-29 1,-43 -26,10 -54,12 -90,12l0 0c-90,0 -126,-65 -119,-122l0 0c11,-114 69,-203 133,-203 102,0 153,196 138,334l0 0c-3,41 -11,78 -54,97 -180,61 -720,175 -571,-219 2,-5 9,-7 14,-5zm459 36l0 0c29,0 58,-1 84,-11 -13,-91 -47,-150 -82,-151 -36,0 -62,54 -70,90l0 0c-13,64 35,72 68,72z"/>
 </g>
</svg>
