<?xml version="1.0" encoding="UTF-8"?>
<!DOCTYPE svg PUBLIC "-//W3C//DTD SVG 1.0//EN" "http://www.w3.org/TR/2001/REC-SVG-20010904/DTD/svg10.dtd">
<!-- Creator: CorelDRAW -->
<svg xmlns="http://www.w3.org/2000/svg" xml:space="preserve" width="1300px" height="1300px" version="1.0" style="shape-rendering:geometricPrecision; text-rendering:geometricPrecision; image-rendering:optimizeQuality; fill-rule:evenodd; clip-rule:evenodd"
viewBox="0 0 1300 1056"
 xmlns:xlink="http://www.w3.org/1999/xlink">
 <defs>
  <style type="text/css">
   <![CDATA[
    .fil0 {fill:#99CCCC}
   ]]>
  </style>
 </defs>
 <g id="_100:master">
  <metadata id="CorelCorpID_0Corel-Layer"/>
  <path class="fil0" d="M842 519c42,-27 64,-58 77,-78 -5,-35 -50,-105 -81,-108 -26,0 -65,60 -74,104 -2,12 22,50 78,82zm-201 50c50,0 91,-7 125,-16 -36,-39 -52,-85 -49,-129 4,-94 65,-173 133,-173 69,8 117,117 117,173 0,37 -17,84 -53,125 39,12 86,20 142,20l-1 81c-90,0 -161,-16 -213,-42 -46,25 -104,42 -176,42l-25 0 0 0 0 0c-20,-1 -41,-20 -40,-41 0,-20 20,-40 40,-40l0 0 0 0z"/>
 </g>
</svg>
