<?xml version="1.0" encoding="UTF-8"?>
<!DOCTYPE svg PUBLIC "-//W3C//DTD SVG 1.0//EN" "http://www.w3.org/TR/2001/REC-SVG-20010904/DTD/svg10.dtd">
<!-- Creator: CorelDRAW -->
<svg xmlns="http://www.w3.org/2000/svg" xml:space="preserve" width="1300px" height="1300px" version="1.0" style="shape-rendering:geometricPrecision; text-rendering:geometricPrecision; image-rendering:optimizeQuality; fill-rule:evenodd; clip-rule:evenodd"
viewBox="0 0 1300 1056"
 xmlns:xlink="http://www.w3.org/1999/xlink">
 <defs>
  <style type="text/css">
   <![CDATA[
    .fil0 {fill:#FF9933;fill-opacity:0.501961}
   ]]>
  </style>
 </defs>
 <g id="_100:master">
  <metadata id="CorelCorpID_0Corel-Layer"/>
  <path class="fil0" d="M968 537l0 0c-20,73 -84,113 -212,113l-24 0 0 0c-20,0 -40,-20 -40,-41 0,-21 20,-40 40,-40l0 0 24 0c74,0 123,-14 154,-37l0 0 0 0c40,-45 -16,-162 -168,-255 -12,-8 -17,-24 -13,-33l15 -46 0 0c8,-23 7,-31 47,-49l300 -104c29,-10 8,78 -21,88l-264 93c174,134 194,231 162,311zm43 -555l-207 72c-16,5 -25,57 -9,51l211 -74c15,-5 20,-54 5,-49z"/>
 </g>
</svg>
