<?xml version="1.0" encoding="UTF-8"?>
<!DOCTYPE svg PUBLIC "-//W3C//DTD SVG 1.0//EN" "http://www.w3.org/TR/2001/REC-SVG-20010904/DTD/svg10.dtd">
<!-- Creator: CorelDRAW -->
<svg xmlns="http://www.w3.org/2000/svg" xml:space="preserve" width="1300px" height="1300px" version="1.0" style="shape-rendering:geometricPrecision; text-rendering:geometricPrecision; image-rendering:optimizeQuality; fill-rule:evenodd; clip-rule:evenodd"
viewBox="0 0 1300 1056"
 xmlns:xlink="http://www.w3.org/1999/xlink">
 <defs>
  <style type="text/css">
   <![CDATA[
    .fil0 {fill:black}
   ]]>
  </style>
 </defs>
 <g id="_100:master">
  <metadata id="CorelCorpID_0Corel-Layer"/>
  <path class="fil0" d="M714 569l0 0 1 0 72 0c24,0 128,-17 128,-49 1,-99 -91,-195 -205,-264 -13,-7 -17,-23 -14,-33l15 -45 0 0c8,-23 7,-31 48,-49l284 -129c27,-12 6,76 -22,88l-247 112c149,101 201,201 201,289 0,117 -87,161 -195,161l-66 0 0 0c-20,-1 -40,-20 -40,-41 0,-20 20,-40 40,-40zm269 -625c14,-7 4,39 -10,46l-230 104c-15,7 -2,-41 13,-48l227 -102z"/>
 </g>
</svg>
