<?xml version="1.0" encoding="UTF-8"?>
<!DOCTYPE svg PUBLIC "-//W3C//DTD SVG 1.0//EN" "http://www.w3.org/TR/2001/REC-SVG-20010904/DTD/svg10.dtd">
<!-- Creator: CorelDRAW -->
<svg xmlns="http://www.w3.org/2000/svg" xml:space="preserve" width="1300px" height="1300px" version="1.0" style="shape-rendering:geometricPrecision; text-rendering:geometricPrecision; image-rendering:optimizeQuality; fill-rule:evenodd; clip-rule:evenodd"
viewBox="0 0 1300 1056"
 xmlns:xlink="http://www.w3.org/1999/xlink">
 <defs>
  <style type="text/css">
   <![CDATA[
    .fil0 {fill:#FF9933;fill-opacity:0.501961}
   ]]>
  </style>
 </defs>
 <g id="_100:master">
  <metadata id="CorelCorpID_0Corel-Layer"/>
  <path class="fil0" d="M912 526c5,-92 -90,-186 -202,-253 -13,-8 -17,-24 -14,-33l15 -46 0 0c8,-23 7,-31 48,-49l284 -129c27,-12 6,76 -22,88l-249 113c160,112 211,211 202,288 -3,42 -25,87 -54,97 -180,61 -720,175 -571,-219 2,-5 9,-7 14,-5l30 12c5,2 9,7 6,15 -106,255 333,175 513,121zm44 -574l-202 86c-15,6 -20,58 -5,52l205 -89c14,-6 16,-55 2,-49z"/>
 </g>
</svg>
