<?xml version="1.0" encoding="UTF-8"?>
<!DOCTYPE svg PUBLIC "-//W3C//DTD SVG 1.0//EN" "http://www.w3.org/TR/2001/REC-SVG-20010904/DTD/svg10.dtd">
<!-- Creator: CorelDRAW -->
<svg xmlns="http://www.w3.org/2000/svg" xml:space="preserve" width="1300px" height="1300px" version="1.0" style="shape-rendering:geometricPrecision; text-rendering:geometricPrecision; image-rendering:optimizeQuality; fill-rule:evenodd; clip-rule:evenodd"
viewBox="0 0 1300 1056"
 xmlns:xlink="http://www.w3.org/1999/xlink">
 <defs>
  <style type="text/css">
   <![CDATA[
    .fil0 {fill:red}
   ]]>
  </style>
 </defs>
 <g id="_100:master">
  <metadata id="CorelCorpID_0Corel-Layer"/>
  <path class="fil0" d="M786 217c30,25 56,49 79,72l0 0 0 0c11,11 20,22 29,32l174 190c32,36 61,58 109,58l0 81c-65,0 -107,-27 -152,-75l-51 -55c-6,42 -21,78 -62,93 -140,50 -509,118 -507,-113 0,-34 7,-74 20,-122 3,-10 8,-12 15,-10 21,7 26,5 20,26 -11,45 -15,76 -9,101 32,135 369,73 464,38l12 -4c-3,-37 -25,-81 -61,-126l-57 -60c-26,-26 -57,-52 -91,-78 -11,-9 -22,-22 -19,-32l20 -50c6,-19 8,-27 46,-44l300 -89c15,-4 14,10 5,40 -9,28 -12,44 -26,48l-258 79zm-26 -139c-26,8 3,-45 13,-48l230 -75c19,-6 -9,47 -28,53l-215 70z"/>
 </g>
</svg>
