<?xml version="1.0" encoding="UTF-8"?>
<!DOCTYPE svg PUBLIC "-//W3C//DTD SVG 1.0//EN" "http://www.w3.org/TR/2001/REC-SVG-20010904/DTD/svg10.dtd">
<!-- Creator: CorelDRAW -->
<svg xmlns="http://www.w3.org/2000/svg" xml:space="preserve" width="1300px" height="1300px" version="1.0" style="shape-rendering:geometricPrecision; text-rendering:geometricPrecision; image-rendering:optimizeQuality; fill-rule:evenodd; clip-rule:evenodd"
viewBox="0 0 1300 1056"
 xmlns:xlink="http://www.w3.org/1999/xlink">
 <defs>
  <style type="text/css">
   <![CDATA[
    .fil0 {fill:#FF9933;fill-opacity:0.501961}
   ]]>
  </style>
 </defs>
 <g id="_100:master">
  <metadata id="CorelCorpID_0Corel-Layer"/>
  <path class="fil0" d="M975 489c-1,117 -87,161 -195,161l-66 0 0 0c-20,-1 -40,-20 -40,-41 0,-20 20,-40 40,-40l0 0 1 0 72 0c49,0 133,-20 139,-49l0 0c-5,-85 -80,-190 -192,-264 -12,-8 -17,-23 -13,-33l3 -10 15 -46c5,-14 15,-25 28,-31l300 -136c28,-12 6,76 -21,88l-251 113c110,85 180,196 180,288l0 0zm33 -557l-227 102c-15,7 -28,56 -12,49l229 -104c14,-7 24,-53 10,-47z"/>
 </g>
</svg>
