<?xml version="1.0" encoding="UTF-8"?>
<!DOCTYPE svg PUBLIC "-//W3C//DTD SVG 1.0//EN" "http://www.w3.org/TR/2001/REC-SVG-20010904/DTD/svg10.dtd">
<!-- Creator: CorelDRAW -->
<svg xmlns="http://www.w3.org/2000/svg" xml:space="preserve" width="1300px" height="1300px" version="1.0" style="shape-rendering:geometricPrecision; text-rendering:geometricPrecision; image-rendering:optimizeQuality; fill-rule:evenodd; clip-rule:evenodd"
viewBox="0 0 1300 1056"
 xmlns:xlink="http://www.w3.org/1999/xlink">
 <defs>
  <style type="text/css">
   <![CDATA[
    .fil1 {fill:#99CCCC}
    .fil0 {fill:red}
   ]]>
  </style>
 </defs>
 <g id="_600:master">
  <metadata id="CorelCorpID_0Corel-Layer"/>
  <path class="fil0" d="M722 236l322 -98c14,-4 17,-20 26,-48 9,-30 10,-44 -5,-40l-300 89c-41,19 -40,26 -48,49l5 48z"/>
 </g>
 <g id="_100:master">
  <metadata id="CorelCorpID_1Corel-Layer"/>
  <path class="fil1" d="M706 569l0 0 89 0c73,0 105,-13 131,-33l1 0c0,-39 -23,-85 -61,-133l-56 -60c-27,-26 -58,-52 -92,-78 -11,-9 -22,-22 -19,-32l20 -51 9 -13c3,3 4,3 7,6 6,6 12,12 20,17 43,34 80,66 110,97l0 0 0 0c11,11 20,22 29,32l174 190c32,36 61,58 109,58l0 81c-65,0 -107,-27 -152,-75l-51 -55c-1,3 -1,7 -2,10 -4,71 -82,120 -160,120l-106 0 0 0c-20,-1 -40,-20 -39,-41 0,-20 19,-39 39,-40zm54 -491c-26,8 3,-45 13,-48l230 -75c19,-6 -9,47 -28,53l-215 70z"/>
 </g>
</svg>
