<?xml version="1.0" encoding="UTF-8"?>
<!DOCTYPE svg PUBLIC "-//W3C//DTD SVG 1.0//EN" "http://www.w3.org/TR/2001/REC-SVG-20010904/DTD/svg10.dtd">
<!-- Creator: CorelDRAW -->
<svg xmlns="http://www.w3.org/2000/svg" xml:space="preserve" width="1300px" height="1300px" version="1.0" style="shape-rendering:geometricPrecision; text-rendering:geometricPrecision; image-rendering:optimizeQuality; fill-rule:evenodd; clip-rule:evenodd"
viewBox="0 0 1300 1056"
 xmlns:xlink="http://www.w3.org/1999/xlink">
 <defs>
  <style type="text/css">
   <![CDATA[
    .fil0 {fill:#99CCCC}
   ]]>
  </style>
 </defs>
 <g id="_100:master">
  <metadata id="CorelCorpID_0Corel-Layer"/>
  <path class="fil0" d="M698 569l0 0 0 0 73 0c23,0 127,-17 128,-49 0,-27 -7,-53 -18,-79 -16,-23 -31,-45 -48,-65 -36,-44 -74,-82 -123,-120 -12,-8 -17,-23 -14,-33l4 -10c6,-18 9,-35 16,-49l0 0 0 0c6,-12 14,-22 27,-28l300 -136c27,-12 6,76 -22,88l-253 114c42,36 83,79 126,130 67,81 130,237 251,237l0 81c-89,0 -147,-47 -194,-106 -23,76 -98,106 -187,106l-66 0 0 0c-21,-1 -41,-20 -40,-41 0,-20 20,-40 40,-40zm285 -625c14,-7 4,39 -10,46l-230 104c-15,7 -2,-41 13,-48l227 -102z"/>
 </g>
</svg>
