<?xml version="1.0" encoding="UTF-8"?>
<!DOCTYPE svg PUBLIC "-//W3C//DTD SVG 1.0//EN" "http://www.w3.org/TR/2001/REC-SVG-20010904/DTD/svg10.dtd">
<!-- Creator: CorelDRAW -->
<svg xmlns="http://www.w3.org/2000/svg" xml:space="preserve" width="1300px" height="1300px" version="1.0" style="shape-rendering:geometricPrecision; text-rendering:geometricPrecision; image-rendering:optimizeQuality; fill-rule:evenodd; clip-rule:evenodd"
viewBox="0 0 1300 1056"
 xmlns:xlink="http://www.w3.org/1999/xlink">
 <defs>
  <style type="text/css">
   <![CDATA[
    .fil0 {fill:#99CCCC}
   ]]>
  </style>
 </defs>
 <g id="_100:master">
  <metadata id="CorelCorpID_0Corel-Layer"/>
  <path class="fil0" d="M956 -48c14,-6 12,43 -2,49l-205 89c-15,6 -10,-46 5,-52l202 -86zm-272 617c92,0 166,5 228,-38 9,-93 -88,-190 -202,-258 -13,-8 -17,-24 -14,-33l15 -46 0 0c8,-23 7,-31 48,-49l284 -129c27,-12 6,76 -22,88l-249 113c45,31 82,62 111,91 117,102 109,261 292,261l-1 81c-106,0 -168,-45 -212,-100 -48,116 -195,100 -279,100l0 0c-20,-1 -40,-20 -40,-41 0,-20 20,-40 40,-40l0 0 1 0 0 0z"/>
 </g>
</svg>
