<?xml version="1.0" encoding="UTF-8"?>
<!DOCTYPE svg PUBLIC "-//W3C//DTD SVG 1.0//EN" "http://www.w3.org/TR/2001/REC-SVG-20010904/DTD/svg10.dtd">
<!-- Creator: CorelDRAW -->
<svg xmlns="http://www.w3.org/2000/svg" xml:space="preserve" width="1300px" height="1300px" version="1.0" style="shape-rendering:geometricPrecision; text-rendering:geometricPrecision; image-rendering:optimizeQuality; fill-rule:evenodd; clip-rule:evenodd"
viewBox="0 0 1300 1056"
 xmlns:xlink="http://www.w3.org/1999/xlink">
 <defs>
  <style type="text/css">
   <![CDATA[
    .fil0 {fill:#FF9933;fill-opacity:0.501961}
   ]]>
  </style>
 </defs>
 <g id="_100:master">
  <metadata id="CorelCorpID_0Corel-Layer"/>
  <path class="fil0" d="M912 531c9,-93 -88,-190 -202,-258 -13,-8 -17,-24 -14,-33l15 -46 0 0c8,-23 7,-31 48,-49l284 -129c27,-12 6,76 -22,88l-249 113c45,31 81,62 110,91l0 0c14,13 26,27 38,43 7,9 14,18 19,27 58,86 106,191 206,191l0 81c-86,0 -138,-47 -182,-105 -49,120 -163,105 -280,105l0 0c-20,-1 -40,-20 -40,-41 0,-20 20,-40 40,-40l0 0c114,0 167,-8 194,-17 29,-10 33,-18 35,-21zm44 -563l-202 86c-15,7 -20,58 -5,52l205 -88c14,-7 16,-56 2,-50z"/>
 </g>
</svg>
