<?xml version="1.0" encoding="UTF-8"?>
<!DOCTYPE svg PUBLIC "-//W3C//DTD SVG 1.0//EN" "http://www.w3.org/TR/2001/REC-SVG-20010904/DTD/svg10.dtd">
<!-- Creator: CorelDRAW -->
<svg xmlns="http://www.w3.org/2000/svg" xml:space="preserve" width="1300px" height="1300px" version="1.0" style="shape-rendering:geometricPrecision; text-rendering:geometricPrecision; image-rendering:optimizeQuality; fill-rule:evenodd; clip-rule:evenodd"
viewBox="0 0 1300 1056"
 xmlns:xlink="http://www.w3.org/1999/xlink">
 <defs>
  <style type="text/css">
   <![CDATA[
    .fil1 {fill:#99CCCC}
    .fil2 {fill:red}
    .fil0 {fill:#FF6666}
   ]]>
  </style>
 </defs>
 <g id="_600:master">
  <metadata id="CorelCorpID_0Corel-Layer"/>
  <path class="fil0" d="M899 338c110,126 130,231 238,231l-1 81c-80,2 -128,-40 -170,-96 -23,63 -84,96 -154,96l-106 0 0 -81 89 0c73,0 105,-13 131,-33 -10,-57 -59,-142 -208,-276 -11,-9 -17,-23 -14,-33l13 -39 0 0c8,-23 7,-30 48,-49l300 -89c15,-4 14,10 5,40 -9,28 -12,44 -26,48l-262 80c47,44 86,84 117,120z"/>
 </g>
 <g id="_100:master">
  <metadata id="CorelCorpID_1Corel-Layer"/>
  <path class="fil1" d="M707 650l0 -81c-20,0 -40,19 -40,40 -1,21 20,41 40,41z"/>
  <path class="fil2" d="M760 78l215 -70c19,-6 47,-59 28,-53l-230 75c-10,3 -39,56 -13,48z"/>
 </g>
</svg>
