<?xml version="1.0" encoding="UTF-8"?>
<!DOCTYPE svg PUBLIC "-//W3C//DTD SVG 1.0//EN" "http://www.w3.org/TR/2001/REC-SVG-20010904/DTD/svg10.dtd">
<!-- Creator: CorelDRAW -->
<svg xmlns="http://www.w3.org/2000/svg" xml:space="preserve" width="1300px" height="1300px" version="1.0" style="shape-rendering:geometricPrecision; text-rendering:geometricPrecision; image-rendering:optimizeQuality; fill-rule:evenodd; clip-rule:evenodd"
viewBox="0 0 1300 1056"
 xmlns:xlink="http://www.w3.org/1999/xlink">
 <defs>
  <style type="text/css">
   <![CDATA[
    .fil0 {fill:#99CCCC}
   ]]>
  </style>
 </defs>
 <g id="_100:master">
  <metadata id="CorelCorpID_0Corel-Layer"/>
  <path class="fil0" d="M706 569l0 0 89 0c73,0 105,-13 131,-33l1 0c0,-76 -85,-177 -209,-271 -11,-9 -22,-22 -19,-32l20 -50c6,-19 8,-27 46,-44l300 -89c15,-4 14,10 5,40 -9,28 -12,44 -26,48l-258 79c149,122 204,227 186,313 -4,71 -82,120 -160,120l-106 0 0 0c-20,-1 -40,-20 -39,-41 0,-20 19,-39 39,-40zm54 -491c-26,8 3,-45 13,-48l230 -75c19,-6 -9,47 -28,53l-215 70z"/>
 </g>
</svg>
