<?xml version="1.0" encoding="UTF-8"?>
<!DOCTYPE svg PUBLIC "-//W3C//DTD SVG 1.0//EN" "http://www.w3.org/TR/2001/REC-SVG-20010904/DTD/svg10.dtd">
<!-- Creator: CorelDRAW -->
<svg xmlns="http://www.w3.org/2000/svg" xml:space="preserve" width="1300px" height="1300px" version="1.0" style="shape-rendering:geometricPrecision; text-rendering:geometricPrecision; image-rendering:optimizeQuality; fill-rule:evenodd; clip-rule:evenodd"
viewBox="0 0 1300 1056"
 xmlns:xlink="http://www.w3.org/1999/xlink">
 <defs>
  <style type="text/css">
   <![CDATA[
    .fil0 {fill:#CC9933;fill-opacity:0.749020}
   ]]>
  </style>
 </defs>
 <g id="_100:master">
  <metadata id="CorelCorpID_0Corel-Layer"/>
  <path class="fil0" d="M920 456c7,-4 20,0 21,8l5 45c1,6 1,16 -5,18l-264 123c-6,3 -18,-1 -19,-7l-6 -47c-1,-6 -1,-16 5,-18 24,-12 49,-23 73,-34 -116,-108 -35,-301 160,-236 11,2 12,8 10,17l-15 38c-1,4 0,15 -16,11 -108,-22 -180,57 -58,132 36,-17 73,-34 109,-50z"/>
 </g>
</svg>
