<?xml version="1.0" encoding="UTF-8"?>
<!DOCTYPE svg PUBLIC "-//W3C//DTD SVG 1.0//EN" "http://www.w3.org/TR/2001/REC-SVG-20010904/DTD/svg10.dtd">
<!-- Creator: CorelDRAW -->
<svg xmlns="http://www.w3.org/2000/svg" xml:space="preserve" width="1300px" height="1300px" version="1.0" style="shape-rendering:geometricPrecision; text-rendering:geometricPrecision; image-rendering:optimizeQuality; fill-rule:evenodd; clip-rule:evenodd"
viewBox="0 0 1300 1056"
 xmlns:xlink="http://www.w3.org/1999/xlink">
 <defs>
  <style type="text/css">
   <![CDATA[
    .fil0 {fill:#CC9933;fill-opacity:0.749020}
   ]]>
  </style>
 </defs>
 <g id="_100:master">
  <metadata id="CorelCorpID_0Corel-Layer"/>
  <path class="fil0" d="M920 472c7,-1 20,1 21,8l5 29c1,6 1,17 -5,18 -96,25 -177,58 -264,123 -6,4 -18,-1 -19,-7l-6 -47c-1,-6 0,-15 5,-18 21,-14 44,-27 68,-40 -110,-109 -38,-302 161,-218 11,4 11,8 9,16l-10 27c-4,7 -5,14 -16,11 -116,-27 -194,55 -66,129 43,-17 84,-28 117,-31z"/>
 </g>
</svg>
