<?xml version="1.0" encoding="UTF-8"?>
<!DOCTYPE svg PUBLIC "-//W3C//DTD SVG 1.0//EN" "http://www.w3.org/TR/2001/REC-SVG-20010904/DTD/svg10.dtd">
<!-- Creator: CorelDRAW -->
<svg xmlns="http://www.w3.org/2000/svg" xml:space="preserve" width="1300px" height="1300px" version="1.0" style="shape-rendering:geometricPrecision; text-rendering:geometricPrecision; image-rendering:optimizeQuality; fill-rule:evenodd; clip-rule:evenodd"
viewBox="0 0 1300 1056"
 xmlns:xlink="http://www.w3.org/1999/xlink">
 <defs>
  <style type="text/css">
   <![CDATA[
    .fil0 {fill:#999966}
   ]]>
  </style>
 </defs>
 <g id="_100:master">
  <metadata id="CorelCorpID_0Corel-Layer"/>
  <path class="fil0" d="M923 493c13,49 42,76 119,76l28 0 0 81 -28 0c-123,-4 -164,-62 -181,-141 -125,44 -203,141 -364,141l-74 0 0 0c-20,0 -40,-20 -40,-41 0,-20 20,-40 40,-40l0 0 1 0 0 0 54 0c137,0 219,-70 329,-118 -77,-33 -133,-78 -190,-77 -32,1 -57,19 -72,54 -3,9 -11,14 -21,10l-13 -6c-7,-3 -12,-9 -7,-22 30,-90 69,-119 130,-119 105,0 193,117 357,115l21 0c21,0 14,16 12,22l-14 47c-2,7 -10,12 -19,12l-9 0 0 0c-21,1 -41,3 -59,6z"/>
 </g>
</svg>
