<?xml version="1.0" encoding="UTF-8"?>
<!DOCTYPE svg PUBLIC "-//W3C//DTD SVG 1.0//EN" "http://www.w3.org/TR/2001/REC-SVG-20010904/DTD/svg10.dtd">
<!-- Creator: CorelDRAW -->
<svg xmlns="http://www.w3.org/2000/svg" xml:space="preserve" width="1300px" height="1300px" version="1.0" style="shape-rendering:geometricPrecision; text-rendering:geometricPrecision; image-rendering:optimizeQuality; fill-rule:evenodd; clip-rule:evenodd"
viewBox="0 0 1300 1056"
 xmlns:xlink="http://www.w3.org/1999/xlink">
 <defs>
  <style type="text/css">
   <![CDATA[
    .fil1 {fill:#663300;fill-opacity:0.501961}
    .fil0 {fill:#CC9933;fill-opacity:0.501961}
    .fil3 {fill:#FF9933;fill-opacity:0.501961}
    .fil2 {fill:#99CCCC}
   ]]>
  </style>
 </defs>
 <g id="_100:master" visibility="hidden">
  <metadata id="CorelCorpID_0Corel-Layer"/>
  <path class="fil0" d="M645 871l32 -50c4,-7 3,-7 -6,-11 -128,-58 -205,-135 -205,-214 0,-61 35,-178 76,-214l7 -99c-66,26 -139,185 -122,343 12,109 103,210 201,252 8,2 15,-3 17,-7z"/>
  <path class="fil1" d="M549 283l-7 99c36,19 57,99 56,108 0,42 -121,79 -238,79l0 81c119,0 258,-35 280,-174 10,-79 -55,-189 -91,-193z"/>
  <path class="fil2" d="M362 569c-20,0 -40,19 -41,40 0,21 21,41 41,41l0 -81z"/>
  <path class="fil3" d="M658 849l19 -36c-110,-32 -79,-163 8,-163l80 0 0 -81 -78 0c-146,0 -190,226 -29,280z"/>
 </g>
 <g id="Layer_x0020_1" visibility="hidden">
  <metadata id="CorelCorpID_1Corel-Layer"/>
  <path class="fil1" d="M538 274l-36 57c61,69 86,143 80,176 -6,40 -105,62 -222,62l0 81c111,0 241,-41 264,-143 19,-87 -28,-186 -68,-233 -4,-4 -11,-12 -18,0z"/>
  <path class="fil2" d="M362 569c-20,0 -40,19 -41,40 0,21 21,41 41,41l0 -81z"/>
  <path class="fil3" d="M666 835l19 -35c-68,-20 -113,-150 0,-150l80 0 0 -81 -82 0c-132,0 -163,211 -17,266z"/>
  <path class="fil0" d="M563 345l-38 -50c-166,247 -151,452 120,575 8,2 15,-3 17,-7l31 -50c5,-7 3,-7 -5,-11 -264,-127 -281,-210 -125,-457z"/>
 </g>
 <g id="Layer_x0020_2">
  <metadata id="CorelCorpID_2Corel-Layer"/>
  <path class="fil1" d="M431 640c17,88 191,153 199,91 2,-9 -7,-59 -83,-83 -19,-7 -53,-12 -85,-17 -10,4 -21,7 -31,9zm92 -282c-36,56 -67,125 -80,205 110,-17 142,-65 145,-76 2,-11 -26,-71 -65,-129zm-15 -109c5,-7 21,-12 30,0l6 9c31,42 106,133 91,229 -5,31 -25,58 -53,82l150 0 0 81 -62 0c13,31 14,66 8,98 -25,162 -270,78 -278,-102l-3 1 0 0c-13,2 -26,3 -37,3l-35 0 0 0c-20,-1 -40,-20 -39,-41 0,-20 19,-39 39,-40l0 0c23,0 45,0 68,-1 4,-108 44,-207 83,-271l0 0 0 0c6,-10 12,-19 18,-27l14 -21z"/>
 </g>
</svg>
