<?xml version="1.0" encoding="UTF-8"?>
<!DOCTYPE svg PUBLIC "-//W3C//DTD SVG 1.0//EN" "http://www.w3.org/TR/2001/REC-SVG-20010904/DTD/svg10.dtd">
<!-- Creator: CorelDRAW -->
<svg xmlns="http://www.w3.org/2000/svg" xml:space="preserve" width="1300px" height="1300px" version="1.0" style="shape-rendering:geometricPrecision; text-rendering:geometricPrecision; image-rendering:optimizeQuality; fill-rule:evenodd; clip-rule:evenodd"
viewBox="0 0 1300 1056"
 xmlns:xlink="http://www.w3.org/1999/xlink">
 <defs>
  <style type="text/css">
   <![CDATA[
    .fil0 {fill:fuchsia;fill-opacity:0.501961}
   ]]>
  </style>
 </defs>
 <g id="_100:master">
  <metadata id="CorelCorpID_0Corel-Layer"/>
  <path class="fil0" d="M837 371c-82,102 -140,198 -17,198 61,0 97,-35 105,-59 11,-33 -46,-100 -88,-139zm-13 279c-170,0 -157,-157 -30,-316l-13 -11 -18 -16c-4,-3 -5,-10 -2,-15l29 -51c2,-3 7,-9 13,-4l13 11c155,132 159,202 159,255 0,82 -80,147 -151,147z"/>
 </g>
</svg>
