<?xml version="1.0" encoding="UTF-8"?>
<!DOCTYPE svg PUBLIC "-//W3C//DTD SVG 1.0//EN" "http://www.w3.org/TR/2001/REC-SVG-20010904/DTD/svg10.dtd">
<!-- Creator: CorelDRAW -->
<svg xmlns="http://www.w3.org/2000/svg" xml:space="preserve" width="1300px" height="1300px" version="1.0" style="shape-rendering:geometricPrecision; text-rendering:geometricPrecision; image-rendering:optimizeQuality; fill-rule:evenodd; clip-rule:evenodd"
viewBox="0 0 1300 1056"
 xmlns:xlink="http://www.w3.org/1999/xlink">
 <defs>
  <style type="text/css">
   <![CDATA[
    .fil2 {fill:black;fill-opacity:0.501961}
    .fil0 {fill:#666633;fill-opacity:0.501961}
    .fil1 {fill:#FF6633;fill-opacity:0.501961}
   ]]>
  </style>
 </defs>
 <g id="Layer_x0020_2" visibility="hidden">
  <metadata id="CorelCorpID_0Corel-Layer"/>
  <path class="fil0" d="M603 734c39,-148 253,-251 388,-247l17 -81c-238,1 -457,163 -485,342 -35,214 224,276 417,222l34 -81c-194,37 -413,5 -371,-155z"/>
 </g>
 <g id="Layer_x0020_4" visibility="hidden">
  <metadata id="CorelCorpID_1Corel-Layer"/>
  <path class="fil1" d="M968 471l14 -81c-271,0 -440,159 -465,324 -29,198 112,290 416,252 17,-1 19,-7 21,-16l10 -52c3,-13 1,-14 -10,-13 -307,42 -409,-74 -387,-175 27,-120 207,-239 401,-239z"/>
  <path class="fil2" d="M991 471c9,0 17,-3 19,-10l17 -56c3,-12 -4,-15 -14,-15 -155,-2 -293,-90 -388,-90 -74,0 -97,49 -119,99l-10 22c-3,7 -2,19 5,22l19 8c6,2 15,1 18,-5l12 -21c22,-38 35,-43 68,-43 96,1 239,89 373,89z"/>
 </g>
 <g id="Layer_x0020_5">
  <metadata id="CorelCorpID_2Corel-Layer"/>
  <path class="fil2" d="M991 479c-5,0 -10,0 -14,0 -213,7 -368,148 -369,264 0,104 127,187 416,134l-16 82c-196,37 -455,25 -454,-197 0,-120 81,-265 253,-330 -50,-21 -95,-41 -140,-41 -33,-1 -47,4 -68,43l-12 20c-3,6 -12,8 -18,5l-19 -8c-7,-2 -8,-15 -5,-22l10 -22c22,-50 53,-99 127,-99 95,0 176,89 331,90 10,0 17,3 14,15l-17 56c-2,7 -10,10 -19,10z"/>
 </g>
</svg>
