<?xml version="1.0" encoding="UTF-8"?>
<!DOCTYPE svg PUBLIC "-//W3C//DTD SVG 1.0//EN" "http://www.w3.org/TR/2001/REC-SVG-20010904/DTD/svg10.dtd">
<!-- Creator: CorelDRAW -->
<svg xmlns="http://www.w3.org/2000/svg" xml:space="preserve" width="1300px" height="1300px" version="1.0" style="shape-rendering:geometricPrecision; text-rendering:geometricPrecision; image-rendering:optimizeQuality; fill-rule:evenodd; clip-rule:evenodd"
viewBox="0 0 1300 1056"
 xmlns:xlink="http://www.w3.org/1999/xlink">
 <defs>
  <style type="text/css">
   <![CDATA[
    .fil1 {fill:#663300;fill-opacity:0.501961}
    .fil0 {fill:#CC9933;fill-opacity:0.501961}
    .fil3 {fill:#FF9933;fill-opacity:0.501961}
    .fil2 {fill:#99CCCC}
   ]]>
  </style>
 </defs>
 <g id="_100:master" visibility="hidden">
  <metadata id="CorelCorpID_0Corel-Layer"/>
  <path class="fil0" d="M645 871l32 -50c4,-7 3,-7 -6,-11 -128,-58 -205,-135 -205,-214 0,-61 35,-178 76,-214l7 -99c-66,26 -139,185 -122,343 12,109 103,210 201,252 8,2 15,-3 17,-7z"/>
  <path class="fil1" d="M549 283l-7 99c36,19 57,99 56,108 0,42 -121,79 -238,79l0 81c119,0 258,-35 280,-174 10,-79 -55,-189 -91,-193z"/>
  <path class="fil2" d="M362 569c-20,0 -40,19 -41,40 0,21 21,41 41,41l0 -81z"/>
  <path class="fil3" d="M658 849l19 -36c-110,-32 -79,-163 8,-163l80 0 0 -81 -78 0c-146,0 -190,226 -29,280z"/>
 </g>
 <g id="Layer_x0020_1" visibility="hidden">
  <metadata id="CorelCorpID_1Corel-Layer"/>
  <path class="fil1" d="M538 274l-36 57c61,69 86,143 80,176 -6,40 -105,62 -222,62l0 81c111,0 241,-41 264,-143 19,-87 -28,-186 -68,-233 -4,-4 -11,-12 -18,0z"/>
  <path class="fil2" d="M362 569c-20,0 -40,19 -41,40 0,21 21,41 41,41l0 -81z"/>
  <path class="fil3" d="M666 835l19 -35c-68,-20 -113,-150 0,-150l80 0 0 -81 -82 0c-132,0 -163,211 -17,266z"/>
  <path class="fil0" d="M563 345l-38 -50c-166,247 -151,452 120,575 8,2 15,-3 17,-7l31 -50c5,-7 3,-7 -5,-11 -264,-127 -281,-210 -125,-457z"/>
 </g>
 <g id="Layer_x0020_2">
  <metadata id="CorelCorpID_2Corel-Layer"/>
  <path class="fil2" d="M564 377c-54,43 -94,113 -116,178 79,-14 158,-40 153,-84 -1,-11 -10,-55 -37,-94zm63 346c7,-41 -93,-79 -151,-89 -2,0 -8,-1 -13,-2 13,78 127,127 164,91zm-317 -154c20,0 59,-3 101,-8 11,-112 76,-201 130,-255 35,-36 41,-31 63,8 29,63 47,97 46,144 -1,47 -23,83 -56,111l154 0 0 81 -86 0c20,32 22,70 4,114 -44,87 -231,70 -254,-122 -37,6 -73,8 -102,8 -20,0 -41,-20 -41,-41 1,-21 21,-40 41,-40z"/>
 </g>
</svg>
