<?xml version="1.0" encoding="UTF-8"?>
<!DOCTYPE svg PUBLIC "-//W3C//DTD SVG 1.0//EN" "http://www.w3.org/TR/2001/REC-SVG-20010904/DTD/svg10.dtd">
<!-- Creator: CorelDRAW -->
<svg xmlns="http://www.w3.org/2000/svg" xml:space="preserve" width="1300px" height="1300px" version="1.0" style="shape-rendering:geometricPrecision; text-rendering:geometricPrecision; image-rendering:optimizeQuality; fill-rule:evenodd; clip-rule:evenodd"
viewBox="0 0 1300 1056"
 xmlns:xlink="http://www.w3.org/1999/xlink">
 <defs>
  <style type="text/css">
   <![CDATA[
    .fil0 {fill:#990000}
   ]]>
  </style>
 </defs>
 <g id="_100:master">
  <metadata id="CorelCorpID_0Corel-Layer"/>
  <path class="fil0" d="M1072 650l-26 0c-113,0 -162,-57 -177,-132 -85,50 -164,132 -307,132l-82 0 0 0c-20,0 -40,-20 -40,-41 0,-20 20,-40 40,-40l0 0 1 0 0 0 62 0c155,0 232,-69 313,-119 -128,-48 -243,-129 -286,-21 -4,8 -12,13 -22,9l-13 -6c-7,-3 -11,-9 -7,-22 90,-253 285,-9 484,-9 21,0 14,16 12,22l-14 46c-2,7 -10,10 -19,10l0 0c-26,0 -49,5 -72,14 25,64 76,76 153,76l0 81z"/>
 </g>
</svg>
