<?xml version="1.0" encoding="UTF-8"?>
<!DOCTYPE svg PUBLIC "-//W3C//DTD SVG 1.0//EN" "http://www.w3.org/TR/2001/REC-SVG-20010904/DTD/svg10.dtd">
<!-- Creator: CorelDRAW -->
<svg xmlns="http://www.w3.org/2000/svg" xml:space="preserve" width="1300px" height="1300px" version="1.0" style="shape-rendering:geometricPrecision; text-rendering:geometricPrecision; image-rendering:optimizeQuality; fill-rule:evenodd; clip-rule:evenodd"
viewBox="0 0 1300 1056"
 xmlns:xlink="http://www.w3.org/1999/xlink">
 <defs>
  <style type="text/css">
   <![CDATA[
    .fil0 {fill:#CC9933;fill-opacity:0.501961}
   ]]>
  </style>
 </defs>
 <g id="_100:master">
  <metadata id="CorelCorpID_0Corel-Layer"/>
  <path class="fil0" d="M469 558c73,-13 129,-40 129,-68 1,-9 -20,-89 -56,-108 -34,29 -63,114 -73,176zm176 313c-2,4 -9,9 -17,7 -92,-40 -178,-131 -198,-232 -23,3 -46,4 -68,4l0 0 -2 0 0 0c-20,-1 -39,-20 -39,-41 1,-20 19,-39 39,-40l0 0c22,0 44,-2 65,-4 4,-136 67,-259 124,-282 36,4 101,114 91,193 -15,96 -86,142 -167,162 13,37 43,74 87,107 -19,-81 32,-176 127,-176l78 0 0 81 -80 0c-75,0 -108,97 -46,144 10,6 21,11 32,16 9,4 10,4 6,11l-32 50z"/>
 </g>
</svg>
