<?xml version="1.0" encoding="UTF-8"?>
<!DOCTYPE svg PUBLIC "-//W3C//DTD SVG 1.0//EN" "http://www.w3.org/TR/2001/REC-SVG-20010904/DTD/svg10.dtd">
<!-- Creator: CorelDRAW -->
<svg xmlns="http://www.w3.org/2000/svg" xml:space="preserve" width="1300px" height="1300px" version="1.0" style="shape-rendering:geometricPrecision; text-rendering:geometricPrecision; image-rendering:optimizeQuality; fill-rule:evenodd; clip-rule:evenodd"
viewBox="0 0 1300 1056"
 xmlns:xlink="http://www.w3.org/1999/xlink">
 <defs>
  <style type="text/css">
   <![CDATA[
    .fil1 {fill:#9900CC;fill-opacity:0.501961}
    .fil0 {fill:fuchsia;fill-opacity:0.501961}
   ]]>
  </style>
 </defs>
 <g id="_100:master" visibility="hidden">
  <metadata id="CorelCorpID_0Corel-Layer"/>
  <path class="fil0" d="M820 569l4 81c117,0 149,-98 149,-180 0,-52 -2,-90 -157,-222l-13 -11c-6,-5 -11,1 -13,4l-29 51c-3,5 -2,12 2,15l18 16 43 37c42,35 113,113 101,150 -8,24 -44,59 -105,59z"/>
  <path class="fil0" d="M824 650l-4 -81c-128,0 -60,-103 26,-209l-44 -37c-135,163 -152,327 22,327z"/>
 </g>
 <g id="Layer_x0020_1">
  <metadata id="CorelCorpID_1Corel-Layer"/>
  <path class="fil1" d="M801 650c-66,1 -128,-43 -124,-124 3,-47 17,-105 71,-184l-9 -8c-13,-10 -6,-21 -1,-29l21 -36c7,-11 18,-9 24,-3 86,67 177,111 174,236 -1,78 -48,148 -145,148l-11 0zm-5 -270c-56,74 -129,189 6,189 178,0 109,-97 27,-163l-33 -26z"/>
 </g>
</svg>
