<?xml version="1.0" encoding="UTF-8"?>
<!DOCTYPE svg PUBLIC "-//W3C//DTD SVG 1.0//EN" "http://www.w3.org/TR/2001/REC-SVG-20010904/DTD/svg10.dtd">
<!-- Creator: CorelDRAW -->
<svg xmlns="http://www.w3.org/2000/svg" xml:space="preserve" width="1300px" height="1300px" version="1.0" style="shape-rendering:geometricPrecision; text-rendering:geometricPrecision; image-rendering:optimizeQuality; fill-rule:evenodd; clip-rule:evenodd"
viewBox="0 0 1300 1056"
 xmlns:xlink="http://www.w3.org/1999/xlink">
 <defs>
  <style type="text/css">
   <![CDATA[
    .fil2 {fill:black;fill-opacity:0.501961}
    .fil0 {fill:#666633;fill-opacity:0.501961}
    .fil1 {fill:#FF6633;fill-opacity:0.501961}
    .fil3 {fill:#FF9933;fill-opacity:0.501961}
   ]]>
  </style>
 </defs>
 <g id="Layer_x0020_2" visibility="hidden">
  <metadata id="CorelCorpID_0Corel-Layer"/>
  <path class="fil0" d="M603 734c39,-148 253,-251 388,-247l17 -81c-238,1 -457,163 -485,342 -35,214 224,276 417,222l34 -81c-194,37 -413,5 -371,-155z"/>
 </g>
 <g id="Layer_x0020_4" visibility="hidden">
  <metadata id="CorelCorpID_1Corel-Layer"/>
  <path class="fil1" d="M968 471l14 -81c-271,0 -440,159 -465,324 -29,198 112,290 416,252 17,-1 19,-7 21,-16l10 -52c3,-13 1,-14 -10,-13 -307,42 -409,-74 -387,-175 27,-120 207,-239 401,-239z"/>
  <path class="fil2" d="M991 471c9,0 17,-3 19,-10l17 -56c3,-12 -4,-15 -14,-15 -155,-2 -293,-90 -388,-90 -74,0 -97,49 -119,99l-10 22c-3,7 -2,19 5,22l19 8c6,2 15,1 18,-5l12 -21c22,-38 35,-43 68,-43 96,1 239,89 373,89z"/>
 </g>
 <g id="Layer_x0020_5" visibility="hidden">
  <metadata id="CorelCorpID_2Corel-Layer"/>
  <path class="fil3" d="M967 959l16 -82c-274,54 -398,-32 -398,-130 0,-114 168,-239 390,-252l19 -78c-279,-4 -457,175 -457,339 0,109 80,268 430,203z"/>
  <path class="fil2" d="M991 496c9,0 17,-3 19,-10l14 -47c2,-6 9,-22 -12,-22 -199,0 -394,-260 -484,-7 -4,13 0,19 7,22l13 6c10,4 18,-1 22,-9 58,-145 244,67 421,67z"/>
 </g>
 <g id="Layer_x0020_6" visibility="hidden">
  <metadata id="CorelCorpID_3Corel-Layer"/>
  <path class="fil3" d="M971 933l10 -53c2,-11 -10,-10 -17,-9 -260,46 -379,-38 -379,-134 0,-113 168,-238 390,-252l19 -78c-279,-3 -457,175 -457,339 0,107 77,263 409,207 14,-3 22,-5 25,-20z"/>
  <path class="fil2" d="M991 487c14,0 17,-3 19,-12l14 -47c2,-6 9,-22 -4,-22l-12 0c-127,0 -235,-96 -331,-96 -51,0 -83,19 -128,103 -8,14 -13,23 -3,30l15 12c9,7 17,-1 22,-9 28,-46 46,-53 85,-52 89,2 201,94 310,94l13 -1z"/>
 </g>
 <g id="Layer_x0020_7" visibility="hidden">
  <metadata id="CorelCorpID_4Corel-Layer"/>
  <path class="fil2" d="M991 471c14,0 17,-3 19,-13l14 -46c2,-6 9,-22 -4,-22l-12 0c-127,0 -261,-80 -358,-81 -54,-1 -91,86 -106,112 -7,14 -6,21 2,25l10 6c8,4 13,0 20,-13 22,-40 41,-49 67,-49 88,-1 226,81 335,81l13 0z"/>
  <path class="fil3" d="M971 933l10 -53c2,-11 -10,-10 -17,-9 -260,46 -379,-38 -379,-134 0,-113 168,-255 390,-268l19 -78c-279,-4 -457,191 -457,355 0,107 77,263 409,207 14,-3 22,-5 25,-20z"/>
 </g>
 <g id="Layer_x0020_8">
  <metadata id="CorelCorpID_5Corel-Layer"/>
  <path class="fil3" d="M979 891c-71,62 -198,92 -307,50 -104,-41 -135,-128 -135,-195 0,-121 98,-260 262,-322 -65,-25 -127,-51 -172,-51 -26,1 -46,10 -67,50 -7,13 -12,17 -20,12l-14 -8c-7,-4 -7,-10 -1,-24 12,-29 44,-111 109,-111 97,0 233,98 374,98l12 0c13,0 6,16 4,22l-14 46c-2,10 -5,13 -19,13l-13 0c-7,0 -13,0 -20,-1 -214,20 -373,157 -373,267 0,96 119,180 379,134 7,-1 19,-6 17,5l-2 15z"/>
 </g>
</svg>
