<?xml version="1.0" encoding="UTF-8"?>
<!DOCTYPE svg PUBLIC "-//W3C//DTD SVG 1.0//EN" "http://www.w3.org/TR/2001/REC-SVG-20010904/DTD/svg10.dtd">
<!-- Creator: CorelDRAW -->
<svg xmlns="http://www.w3.org/2000/svg" xml:space="preserve" width="1300px" height="1300px" version="1.0" style="shape-rendering:geometricPrecision; text-rendering:geometricPrecision; image-rendering:optimizeQuality; fill-rule:evenodd; clip-rule:evenodd"
viewBox="0 0 1300 1056"
 xmlns:xlink="http://www.w3.org/1999/xlink">
 <defs>
  <style type="text/css">
   <![CDATA[
    .fil1 {fill:#996633;fill-opacity:0.501961}
    .fil0 {fill:#FF9933;fill-opacity:0.501961}
   ]]>
  </style>
 </defs>
 <g id="_100:master" visibility="hidden">
  <metadata id="CorelCorpID_0Corel-Layer"/>
  <path class="fil0" d="M832 481l36 73c-43,20 -114,40 -169,38 -51,-2 -66,-40 -71,-71 -14,-80 63,-180 207,-232l-4 65c-35,6 -144,75 -150,129 -2,39 49,45 151,-2z"/>
  <path class="fil1" d="M1018 650l0 -81c-125,0 -118,-38 -131,-110l-44 -246c0,-4 -9,-7 -12,-5l-44 33c-5,4 -8,12 -7,18l45 240c10,52 13,151 193,151z"/>
 </g>
 <g id="Layer_x0020_1">
  <metadata id="CorelCorpID_1Corel-Layer"/>
  <path class="fil1" d="M886 385c-53,23 -114,65 -125,91 24,20 86,26 139,-4l-14 -87zm197 265l-19 0c-102,0 -135,-48 -152,-113 -63,32 -141,30 -169,-2 -14,-16 -17,-36 -17,-57 1,-56 88,-114 151,-146l-5 -37c-1,-5 3,-13 7,-17l36 -29c7,-6 14,-2 15,7l31 197c9,56 10,116 103,116l19 0 0 81z"/>
 </g>
</svg>
