<?xml version="1.0" encoding="UTF-8"?>
<!DOCTYPE svg PUBLIC "-//W3C//DTD SVG 1.0//EN" "http://www.w3.org/TR/2001/REC-SVG-20010904/DTD/svg10.dtd">
<!-- Creator: CorelDRAW -->
<svg xmlns="http://www.w3.org/2000/svg" xml:space="preserve" width="1300px" height="1300px" version="1.0" style="shape-rendering:geometricPrecision; text-rendering:geometricPrecision; image-rendering:optimizeQuality; fill-rule:evenodd; clip-rule:evenodd"
viewBox="0 0 1300 1056"
 xmlns:xlink="http://www.w3.org/1999/xlink">
 <defs>
  <style type="text/css">
   <![CDATA[
    .fil0 {fill:black;fill-opacity:0.501961}
    .fil2 {fill:#999966;fill-opacity:0.650980}
    .fil1 {fill:#99CCCC}
   ]]>
  </style>
 </defs>
 <g id="_100:master" visibility="hidden">
  <metadata id="CorelCorpID_0Corel-Layer"/>
  <path class="fil0" d="M1072 569l1 81 -39 0c-122,-5 -166,-45 -178,-147l-5 -44c-1,-15 -1,-21 9,-25l18 -7c13,-5 14,6 16,19l3 25c9,68 44,98 120,98l55 0z"/>
  <path class="fil1" d="M473 569c-21,0 -41,19 -41,40 0,21 20,41 41,41l0 -81z"/>
  <path class="fil2" d="M993 471l27 -81c-258,0 -198,179 -473,179l-75 0 0 81 49 0c316,0 254,-178 472,-179z"/>
  <path class="fil0" d="M991 471c14,0 17,-3 19,-13l14 -46c2,-6 9,-22 -4,-22l-12 0c-127,0 -235,-80 -331,-80 -51,0 -83,19 -128,103 -8,14 -13,23 -3,30l15 12c9,7 17,-1 22,-9 28,-46 46,-53 85,-52 89,2 201,77 310,77l13 0z"/>
 </g>
 <g id="Layer_x0020_1" visibility="hidden">
  <metadata id="CorelCorpID_1Corel-Layer"/>
  <path class="fil2" d="M993 471l27 -81c-208,0 -214,179 -489,179l-67 0 0 81 66 0c262,0 299,-179 463,-179z"/>
  <path class="fil0" d="M991 471c14,0 17,-3 19,-13l14 -46c2,-6 9,-22 -4,-22l-12 0c-127,0 -261,-80 -358,-81 -54,-1 -91,86 -106,112 -7,14 -6,21 2,25l10 6c8,4 13,0 20,-13 22,-40 41,-49 67,-49 88,-1 226,81 335,81l13 0z"/>
  <path class="fil1" d="M464 569c-20,0 -40,19 -40,40 -1,21 20,41 40,41l0 -81z"/>
  <path class="fil0" d="M886 512c18,119 91,138 204,138l11 0 0 -81 -16 0c-82,0 -140,-17 -149,-67l-16 -85c-2,-8 -5,-12 -14,-15l-23 -7c-12,-3 -14,5 -13,11l16 106z"/>
 </g>
 <g id="Layer_x0020_2">
  <metadata id="CorelCorpID_2Corel-Layer"/>
  <path class="fil0" d="M886 512l-2 -11c-86,51 -133,149 -331,149l-89 0 0 0c-20,0 -41,-20 -40,-41 0,-21 20,-40 40,-40l0 0 0 0 0 0 88 0c176,0 227,-73 299,-126 -82,-29 -167,-70 -224,-70 -26,1 -46,10 -67,50 -7,13 -12,17 -20,12l-14 -8c-7,-4 -7,-10 -1,-24 12,-29 44,-111 109,-111 97,0 233,98 374,98l12 0c13,0 6,16 4,22l-14 46c-2,9 -5,13 -17,13l0 0c-23,1 -43,4 -61,9l4 22c9,50 67,67 149,67l16 0 0 81 -11 0c-113,0 -186,-19 -204,-138z"/>
 </g>
</svg>
