<?xml version="1.0" encoding="UTF-8"?>
<!DOCTYPE svg PUBLIC "-//W3C//DTD SVG 1.0//EN" "http://www.w3.org/TR/2001/REC-SVG-20010904/DTD/svg10.dtd">
<!-- Creator: CorelDRAW -->
<svg xmlns="http://www.w3.org/2000/svg" xml:space="preserve" width="1300px" height="1300px" version="1.0" style="shape-rendering:geometricPrecision; text-rendering:geometricPrecision; image-rendering:optimizeQuality; fill-rule:evenodd; clip-rule:evenodd"
viewBox="0 0 1300 1056"
 xmlns:xlink="http://www.w3.org/1999/xlink">
 <defs>
  <style type="text/css">
   <![CDATA[
    .fil0 {fill:#996633;fill-opacity:0.501961}
   ]]>
  </style>
 </defs>
 <g id="_100:master">
  <metadata id="CorelCorpID_0Corel-Layer"/>
  <path class="fil0" d="M811 370c-35,28 -98,81 -94,107 5,29 64,29 108,22l-14 -129zm196 280c-92,0 -140,-27 -164,-79 -103,26 -173,3 -173,-78 0,-58 65,-109 136,-168l-3 -24c-1,-6 2,-13 6,-17l44 -37c3,-3 12,0 12,5l27 235c5,48 18,82 115,82l0 81z"/>
 </g>
</svg>
