<?xml version="1.0" encoding="UTF-8"?>
<!DOCTYPE svg PUBLIC "-//W3C//DTD SVG 1.0//EN" "http://www.w3.org/TR/2001/REC-SVG-20010904/DTD/svg10.dtd">
<!-- Creator: CorelDRAW -->
<svg xmlns="http://www.w3.org/2000/svg" xml:space="preserve" width="1300px" height="1300px" version="1.0" style="shape-rendering:geometricPrecision; text-rendering:geometricPrecision; image-rendering:optimizeQuality; fill-rule:evenodd; clip-rule:evenodd"
viewBox="0 0 1300 1056"
 xmlns:xlink="http://www.w3.org/1999/xlink">
 <defs>
  <style type="text/css">
   <![CDATA[
    .fil0 {fill:black;fill-opacity:0.501961}
    .fil2 {fill:#999966;fill-opacity:0.650980}
    .fil1 {fill:#99CCCC}
   ]]>
  </style>
 </defs>
 <g id="_100:master" visibility="hidden">
  <metadata id="CorelCorpID_0Corel-Layer"/>
  <path class="fil0" d="M1072 569l1 81 -39 0c-122,-5 -166,-45 -178,-147l-5 -44c-1,-15 -1,-21 9,-25l18 -7c13,-5 14,6 16,19l3 25c9,68 44,98 120,98l55 0z"/>
  <path class="fil1" d="M473 569c-21,0 -41,19 -41,40 0,21 20,41 41,41l0 -81z"/>
  <path class="fil2" d="M993 471l27 -81c-258,0 -198,179 -473,179l-75 0 0 81 49 0c316,0 254,-178 472,-179z"/>
  <path class="fil0" d="M991 471c14,0 17,-3 19,-13l14 -46c2,-6 9,-22 -4,-22l-12 0c-127,0 -235,-80 -331,-80 -51,0 -83,19 -128,103 -8,14 -13,23 -3,30l15 12c9,7 17,-1 22,-9 28,-46 46,-53 85,-52 89,2 201,77 310,77l13 0z"/>
 </g>
 <g id="Layer_x0020_1">
  <metadata id="CorelCorpID_1Corel-Layer"/>
  <path class="fil2" d="M993 471c-23,0 -43,4 -61,10l4 21c9,50 67,67 149,67l16 0 0 81 -11 0c-113,0 -186,-19 -204,-138l-1 -6c-75,52 -126,144 -315,144l-66 0 0 0c-20,0 -40,-20 -40,-41 1,-20 20,-40 40,-40l0 0 1 0 0 0 67 0c169,0 221,-68 285,-121 -78,-24 -156,-59 -214,-58 -26,0 -45,9 -67,49 -7,13 -12,17 -20,13l-10 -6c-8,-4 -9,-11 -2,-25 15,-26 52,-113 106,-112 97,1 231,81 358,81l12 0c13,0 6,16 4,22l-14 46c-2,9 -5,13 -17,13l0 0z"/>
 </g>
</svg>
