<?xml version="1.0" encoding="UTF-8"?>
<!DOCTYPE svg PUBLIC "-//W3C//DTD SVG 1.0//EN" "http://www.w3.org/TR/2001/REC-SVG-20010904/DTD/svg10.dtd">
<!-- Creator: CorelDRAW -->
<svg xmlns="http://www.w3.org/2000/svg" xml:space="preserve" width="1300px" height="1300px" version="1.0" style="shape-rendering:geometricPrecision; text-rendering:geometricPrecision; image-rendering:optimizeQuality; fill-rule:evenodd; clip-rule:evenodd"
viewBox="0 0 1300 1056"
 xmlns:xlink="http://www.w3.org/1999/xlink">
 <defs>
  <style type="text/css">
   <![CDATA[
    .fil1 {fill:#663300;fill-opacity:0.501961}
    .fil0 {fill:#CC9933;fill-opacity:0.501961}
    .fil3 {fill:#FF9933;fill-opacity:0.501961}
    .fil2 {fill:#99CCCC}
   ]]>
  </style>
 </defs>
 <g id="_100:master" visibility="hidden">
  <metadata id="CorelCorpID_0Corel-Layer"/>
  <path class="fil0" d="M645 871l32 -50c4,-7 3,-7 -6,-11 -128,-58 -205,-135 -205,-214 0,-61 35,-178 76,-214l7 -99c-66,26 -139,185 -122,343 12,109 103,210 201,252 8,2 15,-3 17,-7z"/>
  <path class="fil1" d="M549 283l-7 99c36,19 57,99 56,108 0,42 -121,79 -238,79l0 81c119,0 258,-35 280,-174 10,-79 -55,-189 -91,-193z"/>
  <path class="fil2" d="M362 569c-20,0 -40,19 -41,40 0,21 21,41 41,41l0 -81z"/>
  <path class="fil3" d="M658 849l19 -36c-110,-32 -79,-163 8,-163l80 0 0 -81 -78 0c-146,0 -190,226 -29,280z"/>
 </g>
 <g id="Layer_x0020_1">
  <metadata id="CorelCorpID_1Corel-Layer"/>
  <path class="fil0" d="M522 299l0 0m-49 258c69,-14 121,-39 125,-67 5,-25 -17,-71 -57,-123 -42,68 -69,131 -68,190zm189 306c-2,4 -9,9 -17,7 -124,-69 -183,-148 -205,-226 -27,4 -53,6 -78,6l0 0 -2 0 0 0c-20,-1 -39,-20 -39,-41 1,-20 19,-39 39,-40l0 0c23,0 46,-2 68,-4 -1,-106 52,-203 94,-266l16 -25c7,-12 14,-4 18,0 40,47 93,130 84,202 -14,88 -78,134 -151,156 15,34 41,67 82,99 -21,-76 17,-162 95,-162l99 0 0 81 -80 0c-101,0 -85,98 -23,139 8,4 17,8 26,13 8,4 10,4 5,11l-31 50z"/>
 </g>
</svg>
