<?xml version="1.0" encoding="UTF-8"?>
<!DOCTYPE svg PUBLIC "-//W3C//DTD SVG 1.0//EN" "http://www.w3.org/TR/2001/REC-SVG-20010904/DTD/svg10.dtd">
<!-- Creator: CorelDRAW -->
<svg xmlns="http://www.w3.org/2000/svg" xml:space="preserve" width="1300px" height="1300px" version="1.0" style="shape-rendering:geometricPrecision; text-rendering:geometricPrecision; image-rendering:optimizeQuality; fill-rule:evenodd; clip-rule:evenodd"
viewBox="0 0 1300 1056"
 xmlns:xlink="http://www.w3.org/1999/xlink">
 <defs>
  <style type="text/css">
   <![CDATA[
    .fil0 {fill:#99CCCC}
   ]]>
  </style>
 </defs>
 <g id="_100:master">
  <metadata id="CorelCorpID_0Corel-Layer"/>
  <path class="fil0" d="M481 569l0 0 13 0c167,0 231,-71 337,-116 -118,-53 -220,-125 -261,-24 -4,8 -12,13 -22,9l-13 -6c-7,-3 -11,-9 -7,-22 90,-253 285,7 484,7 21,0 14,16 12,22l-14 47c-2,7 -10,10 -19,10l0 0c-24,0 -45,2 -66,5 15,44 44,68 117,68l44 0 0 81 -44 0c-119,-4 -161,-58 -180,-133 -120,42 -191,133 -348,133l-34 0 0 0c-20,0 -40,-20 -40,-41 0,-20 20,-40 40,-40l0 0 1 0z"/>
 </g>
</svg>
