<?xml version="1.0" encoding="UTF-8"?>
<!DOCTYPE svg PUBLIC "-//W3C//DTD SVG 1.0//EN" "http://www.w3.org/TR/2001/REC-SVG-20010904/DTD/svg10.dtd">
<!-- Creator: CorelDRAW -->
<svg xmlns="http://www.w3.org/2000/svg" xml:space="preserve" width="1300px" height="1300px" version="1.0" style="shape-rendering:geometricPrecision; text-rendering:geometricPrecision; image-rendering:optimizeQuality; fill-rule:evenodd; clip-rule:evenodd"
viewBox="0 0 1300 1056"
 xmlns:xlink="http://www.w3.org/1999/xlink">
 <defs>
  <style type="text/css">
   <![CDATA[
    .fil0 {fill:#CC9933;fill-opacity:0.501961}
   ]]>
  </style>
 </defs>
 <g id="_100:master">
  <metadata id="CorelCorpID_0Corel-Layer"/>
  <path class="fil0" d="M463 560c75,-14 133,-41 135,-70 3,-27 -8,-87 -56,-108 -35,20 -78,93 -79,178zm182 311c-2,4 -9,9 -17,7 -117,-51 -175,-140 -197,-233 -23,4 -46,5 -69,5l0 0 -2 0 0 0c-20,-1 -39,-20 -39,-41 1,-20 19,-39 39,-40l0 0c21,0 41,-1 61,-4 -3,-146 68,-282 128,-282 37,0 109,83 91,193 -14,94 -83,140 -162,160 16,36 45,73 81,104 -16,-80 35,-171 128,-171l78 0 0 81 -80 0c-76,0 -109,100 -43,147 10,5 20,9 29,13 9,3 10,4 6,11l-32 50z"/>
 </g>
</svg>
