<?xml version="1.0" encoding="UTF-8"?>
<!DOCTYPE svg PUBLIC "-//W3C//DTD SVG 1.0//EN" "http://www.w3.org/TR/2001/REC-SVG-20010904/DTD/svg10.dtd">
<!-- Creator: CorelDRAW -->
<svg xmlns="http://www.w3.org/2000/svg" xml:space="preserve" width="1300px" height="1300px" version="1.0" style="shape-rendering:geometricPrecision; text-rendering:geometricPrecision; image-rendering:optimizeQuality; fill-rule:evenodd; clip-rule:evenodd"
viewBox="0 0 1300 1056"
 xmlns:xlink="http://www.w3.org/1999/xlink">
 <defs>
  <style type="text/css">
   <![CDATA[
    .fil0 {fill:#99CCCC}
   ]]>
  </style>
 </defs>
 <g id="_100:master">
  <metadata id="CorelCorpID_0Corel-Layer"/>
  <path class="fil0" d="M490 569l0 0 53 0c173,0 231,-70 305,-120 -66,-26 -123,-58 -181,-58 -33,-1 -47,4 -68,43l-12 20c-3,6 -12,8 -18,5l-19 -8c-7,-2 -8,-15 -5,-22l10 -22c22,-50 53,-99 127,-99 95,0 176,89 331,90 10,0 17,3 14,15l-17 56c-2,7 -10,10 -19,10l0 0c-179,0 -178,171 -445,171l-59 0 0 0c-19,-2 -38,-20 -38,-41 0,-20 19,-39 38,-40l0 0 3 0z"/>
 </g>
</svg>
