<?xml version="1.0" encoding="UTF-8"?>
<!DOCTYPE svg PUBLIC "-//W3C//DTD SVG 1.0//EN" "http://www.w3.org/TR/2001/REC-SVG-20010904/DTD/svg10.dtd">
<!-- Creator: CorelDRAW -->
<svg xmlns="http://www.w3.org/2000/svg" xml:space="preserve" width="1300px" height="1300px" version="1.0" style="shape-rendering:geometricPrecision; text-rendering:geometricPrecision; image-rendering:optimizeQuality; fill-rule:evenodd; clip-rule:evenodd"
viewBox="0 0 1300 1056"
 xmlns:xlink="http://www.w3.org/1999/xlink">
 <defs>
  <style type="text/css">
   <![CDATA[
    .fil0 {fill:#FF9933;fill-opacity:0.501961}
   ]]>
  </style>
 </defs>
 <g id="_100:master">
  <metadata id="CorelCorpID_0Corel-Layer"/>
  <path class="fil0" d="M841 565c-42,16 -98,29 -142,27 -51,-2 -66,-40 -71,-71 -13,-71 47,-158 162,-213l-10 -49c-1,-6 2,-14 7,-18l44 -33c3,-2 12,1 12,5l44 246c13,72 6,110 131,110l0 81c-117,0 -159,-41 -177,-85zm-41 -199c-46,23 -114,74 -119,117 -2,38 46,45 142,2l-23 -119z"/>
 </g>
</svg>
