<?xml version="1.0" encoding="UTF-8"?>
<!DOCTYPE svg PUBLIC "-//W3C//DTD SVG 1.0//EN" "http://www.w3.org/TR/2001/REC-SVG-20010904/DTD/svg10.dtd">
<!-- Creator: CorelDRAW -->
<svg xmlns="http://www.w3.org/2000/svg" xml:space="preserve" width="1300px" height="1300px" version="1.0" style="shape-rendering:geometricPrecision; text-rendering:geometricPrecision; image-rendering:optimizeQuality; fill-rule:evenodd; clip-rule:evenodd"
viewBox="0 0 1300 1056"
 xmlns:xlink="http://www.w3.org/1999/xlink">
 <defs>
  <style type="text/css">
   <![CDATA[
    .fil1 {fill:#996633;fill-opacity:0.501961}
    .fil0 {fill:#FF9933;fill-opacity:0.501961}
   ]]>
  </style>
 </defs>
 <g id="_100:master" visibility="hidden">
  <metadata id="CorelCorpID_0Corel-Layer"/>
  <path class="fil0" d="M832 481l36 73c-43,20 -114,40 -169,38 -51,-2 -66,-40 -71,-71 -14,-80 63,-180 207,-232l-4 65c-35,6 -144,75 -150,129 -2,39 49,45 151,-2z"/>
  <path class="fil1" d="M1018 650l0 -81c-125,0 -118,-38 -131,-110l-44 -246c0,-4 -9,-7 -12,-5l-44 33c-5,4 -8,12 -7,18l45 240c10,52 13,151 193,151z"/>
 </g>
 <g id="Layer_x0020_1">
  <metadata id="CorelCorpID_1Corel-Layer"/>
  <path class="fil1" d="M884 406c-51,24 -104,62 -115,87 23,18 79,25 129,1l-14 -88zm199 244l-19 0c-107,0 -138,-32 -154,-92 -61,27 -133,23 -159,-7 -14,-16 -17,-36 -17,-57 1,-53 79,-108 142,-141l-4 -25c-1,-6 3,-14 7,-17l36 -30c7,-5 14,-2 15,7l31 198c9,55 10,83 103,83l19 0 0 81z"/>
 </g>
</svg>
