<?xml version="1.0" encoding="UTF-8"?>
<!DOCTYPE svg PUBLIC "-//W3C//DTD SVG 1.0//EN" "http://www.w3.org/TR/2001/REC-SVG-20010904/DTD/svg10.dtd">
<!-- Creator: CorelDRAW -->
<svg xmlns="http://www.w3.org/2000/svg" xml:space="preserve" width="1300px" height="1300px" version="1.0" style="shape-rendering:geometricPrecision; text-rendering:geometricPrecision; image-rendering:optimizeQuality; fill-rule:evenodd; clip-rule:evenodd"
viewBox="0 0 1300 1056"
 xmlns:xlink="http://www.w3.org/1999/xlink">
 <defs>
  <style type="text/css">
   <![CDATA[
    .fil0 {fill:#990000}
   ]]>
  </style>
 </defs>
 <g id="_100:master">
  <metadata id="CorelCorpID_0Corel-Layer"/>
  <path class="fil0" d="M1072 650c-146,0 -173,-79 -181,-150 -99,45 -137,150 -329,150l-82 0 0 0c-20,0 -40,-20 -40,-41 0,-20 20,-40 40,-40l0 0 1 0 0 0 62 0c179,0 236,-71 309,-120 -127,-49 -239,-127 -282,-20 -4,8 -12,13 -22,9l-13 -6c-7,-3 -11,-9 -7,-22 90,-253 285,-9 484,-9 21,0 14,16 12,22l-14 46c-2,7 -10,10 -19,10l0 0c-20,0 -39,2 -55,6 5,26 13,40 24,52 23,27 79,32 112,32l0 81z"/>
 </g>
</svg>
