<?xml version="1.0" encoding="UTF-8"?>
<!DOCTYPE svg PUBLIC "-//W3C//DTD SVG 1.0//EN" "http://www.w3.org/TR/2001/REC-SVG-20010904/DTD/svg10.dtd">
<!-- Creator: CorelDRAW -->
<svg xmlns="http://www.w3.org/2000/svg" xml:space="preserve" width="1300px" height="1300px" version="1.0" style="shape-rendering:geometricPrecision; text-rendering:geometricPrecision; image-rendering:optimizeQuality; fill-rule:evenodd; clip-rule:evenodd"
viewBox="0 0 1300 1056"
 xmlns:xlink="http://www.w3.org/1999/xlink">
 <defs>
  <style type="text/css">
   <![CDATA[
    .fil1 {fill:#663300;fill-opacity:0.501961}
    .fil0 {fill:#CC9933;fill-opacity:0.501961}
    .fil3 {fill:#FF9933;fill-opacity:0.501961}
    .fil2 {fill:#99CCCC}
   ]]>
  </style>
 </defs>
 <g id="_100:master" visibility="hidden">
  <metadata id="CorelCorpID_0Corel-Layer"/>
  <path class="fil0" d="M645 871l32 -50c4,-7 3,-7 -6,-11 -128,-58 -205,-135 -205,-214 0,-61 35,-178 76,-214l7 -99c-66,26 -139,185 -122,343 12,109 103,210 201,252 8,2 15,-3 17,-7z"/>
  <path class="fil1" d="M549 283l-7 99c36,19 57,99 56,108 0,42 -121,79 -238,79l0 81c119,0 258,-35 280,-174 10,-79 -55,-189 -91,-193z"/>
  <path class="fil2" d="M362 569c-20,0 -40,19 -41,40 0,21 21,41 41,41l0 -81z"/>
  <path class="fil3" d="M658 849l19 -36c-110,-32 -79,-163 8,-163l80 0 0 -81 -78 0c-146,0 -190,226 -29,280z"/>
 </g>
 <g id="Layer_x0020_1" visibility="hidden">
  <metadata id="CorelCorpID_1Corel-Layer"/>
  <path class="fil1" d="M538 274l-36 57c61,69 86,143 80,176 -6,40 -105,62 -222,62l0 81c111,0 241,-41 264,-143 19,-87 -28,-186 -68,-233 -4,-4 -11,-12 -18,0z"/>
  <path class="fil2" d="M362 569c-20,0 -40,19 -41,40 0,21 21,41 41,41l0 -81z"/>
  <path class="fil3" d="M666 835l19 -35c-68,-20 -113,-150 0,-150l80 0 0 -81 -82 0c-132,0 -163,211 -17,266z"/>
  <path class="fil0" d="M563 345l-38 -50c-166,247 -151,452 120,575 8,2 15,-3 17,-7l31 -50c5,-7 3,-7 -5,-11 -264,-127 -281,-210 -125,-457z"/>
 </g>
 <g id="Layer_x0020_2">
  <metadata id="CorelCorpID_2Corel-Layer"/>
  <path class="fil2" d="M747 557c61,-12 114,-35 144,-67 -9,-33 -24,-72 -45,-102 -48,44 -84,108 -99,169zm-142 12l22 0c25,0 50,-2 74,-5 6,-94 62,-203 134,-258 40,-31 48,-35 73,28 24,70 35,125 34,168l1 1c0,18 -20,42 -54,66l150 0 0 81 -94 0c16,27 24,58 23,91 -8,152 -231,102 -261,-99 -26,5 -54,8 -81,8l-21 0c-20,0 -41,-20 -40,-41 0,-21 20,-40 40,-40zm157 81c25,72 126,121 160,88 0,-24 -30,-58 -83,-88l-77 0z"/>
 </g>
</svg>
