<?xml version="1.0" encoding="UTF-8"?>
<!DOCTYPE svg PUBLIC "-//W3C//DTD SVG 1.0//EN" "http://www.w3.org/TR/2001/REC-SVG-20010904/DTD/svg10.dtd">
<!-- Creator: CorelDRAW -->
<svg xmlns="http://www.w3.org/2000/svg" xml:space="preserve" width="1300px" height="1300px" version="1.0" style="shape-rendering:geometricPrecision; text-rendering:geometricPrecision; image-rendering:optimizeQuality; fill-rule:evenodd; clip-rule:evenodd"
viewBox="0 0 1300 1056"
 xmlns:xlink="http://www.w3.org/1999/xlink">
 <defs>
  <style type="text/css">
   <![CDATA[
    .fil1 {fill:black;fill-opacity:0.501961}
    .fil3 {fill:#4D4D4D;fill-opacity:0.501961}
    .fil2 {fill:#666633;fill-opacity:0.501961}
    .fil4 {fill:#666666;fill-opacity:0.501961}
    .fil0 {fill:gray}
    .fil5 {fill:#999966}
   ]]>
  </style>
 </defs>
 <g id="_900:master" visibility="hidden">
  <metadata id="CorelCorpID_0Corel-Layer"/>
  <path class="fil0" d="M935 433l-40 -24c-34,133 7,241 181,241l1 0 0 -81 -4 0c-41,0 -92,-8 -121,-29 -24,-23 -27,-63 -17,-107z"/>
  <path class="fil1" d="M991 487l32 -81c-147,0 -256,-113 -374,-113 -49,0 -98,24 -130,136l37 15c26,-64 56,-70 76,-70 99,0 256,113 359,113z"/>
  <path class="fil2" d="M591 747c39,-147 254,-268 389,-264l28 -78c-238,1 -458,163 -485,343 -35,214 208,255 417,222l34 -81c-178,19 -413,12 -383,-142z"/>
 </g>
 <g id="_100:master" visibility="hidden">
  <metadata id="CorelCorpID_1Corel-Layer"/>
  <path class="fil0" d="M935 433l-40 -24c-34,133 7,241 181,241l1 0 0 -81 -4 0c-41,0 -92,-8 -121,-29 -24,-23 -27,-63 -17,-107z"/>
  <path class="fil1" d="M991 487l32 -81c-147,0 -256,-113 -374,-113 -49,0 -98,24 -130,136l37 15c26,-64 56,-70 76,-70 99,0 256,113 359,113z"/>
  <path class="fil2" d="M591 747c39,-147 254,-268 389,-264l28 -78c-238,1 -458,163 -485,343 -35,214 208,255 417,222l34 -81c-178,19 -413,12 -383,-142z"/>
 </g>
 <g id="Layer_x0020_1" visibility="hidden">
  <metadata id="CorelCorpID_2Corel-Layer"/>
  <path class="fil1" d="M872 369l-45 37c15,169 69,244 239,244l0 -81c-129,3 -172,-49 -194,-200z"/>
  <path class="fil3" d="M585 764c16,-147 229,-293 407,-293l15 -81c-279,0 -441,186 -465,336l43 38z"/>
  <path class="fil4" d="M595 679l-53 47c-13,62 -11,163 86,215 61,33 168,50 314,17l17 -81c-137,26 -239,22 -301,-13 -69,-38 -90,-107 -63,-185z"/>
  <path class="fil1" d="M991 471l32 -81c-147,-1 -371,-164 -452,-115 -42,26 -59,77 -85,151l37 15c27,-64 56,-83 76,-83 100,0 251,113 392,113z"/>
 </g>
 <g id="Layer_x0020_2">
  <metadata id="CorelCorpID_3Corel-Layer"/>
  <path class="fil5" d="M949 497c14,46 43,72 117,72l44 0 0 81 -44 0c-124,-4 -164,-63 -182,-143 -175,36 -299,143 -299,240 0,98 124,184 398,130l-16 82c-350,65 -430,-94 -430,-203 0,-124 102,-257 273,-313 -109,-51 -202,-109 -240,-14 -4,8 -12,13 -22,9l-13 -6c-7,-3 -11,-9 -7,-22 90,-253 285,7 484,7 21,0 14,16 12,22l-14 47c-2,7 -10,10 -19,10 -5,0 -11,-1 -16,-1 -9,1 -18,1 -26,2z"/>
 </g>
</svg>
