<?xml version="1.0" encoding="UTF-8"?>
<!DOCTYPE svg PUBLIC "-//W3C//DTD SVG 1.0//EN" "http://www.w3.org/TR/2001/REC-SVG-20010904/DTD/svg10.dtd">
<!-- Creator: CorelDRAW -->
<svg xmlns="http://www.w3.org/2000/svg" xml:space="preserve" width="1300px" height="1300px" version="1.0" style="shape-rendering:geometricPrecision; text-rendering:geometricPrecision; image-rendering:optimizeQuality; fill-rule:evenodd; clip-rule:evenodd"
viewBox="0 0 1300 1056"
 xmlns:xlink="http://www.w3.org/1999/xlink">
 <defs>
  <style type="text/css">
   <![CDATA[
    .fil0 {fill:black;fill-opacity:0.501961}
    .fil2 {fill:#999966;fill-opacity:0.650980}
    .fil1 {fill:#99CCCC}
   ]]>
  </style>
 </defs>
 <g id="_100:master" visibility="hidden">
  <metadata id="CorelCorpID_0Corel-Layer"/>
  <path class="fil0" d="M991 479c9,0 17,-3 19,-10l14 -46c2,-6 9,-22 -12,-22 -199,0 -394,-244 -484,9 -4,13 0,19 7,22l13 6c10,4 18,-1 22,-9 58,-145 244,50 421,50z"/>
  <path class="fil1" d="M481 569c-21,0 -41,19 -41,40 0,21 20,41 41,41l0 -81z"/>
  <path class="fil2" d="M991 479l21 -78c-208,-3 -191,168 -469,168l-63 0 0 81 82 0c244,0 239,-171 429,-171z"/>
 </g>
 <g id="Layer_x0020_1" visibility="hidden">
  <metadata id="CorelCorpID_1Corel-Layer"/>
  <path class="fil1" d="M481 569c-21,0 -41,19 -41,40 0,21 20,41 41,41l0 -81z"/>
  <path class="fil2" d="M991 496l21 -79c-251,3 -276,152 -518,152l-14 0 0 81 34 0c206,0 262,-154 477,-154z"/>
  <path class="fil0" d="M991 496c9,0 17,-3 19,-10l14 -47c2,-6 9,-22 -12,-22 -199,0 -394,-260 -484,-7 -4,13 0,19 7,22l13 6c10,4 18,-1 22,-9 58,-145 244,67 421,67z"/>
 </g>
 <g id="Layer_x0020_2" visibility="hidden">
  <metadata id="CorelCorpID_2Corel-Layer"/>
  <path class="fil1" d="M489 569c-21,0 -41,19 -41,40 0,21 20,41 41,41l0 -81z"/>
  <path class="fil2" d="M982 487l33 -81c-235,0 -232,163 -480,163l-47 0 0 81 47 0c243,0 269,-162 447,-163z"/>
  <path class="fil0" d="M991 487c14,0 17,-3 19,-12l14 -47c2,-6 9,-22 -4,-22l-12 0c-194,0 -344,-250 -476,-9 -7,14 -12,23 -2,30l15 12c9,6 17,-1 22,-9 94,-153 255,58 411,58l13 -1z"/>
 </g>
 <g id="Layer_x0020_3">
  <metadata id="CorelCorpID_3Corel-Layer"/>
  <path class="fil0" d="M993 471l0 0c-181,3 -175,179 -440,179l-89 0 0 0c-20,0 -41,-20 -40,-41 0,-21 20,-40 40,-40l0 0 0 0 0 0 88 0c176,0 227,-73 299,-126 -82,-29 -167,-70 -224,-70 -26,1 -46,10 -67,50 -7,13 -12,17 -20,12l-14 -8c-7,-4 -7,-10 -1,-24 12,-29 44,-111 109,-111 97,0 233,98 374,98l12 0c13,0 6,16 4,22l-14 46c-2,9 -5,13 -17,13z"/>
 </g>
</svg>
