<?xml version="1.0" encoding="UTF-8"?>
<!DOCTYPE svg PUBLIC "-//W3C//DTD SVG 1.0//EN" "http://www.w3.org/TR/2001/REC-SVG-20010904/DTD/svg10.dtd">
<!-- Creator: CorelDRAW -->
<svg xmlns="http://www.w3.org/2000/svg" xml:space="preserve" width="1300px" height="1300px" version="1.0" style="shape-rendering:geometricPrecision; text-rendering:geometricPrecision; image-rendering:optimizeQuality; fill-rule:evenodd; clip-rule:evenodd"
viewBox="0 0 1300 1056"
 xmlns:xlink="http://www.w3.org/1999/xlink">
 <defs>
  <style type="text/css">
   <![CDATA[
    .fil0 {fill:#996633;fill-opacity:0.501961}
    .fil1 {fill:#CC6633;fill-opacity:0.501961}
   ]]>
  </style>
 </defs>
 <g id="_100:master">
  <metadata id="CorelCorpID_0Corel-Layer"/>
  <path class="fil0" d="M1007 650l0 -81c-81,0 -106,-34 -115,-82l-42 -215c-1,-4 -9,-7 -12,-5l-45 33c-5,4 -7,12 -6,17l38 182c21,98 54,151 182,151z"/>
  <path class="fil1" d="M853 552l17 -81c-26,12 -155,65 -153,6 1,-34 98,-85 115,-98l7 -52c-78,66 -169,104 -169,166 0,84 87,104 183,59z"/>
 </g>
</svg>
