<?xml version="1.0" encoding="UTF-8"?>
<!DOCTYPE svg PUBLIC "-//W3C//DTD SVG 1.0//EN" "http://www.w3.org/TR/2001/REC-SVG-20010904/DTD/svg10.dtd">
<!-- Creator: CorelDRAW -->
<svg xmlns="http://www.w3.org/2000/svg" xml:space="preserve" width="1300px" height="1300px" version="1.0" style="shape-rendering:geometricPrecision; text-rendering:geometricPrecision; image-rendering:optimizeQuality; fill-rule:evenodd; clip-rule:evenodd"
viewBox="0 0 1300 1056"
 xmlns:xlink="http://www.w3.org/1999/xlink">
 <defs>
  <style type="text/css">
   <![CDATA[
    .fil1 {fill:black;fill-opacity:0.501961}
    .fil4 {fill:#336699;fill-opacity:0.501961}
    .fil6 {fill:#663300;fill-opacity:0.501961}
    .fil5 {fill:#999966;fill-opacity:0.501961}
    .fil3 {fill:#CC3300;fill-opacity:0.501961}
    .fil0 {fill:#CC6633;fill-opacity:0.501961}
    .fil2 {fill:#99CCCC}
   ]]>
  </style>
 </defs>
 <g id="_100:master" visibility="hidden">
  <metadata id="CorelCorpID_0Corel-Layer"/>
  <path class="fil0" d="M754 432l47 -21c13,-27 50,-56 82,-47 49,13 42,92 40,110 -18,27 -116,95 -242,95l1 81c141,0 252,-83 282,-181 29,-93 2,-162 -57,-179 -67,-13 -124,78 -153,142z"/>
  <path class="fil1" d="M1067 548c-7,70 -103,17 -146,-10l-77 -48c-27,-16 -56,-43 -42,-81l-48 23c-29,55 -8,95 34,121l93 57c98,61 234,91 234,-66l-48 4z"/>
  <path class="fil2" d="M682 569c-21,0 -41,19 -41,40 0,21 20,41 41,41l0 -81z"/>
  <path class="fil1" d="M1057 630l51 -28c29,-115 -22,-208 -150,-285l-159 -96 -19 80 158 96c86,51 148,132 119,233z"/>
 </g>
 <g id="Layer_x0020_1" visibility="hidden">
  <metadata id="CorelCorpID_1Corel-Layer"/>
  <path class="fil1" d="M902 460c12,-99 -20,-132 -52,-147 -48,-22 -120,17 -156,130 -18,55 -12,93 50,127 39,22 111,53 171,72 82,28 139,9 147,-113l-16 -1c-24,65 -39,58 -99,39 -53,-16 -118,-45 -166,-69 -35,-17 -48,-53 -37,-75 16,-31 54,-49 82,-40 20,6 35,39 31,76 -7,53 -162,110 -240,110l0 81c107,0 261,-80 285,-190z"/>
  <path class="fil2" d="M619 569c-21,0 -41,19 -41,40 0,21 20,41 41,41l0 -81z"/>
  <path class="fil1" d="M995 634l32 -4c21,-21 32,-61 35,-99 12,-135 -139,-187 -312,-265l-4 80c196,93 314,121 249,288z"/>
 </g>
 <g id="Layer_x0020_2" visibility="hidden">
  <metadata id="CorelCorpID_2Corel-Layer"/>
  <path class="fil1" d="M908 449c7,-58 -11,-144 -45,-163 -90,-52 -259,167 -137,254 35,26 96,52 189,94 66,30 115,27 138,-65l-20 -21c-18,34 -39,33 -86,11 -89,-41 -145,-67 -177,-88 -94,-61 24,-143 68,-121 28,14 32,74 31,103 -24,65 -174,116 -252,116l0 81c107,0 268,-91 291,-201z"/>
  <path class="fil2" d="M619 569c-21,0 -41,19 -41,40 0,21 20,41 41,41l0 -81z"/>
  <path class="fil1" d="M1014 601l28 1c80,-157 -21,-253 -280,-369l-4 81c293,125 277,212 256,287z"/>
 </g>
 <g id="Layer_x0020_4" visibility="hidden">
  <metadata id="CorelCorpID_3Corel-Layer"/>
  <path class="fil3" d="M827 276l-7 82c33,-1 58,62 58,94 -4,36 -111,117 -229,117l0 81c136,0 269,-97 269,-219 0,-47 -16,-155 -91,-155z"/>
  <path class="fil2" d="M651 569c-20,0 -40,19 -40,40 -1,21 20,41 40,41l0 -81z"/>
  <path class="fil1" d="M997 625l28 4c36,-37 48,-104 37,-149 -20,-83 -87,-143 -310,-249l-4 91c150,66 331,141 249,303z"/>
  <path class="fil3" d="M820 358l7 -82c-70,0 -101,79 -117,146 -17,73 0,107 51,147 81,64 260,162 292,11l-20 -23c-69,86 -279,-76 -284,-111 0,-5 0,-12 3,-19 14,-36 42,-69 68,-69z"/>
 </g>
 <g id="Layer_x0020_3" visibility="hidden">
  <metadata id="CorelCorpID_4Corel-Layer"/>
  <path class="fil4" d="M756 280l-24 74c35,13 48,74 47,106 -4,36 -75,109 -220,109l0 81c156,0 250,-81 261,-203 4,-46 6,-152 -64,-167z"/>
  <path class="fil2" d="M560 569c-20,0 -40,19 -40,40 -1,21 20,41 40,41l0 -81z"/>
  <path class="fil5" d="M907 625l27 4c37,-37 49,-104 38,-149 -20,-83 -83,-142 -305,-249l-5 92c151,66 327,140 245,302z"/>
  <path class="fil6" d="M732 354l24 -74c-71,0 -135,76 -152,142 -9,33 -24,87 28,116 102,57 284,193 322,57l-25 -40c-39,54 -207,-55 -253,-80 -35,-19 -32,-41 -30,-48 8,-37 61,-73 86,-73z"/>
 </g>
 <g id="Layer_x0020_5">
  <metadata id="CorelCorpID_5Corel-Layer"/>
  <path class="fil3" d="M883 549c35,12 71,20 93,20 33,0 49,-5 59,-27 -2,-38 -34,-73 -108,-119 1,4 1,8 0,13l0 0c0,42 -16,80 -44,113zm-143 6c-35,-40 -47,-89 -20,-138 12,-23 31,-54 54,-80l-15 -7 16 -82c311,156 342,225 295,341 -16,41 -48,61 -95,61 -61,0 -120,-16 -167,-41 -47,26 -103,41 -159,41l0 0c-20,0 -40,-20 -40,-41 0,-21 20,-40 40,-40l0 0c31,0 62,-6 91,-14zm148 -99l-1 1c1,-36 -13,-73 -42,-80 -35,-8 -72,22 -84,53 -14,34 17,66 60,91 38,-23 64,-48 66,-64l1 -1z"/>
 </g>
</svg>
