<?xml version="1.0" encoding="UTF-8"?>
<!DOCTYPE svg PUBLIC "-//W3C//DTD SVG 1.0//EN" "http://www.w3.org/TR/2001/REC-SVG-20010904/DTD/svg10.dtd">
<!-- Creator: CorelDRAW -->
<svg xmlns="http://www.w3.org/2000/svg" xml:space="preserve" width="1300px" height="1300px" version="1.0" style="shape-rendering:geometricPrecision; text-rendering:geometricPrecision; image-rendering:optimizeQuality; fill-rule:evenodd; clip-rule:evenodd"
viewBox="0 0 1300 1056"
 xmlns:xlink="http://www.w3.org/1999/xlink">
 <defs>
  <style type="text/css">
   <![CDATA[
    .fil0 {fill:#99CCCC}
   ]]>
  </style>
 </defs>
 <g id="_100:master">
  <metadata id="CorelCorpID_0Corel-Layer"/>
  <path class="fil0" d="M437 569l0 0 55 0c179,0 246,-78 332,-131 -77,-25 -150,-55 -206,-56 -33,0 -46,5 -68,43l-12 21c-3,6 -12,7 -18,5l-19 -8c-7,-3 -8,-15 -5,-22l10 -22c22,-50 45,-99 119,-99 95,0 233,88 388,90 10,0 17,3 14,15l-17 56c-2,7 -10,10 -19,10l0 0 -33 0c-145,1 -198,179 -463,179l-59 0 0 0c-20,-1 -40,-20 -40,-41 0,-20 20,-40 40,-40l0 0 1 0z"/>
 </g>
</svg>
