<?xml version="1.0" encoding="UTF-8"?>
<!DOCTYPE svg PUBLIC "-//W3C//DTD SVG 1.0//EN" "http://www.w3.org/TR/2001/REC-SVG-20010904/DTD/svg10.dtd">
<!-- Creator: CorelDRAW -->
<svg xmlns="http://www.w3.org/2000/svg" xml:space="preserve" width="1300px" height="1300px" version="1.0" style="shape-rendering:geometricPrecision; text-rendering:geometricPrecision; image-rendering:optimizeQuality; fill-rule:evenodd; clip-rule:evenodd"
viewBox="0 0 1300 1056"
 xmlns:xlink="http://www.w3.org/1999/xlink">
 <defs>
  <style type="text/css">
   <![CDATA[
    .fil0 {fill:black;fill-opacity:0.501961}
    .fil2 {fill:#999966;fill-opacity:0.650980}
    .fil1 {fill:#99CCCC}
   ]]>
  </style>
 </defs>
 <g id="_100:master" visibility="hidden">
  <metadata id="CorelCorpID_0Corel-Layer"/>
  <path class="fil0" d="M991 479c9,0 17,-3 19,-10l14 -46c2,-6 9,-22 -12,-22 -199,0 -394,-244 -484,9 -4,13 0,19 7,22l13 6c10,4 18,-1 22,-9 58,-145 244,50 421,50z"/>
  <path class="fil1" d="M481 569c-21,0 -41,19 -41,40 0,21 20,41 41,41l0 -81z"/>
  <path class="fil2" d="M991 479l21 -78c-208,-3 -191,168 -469,168l-63 0 0 81 82 0c244,0 239,-171 429,-171z"/>
 </g>
 <g id="Layer_x0020_1">
  <metadata id="CorelCorpID_1Corel-Layer"/>
  <path class="fil0" d="M991 496l0 0c-215,0 -271,154 -477,154l-34 0 0 0c-20,0 -40,-20 -40,-41 0,-20 20,-40 40,-40l0 0 1 0 0 0 13 0c167,0 231,-71 337,-116 -118,-53 -220,-125 -261,-24 -4,8 -12,13 -22,9l-13 -6c-7,-3 -11,-9 -7,-22 90,-253 285,7 484,7 21,0 14,16 12,22l-14 47c-2,7 -10,10 -19,10z"/>
 </g>
</svg>
