<?xml version="1.0" encoding="UTF-8"?>
<!DOCTYPE svg PUBLIC "-//W3C//DTD SVG 1.0//EN" "http://www.w3.org/TR/2001/REC-SVG-20010904/DTD/svg10.dtd">
<!-- Creator: CorelDRAW -->
<svg xmlns="http://www.w3.org/2000/svg" xml:space="preserve" width="1300px" height="1300px" version="1.0" style="shape-rendering:geometricPrecision; text-rendering:geometricPrecision; image-rendering:optimizeQuality; fill-rule:evenodd; clip-rule:evenodd"
viewBox="0 0 1300 1056"
 xmlns:xlink="http://www.w3.org/1999/xlink">
 <defs>
  <style type="text/css">
   <![CDATA[
    .fil0 {fill:black;fill-opacity:0.501961}
   ]]>
  </style>
 </defs>
 <g id="_100:master">
  <metadata id="CorelCorpID_0Corel-Layer"/>
  <path class="fil0" d="M991 479l0 0c-20,0 -39,3 -55,8 5,25 13,38 24,50 23,27 79,32 112,32l0 81c-140,0 -171,-73 -180,-143 -80,49 -135,143 -346,143l-26 0 0 0c-20,0 -40,-20 -40,-41 0,-20 20,-40 40,-40l0 0 0 0 0 0 23 0c179,0 254,-64 321,-113 -131,-43 -248,-120 -294,-8 -4,9 -12,13 -22,9l-13 -5c-7,-3 -11,-9 -7,-23 88,-249 264,-35 474,-28 3,0 6,0 10,0l0 0c21,0 14,16 12,22l-14 46c-2,7 -10,10 -19,10z"/>
 </g>
</svg>
