<?xml version="1.0" encoding="UTF-8"?>
<!DOCTYPE svg PUBLIC "-//W3C//DTD SVG 1.0//EN" "http://www.w3.org/TR/2001/REC-SVG-20010904/DTD/svg10.dtd">
<!-- Creator: CorelDRAW -->
<svg xmlns="http://www.w3.org/2000/svg" xml:space="preserve" width="1300px" height="1300px" version="1.0" style="shape-rendering:geometricPrecision; text-rendering:geometricPrecision; image-rendering:optimizeQuality; fill-rule:evenodd; clip-rule:evenodd"
viewBox="0 0 1300 1056"
 xmlns:xlink="http://www.w3.org/1999/xlink">
 <defs>
  <style type="text/css">
   <![CDATA[
    .fil1 {fill:black;fill-opacity:0.501961}
    .fil4 {fill:#333333;fill-opacity:0.501961}
    .fil3 {fill:#FF9933;fill-opacity:0.501961}
    .fil0 {fill:#99CCCC}
    .fil5 {fill:#B3B3B3}
    .fil2 {fill:red}
   ]]>
  </style>
 </defs>
 <g id="_100:master" visibility="hidden">
  <metadata id="CorelCorpID_0Corel-Layer"/>
  <path class="fil0" d="M714 569c-20,0 -41,19 -41,40 0,21 20,41 41,41l0 -81z"/>
  <path class="fil1" d="M921 526c-2,-116 -146,-242 -224,-323l34 -80c105,110 244,226 244,390 0,120 -110,137 -187,137l-74 0 0 -81 73 0c47,0 114,-9 134,-43z"/>
  <polygon class="fil2" points="697,203 1036,81 1060,70 1073,0 732,122 "/>
 </g>
 <g id="Layer_x0020_1" visibility="hidden">
  <metadata id="CorelCorpID_1Corel-Layer"/>
  <path class="fil0" d="M715 650l0 -81c-21,0 -41,19 -41,40 0,21 20,41 41,41z"/>
  <path class="fil3" d="M975 489c-1,117 -87,161 -195,161l-66 0 0 -81 73 0c49,0 133,-20 139,-49l0 0c-5,-85 -80,-190 -192,-264 -12,-8 -17,-23 -13,-33l19 -59c142,87 236,219 235,325l0 0z"/>
  <path class="fil2" d="M740 226l306 -138c27,-12 49,-100 21,-88l-300 136c-13,6 -23,17 -28,31l-15 46 16 13z"/>
 </g>
 <g id="Layer_x0020_2" visibility="hidden">
  <metadata id="CorelCorpID_2Corel-Layer"/>
  <path class="fil3" d="M966 538l-54 -7c21,-45 -4,-125 -162,-258 -11,-10 -16,-24 -13,-33l20 -60c234,194 229,291 209,358z"/>
  <path class="fil4" d="M966 538c-43,129 -148,112 -235,112l1 -81c92,0 117,5 180,-38l54 7z"/>
  <path class="fil0" d="M732 650l0 -81c-20,0 -40,19 -40,40 0,21 20,41 40,41z"/>
  <path class="fil2" d="M756 242l322 -113c29,-10 50,-98 22,-88l-301 104c-40,18 -39,26 -47,49l4 48z"/>
 </g>
 <g id="Layer_x0020_3" visibility="hidden">
  <metadata id="CorelCorpID_3Corel-Layer"/>
  <path class="fil0" d="M700 650l0 -81c-20,0 -40,19 -41,40 0,21 21,41 41,41z"/>
  <path class="fil5" d="M972 488c-22,24 -43,42 -72,56 -37,16 -82,25 -144,25l-56 0 0 81 56 0c178,0 216,-101 216,-162z"/>
  <path class="fil3" d="M929 595l-29 -52c54,-25 26,-104 -182,-283 -12,-9 -17,-23 -14,-33l15 -45 9 -13c3,3 4,3 7,6 143,127 242,224 239,285 -4,91 -23,109 -45,135z"/>
  <path class="fil2" d="M722 236l322 -98c28,-8 50,-96 21,-88l-300 89c-41,19 -40,26 -48,49l5 48z"/>
 </g>
 <g id="Layer_x0020_4">
  <metadata id="CorelCorpID_4Corel-Layer"/>
  <path class="fil0" d="M706 569l0 0 89 0c73,0 105,-13 131,-33l1 0c0,-76 -85,-177 -209,-271 -11,-9 -22,-22 -19,-32l20 -50c6,-19 8,-27 46,-44l300 -89c15,-4 14,10 5,40 -9,28 -12,44 -26,48l-258 79c149,122 204,227 186,313 -4,71 -82,120 -160,120l-106 0 0 0c-20,0 -40,-20 -40,-41 0,-21 20,-40 40,-40z"/>
 </g>
</svg>
