<?xml version="1.0" encoding="UTF-8"?>
<!DOCTYPE svg PUBLIC "-//W3C//DTD SVG 1.0//EN" "http://www.w3.org/TR/2001/REC-SVG-20010904/DTD/svg10.dtd">
<!-- Creator: CorelDRAW -->
<svg xmlns="http://www.w3.org/2000/svg" xml:space="preserve" width="1300px" height="1300px" version="1.0" style="shape-rendering:geometricPrecision; text-rendering:geometricPrecision; image-rendering:optimizeQuality; fill-rule:evenodd; clip-rule:evenodd"
viewBox="0 0 1300 1056"
 xmlns:xlink="http://www.w3.org/1999/xlink">
 <defs>
  <style type="text/css">
   <![CDATA[
    .fil4 {fill:#333333;fill-opacity:0.501961}
    .fil2 {fill:#FF9933;fill-opacity:0.501961}
    .fil0 {fill:#99CCCC}
    .fil5 {fill:#B3B3B3}
    .fil3 {fill:red}
    .fil1 {fill:#FF6666}
   ]]>
  </style>
 </defs>
 <g id="_100:master" visibility="hidden">
  <metadata id="CorelCorpID_0Corel-Layer"/>
  <path class="fil0" d="M698 650l0 -81c-20,0 -40,19 -40,40 -1,21 20,41 40,41z"/>
  <path class="fil1" d="M1145 569l0 81c-170,0 -224,-168 -312,-274 -36,-44 -74,-82 -123,-120 -12,-8 -17,-23 -14,-33l20 -59c63,42 118,97 178,168 67,81 130,237 251,237z"/>
  <path class="fil2" d="M853 401l87 -3c13,31 19,62 19,91 -1,117 -87,161 -195,161l-66 0 0 -81 73 0c23,0 127,-17 128,-49 0,-15 -2,-29 -6,-43 -8,-26 -22,-51 -40,-76z"/>
  <path class="fil3" d="M716 226l305 -138c28,-12 49,-100 22,-88l-284 129c-41,18 -40,26 -48,49l5 48z"/>
 </g>
 <g id="Layer_x0020_1" visibility="hidden">
  <metadata id="CorelCorpID_1Corel-Layer"/>
  <path class="fil0" d="M684 650l0 -81c-21,0 -41,19 -41,40 0,21 20,41 41,41z"/>
  <path class="fil3" d="M716 242l305 -138c28,-12 49,-100 22,-88l-284 129c-41,18 -40,26 -48,49l5 48z"/>
  <path class="fil1" d="M839 372l43 -64c118,102 110,261 293,261l-1 81c-229,0 -252,-208 -335,-278z"/>
  <path class="fil2" d="M966 538l-54 -7c9,-93 -88,-190 -202,-258 -13,-8 -17,-24 -14,-33l20 -60c232,145 283,270 250,358z"/>
  <path class="fil4" d="M966 538c-43,129 -197,112 -283,112l0 -81c92,0 166,5 229,-38l54 7z"/>
 </g>
 <g id="Layer_x0020_2" visibility="hidden">
  <metadata id="CorelCorpID_2Corel-Layer"/>
  <path class="fil1" d="M833 371l60 -44c82,84 116,242 274,242l-1 81c-214,0 -217,-165 -333,-279z"/>
  <path class="fil2" d="M936 595l-38 -55c58,-40 -44,-172 -180,-263 -13,-8 -17,-24 -14,-33l20 -60c136,94 336,265 212,411z"/>
  <path class="fil0" d="M708 650l0 -81c-20,0 -40,19 -41,40 0,21 21,41 41,41z"/>
  <path class="fil3" d="M724 246l322 -113c28,-10 49,-98 21,-88l-300 104c-40,18 -40,26 -48,49l5 48z"/>
  <path class="fil5" d="M975 487l-65 45c-31,23 -80,37 -154,37l-48 0 0 81 48 0c155,0 216,-58 219,-163z"/>
 </g>
 <g id="Layer_x0020_3">
  <metadata id="CorelCorpID_3Corel-Layer"/>
  <path class="fil1" d="M899 338c110,126 130,231 238,231l-1 81c-80,2 -128,-40 -170,-96 -23,63 -84,96 -154,96l-106 0 0 0c-20,0 -40,-20 -40,-41 0,-21 20,-40 40,-40l0 0 89 0c73,0 105,-13 131,-33 -10,-57 -59,-142 -208,-276 -11,-9 -17,-23 -14,-33l13 -39 0 0c8,-23 7,-30 48,-49l300 -89c15,-4 14,10 5,40 -9,28 -12,44 -26,48l-262 80c47,44 86,84 117,120z"/>
 </g>
</svg>
