<?xml version="1.0" encoding="UTF-8"?>
<!DOCTYPE svg PUBLIC "-//W3C//DTD SVG 1.0//EN" "http://www.w3.org/TR/2001/REC-SVG-20010904/DTD/svg10.dtd">
<!-- Creator: CorelDRAW -->
<svg xmlns="http://www.w3.org/2000/svg" xml:space="preserve" width="1300px" height="1300px" version="1.0" style="shape-rendering:geometricPrecision; text-rendering:geometricPrecision; image-rendering:optimizeQuality; fill-rule:evenodd; clip-rule:evenodd"
viewBox="0 0 1300 1056"
 xmlns:xlink="http://www.w3.org/1999/xlink">
 <defs>
  <style type="text/css">
   <![CDATA[
    .fil2 {fill:#FF9933;fill-opacity:0.501961}
    .fil0 {fill:#99CCCC}
    .fil3 {fill:red}
    .fil1 {fill:#FF6666}
   ]]>
  </style>
 </defs>
 <g id="_100:master" visibility="hidden">
  <metadata id="CorelCorpID_0Corel-Layer"/>
  <path class="fil0" d="M698 650l0 -81c-20,0 -40,19 -40,40 -1,21 20,41 40,41z"/>
  <path class="fil1" d="M1145 569l0 81c-170,0 -224,-168 -312,-274 -36,-44 -74,-82 -123,-120 -12,-8 -17,-23 -14,-33l20 -59c63,42 118,97 178,168 67,81 130,237 251,237z"/>
  <path class="fil2" d="M853 401l87 -3c13,31 19,62 19,91 -1,117 -87,161 -195,161l-66 0 0 -81 73 0c23,0 127,-17 128,-49 0,-15 -2,-29 -6,-43 -8,-26 -22,-51 -40,-76z"/>
  <path class="fil3" d="M716 226l305 -138c28,-12 49,-100 22,-88l-284 129c-41,18 -40,26 -48,49l5 48z"/>
 </g>
 <g id="Layer_x0020_1">
  <metadata id="CorelCorpID_1Corel-Layer"/>
  <path class="fil2" d="M912 531c9,-93 -88,-190 -202,-258 -13,-8 -17,-24 -14,-33l15 -46 0 0c8,-23 7,-31 48,-49l284 -129c27,-12 6,76 -22,88l-249 113c45,31 81,62 110,91l0 0c14,13 26,27 38,43 7,9 14,18 19,27 58,86 106,191 206,191l0 81c-86,0 -138,-47 -182,-105 -49,120 -163,105 -280,105l0 0c-20,-1 -40,-20 -40,-41 0,-20 20,-40 40,-40l0 0c114,0 167,-8 194,-17 29,-10 33,-18 35,-21z"/>
 </g>
</svg>
