<?xml version="1.0" encoding="UTF-8"?>
<!DOCTYPE svg PUBLIC "-//W3C//DTD SVG 1.0//EN" "http://www.w3.org/TR/2001/REC-SVG-20010904/DTD/svg10.dtd">
<!-- Creator: CorelDRAW -->
<svg xmlns="http://www.w3.org/2000/svg" xml:space="preserve" width="1300px" height="1300px" version="1.0" style="shape-rendering:geometricPrecision; text-rendering:geometricPrecision; image-rendering:optimizeQuality; fill-rule:evenodd; clip-rule:evenodd"
viewBox="0 0 1300 1056"
 xmlns:xlink="http://www.w3.org/1999/xlink">
 <defs>
  <style type="text/css">
   <![CDATA[
    .fil0 {fill:#663333;fill-opacity:0.501961}
   ]]>
  </style>
 </defs>
 <g id="_100:master">
  <metadata id="CorelCorpID_0Corel-Layer"/>
  <path class="fil0" d="M915 526c1,-126 -5,-289 -22,-459 -2,-21 -2,-25 21,-44l19 -17c13,-11 21,-6 23,9 14,131 19,268 20,383 2,127 28,171 145,171l0 81c-94,0 -145,-30 -173,-75 -3,3 -6,6 -10,8 -66,45 -118,83 -297,83 -90,0 -133,-16 -161,-33 -11,-6 -55,-99 -1,-80 35,11 97,32 154,32 142,0 223,-26 282,-59z"/>
 </g>
</svg>
