<?xml version="1.0" encoding="UTF-8"?>
<!DOCTYPE svg PUBLIC "-//W3C//DTD SVG 1.0//EN" "http://www.w3.org/TR/2001/REC-SVG-20010904/DTD/svg10.dtd">
<!-- Creator: CorelDRAW -->
<svg xmlns="http://www.w3.org/2000/svg" xml:space="preserve" width="1300px" height="1300px" version="1.0" style="shape-rendering:geometricPrecision; text-rendering:geometricPrecision; image-rendering:optimizeQuality; fill-rule:evenodd; clip-rule:evenodd"
viewBox="0 0 1300 1056"
 xmlns:xlink="http://www.w3.org/1999/xlink">
 <defs>
  <style type="text/css">
   <![CDATA[
    .fil0 {fill:#336699;fill-opacity:0.501961}
   ]]>
  </style>
 </defs>
 <g id="_100:master">
  <metadata id="CorelCorpID_0Corel-Layer"/>
  <path class="fil0" d="M368 319l29 12c4,2 8,7 5,16 -65,173 36,223 174,222 135,0 250,-28 339,-59 -5,-95 -95,-187 -205,-254 -13,-7 -17,-23 -14,-33l4 -10c6,-18 9,-35 16,-49l0 0 0 0c6,-12 14,-22 27,-28l300 -136c27,-12 6,76 -22,88l-247 112c148,100 200,200 201,287l0 0 0 2 0 0c0,62 -10,80 -91,108 -86,28 -168,54 -321,54 -167,0 -301,-65 -208,-326 2,-5 9,-8 13,-6z"/>
 </g>
</svg>
