<?xml version="1.0" encoding="UTF-8"?>
<!DOCTYPE svg PUBLIC "-//W3C//DTD SVG 1.0//EN" "http://www.w3.org/TR/2001/REC-SVG-20010904/DTD/svg10.dtd">
<!-- Creator: CorelDRAW -->
<svg xmlns="http://www.w3.org/2000/svg" xml:space="preserve" width="1300px" height="1300px" version="1.0" style="shape-rendering:geometricPrecision; text-rendering:geometricPrecision; image-rendering:optimizeQuality; fill-rule:evenodd; clip-rule:evenodd"
viewBox="0 0 1300 1056"
 xmlns:xlink="http://www.w3.org/1999/xlink">
 <defs>
  <style type="text/css">
   <![CDATA[
    .fil1 {fill:black;fill-opacity:0.501961}
    .fil3 {fill:#FF9933;fill-opacity:0.501961}
    .fil0 {fill:#99CCCC}
    .fil2 {fill:red}
   ]]>
  </style>
 </defs>
 <g id="_100:master" visibility="hidden">
  <metadata id="CorelCorpID_0Corel-Layer"/>
  <path class="fil0" d="M714 569c-20,0 -41,19 -41,40 0,21 20,41 41,41l0 -81z"/>
  <path class="fil1" d="M921 526c-2,-116 -146,-242 -224,-323l34 -80c105,110 244,226 244,390 0,120 -110,137 -187,137l-74 0 0 -81 73 0c47,0 114,-9 134,-43z"/>
  <path class="fil2" d="M697 203l339 -122 24 -11 13 -70 -341 122 -35 81z"/>
 </g>
 <g id="Layer_x0020_1" visibility="hidden">
  <metadata id="CorelCorpID_1Corel-Layer"/>
  <path class="fil0" d="M715 650l0 -81c-21,0 -41,19 -41,40 0,21 20,41 41,41z"/>
  <path class="fil3" d="M975 489c-1,117 -87,161 -195,161l-66 0 0 -81 73 0c49,0 133,-20 139,-49l0 0c-5,-85 -80,-190 -192,-264 -12,-8 -17,-23 -13,-33l19 -59c142,87 236,219 235,325l0 0z"/>
  <path class="fil2" d="M740 226l306 -138c27,-12 49,-100 21,-88l-300 136c-13,6 -23,17 -28,31l-15 46 16 13z"/>
 </g>
 <g id="Layer_x0020_2">
  <metadata id="CorelCorpID_2Corel-Layer"/>
  <path class="fil3" d="M912 531c9,-93 -88,-190 -202,-258 -13,-8 -17,-24 -14,-33l15 -46 0 0c8,-23 7,-31 48,-49l284 -129c27,-12 6,76 -22,88l-249 113c184,129 225,240 194,321 -43,129 -197,112 -283,112l0 0c-20,-1 -40,-20 -40,-41 0,-20 20,-40 40,-40l0 0 1 0 0 0c92,0 166,5 228,-38z"/>
 </g>
</svg>
