<?xml version="1.0" encoding="UTF-8"?>
<!DOCTYPE svg PUBLIC "-//W3C//DTD SVG 1.0//EN" "http://www.w3.org/TR/2001/REC-SVG-20010904/DTD/svg10.dtd">
<!-- Creator: CorelDRAW -->
<svg xmlns="http://www.w3.org/2000/svg" xml:space="preserve" width="1300px" height="1300px" version="1.0" style="shape-rendering:geometricPrecision; text-rendering:geometricPrecision; image-rendering:optimizeQuality; fill-rule:evenodd; clip-rule:evenodd"
viewBox="0 0 1300 1056"
 xmlns:xlink="http://www.w3.org/1999/xlink">
 <defs>
  <style type="text/css">
   <![CDATA[
    .fil0 {fill:#FF6666}
   ]]>
  </style>
 </defs>
 <g id="_100:master">
  <metadata id="CorelCorpID_0Corel-Layer"/>
  <path class="fil0" d="M884 322l0 0c123,133 140,247 253,247l-1 81c-81,2 -128,-40 -170,-97 -4,10 -9,20 -15,28l-1 1c-78,114 -693,195 -514,-225 3,-5 9,-8 14,-5l13 7c9,5 7,14 4,21 -97,263 297,237 447,149 7,-4 12,-8 17,-11 -4,-15 -12,-33 -24,-52 -9,-14 -18,-27 -28,-41 -34,-44 -86,-97 -161,-165 -11,-9 -17,-23 -14,-33l13 -39 0 0c8,-23 7,-30 48,-49l300 -89c15,-4 14,10 5,40 -9,28 -12,44 -26,48l-262 80c40,38 74,72 102,104z"/>
 </g>
</svg>
