<?xml version="1.0" encoding="UTF-8"?>
<!DOCTYPE svg PUBLIC "-//W3C//DTD SVG 1.0//EN" "http://www.w3.org/TR/2001/REC-SVG-20010904/DTD/svg10.dtd">
<!-- Creator: CorelDRAW -->
<svg xmlns="http://www.w3.org/2000/svg" xml:space="preserve" width="1300px" height="1300px" version="1.0" style="shape-rendering:geometricPrecision; text-rendering:geometricPrecision; image-rendering:optimizeQuality; fill-rule:evenodd; clip-rule:evenodd"
viewBox="0 0 1300 1056"
 xmlns:xlink="http://www.w3.org/1999/xlink">
 <defs>
  <style type="text/css">
   <![CDATA[
    .fil0 {fill:#FF9933;fill-opacity:0.501961}
   ]]>
  </style>
 </defs>
 <g id="_100:master">
  <metadata id="CorelCorpID_0Corel-Layer"/>
  <path class="fil0" d="M911 533l-1 -1c40,-45 -16,-162 -168,-255 -12,-8 -17,-24 -13,-33l15 -46 0 0c8,-23 7,-31 47,-49l300 -104c29,-10 8,78 -21,88l-264 93c38,29 68,56 93,82l0 0c7,8 13,15 19,23 10,12 19,23 26,35 68,100 94,203 247,203l0 81c-114,0 -176,-50 -221,-109 -3,10 -7,18 -12,24 -4,7 -8,14 -12,19 -38,47 -181,83 -293,83 -159,0 -290,-60 -219,-284 1,-5 8,-7 13,-5l31 12c4,2 8,7 5,15 -48,141 58,182 195,180 102,-1 175,-27 233,-52z"/>
 </g>
</svg>
