<?xml version="1.0" encoding="UTF-8"?>
<!DOCTYPE svg PUBLIC "-//W3C//DTD SVG 1.0//EN" "http://www.w3.org/TR/2001/REC-SVG-20010904/DTD/svg10.dtd">
<!-- Creator: CorelDRAW -->
<svg xmlns="http://www.w3.org/2000/svg" xml:space="preserve" width="1300px" height="1300px" version="1.0" style="shape-rendering:geometricPrecision; text-rendering:geometricPrecision; image-rendering:optimizeQuality; fill-rule:evenodd; clip-rule:evenodd"
viewBox="0 0 1300 1056"
 xmlns:xlink="http://www.w3.org/1999/xlink">
 <defs>
  <style type="text/css">
   <![CDATA[
    .fil0 {fill:#663300}
   ]]>
  </style>
 </defs>
 <g id="_100:master">
  <metadata id="CorelCorpID_0Corel-Layer"/>
  <path class="fil0" d="M641 666c-90,0 -133,-16 -161,-33 -11,-6 -55,-99 -1,-80 35,11 97,32 154,32 142,0 223,-26 282,-59 1,-126 -5,-289 -22,-459 -2,-21 -2,-25 21,-44l19 -17c13,-11 21,-6 23,9 19,170 21,350 19,480l0 0c-1,27 -6,67 -37,88 -66,45 -118,83 -297,83z"/>
 </g>
</svg>
