<?xml version="1.0" encoding="UTF-8"?>
<!DOCTYPE svg PUBLIC "-//W3C//DTD SVG 1.0//EN" "http://www.w3.org/TR/2001/REC-SVG-20010904/DTD/svg10.dtd">
<!-- Creator: CorelDRAW -->
<svg xmlns="http://www.w3.org/2000/svg" xml:space="preserve" width="1300px" height="1300px" version="1.0" style="shape-rendering:geometricPrecision; text-rendering:geometricPrecision; image-rendering:optimizeQuality; fill-rule:evenodd; clip-rule:evenodd"
viewBox="0 0 1300 1056"
 xmlns:xlink="http://www.w3.org/1999/xlink">
 <defs>
  <style type="text/css">
   <![CDATA[
    .fil2 {fill:red;fill-opacity:0.501961}
    .fil1 {fill:#FF9933;fill-opacity:0.501961}
    .fil3 {fill:red}
    .fil0 {fill:#FF6666}
    .fil4 {fill:#FF99CC}
   ]]>
  </style>
 </defs>
 <g id="_100:master" visibility="hidden">
  <metadata id="CorelCorpID_0Corel-Layer"/>
  <path class="fil0" d="M833 371l51 -49c123,133 140,247 253,247l-1 81c-161,4 -190,-168 -303,-279z"/>
  <path class="fil1" d="M951 581l-17 -50c-10,-57 -67,-137 -216,-271 -11,-9 -17,-23 -14,-33l15 -45 9 -13c3,3 4,3 7,6 153,139 240,236 241,323 1,33 -9,61 -25,83z"/>
  <path class="fil2" d="M450 352l13 7c9,5 7,14 4,21 -97,263 297,237 447,149 23,-14 35,-25 46,-16 20,5 9,41 -10,69 -78,114 -693,195 -514,-225 3,-5 9,-8 14,-5z"/>
  <path class="fil3" d="M722 236l322 -98c14,-4 17,-20 26,-48 9,-30 10,-44 -5,-40l-300 89c-41,19 -40,26 -48,49l5 48z"/>
 </g>
 <g id="Layer_x0020_2">
  <metadata id="CorelCorpID_1Corel-Layer"/>
  <path class="fil4" d="M915 533l12 -4c-3,-37 -25,-81 -61,-126l-57 -60c-26,-26 -57,-52 -91,-78 -11,-9 -22,-22 -19,-32l20 -50c6,-19 8,-27 46,-44l300 -89c15,-4 14,10 5,40 -9,28 -12,44 -26,48l-258 79c30,25 56,49 79,72l0 0 0 0c11,11 20,22 29,32l174 190c32,36 61,58 109,58l0 81c-65,0 -107,-27 -152,-75l-51 -55c-6,42 -21,78 -62,93 -140,50 -509,118 -507,-113 0,-34 7,-74 20,-122 3,-10 8,-12 15,-10 21,7 26,5 20,26 -11,45 -15,76 -9,101 32,135 369,73 464,38z"/>
 </g>
</svg>
