<?xml version="1.0" encoding="UTF-8"?>
<!DOCTYPE svg PUBLIC "-//W3C//DTD SVG 1.0//EN" "http://www.w3.org/TR/2001/REC-SVG-20010904/DTD/svg10.dtd">
<!-- Creator: CorelDRAW -->
<svg xmlns="http://www.w3.org/2000/svg" xml:space="preserve" width="1300px" height="1300px" version="1.0" style="shape-rendering:geometricPrecision; text-rendering:geometricPrecision; image-rendering:optimizeQuality; fill-rule:evenodd; clip-rule:evenodd"
viewBox="0 0 1300 1056"
 xmlns:xlink="http://www.w3.org/1999/xlink">
 <defs>
  <style type="text/css">
   <![CDATA[
    .fil0 {fill:#333333;fill-opacity:0.501961}
   ]]>
  </style>
 </defs>
 <g id="_100:master">
  <metadata id="CorelCorpID_0Corel-Layer"/>
  <path class="fil0" d="M362 378l31 12c4,2 8,7 5,15 -48,132 26,180 138,180 244,0 357,-46 376,-54 9,-93 -88,-190 -202,-258 -13,-8 -17,-24 -14,-33l15 -46 0 0c8,-23 7,-31 48,-49l284 -129c27,-12 6,76 -22,88l-249 113c45,31 81,62 110,91l0 0c14,13 26,27 38,43 7,9 14,18 19,27 58,86 106,191 206,191l0 81c-86,0 -139,-47 -182,-105 -13,28 -32,51 -44,58 -11,6 -115,64 -388,64 -155,0 -255,-82 -182,-284 2,-5 9,-7 13,-5z"/>
 </g>
</svg>
