<?xml version="1.0" encoding="UTF-8"?>
<!DOCTYPE svg PUBLIC "-//W3C//DTD SVG 1.0//EN" "http://www.w3.org/TR/2001/REC-SVG-20010904/DTD/svg10.dtd">
<!-- Creator: CorelDRAW -->
<svg xmlns="http://www.w3.org/2000/svg" xml:space="preserve" width="1300px" height="1300px" version="1.0" style="shape-rendering:geometricPrecision; text-rendering:geometricPrecision; image-rendering:optimizeQuality; fill-rule:evenodd; clip-rule:evenodd"
viewBox="0 0 1300 1056"
 xmlns:xlink="http://www.w3.org/1999/xlink">
 <defs>
  <style type="text/css">
   <![CDATA[
    .fil0 {fill:#999933}
   ]]>
  </style>
 </defs>
 <g id="_100:master">
  <metadata id="CorelCorpID_0Corel-Layer"/>
  <path class="fil0" d="M975 622l0 28c0,142 -150,244 -274,244 -173,0 -258,-127 -161,-382 3,-8 9,-12 19,-9l25 10c8,4 10,11 6,20 -82,206 10,279 117,279 105,-1 204,-81 210,-124l0 0 -13 -580c-1,-52 -3,-57 29,-84l19 -16c13,-12 23,-11 23,9l0 506c1,16 23,30 48,36 28,8 60,10 98,10l0 81 -19 0c-56,0 -97,-10 -127,-28z"/>
 </g>
</svg>
