<?xml version="1.0" encoding="UTF-8"?>
<!DOCTYPE svg PUBLIC "-//W3C//DTD SVG 1.0//EN" "http://www.w3.org/TR/2001/REC-SVG-20010904/DTD/svg10.dtd">
<!-- Creator: CorelDRAW -->
<svg xmlns="http://www.w3.org/2000/svg" xml:space="preserve" width="1300px" height="1300px" version="1.0" style="shape-rendering:geometricPrecision; text-rendering:geometricPrecision; image-rendering:optimizeQuality; fill-rule:evenodd; clip-rule:evenodd"
viewBox="0 0 1300 1056"
 xmlns:xlink="http://www.w3.org/1999/xlink">
 <defs>
  <style type="text/css">
   <![CDATA[
    .fil0 {fill:#9900CC;fill-opacity:0.501961}
   ]]>
  </style>
 </defs>
 <g id="_100:master">
  <metadata id="CorelCorpID_0Corel-Layer"/>
  <path class="fil0" d="M931 419l-11 -311c-1,-52 -2,-57 29,-84l19 -16c14,-12 23,-11 23,9l0 251c0,188 12,301 185,301l0 81c-120,0 -188,-49 -221,-115 -53,75 -160,115 -276,115 -21,-16 -47,-81 -20,-81l8 0c20,0 43,-2 68,-6 19,-17 26,-37 14,-74l-76 -228c-16,-49 -19,-54 3,-89l14 -21c9,-15 19,-17 24,2l95 314c10,32 10,57 6,77 53,-16 100,-41 117,-74l0 -25c-1,-8 -1,-17 -1,-25l0 -1z"/>
 </g>
</svg>
