<?xml version="1.0" encoding="UTF-8"?>
<!DOCTYPE svg PUBLIC "-//W3C//DTD SVG 1.0//EN" "http://www.w3.org/TR/2001/REC-SVG-20010904/DTD/svg10.dtd">
<!-- Creator: CorelDRAW -->
<svg xmlns="http://www.w3.org/2000/svg" xml:space="preserve" width="1300px" height="1300px" version="1.0" style="shape-rendering:geometricPrecision; text-rendering:geometricPrecision; image-rendering:optimizeQuality; fill-rule:evenodd; clip-rule:evenodd"
viewBox="0 0 1300 1056"
 xmlns:xlink="http://www.w3.org/1999/xlink">
 <defs>
  <style type="text/css">
   <![CDATA[
    .fil0 {fill:#9900CC;fill-opacity:0.501961}
   ]]>
  </style>
 </defs>
 <g id="_100:master">
  <metadata id="CorelCorpID_0Corel-Layer"/>
  <path class="fil0" d="M944 544c-14,21 -32,41 -55,57 -53,36 -122,49 -185,49 -22,-16 -47,-81 -21,-81l21 0c107,1 205,-49 219,-97l-19 -364c-3,-52 -3,-57 29,-84l19 -16c13,-12 23,-11 23,9l0 403c0,0 0,3 0,3 5,78 25,146 143,146l0 81c-112,0 -155,-46 -174,-106zm-129 -86l-82 -342c-2,-6 -6,-7 -12,-6 -55,50 -51,55 -41,93l101 332c12,20 38,-41 34,-77z"/>
 </g>
</svg>
