<?xml version="1.0" encoding="UTF-8"?>
<!DOCTYPE svg PUBLIC "-//W3C//DTD SVG 1.0//EN" "http://www.w3.org/TR/2001/REC-SVG-20010904/DTD/svg10.dtd">
<!-- Creator: CorelDRAW -->
<svg xmlns="http://www.w3.org/2000/svg" xml:space="preserve" width="1300px" height="1300px" version="1.0" style="shape-rendering:geometricPrecision; text-rendering:geometricPrecision; image-rendering:optimizeQuality; fill-rule:evenodd; clip-rule:evenodd"
viewBox="0 0 1300 1056"
 xmlns:xlink="http://www.w3.org/1999/xlink">
 <defs>
  <style type="text/css">
   <![CDATA[
    .fil0 {fill:#CC3300}
   ]]>
  </style>
 </defs>
 <g id="_100:master">
  <metadata id="CorelCorpID_0Corel-Layer"/>
  <path class="fil0" d="M815 458c4,36 -22,97 -34,77l-101 -332c-10,-38 -14,-43 41,-93 6,-1 10,0 12,6l82 342zm160 -38c0,72 -24,139 -86,181 -53,36 -122,49 -185,49 -22,-16 -47,-81 -21,-81l21 0c107,1 205,-49 219,-97l-19 -364c-3,-52 -3,-57 29,-84l19 -16c13,-12 23,-11 23,9l0 403 0 0z"/>
 </g>
</svg>
