<?xml version="1.0" encoding="UTF-8"?>
<!DOCTYPE svg PUBLIC "-//W3C//DTD SVG 1.0//EN" "http://www.w3.org/TR/2001/REC-SVG-20010904/DTD/svg10.dtd">
<!-- Creator: CorelDRAW -->
<svg xmlns="http://www.w3.org/2000/svg" xml:space="preserve" width="1300px" height="1300px" version="1.0" style="shape-rendering:geometricPrecision; text-rendering:geometricPrecision; image-rendering:optimizeQuality; fill-rule:evenodd; clip-rule:evenodd"
viewBox="0 0 1300 1056"
 xmlns:xlink="http://www.w3.org/1999/xlink">
 <defs>
  <style type="text/css">
   <![CDATA[
    .fil2 {fill:black;fill-opacity:0.501961}
    .fil1 {fill:#99CCCC}
    .fil0 {fill:#FFCC99}
   ]]>
  </style>
 </defs>
 <g id="_100:master" visibility="hidden">
  <metadata id="CorelCorpID_0Corel-Layer"/>
  <path class="fil0" d="M975 488c0,56 -10,101 -74,138 -26,15 -62,24 -120,24l0 -81c45,0 80,-8 108,-19 52,-21 77,-52 86,-62z"/>
  <path class="fil1" d="M781 650l0 -81c-20,0 -40,19 -40,40 -1,21 20,41 40,41z"/>
  <path class="fil2" d="M921 555l-41 -447c-5,-52 -3,-57 28,-84l20 -16c13,-12 22,-11 23,9l24 471 -54 67z"/>
 </g>
 <g id="Layer_x0020_1">
  <metadata id="CorelCorpID_1Corel-Layer"/>
  <path class="fil1" d="M758 650l-2 0 0 0c-20,-1 -39,-20 -39,-41 0,-20 19,-39 39,-40l0 0c74,0 123,-14 154,-37l9 -8 -28 -414c-4,-53 -5,-57 26,-86l18 -17c13,-12 23,-11 24,9l16 455 0 0c1,136 -93,179 -217,179l0 0z"/>
 </g>
</svg>
