<?xml version="1.0" encoding="UTF-8"?>
<!DOCTYPE svg PUBLIC "-//W3C//DTD SVG 1.0//EN" "http://www.w3.org/TR/2001/REC-SVG-20010904/DTD/svg10.dtd">
<!-- Creator: CorelDRAW -->
<svg xmlns="http://www.w3.org/2000/svg" xml:space="preserve" width="1300px" height="1300px" version="1.0" style="shape-rendering:geometricPrecision; text-rendering:geometricPrecision; image-rendering:optimizeQuality; fill-rule:evenodd; clip-rule:evenodd"
viewBox="0 0 1300 1056"
 xmlns:xlink="http://www.w3.org/1999/xlink">
 <defs>
  <style type="text/css">
   <![CDATA[
    .fil0 {fill:black;fill-opacity:0.501961}
   ]]>
  </style>
 </defs>
 <g id="_100:master">
  <metadata id="CorelCorpID_0Corel-Layer"/>
  <path class="fil0" d="M913 518l-9 -410c-1,-52 -3,-57 29,-84l19 -16c13,-12 23,-11 23,9l0 500c2,36 51,52 124,52l0 81c-88,0 -136,-24 -160,-56 -29,33 -86,56 -176,56l0 0 -1 0 0 0c-20,-1 -39,-20 -39,-41 0,-21 20,-40 40,-40l0 13 1 -13c48,0 146,-6 149,-51z"/>
 </g>
</svg>
