<?xml version="1.0" encoding="UTF-8"?>
<!DOCTYPE svg PUBLIC "-//W3C//DTD SVG 1.0//EN" "http://www.w3.org/TR/2001/REC-SVG-20010904/DTD/svg10.dtd">
<!-- Creator: CorelDRAW -->
<svg xmlns="http://www.w3.org/2000/svg" xml:space="preserve" width="1300px" height="1300px" version="1.0" style="shape-rendering:geometricPrecision; text-rendering:geometricPrecision; image-rendering:optimizeQuality; fill-rule:evenodd; clip-rule:evenodd"
viewBox="0 0 1300 1056"
 xmlns:xlink="http://www.w3.org/1999/xlink">
 <defs>
  <style type="text/css">
   <![CDATA[
    .fil0 {fill:#996633}
   ]]>
  </style>
 </defs>
 <g id="_100:master">
  <metadata id="CorelCorpID_0Corel-Layer"/>
  <path class="fil0" d="M945 603c-29,29 -75,47 -148,47l0 0c-21,0 -41,-20 -41,-41 0,-21 20,-40 41,-40l0 0c55,0 94,-13 123,-29l-16 -432c-2,-52 -3,-57 29,-84l19 -16c13,-12 23,-11 23,9l0 504c1,16 11,28 27,33 30,9 76,15 98,15l0 81c-50,0 -116,-10 -155,-47z"/>
 </g>
</svg>
