<?xml version="1.0" encoding="UTF-8"?>
<!DOCTYPE svg PUBLIC "-//W3C//DTD SVG 1.0//EN" "http://www.w3.org/TR/2001/REC-SVG-20010904/DTD/svg10.dtd">
<!-- Creator: CorelDRAW -->
<svg xmlns="http://www.w3.org/2000/svg" xml:space="preserve" width="1300px" height="1300px" version="1.0" style="shape-rendering:geometricPrecision; text-rendering:geometricPrecision; image-rendering:optimizeQuality; fill-rule:evenodd; clip-rule:evenodd"
viewBox="0 0 1300 1056"
 xmlns:xlink="http://www.w3.org/1999/xlink">
 <defs>
  <style type="text/css">
   <![CDATA[
    .fil0 {fill:black;fill-opacity:0.501961}
   ]]>
  </style>
 </defs>
 <g id="_100:master">
  <metadata id="CorelCorpID_0Corel-Layer"/>
  <path class="fil0" d="M975 662l-1 1c-13,128 -133,231 -307,231 -151,0 -277,-112 -160,-423 3,-8 11,-12 18,-9l24 9c6,2 10,11 6,20 -91,226 -5,321 116,321 109,0 217,-56 252,-117l-20 -614c-1,-40 -3,-45 62,-81 6,0 10,2 10,9l0 511 0 0c0,16 10,29 27,34 30,9 76,15 98,15l0 81c-39,0 -87,-6 -125,-26l0 33 0 0 0 5z"/>
 </g>
</svg>
