<?xml version="1.0" encoding="UTF-8"?>
<!DOCTYPE svg PUBLIC "-//W3C//DTD SVG 1.0//EN" "http://www.w3.org/TR/2001/REC-SVG-20010904/DTD/svg10.dtd">
<!-- Creator: CorelDRAW -->
<svg xmlns="http://www.w3.org/2000/svg" xml:space="preserve" width="1300px" height="1300px" version="1.0" style="shape-rendering:geometricPrecision; text-rendering:geometricPrecision; image-rendering:optimizeQuality; fill-rule:evenodd; clip-rule:evenodd"
viewBox="0 0 1300 1056"
 xmlns:xlink="http://www.w3.org/1999/xlink">
 <defs>
  <style type="text/css">
   <![CDATA[
    .fil0 {fill:#9900CC;fill-opacity:0.501961}
   ]]>
  </style>
 </defs>
 <g id="_100:master">
  <metadata id="CorelCorpID_0Corel-Layer"/>
  <path class="fil0" d="M944 544c-14,21 -32,41 -55,57 -52,36 -123,49 -185,49l0 0 -1 0 0 0c-20,-1 -40,-20 -40,-41 0,-20 20,-40 40,-40l0 0 3 0c107,0 204,-65 217,-97l-19 -364c-3,-52 -3,-57 29,-84l19 -16c13,-12 23,-11 23,9l0 403c0,0 0,3 0,3 5,78 25,146 143,146l0 81c-112,0 -155,-46 -174,-106zm-150 -112l-119 -331c-2,-6 -6,-7 -12,-5 -49,56 -45,60 -31,97l136 320c14,18 34,-46 26,-81z"/>
 </g>
</svg>
