<?xml version="1.0" encoding="UTF-8"?>
<!DOCTYPE svg PUBLIC "-//W3C//DTD SVG 1.0//EN" "http://www.w3.org/TR/2001/REC-SVG-20010904/DTD/svg10.dtd">
<!-- Creator: CorelDRAW -->
<svg xmlns="http://www.w3.org/2000/svg" xml:space="preserve" width="1300px" height="1300px" version="1.0" style="shape-rendering:geometricPrecision; text-rendering:geometricPrecision; image-rendering:optimizeQuality; fill-rule:evenodd; clip-rule:evenodd"
viewBox="0 0 1300 1056"
 xmlns:xlink="http://www.w3.org/1999/xlink">
 <defs>
  <style type="text/css">
   <![CDATA[
    .fil0 {fill:#CC3300}
   ]]>
  </style>
 </defs>
 <g id="_100:master" visibility="hidden">
  <metadata id="CorelCorpID_0Corel-Layer"/>
  <path class="fil0" d="M738 575c42,-153 -56,-299 -137,-364 -9,-12 -11,-15 -2,-40l9 -27c5,-16 14,-16 21,-7 183,149 183,350 148,436 -6,7 -46,41 -39,2z"/>
  <path class="fil0" d="M975 483c0,110 -177,166 -248,167 -49,1 -129,-72 -60,-69 80,4 259,-37 253,-122l0 0 -11 -390c-1,-21 -1,-26 12,-36l36 -29c10,-8 18,-4 18,9l0 470 0 0z"/>
 </g>
 <g id="Layer_x0020_1">
  <metadata id="CorelCorpID_1Corel-Layer"/>
  <path class="fil0" d="M975 471c0,122 -251,260 -325,123 -13,-24 -15,-27 0,-25 162,16 272,-63 270,-121l0 -14 -13 -365c-1,-21 -4,-23 12,-36l32 -27c13,-11 23,-6 23,9l1 407 0 0 0 49zm-256 36c6,-100 -31,-222 -69,-340 -5,-15 -5,-18 12,-39l18 -22c10,-12 19,-10 23,1 39,114 97,323 54,393 -5,9 -41,47 -38,7z"/>
 </g>
</svg>
