<?xml version="1.0" encoding="UTF-8"?>
<!DOCTYPE svg PUBLIC "-//W3C//DTD SVG 1.0//EN" "http://www.w3.org/TR/2001/REC-SVG-20010904/DTD/svg10.dtd">
<!-- Creator: CorelDRAW -->
<svg xmlns="http://www.w3.org/2000/svg" xml:space="preserve" width="1300px" height="1300px" version="1.0" style="shape-rendering:geometricPrecision; text-rendering:geometricPrecision; image-rendering:optimizeQuality; fill-rule:evenodd; clip-rule:evenodd"
viewBox="0 0 1300 1056"
 xmlns:xlink="http://www.w3.org/1999/xlink">
 <defs>
  <style type="text/css">
   <![CDATA[
    .fil0 {fill:#9900CC;fill-opacity:0.501961}
   ]]>
  </style>
 </defs>
 <g id="_100:master">
  <metadata id="CorelCorpID_0Corel-Layer"/>
  <path class="fil0" d="M724 523c5,18 107,-26 85,-98l-95 -315c-5,-18 -15,-17 -24,-2l-14 21c-22,36 -19,40 -3,89l76 229c12,35 -2,57 -25,76zm190 -104l-10 -311c-2,-52 -3,-57 29,-84l19 -16c13,-12 23,-11 23,9l0 370c3,115 23,182 144,182l0 81c-111,0 -163,-42 -186,-101 -52,66 -146,101 -254,101 -21,-16 -47,-81 -20,-81l8 0c82,0 214,-34 249,-99 -1,-16 -2,-33 -2,-50l0 -1z"/>
 </g>
</svg>
