<?xml version="1.0" encoding="UTF-8"?>
<!DOCTYPE svg PUBLIC "-//W3C//DTD SVG 1.0//EN" "http://www.w3.org/TR/2001/REC-SVG-20010904/DTD/svg10.dtd">
<!-- Creator: CorelDRAW -->
<svg xmlns="http://www.w3.org/2000/svg" xml:space="preserve" width="1300px" height="1300px" version="1.0" style="shape-rendering:geometricPrecision; text-rendering:geometricPrecision; image-rendering:optimizeQuality; fill-rule:evenodd; clip-rule:evenodd"
viewBox="0 0 1300 1056"
 xmlns:xlink="http://www.w3.org/1999/xlink">
 <defs>
  <style type="text/css">
   <![CDATA[
    .fil0 {fill:black;fill-opacity:0.501961}
    .fil1 {fill:#99CCCC}
   ]]>
  </style>
 </defs>
 <g id="_100:master" visibility="hidden">
  <metadata id="CorelCorpID_0Corel-Layer"/>
  <path class="fil0" d="M913 518l-9 -410c-1,-52 -3,-57 29,-84l19 -16c13,-12 23,-11 23,9l0 500c2,36 51,52 124,52l0 81c-88,0 -136,-24 -160,-56 -29,33 -86,56 -177,56l2 -81c48,0 146,-6 149,-51z"/>
  <path class="fil1" d="M763 650l0 -81c-20,0 -40,19 -40,40 0,21 20,41 40,41z"/>
 </g>
 <g id="Layer_x0020_1">
  <metadata id="CorelCorpID_1Corel-Layer"/>
  <path class="fil0" d="M797 569c57,-1 102,-10 126,-34l-14 -466c-1,-21 -1,-26 12,-36l36 -29c10,-8 18,-4 18,9l0 514 0 0c15,28 57,42 110,42l20 0 0 81 -19 0c-67,0 -108,-17 -132,-48 -34,38 -87,47 -157,48l0 0c-20,0 -41,-20 -41,-41 1,-21 21,-40 41,-40l0 0z"/>
 </g>
</svg>
