<?xml version="1.0" encoding="UTF-8"?>
<!DOCTYPE svg PUBLIC "-//W3C//DTD SVG 1.0//EN" "http://www.w3.org/TR/2001/REC-SVG-20010904/DTD/svg10.dtd">
<!-- Creator: CorelDRAW -->
<svg xmlns="http://www.w3.org/2000/svg" xml:space="preserve" width="1300px" height="1300px" version="1.0" style="shape-rendering:geometricPrecision; text-rendering:geometricPrecision; image-rendering:optimizeQuality; fill-rule:evenodd; clip-rule:evenodd"
viewBox="0 0 1300 1056"
 xmlns:xlink="http://www.w3.org/1999/xlink">
 <defs>
  <style type="text/css">
   <![CDATA[
    .fil2 {fill:#663333;fill-opacity:0.501961}
    .fil0 {fill:#9900CC;fill-opacity:0.501961}
    .fil1 {fill:#CC3300}
   ]]>
  </style>
 </defs>
 <g id="_100:master" visibility="hidden">
  <metadata id="CorelCorpID_0Corel-Layer"/>
  <path class="fil0" d="M919 418c0,115 -8,232 176,232l0 -81c-119,0 -119,-45 -121,-176l-55 25z"/>
  <path class="fil1" d="M975 459c0,45 -42,95 -89,130 -43,32 -110,60 -159,61 -49,1 -129,-72 -60,-69 80,4 259,-61 253,-147l55 25z"/>
  <path class="fil2" d="M719 532c6,-101 -31,-223 -69,-340 -5,-15 -5,-18 12,-39l18 -22c10,-13 19,-10 23,1 39,114 97,323 54,393 -5,8 -41,46 -38,7z"/>
  <path class="fil2" d="M922 500l-15 -431c-1,-21 -4,-23 12,-36l32 -27c13,-11 23,-6 23,9l1 444 -53 41z"/>
 </g>
 <g id="Layer_x0020_1">
  <metadata id="CorelCorpID_1Corel-Layer"/>
  <path class="fil1" d="M719 507c6,-100 -31,-222 -69,-340 -5,-15 -5,-18 12,-39l18 -22c10,-12 19,-10 23,1 39,114 97,323 54,393 -5,9 -41,47 -38,7zm222 47c-72,88 -234,146 -291,40 -13,-24 -15,-27 0,-25 155,15 261,-55 270,-112 -1,-14 -1,-27 -1,-39l0 0 -12 -349c-1,-21 -4,-23 12,-36l32 -27c13,-11 23,-6 23,9l1 406 0 1 0 0 0 1c8,87 56,146 120,146l0 81c-85,0 -131,-42 -154,-96z"/>
 </g>
</svg>
