<?xml version="1.0" encoding="UTF-8"?>
<!DOCTYPE svg PUBLIC "-//W3C//DTD SVG 1.0//EN" "http://www.w3.org/TR/2001/REC-SVG-20010904/DTD/svg10.dtd">
<!-- Creator: CorelDRAW -->
<svg xmlns="http://www.w3.org/2000/svg" xml:space="preserve" width="1300px" height="1300px" version="1.0" style="shape-rendering:geometricPrecision; text-rendering:geometricPrecision; image-rendering:optimizeQuality; fill-rule:evenodd; clip-rule:evenodd"
viewBox="0 0 1300 1056"
 xmlns:xlink="http://www.w3.org/1999/xlink">
 <defs>
  <style type="text/css">
   <![CDATA[
    .fil0 {fill:black;fill-opacity:0.501961}
   ]]>
  </style>
 </defs>
 <g id="_100:master">
  <metadata id="CorelCorpID_0Corel-Layer"/>
  <path class="fil0" d="M975 626l0 24 0 0c-8,152 -132,242 -262,243 -142,0 -275,-90 -158,-346 3,-6 7,-10 14,-6l18 8c6,3 6,7 3,13 -57,137 -44,248 131,249 111,1 205,-80 205,-167l-1 -22 0 0 -16 -553c-1,-21 -1,-26 12,-36l36 -29c10,-8 18,-4 18,9l0 518c18,28 50,38 94,38l37 0 0 81 -40 0c-40,0 -69,-9 -91,-24z"/>
 </g>
</svg>
