<?xml version="1.0" encoding="UTF-8"?>
<!DOCTYPE svg PUBLIC "-//W3C//DTD SVG 1.0//EN" "http://www.w3.org/TR/2001/REC-SVG-20010904/DTD/svg10.dtd">
<!-- Creator: CorelDRAW -->
<svg xmlns="http://www.w3.org/2000/svg" xml:space="preserve" width="1300px" height="1300px" version="1.0" style="shape-rendering:geometricPrecision; text-rendering:geometricPrecision; image-rendering:optimizeQuality; fill-rule:evenodd; clip-rule:evenodd"
viewBox="0 0 1300 1056"
 xmlns:xlink="http://www.w3.org/1999/xlink">
 <defs>
  <style type="text/css">
   <![CDATA[
    .fil0 {fill:black;fill-opacity:0.501961}
   ]]>
  </style>
 </defs>
 <g id="_100:master">
  <metadata id="CorelCorpID_0Corel-Layer"/>
  <path class="fil0" d="M911 412l-7 -304c-1,-52 -3,-57 29,-84l19 -16c13,-12 23,-11 23,9l0 506c1,17 25,31 50,37l-2 0c24,6 49,9 79,9l0 81c-81,0 -131,-21 -159,-56 -29,35 -82,56 -163,56l0 0c-20,0 -40,-20 -40,-41 0,-21 20,-40 40,-40l0 0c27,0 54,-2 80,-9 30,-9 51,-28 51,-60l0 -86 0 -2z"/>
 </g>
</svg>
