<?xml version="1.0" encoding="UTF-8"?>
<!DOCTYPE svg PUBLIC "-//W3C//DTD SVG 1.0//EN" "http://www.w3.org/TR/2001/REC-SVG-20010904/DTD/svg10.dtd">
<!-- Creator: CorelDRAW -->
<svg xmlns="http://www.w3.org/2000/svg" xml:space="preserve" width="1300px" height="1300px" version="1.0" style="shape-rendering:geometricPrecision; text-rendering:geometricPrecision; image-rendering:optimizeQuality; fill-rule:evenodd; clip-rule:evenodd"
viewBox="0 0 1300 1056"
 xmlns:xlink="http://www.w3.org/1999/xlink">
 <defs>
  <style type="text/css">
   <![CDATA[
    .fil0 {fill:black;fill-opacity:0.501961}
    .fil1 {fill:#99CCCC}
   ]]>
  </style>
 </defs>
 <g id="_100:master" visibility="hidden">
  <metadata id="CorelCorpID_0Corel-Layer"/>
  <path class="fil0" d="M913 518l-9 -410c-1,-52 -3,-57 29,-84l19 -16c13,-12 23,-11 23,9l0 500c2,36 51,52 124,52l0 81c-88,0 -136,-24 -160,-56 -29,33 -86,56 -177,56l2 -81c48,0 146,-6 149,-51z"/>
  <path class="fil1" d="M763 650l0 -81c-20,0 -40,19 -40,40 0,21 20,41 40,41z"/>
 </g>
 <g id="Layer_x0020_1">
  <metadata id="CorelCorpID_1Corel-Layer"/>
  <path class="fil1" d="M813 569l0 0 1 0 9 0c59,0 100,-12 99,-58l-13 -442c-1,-21 -1,-26 12,-36l36 -29c10,-8 18,-4 18,9l0 493c15,47 50,63 106,63l21 0 0 81 -24 0c-64,0 -107,-19 -132,-52l-1 1c-35,42 -79,51 -124,51 -2,0 -5,0 -8,0l0 0c-20,-1 -40,-20 -39,-41 0,-20 19,-40 39,-40z"/>
 </g>
</svg>
