<?xml version="1.0" encoding="UTF-8"?>
<!DOCTYPE svg PUBLIC "-//W3C//DTD SVG 1.0//EN" "http://www.w3.org/TR/2001/REC-SVG-20010904/DTD/svg10.dtd">
<!-- Creator: CorelDRAW -->
<svg xmlns="http://www.w3.org/2000/svg" xml:space="preserve" width="1300px" height="1300px" version="1.0" style="shape-rendering:geometricPrecision; text-rendering:geometricPrecision; image-rendering:optimizeQuality; fill-rule:evenodd; clip-rule:evenodd"
viewBox="0 0 1300 1056"
 xmlns:xlink="http://www.w3.org/1999/xlink">
 <defs>
  <style type="text/css">
   <![CDATA[
    .fil0 {fill:black;fill-opacity:0.501961}
   ]]>
  </style>
 </defs>
 <g id="_100:master">
  <metadata id="CorelCorpID_0Corel-Layer"/>
  <path class="fil0" d="M918 536c-1,-14 -2,-28 -2,-41l-12 -414c-1,-40 -3,-45 62,-81 6,0 10,2 10,9l-1 511c0,16 10,29 27,34 30,9 76,15 98,15l0 81c-52,0 -121,-11 -160,-52 -29,33 -78,52 -155,52 -8,0 -15,0 -23,0 -20,0 -41,-20 -41,-41 0,-21 21,-40 41,-40l20 0 6 0c56,0 95,-13 124,-29l6 -4z"/>
 </g>
</svg>
