<?xml version="1.0" encoding="UTF-8"?>
<!DOCTYPE svg PUBLIC "-//W3C//DTD SVG 1.0//EN" "http://www.w3.org/TR/2001/REC-SVG-20010904/DTD/svg10.dtd">
<!-- Creator: CorelDRAW -->
<svg xmlns="http://www.w3.org/2000/svg" xml:space="preserve" width="1300px" height="1300px" version="1.0" style="shape-rendering:geometricPrecision; text-rendering:geometricPrecision; image-rendering:optimizeQuality; fill-rule:evenodd; clip-rule:evenodd"
viewBox="0 0 1300 1056"
 xmlns:xlink="http://www.w3.org/1999/xlink">
 <defs>
  <style type="text/css">
   <![CDATA[
    .fil0 {fill:#666633}
   ]]>
  </style>
 </defs>
 <g id="_100:master">
  <metadata id="CorelCorpID_0Corel-Layer"/>
  <g>
   <path class="fil0" d="M909 650c-9,0 -17,-2 -25,-6 -8,-3 -15,-8 -21,-14 -6,-7 -11,-14 -14,-22 -4,-9 -6,-18 -6,-27 0,-10 2,-19 6,-27 3,-8 8,-15 14,-21 6,-7 13,-12 21,-15 8,-4 16,-5 25,-5 10,0 18,1 26,5 8,3 16,8 22,15 6,6 10,13 14,21 3,8 5,17 5,27 0,9 -2,18 -5,27 -4,8 -8,15 -14,22 -6,6 -14,11 -22,14 -8,4 -16,6 -26,6l0 0zm-1 -38c8,0 16,-3 22,-9 6,-5 9,-13 9,-21 0,-8 -3,-15 -9,-21 -6,-6 -14,-9 -22,-9 -8,0 -15,3 -21,9 -6,6 -9,13 -9,21 0,8 3,16 9,21 6,6 13,9 21,9z"/>
  </g>
 </g>
</svg>
