<?xml version="1.0" encoding="UTF-8"?>
<!DOCTYPE svg PUBLIC "-//W3C//DTD SVG 1.0//EN" "http://www.w3.org/TR/2001/REC-SVG-20010904/DTD/svg10.dtd">
<!-- Creator: CorelDRAW -->
<svg xmlns="http://www.w3.org/2000/svg" xml:space="preserve" width="1300px" height="1300px" version="1.0" style="shape-rendering:geometricPrecision; text-rendering:geometricPrecision; image-rendering:optimizeQuality; fill-rule:evenodd; clip-rule:evenodd"
viewBox="0 0 1300 1056"
 xmlns:xlink="http://www.w3.org/1999/xlink">
 <defs>
  <style type="text/css">
   <![CDATA[
    .fil3 {fill:#33CC99;fill-opacity:0.501961}
    .fil2 {fill:#6666FF;fill-opacity:0.501961}
    .fil4 {fill:#FF6633;fill-opacity:0.501961}
    .fil1 {fill:#FF9933;fill-opacity:0.501961}
    .fil0 {fill:gray}
   ]]>
  </style>
 </defs>
 <g id="_100:master" visibility="hidden">
  <metadata id="CorelCorpID_0Corel-Layer"/>
  <path class="fil0" d="M1120 650l0 -81c-131,0 -155,-86 -201,-210 -8,-23 -22,-14 -31,5l-24 48c62,154 84,238 256,238z"/>
  <path class="fil1" d="M1001 551l-56 -13c-30,187 -190,82 -117,-102l-68 35c-93,246 189,368 241,80z"/>
  <path class="fil2" d="M668 532c-50,30 -52,77 -50,128l12 297c0,14 6,20 22,10 24,-16 49,-28 46,-57l-26 -328 -4 -50z"/>
  <path class="fil3" d="M894 458l8 -76c-232,61 -301,89 -284,266 1,-5 9,-3 11,-6 7,-7 11,-16 15,-25 9,-18 5,-52 23,-67 38,-30 107,-51 227,-92z"/>
 </g>
 <g id="Layer_x0020_1">
  <metadata id="CorelCorpID_1Corel-Layer"/>
  <path class="fil4" d="M957 595c-25,-26 -42,-60 -60,-103l-10 -1c-20,-4 -43,-4 -68,-2 3,64 11,140 47,162 13,8 46,-34 91,-56zm82 46c-3,0 -5,-1 -8,-2 -93,-24 -147,117 -217,80 -52,-32 -61,-138 -67,-215 -35,10 -68,25 -94,45l3 33 26 328c2,29 -23,41 -46,57 -16,10 -22,4 -23,-10l-11 -297c0,-12 -1,-24 0,-36l-1 -59c0,-110 146,-153 264,-154l23 -47c9,-19 23,-28 31,-5 46,124 70,210 201,210l0 81c-32,0 -58,-3 -81,-9l0 0z"/>
 </g>
</svg>
