<?xml version="1.0" encoding="UTF-8"?>
<!DOCTYPE svg PUBLIC "-//W3C//DTD SVG 1.0//EN" "http://www.w3.org/TR/2001/REC-SVG-20010904/DTD/svg10.dtd">
<!-- Creator: CorelDRAW -->
<svg xmlns="http://www.w3.org/2000/svg" xml:space="preserve" width="1300px" height="1300px" version="1.0" style="shape-rendering:geometricPrecision; text-rendering:geometricPrecision; image-rendering:optimizeQuality; fill-rule:evenodd; clip-rule:evenodd"
viewBox="0 0 1300 1056"
 xmlns:xlink="http://www.w3.org/1999/xlink">
 <defs>
  <style type="text/css">
   <![CDATA[
    .fil2 {fill:#996633;fill-opacity:0.501961}
    .fil3 {fill:#999933;fill-opacity:0.501961}
    .fil0 {fill:#FF9933;fill-opacity:0.501961}
    .fil1 {fill:#99CCCC}
   ]]>
  </style>
 </defs>
 <g id="Layer_x0020_1" visibility="hidden">
  <metadata id="CorelCorpID_0Corel-Layer"/>
  <path class="fil0" d="M782 451l-22 -59c-72,128 -68,177 -201,177l0 81c156,0 150,-78 223,-199z"/>
  <path class="fil1" d="M559 569c-20,0 -41,19 -41,40 0,21 21,41 41,41l0 -81z"/>
  <path class="fil2" d="M964 534c-61,59 -167,39 -247,-39l-27 85c41,54 274,145 274,-46z"/>
  <path class="fil3" d="M760 392l22 59c35,-57 159,58 132,187l46 -69c31,-147 -124,-313 -200,-177z"/>
 </g>
 <g id="_100:master">
  <metadata id="CorelCorpID_1Corel-Layer"/>
  <path class="fil0" d="M738 519c71,47 128,68 179,31 -24,-74 -122,-131 -151,-83l0 0c-13,22 -19,35 -28,52zm-46 -9c19,-29 24,-53 53,-104 62,-122 265,0 210,163 -30,129 -191,80 -252,21 -27,37 -65,60 -134,60l0 0 0 0 0 0c-20,0 -40,-20 -40,-41 0,-20 20,-40 40,-40l0 0c50,0 95,-17 124,-59l-1 0z"/>
 </g>
</svg>
