<?xml version="1.0" encoding="UTF-8"?>
<!DOCTYPE svg PUBLIC "-//W3C//DTD SVG 1.0//EN" "http://www.w3.org/TR/2001/REC-SVG-20010904/DTD/svg10.dtd">
<!-- Creator: CorelDRAW -->
<svg xmlns="http://www.w3.org/2000/svg" xml:space="preserve" width="1300px" height="1300px" version="1.0" style="shape-rendering:geometricPrecision; text-rendering:geometricPrecision; image-rendering:optimizeQuality; fill-rule:evenodd; clip-rule:evenodd"
viewBox="0 0 1300 1056"
 xmlns:xlink="http://www.w3.org/1999/xlink">
 <defs>
  <style type="text/css">
   <![CDATA[
    .fil0 {fill:gray}
   ]]>
  </style>
 </defs>
 <g id="_100:master">
  <metadata id="CorelCorpID_0Corel-Layer"/>
  <path class="fil0" d="M884 462c-26,8 -49,16 -71,24 -27,140 86,211 125,85 -20,-29 -36,-66 -54,-109zm236 188c-63,0 -105,-11 -137,-33 -76,188 -282,91 -234,-108 -36,13 -61,25 -80,40l3 33 26 328c3,29 -22,41 -46,57 -16,10 -22,4 -22,-10l-12 -297c0,-4 0,-9 0,-13l0 1c-16,-170 47,-202 258,-259l12 -25c9,-19 23,-28 31,-5 46,124 70,210 201,210l0 81z"/>
 </g>
</svg>
