<?xml version="1.0" encoding="UTF-8"?>
<!DOCTYPE svg PUBLIC "-//W3C//DTD SVG 1.0//EN" "http://www.w3.org/TR/2001/REC-SVG-20010904/DTD/svg10.dtd">
<!-- Creator: CorelDRAW -->
<svg xmlns="http://www.w3.org/2000/svg" xml:space="preserve" width="1300px" height="1300px" version="1.0" style="shape-rendering:geometricPrecision; text-rendering:geometricPrecision; image-rendering:optimizeQuality; fill-rule:evenodd; clip-rule:evenodd"
viewBox="0 0 1300 1056"
 xmlns:xlink="http://www.w3.org/1999/xlink">
 <defs>
  <style type="text/css">
   <![CDATA[
    .fil1 {fill:#990000;fill-opacity:0.501961}
    .fil2 {fill:#CC9933;fill-opacity:0.501961}
    .fil3 {fill:#FF6633;fill-opacity:0.501961}
    .fil0 {fill:#99CCCC}
   ]]>
  </style>
 </defs>
 <g id="_100:master" visibility="hidden">
  <metadata id="CorelCorpID_0Corel-Layer"/>
  <path class="fil0" d="M559 569c-20,0 -41,19 -41,40 0,21 21,41 41,41l0 -81z"/>
  <path class="fil1" d="M768 467l-22 -61c-49,74 -57,163 -187,163l0 81c159,0 142,-103 209,-183z"/>
  <path class="fil2" d="M966 569l-37 -33c-70,100 -114,74 -218,-12l-47 61c127,105 194,162 302,-16z"/>
  <path class="fil3" d="M746 406l22 61c49,-59 129,183 324,183l0 -81c-206,0 -254,-298 -346,-163z"/>
 </g>
 <g id="Layer_x0020_1">
  <metadata id="CorelCorpID_1Corel-Layer"/>
  <path class="fil0" d="M871 604c-80,119 -140,87 -253,11 -43,29 -100,35 -151,35l0 -81c76,0 125,-18 153,-56l0 0c22,-26 36,-57 52,-82 52,-83 102,-28 165,36 47,48 89,102 171,102l0 81c-61,0 -103,-20 -137,-46zm-213 -59c79,55 126,83 176,26 -15,-14 -28,-29 -42,-42 -45,-44 -78,-74 -101,-37l-33 53zm-191 24l0 81c-20,0 -41,-20 -41,-41 1,-21 21,-40 41,-40z"/>
 </g>
</svg>
