<?xml version="1.0" encoding="UTF-8"?>
<!DOCTYPE svg PUBLIC "-//W3C//DTD SVG 1.0//EN" "http://www.w3.org/TR/2001/REC-SVG-20010904/DTD/svg10.dtd">
<!-- Creator: CorelDRAW -->
<svg xmlns="http://www.w3.org/2000/svg" xml:space="preserve" width="1300px" height="1300px" version="1.0" style="shape-rendering:geometricPrecision; text-rendering:geometricPrecision; image-rendering:optimizeQuality; fill-rule:evenodd; clip-rule:evenodd"
viewBox="0 0 1300 1056"
 xmlns:xlink="http://www.w3.org/1999/xlink">
 <defs>
  <style type="text/css">
   <![CDATA[
    .fil0 {fill:#33CC99;fill-opacity:0.501961}
   ]]>
  </style>
 </defs>
 <g id="_100:master">
  <metadata id="CorelCorpID_0Corel-Layer"/>
  <path class="fil0" d="M788 487c1,137 140,161 124,50 -10,-23 -19,-48 -28,-74 -36,8 -68,15 -96,24zm89 -101l11 -22c9,-19 21,-27 31,-5 64,151 69,210 174,210l27 0 0 81 -27 0c-63,0 -105,-17 -134,-44 -44,139 -242,99 -227,-99 -25,12 -47,24 -64,39l27 332c2,28 -23,41 -46,56 -16,11 -22,5 -23,-9l-12 -320c-17,-169 155,-200 263,-219z"/>
 </g>
</svg>
