<?xml version="1.0" encoding="UTF-8"?>
<!DOCTYPE svg PUBLIC "-//W3C//DTD SVG 1.0//EN" "http://www.w3.org/TR/2001/REC-SVG-20010904/DTD/svg10.dtd">
<!-- Creator: CorelDRAW -->
<svg xmlns="http://www.w3.org/2000/svg" xml:space="preserve" width="1300px" height="1300px" version="1.0" style="shape-rendering:geometricPrecision; text-rendering:geometricPrecision; image-rendering:optimizeQuality; fill-rule:evenodd; clip-rule:evenodd"
viewBox="0 0 1300 1056"
 xmlns:xlink="http://www.w3.org/1999/xlink">
 <defs>
  <style type="text/css">
   <![CDATA[
    .fil0 {fill:#33CC99;fill-opacity:0.501961}
   ]]>
  </style>
 </defs>
 <g id="_100:master">
  <metadata id="CorelCorpID_0Corel-Layer"/>
  <path class="fil0" d="M787 486c-1,149 148,166 102,22 -5,-14 -10,-28 -15,-42 -32,6 -61,13 -87,20zm86 -99l7 -15c9,-19 21,-27 31,-5 64,151 49,202 174,202l0 81c-71,0 -114,-19 -143,-51 -35,148 -225,108 -206,-95 -29,12 -53,26 -71,42l44 329c4,29 -21,43 -44,59 -15,11 -21,6 -22,-8l-30 -321 1 -1c-16,-166 151,-198 259,-217z"/>
 </g>
</svg>
