<?xml version="1.0" encoding="UTF-8"?>
<!DOCTYPE svg PUBLIC "-//W3C//DTD SVG 1.0//EN" "http://www.w3.org/TR/2001/REC-SVG-20010904/DTD/svg10.dtd">
<!-- Creator: CorelDRAW -->
<svg xmlns="http://www.w3.org/2000/svg" xml:space="preserve" width="1300px" height="1300px" version="1.0" style="shape-rendering:geometricPrecision; text-rendering:geometricPrecision; image-rendering:optimizeQuality; fill-rule:evenodd; clip-rule:evenodd"
viewBox="0 0 1300 1056"
 xmlns:xlink="http://www.w3.org/1999/xlink">
 <defs>
  <style type="text/css">
   <![CDATA[
    .fil6 {fill:black;fill-opacity:0.501961}
    .fil1 {fill:#990000;fill-opacity:0.501961}
    .fil4 {fill:#996633;fill-opacity:0.501961}
    .fil2 {fill:#CC9933;fill-opacity:0.501961}
    .fil3 {fill:#FF6633;fill-opacity:0.501961}
    .fil0 {fill:#99CCCC}
    .fil5 {fill:#FF6633}
   ]]>
  </style>
 </defs>
 <g id="_100:master" visibility="hidden">
  <metadata id="CorelCorpID_0Corel-Layer"/>
  <path class="fil0" d="M559 569c-20,0 -41,19 -41,40 0,21 21,41 41,41l0 -81z"/>
  <path class="fil1" d="M768 467l-22 -61c-49,74 -57,163 -187,163l0 81c159,0 142,-103 209,-183z"/>
  <path class="fil2" d="M966 569l-37 -33c-70,100 -114,74 -218,-12l-47 61c127,105 194,162 302,-16z"/>
  <path class="fil3" d="M746 406l22 61c49,-59 129,183 324,183l0 -81c-206,0 -254,-298 -346,-163z"/>
 </g>
 <g id="Layer_x0020_1" visibility="hidden">
  <metadata id="CorelCorpID_1Corel-Layer"/>
  <path class="fil0" d="M467 569c-20,0 -40,19 -41,40 0,21 21,41 41,41l0 -81z"/>
  <path class="fil3" d="M615 519l40 32 36 -59c23,-37 56,-7 101,37 53,51 102,121 216,121l0 -81c-82,0 -124,-54 -171,-102 -63,-64 -113,-119 -165,-36 -17,27 -32,61 -57,88z"/>
  <path class="fil4" d="M652 540l-50 64c127,86 188,126 275,-11l-32 -36c-55,77 -105,46 -193,-17z"/>
  <path class="fil5" d="M620 513c-28,38 -77,56 -153,56l0 81 3 0c86,0 164,-21 195,-93l-45 -44z"/>
 </g>
 <g id="Layer_x0020_2">
  <metadata id="CorelCorpID_2Corel-Layer"/>
  <path class="fil6" d="M748 526c28,22 97,58 137,58 59,1 -7,-133 -56,-145 -26,-6 -38,18 -52,41l-29 46zm214 -50c1,3 2,7 3,10 18,58 55,83 152,83l0 81c-66,-1 -124,-11 -160,-50 -18,38 -59,80 -138,55 -34,-11 -82,-36 -110,-58l0 0c-31,26 -78,53 -150,53l0 0 -1 0 0 0c-20,-1 -40,-20 -40,-41 0,-20 20,-39 39,-40l0 0c100,0 131,-41 162,-90l0 0 0 0 43 -69c15,-23 52,-77 109,-51 40,18 75,65 91,117l0 0z"/>
 </g>
</svg>
