<?xml version="1.0" encoding="UTF-8"?>
<!DOCTYPE svg PUBLIC "-//W3C//DTD SVG 1.0//EN" "http://www.w3.org/TR/2001/REC-SVG-20010904/DTD/svg10.dtd">
<!-- Creator: CorelDRAW -->
<svg xmlns="http://www.w3.org/2000/svg" xml:space="preserve" width="1300px" height="1300px" version="1.0" style="shape-rendering:geometricPrecision; text-rendering:geometricPrecision; image-rendering:optimizeQuality; fill-rule:evenodd; clip-rule:evenodd"
viewBox="0 0 1300 1056"
 xmlns:xlink="http://www.w3.org/1999/xlink">
 <defs>
  <style type="text/css">
   <![CDATA[
    .fil2 {fill:#996633;fill-opacity:0.501961}
    .fil3 {fill:#999933;fill-opacity:0.501961}
    .fil0 {fill:#FF9933;fill-opacity:0.501961}
    .fil4 {fill:gray}
    .fil1 {fill:#99CCCC}
   ]]>
  </style>
 </defs>
 <g id="Layer_x0020_1" visibility="hidden">
  <metadata id="CorelCorpID_0Corel-Layer"/>
  <path class="fil0" d="M782 451l-22 -59c-72,128 -68,177 -201,177l0 81c156,0 150,-78 223,-199z"/>
  <path class="fil1" d="M559 569c-20,0 -41,19 -41,40 0,21 21,41 41,41l0 -81z"/>
  <path class="fil2" d="M964 534c-61,59 -167,39 -247,-39l-27 85c41,54 274,145 274,-46z"/>
  <path class="fil3" d="M760 392l22 59c35,-57 159,58 132,187l46 -69c31,-147 -124,-313 -200,-177z"/>
 </g>
 <g id="_100:master" visibility="hidden">
  <metadata id="CorelCorpID_1Corel-Layer"/>
  <path class="fil0" d="M692 510l38 23c16,-27 21,-41 41,-74l-24 -59c-31,55 -35,80 -55,110z"/>
  <path class="fil1" d="M569 569c-20,0 -40,19 -40,40 0,21 20,41 40,41l0 -81z"/>
  <path class="fil2" d="M960 520c-5,6 -10,-3 -15,2 -64,78 -134,49 -230,-19l-16 83c64,67 262,127 261,-66z"/>
  <path class="fil3" d="M744 407l22 60c33,-55 157,27 156,115l32 -8c60,-167 -148,-292 -210,-167z"/>
  <path class="fil4" d="M738 520c-30,77 -64,130 -169,130l0 -81c60,0 113,-25 139,-87l30 38z"/>
 </g>
 <g id="Layer_x0020_2">
  <metadata id="CorelCorpID_2Corel-Layer"/>
  <path class="fil0" d="M738 519c68,46 126,74 170,43 -23,-75 -103,-144 -137,-103l0 0c-17,26 -23,41 -33,60zm-46 -9c19,-29 24,-53 52,-104 52,-101 196,-12 211,115l1 -1c15,207 -185,136 -253,70 -27,37 -65,60 -134,60l0 0 0 0 0 0c-20,0 -40,-20 -40,-41 0,-20 20,-40 40,-40l0 0c50,0 95,-17 124,-59l-1 0z"/>
 </g>
</svg>
