<?xml version="1.0" encoding="UTF-8"?>
<!DOCTYPE svg PUBLIC "-//W3C//DTD SVG 1.0//EN" "http://www.w3.org/TR/2001/REC-SVG-20010904/DTD/svg10.dtd">
<!-- Creator: CorelDRAW -->
<svg xmlns="http://www.w3.org/2000/svg" xml:space="preserve" width="1300px" height="1300px" version="1.0" style="shape-rendering:geometricPrecision; text-rendering:geometricPrecision; image-rendering:optimizeQuality; fill-rule:evenodd; clip-rule:evenodd"
viewBox="0 0 1300 1056"
 xmlns:xlink="http://www.w3.org/1999/xlink">
 <defs>
  <style type="text/css">
   <![CDATA[
    .fil3 {fill:#33CC99;fill-opacity:0.501961}
    .fil5 {fill:#663333;fill-opacity:0.501961}
    .fil2 {fill:#6666FF;fill-opacity:0.501961}
    .fil7 {fill:#6699FF;fill-opacity:0.501961}
    .fil4 {fill:#FF6633;fill-opacity:0.501961}
    .fil1 {fill:#FF9933;fill-opacity:0.501961}
    .fil0 {fill:gray}
    .fil6 {fill:yellow}
   ]]>
  </style>
 </defs>
 <g id="_100:master" visibility="hidden">
  <metadata id="CorelCorpID_0Corel-Layer"/>
  <path class="fil0" d="M1120 650l0 -81c-131,0 -155,-86 -201,-210 -8,-23 -22,-14 -31,5l-24 48c62,154 84,238 256,238z"/>
  <path class="fil1" d="M1001 551l-56 -13c-30,187 -190,82 -117,-102l-68 35c-93,246 189,368 241,80z"/>
  <path class="fil2" d="M668 532c-50,30 -52,77 -50,128l12 297c0,14 6,20 22,10 24,-16 49,-28 46,-57l-26 -328 -4 -50z"/>
  <path class="fil3" d="M894 458l8 -76c-232,61 -301,89 -284,266 1,-5 9,-3 11,-6 7,-7 11,-16 15,-25 9,-18 5,-52 23,-67 38,-30 107,-51 227,-92z"/>
 </g>
 <g id="Layer_x0020_1" visibility="hidden">
  <metadata id="CorelCorpID_1Corel-Layer"/>
  <path class="fil4" d="M1039 641l-10 -57c-74,-7 -144,79 -163,67 -40,-24 -45,-116 -48,-183l-72 27c7,77 14,191 68,224 18,10 40,16 57,8 49,-24 126,-97 161,-88l7 2z"/>
  <path class="fil0" d="M1120 650l0 -81c-104,0 -141,-54 -174,-138 -6,-15 -8,-25 -81,-18 62,154 83,237 255,237z"/>
  <path class="fil3" d="M910 411c-211,11 -325,60 -308,207 15,-82 152,-126 324,-131l-16 -76z"/>
  <path class="fil5" d="M601 580l59 -55c0,98 6,224 23,383 2,21 2,25 -21,44l-19 17c-14,11 -22,6 -23,-9 -18,-155 -21,-286 -19,-380z"/>
 </g>
 <g id="Layer_x0020_2" visibility="hidden">
  <metadata id="CorelCorpID_2Corel-Layer"/>
  <path class="fil6" d="M645 723c102,-171 128,-164 216,-252 33,-32 91,179 269,179l0 -81c-163,0 -194,-268 -295,-171 -139,135 -193,162 -192,237l2 88z"/>
  <path class="fil1" d="M814 503l-11 -67c-24,17 -43,47 -55,96 -19,77 66,163 113,183 65,30 129,-77 171,-154l-45 -18c-20,33 -52,108 -99,83 -45,-25 -96,-93 -74,-123z"/>
  <path class="fil5" d="M702 553c0,20 1,21 2,43 2,86 9,189 22,312 2,21 2,25 -21,44l-19 17c-14,11 -22,6 -23,-9 -14,-126 -19,-235 -20,-322 0,-39 37,-69 59,-85z"/>
 </g>
 <g id="Layer_x0020_3" visibility="hidden">
  <metadata id="CorelCorpID_3Corel-Layer"/>
  <path class="fil1" d="M834 490l17 -71c-45,0 -87,28 -113,101 -27,75 35,187 80,212 69,41 120,-59 185,-124l-41 -33c-52,59 -72,97 -107,71 -52,-36 -87,-158 -21,-156z"/>
  <path class="fil2" d="M619 648l15 34c0,-98 186,-190 211,-195 45,-8 116,163 295,163l0 -81c-134,0 -202,-180 -282,-161 -127,31 -241,128 -239,240z"/>
  <path class="fil5" d="M679 553c0,20 1,21 1,43 3,86 10,189 22,312 2,21 2,25 -21,44l-19 17c-13,11 -21,6 -23,-9 -14,-126 -19,-235 -19,-322l59 -85z"/>
 </g>
 <g id="Layer_x0020_4" visibility="hidden">
  <metadata id="CorelCorpID_4Corel-Layer"/>
  <path class="fil1" d="M884 411c-46,0 -87,44 -114,117 -27,75 36,188 81,212 68,42 120,-59 184,-124l-40 -33c-52,59 -73,97 -108,71 -48,-33 -80,-152 -35,-170 26,-11 24,-41 32,-73z"/>
  <path class="fil2" d="M644 589l2 69c0,-20 19,-39 34,-55 46,-50 185,-115 206,-116 44,0 43,163 246,163l0 -81 -11 0c-106,0 -138,-70 -169,-127 -22,-39 -43,-54 -91,-32 -178,81 -219,132 -217,179z"/>
  <path class="fil7" d="M699 543l20 314c2,21 5,23 -10,37l-31 27c-13,12 -23,8 -23,-8l-11 -322 55 -48z"/>
 </g>
 <g id="Layer_x0020_5">
  <metadata id="CorelCorpID_5Corel-Layer"/>
  <path class="fil0" d="M804 529l-4 1c-15,236 101,195 113,100 -40,-18 -75,-49 -109,-101zm224 121c-28,0 -52,-2 -76,-7 -9,240 -276,204 -197,-109 -40,5 -85,12 -120,28l19 295c2,21 -2,29 -10,37l-35 30c-11,10 -19,5 -19,-11l-11 -322 0 0 0 -2c-4,-114 136,-132 223,-141 7,-14 16,-25 27,-9 76,114 112,130 199,130l0 81z"/>
 </g>
</svg>
