<?xml version="1.0" encoding="UTF-8"?>
<!DOCTYPE svg PUBLIC "-//W3C//DTD SVG 1.0//EN" "http://www.w3.org/TR/2001/REC-SVG-20010904/DTD/svg10.dtd">
<!-- Creator: CorelDRAW -->
<svg xmlns="http://www.w3.org/2000/svg" xml:space="preserve" width="1300px" height="1300px" version="1.0" style="shape-rendering:geometricPrecision; text-rendering:geometricPrecision; image-rendering:optimizeQuality; fill-rule:evenodd; clip-rule:evenodd"
viewBox="0 0 1300 1056"
 xmlns:xlink="http://www.w3.org/1999/xlink">
 <defs>
  <style type="text/css">
   <![CDATA[
    .fil0 {fill:#33CC99;fill-opacity:0.501961}
   ]]>
  </style>
 </defs>
 <g id="_100:master">
  <metadata id="CorelCorpID_0Corel-Layer"/>
  <path class="fil0" d="M790 534c-2,108 76,129 101,114 26,-15 25,-60 -2,-115l0 -1c-4,-6 -7,-12 -11,-19 -33,7 -62,14 -88,21zm72 -96l17 -34c7,-15 16,-15 22,-3 6,13 12,24 18,35l0 0 3 6c45,89 73,127 155,127l0 81c-53,0 -91,-13 -120,-35 -6,72 -31,115 -82,120 -52,5 -141,-43 -134,-184 -31,12 -55,26 -75,42l43 317c4,29 -21,43 -44,59 -15,11 -21,6 -22,-8l-27 -293c-27,-173 135,-211 246,-230z"/>
 </g>
</svg>
