<?xml version="1.0" encoding="UTF-8"?>
<!DOCTYPE svg PUBLIC "-//W3C//DTD SVG 1.0//EN" "http://www.w3.org/TR/2001/REC-SVG-20010904/DTD/svg10.dtd">
<!-- Creator: CorelDRAW -->
<svg xmlns="http://www.w3.org/2000/svg" xml:space="preserve" width="1300px" height="1300px" version="1.0" style="shape-rendering:geometricPrecision; text-rendering:geometricPrecision; image-rendering:optimizeQuality; fill-rule:evenodd; clip-rule:evenodd"
viewBox="0 0 1300 1056"
 xmlns:xlink="http://www.w3.org/1999/xlink">
 <defs>
  <style type="text/css">
   <![CDATA[
    .fil2 {fill:#996633;fill-opacity:0.501961}
    .fil3 {fill:#999933;fill-opacity:0.501961}
    .fil0 {fill:#FF9933;fill-opacity:0.501961}
    .fil4 {fill:gray}
    .fil1 {fill:#99CCCC}
   ]]>
  </style>
 </defs>
 <g id="Layer_x0020_1" visibility="hidden">
  <metadata id="CorelCorpID_0Corel-Layer"/>
  <path class="fil0" d="M782 451l-22 -59c-72,128 -68,177 -201,177l0 81c156,0 150,-78 223,-199z"/>
  <path class="fil1" d="M559 569c-20,0 -41,19 -41,40 0,21 21,41 41,41l0 -81z"/>
  <path class="fil2" d="M964 534c-61,59 -167,39 -247,-39l-27 85c41,54 274,145 274,-46z"/>
  <path class="fil3" d="M760 392l22 59c35,-57 159,58 132,187l46 -69c31,-147 -124,-313 -200,-177z"/>
 </g>
 <g id="_100:master" visibility="hidden">
  <metadata id="CorelCorpID_1Corel-Layer"/>
  <path class="fil0" d="M692 510l38 23c16,-27 21,-41 41,-74l-24 -59c-31,55 -35,80 -55,110z"/>
  <path class="fil1" d="M569 569c-20,0 -40,19 -40,40 0,21 20,41 40,41l0 -81z"/>
  <path class="fil2" d="M960 520c-5,6 -10,-3 -15,2 -64,78 -134,49 -230,-19l-16 83c64,67 262,127 261,-66z"/>
  <path class="fil3" d="M744 407l22 60c33,-55 157,27 156,115l32 -8c60,-167 -148,-292 -210,-167z"/>
  <path class="fil4" d="M738 520c-30,77 -64,130 -169,130l0 -81c60,0 113,-25 139,-87l30 38z"/>
 </g>
 <g id="Layer_x0020_2" visibility="hidden">
  <metadata id="CorelCorpID_2Corel-Layer"/>
  <path class="fil1" d="M587 569c-20,0 -40,19 -40,40 -1,21 20,41 40,41l0 -81z"/>
  <path class="fil4" d="M752 530c-29,70 -66,120 -165,120l0 -81c51,0 98,-18 126,-63l39 24z"/>
  <path class="fil0" d="M710 510l40 23 27 -52c43,-83 165,71 132,157 33,-21 50,-73 46,-118 -10,-99 -134,-229 -201,-97l-44 87z"/>
  <path class="fil2" d="M954 520l-19 2c-48,73 -88,57 -205,-19l-28 76c93,64 245,144 252,-59z"/>
 </g>
 <g id="Layer_x0020_3">
  <metadata id="CorelCorpID_3Corel-Layer"/>
  <path class="fil1" d="M753 530c133,64 168,71 165,28 -6,-54 -85,-163 -130,-88l-35 60zm-183 39l0 0c51,0 111,-17 141,-60l64 -107c90,-149 272,68 185,212 -8,14 -17,27 -30,37l0 0 0 0c-45,35 -107,3 -221,-53 -31,32 -76,52 -138,52l0 0 -1 0 0 0c-20,0 -40,-20 -40,-41 1,-20 20,-40 40,-40z"/>
 </g>
</svg>
