<?xml version="1.0" encoding="UTF-8"?>
<!DOCTYPE svg PUBLIC "-//W3C//DTD SVG 1.0//EN" "http://www.w3.org/TR/2001/REC-SVG-20010904/DTD/svg10.dtd">
<!-- Creator: CorelDRAW -->
<svg xmlns="http://www.w3.org/2000/svg" xml:space="preserve" width="1300px" height="1300px" version="1.0" style="shape-rendering:geometricPrecision; text-rendering:geometricPrecision; image-rendering:optimizeQuality; fill-rule:evenodd; clip-rule:evenodd"
viewBox="0 0 1300 1056"
 xmlns:xlink="http://www.w3.org/1999/xlink">
 <defs>
  <style type="text/css">
   <![CDATA[
    .fil0 {fill:#99CCCC}
   ]]>
  </style>
 </defs>
 <g id="_100:master">
  <metadata id="CorelCorpID_0Corel-Layer"/>
  <path class="fil0" d="M726 537c82,66 125,89 179,29 -68,-63 -108,-134 -137,-99 -19,22 -31,46 -42,70zm-167 32l0 0c130,0 138,-89 187,-163 92,-135 140,163 346,163l0 81c-58,0 -106,-21 -146,-50 -90,130 -154,90 -260,4 -24,27 -59,46 -127,46l0 0c-20,0 -41,-20 -41,-41 0,-21 21,-40 41,-40z"/>
 </g>
</svg>
