<?xml version="1.0" encoding="UTF-8"?>
<!DOCTYPE svg PUBLIC "-//W3C//DTD SVG 1.0//EN" "http://www.w3.org/TR/2001/REC-SVG-20010904/DTD/svg10.dtd">
<!-- Creator: CorelDRAW -->
<svg xmlns="http://www.w3.org/2000/svg" xml:space="preserve" width="1300px" height="1300px" version="1.0" style="shape-rendering:geometricPrecision; text-rendering:geometricPrecision; image-rendering:optimizeQuality; fill-rule:evenodd; clip-rule:evenodd"
viewBox="0 0 1300 1056"
 xmlns:xlink="http://www.w3.org/1999/xlink">
 <defs>
  <style type="text/css">
   <![CDATA[
    .fil2 {fill:#996633;fill-opacity:0.501961}
    .fil3 {fill:#999933;fill-opacity:0.501961}
    .fil0 {fill:#FF9933;fill-opacity:0.501961}
    .fil1 {fill:#99CCCC}
   ]]>
  </style>
 </defs>
 <g id="Layer_x0020_1" visibility="hidden">
  <metadata id="CorelCorpID_0Corel-Layer"/>
  <path class="fil0" d="M782 451l-22 -59c-72,128 -68,177 -201,177l0 81c156,0 150,-78 223,-199z"/>
  <path class="fil1" d="M559 569c-20,0 -41,19 -41,40 0,21 21,41 41,41l0 -81z"/>
  <path class="fil2" d="M964 534c-61,59 -167,39 -247,-39l-27 85c41,54 274,145 274,-46z"/>
  <path class="fil3" d="M760 392l22 59c35,-57 159,58 132,187l46 -69c31,-147 -124,-313 -200,-177z"/>
 </g>
 <g id="_100:master">
  <metadata id="CorelCorpID_1Corel-Layer"/>
  <path class="fil0" d="M738 519c69,44 132,65 184,37 -20,-85 -121,-149 -148,-105 -17,27 -25,47 -36,68zm-46 -9c20,-30 29,-64 60,-119 62,-124 215,9 224,129l1 0 -1 2c2,18 0,35 -6,52l0 0c-36,123 -206,74 -267,16 -27,37 -65,60 -134,60l0 0 0 0 0 0c-20,0 -40,-20 -40,-41 0,-20 20,-40 40,-40l0 0c65,0 102,-27 124,-59l-1 0z"/>
 </g>
</svg>
