<?xml version="1.0" encoding="UTF-8"?>
<!DOCTYPE svg PUBLIC "-//W3C//DTD SVG 1.0//EN" "http://www.w3.org/TR/2001/REC-SVG-20010904/DTD/svg10.dtd">
<!-- Creator: CorelDRAW -->
<svg xmlns="http://www.w3.org/2000/svg" xml:space="preserve" width="1300px" height="1300px" version="1.0" style="shape-rendering:geometricPrecision; text-rendering:geometricPrecision; image-rendering:optimizeQuality; fill-rule:evenodd; clip-rule:evenodd"
viewBox="0 0 1300 1056"
 xmlns:xlink="http://www.w3.org/1999/xlink">
 <defs>
  <style type="text/css">
   <![CDATA[
    .fil0 {fill:#CCCC33}
   ]]>
  </style>
 </defs>
 <g id="_100:master">
  <metadata id="CorelCorpID_0Corel-Layer"/>
  <path class="fil0" d="M1116 283l9 38c2,11 -1,24 -17,29 -111,38 -218,41 -297,19 4,77 1,161 1,269 0,7 -4,12 -12,15l-31 12c-17,8 -22,-4 -21,-13 -1,-197 -3,-360 -92,-557 -6,-10 -1,-19 6,-27l46 -55c7,-8 15,-1 17,3 44,104 66,184 78,262 10,5 21,9 32,13 -19,-38 -30,-80 -30,-108 -2,-115 81,-232 287,-156 11,3 6,10 3,17l-18 50c-2,6 -8,8 -18,5 -73,-22 -182,-1 -183,78 0,54 31,94 70,124 50,-4 99,-18 139,-32 17,-5 29,5 31,14z"/>
 </g>
</svg>
