<?xml version="1.0" encoding="UTF-8"?>
<!DOCTYPE svg PUBLIC "-//W3C//DTD SVG 1.0//EN" "http://www.w3.org/TR/2001/REC-SVG-20010904/DTD/svg10.dtd">
<!-- Creator: CorelDRAW -->
<svg xmlns="http://www.w3.org/2000/svg" xml:space="preserve" width="1300px" height="1300px" version="1.0" style="shape-rendering:geometricPrecision; text-rendering:geometricPrecision; image-rendering:optimizeQuality; fill-rule:evenodd; clip-rule:evenodd"
viewBox="0 0 1300 1056"
 xmlns:xlink="http://www.w3.org/1999/xlink">
 <defs>
  <style type="text/css">
   <![CDATA[
    .fil6 {fill:black;fill-opacity:0.501961}
    .fil1 {fill:#996633;fill-opacity:0.549020}
    .fil3 {fill:#999966;fill-opacity:0.549020}
    .fil5 {fill:red;fill-opacity:0.549020}
    .fil7 {fill:#663333}
    .fil2 {fill:gray}
    .fil0 {fill:#9900CC}
    .fil4 {fill:#FF6633}
   ]]>
  </style>
 </defs>
 <g id="Layer_x0020_1" visibility="hidden">
  <metadata id="CorelCorpID_0Corel-Layer"/>
  <path class="fil0" d="M899 519l59 11c22,24 62,39 131,39l-1 81c-129,0 -180,-54 -189,-131z"/>
  <path class="fil1" d="M942 407l-62 53 35 271c-52,44 -119,81 -225,82 -138,0 -223,-86 -129,-350l-33 -9c-138,310 -12,440 161,441 117,0 269,-66 284,-207 4,-38 -21,-218 -31,-281z"/>
 </g>
 <g id="Layer_x0020_2" visibility="hidden">
  <metadata id="CorelCorpID_1Corel-Layer"/>
  <path class="fil2" d="M935 591c12,15 28,28 49,37l0 0c26,14 61,22 117,22l0 -81c-41,0 -73,-8 -100,-16 -29,-8 -46,-46 -59,-84 -48,35 -11,88 -7,122z"/>
  <path class="fil1" d="M913 703c11,-43 -35,-187 -52,-238l62 -53c25,70 60,183 52,245 -16,123 -163,236 -312,237 -152,0 -286,-98 -150,-437l48 19c-95,223 -38,337 101,337 85,0 194,-49 251,-110z"/>
 </g>
 <g id="Layer_x0020_3" visibility="hidden">
  <metadata id="CorelCorpID_2Corel-Layer"/>
  <path class="fil3" d="M975 624c19,351 -674,405 -476,-112 3,-8 9,-12 19,-9l25 10c8,4 10,11 6,20 -136,357 285,321 367,155 4,-38 -33,-164 -48,-209 -4,-12 2,-18 6,-22l40 -35c10,-8 16,0 18,6 22,64 40,135 43,196z"/>
  <path class="fil4" d="M932 428l-13 128c34,76 111,94 187,94l0 -81c-126,0 -152,-70 -174,-141z"/>
 </g>
 <g id="Layer_x0020_4" visibility="hidden">
  <metadata id="CorelCorpID_3Corel-Layer"/>
  <path class="fil5" d="M975 667c-45,302 -708,359 -476,-179 4,-8 9,-13 19,-9l25 10c8,3 10,11 6,20 -162,377 252,345 366,182 4,-39 -37,-169 -64,-226 -3,-12 2,-18 7,-22l40 -34c10,-9 16,0 18,5 28,63 69,183 59,253z"/>
  <path class="fil4" d="M931 451l-7 105c34,76 99,94 174,94l0 -81c-126,0 -149,-78 -167,-118z"/>
 </g>
 <g id="Layer_x0020_5" visibility="hidden">
  <metadata id="CorelCorpID_4Corel-Layer"/>
  <path class="fil4" d="M617 735c98,-78 49,-199 19,-287 -2,-6 -8,-14 -18,-6l-40 35c-4,4 -10,10 -7,22 38,99 56,185 46,236z"/>
  <path class="fil5" d="M626 666l48 -72c40,174 -113,300 -292,300 -134,0 -260,-98 -153,-366 3,-7 6,-13 16,-9l13 6c8,3 9,10 6,19 -150,382 345,293 362,122z"/>
  <path class="fil6" d="M654 502l-31 69c31,63 100,78 179,79l0 -81c-82,-1 -129,-14 -143,-52 -1,-5 -3,-9 -5,-15z"/>
 </g>
 <g id="Layer_x0020_6">
  <metadata id="CorelCorpID_5Corel-Layer"/>
  <path class="fil7" d="M975 625c0,171 -153,269 -288,269 -141,0 -261,-106 -165,-347 3,-6 7,-10 15,-6l17 8c6,3 6,6 3,13 -65,187 33,251 132,251 103,-1 223,-74 226,-150 2,-28 -20,-107 -39,-156 -5,-12 2,-18 7,-22l40 -35c6,-5 14,-4 18,6 3,10 6,21 9,30l0 0c15,41 44,83 119,83l26 0 0 81 -30 0c-39,0 -68,-9 -90,-23l0 -2 0 0z"/>
 </g>
</svg>
