<?xml version="1.0" encoding="UTF-8"?>
<!DOCTYPE svg PUBLIC "-//W3C//DTD SVG 1.0//EN" "http://www.w3.org/TR/2001/REC-SVG-20010904/DTD/svg10.dtd">
<!-- Creator: CorelDRAW -->
<svg xmlns="http://www.w3.org/2000/svg" xml:space="preserve" width="1300px" height="1300px" version="1.0" style="shape-rendering:geometricPrecision; text-rendering:geometricPrecision; image-rendering:optimizeQuality; fill-rule:evenodd; clip-rule:evenodd"
viewBox="0 0 1300 1056"
 xmlns:xlink="http://www.w3.org/1999/xlink">
 <defs>
  <style type="text/css">
   <![CDATA[
    .fil0 {fill:#999933;fill-opacity:0.501961}
   ]]>
  </style>
 </defs>
 <g id="_100:master">
  <metadata id="CorelCorpID_0Corel-Layer"/>
  <path class="fil0" d="M796 638c0,7 -4,12 -13,15l-30 12c-17,8 -22,-4 -22,-13 2,-327 -32,-425 -75,-541 -6,-10 0,-18 6,-27l46 -71c6,-9 15,-1 17,3 14,45 25,82 34,114 20,57 52,98 116,98 110,2 80,-95 60,-158 -4,-10 -1,-15 5,-18l41 -27c6,-4 14,-8 17,3 78,205 -14,297 -128,297 -25,0 -53,-6 -79,-17 5,72 5,168 5,330z"/>
 </g>
</svg>
