<?xml version="1.0" encoding="UTF-8"?>
<!DOCTYPE svg PUBLIC "-//W3C//DTD SVG 1.0//EN" "http://www.w3.org/TR/2001/REC-SVG-20010904/DTD/svg10.dtd">
<!-- Creator: CorelDRAW -->
<svg xmlns="http://www.w3.org/2000/svg" xml:space="preserve" width="1300px" height="1300px" version="1.0" style="shape-rendering:geometricPrecision; text-rendering:geometricPrecision; image-rendering:optimizeQuality; fill-rule:evenodd; clip-rule:evenodd"
viewBox="0 0 1300 1056"
 xmlns:xlink="http://www.w3.org/1999/xlink">
 <defs>
  <style type="text/css">
   <![CDATA[
    .fil0 {fill:#663333;fill-opacity:0.501961}
   ]]>
  </style>
 </defs>
 <g id="_100:master">
  <metadata id="CorelCorpID_0Corel-Layer"/>
  <path class="fil0" d="M772 102c-2,139 -98,346 -175,478 -10,15 -5,18 7,35l29 45c10,15 21,6 26,-6 56,-117 121,-263 145,-377 25,114 90,260 146,377 6,12 17,21 26,6l27 -44c11,-18 20,-21 10,-36 -91,-152 -172,-322 -176,-478 -1,-6 -29,-21 -48,-21 -11,0 -16,8 -17,21z"/>
 </g>
</svg>
