<?xml version="1.0" encoding="UTF-8"?>
<!DOCTYPE svg PUBLIC "-//W3C//DTD SVG 1.0//EN" "http://www.w3.org/TR/2001/REC-SVG-20010904/DTD/svg10.dtd">
<!-- Creator: CorelDRAW -->
<svg xmlns="http://www.w3.org/2000/svg" xml:space="preserve" width="1300px" height="1300px" version="1.0" style="shape-rendering:geometricPrecision; text-rendering:geometricPrecision; image-rendering:optimizeQuality; fill-rule:evenodd; clip-rule:evenodd"
viewBox="0 0 1300 1056"
 xmlns:xlink="http://www.w3.org/1999/xlink">
 <defs>
  <style type="text/css">
   <![CDATA[
    .fil0 {fill:fuchsia}
   ]]>
  </style>
 </defs>
 <g id="_100:master">
  <metadata id="CorelCorpID_0Corel-Layer"/>
  <path class="fil0" d="M1005 77c61,242 -115,332 -232,254 8,91 8,191 7,315 0,12 -64,47 -65,0 0,-131 0,-289 -64,-502 -5,-17 -2,-21 22,-42l25 -22c15,-12 22,-7 26,7 1,2 2,5 3,8l1 -2c1,5 2,9 3,14 4,16 9,31 13,46 61,166 240,130 197,-34 -3,-10 0,-15 5,-19l41 -26c7,-4 14,-8 18,3z"/>
 </g>
</svg>
