<?xml version="1.0" encoding="UTF-8"?>
<!DOCTYPE svg PUBLIC "-//W3C//DTD SVG 1.0//EN" "http://www.w3.org/TR/2001/REC-SVG-20010904/DTD/svg10.dtd">
<!-- Creator: CorelDRAW -->
<svg xmlns="http://www.w3.org/2000/svg" xml:space="preserve" width="1300px" height="1300px" version="1.0" style="shape-rendering:geometricPrecision; text-rendering:geometricPrecision; image-rendering:optimizeQuality; fill-rule:evenodd; clip-rule:evenodd"
viewBox="0 0 1300 1056"
 xmlns:xlink="http://www.w3.org/1999/xlink">
 <defs>
  <style type="text/css">
   <![CDATA[
    .fil0 {fill:fuchsia}
   ]]>
  </style>
 </defs>
 <g id="_100:master">
  <metadata id="CorelCorpID_0Corel-Layer"/>
  <path class="fil0" d="M1096 310c-93,49 -182,51 -259,15l0 0 0 0c-18,-8 -36,-19 -52,-32 13,109 13,216 11,345 0,7 -4,12 -13,15l-30 12c-17,8 -22,-4 -22,-13 1,-246 -32,-425 -75,-541 -6,-10 0,-18 6,-27l46 -71c6,-9 15,-1 17,3 7,24 14,48 20,71 9,26 21,49 35,69 3,-80 48,-152 150,-154 59,-1 122,21 162,66 9,5 3,11 -1,17l-18 27c-4,5 -10,7 -19,1 -175,-106 -241,49 -180,132 56,30 122,34 191,7 10,-4 17,-3 19,3l13 38c2,7 9,12 -1,17z"/>
 </g>
</svg>
