<?xml version="1.0" encoding="UTF-8"?>
<!DOCTYPE svg PUBLIC "-//W3C//DTD SVG 1.0//EN" "http://www.w3.org/TR/2001/REC-SVG-20010904/DTD/svg10.dtd">
<!-- Creator: CorelDRAW -->
<svg xmlns="http://www.w3.org/2000/svg" xml:space="preserve" width="1300px" height="1300px" version="1.0" style="shape-rendering:geometricPrecision; text-rendering:geometricPrecision; image-rendering:optimizeQuality; fill-rule:evenodd; clip-rule:evenodd"
viewBox="0 0 1300 1056"
 xmlns:xlink="http://www.w3.org/1999/xlink">
 <defs>
  <style type="text/css">
   <![CDATA[
    .fil5 {fill:#000066;fill-opacity:0.549020}
    .fil0 {fill:#996633;fill-opacity:0.549020}
    .fil1 {fill:#999966;fill-opacity:0.549020}
    .fil3 {fill:red;fill-opacity:0.549020}
    .fil4 {fill:#336699}
    .fil2 {fill:#FF6633}
   ]]>
  </style>
 </defs>
 <g id="_100:master" visibility="hidden">
  <metadata id="CorelCorpID_0Corel-Layer"/>
  <path class="fil0" d="M942 407l-62 53 35 271c-52,44 -119,81 -225,82 -138,0 -223,-86 -129,-350l-33 -9c-138,310 -12,440 161,441 117,0 269,-66 284,-207 4,-38 -21,-218 -31,-281z"/>
 </g>
 <g id="Layer_x0020_3" visibility="hidden">
  <metadata id="CorelCorpID_1Corel-Layer"/>
  <path class="fil0" d="M941 407l-61 53 34 271c-217,166 -508,90 -363,-254l-49 -19c-258,615 505,473 474,220l-35 -271z"/>
 </g>
 <g id="Layer_x0020_4" visibility="hidden">
  <metadata id="CorelCorpID_2Corel-Layer"/>
  <path class="fil1" d="M913 709c11,-39 -29,-168 -48,-228 -4,-13 -1,-20 7,-27l39 -33c4,-4 11,-5 14,3 25,70 55,183 50,242 -22,306 -678,355 -458,-185 3,-8 11,-13 18,-10l24 10c6,2 10,10 6,19 -167,426 296,329 348,209z"/>
 </g>
 <g id="Layer_x0020_5" visibility="hidden">
  <metadata id="CorelCorpID_3Corel-Layer"/>
  <path class="fil1" d="M916 688l59 -64c49,286 -650,481 -459,-144 2,-8 8,-13 18,-9l26 10c8,3 9,10 6,19 -144,426 279,329 350,188z"/>
  <path class="fil2" d="M916 688l34 54c47,-66 21,-200 -18,-314 -2,-6 -8,-14 -18,-6l-40 35c-4,4 -10,10 -6,22 15,45 52,171 48,209z"/>
 </g>
 <g id="Layer_x0020_6" visibility="hidden">
  <metadata id="CorelCorpID_4Corel-Layer"/>
  <path class="fil3" d="M975 667c-45,302 -708,359 -476,-179 4,-8 9,-13 19,-9l25 10c8,3 10,11 6,20 -162,377 252,345 366,182 4,-39 -37,-169 -64,-226 -3,-12 2,-18 7,-22l40 -34c10,-9 16,0 18,5 28,63 69,183 59,253z"/>
 </g>
 <g id="Layer_x0020_7" visibility="hidden">
  <metadata id="CorelCorpID_5Corel-Layer"/>
  <path class="fil3" d="M975 667c-45,302 -708,359 -476,-179 4,-8 9,-13 19,-9l25 10c8,3 10,11 6,20 -162,377 252,345 366,182 4,-39 -37,-169 -64,-226 -3,-12 2,-18 7,-22l40 -34c10,-9 16,0 18,5 28,63 69,183 59,253z"/>
 </g>
 <g id="Layer_x0020_8" visibility="hidden">
  <metadata id="CorelCorpID_6Corel-Layer"/>
  <path class="fil3" d="M918 650l45 -100c3,21 10,66 10,83 0,145 -139,261 -299,261 -133,0 -260,-98 -153,-366 3,-7 7,-13 16,-9l13 6c8,3 10,10 6,19 -77,197 17,269 128,269 105,0 226,-80 234,-163z"/>
  <path class="fil4" d="M910 666c1,25 -3,49 -5,73l66 -115c0,-62 -23,-145 -45,-201 -2,-5 -8,-13 -18,-5l-40 35c-4,3 -10,9 -6,22 28,74 45,141 48,191z"/>
 </g>
 <g id="Layer_x0020_9">
  <metadata id="CorelCorpID_7Corel-Layer"/>
  <path class="fil5" d="M975 650c-8,152 -157,242 -287,243 -142,0 -274,-90 -158,-346 3,-6 7,-10 15,-6l17 8c6,3 6,7 4,13 -58,137 -44,251 131,249 93,-1 198,-53 220,-132 -1,-60 -32,-127 -55,-175 -4,-8 0,-16 7,-22l40 -35c8,-7 15,0 17,6 29,61 52,128 49,197z"/>
 </g>
</svg>
