<?xml version="1.0" encoding="UTF-8"?>
<!DOCTYPE svg PUBLIC "-//W3C//DTD SVG 1.0//EN" "http://www.w3.org/TR/2001/REC-SVG-20010904/DTD/svg10.dtd">
<!-- Creator: CorelDRAW -->
<svg xmlns="http://www.w3.org/2000/svg" xml:space="preserve" width="1300px" height="1300px" version="1.0" style="shape-rendering:geometricPrecision; text-rendering:geometricPrecision; image-rendering:optimizeQuality; fill-rule:evenodd; clip-rule:evenodd"
viewBox="0 0 1300 1056"
 xmlns:xlink="http://www.w3.org/1999/xlink">
 <defs>
  <style type="text/css">
   <![CDATA[
    .fil0 {fill:black;fill-opacity:0.501961}
   ]]>
  </style>
 </defs>
 <g id="_100:master">
  <metadata id="CorelCorpID_0Corel-Layer"/>
  <path class="fil0" d="M836 292c-5,-59 -21,-125 -72,-130 -33,0 -74,57 -70,95 6,53 70,60 142,35zm-62 -211c116,0 135,137 134,275 7,77 23,151 55,234 6,17 0,19 -13,34l-32 38c-12,14 -22,7 -26,-6 -34,-106 -47,-175 -53,-281 -91,31 -198,21 -205,-110 -6,-85 48,-184 140,-184z"/>
 </g>
</svg>
