<?xml version="1.0" encoding="UTF-8"?>
<!DOCTYPE svg PUBLIC "-//W3C//DTD SVG 1.0//EN" "http://www.w3.org/TR/2001/REC-SVG-20010904/DTD/svg10.dtd">
<!-- Creator: CorelDRAW -->
<svg xmlns="http://www.w3.org/2000/svg" xml:space="preserve" width="1300px" height="1300px" version="1.0" style="shape-rendering:geometricPrecision; text-rendering:geometricPrecision; image-rendering:optimizeQuality; fill-rule:evenodd; clip-rule:evenodd"
viewBox="0 0 1300 1056"
 xmlns:xlink="http://www.w3.org/1999/xlink">
 <defs>
  <style type="text/css">
   <![CDATA[
    .fil0 {fill:#663333;fill-opacity:0.501961}
   ]]>
  </style>
 </defs>
 <g id="_100:master">
  <metadata id="CorelCorpID_0Corel-Layer"/>
  <path class="fil0" d="M772 646c-2,-138 -98,-345 -175,-477 -10,-16 -5,-19 7,-36l29 -44c10,-15 21,-7 26,6 56,116 121,262 145,376 25,-114 90,-260 146,-376 6,-13 17,-22 26,-6l27 44c11,17 20,20 10,36 -91,151 -172,322 -176,477 -1,6 -29,22 -48,22 -11,0 -16,-9 -17,-22z"/>
 </g>
</svg>
