<?xml version="1.0" encoding="UTF-8"?>
<!DOCTYPE svg PUBLIC "-//W3C//DTD SVG 1.0//EN" "http://www.w3.org/TR/2001/REC-SVG-20010904/DTD/svg10.dtd">
<!-- Creator: CorelDRAW -->
<svg xmlns="http://www.w3.org/2000/svg" xml:space="preserve" width="1300px" height="1300px" version="1.0" style="shape-rendering:geometricPrecision; text-rendering:geometricPrecision; image-rendering:optimizeQuality; fill-rule:evenodd; clip-rule:evenodd"
viewBox="0 0 1300 1056"
 xmlns:xlink="http://www.w3.org/1999/xlink">
 <defs>
  <style type="text/css">
   <![CDATA[
    .fil0 {fill:#663333;fill-opacity:0.501961}
   ]]>
  </style>
 </defs>
 <g id="_100:master">
  <metadata id="CorelCorpID_0Corel-Layer"/>
  <path class="fil0" d="M715 646c0,-191 2,-321 -62,-485 -6,-17 0,-19 13,-34l32 -38c12,-14 22,-7 26,6 3,6 4,12 6,18l0 0 1 1c7,23 12,43 18,63 34,85 90,89 132,72 31,-12 49,-49 35,-114 -2,-10 0,-15 5,-18l41 -27c7,-4 14,-8 17,3 15,55 17,101 11,138 34,25 72,22 99,10 30,-13 49,-49 35,-114 -2,-10 0,-15 5,-19l41 -26c7,-4 14,-8 17,3 37,144 -5,224 -69,251 -53,22 -120,23 -171,-16 -11,10 -23,18 -37,24 -44,19 -93,23 -135,1 5,74 5,164 5,301 0,12 -64,47 -65,0z"/>
 </g>
</svg>
