<?xml version="1.0" encoding="UTF-8"?>
<!DOCTYPE svg PUBLIC "-//W3C//DTD SVG 1.0//EN" "http://www.w3.org/TR/2001/REC-SVG-20010904/DTD/svg10.dtd">
<!-- Creator: CorelDRAW -->
<svg xmlns="http://www.w3.org/2000/svg" xml:space="preserve" width="1300px" height="1300px" version="1.0" style="shape-rendering:geometricPrecision; text-rendering:geometricPrecision; image-rendering:optimizeQuality; fill-rule:evenodd; clip-rule:evenodd"
viewBox="0 0 1300 1056"
 xmlns:xlink="http://www.w3.org/1999/xlink">
 <defs>
  <style type="text/css">
   <![CDATA[
    .fil0 {fill:#999933;fill-opacity:0.501961}
   ]]>
  </style>
 </defs>
 <g id="_100:master">
  <metadata id="CorelCorpID_0Corel-Layer"/>
  <path class="fil0" d="M843 445c32,-145 78,-271 154,-425 2,-3 12,-9 17,0l34 78c5,9 9,18 2,27 -60,106 -170,304 -172,508 0,17 -70,49 -70,18 0,-8 0,-16 0,-18 -1,-204 -112,-402 -172,-508 -7,-9 -3,-18 2,-27l34 -78c4,-9 15,-3 17,0 76,154 122,280 154,425z"/>
 </g>
</svg>
