<?xml version="1.0" encoding="UTF-8"?>
<!DOCTYPE svg PUBLIC "-//W3C//DTD SVG 1.0//EN" "http://www.w3.org/TR/2001/REC-SVG-20010904/DTD/svg10.dtd">
<!-- Creator: CorelDRAW -->
<svg xmlns="http://www.w3.org/2000/svg" xml:space="preserve" width="1300px" height="1300px" version="1.0" style="shape-rendering:geometricPrecision; text-rendering:geometricPrecision; image-rendering:optimizeQuality; fill-rule:evenodd; clip-rule:evenodd"
viewBox="0 0 1300 1056"
 xmlns:xlink="http://www.w3.org/1999/xlink">
 <defs>
  <style type="text/css">
   <![CDATA[
    .fil0 {fill:#999933;fill-opacity:0.501961}
   ]]>
  </style>
 </defs>
 <g id="_100:master">
  <metadata id="CorelCorpID_0Corel-Layer"/>
  <path class="fil0" d="M812 638c0,7 -4,12 -12,15l-31 12c-17,8 -22,-4 -21,-13 -1,-197 -3,-360 -92,-557 -6,-10 -1,-19 6,-27l46 -55c7,-8 15,-1 17,3 21,50 37,94 50,136 16,45 36,76 92,76 110,2 71,-95 51,-158 -3,-10 0,-15 6,-18l41 -27c6,-4 13,-8 17,3 27,70 34,128 28,172 13,5 27,7 44,7 110,1 71,-95 51,-158 -3,-10 0,-15 6,-19l41 -26c6,-4 13,-8 17,3 77,205 -6,297 -121,296 -26,0 -53,-6 -77,-19 -27,27 -66,41 -109,41 -19,0 -37,-4 -55,-10 10,94 5,189 5,323z"/>
 </g>
</svg>
