<?xml version="1.0" encoding="UTF-8"?>
<!DOCTYPE svg PUBLIC "-//W3C//DTD SVG 1.0//EN" "http://www.w3.org/TR/2001/REC-SVG-20010904/DTD/svg10.dtd">
<!-- Creator: CorelDRAW -->
<svg xmlns="http://www.w3.org/2000/svg" xml:space="preserve" width="1300px" height="1300px" version="1.0" style="shape-rendering:geometricPrecision; text-rendering:geometricPrecision; image-rendering:optimizeQuality; fill-rule:evenodd; clip-rule:evenodd"
viewBox="0 0 1300 1056"
 xmlns:xlink="http://www.w3.org/1999/xlink">
 <defs>
  <style type="text/css">
   <![CDATA[
    .fil0 {fill:fuchsia}
   ]]>
  </style>
 </defs>
 <g id="_100:master">
  <metadata id="CorelCorpID_0Corel-Layer"/>
  <path class="fil0" d="M996 93c37,144 -5,224 -70,251 -47,20 -103,23 -151,-3 5,74 5,165 5,305 0,12 -64,47 -65,0 0,-191 2,-321 -62,-485 -6,-17 0,-19 13,-34l32 -38c12,-14 22,-7 26,6 3,6 4,12 6,18l0 0 1 1c6,20 11,38 16,56 37,92 107,97 150,79 31,-12 49,-49 35,-114 -2,-10 0,-15 5,-18l42 -27c6,-4 13,-8 17,3z"/>
 </g>
</svg>
