<?xml version="1.0" encoding="UTF-8"?>
<!DOCTYPE svg PUBLIC "-//W3C//DTD SVG 1.0//EN" "http://www.w3.org/TR/2001/REC-SVG-20010904/DTD/svg10.dtd">
<!-- Creator: CorelDRAW -->
<svg xmlns="http://www.w3.org/2000/svg" xml:space="preserve" width="1300px" height="1300px" version="1.0" style="shape-rendering:geometricPrecision; text-rendering:geometricPrecision; image-rendering:optimizeQuality; fill-rule:evenodd; clip-rule:evenodd"
viewBox="0 0 1300 1056"
 xmlns:xlink="http://www.w3.org/1999/xlink">
 <defs>
  <style type="text/css">
   <![CDATA[
    .fil0 {fill:#663333;fill-opacity:0.501961}
   ]]>
  </style>
 </defs>
 <g id="_100:master">
  <metadata id="CorelCorpID_0Corel-Layer"/>
  <path class="fil0" d="M715 646c0,-191 2,-321 -62,-485 -6,-17 0,-19 13,-34l32 -38c12,-14 22,-7 26,6 18,54 30,98 38,142 13,18 27,33 42,45 -18,-58 -14,-123 20,-170 50,-87 188,-83 258,-20 12,10 13,13 11,19l-8 21c-3,8 -6,10 -22,6 -62,-17 -162,-24 -197,29 -1,62 19,113 54,153 49,1 105,-10 170,-32 18,-5 34,-12 26,17l-11 36c-12,40 -202,104 -328,35 3,68 3,152 3,270 0,12 -64,47 -65,0z"/>
 </g>
</svg>
