<?xml version="1.0" encoding="UTF-8"?>
<!DOCTYPE svg PUBLIC "-//W3C//DTD SVG 1.0//EN" "http://www.w3.org/TR/2001/REC-SVG-20010904/DTD/svg10.dtd">
<!-- Creator: CorelDRAW -->
<svg xmlns="http://www.w3.org/2000/svg" xml:space="preserve" width="1300px" height="1300px" version="1.0" style="shape-rendering:geometricPrecision; text-rendering:geometricPrecision; image-rendering:optimizeQuality; fill-rule:evenodd; clip-rule:evenodd"
viewBox="0 0 1300 1056"
 xmlns:xlink="http://www.w3.org/1999/xlink">
 <defs>
  <style type="text/css">
   <![CDATA[
    .fil0 {fill:#999933;fill-opacity:0.501961}
   ]]>
  </style>
 </defs>
 <g id="_100:master">
  <metadata id="CorelCorpID_0Corel-Layer"/>
  <path class="fil0" d="M480 630c95,-103 159,-177 234,-241 -174,-144 -128,-450 212,-378 12,-1 11,7 9,15l-11 56c-1,6 -5,13 -15,11 -279,-40 -245,163 -125,243 50,-34 109,-66 185,-100 4,-2 15,-1 14,9l-3 72c-1,11 -4,20 -14,23 -200,83 -314,200 -449,344 -5,7 -17,12 -25,-5l-13 -30c-4,-8 -4,-14 1,-19z"/>
 </g>
</svg>
