<?xml version="1.0" encoding="UTF-8"?>
<!DOCTYPE svg PUBLIC "-//W3C//DTD SVG 1.0//EN" "http://www.w3.org/TR/2001/REC-SVG-20010904/DTD/svg10.dtd">
<!-- Creator: CorelDRAW -->
<svg xmlns="http://www.w3.org/2000/svg" xml:space="preserve" width="1300px" height="1300px" version="1.0" style="shape-rendering:geometricPrecision; text-rendering:geometricPrecision; image-rendering:optimizeQuality; fill-rule:evenodd; clip-rule:evenodd"
viewBox="0 0 1300 1056"
 xmlns:xlink="http://www.w3.org/1999/xlink">
 <defs>
  <style type="text/css">
   <![CDATA[
    .fil0 {fill:#999933;fill-opacity:0.501961}
   ]]>
  </style>
 </defs>
 <g id="_100:master">
  <metadata id="CorelCorpID_0Corel-Layer"/>
  <path class="fil0" d="M461 619c74,-94 138,-173 209,-245 -222,-43 -259,-378 115,-373 10,-4 11,4 14,11l11 30c3,6 1,14 -9,16 -410,109 -122,269 -28,223 40,-34 85,-67 135,-101 3,-2 16,-2 15,8l-9 85c-1,10 -2,20 -12,24 -42,25 -89,59 -140,102 -78,66 -166,156 -259,272 -5,6 -16,13 -25,-4l-16 -29c-5,-7 -5,-14 -1,-19z"/>
 </g>
</svg>
