<?xml version="1.0" encoding="UTF-8"?>
<!DOCTYPE svg PUBLIC "-//W3C//DTD SVG 1.0//EN" "http://www.w3.org/TR/2001/REC-SVG-20010904/DTD/svg10.dtd">
<!-- Creator: CorelDRAW -->
<svg xmlns="http://www.w3.org/2000/svg" xml:space="preserve" width="1300px" height="1300px" version="1.0" style="shape-rendering:geometricPrecision; text-rendering:geometricPrecision; image-rendering:optimizeQuality; fill-rule:evenodd; clip-rule:evenodd"
viewBox="0 0 1300 1056"
 xmlns:xlink="http://www.w3.org/1999/xlink">
 <defs>
  <style type="text/css">
   <![CDATA[
    .fil0 {fill:red}
   ]]>
  </style>
 </defs>
 <g id="_100:master">
  <metadata id="CorelCorpID_0Corel-Layer"/>
  <path class="fil0" d="M966 282c-29,29 -70,43 -114,43 -22,0 -44,-5 -65,-14 11,103 11,205 9,327 0,7 -4,12 -13,15l-30 12c-17,8 -22,-4 -22,-13 1,-246 -32,-425 -75,-541 -6,-10 0,-18 6,-27l46 -71c6,-9 15,-1 17,3 10,35 19,68 27,100 20,64 36,112 105,112 110,2 80,-95 60,-158 -4,-10 -1,-15 5,-18l41 -27c6,-4 14,-8 17,3 27,72 34,130 26,175 79,43 145,-10 99,-154 -3,-10 0,-15 6,-19l41 -26c6,-4 13,-8 17,3 86,228 -64,368 -203,275z"/>
 </g>
</svg>
