<?xml version="1.0" encoding="UTF-8"?>
<!DOCTYPE svg PUBLIC "-//W3C//DTD SVG 1.0//EN" "http://www.w3.org/TR/2001/REC-SVG-20010904/DTD/svg10.dtd">
<!-- Creator: CorelDRAW -->
<svg xmlns="http://www.w3.org/2000/svg" xml:space="preserve" width="1300px" height="1300px" version="1.0" style="shape-rendering:geometricPrecision; text-rendering:geometricPrecision; image-rendering:optimizeQuality; fill-rule:evenodd; clip-rule:evenodd"
viewBox="0 0 1300 1056"
 xmlns:xlink="http://www.w3.org/1999/xlink">
 <defs>
  <style type="text/css">
   <![CDATA[
    .fil0 {fill:#663333;fill-opacity:0.501961}
   ]]>
  </style>
 </defs>
 <g id="_600:master">
  <metadata id="CorelCorpID_0Corel-Layer"/>
  <path class="fil0" d="M654 652c-28,37 -63,-21 -57,-30 63,-88 111,-148 162,-196 -98,-40 -138,-161 -116,-228 39,-117 172,-147 281,-89 14,8 15,10 14,17l-3 22c-1,8 -3,13 -19,10 -80,-11 -185,21 -208,67 -8,47 58,124 121,144 36,-26 76,-50 125,-76 12,-6 25,-4 23,14l-4 50c-1,20 2,26 -14,33 -161,72 -209,140 -305,262z"/>
 </g>
</svg>
