<?xml version="1.0" encoding="UTF-8"?>
<!DOCTYPE svg PUBLIC "-//W3C//DTD SVG 1.0//EN" "http://www.w3.org/TR/2001/REC-SVG-20010904/DTD/svg10.dtd">
<!-- Creator: CorelDRAW -->
<svg xmlns="http://www.w3.org/2000/svg" xml:space="preserve" width="1300px" height="1300px" version="1.0" style="shape-rendering:geometricPrecision; text-rendering:geometricPrecision; image-rendering:optimizeQuality; fill-rule:evenodd; clip-rule:evenodd"
viewBox="0 0 1300 1056"
 xmlns:xlink="http://www.w3.org/1999/xlink">
 <defs>
  <style type="text/css">
   <![CDATA[
    .fil0 {fill:fuchsia}
   ]]>
  </style>
 </defs>
 <g id="_100:master">
  <metadata id="CorelCorpID_0Corel-Layer"/>
  <path class="fil0" d="M964 77c13,51 16,96 13,133 63,62 144,12 110,-116 -2,-10 0,-14 6,-18l41 -27c6,-4 13,-7 17,3 63,247 -99,336 -205,249 -41,61 -113,74 -173,35 8,90 8,188 7,310 0,12 -64,47 -65,0 0,-131 0,-289 -64,-502 -5,-17 -2,-21 22,-42l25 -22c15,-12 22,-7 26,7 4,9 7,19 9,29l0 0 0 0c8,24 14,49 19,73 54,126 189,87 148,-70 -2,-10 0,-15 6,-19l41 -26c6,-4 13,-8 17,3z"/>
 </g>
</svg>
