<?xml version="1.0" encoding="UTF-8"?>
<!DOCTYPE svg PUBLIC "-//W3C//DTD SVG 1.0//EN" "http://www.w3.org/TR/2001/REC-SVG-20010904/DTD/svg10.dtd">
<!-- Creator: CorelDRAW -->
<svg xmlns="http://www.w3.org/2000/svg" xml:space="preserve" width="1300px" height="1300px" version="1.0" style="shape-rendering:geometricPrecision; text-rendering:geometricPrecision; image-rendering:optimizeQuality; fill-rule:evenodd; clip-rule:evenodd"
viewBox="0 0 1300 1056"
 xmlns:xlink="http://www.w3.org/1999/xlink">
 <defs>
  <style type="text/css">
   <![CDATA[
    .fil0 {fill:#996633}
    .fil2 {fill:#FF6666}
    .fil1 {fill:#FFCC00}
   ]]>
  </style>
 </defs>
 <g id="_100:master" visibility="hidden">
  <metadata id="CorelCorpID_0Corel-Layer"/>
  <path class="fil0" d="M975 497l-79 9c0,0 16,-219 -266,-415 -19,-13 -10,-22 -8,-26l30 -48c5,-8 7,-20 30,-4 67,46 286,218 293,484z"/>
  <path class="fil1" d="M581 471l-83 3c10,-66 47,-190 171,-354l63 48c-106,144 -146,242 -151,303z"/>
  <path class="fil2" d="M498 474l83 -3c-9,120 116,94 119,-8l0 -6c0,-4 1,-11 12,-14l46 -12c8,-3 11,8 11,10l0 7c3,131 123,110 127,58l79 -9c4,190 -206,194 -245,88 -69,131 -262,77 -232,-111z"/>
 </g>
 <g id="Layer_x0020_1">
  <metadata id="CorelCorpID_1Corel-Layer"/>
  <path class="fil0" d="M923 514l-67 7c2,-72 -42,-182 -155,-294 -295,380 -27,401 -23,257l0 -5c0,-4 0,-10 10,-13l41 -11c7,-3 10,7 10,10l0 6c3,116 114,97 117,50l67 -7zm-276 -337c-10,-8 -21,-17 -32,-25 -16,-13 -9,-20 -7,-23l27 -43c5,-7 8,-20 27,-4 116,98 261,259 261,432 3,170 -184,173 -218,78 -103,147 -387,18 -58,-415z"/>
 </g>
</svg>
