<?xml version="1.0" encoding="UTF-8"?>
<!DOCTYPE svg PUBLIC "-//W3C//DTD SVG 1.0//EN" "http://www.w3.org/TR/2001/REC-SVG-20010904/DTD/svg10.dtd">
<!-- Creator: CorelDRAW -->
<svg xmlns="http://www.w3.org/2000/svg" xml:space="preserve" width="1300px" height="1300px" version="1.0" style="shape-rendering:geometricPrecision; text-rendering:geometricPrecision; image-rendering:optimizeQuality; fill-rule:evenodd; clip-rule:evenodd"
viewBox="0 0 1300 1056"
 xmlns:xlink="http://www.w3.org/1999/xlink">
 <defs>
  <style type="text/css">
   <![CDATA[
    .fil0 {fill:#663333;fill-opacity:0.501961}
   ]]>
  </style>
 </defs>
 <g id="_100:master">
  <metadata id="CorelCorpID_0Corel-Layer"/>
  <path class="fil0" d="M654 682c-21,43 -63,-20 -58,-30 67,-129 107,-202 167,-260 -83,-26 -121,-103 -113,-163 20,-141 169,-176 259,-140 10,4 8,11 5,25l-4 18c-1,7 -6,15 -16,14 -57,-5 -156,14 -181,86 26,56 53,88 131,96 32,-21 70,-42 116,-66 12,-7 22,-5 23,13l3 34c3,31 3,38 -13,45 -161,69 -226,133 -319,328z"/>
 </g>
</svg>
