<?xml version="1.0" encoding="UTF-8"?>
<!DOCTYPE svg PUBLIC "-//W3C//DTD SVG 1.0//EN" "http://www.w3.org/TR/2001/REC-SVG-20010904/DTD/svg10.dtd">
<!-- Creator: CorelDRAW -->
<svg xmlns="http://www.w3.org/2000/svg" xml:space="preserve" width="1300px" height="1300px" version="1.0" style="shape-rendering:geometricPrecision; text-rendering:geometricPrecision; image-rendering:optimizeQuality; fill-rule:evenodd; clip-rule:evenodd"
viewBox="0 0 1300 1056"
 xmlns:xlink="http://www.w3.org/1999/xlink">
 <defs>
  <style type="text/css">
   <![CDATA[
    .fil0 {fill:#999933;fill-opacity:0.501961}
   ]]>
  </style>
 </defs>
 <g id="_100:master">
  <metadata id="CorelCorpID_0Corel-Layer"/>
  <path class="fil0" d="M802 58c0,113 92,390 178,514 8,8 5,18 0,27l-34 63c-5,9 -15,4 -17,1 -85,-122 -133,-308 -160,-421 -27,113 -75,299 -160,421 -2,3 -12,8 -17,-1l-34 -63c-5,-9 -8,-19 0,-27 84,-128 177,-375 179,-531 0,-17 10,-20 23,-15l29 12c9,4 13,8 13,20z"/>
 </g>
</svg>
