<?xml version="1.0" encoding="UTF-8"?>
<!DOCTYPE svg PUBLIC "-//W3C//DTD SVG 1.0//EN" "http://www.w3.org/TR/2001/REC-SVG-20010904/DTD/svg10.dtd">
<!-- Creator: CorelDRAW -->
<svg xmlns="http://www.w3.org/2000/svg" xml:space="preserve" width="1300px" height="1300px" version="1.0" style="shape-rendering:geometricPrecision; text-rendering:geometricPrecision; image-rendering:optimizeQuality; fill-rule:evenodd; clip-rule:evenodd"
viewBox="0 0 1300 1056"
 xmlns:xlink="http://www.w3.org/1999/xlink">
 <defs>
  <style type="text/css">
   <![CDATA[
    .fil0 {fill:black;fill-opacity:0.501961}
   ]]>
  </style>
 </defs>
 <g id="_100:master">
  <metadata id="CorelCorpID_0Corel-Layer"/>
  <path class="fil0" d="M829 295c-4,-57 -21,-121 -84,-132 -37,0 -61,60 -61,99 0,56 99,53 145,33zm-73 -213c119,-1 144,155 150,254 9,78 25,165 54,263 5,17 2,21 -22,42l-25 22c-14,12 -22,7 -26,-6 -31,-95 -45,-182 -51,-281 -96,36 -206,2 -208,-112 -1,-81 40,-182 128,-182z"/>
 </g>
</svg>
