<?xml version="1.0" encoding="UTF-8"?>
<!DOCTYPE svg PUBLIC "-//W3C//DTD SVG 1.0//EN" "http://www.w3.org/TR/2001/REC-SVG-20010904/DTD/svg10.dtd">
<!-- Creator: CorelDRAW -->
<svg xmlns="http://www.w3.org/2000/svg" xml:space="preserve" width="1300px" height="1300px" version="1.0" style="shape-rendering:geometricPrecision; text-rendering:geometricPrecision; image-rendering:optimizeQuality; fill-rule:evenodd; clip-rule:evenodd"
viewBox="0 0 1300 1056"
 xmlns:xlink="http://www.w3.org/1999/xlink">
 <defs>
  <style type="text/css">
   <![CDATA[
    .fil0 {fill:fuchsia}
   ]]>
  </style>
 </defs>
 <g id="_100:master">
  <metadata id="CorelCorpID_0Corel-Layer"/>
  <path class="fil0" d="M1112 334c-144,80 -257,93 -336,49 5,77 5,162 4,263 0,12 -64,47 -65,0 0,-131 0,-289 -64,-502 -5,-17 -2,-21 22,-42l25 -22c15,-12 22,-7 26,7 22,67 36,131 44,198 11,15 27,26 46,32 -26,-56 -37,-122 -17,-170 48,-115 203,-101 270,-31 8,8 2,14 -6,25l-11 15c-4,6 -12,11 -21,6 -49,-28 -140,-23 -176,15 1,66 38,122 61,146 64,-8 130,-32 167,-47 10,-3 17,-3 19,4l13 37c3,7 9,13 -1,17z"/>
 </g>
</svg>
