<?xml version="1.0" encoding="UTF-8"?>
<!DOCTYPE svg PUBLIC "-//W3C//DTD SVG 1.0//EN" "http://www.w3.org/TR/2001/REC-SVG-20010904/DTD/svg10.dtd">
<!-- Creator: CorelDRAW -->
<svg xmlns="http://www.w3.org/2000/svg" xml:space="preserve" width="1300px" height="1300px" version="1.0" style="shape-rendering:geometricPrecision; text-rendering:geometricPrecision; image-rendering:optimizeQuality; fill-rule:evenodd; clip-rule:evenodd"
viewBox="0 0 1300 1056"
 xmlns:xlink="http://www.w3.org/1999/xlink">
 <defs>
  <style type="text/css">
   <![CDATA[
    .fil0 {fill:#CC3300;fill-opacity:0.501961}
   ]]>
  </style>
 </defs>
 <g id="_100:master">
  <metadata id="CorelCorpID_0Corel-Layer"/>
  <path class="fil0" d="M732 98c-34,0 -81,54 -83,103 -2,45 40,86 166,70 -6,-79 -23,-172 -83,-173zm89 260l0 0c-188,14 -239,-62 -234,-151 4,-98 80,-207 158,-207 120,0 139,183 146,288 11,98 34,195 82,303 6,9 2,18 -5,26l-47 55c-7,8 -15,1 -16,-3 -54,-125 -76,-216 -84,-311l0 0z"/>
 </g>
</svg>
