<?xml version="1.0" encoding="UTF-8"?>
<!DOCTYPE svg PUBLIC "-//W3C//DTD SVG 1.0//EN" "http://www.w3.org/TR/2001/REC-SVG-20010904/DTD/svg10.dtd">
<!-- Creator: CorelDRAW -->
<svg xmlns="http://www.w3.org/2000/svg" xml:space="preserve" width="1300px" height="1300px" version="1.0" style="shape-rendering:geometricPrecision; text-rendering:geometricPrecision; image-rendering:optimizeQuality; fill-rule:evenodd; clip-rule:evenodd"
viewBox="0 0 1300 1056"
 xmlns:xlink="http://www.w3.org/1999/xlink">
 <defs>
  <style type="text/css">
   <![CDATA[
    .fil0 {fill:#999966;fill-opacity:0.549020}
   ]]>
  </style>
 </defs>
 <g id="_100:master">
  <metadata id="CorelCorpID_0Corel-Layer"/>
  <path class="fil0" d="M978 666l0 0c-16,325 -679,338 -466,-185 3,-8 10,-13 18,-10l24 10c5,2 9,10 6,19 -150,384 278,354 356,217 1,-15 1,-41 0,-67l-90 0 0 0 0 0 0 0c-90,0 -126,-65 -119,-122l0 0c6,-108 69,-187 133,-187 79,0 127,113 138,228l107 0 -1 81 -105 0c0,6 0,11 -1,16zm-67 -97l-85 0c-33,0 -80,-9 -67,-72l0 0c7,-37 33,-74 69,-74 35,0 70,56 83,146z"/>
 </g>
</svg>
