<?xml version="1.0" encoding="UTF-8"?>
<!DOCTYPE svg PUBLIC "-//W3C//DTD SVG 1.0//EN" "http://www.w3.org/TR/2001/REC-SVG-20010904/DTD/svg10.dtd">
<!-- Creator: CorelDRAW -->
<svg xmlns="http://www.w3.org/2000/svg" xml:space="preserve" width="1300px" height="1300px" version="1.0" style="shape-rendering:geometricPrecision; text-rendering:geometricPrecision; image-rendering:optimizeQuality; fill-rule:evenodd; clip-rule:evenodd"
viewBox="0 0 1300 1056"
 xmlns:xlink="http://www.w3.org/1999/xlink">
 <defs>
  <style type="text/css">
   <![CDATA[
    .fil0 {fill:#99CC33;fill-opacity:0.501961}
    .fil1 {fill:#999966;fill-opacity:0.549020}
    .fil3 {fill:#999966}
    .fil2 {fill:#FFCC99}
   ]]>
  </style>
 </defs>
 <g id="_100:master" visibility="hidden">
  <metadata id="CorelCorpID_0Corel-Layer"/>
  <path class="fil0" d="M826 642l0 -81c-33,0 -80,-9 -67,-72l-52 31c-7,57 29,122 119,122z"/>
  <path class="fil1" d="M916 717l62 -51c-16,325 -679,338 -466,-185 3,-8 10,-13 18,-10l24 10c5,2 9,10 6,19 -150,384 278,354 356,217z"/>
  <path class="fil2" d="M916 717l62 -51c10,-89 -33,-333 -138,-333 -59,0 -130,92 -133,187l52 -31c7,-37 33,-75 69,-74 51,1 88,140 92,235 1,22 0,53 -4,67z"/>
  <path class="fil3" d="M948 512l14 74c-43,36 -78,56 -136,56l0 -81c44,0 89,-21 122,-49z"/>
 </g>
 <g id="Layer_x0020_1">
  <metadata id="CorelCorpID_1Corel-Layer"/>
  <path class="fil1" d="M981 635c4,341 -673,388 -476,-123 3,-8 9,-12 18,-9l26 10c8,4 10,11 6,20 -133,347 260,323 359,170 2,-22 3,-44 3,-64 -26,10 -54,11 -90,11l0 0c-90,0 -126,-65 -119,-122l0 0c10,-114 69,-203 133,-203 96,0 147,175 140,310zm-154 -66l0 0c29,0 58,-2 84,-11 -13,-92 -47,-151 -82,-151 -36,-1 -62,53 -70,90l0 0c-13,63 34,72 68,72z"/>
 </g>
</svg>
