<?xml version="1.0" encoding="UTF-8"?>
<!DOCTYPE svg PUBLIC "-//W3C//DTD SVG 1.0//EN" "http://www.w3.org/TR/2001/REC-SVG-20010904/DTD/svg10.dtd">
<!-- Creator: CorelDRAW -->
<svg xmlns="http://www.w3.org/2000/svg" xml:space="preserve" width="1300px" height="1300px" version="1.0" style="shape-rendering:geometricPrecision; text-rendering:geometricPrecision; image-rendering:optimizeQuality; fill-rule:evenodd; clip-rule:evenodd"
viewBox="0 0 1300 1056"
 xmlns:xlink="http://www.w3.org/1999/xlink">
 <defs>
  <style type="text/css">
   <![CDATA[
    .fil0 {fill:gray;fill-opacity:0.501961}
   ]]>
  </style>
 </defs>
 <g id="_100:master">
  <metadata id="CorelCorpID_0Corel-Layer"/>
  <path class="fil0" d="M823 650c-60,-2 -115,-31 -116,-105 0,-57 49,-186 126,-187l0 0 1 0 0 0c77,0 126,106 138,211l84 0 0 81 -81 0c-1,18 -4,35 -9,52 0,1 -4,13 -4,13 -40,112 -163,177 -274,178 -142,0 -270,-85 -159,-343 3,-8 7,-13 16,-9l13 5c8,4 10,11 6,20 -82,196 21,247 133,245 79,0 167,-38 205,-98 4,-20 6,-42 6,-63l-85 0 0 0zm11 -81l67 0c-14,-72 -45,-130 -81,-130 -24,1 -63,64 -63,88 1,30 36,41 77,42l0 0z"/>
 </g>
</svg>
