<?xml version="1.0" encoding="UTF-8"?>
<!DOCTYPE svg PUBLIC "-//W3C//DTD SVG 1.0//EN" "http://www.w3.org/TR/2001/REC-SVG-20010904/DTD/svg10.dtd">
<!-- Creator: CorelDRAW -->
<svg xmlns="http://www.w3.org/2000/svg" xml:space="preserve" width="1300px" height="1300px" version="1.0" style="shape-rendering:geometricPrecision; text-rendering:geometricPrecision; image-rendering:optimizeQuality; fill-rule:evenodd; clip-rule:evenodd"
viewBox="0 0 1300 1056"
 xmlns:xlink="http://www.w3.org/1999/xlink">
 <defs>
  <style type="text/css">
   <![CDATA[
    .fil0 {fill:gray;fill-opacity:0.501961}
   ]]>
  </style>
 </defs>
 <g id="_100:master">
  <metadata id="CorelCorpID_0Corel-Layer"/>
  <path class="fil0" d="M913 569c-12,-91 -47,-146 -83,-146 -36,0 -62,37 -70,74l0 0c-13,63 34,72 68,72l85 0zm-87 81c-89,-1 -124,-65 -117,-122l0 0c10,-114 69,-187 132,-187 81,0 130,113 139,228l76 0 0 81 -76 0 0 1c-16,326 -669,364 -475,-139 3,-8 9,-12 18,-9l26 10c8,4 10,11 6,20 -133,348 262,323 360,168 1,-18 2,-35 2,-51l-89 0 0 0 -2 0 0 0z"/>
 </g>
</svg>
