<?xml version="1.0" encoding="UTF-8"?>
<!DOCTYPE svg PUBLIC "-//W3C//DTD SVG 1.0//EN" "http://www.w3.org/TR/2001/REC-SVG-20010904/DTD/svg10.dtd">
<!-- Creator: CorelDRAW -->
<svg xmlns="http://www.w3.org/2000/svg" xml:space="preserve" width="1300px" height="1300px" version="1.0" style="shape-rendering:geometricPrecision; text-rendering:geometricPrecision; image-rendering:optimizeQuality; fill-rule:evenodd; clip-rule:evenodd"
viewBox="0 0 1300 1056"
 xmlns:xlink="http://www.w3.org/1999/xlink">
 <defs>
  <style type="text/css">
   <![CDATA[
    .fil0 {fill:#996633;fill-opacity:0.549020}
   ]]>
  </style>
 </defs>
 <g id="_100:master">
  <metadata id="CorelCorpID_0Corel-Layer"/>
  <path class="fil0" d="M916 703l0 0c4,-31 4,-59 3,-85 -27,16 -55,24 -93,24l0 0c-90,0 -126,-65 -119,-122l0 0c3,-114 70,-187 125,-187 129,0 161,187 146,324l0 0c0,1 0,6 -1,6 -20,121 -164,230 -311,231 -150,0 -280,-94 -155,-423 3,-8 10,-12 17,-9l24 9c6,2 10,11 7,20 -87,213 -29,322 106,322 85,0 195,-49 251,-110zm-90 -142l0 0c29,0 59,-9 85,-23 -13,-78 -48,-123 -83,-123 -25,-1 -62,37 -69,74l0 0c-13,63 34,72 67,72z"/>
 </g>
</svg>
