<?xml version="1.0" encoding="UTF-8"?>
<!DOCTYPE svg PUBLIC "-//W3C//DTD SVG 1.0//EN" "http://www.w3.org/TR/2001/REC-SVG-20010904/DTD/svg10.dtd">
<!-- Creator: CorelDRAW -->
<svg xmlns="http://www.w3.org/2000/svg" xml:space="preserve" width="1300px" height="1300px" version="1.0" style="shape-rendering:geometricPrecision; text-rendering:geometricPrecision; image-rendering:optimizeQuality; fill-rule:evenodd; clip-rule:evenodd"
viewBox="0 0 1300 1056"
 xmlns:xlink="http://www.w3.org/1999/xlink">
 <defs>
  <style type="text/css">
   <![CDATA[
    .fil0 {fill:gray;fill-opacity:0.501961}
   ]]>
  </style>
 </defs>
 <g id="_100:master">
  <metadata id="CorelCorpID_0Corel-Layer"/>
  <path class="fil0" d="M707 520c3,-114 69,-187 133,-187 88,0 132,118 140,236l105 0 -1 81 -105 0 -1 7 0 0c0,2 0,4 -1,6l0 0c-20,121 -164,230 -311,231 -150,0 -280,-94 -155,-423 3,-8 10,-12 17,-9l24 9c6,2 10,11 7,20 -87,213 -29,322 106,322 84,0 190,-47 248,-107 1,-19 3,-38 3,-56 -92,0 -221,-7 -209,-130l0 0zm52 -31c-15,73 84,80 153,80 -12,-95 -48,-154 -84,-154 -36,-1 -62,37 -69,74l0 0z"/>
 </g>
</svg>
