<?xml version="1.0" encoding="UTF-8"?>
<!DOCTYPE svg PUBLIC "-//W3C//DTD SVG 1.0//EN" "http://www.w3.org/TR/2001/REC-SVG-20010904/DTD/svg10.dtd">
<!-- Creator: CorelDRAW -->
<svg xmlns="http://www.w3.org/2000/svg" xml:space="preserve" width="1300px" height="1300px" version="1.0" style="shape-rendering:geometricPrecision; text-rendering:geometricPrecision; image-rendering:optimizeQuality; fill-rule:evenodd; clip-rule:evenodd"
viewBox="0 0 1300 1056"
 xmlns:xlink="http://www.w3.org/1999/xlink">
 <defs>
  <style type="text/css">
   <![CDATA[
    .fil0 {fill:#99CC33;fill-opacity:0.501961}
    .fil1 {fill:#999966;fill-opacity:0.549020}
    .fil4 {fill:#669999}
    .fil3 {fill:#999966}
    .fil2 {fill:#FFCC99}
   ]]>
  </style>
 </defs>
 <g id="_100:master" visibility="hidden">
  <metadata id="CorelCorpID_0Corel-Layer"/>
  <path class="fil0" d="M826 642l0 -81c-33,0 -80,-9 -67,-72l-52 31c-7,57 29,122 119,122z"/>
  <path class="fil1" d="M916 717l62 -51c-16,325 -679,338 -466,-185 3,-8 10,-13 18,-10l24 10c5,2 9,10 6,19 -150,384 278,354 356,217z"/>
  <path class="fil2" d="M916 717l62 -51c10,-89 -33,-333 -138,-333 -59,0 -130,92 -133,187l52 -31c7,-37 33,-75 69,-74 51,1 88,140 92,235 1,22 0,53 -4,67z"/>
  <path class="fil3" d="M948 512l14 74c-43,36 -78,56 -136,56l0 -81c44,0 89,-21 122,-49z"/>
 </g>
 <g id="Layer_x0020_1">
  <metadata id="CorelCorpID_1Corel-Layer"/>
  <path class="fil4" d="M807 438c-42,-2 -122,131 10,130 28,0 58,-6 80,-14 -16,-64 -45,-116 -90,-116zm168 193c-3,167 -155,263 -288,263 -141,0 -261,-106 -165,-347 3,-6 7,-10 15,-6l17 8c6,3 6,6 3,13 -65,187 33,251 132,251 90,-1 193,-56 220,-122 1,-22 0,-46 -2,-70 -20,16 -59,30 -99,30 -194,-1 -104,-293 8,-293 96,-12 164,142 159,273z"/>
 </g>
</svg>
