<?xml version="1.0" encoding="UTF-8"?>
<!DOCTYPE svg PUBLIC "-//W3C//DTD SVG 1.0//EN" "http://www.w3.org/TR/2001/REC-SVG-20010904/DTD/svg10.dtd">
<!-- Creator: CorelDRAW -->
<svg xmlns="http://www.w3.org/2000/svg" xml:space="preserve" width="1300px" height="1300px" version="1.0" style="shape-rendering:geometricPrecision; text-rendering:geometricPrecision; image-rendering:optimizeQuality; fill-rule:evenodd; clip-rule:evenodd"
viewBox="0 0 1300 1056"
 xmlns:xlink="http://www.w3.org/1999/xlink">
 <defs>
  <style type="text/css">
   <![CDATA[
    .fil0 {fill:gray;fill-opacity:0.501961}
   ]]>
  </style>
 </defs>
 <g id="_100:master">
  <metadata id="CorelCorpID_0Corel-Layer"/>
  <path class="fil0" d="M900 569c-14,-71 -44,-131 -93,-131 -42,-2 -122,132 10,131l83 0zm-92 81c-193,0 -104,-292 8,-292 81,-10 142,98 156,211l84 0 0 81 -82 0c-14,155 -159,244 -287,244 -141,0 -261,-106 -165,-347 3,-6 7,-10 15,-6l17 8c6,3 6,6 3,13 -65,187 33,251 132,251 90,-1 193,-56 220,-122 0,-13 0,-27 0,-41l-101 0z"/>
 </g>
</svg>
