<?xml version="1.0" encoding="UTF-8"?>
<!DOCTYPE svg PUBLIC "-//W3C//DTD SVG 1.0//EN" "http://www.w3.org/TR/2001/REC-SVG-20010904/DTD/svg10.dtd">
<!-- Creator: CorelDRAW -->
<svg xmlns="http://www.w3.org/2000/svg" xml:space="preserve" width="1300px" height="1300px" version="1.0" style="shape-rendering:geometricPrecision; text-rendering:geometricPrecision; image-rendering:optimizeQuality; fill-rule:evenodd; clip-rule:evenodd"
viewBox="0 0 1300 1056"
 xmlns:xlink="http://www.w3.org/1999/xlink">
 <defs>
  <style type="text/css">
   <![CDATA[
    .fil0 {fill:gray;fill-opacity:0.501961}
   ]]>
  </style>
 </defs>
 <g id="_100:master">
  <metadata id="CorelCorpID_0Corel-Layer"/>
  <path class="fil0" d="M913 569c-12,-98 -48,-162 -84,-162 -36,-1 -62,53 -70,90l0 0c-13,63 34,72 68,72l86 0zm-87 81c-90,-1 -125,-65 -118,-122l0 0c10,-114 69,-203 133,-203 81,0 129,124 139,244l76 0 0 81 -76 0c-14,327 -669,366 -475,-138 3,-8 9,-12 18,-9l26 10c8,4 10,11 6,20 -133,347 260,323 359,170 1,-18 2,-36 3,-53l-90 0 0 0 -1 0 0 0z"/>
 </g>
</svg>
