<?xml version="1.0" encoding="UTF-8"?>
<!DOCTYPE svg PUBLIC "-//W3C//DTD SVG 1.0//EN" "http://www.w3.org/TR/2001/REC-SVG-20010904/DTD/svg10.dtd">
<!-- Creator: CorelDRAW -->
<svg xmlns="http://www.w3.org/2000/svg" xml:space="preserve" width="1300px" height="1300px" version="1.0" style="shape-rendering:geometricPrecision; text-rendering:geometricPrecision; image-rendering:optimizeQuality; fill-rule:evenodd; clip-rule:evenodd"
viewBox="0 0 1300 1056"
 xmlns:xlink="http://www.w3.org/1999/xlink">
 <defs>
  <style type="text/css">
   <![CDATA[
    .fil2 {fill:#1A1A1A;fill-opacity:0.549020}
    .fil5 {fill:#666633;fill-opacity:0.549020}
    .fil1 {fill:#996633;fill-opacity:0.549020}
    .fil6 {fill:red;fill-opacity:0.549020}
    .fil4 {fill:#996633}
    .fil3 {fill:red}
    .fil0 {fill:fuchsia}
   ]]>
  </style>
 </defs>
 <g id="Layer_x0020_2" visibility="hidden">
  <metadata id="CorelCorpID_0Corel-Layer"/>
  <path class="fil0" d="M908 699l22 0c42,-10 39,-21 44,-67 8,-67 -20,-161 -38,-209l-63 52c20,57 43,154 37,175 -8,31 9,25 -2,49z"/>
  <path class="fil1" d="M975 617l-65 33c-7,29 -92,153 -258,179 -42,3 52,65 74,65 168,-33 249,-184 249,-277z"/>
 </g>
 <g id="Layer_x0020_3" visibility="hidden">
  <metadata id="CorelCorpID_1Corel-Layer"/>
  <path class="fil0" d="M908 699l22 0c42,-10 39,-21 44,-67 8,-67 -20,-161 -38,-209l-63 52c20,57 43,154 37,175 -8,31 9,25 -2,49z"/>
  <path class="fil1" d="M975 617l-65 33c-7,29 -39,78 -195,196 0,22 44,48 65,48 162,-114 195,-200 195,-277z"/>
 </g>
 <g id="Layer_x0020_4" visibility="hidden">
  <metadata id="CorelCorpID_2Corel-Layer"/>
  <path class="fil0" d="M920 650l49 -17c2,-16 6,-29 6,-56 -8,-65 -32,-142 -46,-179l-62 53c20,56 62,162 53,199z"/>
  <path class="fil2" d="M975 577l-57 33c2,27 -41,154 -244,228 -22,18 52,56 73,56 98,-17 244,-195 228,-317z"/>
 </g>
 <g id="Layer_x0020_5" visibility="hidden">
  <metadata id="CorelCorpID_3Corel-Layer"/>
  <path class="fil3" d="M913 637l50 41c8,-20 12,-43 12,-67 0,-37 -8,-78 -20,-117 -9,-29 -19,-57 -28,-82 -5,-13 -14,-11 -23,-4l-34 30c-7,6 -10,12 -7,21 6,19 15,43 24,69 13,41 26,84 26,109z"/>
  <path class="fil2" d="M973 577l-63 33c14,47 -34,154 -238,228 -22,18 53,56 74,56 97,-17 249,-170 227,-317z"/>
 </g>
 <g id="Layer_x0020_6" visibility="hidden">
  <metadata id="CorelCorpID_4Corel-Layer"/>
  <path class="fil2" d="M973 577l-63 33c13,33 -33,170 -238,228 -22,18 53,56 74,56 97,-17 249,-170 227,-317z"/>
  <path class="fil3" d="M913 637l50 41c8,-20 12,-43 12,-67 0,-65 -26,-142 -48,-199 -5,-13 -14,-11 -23,-4l-34 30c-7,6 -10,12 -7,21 6,19 15,43 24,69 13,41 26,84 26,109z"/>
 </g>
 <g id="Layer_x0020_7" visibility="hidden">
  <metadata id="CorelCorpID_5Corel-Layer"/>
  <path class="fil3" d="M973 577l-61 48c-2,-33 -30,-112 -49,-166 -3,-9 0,-15 7,-21l34 -30c9,-7 18,-9 23,4 18,47 40,108 46,165z"/>
  <path class="fil2" d="M973 577l-63 33c13,33 -33,170 -238,228 -22,18 53,56 74,56 97,-17 249,-170 227,-317z"/>
 </g>
 <g id="Layer_x0020_8" visibility="hidden">
  <metadata id="CorelCorpID_6Corel-Layer"/>
  <path class="fil3" d="M973 577l-61 48c-2,-33 -30,-112 -49,-166 -3,-9 0,-15 7,-21l34 -30c9,-7 18,-9 23,4 18,47 40,108 46,165z"/>
  <path class="fil2" d="M973 577l-67 15c3,11 8,43 6,51 -10,28 -50,126 -240,195 -22,18 53,56 74,56 97,-17 249,-170 227,-317z"/>
 </g>
 <g id="Layer_x0020_9" visibility="hidden">
  <metadata id="CorelCorpID_7Corel-Layer"/>
  <path class="fil4" d="M963 646l-52 -33c8,-44 -54,-165 -74,-207 -4,-8 0,-15 7,-21l34 -29c9,-8 16,-10 23,3 47,98 93,202 62,287z"/>
  <path class="fil3" d="M904 561l62 -32c58,218 -183,365 -258,365 -21,0 -95,-46 -73,-64 64,-1 318,-99 269,-269z"/>
 </g>
 <g id="Layer_x0020_10" visibility="hidden">
  <metadata id="CorelCorpID_8Corel-Layer"/>
  <path class="fil5" d="M974 610l-59 24c3,-39 -53,-168 -79,-226 -3,-12 2,-18 7,-22l40 -34c10,-9 16,0 18,5 28,63 84,183 73,253z"/>
  <path class="fil3" d="M905 581l66 -30c36,196 -191,343 -266,343 -21,0 -96,-46 -74,-64 64,-1 311,-131 274,-249z"/>
 </g>
 <g id="Layer_x0020_11" visibility="hidden">
  <metadata id="CorelCorpID_9Corel-Layer"/>
  <path class="fil6" d="M608 836l15 -31c35,8 96,18 128,14 53,-7 143,-120 164,-169 4,-39 -29,-128 -56,-185 -3,-12 3,-18 7,-22l40 -34c10,-9 16,0 18,5 28,63 61,143 51,212 -15,104 -101,225 -201,268 -32,13 -133,-43 -166,-58z"/>
 </g>
 <g id="Layer_x0020_12" visibility="hidden">
  <metadata id="CorelCorpID_10Corel-Layer"/>
  <path class="fil6" d="M649 836l15 -31c71,34 109,17 163,-36 39,-37 75,-89 88,-119 4,-39 -29,-128 -56,-185 -3,-12 3,-18 7,-22l40 -34c10,-9 16,0 18,5 28,63 61,143 51,212 -9,62 -41,129 -85,183 -110,133 -141,85 -241,27z"/>
 </g>
 <g id="Layer_x0020_13" visibility="hidden">
  <metadata id="CorelCorpID_11Corel-Layer"/>
  <path class="fil6" d="M977 600l-60 24c3,-39 -39,-131 -65,-188 -4,-12 2,-18 6,-22l40 -35c10,-8 16,0 18,6 28,62 71,145 61,215z"/>
  <path class="fil6" d="M920 600l58 -8c-7,87 -80,191 -160,241 -29,18 -58,28 -86,28 -46,0 -109,-34 -129,-44l14 -35c43,12 77,14 105,10 84,-13 171,-115 198,-192z"/>
 </g>
 <g id="Layer_x0020_14" visibility="hidden">
  <metadata id="CorelCorpID_12Corel-Layer"/>
  <path class="fil2" d="M974 560l-63 32c5,19 4,43 1,51 -9,28 -49,126 -239,195 -22,18 38,56 59,56 53,-9 136,-58 184,-124 41,-57 67,-109 58,-210z"/>
  <path class="fil6" d="M974 600l-60 24c4,-39 -39,-131 -65,-188 -3,-12 2,-18 7,-22l40 -35c10,-8 16,0 18,6 28,62 70,145 60,215z"/>
 </g>
 <g id="Layer_x0020_15">
  <metadata id="CorelCorpID_13Corel-Layer"/>
  <path class="fil2" d="M914 611c6,17 -32,95 -69,129 -37,34 -90,68 -172,98 -22,18 38,56 59,56 53,-9 136,-58 184,-124 51,-69 72,-146 56,-231 -10,-53 -38,-109 -58,-154 -2,-6 -8,-14 -18,-6l-40 35c-5,4 -10,10 -7,22 24,52 61,132 65,175z"/>
 </g>
</svg>
