<?xml version="1.0" encoding="UTF-8"?>
<!DOCTYPE svg PUBLIC "-//W3C//DTD SVG 1.0//EN" "http://www.w3.org/TR/2001/REC-SVG-20010904/DTD/svg10.dtd">
<!-- Creator: CorelDRAW -->
<svg xmlns="http://www.w3.org/2000/svg" xml:space="preserve" width="1300px" height="1300px" version="1.0" style="shape-rendering:geometricPrecision; text-rendering:geometricPrecision; image-rendering:optimizeQuality; fill-rule:evenodd; clip-rule:evenodd"
viewBox="0 0 1300 1056"
 xmlns:xlink="http://www.w3.org/1999/xlink">
 <defs>
  <style type="text/css">
   <![CDATA[
    .fil2 {fill:#1A1A1A;fill-opacity:0.549020}
    .fil1 {fill:#996633;fill-opacity:0.549020}
    .fil3 {fill:red}
    .fil0 {fill:fuchsia}
   ]]>
  </style>
 </defs>
 <g id="Layer_x0020_2" visibility="hidden">
  <metadata id="CorelCorpID_0Corel-Layer"/>
  <path class="fil0" d="M908 699l22 0c42,-10 39,-21 44,-67 8,-67 -20,-161 -38,-209l-63 52c20,57 43,154 37,175 -8,31 9,25 -2,49z"/>
  <path class="fil1" d="M975 617l-65 33c-7,29 -92,153 -258,179 -42,3 52,65 74,65 168,-33 249,-184 249,-277z"/>
 </g>
 <g id="Layer_x0020_3" visibility="hidden">
  <metadata id="CorelCorpID_1Corel-Layer"/>
  <path class="fil0" d="M908 699l22 0c42,-10 39,-21 44,-67 8,-67 -20,-161 -38,-209l-63 52c20,57 43,154 37,175 -8,31 9,25 -2,49z"/>
  <path class="fil1" d="M975 617l-65 33c-7,29 -39,78 -195,196 0,22 44,48 65,48 162,-114 195,-200 195,-277z"/>
 </g>
 <g id="Layer_x0020_4" visibility="hidden">
  <metadata id="CorelCorpID_2Corel-Layer"/>
  <path class="fil0" d="M920 650l49 -17c2,-16 6,-29 6,-56 -8,-65 -32,-142 -46,-179l-62 53c20,56 62,162 53,199z"/>
  <path class="fil2" d="M975 577l-57 33c2,27 -41,154 -244,228 -22,18 52,56 73,56 98,-17 244,-195 228,-317z"/>
 </g>
 <g id="Layer_x0020_5" visibility="hidden">
  <metadata id="CorelCorpID_3Corel-Layer"/>
  <path class="fil3" d="M913 637l50 41c8,-20 12,-43 12,-67 0,-37 -8,-78 -20,-117 -9,-29 -19,-57 -28,-82 -5,-13 -14,-11 -23,-4l-34 30c-7,6 -10,12 -7,21 6,19 15,43 24,69 13,41 26,84 26,109z"/>
  <path class="fil2" d="M973 577l-63 33c14,47 -34,154 -238,228 -22,18 53,56 74,56 97,-17 249,-170 227,-317z"/>
 </g>
 <g id="Layer_x0020_6" visibility="hidden">
  <metadata id="CorelCorpID_4Corel-Layer"/>
  <path class="fil2" d="M973 577l-63 33c13,33 -33,170 -238,228 -22,18 53,56 74,56 97,-17 249,-170 227,-317z"/>
  <path class="fil3" d="M913 637l50 41c8,-20 12,-43 12,-67 0,-65 -26,-142 -48,-199 -5,-13 -14,-11 -23,-4l-34 30c-7,6 -10,12 -7,21 6,19 15,43 24,69 13,41 26,84 26,109z"/>
 </g>
 <g id="Layer_x0020_7">
  <metadata id="CorelCorpID_5Corel-Layer"/>
  <path class="fil3" d="M912 619c-1,-3 -1,-6 -2,-9l0 0c-7,-38 -31,-104 -47,-151 -3,-9 0,-15 7,-21l34 -30c9,-7 18,-9 23,4 18,47 40,108 46,165l0 0c22,147 -130,300 -227,317 -21,0 -96,-38 -74,-56 191,-54 243,-176 240,-219z"/>
 </g>
</svg>
