<?xml version="1.0" encoding="UTF-8"?>
<!DOCTYPE svg PUBLIC "-//W3C//DTD SVG 1.0//EN" "http://www.w3.org/TR/2001/REC-SVG-20010904/DTD/svg10.dtd">
<!-- Creator: CorelDRAW -->
<svg xmlns="http://www.w3.org/2000/svg" xml:space="preserve" width="1300px" height="1300px" version="1.0" style="shape-rendering:geometricPrecision; text-rendering:geometricPrecision; image-rendering:optimizeQuality; fill-rule:evenodd; clip-rule:evenodd"
viewBox="0 0 1300 1056"
 xmlns:xlink="http://www.w3.org/1999/xlink">
 <defs>
  <style type="text/css">
   <![CDATA[
    .fil1 {fill:#663300;fill-opacity:0.501961}
    .fil2 {fill:#CC9933;fill-opacity:0.501961}
    .fil8 {fill:#1A1A1A;fill-opacity:0.549020}
    .fil11 {fill:#666633;fill-opacity:0.549020}
    .fil4 {fill:#996633;fill-opacity:0.549020}
    .fil12 {fill:red;fill-opacity:0.549020}
    .fil6 {fill:#FF9933;fill-opacity:0.549020}
    .fil5 {fill:gray}
    .fil9 {fill:#996633}
    .fil10 {fill:#999966}
    .fil7 {fill:red}
    .fil3 {fill:fuchsia}
    .fil0 {fill:#FF6633}
   ]]>
  </style>
 </defs>
 <g id="_100:master" visibility="hidden">
  <metadata id="CorelCorpID_0Corel-Layer"/>
  <path class="fil0" d="M992 569l17 0 -1 81 -16 0c-81,0 -162,-41 -163,-122l0 -16 55 16c24,28 66,41 108,41z"/>
  <path class="fil1" d="M900 614l-52 36c-1,50 -109,162 -177,181 -26,12 -64,15 -95,11 -22,-6 -18,22 -22,36l124 17c79,11 200,-116 219,-245 2,-11 3,-25 3,-36z"/>
  <path class="fil2" d="M843 677c15,-51 -17,-113 -52,-186l55 -60c32,69 54,139 54,187 0,48 -29,76 -38,82 -99,65 -22,-9 -19,-23z"/>
 </g>
 <g id="Layer_x0020_1" visibility="hidden">
  <metadata id="CorelCorpID_1Corel-Layer"/>
  <path class="fil3" d="M937 711c29,-38 70,-94 -8,-305l-62 53c59,175 53,164 37,205l33 47z"/>
  <path class="fil4" d="M915 618c11,64 -135,211 -270,211 -17,3 42,65 65,65 115,0 281,-155 264,-309 -29,-4 -38,16 -59,33z"/>
  <path class="fil5" d="M916 544c5,19 13,36 26,52 27,32 75,54 159,54l0 -81c-86,0 -117,-17 -161,-67l-24 42z"/>
 </g>
 <g id="Layer_x0020_2" visibility="hidden">
  <metadata id="CorelCorpID_2Corel-Layer"/>
  <path class="fil4" d="M908 585c34,97 -100,243 -256,244 -42,3 52,65 74,65 143,0 265,-195 247,-309 -29,-4 -44,-17 -65,0z"/>
  <path class="fil5" d="M895 488c-11,117 92,162 194,162l0 -81c-131,0 -181,-67 -194,-81z"/>
  <path class="fil3" d="M937 711c29,-38 70,-94 -8,-305l-62 53c33,96 46,136 48,160 2,19 0,33 -7,51l29 41z"/>
 </g>
 <g id="Layer_x0020_3" visibility="hidden">
  <metadata id="CorelCorpID_3Corel-Layer"/>
  <path class="fil5" d="M898 488c-11,117 92,162 194,162l0 -81c-130,0 -180,-67 -194,-81z"/>
  <path class="fil3" d="M908 699l22 0c42,-10 39,-21 44,-67 8,-67 -20,-161 -38,-209l-63 52c20,57 43,154 37,175 -8,31 9,25 -2,49z"/>
  <path class="fil4" d="M975 617l-65 33c-7,29 -92,153 -258,179 -42,3 52,65 74,65 168,-33 249,-184 249,-277z"/>
 </g>
 <g id="Layer_x0020_4" visibility="hidden">
  <metadata id="CorelCorpID_4Corel-Layer"/>
  <path class="fil3" d="M908 699l22 0c42,-10 39,-21 44,-67 8,-67 -20,-161 -38,-209l-63 52c20,57 43,154 37,175 -8,31 9,25 -2,49z"/>
  <path class="fil4" d="M975 617l-65 33c-7,29 -39,78 -195,196 0,10 9,21 22,30 14,10 32,18 43,18 162,-114 195,-200 195,-277z"/>
  <path class="fil5" d="M898 488c-11,117 92,162 194,162l0 -81c-130,0 -180,-67 -194,-81z"/>
 </g>
 <g id="Layer_x0020_5" visibility="hidden">
  <metadata id="CorelCorpID_5Corel-Layer"/>
  <path class="fil3" d="M916 699c29,0 52,-13 58,-67 8,-67 -28,-185 -47,-234l-62 53c20,56 59,178 53,199 -8,31 9,25 -2,49z"/>
  <path class="fil6" d="M975 617l-57 33c-7,29 -47,78 -203,196 0,22 44,48 65,48 211,-163 195,-235 195,-277z"/>
 </g>
 <g id="Layer_x0020_6" visibility="hidden">
  <metadata id="CorelCorpID_6Corel-Layer"/>
  <path class="fil7" d="M913 637l50 41c8,-40 12,-65 10,-100 -3,-58 -28,-118 -46,-166 -5,-13 -14,-11 -23,-4l-34 30c-7,6 -10,12 -7,21 6,19 15,43 24,69 13,41 26,84 26,109z"/>
  <path class="fil8" d="M973 577l-63 33c15,44 -33,170 -238,228 -22,18 53,56 74,56 116,-12 238,-163 227,-317z"/>
  <path class="fil9" d="M942 452l-3 139c37,46 111,59 166,59l0 -82c-51,0 -132,0 -163,-116z"/>
 </g>
 <g id="Layer_x0020_7" visibility="hidden">
  <metadata id="CorelCorpID_7Corel-Layer"/>
  <path class="fil7" d="M973 577l-61 48c-2,-33 -47,-164 -66,-219 -4,-8 0,-15 7,-21l34 -29c9,-8 17,-10 22,3 19,48 58,161 64,218z"/>
  <path class="fil8" d="M973 577l-67 15c3,11 8,43 6,51 -10,28 -50,126 -240,195 -22,18 53,56 74,56 97,-17 249,-170 227,-317z"/>
  <path class="fil10" d="M934 430l-12 110c33,68 93,110 186,110l0 -81c-96,0 -141,-52 -174,-139z"/>
 </g>
 <g id="Layer_x0020_8" visibility="hidden">
  <metadata id="CorelCorpID_8Corel-Layer"/>
  <path class="fil10" d="M934 430l-12 110c33,68 93,110 186,110l0 -81c-96,0 -141,-52 -174,-139z"/>
  <path class="fil9" d="M957 646l-50 -37c17,-31 -50,-161 -70,-203 -4,-8 0,-15 7,-21l34 -29c9,-8 16,-10 23,3 47,98 98,199 56,287z"/>
  <path class="fil7" d="M904 561l63 -32c48,182 -198,365 -259,365 -21,0 -112,-46 -90,-64 141,-18 328,-192 286,-269z"/>
 </g>
 <g id="Layer_x0020_9" visibility="hidden">
  <metadata id="CorelCorpID_9Corel-Layer"/>
  <path class="fil10" d="M913 430l-12 110c33,68 94,110 187,110l0 -81c-96,0 -142,-52 -175,-139z"/>
  <path class="fil11" d="M967 610l-60 24c4,-39 -39,-110 -65,-167 -4,-12 2,-18 7,-22l40 -34c9,-9 16,0 17,5 29,63 72,124 61,194z"/>
  <path class="fil7" d="M900 581l66 -30c36,196 -191,343 -266,343 -21,0 -95,-46 -74,-64 65,-1 311,-131 274,-249z"/>
 </g>
 <g id="Layer_x0020_10" visibility="hidden">
  <metadata id="CorelCorpID_10Corel-Layer"/>
  <path class="fil10" d="M931 430l-12 110c33,68 93,110 187,110l0 -81c-97,0 -142,-52 -175,-139z"/>
  <path class="fil12" d="M608 836l15 -31c35,8 96,18 128,14 53,-7 143,-120 164,-169 4,-39 -29,-128 -56,-185 -3,-12 3,-18 7,-22l40 -34c10,-9 16,0 18,5 28,63 61,143 51,212 -15,104 -101,225 -201,268 -32,13 -133,-43 -166,-58z"/>
 </g>
 <g id="Layer_x0020_11" visibility="hidden">
  <metadata id="CorelCorpID_11Corel-Layer"/>
  <path class="fil10" d="M931 430l-12 110c33,68 93,110 187,110l0 -81c-97,0 -142,-52 -175,-139z"/>
  <path class="fil12" d="M716 888c-37,0 -82,-51 -66,-71 162,4 244,-135 265,-183 4,-39 -29,-112 -56,-169 -3,-12 3,-18 7,-22l40 -34c10,-9 16,0 18,5 28,63 61,143 51,212 -12,80 -104,262 -259,262z"/>
 </g>
 <g id="Layer_x0020_12" visibility="hidden">
  <metadata id="CorelCorpID_12Corel-Layer"/>
  <path class="fil12" d="M919 638l58 -8c-10,117 -140,264 -245,264 -37,0 -106,-73 -64,-69 88,20 218,-94 251,-187z"/>
  <path class="fil12" d="M973 654l-60 24c4,-39 -38,-169 -64,-226 -3,-12 2,-18 7,-22l40 -34c10,-9 16,0 18,5 28,63 69,183 59,253z"/>
  <path class="fil0" d="M926 430l-12 126c35,76 111,94 187,94l0 -81c-126,0 -149,-74 -175,-139z"/>
 </g>
 <g id="Layer_x0020_13" visibility="hidden">
  <metadata id="CorelCorpID_13Corel-Layer"/>
  <path class="fil12" d="M974 616l-60 24c4,-39 -39,-131 -65,-188 -3,-12 2,-18 7,-22l40 -34c10,-9 16,0 18,5 28,63 70,146 60,215z"/>
  <path class="fil0" d="M926 430l-12 126c35,76 111,94 187,94l0 -81c-126,0 -149,-74 -175,-139z"/>
  <path class="fil12" d="M920 600l58 -8c-10,118 -141,302 -246,302l-157 -62 11 -29c69,27 109,34 163,4 72,-42 147,-139 171,-207z"/>
 </g>
 <g id="Layer_x0020_14" visibility="hidden">
  <metadata id="CorelCorpID_14Corel-Layer"/>
  <path class="fil0" d="M937 430l-12 126c34,76 111,94 187,94l0 -81c-126,0 -150,-74 -175,-139z"/>
  <path class="fil12" d="M977 600l-60 24c3,-39 -39,-131 -65,-188 -4,-12 2,-18 6,-22l40 -35c10,-8 16,0 18,6 28,62 71,145 61,215z"/>
  <path class="fil12" d="M920 600l58 -8c-7,87 -80,191 -160,241 -29,18 -58,28 -86,28 -63,0 -98,-16 -133,-31l12 -42c79,14 111,-4 139,-17 79,-37 146,-102 170,-171z"/>
 </g>
 <g id="Layer_x0020_15" visibility="hidden">
  <metadata id="CorelCorpID_15Corel-Layer"/>
  <path class="fil12" d="M920 600l58 -8c-7,87 -80,191 -160,241 -29,18 -58,28 -86,28 -46,0 -109,-34 -129,-44l14 -35c43,12 77,14 105,10 84,-13 171,-115 198,-192z"/>
  <path class="fil0" d="M942 451l-7 105c34,76 98,94 174,94l0 -81c-126,0 -149,-78 -167,-118z"/>
  <path class="fil12" d="M977 600l-60 24c8,-23 -21,-80 -31,-104l-19 -41c-4,-13 2,-19 6,-22l40 -35c10,-9 16,0 18,5l16 35c26,57 38,81 30,138z"/>
 </g>
 <g id="Layer_x0020_16">
  <metadata id="CorelCorpID_16Corel-Layer"/>
  <path class="fil0" d="M935 451c2,3 3,6 5,10l10 22c19,39 55,86 153,86l0 81c-49,0 -93,-7 -127,-32 -5,54 -25,105 -60,152 -48,66 -131,115 -184,124 -21,0 -81,-38 -59,-56 82,-30 136,-65 172,-98 36,-33 70,-102 70,-125l-1 -4 0 0c-3,-32 -35,-92 -51,-127 -4,-12 2,-18 6,-22l40 -34c10,-9 16,0 18,5l8 18 0 0z"/>
 </g>
</svg>
