<?xml version="1.0" encoding="UTF-8"?>
<!DOCTYPE svg PUBLIC "-//W3C//DTD SVG 1.0//EN" "http://www.w3.org/TR/2001/REC-SVG-20010904/DTD/svg10.dtd">
<!-- Creator: CorelDRAW -->
<svg xmlns="http://www.w3.org/2000/svg" xml:space="preserve" width="1300px" height="1300px" version="1.0" style="shape-rendering:geometricPrecision; text-rendering:geometricPrecision; image-rendering:optimizeQuality; fill-rule:evenodd; clip-rule:evenodd"
viewBox="0 0 1300 1056"
 xmlns:xlink="http://www.w3.org/1999/xlink">
 <defs>
  <style type="text/css">
   <![CDATA[
    .fil2 {fill:#1A1A1A;fill-opacity:0.549020}
    .fil5 {fill:#666633;fill-opacity:0.549020}
    .fil1 {fill:#996633;fill-opacity:0.549020}
    .fil4 {fill:#996633}
    .fil3 {fill:red}
    .fil0 {fill:fuchsia}
   ]]>
  </style>
 </defs>
 <g id="Layer_x0020_2" visibility="hidden">
  <metadata id="CorelCorpID_0Corel-Layer"/>
  <path class="fil0" d="M908 699l22 0c42,-10 39,-21 44,-67 8,-67 -20,-161 -38,-209l-63 52c20,57 43,154 37,175 -8,31 9,25 -2,49z"/>
  <path class="fil1" d="M975 617l-65 33c-7,29 -92,153 -258,179 -42,3 52,65 74,65 168,-33 249,-184 249,-277z"/>
 </g>
 <g id="Layer_x0020_3" visibility="hidden">
  <metadata id="CorelCorpID_1Corel-Layer"/>
  <path class="fil0" d="M908 699l22 0c42,-10 39,-21 44,-67 8,-67 -20,-161 -38,-209l-63 52c20,57 43,154 37,175 -8,31 9,25 -2,49z"/>
  <path class="fil1" d="M975 617l-65 33c-7,29 -39,78 -195,196 0,22 44,48 65,48 162,-114 195,-200 195,-277z"/>
 </g>
 <g id="Layer_x0020_4" visibility="hidden">
  <metadata id="CorelCorpID_2Corel-Layer"/>
  <path class="fil0" d="M920 650l49 -17c2,-16 6,-29 6,-56 -8,-65 -32,-142 -46,-179l-62 53c20,56 62,162 53,199z"/>
  <path class="fil2" d="M975 577l-57 33c2,27 -41,154 -244,228 -22,18 52,56 73,56 98,-17 244,-195 228,-317z"/>
 </g>
 <g id="Layer_x0020_5" visibility="hidden">
  <metadata id="CorelCorpID_3Corel-Layer"/>
  <path class="fil3" d="M913 637l50 41c8,-20 12,-43 12,-67 0,-37 -8,-78 -20,-117 -9,-29 -19,-57 -28,-82 -5,-13 -14,-11 -23,-4l-34 30c-7,6 -10,12 -7,21 6,19 15,43 24,69 13,41 26,84 26,109z"/>
  <path class="fil2" d="M973 577l-63 33c14,47 -34,154 -238,228 -22,18 53,56 74,56 97,-17 249,-170 227,-317z"/>
 </g>
 <g id="Layer_x0020_6" visibility="hidden">
  <metadata id="CorelCorpID_4Corel-Layer"/>
  <path class="fil2" d="M973 577l-63 33c13,33 -33,170 -238,228 -22,18 53,56 74,56 97,-17 249,-170 227,-317z"/>
  <path class="fil3" d="M913 637l50 41c8,-20 12,-43 12,-67 0,-65 -26,-142 -48,-199 -5,-13 -14,-11 -23,-4l-34 30c-7,6 -10,12 -7,21 6,19 15,43 24,69 13,41 26,84 26,109z"/>
 </g>
 <g id="Layer_x0020_7" visibility="hidden">
  <metadata id="CorelCorpID_5Corel-Layer"/>
  <path class="fil3" d="M973 577l-61 48c-2,-33 -30,-112 -49,-166 -3,-9 0,-15 7,-21l34 -30c9,-7 18,-9 23,4 18,47 40,108 46,165z"/>
  <path class="fil2" d="M973 577l-63 33c13,33 -33,170 -238,228 -22,18 53,56 74,56 97,-17 249,-170 227,-317z"/>
 </g>
 <g id="Layer_x0020_8" visibility="hidden">
  <metadata id="CorelCorpID_6Corel-Layer"/>
  <path class="fil3" d="M973 577l-61 48c-2,-33 -30,-112 -49,-166 -3,-9 0,-15 7,-21l34 -30c9,-7 18,-9 23,4 18,47 40,108 46,165z"/>
  <path class="fil2" d="M973 577l-67 15c3,11 8,43 6,51 -10,28 -50,126 -240,195 -22,18 53,56 74,56 97,-17 249,-170 227,-317z"/>
 </g>
 <g id="Layer_x0020_9" visibility="hidden">
  <metadata id="CorelCorpID_7Corel-Layer"/>
  <path class="fil4" d="M963 646l-52 -33c8,-44 -54,-165 -74,-207 -4,-8 0,-15 7,-21l34 -29c9,-8 16,-10 23,3 47,98 93,202 62,287z"/>
  <path class="fil3" d="M904 561l62 -32c58,218 -183,365 -258,365 -21,0 -95,-46 -73,-64 64,-1 318,-99 269,-269z"/>
 </g>
 <g id="Layer_x0020_10">
  <metadata id="CorelCorpID_8Corel-Layer"/>
  <path class="fil5" d="M909 595c-11,-55 -40,-143 -60,-187 -4,-12 2,-18 6,-22l41 -34c9,-9 16,0 17,5 21,47 51,128 59,194l0 0c35,196 -191,343 -266,343 -21,0 -96,-46 -74,-64 62,-1 291,-121 277,-235z"/>
 </g>
</svg>
