<?xml version="1.0" encoding="UTF-8"?>
<!DOCTYPE svg PUBLIC "-//W3C//DTD SVG 1.0//EN" "http://www.w3.org/TR/2001/REC-SVG-20010904/DTD/svg10.dtd">
<!-- Creator: CorelDRAW -->
<svg xmlns="http://www.w3.org/2000/svg" xml:space="preserve" width="1300px" height="1300px" version="1.0" style="shape-rendering:geometricPrecision; text-rendering:geometricPrecision; image-rendering:optimizeQuality; fill-rule:evenodd; clip-rule:evenodd"
viewBox="0 0 1300 1056"
 xmlns:xlink="http://www.w3.org/1999/xlink">
 <defs>
  <style type="text/css">
   <![CDATA[
    .fil0 {fill:gray}
   ]]>
  </style>
 </defs>
 <g id="_100:master">
  <metadata id="CorelCorpID_0Corel-Layer"/>
  <path class="fil0" d="M473 595c-26,28 -79,55 -164,55l0 0 0 0 0 0c-21,0 -41,-20 -41,-41 1,-21 20,-40 41,-40l0 0c54,0 94,-12 124,-26 -11,-18 -20,-38 -30,-61 -4,-9 -5,-15 5,-26l32 -34c7,-8 13,-4 17,6 18,49 45,99 96,124 106,-114 204,-260 315,-260 117,0 163,104 164,159l0 0 0 1 0 0c0,133 -96,198 -263,198l-139 0 0 0 -5 0 0 0c-68,-1 -115,-18 -152,-55zm157 -26l137 0c125,0 191,-37 204,-65l0 0c9,-36 -41,-130 -123,-130 -77,0 -149,87 -245,193 8,1 17,2 27,2l0 0z"/>
 </g>
</svg>
