<?xml version="1.0" encoding="UTF-8"?>
<!DOCTYPE svg PUBLIC "-//W3C//DTD SVG 1.0//EN" "http://www.w3.org/TR/2001/REC-SVG-20010904/DTD/svg10.dtd">
<!-- Creator: CorelDRAW -->
<svg xmlns="http://www.w3.org/2000/svg" xml:space="preserve" width="1300px" height="1300px" version="1.0" style="shape-rendering:geometricPrecision; text-rendering:geometricPrecision; image-rendering:optimizeQuality; fill-rule:evenodd; clip-rule:evenodd"
viewBox="0 0 1300 1056"
 xmlns:xlink="http://www.w3.org/1999/xlink">
 <defs>
  <style type="text/css">
   <![CDATA[
    .fil5 {fill:black;fill-opacity:0.501961}
    .fil3 {fill:#336699;fill-opacity:0.501961}
    .fil7 {fill:#663333;fill-opacity:0.501961}
    .fil0 {fill:gray}
    .fil4 {fill:#996633}
    .fil1 {fill:#99CCCC}
    .fil2 {fill:#FF6633}
    .fil6 {fill:yellow}
   ]]>
  </style>
 </defs>
 <g id="_100:master" visibility="hidden">
  <metadata id="CorelCorpID_0Corel-Layer"/>
  <path class="fil0" d="M407 524l25 45c-10,32 -66,81 -180,81l0 -81c76,0 125,-23 155,-45z"/>
  <path class="fil1" d="M252 650l0 -81c-20,0 -40,19 -40,40 -1,21 20,41 40,41z"/>
  <path class="fil2" d="M975 488c-67,47 -205,97 -391,97 -127,0 -152,-96 -184,-157 -4,-10 -10,-14 -17,-6l-32 34c-10,11 -9,17 -5,26 50,120 105,184 238,184 179,0 288,-38 354,-83 34,-22 37,-69 37,-95z"/>
  <path class="fil3" d="M919 594l36 -79c0,38 49,54 124,54l0 81c-88,0 -136,-24 -160,-56z"/>
  <path class="fil4" d="M487 606l149 -134c49,-44 102,-65 151,-65 85,0 139,97 139,178l49 -97c0,-51 -55,-168 -167,-168 -76,0 -137,56 -191,104 -60,53 -119,115 -157,149l27 33z"/>
 </g>
 <g id="Layer_x0020_1" visibility="hidden">
  <metadata id="CorelCorpID_1Corel-Layer"/>
  <path class="fil5" d="M974 592l37 -80c-4,50 89,57 123,57l0 81c-88,0 -136,-27 -160,-58z"/>
  <path class="fil4" d="M604 606c73,-90 173,-217 283,-215 100,2 105,121 88,196l62 -80c19,-85 -11,-204 -137,-203 -117,0 -255,193 -323,269l27 33z"/>
  <path class="fil2" d="M1040 488c-134,85 -397,179 -467,-30 -3,-9 -11,-13 -20,-6l-18 13c-12,8 -12,14 -11,24 61,226 311,216 484,80 12,-10 29,-53 32,-81z"/>
  <path class="fil1" d="M428 650l0 -81c-21,0 -41,19 -41,40 0,21 20,41 41,41z"/>
  <path class="fil6" d="M587 531c-31,19 -77,38 -144,38l-15 0 0 81 16 0c91,0 143,-33 173,-65l-30 -54z"/>
 </g>
 <g id="Layer_x0020_2" visibility="hidden">
  <metadata id="CorelCorpID_2Corel-Layer"/>
  <path class="fil2" d="M1040 488c-134,85 -397,179 -467,-30 -3,-9 -11,-13 -20,-6l-18 13c-12,8 -12,14 -11,24 61,226 311,216 484,80 12,-10 29,-53 32,-81z"/>
  <path class="fil1" d="M448 650l0 -81c-21,0 -41,19 -41,40 0,21 20,41 41,41z"/>
  <path class="fil4" d="M604 606c73,-90 173,-217 283,-215 100,2 105,121 88,196l62 -80c19,-85 -11,-204 -137,-203 -117,0 -255,193 -323,269l27 33z"/>
  <path class="fil7" d="M587 530l36 52c-25,40 -64,68 -153,68l-23 0 1 -81 17 0c47,0 91,-4 122,-39z"/>
  <path class="fil5" d="M993 502l-32 69c30,63 100,78 179,79l0 -81c-93,-1 -141,-18 -147,-67z"/>
 </g>
 <g id="Layer_x0020_3">
  <metadata id="CorelCorpID_3Corel-Layer"/>
  <path class="fil1" d="M313 650l-1 0 0 0c-20,0 -40,-20 -40,-41 0,-21 20,-40 41,-40l0 0c38,0 80,1 114,-19 -12,-29 -18,-63 -18,-100 0,-10 3,-13 9,-16l19 -8c7,-3 15,-3 15,7 2,54 23,94 59,119 66,-84 156,-221 275,-232 89,-8 149,38 175,86 15,29 17,57 14,84 -3,15 -9,35 -18,53 19,19 47,26 84,26l21 0 0 81 -24 0c-66,0 -109,-20 -134,-55 -78,47 -189,71 -271,71 -75,0 -130,-21 -167,-57 -25,25 -64,41 -131,41l-22 0 0 0zm235 -79c24,9 53,14 85,13 86,0 198,-29 279,-64 -8,-59 -58,-111 -139,-113 -94,-2 -162,84 -225,164z"/>
 </g>
</svg>
