<?xml version="1.0" encoding="UTF-8"?>
<!DOCTYPE svg PUBLIC "-//W3C//DTD SVG 1.0//EN" "http://www.w3.org/TR/2001/REC-SVG-20010904/DTD/svg10.dtd">
<!-- Creator: CorelDRAW -->
<svg xmlns="http://www.w3.org/2000/svg" xml:space="preserve" width="1300px" height="1300px" version="1.0" style="shape-rendering:geometricPrecision; text-rendering:geometricPrecision; image-rendering:optimizeQuality; fill-rule:evenodd; clip-rule:evenodd"
viewBox="0 0 1300 1056"
 xmlns:xlink="http://www.w3.org/1999/xlink">
 <defs>
  <style type="text/css">
   <![CDATA[
    .fil0 {fill:#999966;fill-opacity:0.549020}
   ]]>
  </style>
 </defs>
 <g id="_100:master">
  <metadata id="CorelCorpID_0Corel-Layer"/>
  <path class="fil0" d="M982 520c-44,27 -94,49 -195,49l-141 0 0 0c-11,0 -22,-1 -31,-3 51,-62 150,-184 251,-184 72,0 115,73 116,138zm-523 197c10,-39 -30,-176 -49,-236 -4,-13 -1,-20 7,-27l39 -33c4,-3 10,-5 13,0 2,2 3,4 4,7 18,49 44,98 94,123 107,-114 204,-259 315,-259 121,0 164,108 164,188l0 0c0,22 -4,41 -11,59 9,9 25,16 41,20 28,8 60,10 98,10l0 81 -19 0c-81,0 -131,-21 -159,-56 -45,39 -116,56 -195,56l-155 0 0 0 -8 0 0 0c-48,-1 -86,-11 -118,-30 2,18 3,34 1,46 -17,325 -680,338 -467,-185 4,-8 11,-13 18,-10l24 10c6,2 10,10 6,19 -149,384 278,354 357,217z"/>
 </g>
</svg>
