<?xml version="1.0" encoding="UTF-8"?>
<!DOCTYPE svg PUBLIC "-//W3C//DTD SVG 1.0//EN" "http://www.w3.org/TR/2001/REC-SVG-20010904/DTD/svg10.dtd">
<!-- Creator: CorelDRAW -->
<svg xmlns="http://www.w3.org/2000/svg" xml:space="preserve" width="1300px" height="1300px" version="1.0" style="shape-rendering:geometricPrecision; text-rendering:geometricPrecision; image-rendering:optimizeQuality; fill-rule:evenodd; clip-rule:evenodd"
viewBox="0 0 1300 1056"
 xmlns:xlink="http://www.w3.org/1999/xlink">
 <defs>
  <style type="text/css">
   <![CDATA[
    .fil0 {fill:#996633}
    .fil1 {fill:#FF6633}
   ]]>
  </style>
 </defs>
 <g id="_100:master" visibility="hidden">
  <metadata id="CorelCorpID_0Corel-Layer"/>
  <path class="fil0" d="M604 606c73,-90 173,-217 283,-215 100,2 105,121 88,196l62 -80c19,-85 -11,-204 -137,-203 -117,0 -255,193 -323,269l27 33z"/>
  <path class="fil1" d="M1040 488c-134,85 -397,179 -467,-30 -3,-9 -11,-13 -20,-6l-18 13c-12,8 -12,14 -11,24 61,226 311,216 484,80 12,-10 29,-53 32,-81z"/>
  <path class="fil1" d="M570 448c-2,-6 -8,-14 -18,-6l-40 35c-4,4 -10,10 -6,22 28,75 45,141 48,192 -58,154 -499,216 -356,-147 3,-9 2,-16 -6,-19l-13 -6c-10,-4 -13,2 -16,9 -107,268 19,366 153,366 153,0 287,-92 298,-227 5,-67 -24,-160 -44,-219z"/>
 </g>
 <g id="Layer_x0020_1">
  <metadata id="CorelCorpID_1Corel-Layer"/>
  <path class="fil0" d="M975 490c-5,26 -23,71 -48,90 -77,57 -204,86 -294,86 -59,0 -105,-13 -139,-36 0,6 0,13 -1,20 -7,152 -156,242 -286,243 -142,0 -275,-90 -158,-346 3,-6 7,-10 15,-6l17 8c6,3 6,7 3,13 -57,137 -43,251 131,249 94,-1 199,-53 221,-132 -1,-60 -32,-127 -55,-175 -4,-8 -1,-16 6,-22l40 -35c8,-7 16,0 18,6 7,15 14,30 20,45 9,23 25,42 45,55 66,-84 157,-222 276,-233 89,-8 149,38 175,86 15,29 17,57 14,84zm-428 82c25,9 54,13 86,12 86,0 198,-29 279,-64 -8,-59 -58,-111 -139,-113 -94,-2 -163,84 -226,165z"/>
 </g>
</svg>
