<?xml version="1.0" encoding="UTF-8"?>
<!DOCTYPE svg PUBLIC "-//W3C//DTD SVG 1.0//EN" "http://www.w3.org/TR/2001/REC-SVG-20010904/DTD/svg10.dtd">
<!-- Creator: CorelDRAW -->
<svg xmlns="http://www.w3.org/2000/svg" xml:space="preserve" width="1300px" height="1300px" version="1.0" style="shape-rendering:geometricPrecision; text-rendering:geometricPrecision; image-rendering:optimizeQuality; fill-rule:evenodd; clip-rule:evenodd"
viewBox="0 0 1300 1056"
 xmlns:xlink="http://www.w3.org/1999/xlink">
 <defs>
  <style type="text/css">
   <![CDATA[
    .fil3 {fill:red;fill-opacity:0.501961}
    .fil2 {fill:#FF6666;fill-opacity:0.501961}
    .fil0 {fill:gray}
    .fil1 {fill:#99CCCC}
    .fil4 {fill:#FF6633}
   ]]>
  </style>
 </defs>
 <g id="_100:master" visibility="hidden">
  <metadata id="CorelCorpID_0Corel-Layer"/>
  <path class="fil0" d="M407 524l25 45c-10,32 -66,81 -180,81l0 -81c76,0 125,-23 155,-45z"/>
  <path class="fil1" d="M252 650l0 -81c-20,0 -40,19 -40,40 -1,21 20,41 40,41z"/>
  <path class="fil0" d="M975 451c0,134 -96,199 -263,199l-144 0 -45 -81 188 0c124,0 190,-37 203,-65l61 -53z"/>
  <path class="fil2" d="M383 422l-32 34c-10,11 -9,17 -5,26 49,118 107,168 227,168l0 -81c-104,0 -147,-71 -173,-141 -4,-10 -10,-14 -17,-6z"/>
  <path class="fil3" d="M914 504l61 -52c0,-39 -50,-160 -155,-160 -117,0 -227,161 -340,277l48 16c45,-51 163,-203 275,-203 63,0 109,77 111,122z"/>
 </g>
 <g id="Layer_x0020_1" visibility="hidden">
  <metadata id="CorelCorpID_1Corel-Layer"/>
  <path class="fil4" d="M975 480l-64 40c-43,27 -94,49 -195,49l-193 0 45 81 163 0c134,0 244,-50 244,-170z"/>
  <path class="fil0" d="M407 524l25 45c-10,32 -66,81 -180,81l0 -81c76,0 125,-23 155,-45z"/>
  <path class="fil1" d="M252 650l0 -81c-20,0 -40,19 -40,40 -1,21 20,41 40,41z"/>
  <path class="fil2" d="M383 422l-32 34c-10,11 -9,17 -5,26 49,118 107,168 227,168l0 -81c-104,0 -147,-71 -173,-141 -4,-10 -10,-14 -17,-6z"/>
  <path class="fil3" d="M911 520l64 -40c0,-80 -42,-188 -163,-188 -117,0 -219,161 -332,277l48 16c45,-51 155,-203 267,-203 72,0 115,73 116,138z"/>
 </g>
 <g id="Layer_x0020_2">
  <metadata id="CorelCorpID_2Corel-Layer"/>
  <path class="fil1" d="M252 650l0 0 0 0c-20,0 -41,-20 -40,-41 0,-21 20,-40 40,-40l0 0c53,0 94,-11 123,-26 -10,-18 -19,-38 -29,-61 -4,-9 -5,-15 5,-26l32 -34c7,-8 13,-4 17,6 20,39 38,92 81,125 37,-35 87,-85 136,-129 54,-48 115,-104 191,-104 112,0 167,117 167,168 0,26 -3,73 -37,95 -66,45 -175,83 -354,83 -80,0 -132,-23 -171,-68 -27,27 -79,52 -161,52l0 0zm269 -75c18,6 39,10 63,10 142,0 256,-29 332,-64 -20,-61 -66,-114 -129,-114 -49,0 -102,21 -151,65l-115 103z"/>
 </g>
</svg>
