<?xml version="1.0" encoding="UTF-8"?>
<!DOCTYPE svg PUBLIC "-//W3C//DTD SVG 1.0//EN" "http://www.w3.org/TR/2001/REC-SVG-20010904/DTD/svg10.dtd">
<!-- Creator: CorelDRAW -->
<svg xmlns="http://www.w3.org/2000/svg" xml:space="preserve" width="1300px" height="1300px" version="1.0" style="shape-rendering:geometricPrecision; text-rendering:geometricPrecision; image-rendering:optimizeQuality; fill-rule:evenodd; clip-rule:evenodd"
viewBox="0 0 1300 1056"
 xmlns:xlink="http://www.w3.org/1999/xlink">
 <defs>
  <style type="text/css">
   <![CDATA[
    .fil0 {fill:#FF6633}
   ]]>
  </style>
 </defs>
 <g id="_100:master">
  <metadata id="CorelCorpID_0Corel-Layer"/>
  <path class="fil0" d="M638 650c-49,-1 -87,-11 -119,-31 2,18 3,34 2,47 -23,306 -678,355 -458,-185 3,-8 10,-13 18,-10l24 10c5,2 9,10 6,19 -167,426 296,329 348,209 10,-39 -29,-168 -48,-228 -5,-13 -1,-20 7,-27l39 -33c5,-4 11,-5 14,3 1,1 1,2 2,4 18,49 44,98 94,123 107,-114 204,-259 315,-259 121,0 164,108 164,188l0 0c0,120 -110,170 -245,170l-155 0 0 0 -8 0 0 0zm344 -130c-1,-65 -44,-138 -116,-138 -101,0 -200,122 -251,184 9,2 20,3 31,3l0 0 141 0c101,0 151,-22 195,-49z"/>
 </g>
</svg>
