<?xml version="1.0" encoding="UTF-8"?>
<!DOCTYPE svg PUBLIC "-//W3C//DTD SVG 1.0//EN" "http://www.w3.org/TR/2001/REC-SVG-20010904/DTD/svg10.dtd">
<!-- Creator: CorelDRAW -->
<svg xmlns="http://www.w3.org/2000/svg" xml:space="preserve" width="1300px" height="1300px" version="1.0" style="shape-rendering:geometricPrecision; text-rendering:geometricPrecision; image-rendering:optimizeQuality; fill-rule:evenodd; clip-rule:evenodd"
viewBox="0 0 1300 1056"
 xmlns:xlink="http://www.w3.org/1999/xlink">
 <defs>
  <style type="text/css">
   <![CDATA[
    .fil0 {fill:gray}
   ]]>
  </style>
 </defs>
 <g id="_100:master">
  <metadata id="CorelCorpID_0Corel-Layer"/>
  <path class="fil0" d="M413 598c-27,27 -79,52 -161,52l0 0 0 0 0 0c-20,0 -41,-20 -40,-41 0,-21 20,-40 40,-40l0 0c53,0 94,-11 123,-26 -10,-18 -19,-38 -29,-61 -4,-9 -5,-15 5,-26l32 -34c7,-8 13,-4 17,6 17,46 44,99 91,130 108,-113 207,-234 321,-233 106,0 163,93 163,163l0 0c0,14 -1,35 -8,54 32,26 97,27 135,27l0 81 -20 0c-80,0 -130,-21 -159,-56l1 -2c-68,41 -173,74 -340,74 -80,0 -132,-23 -171,-68zm121 -20c48,-53 153,-163 261,-164 67,0 109,64 115,110 -76,34 -189,61 -334,61 -15,0 -29,-3 -42,-7z"/>
 </g>
</svg>
