<?xml version="1.0" encoding="UTF-8"?>
<!DOCTYPE svg PUBLIC "-//W3C//DTD SVG 1.0//EN" "http://www.w3.org/TR/2001/REC-SVG-20010904/DTD/svg10.dtd">
<!-- Creator: CorelDRAW -->
<svg xmlns="http://www.w3.org/2000/svg" xml:space="preserve" width="1300px" height="1300px" version="1.0" style="shape-rendering:geometricPrecision; text-rendering:geometricPrecision; image-rendering:optimizeQuality; fill-rule:evenodd; clip-rule:evenodd"
viewBox="0 0 1300 1056"
 xmlns:xlink="http://www.w3.org/1999/xlink">
 <defs>
  <style type="text/css">
   <![CDATA[
    .fil0 {fill:#999966;fill-opacity:0.549020}
   ]]>
  </style>
 </defs>
 <g id="_100:master">
  <metadata id="CorelCorpID_0Corel-Layer"/>
  <path class="fil0" d="M984 521c-76,36 -191,64 -340,64 -20,-1 -38,-4 -54,-11l114 -102c49,-44 103,-65 151,-65 63,0 110,54 129,114zm-473 105c17,349 -673,402 -475,-114 3,-8 9,-12 18,-9l26 10c8,4 10,11 6,20 -137,357 284,321 367,155 3,-38 -34,-164 -49,-209 -3,-12 2,-18 7,-22l39 -34 1 -1c5,-5 10,-5 13,-1 2,2 4,5 5,7l4 12c16,40 40,83 78,112 37,-35 86,-84 135,-128 53,-48 114,-104 190,-104 112,0 167,117 167,168 0,14 -1,35 -7,55 19,18 59,26 111,26l0 81c-88,0 -135,-24 -159,-55 -68,40 -173,71 -335,71 -62,0 -106,-13 -142,-40z"/>
 </g>
</svg>
