<?xml version="1.0" encoding="UTF-8"?>
<!DOCTYPE svg PUBLIC "-//W3C//DTD SVG 1.0//EN" "http://www.w3.org/TR/2001/REC-SVG-20010904/DTD/svg10.dtd">
<!-- Creator: CorelDRAW -->
<svg xmlns="http://www.w3.org/2000/svg" xml:space="preserve" width="1300px" height="1300px" version="1.0" style="shape-rendering:geometricPrecision; text-rendering:geometricPrecision; image-rendering:optimizeQuality; fill-rule:evenodd; clip-rule:evenodd"
viewBox="0 0 1300 1056"
 xmlns:xlink="http://www.w3.org/1999/xlink">
 <defs>
  <style type="text/css">
   <![CDATA[
    .fil0 {fill:gray}
   ]]>
  </style>
 </defs>
 <g id="_100:master">
  <metadata id="CorelCorpID_0Corel-Layer"/>
  <path class="fil0" d="M1038 451l0 1 0 0c0,133 -96,198 -263,198l-132 0 -12 0c-40,0 -80,-14 -111,-32 2,19 3,35 1,48 -17,325 -680,338 -467,-185 4,-8 11,-13 18,-10l24 10c6,2 10,10 6,19 -149,384 278,354 357,217 10,-39 -30,-176 -49,-236 -4,-13 -1,-20 7,-27l39 -33c4,-4 12,-5 15,3 4,13 9,28 14,43 16,41 42,70 73,87 107,-115 205,-262 317,-262 116,0 163,104 163,159l0 0zm-395 118l131 0c125,0 190,-37 203,-65l0 0c10,-36 -40,-130 -122,-130 -78,0 -150,88 -247,194 3,1 6,1 9,1l26 0z"/>
 </g>
</svg>
