<?xml version="1.0" encoding="UTF-8"?>
<!DOCTYPE svg PUBLIC "-//W3C//DTD SVG 1.0//EN" "http://www.w3.org/TR/2001/REC-SVG-20010904/DTD/svg10.dtd">
<!-- Creator: CorelDRAW -->
<svg xmlns="http://www.w3.org/2000/svg" xml:space="preserve" width="1300px" height="1300px" version="1.0" style="shape-rendering:geometricPrecision; text-rendering:geometricPrecision; image-rendering:optimizeQuality; fill-rule:evenodd; clip-rule:evenodd"
viewBox="0 0 1300 1056"
 xmlns:xlink="http://www.w3.org/1999/xlink">
 <defs>
  <style type="text/css">
   <![CDATA[
    .fil0 {fill:gray}
   ]]>
  </style>
 </defs>
 <g id="_100:master">
  <metadata id="CorelCorpID_0Corel-Layer"/>
  <path class="fil0" d="M413 598c-27,27 -79,52 -161,52l0 0 0 0 0 0c-20,0 -41,-20 -40,-41 0,-21 20,-40 40,-40l0 0c53,0 94,-11 123,-26 -10,-18 -19,-38 -29,-61 -4,-9 -5,-15 5,-26l32 -34c7,-8 13,-4 17,6 20,39 38,92 81,125 37,-35 87,-85 136,-129 54,-48 115,-104 191,-104 112,0 167,117 167,168 0,14 -1,35 -8,55 19,18 59,26 112,26l0 81c-88,0 -135,-24 -159,-55 -68,40 -173,71 -336,71 -80,0 -132,-23 -171,-68zm503 -77c-76,35 -190,64 -332,64 -24,0 -45,-4 -63,-10l115 -103c49,-44 102,-65 151,-65 63,0 109,53 129,114z"/>
 </g>
</svg>
