<?xml version="1.0" encoding="UTF-8"?>
<!DOCTYPE svg PUBLIC "-//W3C//DTD SVG 1.0//EN" "http://www.w3.org/TR/2001/REC-SVG-20010904/DTD/svg10.dtd">
<!-- Creator: CorelDRAW -->
<svg xmlns="http://www.w3.org/2000/svg" xml:space="preserve" width="1300px" height="1300px" version="1.0" style="shape-rendering:geometricPrecision; text-rendering:geometricPrecision; image-rendering:optimizeQuality; fill-rule:evenodd; clip-rule:evenodd"
viewBox="0 0 1300 1056"
 xmlns:xlink="http://www.w3.org/1999/xlink">
 <defs>
  <style type="text/css">
   <![CDATA[
    .fil0 {fill:#996633}
   ]]>
  </style>
 </defs>
 <g id="_100:master">
  <metadata id="CorelCorpID_0Corel-Layer"/>
  <path class="fil0" d="M643 569c-10,0 -22,-1 -34,-2 96,-106 168,-193 246,-193 82,0 132,94 122,130l0 0c-13,28 -78,65 -203,65 -44,0 -87,0 -131,0zm338 23c-45,39 -115,58 -206,58l-144 0 0 -1c-35,-1 -73,-9 -105,-25 1,12 1,23 0,33 -10,131 -131,237 -308,237 -151,0 -293,-112 -175,-423 3,-8 10,-12 17,-9l24 9c6,2 10,11 6,20 -90,226 11,321 133,321 108,0 206,-48 241,-109 10,-39 -27,-162 -46,-222 -4,-13 -1,-20 7,-27l39 -33c4,-4 11,-5 14,3 4,9 7,19 10,29l0 0 0 0c2,6 4,12 6,18 15,44 39,68 65,82 107,-115 205,-261 316,-261 116,0 163,104 163,159l0 0 0 1 0 0c0,30 -5,57 -14,80 4,10 12,18 24,22 31,9 77,15 98,15l0 81c-55,0 -128,-12 -165,-58z"/>
 </g>
</svg>
