<?xml version="1.0" encoding="UTF-8"?>
<!DOCTYPE svg PUBLIC "-//W3C//DTD SVG 1.0//EN" "http://www.w3.org/TR/2001/REC-SVG-20010904/DTD/svg10.dtd">
<!-- Creator: CorelDRAW -->
<svg xmlns="http://www.w3.org/2000/svg" xml:space="preserve" width="1300px" height="1300px" version="1.0" style="shape-rendering:geometricPrecision; text-rendering:geometricPrecision; image-rendering:optimizeQuality; fill-rule:evenodd; clip-rule:evenodd"
viewBox="0 0 1300 1056"
 xmlns:xlink="http://www.w3.org/1999/xlink">
 <defs>
  <style type="text/css">
   <![CDATA[
    .fil3 {fill:red;fill-opacity:0.501961}
    .fil2 {fill:#FF6666;fill-opacity:0.501961}
    .fil0 {fill:gray}
    .fil1 {fill:#99CCCC}
    .fil4 {fill:#FF6633}
   ]]>
  </style>
 </defs>
 <g id="_100:master" visibility="hidden">
  <metadata id="CorelCorpID_0Corel-Layer"/>
  <path class="fil0" d="M407 524l25 45c-10,32 -66,81 -180,81l0 -81c76,0 125,-23 155,-45z"/>
  <path class="fil1" d="M252 650l0 -81c-20,0 -40,19 -40,40 -1,21 20,41 40,41z"/>
  <path class="fil0" d="M975 451c0,134 -96,199 -263,199l-144 0 -45 -81 188 0c124,0 190,-37 203,-65l61 -53z"/>
  <path class="fil2" d="M383 422l-32 34c-10,11 -9,17 -5,26 49,118 107,168 227,168l0 -81c-104,0 -147,-71 -173,-141 -4,-10 -10,-14 -17,-6z"/>
  <path class="fil3" d="M914 504l61 -52c0,-39 -50,-160 -155,-160 -117,0 -227,161 -340,277l48 16c45,-51 163,-203 275,-203 63,0 109,77 111,122z"/>
 </g>
 <g id="Layer_x0020_1">
  <metadata id="CorelCorpID_1Corel-Layer"/>
  <path class="fil4" d="M568 650c-67,-1 -115,-18 -152,-55 -26,28 -78,55 -164,55l0 0 0 0 0 0c-20,0 -41,-20 -40,-41 0,-21 20,-40 40,-40l0 0c54,0 94,-12 124,-26 -11,-18 -20,-38 -30,-61 -4,-9 -5,-15 5,-26l32 -34c7,-8 13,-4 17,6 18,49 45,99 96,124 106,-114 204,-260 316,-260 121,0 163,108 163,188l0 0c0,120 -110,170 -244,170l-158 0 0 0 -5 0 0 0zm343 -130c-1,-65 -44,-138 -116,-138 -101,0 -200,123 -251,185 9,1 19,2 29,2l0 0 143 0c101,0 152,-22 195,-49z"/>
 </g>
</svg>
