<?xml version="1.0" encoding="UTF-8"?>
<!DOCTYPE svg PUBLIC "-//W3C//DTD SVG 1.0//EN" "http://www.w3.org/TR/2001/REC-SVG-20010904/DTD/svg10.dtd">
<!-- Creator: CorelDRAW -->
<svg xmlns="http://www.w3.org/2000/svg" xml:space="preserve" width="1300px" height="1300px" version="1.0" style="shape-rendering:geometricPrecision; text-rendering:geometricPrecision; image-rendering:optimizeQuality; fill-rule:evenodd; clip-rule:evenodd"
viewBox="0 0 1300 1056"
 xmlns:xlink="http://www.w3.org/1999/xlink">
 <defs>
  <style type="text/css">
   <![CDATA[
    .fil0 {fill:#FF6633}
   ]]>
  </style>
 </defs>
 <g id="_100:master">
  <metadata id="CorelCorpID_0Corel-Layer"/>
  <path class="fil0" d="M568 650c-67,-1 -115,-18 -152,-55 -26,28 -78,55 -164,55l0 0 0 0 0 0c-20,0 -41,-20 -40,-41 0,-21 20,-40 40,-40l0 0c54,0 94,-12 124,-26 -11,-18 -20,-38 -30,-61 -4,-9 -5,-15 5,-26l32 -34c7,-8 13,-4 17,6 18,49 45,99 96,124 106,-114 204,-260 316,-260 121,0 163,108 163,188l0 0c0,22 -4,41 -10,59 9,9 24,16 40,20 28,8 60,10 99,10l0 81 -20 0c-80,0 -131,-21 -159,-56 -45,39 -115,56 -194,56l-158 0 0 0 -5 0 0 0zm343 -130c-1,-65 -44,-138 -116,-138 -101,0 -200,123 -251,185 9,1 19,2 29,2l0 0 143 0c101,0 152,-22 195,-49z"/>
 </g>
</svg>
