<?xml version="1.0" encoding="UTF-8"?>
<!DOCTYPE svg PUBLIC "-//W3C//DTD SVG 1.0//EN" "http://www.w3.org/TR/2001/REC-SVG-20010904/DTD/svg10.dtd">
<!-- Creator: CorelDRAW -->
<svg xmlns="http://www.w3.org/2000/svg" xml:space="preserve" width="1300px" height="1300px" version="1.0" style="shape-rendering:geometricPrecision; text-rendering:geometricPrecision; image-rendering:optimizeQuality; fill-rule:evenodd; clip-rule:evenodd"
viewBox="0 0 1300 1056"
 xmlns:xlink="http://www.w3.org/1999/xlink">
 <defs>
  <style type="text/css">
   <![CDATA[
    .fil0 {fill:red;fill-opacity:0.501961}
   ]]>
  </style>
 </defs>
 <g id="_100:master">
  <metadata id="CorelCorpID_0Corel-Layer"/>
  <path class="fil0" d="M602 578c13,4 27,7 42,7 146,0 258,-27 335,-61 -7,-46 -49,-110 -115,-110 -108,1 -214,111 -262,164zm441 -90l0 0c0,26 -3,73 -36,95 -67,45 -176,83 -354,83 -62,0 -106,-13 -142,-40 17,349 -673,402 -475,-114 3,-8 9,-12 18,-9l26 10c8,4 10,11 6,20 -137,357 284,321 367,155 3,-38 -34,-164 -49,-209 -3,-12 2,-18 7,-22l39 -34 1 -1c5,-5 10,-5 13,-1 2,2 4,5 5,7l4 12c17,42 44,89 86,118 108,-113 208,-234 321,-233 106,0 163,93 163,163z"/>
 </g>
</svg>
