<?xml version="1.0" encoding="UTF-8"?>
<!DOCTYPE svg PUBLIC "-//W3C//DTD SVG 1.0//EN" "http://www.w3.org/TR/2001/REC-SVG-20010904/DTD/svg10.dtd">
<!-- Creator: CorelDRAW -->
<svg xmlns="http://www.w3.org/2000/svg" xml:space="preserve" width="1300px" height="1300px" version="1.0" style="shape-rendering:geometricPrecision; text-rendering:geometricPrecision; image-rendering:optimizeQuality; fill-rule:evenodd; clip-rule:evenodd"
viewBox="0 0 1300 1056"
 xmlns:xlink="http://www.w3.org/1999/xlink">
 <defs>
  <style type="text/css">
   <![CDATA[
    .fil0 {fill:gray}
   ]]>
  </style>
 </defs>
 <g id="_100:master">
  <metadata id="CorelCorpID_0Corel-Layer"/>
  <path class="fil0" d="M1038 451l0 1 0 0c0,133 -96,198 -263,198l-144 0 0 -1c-35,-1 -73,-9 -105,-25 1,12 1,23 0,33 -26,323 -654,370 -443,-186 3,-8 10,-12 18,-9l24 9c5,2 10,11 6,20 -163,406 243,368 333,212 10,-39 -27,-162 -46,-222 -4,-13 -1,-20 7,-27l39 -33c4,-4 11,-5 14,3 4,9 7,19 10,29l0 0 0 0c2,6 4,12 6,18 15,44 39,68 65,82 107,-115 205,-261 316,-261 116,0 163,104 163,159l0 0zm-395 118c44,0 87,0 131,0 125,0 190,-37 203,-65l0 0c10,-36 -40,-130 -122,-130 -78,0 -150,87 -246,193 12,1 24,2 34,2z"/>
 </g>
</svg>
