<?xml version="1.0" encoding="UTF-8"?>
<!DOCTYPE svg PUBLIC "-//W3C//DTD SVG 1.0//EN" "http://www.w3.org/TR/2001/REC-SVG-20010904/DTD/svg10.dtd">
<!-- Creator: CorelDRAW -->
<svg xmlns="http://www.w3.org/2000/svg" xml:space="preserve" width="1300px" height="1300px" version="1.0" style="shape-rendering:geometricPrecision; text-rendering:geometricPrecision; image-rendering:optimizeQuality; fill-rule:evenodd; clip-rule:evenodd"
viewBox="0 0 1300 1056"
 xmlns:xlink="http://www.w3.org/1999/xlink">
 <defs>
  <style type="text/css">
   <![CDATA[
    .fil0 {fill:black}
   ]]>
  </style>
 </defs>
 <g id="_100:master">
  <metadata id="CorelCorpID_0Corel-Layer"/>
  <path class="fil0" d="M941 33l34 33c-60,87 -94,188 -103,291 10,-4 20,-8 30,-12 13,-5 27,-10 39,-14l41 -14 19 55 -42 13c-13,4 -26,8 -41,12 -14,3 -28,7 -42,11 19,21 37,43 54,66l26 35 -47 34 -25 -35c-2,-4 -5,-7 -7,-10 13,89 46,175 98,251l-33 31c-75,-108 -123,-199 -143,-285 -2,4 -5,9 -8,13l-26 35 -46 -34 25 -35c15,-19 30,-38 45,-56l0 -13c-25,-6 -49,-12 -73,-20l-42 -13 18 -55 41 14c13,4 26,9 40,14 6,3 13,6 20,8 3,-23 8,-47 16,-71l0 -49 18 0c25,-62 63,-127 114,-200z"/>
 </g>
</svg>
