<?xml version="1.0" encoding="UTF-8"?>
<!DOCTYPE svg PUBLIC "-//W3C//DTD SVG 1.0//EN" "http://www.w3.org/TR/2001/REC-SVG-20010904/DTD/svg10.dtd">
<!-- Creator: CorelDRAW -->
<svg xmlns="http://www.w3.org/2000/svg" xml:space="preserve" width="1300px" height="1300px" version="1.0" style="shape-rendering:geometricPrecision; text-rendering:geometricPrecision; image-rendering:optimizeQuality; fill-rule:evenodd; clip-rule:evenodd"
viewBox="0 0 1300 1056"
 xmlns:xlink="http://www.w3.org/1999/xlink">
 <defs>
  <style type="text/css">
   <![CDATA[
    .fil0 {fill:fuchsia}
   ]]>
  </style>
 </defs>
 <g id="_100:master">
  <metadata id="CorelCorpID_0Corel-Layer"/>
  <path class="fil0" d="M940 543c-18,-40 -26,-88 -36,-140 -1,-7 3,-16 11,-18l38 -11c6,-2 14,4 15,10 25,114 39,185 158,185l0 81c-71,0 -117,-18 -148,-49 -73,59 -178,67 -255,6 -31,29 -74,43 -116,43 -28,0 -57,-8 -81,-22 1,10 1,20 0,29 -26,323 -654,370 -443,-186 3,-8 10,-12 18,-9l24 9c5,2 10,11 6,20 -163,406 243,368 333,212 10,-39 -27,-162 -46,-222 -4,-13 -1,-20 7,-27l39 -33c4,-4 11,-5 14,3 8,21 16,46 23,71 17,47 68,74 108,74 43,0 79,-22 88,-56l23 -97c1,-6 10,-12 15,-10l39 11c7,2 11,11 10,18l-23 104c-1,3 -2,6 -2,9 57,28 127,30 181,-5z"/>
 </g>
</svg>
