<?xml version="1.0" encoding="UTF-8"?>
<!DOCTYPE svg PUBLIC "-//W3C//DTD SVG 1.0//EN" "http://www.w3.org/TR/2001/REC-SVG-20010904/DTD/svg10.dtd">
<!-- Creator: CorelDRAW -->
<svg xmlns="http://www.w3.org/2000/svg" xml:space="preserve" width="1300px" height="1300px" version="1.0" style="shape-rendering:geometricPrecision; text-rendering:geometricPrecision; image-rendering:optimizeQuality; fill-rule:evenodd; clip-rule:evenodd"
viewBox="0 0 1300 1056"
 xmlns:xlink="http://www.w3.org/1999/xlink">
 <defs>
  <style type="text/css">
   <![CDATA[
    .fil0 {fill:black}
   ]]>
  </style>
 </defs>
 <g id="_100:master">
  <metadata id="CorelCorpID_0Corel-Layer"/>
  <path class="fil0" d="M817 151l0 44c0,13 0,27 -1,42 -1,14 -2,29 -4,43 14,-5 27,-11 41,-16 14,-6 27,-10 39,-15l42 -13 18 55 -42 13c-13,4 -26,8 -40,12 -14,3 -29,7 -43,10 10,11 19,22 28,34 10,11 18,22 26,32l26 36 -46 33 -26 -35c-8,-11 -16,-22 -24,-35 -7,-12 -15,-24 -22,-36 -8,12 -16,24 -24,36 -7,13 -15,24 -23,35l-26 35 -46 -33 25 -36c9,-10 17,-21 27,-32 9,-12 18,-23 27,-34 -14,-3 -28,-7 -42,-10 -14,-4 -27,-8 -40,-12l-42 -13 18 -55 41 13c13,5 26,9 40,15 13,5 27,11 40,16 -1,-14 -2,-29 -3,-43 0,-15 -1,-29 -1,-42l0 -44 57 0z"/>
 </g>
</svg>
