<?xml version="1.0" encoding="UTF-8"?>
<!DOCTYPE svg PUBLIC "-//W3C//DTD SVG 1.0//EN" "http://www.w3.org/TR/2001/REC-SVG-20010904/DTD/svg10.dtd">
<!-- Creator: CorelDRAW -->
<svg xmlns="http://www.w3.org/2000/svg" xml:space="preserve" width="1300px" height="1300px" version="1.0" style="shape-rendering:geometricPrecision; text-rendering:geometricPrecision; image-rendering:optimizeQuality; fill-rule:evenodd; clip-rule:evenodd"
viewBox="0 0 1300 1056"
 xmlns:xlink="http://www.w3.org/1999/xlink">
 <defs>
  <style type="text/css">
   <![CDATA[
    .fil0 {fill:#663300}
    .fil3 {fill:gray}
    .fil6 {fill:#999966}
    .fil5 {fill:red}
    .fil2 {fill:fuchsia}
    .fil1 {fill:#FF6666}
    .fil4 {fill:#FFFF66}
   ]]>
  </style>
 </defs>
 <g id="_100:master" visibility="hidden">
  <metadata id="CorelCorpID_0Corel-Layer"/>
  <path class="fil0" d="M324 569c-20,0 -40,19 -40,40 0,21 20,41 40,41l0 -81z"/>
  <path class="fil1" d="M581 429l-46 -23c-46,118 -99,163 -212,163l1 81c141,0 220,-72 257,-221z"/>
 </g>
 <g id="Layer_x0020_1" visibility="hidden">
  <metadata id="CorelCorpID_1Corel-Layer"/>
  <path class="fil2" d="M709 563l39 -47c24,53 107,92 174,60 0,35 -11,73 -50,90 -81,0 -144,-41 -163,-103z"/>
  <path class="fil1" d="M610 405l-49 -26c-68,159 -133,190 -217,190l0 81c110,0 187,-40 266,-245z"/>
  <path class="fil0" d="M345 569c-21,0 -41,19 -41,40 0,21 20,41 41,41l0 -81z"/>
  <path class="fil2" d="M504 587c48,47 95,63 140,63 86,0 116,-98 163,-199l-49 -26c-54,111 -71,144 -112,144 -32,0 -66,-10 -104,-44l-38 62z"/>
  <path class="fil2" d="M843 663c128,31 153,-124 124,-284l-67 23c32,190 -18,207 -27,219 -17,19 -27,29 -30,42z"/>
 </g>
 <g id="Layer_x0020_2" visibility="hidden">
  <metadata id="CorelCorpID_2Corel-Layer"/>
  <path class="fil2" d="M901 574l17 74c125,-53 59,-240 28,-322l-62 53c53,164 53,176 17,195z"/>
  <path class="fil2" d="M757 627l17 -74c33,10 87,32 127,21 10,26 15,34 17,74 -44,14 -123,2 -161,-21z"/>
  <path class="fil0" d="M263 569c-20,0 -40,19 -40,40 0,21 20,41 40,41l0 -81z"/>
  <path class="fil3" d="M760 628l18 -75c-29,-7 -27,-29 -25,-50l9 -100 -67 -6 -8 89c-6,60 -13,68 -66,78 -18,3 -38,5 -60,5l0 81c80,0 131,-24 158,-49 11,10 24,20 41,27z"/>
  <path class="fil1" d="M537 411l-58 -32c-67,159 -132,190 -217,190l1 81c110,0 195,-34 274,-239z"/>
  <path class="fil2" d="M563 650l2 -81c-32,0 -66,-10 -104,-44l-39 62c49,47 96,63 141,63z"/>
 </g>
 <g id="Layer_x0020_3" visibility="hidden">
  <metadata id="CorelCorpID_3Corel-Layer"/>
  <path class="fil0" d="M312 569c-20,0 -40,19 -40,40 -1,21 20,41 40,41l0 -81z"/>
  <path class="fil1" d="M570 414l-56 -10 -26 75c-30,87 -81,90 -177,90l1 81c83,1 187,0 230,-143l28 -93z"/>
  <path class="fil3" d="M783 417l-57 -10 -30 108c-34,125 -183,54 -211,10l-38 62c99,115 265,98 304,-48l32 -122z"/>
  <path class="fil2" d="M991 520c1,-67 -28,-150 -45,-194l-62 53c29,88 42,132 42,157 -8,16 -58,48 -81,48 -42,-3 -89,-43 -109,-65l-20 83c37,33 71,63 127,66 49,-3 148,-59 148,-148z"/>
 </g>
 <g id="Layer_x0020_4" visibility="hidden">
  <metadata id="CorelCorpID_4Corel-Layer"/>
  <path class="fil2" d="M995 521c1,-61 -16,-119 -32,-162 -3,-11 -11,-8 -17,-3l-43 34c-5,5 -8,9 -5,19 26,80 34,115 32,149 -24,14 -68,19 -80,19 -32,-1 -84,-26 -106,-49l-24 70c26,33 88,60 130,60 84,0 145,-50 145,-137z"/>
  <path class="fil4" d="M310 569c-20,0 -40,19 -40,40 -1,21 20,41 40,41l0 -81z"/>
  <path class="fil5" d="M761 539l23 -104c1,-7 -3,-16 -10,-18l-36 -10c-6,-2 -14,4 -16,10l-23 97c-16,68 -149,81 -209,-10l-19 80c48,94 259,94 290,-45z"/>
  <path class="fil6" d="M310 569l0 81c125,0 193,-48 213,-137l17 -77c2,-8 -3,-16 -10,-18l-35 -11c-6,-2 -14,4 -16,10l-12 52c-17,65 -46,100 -157,100z"/>
 </g>
 <g id="Layer_x0020_5">
  <metadata id="CorelCorpID_5Corel-Layer"/>
  <path class="fil4" d="M247 569l0 0 27 0c97,0 127,-20 142,-83l17 -69c1,-6 9,-12 15,-10l36 10c8,2 12,11 10,18l-21 95c-1,3 -2,7 -3,10 37,53 182,77 206,-26l24 -97c1,-6 9,-12 15,-10l36 10c7,2 12,11 10,18l-23 104c-1,5 -2,10 -4,15 22,19 67,30 90,30l0 0 1 0 0 0c28,0 77,-9 102,-27 6,-33 -19,-134 -31,-170 -4,-13 2,-19 6,-22l40 -35c10,-9 16,0 18,5 33,98 45,187 14,249 -25,53 -84,83 -143,83 -44,-1 -101,-12 -136,-46 -76,73 -216,49 -265,-14 -30,27 -74,43 -138,43l-46 0 0 0c-20,0 -40,-20 -40,-41 1,-21 20,-40 41,-40l0 0 0 0z"/>
 </g>
</svg>
