<?xml version="1.0" encoding="UTF-8"?>
<!DOCTYPE svg PUBLIC "-//W3C//DTD SVG 1.0//EN" "http://www.w3.org/TR/2001/REC-SVG-20010904/DTD/svg10.dtd">
<!-- Creator: CorelDRAW -->
<svg xmlns="http://www.w3.org/2000/svg" xml:space="preserve" width="1300px" height="1300px" version="1.0" style="shape-rendering:geometricPrecision; text-rendering:geometricPrecision; image-rendering:optimizeQuality; fill-rule:evenodd; clip-rule:evenodd"
viewBox="0 0 1300 1056"
 xmlns:xlink="http://www.w3.org/1999/xlink">
 <defs>
  <style type="text/css">
   <![CDATA[
    .fil0 {fill:fuchsia}
   ]]>
  </style>
 </defs>
 <g id="_100:master">
  <metadata id="CorelCorpID_0Corel-Layer"/>
  <path class="fil0" d="M996 521c0,87 -62,137 -145,137 -40,0 -97,-24 -125,-55 -54,54 -150,66 -215,14l0 7c20,351 -674,405 -475,-112 3,-8 9,-12 18,-9l26 10c8,4 10,11 6,20 -137,357 284,321 367,155 3,-38 -34,-164 -49,-209 -3,-12 2,-18 7,-22l40 -35c10,-8 16,0 18,6 3,9 6,18 9,27 28,78 74,114 139,113 38,-1 73,-17 82,-54l23 -97c2,-6 10,-12 16,-10l36 10c7,2 11,11 10,18l-23 104c0,1 0,1 -1,2 26,19 65,35 91,36 12,0 56,-5 80,-19 2,-34 -7,-69 -32,-149 -3,-10 0,-14 5,-19l43 -34c6,-5 14,-8 17,3 15,43 33,101 32,162z"/>
 </g>
</svg>
