<?xml version="1.0" encoding="UTF-8"?>
<!DOCTYPE svg PUBLIC "-//W3C//DTD SVG 1.0//EN" "http://www.w3.org/TR/2001/REC-SVG-20010904/DTD/svg10.dtd">
<!-- Creator: CorelDRAW -->
<svg xmlns="http://www.w3.org/2000/svg" xml:space="preserve" width="1300px" height="1300px" version="1.0" style="shape-rendering:geometricPrecision; text-rendering:geometricPrecision; image-rendering:optimizeQuality; fill-rule:evenodd; clip-rule:evenodd"
viewBox="0 0 1300 1056"
 xmlns:xlink="http://www.w3.org/1999/xlink">
 <defs>
  <style type="text/css">
   <![CDATA[
    .fil0 {fill:#996633;fill-opacity:0.501961}
   ]]>
  </style>
 </defs>
 <g id="_100:master">
  <metadata id="CorelCorpID_0Corel-Layer"/>
  <path class="fil0" d="M807 406c32,-7 73,-20 76,-125l2 -117c2,-83 17,-94 94,-94l0 -70c-139,0 -168,33 -168,133l0 112c0,139 -44,129 -80,129l0 32 0 31c36,1 80,-9 80,129l0 112c0,79 17,134 93,134l74 0 1 -70c-77,0 -93,-12 -94,-94l-2 -124c-2,-105 -44,-112 -76,-118l0 0z"/>
 </g>
</svg>
