<?xml version="1.0" encoding="UTF-8"?>
<!DOCTYPE svg PUBLIC "-//W3C//DTD SVG 1.0//EN" "http://www.w3.org/TR/2001/REC-SVG-20010904/DTD/svg10.dtd">
<!-- Creator: CorelDRAW -->
<svg xmlns="http://www.w3.org/2000/svg" xml:space="preserve" width="1300px" height="1300px" version="1.0" style="shape-rendering:geometricPrecision; text-rendering:geometricPrecision; image-rendering:optimizeQuality; fill-rule:evenodd; clip-rule:evenodd"
viewBox="0 0 1300 1056"
 xmlns:xlink="http://www.w3.org/1999/xlink">
 <defs>
  <style type="text/css">
   <![CDATA[
    .fil0 {fill:#999966}
   ]]>
  </style>
 </defs>
 <g id="_100:master">
  <metadata id="CorelCorpID_0Corel-Layer"/>
  <path class="fil0" d="M1126 569l0 81c-74,0 -120,-20 -151,-52 -25,39 -71,60 -125,60 -39,0 -96,-24 -124,-54 -50,51 -136,63 -199,19 2,16 2,31 1,43 -22,306 -678,355 -458,-185 3,-8 11,-13 18,-10l24 10c6,2 10,10 6,19 -167,426 296,329 348,209 11,-39 -29,-168 -48,-228 -4,-13 -1,-20 7,-27l39 -33c4,-4 11,-5 14,3 7,19 14,40 20,62 32,95 181,111 201,28l23 -97c2,-6 10,-12 16,-10l36 10c7,2 11,11 10,18l-23 104c0,1 -1,2 -1,3 26,18 64,34 90,35 35,0 65,-11 93,-26 -19,-41 -29,-93 -39,-148 -1,-7 3,-16 11,-18l38 -11c6,-2 14,4 15,10 25,114 39,185 158,185z"/>
 </g>
</svg>
