<?xml version="1.0" encoding="UTF-8"?>
<!DOCTYPE svg PUBLIC "-//W3C//DTD SVG 1.0//EN" "http://www.w3.org/TR/2001/REC-SVG-20010904/DTD/svg10.dtd">
<!-- Creator: CorelDRAW -->
<svg xmlns="http://www.w3.org/2000/svg" xml:space="preserve" width="1300px" height="1300px" version="1.0" style="shape-rendering:geometricPrecision; text-rendering:geometricPrecision; image-rendering:optimizeQuality; fill-rule:evenodd; clip-rule:evenodd"
viewBox="0 0 1300 1056"
 xmlns:xlink="http://www.w3.org/1999/xlink">
 <defs>
  <style type="text/css">
   <![CDATA[
    .fil0 {fill:black;fill-opacity:0.501961}
   ]]>
  </style>
 </defs>
 <g id="_100:master">
  <metadata id="CorelCorpID_0Corel-Layer"/>
  <path class="fil0" d="M727 535c1,-5 3,-10 4,-15l20 -66c2,-7 9,-11 16,-9 35,11 33,6 21,45 -35,118 95,111 135,60 1,-15 -7,-74 -27,-123 -4,-12 3,-18 7,-22l40 -34c7,-6 15,-5 18,5 96,292 -173,351 -228,234 -47,46 -115,51 -165,22 0,6 0,12 0,18 -8,152 -157,242 -287,243 -142,0 -275,-90 -158,-346 3,-6 7,-10 15,-6l17 8c6,3 6,7 3,13 -57,137 -43,251 131,249 94,-1 199,-53 221,-132 -1,-60 -32,-127 -55,-175 -4,-8 -1,-16 6,-22l41 -35c7,-7 15,0 17,6 7,14 13,29 19,43 40,86 151,91 189,39z"/>
 </g>
</svg>
