<?xml version="1.0" encoding="UTF-8"?>
<!DOCTYPE svg PUBLIC "-//W3C//DTD SVG 1.0//EN" "http://www.w3.org/TR/2001/REC-SVG-20010904/DTD/svg10.dtd">
<!-- Creator: CorelDRAW -->
<svg xmlns="http://www.w3.org/2000/svg" xml:space="preserve" width="1300px" height="1300px" version="1.0" style="shape-rendering:geometricPrecision; text-rendering:geometricPrecision; image-rendering:optimizeQuality; fill-rule:evenodd; clip-rule:evenodd"
viewBox="0 0 1300 1056"
 xmlns:xlink="http://www.w3.org/1999/xlink">
 <defs>
  <style type="text/css">
   <![CDATA[
    .fil0 {fill:#000066;fill-opacity:0.549020}
   ]]>
  </style>
 </defs>
 <g id="_100:master">
  <metadata id="CorelCorpID_0Corel-Layer"/>
  <path class="fil0" d="M504 650c-8,152 -156,242 -286,243 -142,0 -275,-90 -158,-346 3,-6 7,-10 14,-6l18 8c6,3 6,7 3,13 -57,137 -44,251 131,249 94,-1 199,-53 220,-132 -1,-60 -31,-127 -55,-175 -3,-8 0,-16 7,-22l40 -35c8,-7 15,0 18,6 5,10 10,21 14,32l0 0 0 0c3,6 5,11 7,17 19,42 53,67 103,67 56,0 86,-28 108,-76l24 -53c4,-8 9,-12 18,-9l25 10c12,4 11,12 9,18l-36 85c27,16 57,24 84,25 36,0 86,-12 103,-28 2,-28 -20,-107 -39,-156 -5,-12 2,-18 7,-22l40 -35c6,-5 14,-4 18,6 24,71 35,126 34,169 -2,109 -96,147 -163,147 -51,0 -86,-13 -126,-44 -34,30 -79,44 -116,44 -23,0 -45,-6 -66,-18 1,6 0,12 0,18z"/>
 </g>
</svg>
