<?xml version="1.0" encoding="UTF-8"?>
<!DOCTYPE svg PUBLIC "-//W3C//DTD SVG 1.0//EN" "http://www.w3.org/TR/2001/REC-SVG-20010904/DTD/svg10.dtd">
<!-- Creator: CorelDRAW -->
<svg xmlns="http://www.w3.org/2000/svg" xml:space="preserve" width="1300px" height="1300px" version="1.0" style="shape-rendering:geometricPrecision; text-rendering:geometricPrecision; image-rendering:optimizeQuality; fill-rule:evenodd; clip-rule:evenodd"
viewBox="0 0 1300 1056"
 xmlns:xlink="http://www.w3.org/1999/xlink">
 <defs>
  <style type="text/css">
   <![CDATA[
    .fil0 {fill:fuchsia}
   ]]>
  </style>
 </defs>
 <g id="_100:master">
  <metadata id="CorelCorpID_0Corel-Layer"/>
  <path class="fil0" d="M940 543c-18,-40 -26,-88 -36,-140 -1,-7 3,-16 11,-18l38 -11c6,-2 14,4 15,10 25,114 39,185 158,185l0 81c-71,0 -117,-18 -148,-49 -73,59 -178,67 -255,6 -31,29 -74,43 -116,43 -27,0 -56,-8 -79,-21 2,14 2,27 0,37 -17,325 -680,338 -466,-185 3,-8 10,-13 17,-10l24 10c6,2 10,10 7,19 -150,384 277,354 356,217 10,-39 -29,-176 -49,-236 -4,-13 -1,-20 8,-27l38 -33c5,-4 12,-5 15,3 7,20 15,45 22,70 17,47 69,75 109,75 43,0 79,-22 88,-56l23 -97c1,-6 10,-12 15,-10l39 11c7,2 11,11 10,18l-23 104c-1,3 -2,6 -2,9 57,28 127,30 181,-5z"/>
 </g>
</svg>
