<?xml version="1.0" encoding="UTF-8"?>
<!DOCTYPE svg PUBLIC "-//W3C//DTD SVG 1.0//EN" "http://www.w3.org/TR/2001/REC-SVG-20010904/DTD/svg10.dtd">
<!-- Creator: CorelDRAW -->
<svg xmlns="http://www.w3.org/2000/svg" xml:space="preserve" width="1300px" height="1300px" version="1.0" style="shape-rendering:geometricPrecision; text-rendering:geometricPrecision; image-rendering:optimizeQuality; fill-rule:evenodd; clip-rule:evenodd"
viewBox="0 0 1300 1056"
 xmlns:xlink="http://www.w3.org/1999/xlink">
 <defs>
  <style type="text/css">
   <![CDATA[
    .fil0 {fill:#999966;fill-opacity:0.549020}
   ]]>
  </style>
 </defs>
 <g id="_100:master">
  <metadata id="CorelCorpID_0Corel-Layer"/>
  <path class="fil0" d="M511 627c16,348 -673,400 -475,-115 3,-8 9,-12 18,-9l26 10c8,4 10,11 6,20 -137,357 284,321 367,155 3,-38 -34,-164 -49,-209 -3,-12 2,-18 7,-22l40 -35c10,-8 16,0 18,6 2,8 5,16 8,25l0 -1c48,150 180,176 207,62l24 -97c1,-6 9,-12 15,-10l36 10c7,2 12,11 10,18l-23 104c11,29 74,45 102,45l0 0c27,0 71,-8 97,-24 -24,-43 -35,-98 -46,-157 -1,-7 3,-16 11,-18l35 -11c6,-2 14,4 15,10 33,128 31,185 157,185l15 0 0 81 -15 0c-61,0 -103,-16 -134,-42 -30,38 -78,59 -128,59 -47,-1 -108,-14 -143,-53 -49,61 -132,71 -201,13z"/>
 </g>
</svg>
