<?xml version="1.0" encoding="UTF-8"?>
<!DOCTYPE svg PUBLIC "-//W3C//DTD SVG 1.0//EN" "http://www.w3.org/TR/2001/REC-SVG-20010904/DTD/svg10.dtd">
<!-- Creator: CorelDRAW -->
<svg xmlns="http://www.w3.org/2000/svg" xml:space="preserve" width="1300px" height="1300px" version="1.0" style="shape-rendering:geometricPrecision; text-rendering:geometricPrecision; image-rendering:optimizeQuality; fill-rule:evenodd; clip-rule:evenodd"
viewBox="0 0 1300 1056"
 xmlns:xlink="http://www.w3.org/1999/xlink">
 <defs>
  <style type="text/css">
   <![CDATA[
    .fil1 {fill:black;fill-opacity:0.501961}
    .fil2 {fill:#663300}
    .fil4 {fill:gray}
    .fil8 {fill:#990000}
    .fil10 {fill:#9900CC}
    .fil9 {fill:#999966}
    .fil7 {fill:red}
    .fil5 {fill:fuchsia}
    .fil3 {fill:#FF6666}
    .fil0 {fill:#FF9933}
    .fil6 {fill:#FFFF66}
   ]]>
  </style>
 </defs>
 <g id="_100:master" visibility="hidden">
  <metadata id="CorelCorpID_0Corel-Layer"/>
  <path class="fil0" d="M923 520l30 75c-20,27 -62,55 -118,55l1 -81c50,0 81,-27 87,-49z"/>
  <path class="fil1" d="M837 650l0 -81c-32,-4 -60,-20 -71,-50l0 -104 -61 14 0 91c0,33 -55,50 -95,49l-1 81c51,0 106,-15 124,-55 22,34 62,52 104,55z"/>
  <path class="fil1" d="M1106 650l0 -81c-55,0 -125,-11 -136,-63l-24 -114 -55 21 29 136c23,95 141,101 186,101z"/>
  <path class="fil0" d="M484 516l-31 75c45,44 103,59 159,59l-2 -81c-53,0 -106,-21 -126,-53z"/>
  <path class="fil2" d="M292 569c-20,0 -40,19 -41,40 0,21 21,41 41,41l0 -81z"/>
  <path class="fil3" d="M483 548c15,-29 35,-70 58,-127l-51 -22c-5,14 -41,95 -71,135 -25,26 -77,35 -128,35l1 81c103,-5 162,-33 191,-102z"/>
  <path class="fil4" d="M1219 484c0,75 -22,166 -191,166l0 -81c45,0 101,-8 130,-33l61 -52z"/>
  <path class="fil0" d="M1191 589l-78 -31c48,-25 40,-71 41,-168l65 -16 0 110c0,40 -8,83 -28,105z"/>
  <path class="fil5" d="M1160 559l54 -20c30,23 82,30 126,30l0 81c-72,0 -151,-15 -180,-91z"/>
 </g>
 <g id="Layer_x0020_1" visibility="hidden">
  <metadata id="CorelCorpID_1Corel-Layer"/>
  <path class="fil2" d="M346 569c-20,0 -40,19 -40,40 -1,21 20,41 40,41l0 -81z"/>
  <path class="fil1" d="M946 369l-46 37c22,139 69,244 239,244l0 -81c-146,0 -164,-87 -193,-200z"/>
  <path class="fil3" d="M610 405l-49 -26c-68,159 -133,190 -217,190l0 81c110,0 187,-40 266,-245z"/>
  <path class="fil5" d="M504 587c48,47 95,63 140,63 86,0 116,-98 163,-199l-49 -26c-54,111 -71,144 -112,144 -32,0 -66,-10 -104,-44l-38 62z"/>
  <path class="fil5" d="M969 558l-36 -59c-28,52 -46,70 -75,70 -32,0 -67,-10 -105,-44l-38 62c49,47 95,63 141,63 53,0 85,-38 113,-92z"/>
 </g>
 <g id="Layer_x0020_2" visibility="hidden">
  <metadata id="CorelCorpID_2Corel-Layer"/>
  <path class="fil5" d="M1009 571l-28 -64c-64,80 -178,78 -253,23l-16 68c88,81 223,62 297,-27z"/>
  <path class="fil6" d="M297 569c-20,0 -40,19 -40,40 -1,21 20,41 40,41l0 -81z"/>
  <path class="fil7" d="M761 539l23 -104c1,-7 -3,-16 -10,-18l-39 -11c-5,-2 -14,4 -15,10l-23 97c-17,68 -147,82 -207,-9l-19 80c48,94 259,94 290,-45z"/>
  <path class="fil8" d="M958 588c40,51 113,62 169,62l0 -81c-33,0 -90,-5 -113,-32 -13,-15 -15,-36 -22,-73l-20 -122c-2,-7 -7,-4 -10,-2l-36 32c-6,5 -13,9 -12,18l24 136c7,40 7,41 20,62z"/>
  <path class="fil9" d="M297 569l0 81c83,0 198,-12 220,-110l23 -104c2,-8 -3,-16 -10,-18l-38 -11c-6,-2 -14,4 -16,10l-22 87c-14,57 -67,65 -157,65z"/>
 </g>
 <g id="Layer_x0020_3" visibility="hidden">
  <metadata id="CorelCorpID_3Corel-Layer"/>
  <path class="fil5" d="M1009 571l-28 -64c-64,80 -178,78 -253,23l-16 68c88,81 223,62 297,-27z"/>
  <path class="fil6" d="M297 569c-20,0 -40,19 -40,40 -1,21 20,41 40,41l0 -81z"/>
  <path class="fil7" d="M761 539l23 -104c1,-7 -3,-16 -10,-18l-39 -11c-5,-2 -14,4 -15,10l-23 97c-17,68 -147,82 -207,-9l-19 80c48,94 259,94 290,-45z"/>
  <path class="fil9" d="M297 569l0 81c83,0 198,-12 220,-110l23 -104c2,-8 -3,-16 -10,-18l-38 -11c-6,-2 -14,4 -16,10l-22 87c-14,57 -67,65 -157,65z"/>
  <path class="fil9" d="M1126 569l0 81c-177,0 -198,-114 -222,-247 -1,-7 3,-16 11,-18l38 -11c6,-2 14,4 15,10 25,114 39,185 158,185z"/>
 </g>
 <g id="Layer_x0020_4">
  <metadata id="CorelCorpID_4Corel-Layer"/>
  <path class="fil10" d="M947 560c-23,-39 -39,-88 -57,-140 -2,-7 0,-16 7,-20l34 -16c5,-2 14,2 16,8 42,109 58,178 168,177l28 0 0 81 -28 0c-59,3 -100,-13 -131,-42 -29,38 -78,59 -128,59 -48,-1 -110,-14 -145,-54 -73,83 -222,59 -273,-6 -29,27 -74,43 -138,43l-19 0 0 0c-21,0 -41,-20 -41,-41 1,-21 21,-40 41,-40l0 0 2 0c96,0 126,-20 141,-83l17 -69c1,-6 10,-12 15,-10l36 10c8,2 12,11 10,18l-21 95c-1,3 -2,7 -3,10 37,53 182,77 206,-26l24 -97c1,-6 9,-12 15,-10l36 10c7,2 12,11 10,18l-22 102c9,30 73,47 101,47l1 0 0 0c27,0 72,-8 98,-24z"/>
 </g>
</svg>
