<?xml version="1.0" encoding="UTF-8"?>
<!DOCTYPE svg PUBLIC "-//W3C//DTD SVG 1.0//EN" "http://www.w3.org/TR/2001/REC-SVG-20010904/DTD/svg10.dtd">
<!-- Creator: CorelDRAW -->
<svg xmlns="http://www.w3.org/2000/svg" xml:space="preserve" width="1300px" height="1300px" version="1.0" style="shape-rendering:geometricPrecision; text-rendering:geometricPrecision; image-rendering:optimizeQuality; fill-rule:evenodd; clip-rule:evenodd"
viewBox="0 0 1300 1056"
 xmlns:xlink="http://www.w3.org/1999/xlink">
 <defs>
  <style type="text/css">
   <![CDATA[
    .fil7 {fill:black;fill-opacity:0.501961}
    .fil9 {fill:#663333;fill-opacity:0.501961}
    .fil0 {fill:#663300}
    .fil11 {fill:#663333}
    .fil3 {fill:gray}
    .fil10 {fill:#999933}
    .fil6 {fill:#999966}
    .fil5 {fill:red}
    .fil2 {fill:fuchsia}
    .fil8 {fill:#FF6633}
    .fil1 {fill:#FF6666}
    .fil4 {fill:#FFFF66}
   ]]>
  </style>
 </defs>
 <g id="_100:master" visibility="hidden">
  <metadata id="CorelCorpID_0Corel-Layer"/>
  <path class="fil0" d="M324 569c-20,0 -40,19 -40,40 0,21 20,41 40,41l0 -81z"/>
  <path class="fil1" d="M581 429l-46 -23c-46,118 -99,163 -212,163l1 81c141,0 220,-72 257,-221z"/>
 </g>
 <g id="Layer_x0020_1" visibility="hidden">
  <metadata id="CorelCorpID_1Corel-Layer"/>
  <path class="fil2" d="M709 563l39 -47c24,53 107,92 174,60 0,35 -11,73 -50,90 -81,0 -144,-41 -163,-103z"/>
  <path class="fil1" d="M610 405l-49 -26c-68,159 -133,190 -217,190l0 81c110,0 187,-40 266,-245z"/>
  <path class="fil0" d="M345 569c-21,0 -41,19 -41,40 0,21 20,41 41,41l0 -81z"/>
  <path class="fil2" d="M504 587c48,47 95,63 140,63 86,0 116,-98 163,-199l-49 -26c-54,111 -71,144 -112,144 -32,0 -66,-10 -104,-44l-38 62z"/>
  <path class="fil2" d="M843 663c128,31 153,-124 124,-284l-67 23c32,190 -18,207 -27,219 -17,19 -27,29 -30,42z"/>
 </g>
 <g id="Layer_x0020_2" visibility="hidden">
  <metadata id="CorelCorpID_2Corel-Layer"/>
  <path class="fil2" d="M901 574l17 74c125,-53 59,-240 28,-322l-62 53c53,164 53,176 17,195z"/>
  <path class="fil2" d="M757 627l17 -74c33,10 87,32 127,21 10,26 15,34 17,74 -44,14 -123,2 -161,-21z"/>
  <path class="fil0" d="M263 569c-20,0 -40,19 -40,40 0,21 20,41 40,41l0 -81z"/>
  <path class="fil3" d="M760 628l18 -75c-29,-7 -27,-29 -25,-50l9 -100 -67 -6 -8 89c-6,60 -13,68 -66,78 -18,3 -38,5 -60,5l0 81c80,0 131,-24 158,-49 11,10 24,20 41,27z"/>
  <path class="fil1" d="M537 411l-58 -32c-67,159 -132,190 -217,190l1 81c110,0 195,-34 274,-239z"/>
  <path class="fil2" d="M563 650l2 -81c-32,0 -66,-10 -104,-44l-39 62c49,47 96,63 141,63z"/>
 </g>
 <g id="Layer_x0020_3" visibility="hidden">
  <metadata id="CorelCorpID_3Corel-Layer"/>
  <path class="fil0" d="M312 569c-20,0 -40,19 -40,40 -1,21 20,41 40,41l0 -81z"/>
  <path class="fil1" d="M570 414l-56 -10 -26 75c-30,87 -81,90 -177,90l1 81c83,1 187,0 230,-143l28 -93z"/>
  <path class="fil3" d="M783 417l-57 -10 -30 108c-34,125 -183,54 -211,10l-38 62c99,115 265,98 304,-48l32 -122z"/>
  <path class="fil2" d="M991 520c1,-67 -28,-150 -45,-194l-62 53c29,88 42,132 42,157 -8,16 -58,48 -81,48 -42,-3 -89,-43 -109,-65l-20 83c37,33 71,63 127,66 49,-3 148,-59 148,-148z"/>
 </g>
 <g id="Layer_x0020_4" visibility="hidden">
  <metadata id="CorelCorpID_4Corel-Layer"/>
  <path class="fil2" d="M995 521c1,-61 -16,-119 -32,-162 -3,-11 -11,-8 -17,-3l-43 34c-5,5 -8,9 -5,19 26,80 34,115 32,149 -24,14 -68,19 -80,19 -32,-1 -84,-26 -106,-49l-24 70c26,33 88,60 130,60 84,0 145,-50 145,-137z"/>
  <path class="fil4" d="M310 569c-20,0 -40,19 -40,40 -1,21 20,41 40,41l0 -81z"/>
  <path class="fil5" d="M761 539l23 -104c1,-7 -3,-16 -10,-18l-36 -10c-6,-2 -14,4 -16,10l-23 97c-16,68 -149,81 -209,-10l-19 80c48,94 259,94 290,-45z"/>
  <path class="fil6" d="M310 569l0 81c125,0 193,-48 213,-137l17 -77c2,-8 -3,-16 -10,-18l-35 -11c-6,-2 -14,4 -16,10l-12 52c-17,65 -46,100 -157,100z"/>
 </g>
 <g id="Layer_x0020_5" visibility="hidden">
  <metadata id="CorelCorpID_5Corel-Layer"/>
  <path class="fil7" d="M744 525l-29 76c-33,65 -130,98 -244,0l35 -74c24,30 144,116 183,-22l19 -68c3,-11 6,-19 22,-19l21 0c13,1 18,7 15,21l-22 86z"/>
  <path class="fil8" d="M974 507l0 -4 0 0c6,-57 -12,-118 -29,-168 -2,-5 -8,-14 -18,-5l-40 35c-5,3 -10,9 -7,22 22,57 32,110 35,155 -22,27 -60,43 -95,43l0 81c53,0 140,-32 154,-159z"/>
  <path class="fil9" d="M511 546c-23,93 -119,104 -188,104l-32 0 0 -81 17 0c91,0 138,-9 153,-64l19 -69c3,-11 7,-19 23,-18l21 0c12,0 18,7 14,20l-27 108z"/>
  <path class="fil10" d="M292 569c-20,0 -40,19 -40,40 0,21 20,41 40,41l0 -81z"/>
  <path class="fil7" d="M711 609l33 -84c-3,14 31,60 80,60l-3 81c-57,0 -97,-38 -110,-57z"/>
 </g>
 <g id="Layer_x0020_6" visibility="hidden">
  <metadata id="CorelCorpID_6Corel-Layer"/>
  <path class="fil8" d="M982 512c5,-58 -12,-119 -29,-168 -2,-6 -8,-14 -18,-6l-40 35c-5,3 -10,9 -7,22 22,57 32,110 35,155 -61,62 -149,27 -192,-31l-24 82c79,110 262,79 275,-89z"/>
  <path class="fil7" d="M744 447c6,-14 47,7 41,21l-27 69c-57,142 -153,169 -261,71l36 -75c95,96 154,43 191,-41l20 -45z"/>
  <path class="fil10" d="M357 569c-21,0 -41,19 -41,40 0,21 20,41 41,41l0 -81z"/>
  <path class="fil9" d="M548 422c6,-15 47,7 41,21l-37 94c-25,63 -55,112 -174,113l-23 0 1 -81 17 0c61,0 115,-7 145,-77l30 -70z"/>
 </g>
 <g id="Layer_x0020_7" visibility="hidden">
  <metadata id="CorelCorpID_7Corel-Layer"/>
  <path class="fil10" d="M341 569c-20,0 -40,19 -40,40 -1,21 20,41 40,41l0 -81z"/>
  <path class="fil11" d="M975 511c0,-43 -11,-99 -34,-170 -4,-10 -12,-11 -18,-5l-40 34c-5,4 -12,10 -7,22 19,49 42,132 39,159 -54,34 -143,18 -195,-33l-17 65c71,95 272,106 272,-72z"/>
  <path class="fil9" d="M727 419c2,-8 7,-10 13,-9l24 7c9,2 10,8 8,15 -34,151 -94,299 -284,170l16 -82c113,97 186,43 223,-101z"/>
  <path class="fil9" d="M367 650l-26 0 0 -81 30 0c118,-2 113,-59 136,-150 2,-8 8,-10 13,-9l25 7c9,2 10,8 8,15 -25,109 -42,217 -186,218z"/>
  <path class="fil7" d="M852 650l-13 -81c-38,0 -71,-32 -99,-75l-37 -58c-4,-6 -8,-9 -18,-3l-17 11c-10,7 -7,14 -4,19l51 81c43,68 89,104 137,106z"/>
 </g>
 <g id="Layer_x0020_8">
  <metadata id="CorelCorpID_8Corel-Layer"/>
  <path class="fil10" d="M284 569l25 0c81,0 115,-18 146,-82l36 -71c4,-9 10,-12 20,-8l23 10c11,4 11,11 5,24l-38 80c-2,5 -5,11 -7,15 21,20 44,32 86,32 56,0 86,-28 108,-76l24 -53c4,-8 9,-12 18,-9l25 10c12,4 11,12 9,18l-36 85c27,16 57,24 84,25 36,0 86,-12 103,-28 2,-28 -20,-107 -39,-156 -5,-12 2,-18 7,-22l40 -35c6,-5 14,-4 18,6 24,71 35,126 34,169 -2,109 -96,147 -163,147 -51,0 -86,-13 -126,-44 -34,30 -79,44 -116,44 -46,0 -86,-20 -117,-51 -36,40 -80,51 -144,51l-25 0c-20,0 -41,-20 -40,-41 0,-21 20,-40 40,-40z"/>
 </g>
</svg>
