<?xml version="1.0" encoding="UTF-8"?>
<!DOCTYPE svg PUBLIC "-//W3C//DTD SVG 1.0//EN" "http://www.w3.org/TR/2001/REC-SVG-20010904/DTD/svg10.dtd">
<!-- Creator: CorelDRAW -->
<svg xmlns="http://www.w3.org/2000/svg" xml:space="preserve" width="1300px" height="1300px" version="1.0" style="shape-rendering:geometricPrecision; text-rendering:geometricPrecision; image-rendering:optimizeQuality; fill-rule:evenodd; clip-rule:evenodd"
viewBox="0 0 1300 1056"
 xmlns:xlink="http://www.w3.org/1999/xlink">
 <defs>
  <style type="text/css">
   <![CDATA[
    .fil0 {fill:red}
   ]]>
  </style>
 </defs>
 <g id="_100:master">
  <metadata id="CorelCorpID_0Corel-Layer"/>
  <path class="fil0" d="M762 539c-1,1 -1,2 -1,3 26,18 64,34 90,35 12,0 56,-5 80,-19 2,-34 -7,-69 -32,-149 -3,-10 0,-14 5,-19l43 -34c6,-5 14,-8 17,3 15,43 33,101 32,162 0,87 -62,137 -145,137 -39,0 -96,-24 -125,-54 -30,31 -74,46 -118,46 -28,0 -56,-8 -79,-21 1,14 1,27 0,37 -17,325 -680,338 -466,-185 3,-8 10,-13 17,-10l24 10c6,2 10,10 6,19 -149,384 278,354 357,217 10,-39 -30,-176 -49,-236 -4,-13 -1,-20 8,-27l38 -33c5,-4 12,-5 15,3 7,20 15,45 22,70 17,47 69,75 109,75 42,0 79,-22 87,-56l24 -97c1,-6 9,-12 15,-10l38 11c8,2 12,11 11,18l-23 104z"/>
 </g>
</svg>
