<?xml version="1.0" encoding="UTF-8"?>
<!DOCTYPE svg PUBLIC "-//W3C//DTD SVG 1.0//EN" "http://www.w3.org/TR/2001/REC-SVG-20010904/DTD/svg10.dtd">
<!-- Creator: CorelDRAW -->
<svg xmlns="http://www.w3.org/2000/svg" xml:space="preserve" width="1300px" height="1300px" version="1.0" style="shape-rendering:geometricPrecision; text-rendering:geometricPrecision; image-rendering:optimizeQuality; fill-rule:evenodd; clip-rule:evenodd"
viewBox="0 0 1300 1056"
 xmlns:xlink="http://www.w3.org/1999/xlink">
 <defs>
  <style type="text/css">
   <![CDATA[
    .fil0 {fill:#999966;fill-opacity:0.549020}
   ]]>
  </style>
 </defs>
 <g id="_100:master">
  <metadata id="CorelCorpID_0Corel-Layer"/>
  <path class="fil0" d="M466 717c10,-39 -29,-176 -49,-236 -4,-13 -1,-20 8,-27l38 -33c5,-4 12,-5 15,3 6,17 12,37 19,57l0 0c27,99 182,118 202,33l23 -97c2,-6 10,-12 16,-10l36 10c7,2 11,11 10,18l-23 104c0,1 -1,2 -1,3 26,18 64,34 90,35 35,0 65,-11 93,-26 -19,-41 -29,-93 -39,-148 -1,-7 3,-16 11,-18l38 -11c6,-2 14,4 15,10 25,114 39,185 158,185l0 81c-74,0 -120,-20 -151,-52 -25,39 -71,60 -125,60 -39,0 -96,-24 -124,-54 -49,50 -135,63 -198,20 2,16 2,31 0,42 -17,325 -680,338 -466,-185 3,-8 10,-13 17,-10l24 10c6,2 10,10 7,19 -150,384 277,354 356,217z"/>
 </g>
</svg>
