<?xml version="1.0" encoding="UTF-8"?>
<!DOCTYPE svg PUBLIC "-//W3C//DTD SVG 1.0//EN" "http://www.w3.org/TR/2001/REC-SVG-20010904/DTD/svg10.dtd">
<!-- Creator: CorelDRAW -->
<svg xmlns="http://www.w3.org/2000/svg" xml:space="preserve" width="1300px" height="1300px" version="1.0" style="shape-rendering:geometricPrecision; text-rendering:geometricPrecision; image-rendering:optimizeQuality; fill-rule:evenodd; clip-rule:evenodd"
viewBox="0 0 1300 1056"
 xmlns:xlink="http://www.w3.org/1999/xlink">
 <defs>
  <style type="text/css">
   <![CDATA[
    .fil0 {fill:#4D4D4D}
   ]]>
  </style>
 </defs>
 <g id="_100:master">
  <metadata id="CorelCorpID_0Corel-Layer"/>
  <path class="fil0" d="M826 582l67 -67 67 67 -67 67 -67 -67zm33 -151l0 0c-3,-3 -5,-7 -7,-10 -36,-59 -3,-142 62,-204l30 30c-24,26 -63,67 -18,113 2,2 4,4 6,6l0 0 0 0c7,8 12,19 12,32 0,27 -22,49 -49,49 -14,0 -27,-7 -36,-16l0 0z"/>
 </g>
</svg>
