<?xml version="1.0" encoding="UTF-8"?>
<!DOCTYPE svg PUBLIC "-//W3C//DTD SVG 1.0//EN" "http://www.w3.org/TR/2001/REC-SVG-20010904/DTD/svg10.dtd">
<!-- Creator: CorelDRAW -->
<svg xmlns="http://www.w3.org/2000/svg" xml:space="preserve" width="1300px" height="1300px" version="1.0" style="shape-rendering:geometricPrecision; text-rendering:geometricPrecision; image-rendering:optimizeQuality; fill-rule:evenodd; clip-rule:evenodd"
viewBox="0 0 1300 1056"
 xmlns:xlink="http://www.w3.org/1999/xlink">
 <defs>
  <style type="text/css">
   <![CDATA[
    .fil0 {fill:fuchsia}
   ]]>
  </style>
 </defs>
 <g id="_100:master">
  <metadata id="CorelCorpID_0Corel-Layer"/>
  <path class="fil0" d="M941 543c-1,-5 -2,-11 -3,-17l-24 -136c-1,-9 6,-13 12,-18l36 -32c3,-2 8,-5 10,2l20 122c7,37 9,58 22,73 23,27 80,32 113,32l0 81c-49,0 -112,-9 -153,-45 -73,56 -176,62 -251,2 -31,29 -74,43 -116,43 -28,0 -57,-8 -81,-22 1,10 1,20 0,29 -10,131 -131,237 -308,237 -151,0 -293,-112 -175,-423 3,-8 10,-12 17,-9l24 9c6,2 10,11 6,20 -90,226 11,321 133,321 108,0 206,-48 241,-109 10,-39 -27,-162 -46,-222 -4,-13 -1,-20 7,-27l39 -33c4,-4 11,-5 14,3 8,21 16,46 23,71 17,47 68,74 108,74 43,0 79,-22 88,-56l23 -97c1,-6 10,-12 15,-10l39 11c7,2 11,11 10,18l-23 104c-1,3 -2,6 -2,9 57,28 127,30 182,-5z"/>
 </g>
</svg>
