<?xml version="1.0" encoding="UTF-8"?>
<!DOCTYPE svg PUBLIC "-//W3C//DTD SVG 1.0//EN" "http://www.w3.org/TR/2001/REC-SVG-20010904/DTD/svg10.dtd">
<!-- Creator: CorelDRAW -->
<svg xmlns="http://www.w3.org/2000/svg" xml:space="preserve" width="1300px" height="1300px" version="1.0" style="shape-rendering:geometricPrecision; text-rendering:geometricPrecision; image-rendering:optimizeQuality; fill-rule:evenodd; clip-rule:evenodd"
viewBox="0 0 1300 1056"
 xmlns:xlink="http://www.w3.org/1999/xlink">
 <defs>
  <style type="text/css">
   <![CDATA[
    .fil0 {fill:#996633}
   ]]>
  </style>
 </defs>
 <g id="_100:master">
  <metadata id="CorelCorpID_0Corel-Layer"/>
  <path class="fil0" d="M807 406c32,6 73,19 76,124l2 118c2,82 17,94 94,94l0 69c-139,0 -168,-32 -168,-133l0 -112c0,-138 -44,-128 -80,-129l0 -31 0 -32c36,0 80,10 80,-129l0 -112c0,-100 29,-133 168,-133l0 70c-77,0 -93,11 -94,94l-2 123c-2,106 -44,112 -76,119l0 0z"/>
 </g>
</svg>
