<?xml version="1.0" encoding="UTF-8"?>
<!DOCTYPE svg PUBLIC "-//W3C//DTD SVG 1.0//EN" "http://www.w3.org/TR/2001/REC-SVG-20010904/DTD/svg10.dtd">
<!-- Creator: CorelDRAW -->
<svg xmlns="http://www.w3.org/2000/svg" xml:space="preserve" width="1300px" height="1300px" version="1.0" style="shape-rendering:geometricPrecision; text-rendering:geometricPrecision; image-rendering:optimizeQuality; fill-rule:evenodd; clip-rule:evenodd"
viewBox="0 0 1300 1056"
 xmlns:xlink="http://www.w3.org/1999/xlink">
 <defs>
  <style type="text/css">
   <![CDATA[
    .fil0 {fill:black;fill-opacity:0.501961}
    .fil2 {fill:red;fill-opacity:0.549020}
    .fil3 {fill:#663333}
    .fil1 {fill:#FF6633}
   ]]>
  </style>
 </defs>
 <g id="_100:master" visibility="hidden">
  <metadata id="CorelCorpID_0Corel-Layer"/>
  <path class="fil0" d="M744 447c6,-14 47,7 41,21l-27 69c-57,142 -153,169 -261,71l36 -75c95,96 154,43 191,-41l20 -45z"/>
  <path class="fil0" d="M935 534l33 52c-64,98 -174,107 -267,22l35 -75c78,79 154,58 199,1z"/>
  <path class="fil1" d="M580 653l1 -81c-36,-20 -49,-43 -68,-104l-33 91c20,44 63,78 100,94z"/>
  <path class="fil2" d="M535 550l0 0 0 0c2,12 4,25 5,37 3,18 5,36 5,46 -1,145 -140,261 -299,261 -134,0 -260,-98 -153,-366 3,-7 7,-13 16,-9l13 6c8,3 9,10 6,19 -77,197 16,269 128,269 92,0 196,-61 226,-132 0,-5 0,-10 0,-15 -3,-50 -20,-117 -49,-191 -3,-13 2,-19 7,-22l40 -35c10,-8 16,0 18,5 14,36 28,82 37,127z"/>
  <path class="fil0" d="M1075 569l0 81c-123,-5 -152,-46 -170,-147l-11 -64c-3,-14 -2,-21 8,-25l18 -7c13,-5 14,6 17,19l9 45c14,67 36,98 112,98l17 0z"/>
 </g>
 <g id="Layer_x0020_1">
  <metadata id="CorelCorpID_1Corel-Layer"/>
  <path class="fil3" d="M930 531c-4,-28 -5,-60 -4,-97 0,-6 0,-15 10,-21l24 -14c14,-8 15,6 15,15 0,102 10,155 114,155l20 0 0 81 -19 0c-77,0 -119,-22 -142,-63 -33,46 -90,63 -136,63 -51,0 -86,-13 -126,-44 -34,30 -79,44 -116,44 -23,0 -45,-6 -66,-18 1,6 0,12 0,18 -8,152 -156,242 -286,243 -142,0 -275,-90 -158,-346 3,-6 7,-10 14,-6l18 8c6,3 6,7 3,13 -57,137 -44,251 131,249 94,-1 199,-53 220,-132 -1,-60 -31,-127 -55,-175 -3,-8 0,-16 7,-22l40 -35c8,-7 15,0 18,6 5,10 10,21 14,32l0 0 0 0c3,6 5,11 7,17 19,42 53,67 103,67 56,0 86,-28 108,-76l24 -53c4,-8 9,-12 18,-9l25 10c12,4 11,12 9,18l-36 85c27,16 57,24 84,25 36,0 86,-12 103,-28l15 -10z"/>
 </g>
</svg>
