<?xml version="1.0" encoding="UTF-8"?>
<!DOCTYPE svg PUBLIC "-//W3C//DTD SVG 1.0//EN" "http://www.w3.org/TR/2001/REC-SVG-20010904/DTD/svg10.dtd">
<!-- Creator: CorelDRAW -->
<svg xmlns="http://www.w3.org/2000/svg" xml:space="preserve" width="1300px" height="1300px" version="1.0" style="shape-rendering:geometricPrecision; text-rendering:geometricPrecision; image-rendering:optimizeQuality; fill-rule:evenodd; clip-rule:evenodd"
viewBox="0 0 1300 1056"
 xmlns:xlink="http://www.w3.org/1999/xlink">
 <defs>
  <style type="text/css">
   <![CDATA[
    .fil1 {fill:black;fill-opacity:0.501961}
    .fil14 {fill:#663333;fill-opacity:0.501961}
    .fil13 {fill:#9900CC;fill-opacity:0.501961}
    .fil2 {fill:#663300}
    .fil12 {fill:#6666FF}
    .fil4 {fill:gray}
    .fil8 {fill:#990000}
    .fil10 {fill:#9900CC}
    .fil11 {fill:#999933}
    .fil9 {fill:#999966}
    .fil7 {fill:red}
    .fil5 {fill:fuchsia}
    .fil3 {fill:#FF6666}
    .fil0 {fill:#FF9933}
    .fil6 {fill:#FFFF66}
   ]]>
  </style>
 </defs>
 <g id="_100:master" visibility="hidden">
  <metadata id="CorelCorpID_0Corel-Layer"/>
  <path class="fil0" d="M923 520l30 75c-20,27 -62,55 -118,55l1 -81c50,0 81,-27 87,-49z"/>
  <path class="fil1" d="M837 650l0 -81c-32,-4 -60,-20 -71,-50l0 -104 -61 14 0 91c0,33 -55,50 -95,49l-1 81c51,0 106,-15 124,-55 22,34 62,52 104,55z"/>
  <path class="fil1" d="M1106 650l0 -81c-55,0 -125,-11 -136,-63l-24 -114 -55 21 29 136c23,95 141,101 186,101z"/>
  <path class="fil0" d="M484 516l-31 75c45,44 103,59 159,59l-2 -81c-53,0 -106,-21 -126,-53z"/>
  <path class="fil2" d="M292 569c-20,0 -40,19 -41,40 0,21 21,41 41,41l0 -81z"/>
  <path class="fil3" d="M483 548c15,-29 35,-70 58,-127l-51 -22c-5,14 -41,95 -71,135 -25,26 -77,35 -128,35l1 81c103,-5 162,-33 191,-102z"/>
  <path class="fil4" d="M1219 484c0,75 -22,166 -191,166l0 -81c45,0 101,-8 130,-33l61 -52z"/>
  <path class="fil0" d="M1191 589l-78 -31c48,-25 40,-71 41,-168l65 -16 0 110c0,40 -8,83 -28,105z"/>
  <path class="fil5" d="M1160 559l54 -20c30,23 82,30 126,30l0 81c-72,0 -151,-15 -180,-91z"/>
 </g>
 <g id="Layer_x0020_1" visibility="hidden">
  <metadata id="CorelCorpID_1Corel-Layer"/>
  <path class="fil2" d="M346 569c-20,0 -40,19 -40,40 -1,21 20,41 40,41l0 -81z"/>
  <path class="fil1" d="M946 369l-46 37c22,139 69,244 239,244l0 -81c-146,0 -164,-87 -193,-200z"/>
  <path class="fil3" d="M610 405l-49 -26c-68,159 -133,190 -217,190l0 81c110,0 187,-40 266,-245z"/>
  <path class="fil5" d="M504 587c48,47 95,63 140,63 86,0 116,-98 163,-199l-49 -26c-54,111 -71,144 -112,144 -32,0 -66,-10 -104,-44l-38 62z"/>
  <path class="fil5" d="M969 558l-36 -59c-28,52 -46,70 -75,70 -32,0 -67,-10 -105,-44l-38 62c49,47 95,63 141,63 53,0 85,-38 113,-92z"/>
 </g>
 <g id="Layer_x0020_2" visibility="hidden">
  <metadata id="CorelCorpID_2Corel-Layer"/>
  <path class="fil5" d="M1009 571l-28 -64c-64,80 -178,78 -253,23l-16 68c88,81 223,62 297,-27z"/>
  <path class="fil6" d="M297 569c-20,0 -40,19 -40,40 -1,21 20,41 40,41l0 -81z"/>
  <path class="fil7" d="M761 539l23 -104c1,-7 -3,-16 -10,-18l-39 -11c-5,-2 -14,4 -15,10l-23 97c-17,68 -147,82 -207,-9l-19 80c48,94 259,94 290,-45z"/>
  <path class="fil8" d="M958 588c40,51 113,62 169,62l0 -81c-33,0 -90,-5 -113,-32 -13,-15 -15,-36 -22,-73l-20 -122c-2,-7 -7,-4 -10,-2l-36 32c-6,5 -13,9 -12,18l24 136c7,40 7,41 20,62z"/>
  <path class="fil9" d="M297 569l0 81c83,0 198,-12 220,-110l23 -104c2,-8 -3,-16 -10,-18l-38 -11c-6,-2 -14,4 -16,10l-22 87c-14,57 -67,65 -157,65z"/>
 </g>
 <g id="Layer_x0020_3" visibility="hidden">
  <metadata id="CorelCorpID_3Corel-Layer"/>
  <path class="fil5" d="M1009 571l-28 -64c-64,80 -178,78 -253,23l-16 68c88,81 223,62 297,-27z"/>
  <path class="fil6" d="M297 569c-20,0 -40,19 -40,40 -1,21 20,41 40,41l0 -81z"/>
  <path class="fil7" d="M761 539l23 -104c1,-7 -3,-16 -10,-18l-39 -11c-5,-2 -14,4 -15,10l-23 97c-17,68 -147,82 -207,-9l-19 80c48,94 259,94 290,-45z"/>
  <path class="fil9" d="M297 569l0 81c83,0 198,-12 220,-110l23 -104c2,-8 -3,-16 -10,-18l-38 -11c-6,-2 -14,4 -16,10l-22 87c-14,57 -67,65 -157,65z"/>
  <path class="fil9" d="M1126 569l0 81c-177,0 -198,-114 -222,-247 -1,-7 3,-16 11,-18l38 -11c6,-2 14,4 15,10 25,114 39,185 158,185z"/>
 </g>
 <g id="Layer_x0020_4" visibility="hidden">
  <metadata id="CorelCorpID_4Corel-Layer"/>
  <path class="fil10" d="M999 584l-47 -27c-25,18 -75,27 -103,27l0 0 -1 0c-28,0 -93,-17 -102,-47l-53 48c28,62 105,81 163,82 59,0 117,-30 143,-83z"/>
  <path class="fil7" d="M746 539l23 -104c2,-7 -3,-16 -10,-18l-36 -10c-6,-2 -14,4 -15,10l-24 97c-25,107 -181,77 -210,19l-49 52c38,97 281,134 321,-46z"/>
  <path class="fil9" d="M1115 569l28 0 0 81 -28 0c-144,7 -182,-102 -225,-230 -2,-7 0,-16 7,-20l34 -16c5,-2 14,2 16,8 42,109 58,178 168,177z"/>
  <path class="fil11" d="M281 569c-20,0 -40,19 -41,40 0,21 21,41 41,41l0 -81z"/>
  <path class="fil12" d="M481 530l21 -95c2,-7 -2,-16 -10,-18l-36 -10c-5,-2 -14,4 -15,10l-17 69c-15,63 -45,83 -141,83l-2 0 0 81 19 0c113,0 165,-50 181,-120z"/>
 </g>
 <g id="Layer_x0020_5" visibility="hidden">
  <metadata id="CorelCorpID_5Corel-Layer"/>
  <path class="fil1" d="M539 422c-6,-15 -47,6 -41,21l38 94c57,142 152,169 260,71l-35 -75c-96,96 -156,44 -192,-41l-30 -70z"/>
  <path class="fil1" d="M743 422c-6,-15 -48,6 -42,21l38 94c57,142 152,169 260,71l-35 -75c-96,96 -156,44 -191,-41l-30 -70z"/>
  <path class="fil13" d="M924 601l19 -79c22,25 67,47 138,47l-1 81c-113,0 -139,-33 -156,-49z"/>
  <path class="fil11" d="M357 569c-21,0 -41,19 -41,40 0,21 20,41 41,41l0 -81z"/>
  <path class="fil14" d="M548 422c6,-15 47,7 41,21l-37 94c-25,63 -55,112 -174,113l-23 0 1 -81 17 0c61,0 115,-7 145,-77l30 -70z"/>
  <path class="fil14" d="M899 422c-6,-15 -48,7 -42,21l37 94c25,63 55,112 174,113l23 0 0 -81 -18 0c-60,0 -115,-7 -144,-77l-30 -70z"/>
 </g>
 <g id="Layer_x0020_6" visibility="hidden">
  <metadata id="CorelCorpID_6Corel-Layer"/>
  <path class="fil1" d="M744 447c6,-14 47,7 41,21l-27 69c-57,142 -153,169 -261,71l36 -75c95,96 154,43 191,-41l20 -45z"/>
  <path class="fil1" d="M935 534l33 52c-64,98 -174,107 -267,22l35 -75c78,79 154,58 199,1z"/>
  <path class="fil11" d="M357 569c-21,0 -41,19 -41,40 0,21 20,41 41,41l0 -81z"/>
  <path class="fil14" d="M548 422c6,-15 47,7 41,21l-37 94c-25,63 -55,112 -174,113l-23 0 1 -81 17 0c61,0 115,-7 145,-77l30 -70z"/>
  <path class="fil1" d="M1075 569l0 81c-123,-5 -152,-46 -170,-147l-11 -64c-3,-14 -2,-21 8,-25l18 -7c13,-5 14,6 17,19l9 45c14,67 36,98 112,98l17 0z"/>
 </g>
 <g id="Layer_x0020_7" visibility="hidden">
  <metadata id="CorelCorpID_7Corel-Layer"/>
  <path class="fil14" d="M936 433c-4,-15 -41,7 -37,23l8 33c25,105 35,160 176,161l23 0 -1 -81 -17 0c-67,0 -118,-11 -137,-84l-15 -52z"/>
  <path class="fil11" d="M375 569c-20,0 -40,19 -40,40 -1,21 20,41 40,41l0 -81z"/>
  <path class="fil1" d="M585 488l-49 8c-64,169 147,203 220,87l-18 -66c-22,64 -195,76 -160,-13l7 -16z"/>
  <path class="fil14" d="M566 422c6,-15 44,3 38,18l-25 63c-40,100 -60,146 -183,147l-22 0 0 -81 17 0c61,0 116,-7 145,-77l30 -70z"/>
  <path class="fil1" d="M791 454c4,-15 -36,-25 -40,-10l-23 76c-47,157 121,174 194,116 16,-12 24,-26 34,-42l-33 -44c-46,51 -178,58 -143,-60l11 -36z"/>
 </g>
 <g id="Layer_x0020_8">
  <metadata id="CorelCorpID_8Corel-Layer"/>
  <path class="fil11" d="M284 569l25 0c81,0 115,-18 146,-82l36 -71c4,-9 10,-12 20,-8l23 10c11,4 11,11 5,24l-38 80c-2,5 -5,11 -7,15 21,20 44,32 86,32 56,0 86,-28 108,-76l24 -53c4,-8 9,-12 18,-9l25 10c12,4 11,12 9,18l-36 85c27,16 57,24 84,25 36,0 86,-12 103,-28l15 -10c-4,-28 -5,-60 -4,-97 0,-6 0,-15 10,-21l24 -14c14,-8 15,6 15,15 0,102 10,155 114,155l20 0 0 81 -19 0c-77,0 -119,-22 -142,-63 -33,46 -90,63 -136,63 -51,0 -86,-13 -126,-44 -34,30 -79,44 -116,44 -46,0 -86,-20 -117,-51 -36,40 -80,51 -144,51l-25 0c-20,0 -41,-20 -40,-41 0,-21 20,-40 40,-40z"/>
 </g>
</svg>
