<?xml version="1.0" encoding="UTF-8"?>
<!DOCTYPE svg PUBLIC "-//W3C//DTD SVG 1.0//EN" "http://www.w3.org/TR/2001/REC-SVG-20010904/DTD/svg10.dtd">
<!-- Creator: CorelDRAW -->
<svg xmlns="http://www.w3.org/2000/svg" xml:space="preserve" width="1300px" height="1300px" version="1.0" style="shape-rendering:geometricPrecision; text-rendering:geometricPrecision; image-rendering:optimizeQuality; fill-rule:evenodd; clip-rule:evenodd"
viewBox="0 0 1300 1056"
 xmlns:xlink="http://www.w3.org/1999/xlink">
 <defs>
  <style type="text/css">
   <![CDATA[
    .fil0 {fill:black;fill-opacity:0.501961}
   ]]>
  </style>
 </defs>
 <g id="_100:master">
  <metadata id="CorelCorpID_0Corel-Layer"/>
  <path class="fil0" d="M501 547l-1 1c16,-17 27,-44 26,-68l-12 -372c-2,-52 -3,-57 29,-84l19 -16c13,-12 23,-11 23,9l0 442c74,-75 147,-135 227,-134 106,0 163,93 163,163l0 0c0,26 -3,73 -37,95 -66,45 -175,83 -354,83 -90,0 -133,-16 -161,-33 -11,-6 -54,-99 -1,-80 15,4 35,11 57,17l1 -1c7,-7 14,-14 21,-22zm30 34c47,-53 155,-166 264,-167 67,0 109,64 115,110 -76,34 -189,61 -334,61 -15,0 -30,-1 -45,-4z"/>
 </g>
</svg>
