<?xml version="1.0" encoding="UTF-8"?>
<!DOCTYPE svg PUBLIC "-//W3C//DTD SVG 1.0//EN" "http://www.w3.org/TR/2001/REC-SVG-20010904/DTD/svg10.dtd">
<!-- Creator: CorelDRAW -->
<svg xmlns="http://www.w3.org/2000/svg" xml:space="preserve" width="1300px" height="1300px" version="1.0" style="shape-rendering:geometricPrecision; text-rendering:geometricPrecision; image-rendering:optimizeQuality; fill-rule:evenodd; clip-rule:evenodd"
viewBox="0 0 1300 1056"
 xmlns:xlink="http://www.w3.org/1999/xlink">
 <defs>
  <style type="text/css">
   <![CDATA[
    .fil0 {fill:#FF6600}
   ]]>
  </style>
 </defs>
 <g id="_100:master">
  <metadata id="CorelCorpID_0Corel-Layer"/>
  <path class="fil0" d="M976 474c-2,18 -8,41 -24,64 19,22 48,31 89,31l21 0 0 81 -24 0c-73,0 -118,-25 -142,-67 -75,43 -172,67 -261,67 -103,0 -169,-13 -237,-44 -7,-3 -13,-9 -9,-20l19 -48c5,-12 16,-6 25,-2 23,10 45,17 71,23 3,-4 7,-7 10,-11 4,-6 9,-12 14,-18 24,-36 35,-81 33,-158 -2,-110 -10,-224 -19,-305 -2,-21 -2,-23 10,-34l34 -29c6,-6 17,-5 18,5 11,80 20,227 20,357 0,19 -1,35 -3,51 47,-50 102,-91 165,-97 89,-8 149,38 175,86 12,23 16,46 15,68zm-424 92c24,2 51,3 83,3 87,-1 194,-29 274,-63 -13,-54 -62,-97 -136,-99 -92,-2 -159,80 -221,159z"/>
 </g>
</svg>
