<?xml version="1.0" encoding="UTF-8"?>
<!DOCTYPE svg PUBLIC "-//W3C//DTD SVG 1.0//EN" "http://www.w3.org/TR/2001/REC-SVG-20010904/DTD/svg10.dtd">
<!-- Creator: CorelDRAW -->
<svg xmlns="http://www.w3.org/2000/svg" xml:space="preserve" width="1300px" height="1300px" version="1.0" style="shape-rendering:geometricPrecision; text-rendering:geometricPrecision; image-rendering:optimizeQuality; fill-rule:evenodd; clip-rule:evenodd"
viewBox="0 0 1300 1056"
 xmlns:xlink="http://www.w3.org/1999/xlink">
 <defs>
  <style type="text/css">
   <![CDATA[
    .fil0 {fill:#6699FF;fill-opacity:0.501961}
   ]]>
  </style>
 </defs>
 <g id="_100:master">
  <metadata id="CorelCorpID_0Corel-Layer"/>
  <path class="fil0" d="M514 569c26,0 40,-12 39,-34l-13 -454c-1,-40 -3,-45 62,-81 6,0 10,2 10,9l0 477c84,-97 166,-194 256,-194 117,0 163,104 164,159l0 0 0 1 0 0c0,133 -96,198 -263,198l-164 0 0 0 -133 0 0 0c-21,0 -41,-20 -41,-41 0,-21 20,-40 41,-40l0 0 42 0zm87 0l166 0c125,0 191,-37 204,-65l0 0c9,-36 -41,-130 -123,-130 -78,0 -150,88 -247,195z"/>
 </g>
</svg>
