<?xml version="1.0" encoding="UTF-8"?>
<!DOCTYPE svg PUBLIC "-//W3C//DTD SVG 1.0//EN" "http://www.w3.org/TR/2001/REC-SVG-20010904/DTD/svg10.dtd">
<!-- Creator: CorelDRAW -->
<svg xmlns="http://www.w3.org/2000/svg" xml:space="preserve" width="1300px" height="1300px" version="1.0" style="shape-rendering:geometricPrecision; text-rendering:geometricPrecision; image-rendering:optimizeQuality; fill-rule:evenodd; clip-rule:evenodd"
viewBox="0 0 1300 1056"
 xmlns:xlink="http://www.w3.org/1999/xlink">
 <defs>
  <style type="text/css">
   <![CDATA[
    .fil2 {fill:#663333;fill-opacity:0.501961}
    .fil5 {fill:#00CCFF}
    .fil1 {fill:#6666CC}
    .fil0 {fill:#996633}
    .fil4 {fill:#FF6600}
    .fil3 {fill:#FF6633}
   ]]>
  </style>
 </defs>
 <g id="_100:master" visibility="hidden">
  <metadata id="CorelCorpID_0Corel-Layer"/>
  <path class="fil0" d="M604 606c73,-90 173,-217 283,-215 100,2 105,121 88,196l62 -80c19,-85 -11,-204 -137,-203 -117,0 -255,193 -323,269l27 33z"/>
  <path class="fil1" d="M1040 488c-90,57 -183,93 -285,96 -86,3 -205,-44 -251,-72 -16,-11 -38,71 -17,83 41,23 161,75 266,71 85,-3 170,-29 252,-95 15,-13 31,-43 35,-83z"/>
  <path class="fil2" d="M572 577c50,-47 47,-97 44,-205 -2,-110 -10,-224 -18,-305 -2,-21 -2,-25 21,-44l19 -17c13,-11 21,-6 23,9 9,80 18,221 18,351 0,127 -27,174 -54,214 -7,10 -91,32 -53,-3z"/>
 </g>
 <g id="Layer_x0020_1" visibility="hidden">
  <metadata id="CorelCorpID_1Corel-Layer"/>
  <path class="fil2" d="M492 571c50,-47 72,-91 69,-199 -2,-110 -10,-224 -19,-305 -2,-21 -2,-25 21,-44l19 -17c14,-11 22,-6 23,9 9,80 19,221 19,351 0,127 -52,168 -79,208 -7,10 -92,32 -53,-3z"/>
  <path class="fil0" d="M514 614c73,-90 148,-209 259,-207 99,2 153,80 136,156l65 -100c9,-57 -62,-154 -188,-143 -134,12 -232,185 -300,261l28 33z"/>
  <path class="fil3" d="M412 525c-33,-21 -21,105 118,127 142,22 364,-35 412,-108 9,-13 30,-53 32,-81 -131,84 -287,127 -442,108 -57,-7 -109,-21 -120,-46z"/>
 </g>
 <g id="Layer_x0020_3" visibility="hidden">
  <metadata id="CorelCorpID_2Corel-Layer"/>
  <path class="fil4" d="M514 614c73,-90 148,-209 259,-207 99,2 153,80 136,156l67 -89c1,-22 -3,-45 -15,-68 -26,-48 -86,-94 -175,-86 -134,12 -232,185 -300,261l28 33z"/>
  <path class="fil5" d="M976 474c-14,8 -33,17 -52,25 -81,37 -200,69 -289,69 -162,1 -210,-28 -225,-47 -3,-4 -8,0 -12,4 -14,91 83,124 237,125 90,0 215,-32 294,-87 33,-29 43,-63 47,-89z"/>
  <path class="fil2" d="M492 571c50,-47 72,-91 69,-199 -2,-110 -10,-224 -19,-305 -2,-21 -2,-25 21,-44l19 -17c14,-11 22,-6 23,9 9,80 19,221 19,351 0,127 -52,168 -79,208 -7,10 -92,32 -53,-3z"/>
 </g>
 <g id="Layer_x0020_2">
  <metadata id="CorelCorpID_3Corel-Layer"/>
  <path class="fil4" d="M976 474c-3,26 -14,60 -47,89 -79,55 -192,87 -294,87 -103,0 -169,-13 -237,-44 -7,-3 -13,-9 -9,-20l19 -48c5,-12 16,-6 25,-2 23,10 45,17 71,23 3,-4 7,-7 10,-11 4,-6 9,-12 14,-18 24,-36 35,-81 33,-158 -2,-110 -10,-224 -19,-305 -2,-21 -2,-23 10,-34l34 -29c6,-6 17,-5 18,5 11,80 20,227 20,357 0,19 -1,35 -3,51 47,-50 102,-91 165,-97 89,-8 149,38 175,86 12,23 16,46 15,68zm-424 92c24,2 51,3 83,3 87,-1 194,-29 274,-63 -13,-54 -62,-97 -136,-99 -92,-2 -159,80 -221,159z"/>
 </g>
</svg>
