<?xml version="1.0" encoding="UTF-8"?>
<!DOCTYPE svg PUBLIC "-//W3C//DTD SVG 1.0//EN" "http://www.w3.org/TR/2001/REC-SVG-20010904/DTD/svg10.dtd">
<!-- Creator: CorelDRAW -->
<svg xmlns="http://www.w3.org/2000/svg" xml:space="preserve" width="1300px" height="1300px" version="1.0" style="shape-rendering:geometricPrecision; text-rendering:geometricPrecision; image-rendering:optimizeQuality; fill-rule:evenodd; clip-rule:evenodd"
viewBox="0 0 1300 1056"
 xmlns:xlink="http://www.w3.org/1999/xlink">
 <defs>
  <style type="text/css">
   <![CDATA[
    .fil0 {fill:black;fill-opacity:0.501961}
   ]]>
  </style>
 </defs>
 <g id="_100:master">
  <metadata id="CorelCorpID_0Corel-Layer"/>
  <path class="fil0" d="M576 569l0 0c149,0 263,-19 339,-50 -20,-60 -66,-112 -128,-112 -49,0 -102,21 -151,65l-108 97 48 0zm13 81l-157 0 0 0 -1 0 0 0c-20,-1 -40,-20 -40,-41 0,-20 20,-40 40,-40l0 0 1 0 0 0 33 0c6,-6 14,-13 22,-21 15,-17 26,-44 26,-68l-13 -371c-2,-52 -3,-57 29,-84l19 -17c13,-11 23,-10 23,9l0 450c15,-15 31,-29 46,-43 54,-48 115,-104 191,-104 112,0 167,117 167,168 0,14 -1,35 -8,55 19,18 59,26 112,26l0 81c-88,0 -136,-24 -160,-55 -67,36 -170,54 -330,55l0 0z"/>
 </g>
</svg>
