<?xml version="1.0" encoding="UTF-8"?>
<!DOCTYPE svg PUBLIC "-//W3C//DTD SVG 1.0//EN" "http://www.w3.org/TR/2001/REC-SVG-20010904/DTD/svg10.dtd">
<!-- Creator: CorelDRAW -->
<svg xmlns="http://www.w3.org/2000/svg" xml:space="preserve" width="1300px" height="1300px" version="1.0" style="shape-rendering:geometricPrecision; text-rendering:geometricPrecision; image-rendering:optimizeQuality; fill-rule:evenodd; clip-rule:evenodd"
viewBox="0 0 1300 1056"
 xmlns:xlink="http://www.w3.org/1999/xlink">
 <defs>
  <style type="text/css">
   <![CDATA[
    .fil0 {fill:#996633}
   ]]>
  </style>
 </defs>
 <g id="_100:master">
  <metadata id="CorelCorpID_0Corel-Layer"/>
  <path class="fil0" d="M601 569c97,-107 169,-195 247,-195 82,0 132,94 123,130l0 0c-13,28 -79,65 -204,65l-166 0zm374 22c-45,40 -115,59 -206,59l-172 0 0 0c-60,0 -96,0 -142,-17 -12,-4 -54,-99 0,-80 30,10 54,14 83,15 6,-7 13,-13 19,-20 16,-17 27,-44 26,-68l-12 -372c-2,-52 -3,-57 29,-84l19 -16c13,-12 23,-11 23,9l0 435c74,-85 147,-160 226,-160 117,0 163,104 164,159l0 0 0 1 0 0c0,30 -5,56 -14,79 3,11 12,19 25,23 30,9 76,15 97,15l0 81c-54,0 -128,-12 -165,-59l0 0z"/>
 </g>
</svg>
