<?xml version="1.0" encoding="UTF-8"?>
<!DOCTYPE svg PUBLIC "-//W3C//DTD SVG 1.0//EN" "http://www.w3.org/TR/2001/REC-SVG-20010904/DTD/svg10.dtd">
<!-- Creator: CorelDRAW -->
<svg xmlns="http://www.w3.org/2000/svg" xml:space="preserve" width="1300px" height="1300px" version="1.0" style="shape-rendering:geometricPrecision; text-rendering:geometricPrecision; image-rendering:optimizeQuality; fill-rule:evenodd; clip-rule:evenodd"
viewBox="0 0 1300 1056"
 xmlns:xlink="http://www.w3.org/1999/xlink">
 <defs>
  <style type="text/css">
   <![CDATA[
    .fil0 {fill:black;fill-opacity:0.501961}
   ]]>
  </style>
 </defs>
 <g id="_100:master">
  <metadata id="CorelCorpID_0Corel-Layer"/>
  <path class="fil0" d="M911 520c-43,27 -94,49 -195,49l-174 0c51,-61 151,-187 253,-187 72,0 115,73 116,138zm-411 28c16,-18 27,-44 26,-68l-12 -372c-2,-52 -3,-57 29,-84l19 -16c13,-12 23,-11 23,9l0 435c74,-85 147,-160 227,-160 121,0 163,108 163,188l0 0c0,22 -4,41 -10,59 9,9 24,16 40,20 28,8 60,10 99,10l0 81 -20 0c-80,0 -131,-21 -159,-56 -45,39 -115,56 -194,56l-150 0 0 0 -149 0 0 0 -1 0 0 0c-20,-1 -40,-20 -40,-41 0,-20 20,-40 40,-40l0 0 1 0 0 0 48 0c7,-7 14,-14 20,-21z"/>
 </g>
</svg>
