<?xml version="1.0" encoding="UTF-8"?>
<!DOCTYPE svg PUBLIC "-//W3C//DTD SVG 1.0//EN" "http://www.w3.org/TR/2001/REC-SVG-20010904/DTD/svg10.dtd">
<!-- Creator: CorelDRAW -->
<svg xmlns="http://www.w3.org/2000/svg" xml:space="preserve" width="1300px" height="1300px" version="1.0" style="shape-rendering:geometricPrecision; text-rendering:geometricPrecision; image-rendering:optimizeQuality; fill-rule:evenodd; clip-rule:evenodd"
viewBox="0 0 1300 1056"
 xmlns:xlink="http://www.w3.org/1999/xlink">
 <defs>
  <style type="text/css">
   <![CDATA[
    .fil0 {fill:black;fill-opacity:0.501961}
    .fil3 {fill:#336699;fill-opacity:0.501961}
    .fil2 {fill:#663300}
    .fil4 {fill:#996633}
    .fil1 {fill:#99CCCC}
   ]]>
  </style>
 </defs>
 <g id="_100:master" visibility="hidden">
  <metadata id="CorelCorpID_0Corel-Layer"/>
  <polygon class="fil0" points="589,650 578,569 431,569 431,650 "/>
  <path class="fil1" d="M432 569c-21,0 -41,19 -41,40 0,21 20,41 41,41l0 -81z"/>
  <path class="fil2" d="M576 569l8 81c179,0 288,-22 354,-67 34,-22 37,-69 37,-95 -68,49 -204,81 -399,81z"/>
  <path class="fil3" d="M919 594l36 -79c0,38 49,54 124,54l0 81c-88,0 -136,-24 -160,-56z"/>
  <path class="fil0" d="M571 487l-85 62c16,-18 27,-44 27,-69l-13 -371c-2,-52 -3,-57 29,-84l19 -17c13,-11 23,-10 23,9l0 470z"/>
  <path class="fil4" d="M487 606l149 -134c49,-44 102,-65 151,-65 85,0 139,97 139,178l49 -97c0,-51 -55,-168 -167,-168 -76,0 -137,56 -191,104 -60,53 -119,115 -157,149l27 33z"/>
 </g>
 <g id="Layer_x0020_1">
  <metadata id="CorelCorpID_1Corel-Layer"/>
  <path class="fil1" d="M552 566c62,-79 130,-161 221,-159 74,2 123,45 136,99 -128,56 -233,63 -354,63l-3 -3zm-139 3l0 0 0 0 17 0c47,0 66,-4 97,-39l1 0 0 0c24,-36 35,-81 33,-158 -2,-110 -10,-224 -19,-305 -2,-21 -2,-23 10,-34l34 -29c6,-6 17,-5 18,5 11,80 20,227 20,357 0,19 -1,35 -3,51 47,-50 102,-91 165,-97 89,-8 149,38 175,86 12,23 16,46 15,68 -2,18 -8,41 -24,64 19,22 48,31 89,31l21 0 0 81 -24 0c-73,0 -118,-25 -142,-66 -145,82 -309,66 -473,66l-11 0 0 0c-20,0 -40,-20 -40,-41 0,-21 20,-40 41,-40z"/>
 </g>
</svg>
