<?xml version="1.0" encoding="UTF-8"?>
<!DOCTYPE svg PUBLIC "-//W3C//DTD SVG 1.0//EN" "http://www.w3.org/TR/2001/REC-SVG-20010904/DTD/svg10.dtd">
<!-- Creator: CorelDRAW -->
<svg xmlns="http://www.w3.org/2000/svg" xml:space="preserve" width="1300px" height="1300px" version="1.0" style="shape-rendering:geometricPrecision; text-rendering:geometricPrecision; image-rendering:optimizeQuality; fill-rule:evenodd; clip-rule:evenodd"
viewBox="0 0 1300 1056"
 xmlns:xlink="http://www.w3.org/1999/xlink">
 <defs>
  <style type="text/css">
   <![CDATA[
    .fil0 {fill:#336699;fill-opacity:0.501961}
   ]]>
  </style>
 </defs>
 <g id="_100:master">
  <metadata id="CorelCorpID_0Corel-Layer"/>
  <path class="fil0" d="M967 543c19,18 59,26 112,26l0 81c-88,0 -135,-24 -159,-55 -68,40 -173,71 -336,71 -90,0 -174,-16 -202,-33 -11,-6 -54,-99 0,-80 16,5 46,12 80,18 7,-6 16,-14 25,-23 15,-17 26,-44 26,-68l-13 -371c-2,-52 -3,-57 29,-84l19 -17c13,-11 23,-10 23,9l0 450c15,-15 31,-29 46,-43 54,-48 115,-104 191,-104 112,0 167,117 167,168 0,14 -1,35 -8,55zm-51 -22c-76,36 -191,64 -340,64 -17,0 -38,-2 -61,-5l121 -108c49,-44 102,-65 151,-65 63,0 109,54 129,114z"/>
 </g>
</svg>
