<?xml version="1.0" encoding="UTF-8"?>
<!DOCTYPE svg PUBLIC "-//W3C//DTD SVG 1.0//EN" "http://www.w3.org/TR/2001/REC-SVG-20010904/DTD/svg10.dtd">
<!-- Creator: CorelDRAW -->
<svg xmlns="http://www.w3.org/2000/svg" xml:space="preserve" width="1300px" height="1300px" version="1.0" style="shape-rendering:geometricPrecision; text-rendering:geometricPrecision; image-rendering:optimizeQuality; fill-rule:evenodd; clip-rule:evenodd"
viewBox="0 0 1300 1056"
 xmlns:xlink="http://www.w3.org/1999/xlink">
 <defs>
  <style type="text/css">
   <![CDATA[
    .fil0 {fill:#663300}
   ]]>
  </style>
 </defs>
 <g id="_100:master">
  <metadata id="CorelCorpID_0Corel-Layer"/>
  <path class="fil0" d="M916 521c-20,-60 -66,-114 -129,-114 -49,0 -102,21 -151,65l-121 108c23,3 44,5 61,5 149,0 264,-28 340,-64zm-332 145c-90,0 -174,-16 -202,-33 -11,-6 -54,-99 0,-80 16,5 46,12 80,18 7,-6 16,-14 25,-23 15,-17 26,-44 26,-68l-13 -371c-2,-52 -3,-57 29,-84l19 -17c13,-11 23,-10 23,9l0 450c15,-15 31,-29 46,-43 54,-48 115,-104 191,-104 112,0 167,117 167,168 0,26 -3,73 -37,95 -66,45 -175,83 -354,83z"/>
 </g>
</svg>
