<?xml version="1.0" encoding="UTF-8"?>
<!DOCTYPE svg PUBLIC "-//W3C//DTD SVG 1.0//EN" "http://www.w3.org/TR/2001/REC-SVG-20010904/DTD/svg10.dtd">
<!-- Creator: CorelDRAW -->
<svg xmlns="http://www.w3.org/2000/svg" xml:space="preserve" width="1300px" height="1300px" version="1.0" style="shape-rendering:geometricPrecision; text-rendering:geometricPrecision; image-rendering:optimizeQuality; fill-rule:evenodd; clip-rule:evenodd"
viewBox="0 0 1300 1056"
 xmlns:xlink="http://www.w3.org/1999/xlink">
 <defs>
  <style type="text/css">
   <![CDATA[
    .fil0 {fill:black;fill-opacity:0.501961}
   ]]>
  </style>
 </defs>
 <g id="_100:master">
  <metadata id="CorelCorpID_0Corel-Layer"/>
  <path class="fil0" d="M501 547l-1 1c16,-17 27,-44 26,-68l-12 -372c-2,-52 -3,-57 29,-84l19 -16c13,-12 23,-11 23,9l0 442c74,-75 147,-135 227,-134 106,0 163,93 163,163l0 0c0,14 -1,35 -8,55 19,18 59,26 112,26l0 81c-88,0 -135,-24 -159,-55 -68,40 -173,71 -336,71 -90,0 -174,-16 -202,-33 -11,-6 -54,-99 0,-80 18,6 54,14 93,21 9,-9 17,-18 26,-27zm30 35c46,-53 154,-167 264,-168 67,0 109,64 115,110 -76,34 -189,61 -334,61 -13,0 -29,-1 -45,-3z"/>
 </g>
</svg>
