<?xml version="1.0" encoding="UTF-8"?>
<!DOCTYPE svg PUBLIC "-//W3C//DTD SVG 1.0//EN" "http://www.w3.org/TR/2001/REC-SVG-20010904/DTD/svg10.dtd">
<!-- Creator: CorelDRAW -->
<svg xmlns="http://www.w3.org/2000/svg" xml:space="preserve" width="1300px" height="1300px" version="1.0" style="shape-rendering:geometricPrecision; text-rendering:geometricPrecision; image-rendering:optimizeQuality; fill-rule:evenodd; clip-rule:evenodd"
viewBox="0 0 1300 1056"
 xmlns:xlink="http://www.w3.org/1999/xlink">
 <defs>
  <style type="text/css">
   <![CDATA[
    .fil0 {fill:#999933}
   ]]>
  </style>
 </defs>
 <g id="_100:master">
  <metadata id="CorelCorpID_0Corel-Layer"/>
  <path class="fil0" d="M531 581c15,3 30,4 45,4 145,0 258,-27 334,-61 -6,-46 -48,-110 -115,-110 -109,1 -217,114 -264,167zm390 13c-68,40 -173,72 -337,72 -90,0 -133,-16 -161,-33 -11,-6 -54,-99 -1,-80 15,4 35,11 57,17l1 -1c7,-7 14,-14 21,-22l-1 1c16,-17 27,-44 26,-68l-12 -372c-2,-52 -3,-57 29,-84l19 -16c13,-12 23,-11 23,9l0 442c74,-75 147,-135 227,-134 106,0 163,93 163,163l0 0c0,15 -1,36 -8,56 32,24 95,25 133,25l0 81 -20 0c-80,0 -131,-21 -159,-56z"/>
 </g>
</svg>
