<?xml version="1.0" encoding="UTF-8"?>
<!DOCTYPE svg PUBLIC "-//W3C//DTD SVG 1.0//EN" "http://www.w3.org/TR/2001/REC-SVG-20010904/DTD/svg10.dtd">
<!-- Creator: CorelDRAW -->
<svg xmlns="http://www.w3.org/2000/svg" xml:space="preserve" width="1300px" height="1300px" version="1.0" style="shape-rendering:geometricPrecision; text-rendering:geometricPrecision; image-rendering:optimizeQuality; fill-rule:evenodd; clip-rule:evenodd"
viewBox="0 0 1300 1056"
 xmlns:xlink="http://www.w3.org/1999/xlink">
 <defs>
  <style type="text/css">
   <![CDATA[
    .fil0 {fill:#996633}
   ]]>
  </style>
 </defs>
 <g id="_100:master">
  <metadata id="CorelCorpID_0Corel-Layer"/>
  <path class="fil0" d="M601 569c97,-107 169,-195 247,-195 82,0 132,94 123,130l0 0c-13,28 -79,65 -204,65l-166 0zm374 22c-45,40 -115,59 -206,59l-172 0 0 0 -46 0c-59,0 -86,2 -128,-17 -29,-13 -55,-101 -1,-80 29,10 51,14 101,15 20,-2 31,-14 30,-33l-13 -454c-1,-40 -3,-45 62,-81 6,0 10,2 10,9l0 477c84,-97 166,-194 256,-194 117,0 163,104 164,159l0 0 0 1 0 0c0,30 -5,56 -14,79 3,11 12,19 25,23 30,9 76,15 97,15l0 81c-54,0 -128,-12 -165,-59l0 0z"/>
 </g>
</svg>
