<?xml version="1.0" encoding="UTF-8"?>
<!DOCTYPE svg PUBLIC "-//W3C//DTD SVG 1.0//EN" "http://www.w3.org/TR/2001/REC-SVG-20010904/DTD/svg10.dtd">
<!-- Creator: CorelDRAW -->
<svg xmlns="http://www.w3.org/2000/svg" xml:space="preserve" width="1300px" height="1300px" version="1.0" style="shape-rendering:geometricPrecision; text-rendering:geometricPrecision; image-rendering:optimizeQuality; fill-rule:evenodd; clip-rule:evenodd"
viewBox="0 0 1300 1056"
 xmlns:xlink="http://www.w3.org/1999/xlink">
 <defs>
  <style type="text/css">
   <![CDATA[
    .fil1 {fill:#663333;fill-opacity:0.501961}
    .fil5 {fill:#6666CC}
    .fil2 {fill:gray}
    .fil0 {fill:#996633}
    .fil3 {fill:#99CCCC}
    .fil4 {fill:#FF6633}
   ]]>
  </style>
 </defs>
 <g id="_100:master" visibility="hidden">
  <metadata id="CorelCorpID_0Corel-Layer"/>
  <path class="fil0" d="M604 606c73,-90 173,-217 283,-215 100,2 105,121 88,196l62 -80c19,-85 -11,-204 -137,-203 -117,0 -255,193 -323,269l27 33z"/>
  <path class="fil1" d="M572 580c26,-36 47,-70 44,-192 -2,-87 -9,-193 -22,-321 -2,-21 -2,-25 21,-44l19 -17c14,-11 22,-6 23,9 18,152 21,280 19,374 -2,132 -56,171 -104,191z"/>
 </g>
 <g id="Layer_x0020_1" visibility="hidden">
  <metadata id="CorelCorpID_1Corel-Layer"/>
  <path class="fil0" d="M604 606c73,-90 173,-217 283,-215 100,2 105,121 88,196l62 -80c19,-85 -11,-204 -137,-203 -117,0 -255,193 -323,269l27 33z"/>
  <path class="fil1" d="M571 551c34,-19 48,-41 45,-163 -2,-87 -9,-193 -22,-321 -2,-21 -2,-25 21,-44l19 -17c14,-11 22,-6 23,9 18,152 21,280 19,374 -2,132 -42,158 -105,162z"/>
  <path class="fil2" d="M622 524l25 45c-10,32 -66,81 -181,81l0 -81c77,0 126,-23 156,-45z"/>
  <path class="fil3" d="M467 650l0 -81c-20,0 -41,19 -41,40 0,21 20,41 41,41z"/>
  <path class="fil4" d="M644 516l-54 45c78,134 274,138 418,8 12,-11 29,-53 32,-81 -34,59 -309,171 -396,28z"/>
 </g>
 <g id="Layer_x0020_2" visibility="hidden">
  <metadata id="CorelCorpID_2Corel-Layer"/>
  <path class="fil0" d="M537 606c73,-90 173,-217 283,-215 100,2 105,121 88,196l61 -80c20,-85 -10,-204 -136,-203 -117,0 -256,193 -324,269l28 33z"/>
  <path class="fil4" d="M551 534l-46 53c99,120 294,94 435,-18 13,-10 30,-53 33,-81 -114,72 -319,150 -422,46z"/>
  <path class="fil1" d="M504 577c51,-47 47,-97 45,-205 -3,-110 -11,-224 -19,-305 -2,-21 -2,-25 21,-44l19 -17c14,-11 21,-6 23,9 9,80 19,221 19,351 0,127 -28,174 -55,214 -6,10 -91,32 -53,-3z"/>
  <path class="fil3" d="M400 650l0 -81c-21,0 -41,19 -41,40 0,21 20,41 41,41z"/>
  <path class="fil1" d="M539 530l36 52c-25,40 -64,68 -153,68l-23 0 1 -81 17 0c47,0 91,-4 122,-39z"/>
 </g>
 <g id="Layer_x0020_3" visibility="hidden">
  <metadata id="CorelCorpID_3Corel-Layer"/>
  <path class="fil3" d="M388 650l0 -81c-20,0 -40,19 -40,40 -1,21 20,41 40,41z"/>
  <path class="fil1" d="M527 530l36 52c-24,40 -64,68 -153,68l-22 0 0 -81 17 0c48,0 91,-4 122,-39z"/>
  <path class="fil5" d="M518 549l-33 76c55,22 132,44 202,41 84,-3 170,-29 252,-95 14,-13 30,-43 35,-83 -91,57 -184,93 -286,96 -53,2 -118,-15 -170,-35z"/>
  <path class="fil1" d="M492 571c50,-47 72,-91 69,-199 -2,-110 -10,-224 -19,-305 -2,-21 -2,-25 21,-44l19 -17c14,-11 22,-6 23,9 9,80 19,221 19,351 0,127 -52,168 -79,208 -7,10 -92,32 -53,-3z"/>
  <path class="fil0" d="M514 614c73,-90 148,-209 259,-207 99,2 153,105 136,180l65 -99c9,-58 -62,-179 -188,-168 -134,12 -232,185 -300,261l28 33z"/>
 </g>
 <g id="Layer_x0020_4">
  <metadata id="CorelCorpID_4Corel-Layer"/>
  <path class="fil3" d="M413 569l0 0 17 0c47,0 66,-4 97,-39l1 0 0 0c24,-36 35,-81 33,-158 -2,-110 -10,-224 -19,-305 -2,-21 -2,-23 10,-34l34 -29c6,-6 17,-5 18,5 11,80 20,227 20,357 0,19 -1,35 -3,51 47,-50 102,-91 165,-97 89,-8 149,38 175,86 12,23 16,46 15,68 -3,26 -14,60 -47,89 -153,106 -330,87 -506,87l-11 0 0 0c-20,0 -40,-20 -40,-41 0,-21 20,-40 41,-40zm496 -63c-13,-54 -62,-97 -136,-99 -91,-2 -159,80 -221,159l3 3c121,0 226,-7 354,-63z"/>
 </g>
</svg>
