<?xml version="1.0" encoding="UTF-8"?>
<!DOCTYPE svg PUBLIC "-//W3C//DTD SVG 1.0//EN" "http://www.w3.org/TR/2001/REC-SVG-20010904/DTD/svg10.dtd">
<!-- Creator: CorelDRAW -->
<svg xmlns="http://www.w3.org/2000/svg" xml:space="preserve" width="1300px" height="1300px" version="1.0" style="shape-rendering:geometricPrecision; text-rendering:geometricPrecision; image-rendering:optimizeQuality; fill-rule:evenodd; clip-rule:evenodd"
viewBox="0 0 1300 1056"
 xmlns:xlink="http://www.w3.org/1999/xlink">
 <defs>
  <style type="text/css">
   <![CDATA[
    .fil0 {fill:black;fill-opacity:0.501961}
   ]]>
  </style>
 </defs>
 <g id="_100:master">
  <metadata id="CorelCorpID_0Corel-Layer"/>
  <path class="fil0" d="M501 547l-1 1c16,-17 27,-44 26,-68l-12 -372c-2,-52 -3,-57 29,-84l19 -16c13,-12 23,-11 23,9l0 442c74,-75 147,-135 227,-134 106,0 163,93 163,163l0 0c0,14 -1,35 -8,55 19,18 59,26 112,26l0 81c-88,0 -136,-24 -160,-55 -67,36 -170,54 -330,55l0 0 -157 0 0 0 -1 0 0 0c-20,-1 -40,-20 -40,-41 0,-20 20,-40 40,-40l0 0 1 0 0 0 48 0c7,-7 14,-15 21,-22zm75 22l-33 0c51,-57 151,-154 252,-155 66,0 107,61 115,108 -76,29 -189,47 -334,47l0 0z"/>
 </g>
</svg>
