<?xml version="1.0" encoding="UTF-8"?>
<!DOCTYPE svg PUBLIC "-//W3C//DTD SVG 1.0//EN" "http://www.w3.org/TR/2001/REC-SVG-20010904/DTD/svg10.dtd">
<!-- Creator: CorelDRAW -->
<svg xmlns="http://www.w3.org/2000/svg" xml:space="preserve" width="1300px" height="1300px" version="1.0" style="shape-rendering:geometricPrecision; text-rendering:geometricPrecision; image-rendering:optimizeQuality; fill-rule:evenodd; clip-rule:evenodd"
viewBox="0 0 1300 1056"
 xmlns:xlink="http://www.w3.org/1999/xlink">
 <defs>
  <style type="text/css">
   <![CDATA[
    .fil0 {fill:black;fill-opacity:0.501961}
    .fil3 {fill:#6666CC;fill-opacity:0.501961}
    .fil9 {fill:gray;fill-opacity:0.501961}
    .fil4 {fill:#1A1A1A;fill-opacity:0.549020}
    .fil2 {fill:#996633;fill-opacity:0.549020}
    .fil7 {fill:red;fill-opacity:0.549020}
    .fil8 {fill:#663333}
    .fil5 {fill:#666633}
    .fil6 {fill:red}
    .fil1 {fill:fuchsia}
   ]]>
  </style>
 </defs>
 <g id="_100:master" visibility="hidden">
  <metadata id="CorelCorpID_0Corel-Layer"/>
  <polygon class="fil0" points="834,569 828,650 1083,650 1083,569 "/>
  <path class="fil0" d="M828 650l6 -81c-33,0 -75,-1 -62,-64l-46 31c-7,57 13,114 102,114z"/>
  <path class="fil1" d="M897 685l73 -35c26,-114 -22,-300 -124,-300 -74,0 -118,121 -120,186l46 -31c11,-37 39,-74 61,-72 80,7 105,176 64,252z"/>
  <path class="fil2" d="M975 617l-65 33c-7,29 -65,130 -258,179 -42,3 52,65 74,65 168,-33 249,-184 249,-277z"/>
 </g>
 <g id="Layer_x0020_1" visibility="hidden">
  <metadata id="CorelCorpID_1Corel-Layer"/>
  <polygon class="fil3" points="804,569 804,650 1058,650 1058,569 "/>
  <path class="fil1" d="M685 526l57 5c-4,-20 33,-125 76,-125 54,0 98,163 98,220l63 -37c-4,-130 -59,-264 -153,-264 -93,0 -136,143 -141,201z"/>
  <path class="fil4" d="M977 577l-67 15c3,11 8,43 6,51 -10,28 -50,126 -240,195 -22,18 53,56 74,56 97,-17 249,-170 227,-317z"/>
  <path class="fil5" d="M805 569l-1 81c-82,-2 -139,-50 -115,-154l52 16c-3,41 27,56 64,57z"/>
 </g>
 <g id="Layer_x0020_2" visibility="hidden">
  <metadata id="CorelCorpID_2Corel-Layer"/>
  <polygon class="fil3" points="812,569 811,650 1058,650 1058,569 "/>
  <path class="fil6" d="M911 581l66 -30c35,196 -191,343 -266,343 -21,0 -96,-46 -74,-64 64,-1 310,-131 274,-249z"/>
  <path class="fil5" d="M813 569l-1 81c-82,-2 -139,-50 -115,-154l45 16c-17,35 34,56 71,57z"/>
  <path class="fil1" d="M693 526l46 -4c9,-37 30,-113 79,-113 69,0 103,189 97,217l64 -55c0,-88 -59,-249 -151,-248 -89,2 -129,126 -135,203z"/>
 </g>
 <g id="Layer_x0020_3" visibility="hidden">
  <metadata id="CorelCorpID_3Corel-Layer"/>
  <polygon class="fil3" points="813,569 813,650 1041,650 1041,569 "/>
  <path class="fil5" d="M818 569l-1 81c-82,-2 -139,-50 -115,-154l45 16c-17,35 34,56 71,57z"/>
  <path class="fil1" d="M698 526l46 -4c9,-37 30,-99 79,-100 87,0 93,200 87,228l54 -15 8 -43c10,-47 -13,-251 -139,-251 -90,0 -129,108 -135,185z"/>
  <path class="fil7" d="M913 600l59 -8c-8,87 -80,191 -160,241 -29,18 -59,28 -87,28 -46,0 -108,-34 -129,-44l15 -35c43,12 77,14 104,10 84,-13 171,-115 198,-192z"/>
 </g>
 <g id="Layer_x0020_4" visibility="hidden">
  <metadata id="CorelCorpID_4Corel-Layer"/>
  <path class="fil1" d="M699 532c-10,129 93,118 177,118l180 0 1 -81 -182 0c-27,0 -131,6 -127,-41l-49 4z"/>
  <path class="fil1" d="M699 532l49 -4c6,-47 39,-89 75,-87 73,3 90,169 92,222l60 -38c0,-83 -32,-267 -142,-267 -72,-1 -128,96 -134,174z"/>
  <path class="fil8" d="M915 663l60 -38c0,161 -146,269 -219,268 -56,1 -126,-29 -156,-45l5 -21c70,9 113,0 147,-10 68,-21 161,-97 163,-154z"/>
 </g>
 <g id="Layer_x0020_5">
  <metadata id="CorelCorpID_5Corel-Layer"/>
  <path class="fil9" d="M900 569c-14,-71 -44,-131 -93,-131 -42,-2 -122,132 10,131l83 0zm-92 81c-193,0 -104,-292 8,-292 81,-10 142,98 156,211l84 0 0 81 -82 0c-1,9 -2,18 -4,27 -26,132 -149,217 -214,216 -56,1 -126,-29 -156,-45l5 -21c70,9 113,0 147,-10 58,-18 135,-76 157,-128 0,-13 0,-26 0,-39l-101 0z"/>
 </g>
</svg>
