<?xml version="1.0" encoding="UTF-8"?>
<!DOCTYPE svg PUBLIC "-//W3C//DTD SVG 1.0//EN" "http://www.w3.org/TR/2001/REC-SVG-20010904/DTD/svg10.dtd">
<!-- Creator: CorelDRAW -->
<svg xmlns="http://www.w3.org/2000/svg" xml:space="preserve" width="1300px" height="1300px" version="1.0" style="shape-rendering:geometricPrecision; text-rendering:geometricPrecision; image-rendering:optimizeQuality; fill-rule:evenodd; clip-rule:evenodd"
viewBox="0 0 1300 1056"
 xmlns:xlink="http://www.w3.org/1999/xlink">
 <defs>
  <style type="text/css">
   <![CDATA[
    .fil1 {fill:black;fill-opacity:0.501961}
    .fil4 {fill:#1A1A1A;fill-opacity:0.549020}
    .fil0 {fill:#996633;fill-opacity:0.549020}
    .fil7 {fill:red;fill-opacity:0.549020}
    .fil5 {fill:#666633}
    .fil2 {fill:gray}
    .fil8 {fill:#999966}
    .fil6 {fill:red}
    .fil3 {fill:fuchsia}
    .fil9 {fill:#FF6633}
   ]]>
  </style>
 </defs>
 <g id="_100:master" visibility="hidden">
  <metadata id="CorelCorpID_0Corel-Layer"/>
  <path class="fil0" d="M866 423l61 -53c-19,-49 -49,-87 -90,-87 -73,1 -147,105 -159,205l57 1c0,-54 40,-117 80,-116 20,1 37,21 51,50z"/>
  <path class="fil1" d="M735 489l-57 -1c-13,105 43,199 241,144l-13 -81c-129,41 -171,-6 -171,-62z"/>
  <path class="fil0" d="M974 610l-58 40c-39,97 -177,195 -323,179l-10 33c18,15 71,32 130,32 114,-1 262,-142 261,-284z"/>
  <path class="fil0" d="M916 650l58 -40c3,-35 -13,-156 -47,-240l-61 53c35,77 56,218 50,227z"/>
 </g>
 <g id="Layer_x0020_1" visibility="hidden">
  <metadata id="CorelCorpID_1Corel-Layer"/>
  <path class="fil2" d="M954 536l14 74c-28,24 -73,40 -143,40l-1 0 0 -81 4 0c44,0 98,-9 126,-33z"/>
  <path class="fil1" d="M828 650l8 -81c-34,0 -77,-1 -64,-64l-46 31c-7,57 13,114 102,114z"/>
  <path class="fil3" d="M892 687l78 -37c26,-114 -22,-300 -124,-300 -74,0 -118,121 -120,186l46 -31c11,-37 39,-74 61,-72 49,4 79,74 83,142 3,42 -5,86 -24,112z"/>
  <path class="fil0" d="M975 617l-65 33c-7,29 -65,130 -258,179 -42,3 52,65 74,65 168,-33 249,-184 249,-277z"/>
 </g>
 <g id="Layer_x0020_2" visibility="hidden">
  <metadata id="CorelCorpID_2Corel-Layer"/>
  <path class="fil3" d="M685 526l57 5c-4,-20 33,-125 76,-125 54,0 98,163 98,220l63 -37c-4,-130 -59,-264 -153,-264 -93,0 -136,143 -141,201z"/>
  <path class="fil4" d="M977 577l-67 15c3,11 8,43 6,51 -10,28 -50,126 -240,195 -22,18 53,56 74,56 97,-17 249,-170 227,-317z"/>
  <path class="fil5" d="M951 536l0 82c-51,22 -103,34 -147,32 -82,-2 -139,-50 -115,-154l52 16c-3,41 27,56 64,57 55,2 127,-23 146,-33z"/>
 </g>
 <g id="Layer_x0020_3" visibility="hidden">
  <metadata id="CorelCorpID_3Corel-Layer"/>
  <path class="fil5" d="M951 536l0 82c-51,22 -94,34 -139,32 -82,-2 -139,-50 -115,-154l45 16c-17,35 34,56 71,57 55,2 119,-23 138,-33z"/>
  <path class="fil3" d="M693 526l46 -4c9,-37 30,-113 79,-113 69,0 103,189 97,217l64 -55c0,-88 -59,-249 -151,-248 -89,2 -129,126 -135,203z"/>
  <path class="fil6" d="M911 581l66 -30c35,196 -191,343 -266,343 -21,0 -96,-46 -74,-64 64,-1 310,-131 274,-249z"/>
 </g>
 <g id="Layer_x0020_4" visibility="hidden">
  <metadata id="CorelCorpID_4Corel-Layer"/>
  <path class="fil5" d="M956 536l0 82c-51,22 -95,34 -139,32 -82,-2 -139,-50 -115,-154l45 16c-17,35 34,56 71,57 55,2 118,-23 138,-33z"/>
  <path class="fil3" d="M698 526l46 -4c9,-37 30,-99 79,-100 87,0 93,200 87,228l54 -15 8 -43c10,-47 -13,-251 -139,-251 -90,0 -129,108 -135,185z"/>
  <path class="fil7" d="M913 600l59 -8c-8,87 -80,191 -160,241 -29,18 -59,28 -87,28 -46,0 -108,-34 -129,-44l15 -35c43,12 77,14 104,10 84,-13 171,-115 198,-192z"/>
 </g>
 <g id="Layer_x0020_5" visibility="hidden">
  <metadata id="CorelCorpID_5Corel-Layer"/>
  <path class="fil4" d="M974 560l-67 32c2,11 8,43 5,51 -9,28 -49,126 -239,195 -22,18 52,56 74,56 52,-9 121,-58 169,-124 41,-57 67,-109 58,-210z"/>
  <path class="fil5" d="M956 536l0 71c-51,23 -95,45 -139,43 -82,-2 -139,-50 -115,-154l45 16c-17,35 34,56 71,57 55,2 118,-23 138,-33z"/>
  <path class="fil3" d="M698 526l46 -4c9,-37 30,-99 79,-100 87,0 93,200 87,228l54 -15 8 -43c10,-47 -13,-251 -139,-251 -90,0 -129,108 -135,185z"/>
 </g>
 <g id="Layer_x0020_6" visibility="hidden">
  <metadata id="CorelCorpID_6Corel-Layer"/>
  <path class="fil3" d="M835 357l-14 82c40,0 93,91 96,227l61 -42c-1,-161 -74,-267 -143,-267z"/>
  <path class="fil8" d="M936 536l14 74c-43,37 -78,40 -136,40l0 -81c44,0 89,-4 122,-33z"/>
  <path class="fil9" d="M978 624l-61 42c-14,38 -51,80 -96,110 -80,56 -148,68 -175,80 -5,2 -8,16 -5,23l111 16c127,-29 226,-148 226,-271z"/>
  <path class="fil3" d="M821 439l14 -82c-117,0 -201,293 -18,293l0 -81c-111,0 -37,-130 4,-130z"/>
 </g>
 <g id="Layer_x0020_7">
  <metadata id="CorelCorpID_7Corel-Layer"/>
  <path class="fil3" d="M915 634c-29,14 -58,16 -98,16l0 0 -3 0 0 0c-179,-3 -95,-293 21,-293 69,0 142,106 143,266 0,0 0,0 0,0l0 0c-8,139 -121,271 -224,271l-137 -10 0 -23c85,-8 243,-59 300,-195 0,-11 -1,-22 -2,-32zm-94 -195c-41,0 -115,129 -5,130 30,0 60,-2 86,-13 -19,-73 -53,-117 -81,-117z"/>
 </g>
</svg>
