<?xml version="1.0" encoding="UTF-8"?>
<!DOCTYPE svg PUBLIC "-//W3C//DTD SVG 1.0//EN" "http://www.w3.org/TR/2001/REC-SVG-20010904/DTD/svg10.dtd">
<!-- Creator: CorelDRAW -->
<svg xmlns="http://www.w3.org/2000/svg" xml:space="preserve" width="1300px" height="1300px" version="1.0" style="shape-rendering:geometricPrecision; text-rendering:geometricPrecision; image-rendering:optimizeQuality; fill-rule:evenodd; clip-rule:evenodd"
viewBox="0 0 1300 1056"
 xmlns:xlink="http://www.w3.org/1999/xlink">
 <defs>
  <style type="text/css">
   <![CDATA[
    .fil1 {fill:black;fill-opacity:0.501961}
    .fil0 {fill:#996633;fill-opacity:0.549020}
    .fil2 {fill:gray}
    .fil4 {fill:#CC3366}
    .fil3 {fill:fuchsia}
   ]]>
  </style>
 </defs>
 <g id="_100:master" visibility="hidden">
  <metadata id="CorelCorpID_0Corel-Layer"/>
  <path class="fil0" d="M866 423l61 -53c-19,-49 -49,-87 -90,-87 -73,1 -147,105 -159,205l57 1c0,-54 40,-117 80,-116 20,1 37,21 51,50z"/>
  <path class="fil1" d="M735 489l-57 -1c-13,105 43,199 241,144l-13 -81c-129,41 -171,-6 -171,-62z"/>
  <path class="fil0" d="M974 610l-58 40c-39,97 -177,195 -323,179l-10 33c18,15 71,32 130,32 114,-1 262,-142 261,-284z"/>
  <path class="fil0" d="M916 650l58 -40c3,-35 -13,-156 -47,-240l-61 53c35,77 56,218 50,227z"/>
 </g>
 <g id="Layer_x0020_1" visibility="hidden">
  <metadata id="CorelCorpID_1Corel-Layer"/>
  <path class="fil2" d="M954 536l14 74c-28,24 -73,40 -143,40l-1 0 0 -81 4 0c44,0 98,-9 126,-33z"/>
  <path class="fil1" d="M828 650l8 -81c-34,0 -77,-1 -64,-64l-46 31c-7,57 13,114 102,114z"/>
  <path class="fil3" d="M892 687l78 -37c26,-114 -22,-300 -124,-300 -74,0 -118,121 -120,186l46 -31c11,-37 39,-74 61,-72 49,4 79,74 83,142 3,42 -5,86 -24,112z"/>
  <path class="fil0" d="M975 617l-65 33c-7,29 -65,130 -258,179 -42,3 52,65 74,65 168,-33 249,-184 249,-277z"/>
 </g>
 <g id="Layer_x0020_2">
  <metadata id="CorelCorpID_2Corel-Layer"/>
  <path class="fil4" d="M914 634c-26,11 -53,16 -82,16 -84,0 -123,-50 -123,-114l0 0c3,-65 30,-196 129,-196 93,0 140,146 141,264l0 1 0 0c0,138 -139,274 -230,289 -21,0 -96,-38 -74,-56 172,-48 232,-152 239,-204zm-82 -65l0 0 4 0c23,0 50,-7 73,-18 -12,-70 -44,-129 -84,-129 -29,0 -58,47 -62,83l0 0c-13,63 36,64 69,64z"/>
 </g>
</svg>
