<?xml version="1.0" encoding="UTF-8"?>
<!DOCTYPE svg PUBLIC "-//W3C//DTD SVG 1.0//EN" "http://www.w3.org/TR/2001/REC-SVG-20010904/DTD/svg10.dtd">
<!-- Creator: CorelDRAW -->
<svg xmlns="http://www.w3.org/2000/svg" xml:space="preserve" width="1300px" height="1300px" version="1.0" style="shape-rendering:geometricPrecision; text-rendering:geometricPrecision; image-rendering:optimizeQuality; fill-rule:evenodd; clip-rule:evenodd"
viewBox="0 0 1300 1056"
 xmlns:xlink="http://www.w3.org/1999/xlink">
 <defs>
  <style type="text/css">
   <![CDATA[
    .fil0 {fill:black;fill-opacity:0.501961}
    .fil3 {fill:#6666CC;fill-opacity:0.501961}
    .fil4 {fill:#1A1A1A;fill-opacity:0.549020}
    .fil2 {fill:#996633;fill-opacity:0.549020}
    .fil5 {fill:#666633}
    .fil1 {fill:fuchsia}
   ]]>
  </style>
 </defs>
 <g id="_100:master" visibility="hidden">
  <metadata id="CorelCorpID_0Corel-Layer"/>
  <path class="fil0" d="M834 569l-6 81 255 0 0 -81 -249 0z"/>
  <path class="fil0" d="M828 650l6 -81c-33,0 -75,-1 -62,-64l-46 31c-7,57 13,114 102,114z"/>
  <path class="fil1" d="M897 685l73 -35c26,-114 -22,-300 -124,-300 -74,0 -118,121 -120,186l46 -31c11,-37 39,-74 61,-72 80,7 105,176 64,252z"/>
  <path class="fil2" d="M975 617l-65 33c-7,29 -65,130 -258,179 -42,3 52,65 74,65 168,-33 249,-184 249,-277z"/>
 </g>
 <g id="Layer_x0020_1" visibility="hidden">
  <metadata id="CorelCorpID_1Corel-Layer"/>
  <path class="fil3" d="M804 569l0 81 254 0 0 -81 -254 0z"/>
  <path class="fil1" d="M685 526l57 5c-4,-20 33,-125 76,-125 54,0 98,163 98,220l63 -37c-4,-130 -59,-264 -153,-264 -93,0 -136,143 -141,201z"/>
  <path class="fil4" d="M977 577l-67 15c3,11 8,43 6,51 -10,28 -50,126 -240,195 -22,18 53,56 74,56 97,-17 249,-170 227,-317z"/>
  <path class="fil5" d="M805 569l-1 81c-82,-2 -139,-50 -115,-154l52 16c-3,41 27,56 64,57z"/>
 </g>
 <g id="Layer_x0020_2">
  <metadata id="CorelCorpID_2Corel-Layer"/>
  <path class="fil3" d="M812 650l0 0c-77,-2 -131,-44 -118,-135 9,-77 49,-190 134,-192 90,-1 149,154 151,243l0 3 79 0 0 81 -85 0c-36,145 -200,244 -262,244 -21,0 -96,-46 -74,-64 52,-1 221,-85 266,-180l-91 0zm0 -81l98 0c-12,-65 -43,-160 -92,-160 -45,0 -66,64 -77,103l1 0c-1,1 -1,2 -2,4l-1 6c-4,28 39,45 73,47l0 0z"/>
 </g>
</svg>
