<?xml version="1.0" encoding="UTF-8"?>
<!DOCTYPE svg PUBLIC "-//W3C//DTD SVG 1.0//EN" "http://www.w3.org/TR/2001/REC-SVG-20010904/DTD/svg10.dtd">
<!-- Creator: CorelDRAW -->
<svg xmlns="http://www.w3.org/2000/svg" xml:space="preserve" width="1300px" height="1300px" version="1.0" style="shape-rendering:geometricPrecision; text-rendering:geometricPrecision; image-rendering:optimizeQuality; fill-rule:evenodd; clip-rule:evenodd"
viewBox="0 0 1300 1056"
 xmlns:xlink="http://www.w3.org/1999/xlink">
 <defs>
  <style type="text/css">
   <![CDATA[
    .fil3 {fill:#663333;fill-opacity:0.549020}
    .fil2 {fill:#993366;fill-opacity:0.549020}
    .fil1 {fill:#4D4D4D;fill-opacity:0.600000}
    .fil0 {fill:#663300;fill-opacity:0.600000}
   ]]>
  </style>
 </defs>
 <g id="_100:master" visibility="hidden">
  <metadata id="CorelCorpID_0Corel-Layer"/>
  <path class="fil0" d="M757 593c-3,8 -7,17 3,21 67,28 181,100 107,149l68 17c49,-60 49,-172 -133,-233 -13,-7 -31,23 -45,46z"/>
  <path class="fil1" d="M767 568l-10 25c77,19 185,57 283,57l0 -81c-39,0 -132,-2 -235,-35 -20,-6 -25,1 -38,34z"/>
  <path class="fil2" d="M906 725l37 43c-144,213 -653,192 -446,-329 3,-8 8,-12 18,-9l26 10c8,3 9,11 6,20 -167,421 268,397 359,265z"/>
 </g>
 <g id="Layer_x0020_1" visibility="hidden">
  <metadata id="CorelCorpID_1Corel-Layer"/>
  <path class="fil0" d="M765 604c100,69 162,113 115,147l33 41c58,-63 69,-117 -34,-208 -53,-47 -44,-33 -67,-59 -16,-5 -73,60 -47,79z"/>
  <path class="fil1" d="M780 560c-11,28 7,27 12,32 61,21 184,58 264,58l0 -81c-66,0 -159,-19 -244,-44 -15,6 -22,7 -29,26l-3 9z"/>
  <path class="fil3" d="M889 744l31 40c-166,189 -618,162 -420,-296 4,-8 9,-13 18,-9l26 10c8,3 10,11 6,20 -53,124 -44,204 -4,250 73,82 230,62 343,-15z"/>
 </g>
 <g id="Layer_x0020_2">
  <metadata id="CorelCorpID_2Corel-Layer"/>
  <path class="fil1" d="M743 541c2,-11 2,-29 24,-23 86,24 230,51 289,51l0 81c-43,0 -87,-13 -133,-28 23,23 34,49 34,75 6,207 -697,375 -471,-263 3,-8 9,-12 18,-9l26 11c8,3 9,10 6,19 -179,504 367,320 370,265 2,-21 -19,-43 -71,-66 -29,-12 -64,-27 -89,-37 -11,-7 -10,-15 -10,-21l4 -27 0 0 0 0 3 -26c0,0 0,-2 0,-2z"/>
 </g>
</svg>
