<?xml version="1.0" encoding="UTF-8"?>
<!DOCTYPE svg PUBLIC "-//W3C//DTD SVG 1.0//EN" "http://www.w3.org/TR/2001/REC-SVG-20010904/DTD/svg10.dtd">
<!-- Creator: CorelDRAW -->
<svg xmlns="http://www.w3.org/2000/svg" xml:space="preserve" width="1300px" height="1300px" version="1.0" style="shape-rendering:geometricPrecision; text-rendering:geometricPrecision; image-rendering:optimizeQuality; fill-rule:evenodd; clip-rule:evenodd"
viewBox="0 0 1300 1056"
 xmlns:xlink="http://www.w3.org/1999/xlink">
 <defs>
  <style type="text/css">
   <![CDATA[
    .fil0 {fill:#663300;fill-opacity:0.600000}
   ]]>
  </style>
 </defs>
 <g id="_100:master">
  <metadata id="CorelCorpID_0Corel-Layer"/>
  <path class="fil0" d="M725 593l9 -25c13,-33 18,-40 39,-34 103,33 144,35 226,35l0 81c-29,0 -54,-1 -76,-4 26,36 19,65 7,85l0 0c-49,100 -173,163 -287,163 -157,0 -292,-119 -176,-423 3,-8 10,-12 17,-9l24 9c6,2 10,11 7,20 -95,234 18,322 147,321 73,0 160,-39 204,-81 38,-45 -77,-92 -139,-117 -10,-4 -6,-13 -2,-21z"/>
 </g>
</svg>
