<?xml version="1.0" encoding="UTF-8"?>
<!DOCTYPE svg PUBLIC "-//W3C//DTD SVG 1.0//EN" "http://www.w3.org/TR/2001/REC-SVG-20010904/DTD/svg10.dtd">
<!-- Creator: CorelDRAW -->
<svg xmlns="http://www.w3.org/2000/svg" xml:space="preserve" width="1300px" height="1300px" version="1.0" style="shape-rendering:geometricPrecision; text-rendering:geometricPrecision; image-rendering:optimizeQuality; fill-rule:evenodd; clip-rule:evenodd"
viewBox="0 0 1300 1056"
 xmlns:xlink="http://www.w3.org/1999/xlink">
 <defs>
  <style type="text/css">
   <![CDATA[
    .fil3 {fill:#000066;fill-opacity:0.549020}
    .fil1 {fill:#993366;fill-opacity:0.549020}
    .fil2 {fill:red;fill-opacity:0.549020}
    .fil0 {fill:#666633;fill-opacity:0.600000}
   ]]>
  </style>
 </defs>
 <g id="_100:master" visibility="hidden">
  <metadata id="CorelCorpID_0Corel-Layer"/>
  <path class="fil0" d="M729 479c-33,107 13,119 72,134 53,13 142,15 103,67l42 37c24,-42 33,-75 30,-100 -11,-71 -116,-78 -144,-86 -39,-11 -66,-11 -39,-59 44,-80 148,-98 198,-46 30,32 47,-8 32,-40 -72,-159 -253,-41 -294,93z"/>
  <path class="fil1" d="M917 656l58 -39c-16,325 -713,392 -459,-211 3,-7 9,-12 18,-8l26 10c8,3 10,10 6,19 -191,455 294,378 351,229z"/>
 </g>
 <g id="Layer_x0020_1" visibility="hidden">
  <metadata id="CorelCorpID_1Corel-Layer"/>
  <path class="fil0" d="M775 658l44 -69 -16 -3c-13,-3 -25,-16 -20,-33 9,-34 58,-80 115,-80 36,0 56,5 75,28l19 -33c-10,-37 -42,-79 -95,-79 -74,0 -145,86 -164,161 -13,49 -4,94 42,108z"/>
  <path class="fil2" d="M886 722l58 20c-45,93 -155,152 -278,152 -133,0 -260,-98 -153,-366 3,-7 7,-13 16,-9l13 6c8,3 10,10 6,19 -132,338 238,308 338,178z"/>
  <path class="fil2" d="M944 742l-58 -20c17,-28 -13,-46 -52,-52 -65,-9 -97,-19 -105,-69l56 -20 82 17c54,10 120,48 77,144z"/>
 </g>
 <g id="Layer_x0020_2" visibility="hidden">
  <metadata id="CorelCorpID_2Corel-Layer"/>
  <path class="fil2" d="M903 722l57 20c-45,93 -180,152 -302,152 -133,0 -260,-98 -153,-366 3,-7 7,-13 16,-9l13 6c8,3 10,10 6,19 -79,200 20,271 134,269 78,-2 188,-38 229,-91z"/>
  <path class="fil0" d="M812 569c-10,-3 -22,-3 -16,-14 42,-78 139,-142 214,-64l23 -25c-90,-198 -274,-29 -297,103 -6,37 7,69 61,81 106,23 133,49 90,89l69 12c38,-60 57,-138 -144,-182z"/>
 </g>
 <g id="Layer_x0020_3">
  <metadata id="CorelCorpID_3Corel-Layer"/>
  <path class="fil3" d="M924 773c-176,197 -620,186 -402,-282 3,-7 7,-10 15,-7l17 8c6,3 6,7 3,13 -150,338 128,365 315,236 54,-42 -11,-57 -89,-71 -65,-12 -68,-88 -41,-164 47,-127 168,-238 255,-44l-22 26c-95,-95 -159,-20 -187,37 -14,31 -10,59 28,64 110,12 208,77 108,184z"/>
 </g>
</svg>
