<?xml version="1.0" encoding="UTF-8"?>
<!DOCTYPE svg PUBLIC "-//W3C//DTD SVG 1.0//EN" "http://www.w3.org/TR/2001/REC-SVG-20010904/DTD/svg10.dtd">
<!-- Creator: CorelDRAW -->
<svg xmlns="http://www.w3.org/2000/svg" xml:space="preserve" width="1300px" height="1300px" version="1.0" style="shape-rendering:geometricPrecision; text-rendering:geometricPrecision; image-rendering:optimizeQuality; fill-rule:evenodd; clip-rule:evenodd"
viewBox="0 0 1300 1056"
 xmlns:xlink="http://www.w3.org/1999/xlink">
 <defs>
  <style type="text/css">
   <![CDATA[
    .fil0 {fill:#666633;fill-opacity:0.600000}
   ]]>
  </style>
 </defs>
 <g id="_100:master">
  <metadata id="CorelCorpID_0Corel-Layer"/>
  <path class="fil0" d="M730 494c38,-103 196,-234 255,-103 14,28 -4,59 -21,47 -63,-42 -153,12 -189,87 -14,29 17,36 54,46 76,23 159,32 141,133l0 0c-39,263 -686,310 -479,-233 3,-8 10,-12 18,-9l24 9c5,2 9,10 6,20 -139,391 291,360 364,239l-1 0c5,-8 9,-16 10,-25 2,-31 -47,-39 -108,-55 -82,-21 -107,-64 -74,-156z"/>
 </g>
</svg>
