<?xml version="1.0" encoding="UTF-8"?>
<!DOCTYPE svg PUBLIC "-//W3C//DTD SVG 1.0//EN" "http://www.w3.org/TR/2001/REC-SVG-20010904/DTD/svg10.dtd">
<!-- Creator: CorelDRAW -->
<svg xmlns="http://www.w3.org/2000/svg" xml:space="preserve" width="1300px" height="1300px" version="1.0" style="shape-rendering:geometricPrecision; text-rendering:geometricPrecision; image-rendering:optimizeQuality; fill-rule:evenodd; clip-rule:evenodd"
viewBox="0 0 1300 1056"
 xmlns:xlink="http://www.w3.org/1999/xlink">
 <defs>
  <style type="text/css">
   <![CDATA[
    .fil0 {fill:#666633;fill-opacity:0.600000}
   ]]>
  </style>
 </defs>
 <g id="_100:master">
  <metadata id="CorelCorpID_0Corel-Layer"/>
  <path class="fil0" d="M719 494c38,-103 190,-247 280,-119 18,25 0,52 -21,47 -79,-46 -178,20 -214,94 -14,29 5,53 55,53l63 0c81,0 108,55 96,114l0 0c-37,293 -713,342 -465,-212 4,-7 10,-12 18,-9l24 9c5,2 10,11 6,20 -118,283 44,342 192,317 66,-12 117,-40 145,-72 35,-42 34,-86 -23,-86l-83 0c-84,0 -107,-64 -73,-156z"/>
 </g>
</svg>
