<?xml version="1.0" encoding="UTF-8"?>
<!DOCTYPE svg PUBLIC "-//W3C//DTD SVG 1.0//EN" "http://www.w3.org/TR/2001/REC-SVG-20010904/DTD/svg10.dtd">
<!-- Creator: CorelDRAW -->
<svg xmlns="http://www.w3.org/2000/svg" xml:space="preserve" width="1300px" height="1300px" version="1.0" style="shape-rendering:geometricPrecision; text-rendering:geometricPrecision; image-rendering:optimizeQuality; fill-rule:evenodd; clip-rule:evenodd"
viewBox="0 0 1300 1056"
 xmlns:xlink="http://www.w3.org/1999/xlink">
 <defs>
  <style type="text/css">
   <![CDATA[
    .fil0 {fill:#666633;fill-opacity:0.600000}
   ]]>
  </style>
 </defs>
 <g id="_100:master">
  <metadata id="CorelCorpID_0Corel-Layer"/>
  <path class="fil0" d="M729 527c41,-134 213,-267 286,-109 14,32 -2,72 -32,41 -50,-53 -146,-18 -190,61 -27,49 -2,60 39,60 42,1 164,-20 140,97 -5,26 -13,50 -26,72l0 1 0 0c-133,232 -655,224 -430,-311 3,-8 9,-12 18,-9l26 10c8,3 10,11 6,20 -184,437 259,383 343,244 10,-19 1,-34 -18,-38 -58,-12 -215,32 -162,-139z"/>
 </g>
</svg>
