<?xml version="1.0" encoding="UTF-8"?>
<!DOCTYPE svg PUBLIC "-//W3C//DTD SVG 1.0//EN" "http://www.w3.org/TR/2001/REC-SVG-20010904/DTD/svg10.dtd">
<!-- Creator: CorelDRAW -->
<svg xmlns="http://www.w3.org/2000/svg" xml:space="preserve" width="1300px" height="1300px" version="1.0" style="shape-rendering:geometricPrecision; text-rendering:geometricPrecision; image-rendering:optimizeQuality; fill-rule:evenodd; clip-rule:evenodd"
viewBox="0 0 1300 1056"
 xmlns:xlink="http://www.w3.org/1999/xlink">
 <defs>
  <style type="text/css">
   <![CDATA[
    .fil0 {fill:#666633;fill-opacity:0.600000}
   ]]>
  </style>
 </defs>
 <g id="_100:master">
  <metadata id="CorelCorpID_0Corel-Layer"/>
  <path class="fil0" d="M729 479c41,-134 222,-252 294,-93 15,32 -2,72 -32,40 -50,-52 -154,-34 -198,46 -27,48 0,48 39,59 28,8 133,15 144,86 3,25 -6,58 -30,100l0 0c-133,232 -655,224 -430,-311 3,-7 9,-12 18,-8l26 10c8,3 10,10 6,19 -185,440 262,383 344,243 22,-43 -60,-45 -109,-57 -59,-15 -105,-27 -72,-134z"/>
 </g>
</svg>
