<?xml version="1.0" encoding="UTF-8"?>
<!DOCTYPE svg PUBLIC "-//W3C//DTD SVG 1.0//EN" "http://www.w3.org/TR/2001/REC-SVG-20010904/DTD/svg10.dtd">
<!-- Creator: CorelDRAW -->
<svg xmlns="http://www.w3.org/2000/svg" xml:space="preserve" width="1300px" height="1300px" version="1.0" style="shape-rendering:geometricPrecision; text-rendering:geometricPrecision; image-rendering:optimizeQuality; fill-rule:evenodd; clip-rule:evenodd"
viewBox="0 0 1300 1056"
 xmlns:xlink="http://www.w3.org/1999/xlink">
 <defs>
  <style type="text/css">
   <![CDATA[
    .fil0 {fill:#666633;fill-opacity:0.600000}
   ]]>
  </style>
 </defs>
 <g id="_100:master">
  <metadata id="CorelCorpID_0Corel-Layer"/>
  <path class="fil0" d="M714 494c38,-103 164,-231 254,-103 18,25 -3,59 -20,47 -63,-42 -154,12 -189,87 -14,29 -1,43 37,43l81 1c81,0 108,55 94,114l0 0c-27,128 -172,211 -303,211 -157,0 -293,-119 -177,-423 3,-8 10,-12 18,-9l24 9c5,2 10,11 6,20 -95,234 19,322 148,321 80,0 178,-47 215,-94 27,-34 25,-68 -32,-68l-83 0c-84,0 -107,-64 -73,-156z"/>
 </g>
</svg>
