<?xml version="1.0" encoding="UTF-8"?>
<!DOCTYPE svg PUBLIC "-//W3C//DTD SVG 1.0//EN" "http://www.w3.org/TR/2001/REC-SVG-20010904/DTD/svg10.dtd">
<!-- Creator: CorelDRAW -->
<svg xmlns="http://www.w3.org/2000/svg" xml:space="preserve" width="1300px" height="1300px" version="1.0" style="shape-rendering:geometricPrecision; text-rendering:geometricPrecision; image-rendering:optimizeQuality; fill-rule:evenodd; clip-rule:evenodd"
viewBox="0 0 1300 1056"
 xmlns:xlink="http://www.w3.org/1999/xlink">
 <defs>
  <style type="text/css">
   <![CDATA[
    .fil5 {fill:#000066;fill-opacity:0.549020}
    .fil3 {fill:#663333;fill-opacity:0.549020}
    .fil2 {fill:#993366;fill-opacity:0.549020}
    .fil4 {fill:red;fill-opacity:0.549020}
    .fil1 {fill:#4D4D4D;fill-opacity:0.600000}
    .fil0 {fill:#663300;fill-opacity:0.600000}
   ]]>
  </style>
 </defs>
 <g id="_100:master" visibility="hidden">
  <metadata id="CorelCorpID_0Corel-Layer"/>
  <path class="fil0" d="M757 593c-3,8 -7,17 3,21 67,28 181,100 107,149l68 17c49,-60 49,-172 -133,-233 -13,-7 -31,23 -45,46z"/>
  <path class="fil1" d="M767 568l-10 25c77,19 185,57 283,57l0 -81c-39,0 -132,-2 -235,-35 -20,-6 -25,1 -38,34z"/>
  <path class="fil2" d="M906 725l37 43c-144,213 -653,192 -446,-329 3,-8 8,-12 18,-9l26 10c8,3 9,11 6,20 -167,421 268,397 359,265z"/>
 </g>
 <g id="Layer_x0020_1" visibility="hidden">
  <metadata id="CorelCorpID_1Corel-Layer"/>
  <path class="fil0" d="M765 604c100,69 162,113 115,147l33 41c58,-63 69,-117 -34,-208 -53,-47 -44,-33 -67,-59 -16,-5 -73,60 -47,79z"/>
  <path class="fil1" d="M780 560c-11,28 7,27 12,32 61,21 184,58 264,58l0 -81c-66,0 -159,-19 -244,-44 -15,6 -22,7 -29,26l-3 9z"/>
  <path class="fil3" d="M889 744l31 40c-166,189 -618,162 -420,-296 4,-8 9,-13 18,-9l26 10c8,3 10,11 6,20 -53,124 -44,204 -4,250 73,82 230,62 343,-15z"/>
 </g>
 <g id="Layer_x0020_2" visibility="hidden">
  <metadata id="CorelCorpID_2Corel-Layer"/>
  <path class="fil1" d="M742 553l-4 28c37,16 241,69 318,69l0 -81c-105,0 -204,-15 -290,-39 -22,-6 -23,12 -24,23z"/>
  <path class="fil4" d="M957 698l-51 22c7,-78 -105,-80 -160,-103 -11,-7 -10,-15 -10,-21l7 -53c2,-13 12,-11 17,-8 87,34 199,50 197,163z"/>
  <path class="fil3" d="M906 720c31,-46 41,-60 51,-24 -6,133 -142,198 -299,198 -133,0 -260,-98 -153,-366 3,-7 7,-13 16,-9l13 6c8,3 10,10 6,19 -75,191 12,265 119,269 107,4 235,-33 247,-93z"/>
 </g>
 <g id="Layer_x0020_3" visibility="hidden">
  <metadata id="CorelCorpID_3Corel-Layer"/>
  <path class="fil4" d="M912 726c51,17 23,9 23,54 -59,71 -172,114 -277,114 -133,0 -260,-98 -153,-366 3,-7 7,-13 16,-9l13 6c8,3 10,10 6,19 -79,200 20,271 134,269 78,-2 197,-35 238,-87z"/>
  <path class="fil4" d="M935 781l-70 -18c72,-35 6,-90 -111,-146 -11,-7 -10,-15 -9,-21l6 -53c2,-13 12,-11 17,-8 200,82 229,179 167,246z"/>
  <path class="fil1" d="M751 542l-4 35c90,53 164,72 277,72l0 -81c-120,1 -149,-3 -249,-45 -18,-7 -22,9 -24,19z"/>
 </g>
 <g id="Layer_x0020_4">
  <metadata id="CorelCorpID_4Corel-Layer"/>
  <path class="fil5" d="M858 733l52 32c-59,86 -154,126 -246,129 -155,4 -279,-109 -142,-403 3,-7 7,-10 15,-7l17 8c6,3 6,7 3,13 -98,219 -14,308 107,307 66,0 142,-29 194,-79z"/>
  <path class="fil4" d="M885 796l-88 -19c59,-34 73,-65 -54,-115 -30,-10 -20,-48 23,-84 19,5 -2,0 14,7 165,77 156,162 105,211z"/>
  <path class="fil1" d="M743 662c19,-10 40,-12 92,-12l140 0 0 -81 -188 0c-34,0 -94,74 -44,93z"/>
 </g>
 <g id="Layer_x0020_5" visibility="hidden">
  <metadata id="CorelCorpID_5Corel-Layer"/>
  <path class="fil5" d="M875 731l34 32c-128,211 -609,205 -387,-272 3,-7 7,-10 15,-7l17 8c6,3 6,7 3,13 -154,346 165,373 318,226z"/>
  <path class="fil4" d="M879 802l-46 -39c71,-49 -18,-104 -86,-146 -26,-16 1,-57 13,-74 150,91 215,155 119,259z"/>
  <path class="fil1" d="M751 558l-4 36c87,50 166,56 221,56l56 0 0 -81 -52 0c-69,0 -126,-3 -197,-29 -18,-7 -22,8 -24,18z"/>
 </g>
</svg>
