<?xml version="1.0" encoding="UTF-8"?>
<!DOCTYPE svg PUBLIC "-//W3C//DTD SVG 1.0//EN" "http://www.w3.org/TR/2001/REC-SVG-20010904/DTD/svg10.dtd">
<!-- Creator: CorelDRAW -->
<svg xmlns="http://www.w3.org/2000/svg" xml:space="preserve" width="1300px" height="1300px" version="1.0" style="shape-rendering:geometricPrecision; text-rendering:geometricPrecision; image-rendering:optimizeQuality; fill-rule:evenodd; clip-rule:evenodd"
viewBox="0 0 1300 1056"
 xmlns:xlink="http://www.w3.org/1999/xlink">
 <defs>
  <style type="text/css">
   <![CDATA[
    .fil0 {fill:#663300;fill-opacity:0.600000}
   ]]>
  </style>
 </defs>
 <g id="_100:master">
  <metadata id="CorelCorpID_0Corel-Layer"/>
  <path class="fil0" d="M757 593l10 -25c13,-33 18,-40 38,-34 103,33 196,35 235,35l0 81c-27,0 -55,-3 -83,-8 23,30 18,58 7,89l0 0c-79,238 -672,263 -473,-260 3,-8 10,-12 18,-9l24 9c5,2 9,10 6,20 -140,395 299,360 366,235 21,-47 -81,-86 -145,-112 -10,-4 -6,-13 -3,-21z"/>
 </g>
</svg>
