<?xml version="1.0" encoding="UTF-8"?>
<!DOCTYPE svg PUBLIC "-//W3C//DTD SVG 1.0//EN" "http://www.w3.org/TR/2001/REC-SVG-20010904/DTD/svg10.dtd">
<!-- Creator: CorelDRAW -->
<svg xmlns="http://www.w3.org/2000/svg" xml:space="preserve" width="1300px" height="1300px" version="1.0" style="shape-rendering:geometricPrecision; text-rendering:geometricPrecision; image-rendering:optimizeQuality; fill-rule:evenodd; clip-rule:evenodd"
viewBox="0 0 1300 1056"
 xmlns:xlink="http://www.w3.org/1999/xlink">
 <defs>
  <style type="text/css">
   <![CDATA[
    .fil1 {fill:#993366;fill-opacity:0.549020}
    .fil2 {fill:red;fill-opacity:0.549020}
    .fil0 {fill:#666633;fill-opacity:0.600000}
   ]]>
  </style>
 </defs>
 <g id="_100:master" visibility="hidden">
  <metadata id="CorelCorpID_0Corel-Layer"/>
  <path class="fil0" d="M729 479c-33,107 13,119 72,134 53,13 142,15 103,67l42 37c24,-42 33,-75 30,-100 -11,-71 -116,-78 -144,-86 -39,-11 -66,-11 -39,-59 44,-80 148,-98 198,-46 30,32 47,-8 32,-40 -72,-159 -253,-41 -294,93z"/>
  <path class="fil1" d="M917 656l58 -39c-16,325 -713,392 -459,-211 3,-7 9,-12 18,-8l26 10c8,3 10,10 6,19 -191,455 294,378 351,229z"/>
 </g>
 <g id="Layer_x0020_1">
  <metadata id="CorelCorpID_1Corel-Layer"/>
  <path class="fil2" d="M797 551l71 14c54,11 91,52 89,116 -3,207 -712,370 -438,-263 3,-8 9,-13 18,-9l26 10c8,3 10,11 6,20 -221,512 318,316 337,264 14,-35 -32,-60 -71,-65 -24,-4 -44,-7 -59,-13l0 0c-46,-13 -55,-58 -42,-108 19,-75 90,-161 163,-161 53,0 102,51 112,87l-19 34c-19,-23 -56,-37 -92,-37 -56,1 -105,47 -114,80 -4,14 3,26 13,31z"/>
 </g>
</svg>
