<?xml version="1.0" encoding="UTF-8"?>
<!DOCTYPE svg PUBLIC "-//W3C//DTD SVG 1.0//EN" "http://www.w3.org/TR/2001/REC-SVG-20010904/DTD/svg10.dtd">
<!-- Creator: CorelDRAW X7 -->
<svg xmlns="http://www.w3.org/2000/svg" xml:space="preserve" width="256px" height="256px" version="1.0" style="shape-rendering:geometricPrecision; text-rendering:geometricPrecision; image-rendering:optimizeQuality; fill-rule:evenodd; clip-rule:evenodd"
viewBox="0 0 256 256"
 xmlns:xlink="http://www.w3.org/1999/xlink">
 <defs>
  <style type="text/css">
   <![CDATA[
    .str0 {stroke:white;stroke-width:1.99961}
    .fil1 {fill:none}
    .fil0 {fill:#E6E6E6}
    .fil2 {fill:white;fill-rule:nonzero}
   ]]>
  </style>
 </defs>
 <g id="Layer_x0020_1">
  <metadata id="CorelCorpID_0Corel-Layer"/>
  <g>
   <path class="fil0" d="M162 70c46,11 68,27 68,45 0,9 -6,39 -24,39 -17,0 -34,-4 -45,-8 -8,4 -19,6 -36,6 -2,0 -3,-2 -3,-4 0,-7 5,-19 9,-19 5,0 9,0 13,0 -1,-3 -1,-5 -1,-8 0,-10 1,-26 19,-51l0 0zm1 55c10,-1 20,-10 20,-16 0,-7 -7,-17 -18,-17 -10,0 -16,11 -16,15 0,7 3,14 14,18l0 0zm48 10c9,0 12,-3 12,-5 0,-9 -14,-22 -33,-31 0,12 -6,23 -11,30 9,3 26,6 32,6z"/>
   <path id="1" class="fil1 str0" d="M162 70c46,11 68,27 68,45 0,9 -6,39 -24,39 -17,0 -34,-4 -45,-8 -8,4 -19,6 -36,6 -2,0 -3,-2 -3,-4 0,-7 5,-19 9,-19 5,0 9,0 13,0 -1,-3 -1,-5 -1,-8 0,-10 1,-26 19,-51m1 55c10,-1 20,-10 20,-16 0,-7 -7,-17 -18,-17 -10,0 -16,11 -16,15 0,7 3,14 14,18m48 10c9,0 12,-3 12,-5 0,-9 -14,-22 -33,-31 0,12 -6,23 -11,30 9,3 26,6 32,6z"/>
  </g>
  <path class="fil0 str0" d="M132 129c2,0 2,2 2,4 0,7 -5,19 -9,19l-1 0c-25,0 -39,-11 -51,-27 -23,8 -37,22 -37,30 0,16 18,28 48,28 18,0 35,-3 44,-9l0 2c-8,15 -19,32 -50,32 -27,0 -48,-16 -48,-47 0,-16 5,-36 33,-51 -5,-9 -19,-28 -27,-28 -3,0 -5,0 -5,0l-2 -2 11 -15c9,-5 27,-7 38,-7 21,0 33,6 33,19 0,5 -3,23 -22,37 12,12 24,15 41,15l2 0 0 0zm-27 -45c0,-4 -13,-7 -26,-7 -14,0 -28,3 -31,4 12,3 23,20 31,25 14,-5 26,-18 26,-22z"/>
  <g>
   <path class="fil2" d="M125 63l0 -1 8 14 -4 2 -8 -14 0 -1 4 0zm-4 1l0 0 0 -1 0 1zm0 -17l4 -1 0 17 -4 0 0 -17 3 -1 -3 2zm0 -1l0 -6 3 5 -3 1zm12 13l-4 0 -8 -12 3 -2 9 11 -4 0 4 3zm0 0l-2 2 -2 -2 4 0zm4 -13l4 1 -8 12 -4 -3 9 -11 4 1 -5 0zm1 -1l4 -5 0 6 -4 -1zm0 17l-1 1 0 -17 5 0 0 17 -1 1 -3 -2zm4 1l0 1 -1 0 1 -1zm-11 14l-2 -1 9 -14 3 2 -8 14 -2 -1zm-1 122l0 -125 2 0 0 125 -2 0zm-5 11l-4 0 0 -1 8 -14 4 2 -8 14 0 -1zm-4 -1l0 1 0 -1 0 0zm0 16l3 3 -3 -2 0 -16 4 0 0 16 -4 -1zm0 1l3 2 -3 5 0 -7zm12 -12l-4 2 4 0 -9 12 -3 -3 8 -11 4 0zm0 0l-4 0 2 -2 2 2zm4 12l5 0 -4 2 -9 -12 4 -2 8 11 -4 1zm1 2l4 -2 0 7 -4 -5zm0 -17l3 -2 1 1 0 16 -5 0 0 -16 1 1zm4 -1l-1 -1 1 0 0 1zm-11 -14l2 -1 8 14 -3 2 -9 -14 2 -1z"/>
  </g>
 </g>
</svg>
