<svg id="Layer_1" data-name="Layer 1" xmlns="http://www.w3.org/2000/svg" viewBox="0 0 1280 800"><defs><style>.cls-1{fill:#2e364d;}.cls-2{fill:#ebeb7c;}.cls-3{fill:#defaf8;}.cls-4{fill:#ed1e79;}.cls-5{fill:#f2f2f2;}.cls-6{fill:#eae0ff;}</style></defs><title>intro2</title><rect class="cls-1" width="1280" height="800"/><path class="cls-2" d="M429.76,197.39V411.79q0,16.73,13.64,22.93,12.49,5.58,36.9,5.58v35.32H465.12q-30.75,0-45-18.8-11.72-15.49-12.88-44.61-0.19-2.68-.19-3.92l-6.73-185.68q0-9.09,4.32-14t21.24-14.87Q429.76,193.68,429.76,197.39Z"/><path class="cls-2" d="M468.87,470.24a17.25,17.25,0,0,1-5.09-12.19,17.6,17.6,0,0,1,5.09-12.29q5.09-5.47,11.24-5.47H508q15.37,0,33.73-5.89t22-13.12a6.7,6.7,0,0,0,.77-3.51q0-15.69-19-50.81-9.22-16.93-25.27-35.42a203,203,0,0,0-35.07-32.12l12.11-42.34,142.21-63.41-2.31,38-120.3,51.43q21.71,20.45,34.88,38.83a270.35,270.35,0,0,1,24.5,42.55Q590,395.88,597,407.24q20.56,33,50.73,33h8.46v35.32h-8.46q-18.07,0-31.52-5.16T594.36,457a99.68,99.68,0,0,1-15.85-21.27q-8.07,21.9-26,30.88t-47.18,9H480.11Q474,475.61,468.87,470.24Z"/><path class="cls-2" d="M644.8,470.24a17.53,17.53,0,0,1-5-12.29,17.92,17.92,0,0,1,4.8-12.29q4.81-5.37,11.15-5.37,27.86,0,41.7-2.48,12.3-4.13,17.3-12.5t5-26.54V362.83h23.06v56.39q0,12,10.38,14.46a126.58,126.58,0,0,0,40,6.61v35.32q-30.37,0-47.08-9.5-10.38-5.37-15.57-10.95a58,58,0,0,1-24.21,15.7q-14,4.75-41.89,4.75h-8.65Q649.8,475.61,644.8,470.24Zm4,60.1,13.84-19a5.24,5.24,0,0,1,3.75-2.68,4.55,4.55,0,0,1,4.13,1.24l18.06,14.46a5.53,5.53,0,0,1,1.92,4,6,6,0,0,1-1.35,4.44l-13.45,19a6.81,6.81,0,0,1-3.84,2.38,4.47,4.47,0,0,1-4-.93l-17.68-14.46a7.56,7.56,0,0,1-2.21-4.13A5.36,5.36,0,0,1,648.84,530.34Zm52.85,0,13.45-19a5.25,5.25,0,0,1,3.75-2.68,4.55,4.55,0,0,1,4.13,1.24l18.06,14.46a5.53,5.53,0,0,1,1.92,4,6,6,0,0,1-1.34,4.44l-13.45,19a6.82,6.82,0,0,1-3.84,2.38,4.47,4.47,0,0,1-4-.93l-17.68-14.46a6.59,6.59,0,0,1-2-4.13A6,6,0,0,1,701.69,530.34Z"/><path class="cls-2" d="M781.82,470.24a17.53,17.53,0,0,1-5-12.29,17.92,17.92,0,0,1,4.8-12.29q4.81-5.37,11.15-5.37H801q22.1,0,40-6.61,6.92-2.48,9.7-6.09a15,15,0,0,0,2.79-9.4q0-5.78-3.46-20.55T840.53,364q-6.05-18.9-8-25.51l25-22.93q16.53,47.71,20.18,70.84a177.4,177.4,0,0,1,1.73,25.71,69.28,69.28,0,0,1-5.57,27.16v1a4.07,4.07,0,0,0-.48.72,4,4,0,0,1-.48.72q-8.07,15.91-25,24.37-16.72,9.5-46.51,9.5h-8.65Q786.82,475.61,781.82,470.24Zm28.06-248.06,14.8-20.86a5.92,5.92,0,0,1,3.94-2.17,6.35,6.35,0,0,1,4.52,1.14l18.64,15.49a5.93,5.93,0,0,1,2.5,4.34,7.22,7.22,0,0,1-1.15,5.16l-14.41,20a5.41,5.41,0,0,1-4,2.69,5,5,0,0,1-4.42-1.24l-19.41-15.49Q806.61,227.55,809.88,222.18Z"/><path class="cls-3" d="M613.11,737.28a7.18,7.18,0,0,1,7.16,7.44c0,4.85-3.38,7.84-7.44,7.84a7.23,7.23,0,0,1-7.21-7.51c0-4.07,2.84-7.78,7.48-7.78h0Zm-0.47.84c-2.4,0-4.68,2.1-4.68,6.36s2.27,7.25,5.34,7.25c2.4,0,4.6-2.06,4.6-6.4,0-4.71-2.43-7.2-5.24-7.2h0Z"/><path class="cls-3" d="M631.09,741.1a4.61,4.61,0,0,0-.64-1.83c-0.37-.63-0.83-0.83-2.41-0.83h-1.56c-0.67,0-.73.06-0.73,0.74v5.25h2.14c2,0,2.07-.21,2.34-1.67h0.63v4.42h-0.64c-0.26-1.57-.37-1.81-2.33-1.81h-2.14v3.92c0,2,.19,2.13,2.14,2.29v0.64h-6v-0.64c1.7-.14,1.89-0.29,1.89-2.29v-8.77c0-2-.19-2.1-1.83-2.23v-0.68h9.57c0,0.83.13,2.26,0.23,3.38Z"/><path class="cls-3" d="M643.87,748.59c-0.14.77-.59,2.93-0.8,3.62h-9.85v-0.64c1.83-.14,2-0.29,2-2.26V740.5c0-2-.14-2.09-1.91-2.21v-0.68h5.78v0.68c-1.68.12-1.88,0.25-1.88,2.21v8.73c0,1.23.1,1.66,0.5,1.89a4.37,4.37,0,0,0,2,.29,2.84,2.84,0,0,0,2.37-.72,6.25,6.25,0,0,0,1.16-2.24Z"/><path class="cls-3" d="M652.12,752.21v-0.64c1.89-.14,2-0.37,2-2V741.1c0-1.17-.08-1.27-1-1.34l-1.11,0v-0.54a21.69,21.69,0,0,0,4-1.17v11.56c0,1.63.14,1.86,2,2v0.64h-6Z"/><path class="cls-3" d="M662.54,752.47a1.24,1.24,0,0,1-1.23-1.38,1.25,1.25,0,1,1,2.5,0,1.24,1.24,0,0,1-1.24,1.38h0Z"/><path class="cls-3" d="M667.34,752.21v-0.64c1.89-.14,2-0.37,2-2V741.1c0-1.17-.08-1.27-1-1.34l-1.11,0v-0.54a21.69,21.69,0,0,0,4-1.17v11.56c0,1.63.14,1.86,2,2v0.64h-6Z"/><polygon class="cls-4" points="463.03 159.44 419.5 135.32 375.33 158.25 384.38 108.53 349.38 72.77 398.51 66.16 421.05 21.12 442.36 66.76 491.29 74.69 455.33 109.5 463.03 159.44"/><path class="cls-5" d="M400,83v18.34l-2.5.56L395.23,85Z"/><path class="cls-5" d="M408.2,101.05a3.22,3.22,0,0,1-1.23-.23,2.9,2.9,0,0,1-1-.67,3.54,3.54,0,0,1-.68-1,2.79,2.79,0,0,1-.26-1.2V92.09h2.43v1.52a1.13,1.13,0,0,0,.38.91,1.34,1.34,0,0,0,.9.33h3.29a4.07,4.07,0,0,0-.91-2.48,8,8,0,0,0-2.38-2.06l2.33-5A9.13,9.13,0,0,1,413.49,87a6.78,6.78,0,0,1,1.33,2.06,8.8,8.8,0,0,1,.58,2.52q0.13,1.4.13,3.17V98a3,3,0,0,1-.25,1.24,3.26,3.26,0,0,1-.65,1,2.71,2.71,0,0,1-1,.64,3.46,3.46,0,0,1-1.24.22h-4.2Z"/><path class="cls-5" d="M421.81,100.26l-3.43,1.61L417,85.77l4.78-2.19v16.68Z"/><path class="cls-5" d="M429.88,89.48l0.43,2.87q0.18,1.17.27,2c0.06,0.58.1,1.1,0.11,1.56s0,0.95,0,1.46a14.85,14.85,0,0,1-.87,5,29.94,29.94,0,0,1-2.21,4.79L421,105.44,427.45,99,425,92.49Zm-5.51-2.57,2.4-2.4,2.4,2.4-2.4,2.4Z"/><path class="cls-5" d="M439.56,83.43l-1.42,3.66-4-.7,0.35,1.31H431V86.3a4.15,4.15,0,0,1,.75-2.78,2.53,2.53,0,0,1,2-.72l0.56,0ZM437,100.26l-3.43,1.61-1.35-11.29,4.78-2.1v11.78Z"/><path class="cls-6" d="M539.6,633.52a29.31,29.31,0,0,1,2.2-10l1.88,0.78a21.82,21.82,0,0,0-1.83,7.8,6.66,6.66,0,0,0,1.53,4.79,5.48,5.48,0,0,0,4.14,1.58,12.63,12.63,0,0,0,5.44-1.35,13.37,13.37,0,0,0,4.49-3.29,3.38,3.38,0,0,0,.06-0.76q0-2.58-2.07-9.25l2.42-2.22a42.79,42.79,0,0,1,1.36,5.29,1.35,1.35,0,0,0,.86.66,12.43,12.43,0,0,0,3.89.64v3.42a9.6,9.6,0,0,1-4.14-.72q0.06,0.6.06,1.12a7.71,7.71,0,0,1-1.84,4.88,13,13,0,0,1-4.66,3.65,13.35,13.35,0,0,1-5.7,1.36q-4.32,0-6.46-2.7a7.14,7.14,0,0,1-1.18-2.39A11.33,11.33,0,0,1,539.6,633.52Zm8.68-15.28,1.43-2a0.57,0.57,0,0,1,.38-0.21,0.61,0.61,0,0,1,.44.11l1.81,1.5a0.57,0.57,0,0,1,.24.42,0.7,0.7,0,0,1-.11.5l-1.4,1.94a0.52,0.52,0,0,1-.39.26,0.48,0.48,0,0,1-.43-0.12l-1.88-1.5A0.62,0.62,0,0,1,548.28,618.25Z"/><path class="cls-6" d="M562.85,631.08a1.7,1.7,0,0,1-.48-1.19,1.74,1.74,0,0,1,.47-1.19,1.41,1.41,0,0,1,1.08-.52,24.92,24.92,0,0,0,4-.24,2.94,2.94,0,0,0,1.68-1.21,5.2,5.2,0,0,0,.48-2.57v-3.48h2.24v5.47a1.27,1.27,0,0,0,1,1.4,12.25,12.25,0,0,0,3.87.64v3.42a9.32,9.32,0,0,1-4.56-.92,5.52,5.52,0,0,1-1.51-1.06,5.62,5.62,0,0,1-2.35,1.52,13.44,13.44,0,0,1-4.06.46h-0.84A1.43,1.43,0,0,1,562.85,631.08Zm2.33-20,1.34-1.84a0.45,0.45,0,0,1,.36-0.24,0.49,0.49,0,0,1,.4.14l1.75,1.36a0.56,0.56,0,0,1,.19.41,0.62,0.62,0,0,1-.13.45l-1.3,1.84a0.66,0.66,0,0,1-.37.23,0.43,0.43,0,0,1-.39-0.09l-1.71-1.4a0.74,0.74,0,0,1-.21-0.42A0.55,0.55,0,0,1,565.18,611.1Zm5.12,0,1.3-1.84A0.45,0.45,0,0,1,572,609a0.49,0.49,0,0,1,.4.14l1.75,1.36a0.56,0.56,0,0,1,.19.41,0.62,0.62,0,0,1-.13.45l-1.3,1.84a0.66,0.66,0,0,1-.37.23,0.43,0.43,0,0,1-.39-0.09l-1.71-1.4a0.66,0.66,0,0,1-.2-0.42A0.61,0.61,0,0,1,570.3,611.1Z"/><path class="cls-6" d="M576.14,631.08a1.67,1.67,0,0,1-.49-1.18,1.71,1.71,0,0,1,.49-1.19,1.47,1.47,0,0,1,1.09-.53q2.92,0,4-.94a7.81,7.81,0,0,0,.78-0.72,5.36,5.36,0,0,0,.7-1q0.38-.69.66-1.25,0.95-2,1.69-3.46,1.08-2.12,2.78-2.12a3.65,3.65,0,0,1,2.45,1.12,8.34,8.34,0,0,1,2,3,9.75,9.75,0,0,1,.77,3.8,5.47,5.47,0,0,1-1.58,4.34,3,3,0,0,1-2,.72h-0.09a9.07,9.07,0,0,1-3.39-.77,14.34,14.34,0,0,1-3.07-1.65,5,5,0,0,1-2.1,1.83,8.75,8.75,0,0,1-3.58.59A1.48,1.48,0,0,1,576.14,631.08Zm13.42-2.92a4.76,4.76,0,0,0,1.6-.24,8.25,8.25,0,0,0-1.73-3.73,3.49,3.49,0,0,0-2.44-1.57,1.2,1.2,0,0,0-1,.62q-0.34.6-.82,1.59t-0.63,1.27A8.07,8.07,0,0,0,589.56,628.16Z"/><path class="cls-6" d="M603,620.43l2.48-2.7,2.46,2.7-2.46,2.62Zm0,7.55,2.48-2.62L608,628l-2.46,2.64Z"/><path class="cls-6" d="M619.55,629a6.33,6.33,0,0,1-1.6-4.72,22.49,22.49,0,0,1,1.34-6.77l1.88,0.82a17.06,17.06,0,0,0-.86,4.64,4.78,4.78,0,0,0,.8,2.88q1.68,2.28,8.12,2.28h0.17a31.73,31.73,0,0,0,5.37-.51,41.36,41.36,0,0,0,5.58-1.35,40.41,40.41,0,0,1-1.17-5.29l2.11-.86q0.37,2.1.6,3.09a17.42,17.42,0,0,0,.68,2.17,3.68,3.68,0,0,0,1,1.64,6.27,6.27,0,0,0,3.93,1.12v3.42a9.73,9.73,0,0,1-4-.65,5,5,0,0,1-2.29-2.29,2.34,2.34,0,0,1-1,1,36.08,36.08,0,0,1-5.39,1.33,32.61,32.61,0,0,1-5.19.59h-0.35q-1.75,0-3-.1a21.52,21.52,0,0,1-2.69-.38,8.68,8.68,0,0,1-2.35-.8A7.78,7.78,0,0,1,619.55,629Zm6.91-16.42,1.34-1.84a0.45,0.45,0,0,1,.36-0.24,0.49,0.49,0,0,1,.4.14l1.75,1.36a0.56,0.56,0,0,1,.19.41,0.61,0.61,0,0,1-.13.45l-1.3,1.84a0.65,0.65,0,0,1-.37.23,0.43,0.43,0,0,1-.39-0.09l-1.71-1.4a0.75,0.75,0,0,1-.21-0.42A0.55,0.55,0,0,1,626.46,612.6Zm5.12,0,1.3-1.84a0.45,0.45,0,0,1,.36-0.24,0.49,0.49,0,0,1,.4.14L635.4,612a0.56,0.56,0,0,1,.19.41,0.61,0.61,0,0,1-.13.45l-1.3,1.84a0.65,0.65,0,0,1-.37.23,0.43,0.43,0,0,1-.39-0.09l-1.71-1.4a0.66,0.66,0,0,1-.2-0.42A0.61,0.61,0,0,1,631.58,612.6Z"/><path class="cls-6" d="M646.45,631.08a1.7,1.7,0,0,1-.48-1.19,1.73,1.73,0,0,1,.47-1.19,1.41,1.41,0,0,1,1.08-.52h0.8a11.09,11.09,0,0,0,3.87-.64,2,2,0,0,0,.94-0.59,1.45,1.45,0,0,0,.27-0.91,10.43,10.43,0,0,0-.33-2q-0.34-1.43-.92-3.26t-0.77-2.47l2.42-2.22a45.06,45.06,0,0,1,2,6.87,17.12,17.12,0,0,1,.17,2.49,6.71,6.71,0,0,1-.54,2.63v0.1l0,0.07,0,0.07a5.27,5.27,0,0,1-2.42,2.36,9.18,9.18,0,0,1-4.51.92h-0.84A1.43,1.43,0,0,1,646.45,631.08Zm2.72-24,1.43-2a0.57,0.57,0,0,1,.38-0.21,0.61,0.61,0,0,1,.44.11l1.81,1.5a0.57,0.57,0,0,1,.24.42,0.69,0.69,0,0,1-.11.5l-1.4,1.94a0.52,0.52,0,0,1-.39.26,0.48,0.48,0,0,1-.43-0.12l-1.88-1.5A0.62,0.62,0,0,1,649.16,607Z"/><path class="cls-6" d="M660,639.83a0.5,0.5,0,0,1,.17-0.3,19.84,19.84,0,0,0,6.51-3.78,9,9,0,0,0,2.77-4.14h-3.15a4.5,4.5,0,0,1-3.41-1.19,4.14,4.14,0,0,1-1.14-3,15.29,15.29,0,0,1,1.14-5.53,6.71,6.71,0,0,1,1.53-2.37,3,3,0,0,1,2.16-1,3.28,3.28,0,0,1,2.21.89,6.55,6.55,0,0,1,1.65,2.33,19.1,19.1,0,0,1,1.49,6.37h3.05v3.42h-3.11a12.74,12.74,0,0,1-1.34,3.66,15.66,15.66,0,0,1-2.25,3.18,15,15,0,0,1-2.64,2.29,7,7,0,0,1-2.58,1.15,4.09,4.09,0,0,1-1.83-.75A2.05,2.05,0,0,1,660,639.83Zm3.63-14.31a4.64,4.64,0,0,0-.07.85,1.86,1.86,0,0,0,.19.83,1.45,1.45,0,0,0,.44.56,1.91,1.91,0,0,0,.68.28,6.19,6.19,0,0,0,1.43.14h3.15a12.56,12.56,0,0,0-1.23-4.35Q667.25,622,666,622a1.71,1.71,0,0,0-1.38,1A10.21,10.21,0,0,0,663.6,625.51Z"/><path class="cls-6" d="M674.94,628.18h3.5a10.1,10.1,0,0,0,5-1.16,12,12,0,0,0,.17-2.18v-0.72a7.35,7.35,0,0,1-3.15.66,4.46,4.46,0,0,1-3.4-1.21,4.16,4.16,0,0,1-1.15-3,15.38,15.38,0,0,1,1.14-5.57,6.48,6.48,0,0,1,1.5-2.36,3,3,0,0,1,2.1-.94,3.32,3.32,0,0,1,2.06.7,5.65,5.65,0,0,1,1.55,1.86,13.85,13.85,0,0,1,1.07,2.7,24.52,24.52,0,0,1,.82,6.59q0,1-.09,2.12a5.5,5.5,0,0,1-1.14,3.36q-2,2.54-6.48,2.54h-3.5a1.48,1.48,0,0,1-1.09-.52,1.67,1.67,0,0,1-.49-1.18,1.91,1.91,0,0,1,.51-1.19A1.42,1.42,0,0,1,674.94,628.18Zm2.42-23.94,1.43-2a0.57,0.57,0,0,1,.38-0.21,0.61,0.61,0,0,1,.44.11l1.81,1.5a0.58,0.58,0,0,1,.24.42,0.7,0.7,0,0,1-.11.5l-1.4,1.94a0.52,0.52,0,0,1-.39.26,0.48,0.48,0,0,1-.43-0.12l-1.88-1.5A0.62,0.62,0,0,1,677.37,604.23Zm1.58,12a5.61,5.61,0,0,0-1.21,3.26,1.86,1.86,0,0,0,.2.86,1.65,1.65,0,0,0,.43.56,1.73,1.73,0,0,0,.68.28,6.7,6.7,0,0,0,1.43.12h0.15a7,7,0,0,0,2.72-.64,15.28,15.28,0,0,0-1.15-3.94q-0.75-1.56-1.61-1.56A2.09,2.09,0,0,0,678.95,616.26Z"/><path class="cls-6" d="M696.57,635.7a13,13,0,0,1,1.79-6.43A15.38,15.38,0,0,1,702,625a13.57,13.57,0,0,1-2.23-3.27,8.36,8.36,0,0,1-.91-3.73,6.84,6.84,0,0,1,.28-1.92,7.48,7.48,0,0,1,2.51-3.79,6.08,6.08,0,0,1,3.73-1.25,8.31,8.31,0,0,1,5.77,2.44l-0.6,1.88a14.08,14.08,0,0,0-4.62-.84,7.14,7.14,0,0,0-3.48.72,2,2,0,0,0-1.29,1.58,5.81,5.81,0,0,0,.38,1.93,7.16,7.16,0,0,0,1.32,2.18,4.75,4.75,0,0,0,2.21,1.51l2.14-.42q3.18-.6,5.5-1.22L711.73,624a19.51,19.51,0,0,0-2.87,1l-1.85.83-1.63.78-1.4.67a14.8,14.8,0,0,0-3.59,3.22,7.6,7.6,0,0,0-1.88,4.62,5,5,0,0,0,.67,2.48,7.3,7.3,0,0,0,1.91,2.17,9.67,9.67,0,0,0,3.19,1.56,14.51,14.51,0,0,0,4.23.59,21.44,21.44,0,0,0,4.52-.48l-0.67,3.4a21.31,21.31,0,0,1-4.49.48,12.06,12.06,0,0,1-8.23-2.67A8.76,8.76,0,0,1,696.57,635.7Z"/><path class="cls-6" d="M717.06,639.83a0.5,0.5,0,0,1,.17-0.3,19.84,19.84,0,0,0,6.51-3.78,9,9,0,0,0,2.77-4.14h-3.15a4.5,4.5,0,0,1-3.41-1.19,4.14,4.14,0,0,1-1.14-3,15.29,15.29,0,0,1,1.14-5.53,6.71,6.71,0,0,1,1.53-2.37,3,3,0,0,1,2.16-1,3.28,3.28,0,0,1,2.21.89,6.55,6.55,0,0,1,1.65,2.33,19.1,19.1,0,0,1,1.49,6.37H732v3.42h-3.11a12.74,12.74,0,0,1-1.34,3.66,15.66,15.66,0,0,1-2.25,3.18,15,15,0,0,1-2.64,2.29,7,7,0,0,1-2.58,1.15,4.09,4.09,0,0,1-1.83-.75A2.05,2.05,0,0,1,717.06,639.83Zm3.63-14.31a4.64,4.64,0,0,0-.07.85,1.86,1.86,0,0,0,.19.83,1.45,1.45,0,0,0,.44.56,1.91,1.91,0,0,0,.68.28,6.19,6.19,0,0,0,1.43.14h3.15a12.56,12.56,0,0,0-1.23-4.35q-0.93-1.79-2.18-1.79a1.71,1.71,0,0,0-1.38,1A10.21,10.21,0,0,0,720.69,625.51Z"/><path class="cls-6" d="M730.94,631.08a1.7,1.7,0,0,1-.48-1.19,1.73,1.73,0,0,1,.47-1.19,1.41,1.41,0,0,1,1.08-.52h0.8a11.09,11.09,0,0,0,3.87-.64,2,2,0,0,0,.94-0.59,1.45,1.45,0,0,0,.27-0.91,10.43,10.43,0,0,0-.33-2q-0.34-1.43-.92-3.26t-0.77-2.47l2.42-2.22a45.06,45.06,0,0,1,2,6.87,17.12,17.12,0,0,1,.17,2.49,6.71,6.71,0,0,1-.54,2.63v0.1l0,0.07,0,0.07a5.27,5.27,0,0,1-2.42,2.36,9.18,9.18,0,0,1-4.51.92H732A1.43,1.43,0,0,1,730.94,631.08Zm2.72-24,1.43-2a0.57,0.57,0,0,1,.38-0.21,0.61,0.61,0,0,1,.44.11l1.81,1.5a0.57,0.57,0,0,1,.24.42,0.69,0.69,0,0,1-.11.5l-1.4,1.94a0.52,0.52,0,0,1-.39.26,0.48,0.48,0,0,1-.43-0.12l-1.88-1.5A0.62,0.62,0,0,1,733.66,607Z"/><path class="cls-6" d="M519.79,680.29a22.48,22.48,0,0,1,1.34-6.77l1.88,0.82a17.05,17.05,0,0,0-.86,4.64,4.78,4.78,0,0,0,.8,2.88q1.68,2.28,8.12,2.28h0.17a38.17,38.17,0,0,0,5.45-.5,23.34,23.34,0,0,0,5-1.18,1.44,1.44,0,0,0,1-1.44,6.88,6.88,0,0,0-.21-1.33l-0.34-1.48q-0.13-.57-0.72-2.36t-0.81-2.53l2.46-2.26q0.67,2,1,3t0.73,2.88a15.5,15.5,0,0,1,.4,3.21,5.71,5.71,0,0,1-2.12,4.92q-1.4,1.1-5.34,1.79a40.18,40.18,0,0,1-6.07.71q-2.13,0-3.46-.08a21.53,21.53,0,0,1-2.69-.38,8.67,8.67,0,0,1-2.35-.8,7.77,7.77,0,0,1-1.78-1.3A6.32,6.32,0,0,1,519.79,680.29ZM529,692.8l1.34-1.84a0.5,0.5,0,0,1,.36-0.26,0.44,0.44,0,0,1,.4.12l1.75,1.4a0.53,0.53,0,0,1,.19.39,0.58,0.58,0,0,1-.13.43l-1.3,1.84a0.66,0.66,0,0,1-.37.23,0.43,0.43,0,0,1-.39-0.09l-1.71-1.4a0.73,0.73,0,0,1-.21-0.4A0.52,0.52,0,0,1,529,692.8Zm2.78,4.8,1.23-1.7a0.46,0.46,0,0,1,.73-0.14l1.56,1.3a0.63,0.63,0,0,1,.21.36,0.49,0.49,0,0,1-.08.4l-1.21,1.74a0.66,0.66,0,0,1-.37.23,0.43,0.43,0,0,1-.39-0.09l-1.56-1.34a0.59,0.59,0,0,1-.21-0.37A0.47,0.47,0,0,1,531.79,697.61Zm2.35-4.8,1.3-1.84a0.51,0.51,0,0,1,.36-0.26,0.44,0.44,0,0,1,.4.12l1.75,1.4a0.53,0.53,0,0,1,.19.39,0.58,0.58,0,0,1-.13.43l-1.3,1.84a0.66,0.66,0,0,1-.37.23,0.43,0.43,0,0,1-.39-0.09l-1.71-1.4a0.64,0.64,0,0,1-.2-0.4A0.58,0.58,0,0,1,534.13,692.8Z"/><path class="cls-6" d="M552.09,660.63v20.78a2.22,2.22,0,0,0,1.32,2.22,9.14,9.14,0,0,0,3.58.54v3.42h-1.47a5.11,5.11,0,0,1-4.36-1.82,7.58,7.58,0,0,1-1.25-4.32c0-.17,0-0.3,0-0.38l-0.65-18a2,2,0,0,1,.42-1.36,9.68,9.68,0,0,1,2.06-1.44A0.32,0.32,0,0,1,552.09,660.63Z"/><path class="cls-6" d="M555.85,687.06a1.65,1.65,0,0,1-.47-1.16,1.74,1.74,0,0,1,.48-1.19,1.41,1.41,0,0,1,1.07-.53h2.2a15.34,15.34,0,0,0,6.78-1.34,23.82,23.82,0,0,0,2.27-1.27q0.91-.59,2.16-1.54t2-1.41l-2.13-.88q-1.43-.6-2.21-0.9a10.68,10.68,0,0,0-3.65-.84q-2.74,0-4,3.2l-1.34-1a11.07,11.07,0,0,1,2.28-4.4,4.14,4.14,0,0,1,3-1.3,15,15,0,0,1,5.23,1.46q1.45,0.6,3,1.2a25.49,25.49,0,0,0,3.53,1,18.48,18.48,0,0,0,3.81.45l-1.27,3.42h-1.27a8.26,8.26,0,0,0-4.75,1.5q-1,.66-1.94,1.46t-2.09,1.6a19.1,19.1,0,0,1-2.4,1.46,14.91,14.91,0,0,1-6.95,1.48h-2.33A1.58,1.58,0,0,1,555.85,687.06Zm5,5.87,1.34-1.84a0.51,0.51,0,0,1,.36-0.26,0.44,0.44,0,0,1,.4.12l1.75,1.4a0.54,0.54,0,0,1,.19.39,0.58,0.58,0,0,1-.13.43l-1.3,1.84a0.66,0.66,0,0,1-.37.23,0.43,0.43,0,0,1-.39-0.09l-1.71-1.4a0.73,0.73,0,0,1-.21-0.4A0.52,0.52,0,0,1,560.85,692.92Zm2.78,4.8,1.23-1.7a0.46,0.46,0,0,1,.73-0.14l1.56,1.3a0.62,0.62,0,0,1,.21.36,0.49,0.49,0,0,1-.08.4l-1.21,1.74a0.66,0.66,0,0,1-.37.23,0.43,0.43,0,0,1-.39-0.09l-1.56-1.34a0.59,0.59,0,0,1-.21-0.37A0.47,0.47,0,0,1,563.62,697.73Zm2.35-4.8,1.3-1.84a0.51,0.51,0,0,1,.36-0.26,0.44,0.44,0,0,1,.4.12l1.75,1.4a0.54,0.54,0,0,1,.19.39,0.58,0.58,0,0,1-.13.43l-1.3,1.84a0.66,0.66,0,0,1-.37.23,0.43,0.43,0,0,1-.39-0.09l-1.71-1.4a0.64,0.64,0,0,1-.2-0.4A0.58,0.58,0,0,1,566,692.92Z"/><path class="cls-6" d="M590.33,695.83a0.5,0.5,0,0,1,.17-0.3q5.44-2.12,7.94-5.33a6.65,6.65,0,0,0,1.43-3.22v-0.1a7.19,7.19,0,0,1-3.24.72,4.44,4.44,0,0,1-3.38-1.19,4.15,4.15,0,0,1-1.13-3,14.37,14.37,0,0,1,.73-4.4,7.31,7.31,0,0,1,2.27-3.8,2.82,2.82,0,0,1,1.77-.64,3.37,3.37,0,0,1,2.41,1.07,7.69,7.69,0,0,1,1.74,2.75,20.06,20.06,0,0,1,1.34,7.31,11,11,0,0,1-.9,4.24,14.77,14.77,0,0,1-2.25,3.78,16,16,0,0,1-2.92,2.75,7.55,7.55,0,0,1-2.92,1.39,4.09,4.09,0,0,1-1.83-.75A2.06,2.06,0,0,1,590.33,695.83ZM594,681.51a4.64,4.64,0,0,0-.07.85,1.86,1.86,0,0,0,.19.83,1.46,1.46,0,0,0,.44.56,1.91,1.91,0,0,0,.68.28,6.18,6.18,0,0,0,1.43.14h0.17a5.94,5.94,0,0,0,2.85-.74,11.36,11.36,0,0,0-1.26-3.86,2.47,2.47,0,0,0-2-1.54,1.7,1.7,0,0,0-1.38,1A10.17,10.17,0,0,0,594,681.51Z"/><path class="cls-6" d="M612.8,680.29a22.49,22.49,0,0,1,1.34-6.77l1.88,0.82a17.06,17.06,0,0,0-.86,4.64,4.78,4.78,0,0,0,.8,2.88q1.68,2.28,8.12,2.28h0.17a38.17,38.17,0,0,0,5.45-.5,23.36,23.36,0,0,0,5-1.18,1.44,1.44,0,0,0,1-1.44,6.84,6.84,0,0,0-.21-1.33l-0.33-1.48q-0.13-.57-0.72-2.36t-0.81-2.53l2.46-2.26q0.67,2,1,3t0.73,2.88a15.53,15.53,0,0,1,.4,3.21,5.7,5.7,0,0,1-2.12,4.92q-1.4,1.1-5.34,1.79a40.21,40.21,0,0,1-6.07.71q-2.13,0-3.46-.08a21.52,21.52,0,0,1-2.69-.38,8.68,8.68,0,0,1-2.35-.8,7.78,7.78,0,0,1-1.78-1.3A6.33,6.33,0,0,1,612.8,680.29Zm10.92,12.77,1.4-2a0.52,0.52,0,0,1,.39-0.26,0.48,0.48,0,0,1,.43.12l1.84,1.5a0.58,0.58,0,0,1,.13.88l-1.43,2a0.68,0.68,0,0,1-.4.23,0.47,0.47,0,0,1-.42-0.09l-1.81-1.5a0.58,0.58,0,0,1-.24-0.43A0.59,0.59,0,0,1,623.71,693.06Z"/><path class="cls-6" d="M642.26,695.83a0.5,0.5,0,0,1,.17-0.3q5.44-2.12,7.93-5.33A6.65,6.65,0,0,0,651.8,687v-0.1a7.19,7.19,0,0,1-3.24.72,4.44,4.44,0,0,1-3.38-1.19,4.16,4.16,0,0,1-1.13-3,14.37,14.37,0,0,1,.73-4.4,7.32,7.32,0,0,1,2.27-3.8,2.82,2.82,0,0,1,1.77-.64,3.37,3.37,0,0,1,2.41,1.07,7.68,7.68,0,0,1,1.74,2.75,20.05,20.05,0,0,1,1.34,7.31,11,11,0,0,1-.9,4.24,14.78,14.78,0,0,1-2.25,3.78,16,16,0,0,1-2.92,2.75,7.55,7.55,0,0,1-2.92,1.39,4.09,4.09,0,0,1-1.83-.75A2.05,2.05,0,0,1,642.26,695.83Zm3.63-14.31a4.64,4.64,0,0,0-.07.85,1.86,1.86,0,0,0,.19.83,1.45,1.45,0,0,0,.44.56,1.91,1.91,0,0,0,.68.28,6.19,6.19,0,0,0,1.43.14h0.17a5.94,5.94,0,0,0,2.85-.74,11.37,11.37,0,0,0-1.26-3.86,2.47,2.47,0,0,0-2-1.54,1.71,1.71,0,0,0-1.38,1A10.21,10.21,0,0,0,645.89,681.51Z"/><path class="cls-6" d="M670.63,676.43l2.48-2.7,2.46,2.7-2.46,2.62Zm0,7.55,2.48-2.62,2.46,2.62-2.46,2.64Z"/><path class="cls-6" d="M685.53,682.54v-0.78a0.62,0.62,0,0,1,.73-0.68,0.92,0.92,0,0,1,.55.18,0.54,0.54,0,0,1,.25.46q0,2.46,3.65,2.46a8.13,8.13,0,0,0,4.88-1.56,4.9,4.9,0,0,0-.54-2.23,13.91,13.91,0,0,0-1.27-2.19,15.55,15.55,0,0,0-1.94-2.14,22.81,22.81,0,0,0-2.87-2.28l0.91-3.46a22.12,22.12,0,0,1,3.76,2.82,13.08,13.08,0,0,1,2.4,2.94,10.53,10.53,0,0,1,1.56,5.19,5.83,5.83,0,0,1-1.9,4.79,7.76,7.76,0,0,1-5.07,1.55q-3.05,0-4.08-1.08a3.68,3.68,0,0,1-.58-0.74,2.83,2.83,0,0,1-.3-1A13,13,0,0,1,685.53,682.54Z"/><path class="cls-6" d="M696.62,695.83a0.5,0.5,0,0,1,.17-0.3,25.09,25.09,0,0,0,4.44-2.24,13.6,13.6,0,0,0,2.93-2.44,6.93,6.93,0,0,0,2-4.2v-0.16a28.34,28.34,0,0,0-1.11-4.4l-1-3,2.38-2.18q1.45,4.31,1.83,5.85a1.18,1.18,0,0,0,.88.82,12.43,12.43,0,0,0,3.89.64v3.42a9.59,9.59,0,0,1-4.45-.88,6.23,6.23,0,0,1-.32,1.7,13.55,13.55,0,0,1-2.09,4.4,15.59,15.59,0,0,1-3.25,3.45,8,8,0,0,1-3.28,1.61,4.09,4.09,0,0,1-1.83-.75A2.05,2.05,0,0,1,696.62,695.83Z"/><path class="cls-6" d="M711.95,687.08a1.7,1.7,0,0,1-.48-1.19,1.73,1.73,0,0,1,.47-1.19,1.41,1.41,0,0,1,1.08-.52h0.8a11.09,11.09,0,0,0,3.87-.64,2,2,0,0,0,.94-0.59,1.45,1.45,0,0,0,.27-0.91,10.43,10.43,0,0,0-.33-2q-0.34-1.43-.92-3.26t-0.77-2.47l2.42-2.22a45.06,45.06,0,0,1,2,6.87,17.12,17.12,0,0,1,.17,2.49,6.71,6.71,0,0,1-.54,2.63v0.1l0,0.07,0,0.07a5.27,5.27,0,0,1-2.42,2.36,9.18,9.18,0,0,1-4.51.92H713A1.43,1.43,0,0,1,711.95,687.08Zm3.39,6,1.4-2a0.52,0.52,0,0,1,.39-0.26,0.48,0.48,0,0,1,.43.12l1.84,1.5a0.58,0.58,0,0,1,.13.88l-1.43,2a0.68,0.68,0,0,1-.4.23,0.47,0.47,0,0,1-.42-0.09l-1.81-1.5a0.58,0.58,0,0,1-.24-0.43A0.59,0.59,0,0,1,715.34,693.06Z"/><path class="cls-6" d="M721,695.83a0.5,0.5,0,0,1,.17-0.3,25.09,25.09,0,0,0,4.44-2.24,13.6,13.6,0,0,0,2.93-2.44,6.93,6.93,0,0,0,2-4.2v-0.16a28.34,28.34,0,0,0-1.11-4.4l-1-3,2.38-2.18a36.26,36.26,0,0,1,2.07,7.65,8,8,0,0,1,.09,1.14v0.4a7.93,7.93,0,0,1-.34,2.36,13.55,13.55,0,0,1-2.09,4.4,15.59,15.59,0,0,1-3.25,3.45,8,8,0,0,1-3.28,1.61,4.09,4.09,0,0,1-1.83-.75A2.05,2.05,0,0,1,721,695.83Z"/><path class="cls-6" d="M739.89,660.63v20.78a2.22,2.22,0,0,0,1.32,2.22,9.14,9.14,0,0,0,3.58.54v3.42h-1.47a5.11,5.11,0,0,1-4.36-1.82,7.57,7.57,0,0,1-1.25-4.32c0-.17,0-0.3,0-0.38l-0.65-18a2,2,0,0,1,.42-1.36,9.69,9.69,0,0,1,2.06-1.44A0.32,0.32,0,0,1,739.89,660.63Z"/><path class="cls-6" d="M743.68,687.08a1.67,1.67,0,0,1-.49-1.18,1.7,1.7,0,0,1,.49-1.19,1.47,1.47,0,0,1,1.09-.53h2.7a10.75,10.75,0,0,0,3.27-.57,3.58,3.58,0,0,0,2.13-1.27,0.64,0.64,0,0,0,.07-0.34q0-1.52-1.84-4.92a21.07,21.07,0,0,0-5.85-6.55l1.17-4.1,13.78-6.15L760,664l-11.66,5a25.32,25.32,0,0,1,4.93,6.19,11.82,11.82,0,0,1,1.65,5.47,6.53,6.53,0,0,1-.06.86q-0.45,3.44-2.3,4.79a9,9,0,0,1-5.34,1.35h-2.44A1.48,1.48,0,0,1,743.68,687.08Z"/></svg>