<svg id="Layer_7" data-name="Layer 7" xmlns="http://www.w3.org/2000/svg" viewBox="0 0 1280 800"><defs><style>.cls-1{fill:#449faa;}.cls-2{fill:#fff6e7;}.cls-3{fill:#fdba50;}.cls-4{fill:#feecd0;}</style></defs><title>intro2</title><rect class="cls-1" y="2" width="1280" height="796"/><path class="cls-2" d="M265.69,638.75l4-4,3.94,4-3.94,4Z"/><path class="cls-2" d="M278.8,633.33a19.24,19.24,0,0,1,1.73-7.73,26.62,26.62,0,0,1,4.6-7.16l2.79,2.33a18.55,18.55,0,0,0,0,25.07l-2.79,2.42Q278.8,640.66,278.8,633.33Zm10,7.81a20,20,0,0,1,0-15.53,32.33,32.33,0,0,1,4.33-6.75L295.6,621a23,23,0,0,0-3.44,5.65,17.55,17.55,0,0,0-1.17,6.71,18.55,18.55,0,0,0,4.6,12.35l-2.54,2.15A31.21,31.21,0,0,1,288.77,641.14Z"/><path class="cls-2" d="M301.47,638.11v-1.18a1,1,0,0,1,1.18-1,1.58,1.58,0,0,1,.89.27,0.81,0.81,0,0,1,.41.7q0,3.72,5.93,3.72a13.67,13.67,0,0,0,7.81-2.3,72.18,72.18,0,0,1-1.89-7.4q-1.14-5.22-1.77-7.77l3.88-2.27q0.64,2.91,1.44,6.86t1.11,5.31a29.61,29.61,0,0,0,.91,3.13,7.07,7.07,0,0,0,1.09,2.29,7.6,7.6,0,0,0,1.56,1.17,5.37,5.37,0,0,0,2.26.77q1.18,0.12,3.21.21v5.18a20.61,20.61,0,0,1-6.33-1,7.88,7.88,0,0,1-3.69-2.86q-2.79,3.88-9.66,3.88-5,0-6.63-1.63a5.6,5.6,0,0,1-.94-1.12,4.07,4.07,0,0,1-.48-1.45A18.37,18.37,0,0,1,301.47,638.11Z"/><path class="cls-2" d="M327.69,645a2.48,2.48,0,0,1-.79-1.8,2.53,2.53,0,0,1,.76-1.8,2.37,2.37,0,0,1,1.76-.79,43.49,43.49,0,0,0,6.57-.36,4.77,4.77,0,0,0,2.72-1.83,7.41,7.41,0,0,0,.79-3.89v-5.27h3.63v8.26a1.94,1.94,0,0,0,1.63,2.12,21.3,21.3,0,0,0,6.3,1v5.18a16.11,16.11,0,0,1-7.42-1.39,9,9,0,0,1-2.45-1.6,9.24,9.24,0,0,1-3.81,2.3,23.43,23.43,0,0,1-6.6.7h-1.36A2.4,2.4,0,0,1,327.69,645ZM335,614.1l2.33-3.06a1,1,0,0,1,.62-0.32,1.06,1.06,0,0,1,.71.17l2.94,2.27a0.86,0.86,0,0,1,.39.64,1,1,0,0,1-.18.76l-2.27,2.94a0.86,0.86,0,0,1-.64.39,0.82,0.82,0,0,1-.7-0.18l-3.06-2.27A0.9,0.9,0,0,1,335,614.1Z"/><path class="cls-2" d="M352.45,645.83l-1.45-.06a2.4,2.4,0,0,1-1.73-.79,2.45,2.45,0,0,1-.79-1.77,2.57,2.57,0,0,1,.74-1.79,2.41,2.41,0,0,1,1.74-.83,26.3,26.3,0,0,0,6.39-.48,6.19,6.19,0,0,0,2.91-1.63,10.59,10.59,0,0,0,2-3.54l1.63-4.81,3.57,0.67-1.82,5.9a17,17,0,0,1-1.24,3.18,10.89,10.89,0,0,0,5.63,1.76q4.27,0,5.45-4.42l1.91-6.87,3.6,0.61-1.91,7.14q3.48,3.27,6.36,3.54a6.23,6.23,0,0,0,2.89-1.1,6,6,0,0,0,2.22-1.89l-2.48-8.36,4.09-1.6,1.76,5.75a9.32,9.32,0,0,0,2.75,4.57,8.59,8.59,0,0,0,4.66,1.51q1.3,0.09,3.33.09v5.18h-1.39a23.09,23.09,0,0,1-5.8-.65,8.87,8.87,0,0,1-4.37-2.71,12,12,0,0,1-3.77,3.21,9.19,9.19,0,0,1-4,1.3,8.42,8.42,0,0,1-3.21-.7,10.81,10.81,0,0,1-2.45-1.39q-0.91-.73-2.36-2.06V642.2a9.38,9.38,0,0,1-3.51,3.27,9.58,9.58,0,0,1-4.54,1.12,12,12,0,0,1-7.9-3.09Q358.33,645.83,352.45,645.83Z"/><path class="cls-2" d="M401.62,653.79L403.8,651a0.83,0.83,0,0,1,.59-0.39,0.75,0.75,0,0,1,.65.18l2.85,2.12a0.79,0.79,0,0,1,.3.59,0.84,0.84,0,0,1-.21.65l-2.12,2.79a1.09,1.09,0,0,1-.61.35,0.74,0.74,0,0,1-.64-0.14L401.83,655a1.08,1.08,0,0,1-.35-0.61A0.74,0.74,0,0,1,401.62,653.79Zm1.21-8.81a2.48,2.48,0,0,1-.79-1.8,2.53,2.53,0,0,1,.76-1.8,2.37,2.37,0,0,1,1.76-.79h1.3a18.43,18.43,0,0,0,6.3-1,3.17,3.17,0,0,0,1.53-.92,2.26,2.26,0,0,0,.44-1.44,13.93,13.93,0,0,0-.54-3q-0.54-2.1-1.5-4.87t-1.26-3.74l3.94-3.36q1.09,2.94,1.62,4.5t1.18,4.34a21.67,21.67,0,0,1,.65,4.84q0,6.15-5,8.39a15.53,15.53,0,0,1-7.33,1.39h-1.36A2.4,2.4,0,0,1,402.83,645Zm7.11,8.81,2.12-2.79a0.83,0.83,0,0,1,.59-0.39,0.75,0.75,0,0,1,.65.18l2.85,2.12a0.79,0.79,0,0,1,.3.59,0.84,0.84,0,0,1-.21.65l-2.12,2.79a1.09,1.09,0,0,1-.61.35,0.74,0.74,0,0,1-.64-0.14L410.09,655a0.94,0.94,0,0,1-.32-0.61A0.82,0.82,0,0,1,409.94,653.79Z"/><path class="cls-2" d="M424.81,658.21a0.74,0.74,0,0,1,.27-0.45A32.82,32.82,0,0,0,435.66,652q3.68-3.24,4.5-6.27H435q-3.69,0-5.54-1.8a6,6,0,0,1-1.85-4.5,21.71,21.71,0,0,1,1.85-8.36,10.11,10.11,0,0,1,2.48-3.59,5.08,5.08,0,0,1,3.51-1.44,5.56,5.56,0,0,1,3.59,1.35,10,10,0,0,1,2.68,3.53,27.28,27.28,0,0,1,2.42,9.63h5v5.18h-5.06a18.42,18.42,0,0,1-2.18,5.54,23.79,23.79,0,0,1-7.95,8.28,11.88,11.88,0,0,1-4.19,1.74,6.94,6.94,0,0,1-3-1.14Q424.81,659.06,424.81,658.21Zm5.9-21.65a6.53,6.53,0,0,0-.12,1.29,2.65,2.65,0,0,0,.3,1.26,2.24,2.24,0,0,0,.71.85,3.24,3.24,0,0,0,1.11.42,10.78,10.78,0,0,0,2.33.21h5.12a18,18,0,0,0-2-6.58q-1.51-2.71-3.54-2.71a2.77,2.77,0,0,0-2.24,1.54A14.77,14.77,0,0,0,430.71,636.57Z"/><path class="cls-2" d="M447.36,645a2.48,2.48,0,0,1-.79-1.8,2.53,2.53,0,0,1,.76-1.8,2.37,2.37,0,0,1,1.76-.79h1.3a19.27,19.27,0,0,0,6.3-1,3.31,3.31,0,0,0,1.53-.89,2.09,2.09,0,0,0,.44-1.38,14.77,14.77,0,0,0-.54-3q-0.54-2.16-1.5-4.93t-1.26-3.74l3.94-3.36a64.52,64.52,0,0,1,3.18,10.38,24.23,24.23,0,0,1,.27,3.77,9.55,9.55,0,0,1-.88,4v0.15l-0.08.11-0.08.11a8.32,8.32,0,0,1-3.94,3.57,15.87,15.87,0,0,1-7.33,1.39h-1.36A2.4,2.4,0,0,1,447.36,645Zm4.42-36.36,2.33-3.06a1,1,0,0,1,.62-0.32,1.06,1.06,0,0,1,.71.17l2.94,2.27a0.86,0.86,0,0,1,.39.64,1,1,0,0,1-.18.76L456.32,612a0.86,0.86,0,0,1-.64.39,0.82,0.82,0,0,1-.7-0.18L451.93,610A0.9,0.9,0,0,1,451.78,608.63Z"/><path class="cls-2" d="M469.34,648.68q0-6.3,3.57-15.14l3.06,1.18q-3,6.93-3,11.79t2.47,7.25a9.23,9.23,0,0,0,6.71,2.39,24.3,24.3,0,0,0,16.17-7,1.28,1.28,0,0,0,.24-0.82,1.64,1.64,0,0,0-.67-1.12A7.78,7.78,0,0,0,496,646q-1.27-.59-2.44-1t-2.88-1q-1.71-.6-2.47-0.92T488,641.62a21.54,21.54,0,0,1,1.41-3.33,1.1,1.1,0,0,1,.92-0.54q0.18,0,3.06.89a53.33,53.33,0,0,0,5.58,1.42,34,34,0,0,0,6.43.53v5.18q-1.76,0-3.15-.09a2.62,2.62,0,0,1,.06.7,11.22,11.22,0,0,1-3,7.37,20.82,20.82,0,0,1-7.58,5.52,23.31,23.31,0,0,1-9.32,2.06q-7,0-10.44-4.09a10.5,10.5,0,0,1-1.92-3.62A16,16,0,0,1,469.34,648.68Z"/><path class="cls-2" d="M503.62,645a2.44,2.44,0,0,1-.8-1.79,2.49,2.49,0,0,1,.8-1.8,2.46,2.46,0,0,1,1.77-.8q4.75,0,6.57-1.42a12.62,12.62,0,0,0,1.27-1.09,8.13,8.13,0,0,0,1.14-1.56q0.62-1,1.07-1.89,1.54-3.06,2.75-5.24,1.75-3.21,4.51-3.21a6.14,6.14,0,0,1,4,1.7,12.59,12.59,0,0,1,3.24,4.48,13.86,13.86,0,0,1,1.26,5.75q0,4.48-2.57,6.57a5.16,5.16,0,0,1-3.33,1.09h-0.15a15.66,15.66,0,0,1-5.51-1.17,23.87,23.87,0,0,1-5-2.5,8,8,0,0,1-3.42,2.77,15.19,15.19,0,0,1-5.81.89A2.48,2.48,0,0,1,503.62,645Zm21.81-4.42a8.27,8.27,0,0,0,2.6-.36,12.12,12.12,0,0,0-2.82-5.65q-2.12-2.38-4-2.38a2,2,0,0,0-1.67.94q-0.54.91-1.33,2.41t-1,1.92A13.66,13.66,0,0,0,525.44,640.56Z"/><path class="cls-2" d="M548.08,634.42a9.27,9.27,0,0,1,2.39-6.05,11.59,11.59,0,0,1,2.21-2l3-2.07q1.62-1.12,3.07-2.18l-0.3-2.91,3.91-3.3q2.24,19.22,2.35,20l0.14,0.94a5.67,5.67,0,0,0,.17.68,2.63,2.63,0,0,0,.29.7l0.44,0.62a2,2,0,0,0,.64.59q0.35,0.2.89,0.45a4.84,4.84,0,0,0,1.21.38,16.73,16.73,0,0,0,3.51.33v5.18a15.58,15.58,0,0,1-7.6-1.59,6.53,6.53,0,0,1-3.42-4.71,14.24,14.24,0,0,1-5.12.82q-4.78,0-6.57-2.27A5.68,5.68,0,0,1,548.08,634.42Zm3.63-1.42q0,1.73,4.09,1.73a18.75,18.75,0,0,0,4.42-.48l-0.91-7.78a63.65,63.65,0,0,0-6.51,4.69A2.56,2.56,0,0,0,551.71,633Z"/><path class="cls-2" d="M570.12,645a2.41,2.41,0,0,1-.76-1.76,2.53,2.53,0,0,1,.77-1.8,2.36,2.36,0,0,1,1.74-.8h3.57a26.53,26.53,0,0,0,11-2,40.13,40.13,0,0,0,3.69-1.92q1.48-.89,3.51-2.33t3.18-2.13q-1.15-.42-3.47-1.33t-3.59-1.36a18.47,18.47,0,0,0-5.93-1.27q-4.45,0-6.45,4.84l-2.18-1.45q1.6-4.69,3.71-6.66a7,7,0,0,1,4.92-2q2.91,0,8.51,2.21,2.36,0.91,4.93,1.82a43.75,43.75,0,0,0,5.74,1.56,32.27,32.27,0,0,0,6.19.68l-2.06,5.18h-2.06a11.64,11.64,0,0,0-2.75.3,8,8,0,0,0,3.16,4.48,11,11,0,0,0,6,1.39h2.12v5.18H611.5q-5.45,0-8.46-2.59A14.51,14.51,0,0,1,598.7,636a25.73,25.73,0,0,0-3.42,2.18q-1.94,1.42-3.65,2.62a37.15,37.15,0,0,1-4,2.38,25.15,25.15,0,0,1-12,2.6h-3.78A2.65,2.65,0,0,1,570.12,645Zm8.11,8.87,2.18-2.79a0.83,0.83,0,0,1,.59-0.39,0.75,0.75,0,0,1,.65.18l2.85,2.12a0.79,0.79,0,0,1,.3.59,0.84,0.84,0,0,1-.21.65L582.47,657a1.09,1.09,0,0,1-.61.35,0.74,0.74,0,0,1-.64-0.14l-2.79-2.12a1.09,1.09,0,0,1-.35-0.61A0.74,0.74,0,0,1,578.23,653.82Zm4.51,7.27,2-2.57a0.79,0.79,0,0,1,1.18-.21l2.54,2a0.93,0.93,0,0,1,.35.54,0.69,0.69,0,0,1-.14.61l-2,2.63a1.09,1.09,0,0,1-.61.35,0.74,0.74,0,0,1-.64-0.14l-2.54-2a0.87,0.87,0,0,1-.33-0.56A0.67,0.67,0,0,1,582.74,661.09Zm3.81-7.27,2.12-2.79a0.83,0.83,0,0,1,.59-0.39,0.75,0.75,0,0,1,.65.18l2.85,2.12a0.79,0.79,0,0,1,.3.59,0.84,0.84,0,0,1-.21.65L590.74,657a1.09,1.09,0,0,1-.61.35,0.74,0.74,0,0,1-.64-0.14l-2.79-2.12a1,1,0,0,1-.32-0.61A0.83,0.83,0,0,1,586.56,653.82Z"/><path class="cls-2" d="M611.84,645a2.48,2.48,0,0,1-.79-1.8,2.53,2.53,0,0,1,.76-1.8,2.37,2.37,0,0,1,1.76-.79h1.3a19.27,19.27,0,0,0,6.3-1,3.31,3.31,0,0,0,1.53-.89,2.09,2.09,0,0,0,.44-1.38,14.77,14.77,0,0,0-.54-3q-0.54-2.16-1.5-4.93t-1.26-3.74l3.94-3.36a64.52,64.52,0,0,1,3.18,10.38,24.23,24.23,0,0,1,.27,3.77,9.55,9.55,0,0,1-.88,4v0.15l-0.08.11-0.08.11a8.32,8.32,0,0,1-3.94,3.57,15.87,15.87,0,0,1-7.33,1.39h-1.36A2.4,2.4,0,0,1,611.84,645Zm4.42-36.36,2.33-3.06a1,1,0,0,1,.62-0.32,1.06,1.06,0,0,1,.71.17l2.94,2.27a0.86,0.86,0,0,1,.39.64,1,1,0,0,1-.18.76L620.8,612a0.86,0.86,0,0,1-.64.39,0.82,0.82,0,0,1-.7-0.18L616.41,610A0.9,0.9,0,0,1,616.26,608.63Z"/><path class="cls-2" d="M633.06,593.22l6.51,0.58a6.68,6.68,0,0,0,6.36-4.15l0.36,2.6q-0.88,3.66-2.83,5a8.27,8.27,0,0,1-4.74,1.32L631.6,598q-3.87,0-4.87,2.85l-1.39-1.6a9.63,9.63,0,0,1,3.25-4.68A7.79,7.79,0,0,1,633.06,593.22ZM638.93,605v40.78a5.21,5.21,0,0,1-2.63,1.3,0.65,0.65,0,0,1-.67-0.79l-1.85-37.15a3.4,3.4,0,0,1,.29-1.63,5.3,5.3,0,0,1,.48-0.71,5.12,5.12,0,0,1,.86-0.68q0.85-.57,2.85-1.67A0.54,0.54,0,0,1,638.93,605Z"/><path class="cls-2" d="M655.85,658.21a0.74,0.74,0,0,1,.27-0.45q8.84-3.21,12.9-8.05a9.72,9.72,0,0,0,2.33-4.87v-0.15a12.42,12.42,0,0,1-5.27,1.09,7.54,7.54,0,0,1-5.5-1.8,6,6,0,0,1-1.83-4.5,20.36,20.36,0,0,1,1.18-6.66q1.36-4.12,3.69-5.75a4.79,4.79,0,0,1,2.88-1,5.69,5.69,0,0,1,3.92,1.62,11.59,11.59,0,0,1,2.83,4.16,28.47,28.47,0,0,1,2.18,11,15.58,15.58,0,0,1-1.47,6.42,22,22,0,0,1-3.66,5.72,25.4,25.4,0,0,1-4.74,4.16,12.7,12.7,0,0,1-4.75,2.1,6.94,6.94,0,0,1-3-1.14Q655.85,659.06,655.85,658.21Zm5.9-21.65a6.53,6.53,0,0,0-.12,1.29,2.65,2.65,0,0,0,.3,1.26,2.24,2.24,0,0,0,.71.85,3.24,3.24,0,0,0,1.11.42,10.78,10.78,0,0,0,2.33.21h0.27a10.24,10.24,0,0,0,4.63-1.12,16.38,16.38,0,0,0-2-5.84q-1.44-2.33-3.28-2.33a2.77,2.77,0,0,0-2.24,1.54A14.77,14.77,0,0,0,661.76,636.57Z"/><path class="cls-2" d="M692.36,641.81q0-8.23,7.54-11.2a28.14,28.14,0,0,1,7.69-1.67q2-.15,4.3-0.21l1.76-1.15,1.06,5.39a18.3,18.3,0,0,0,1.91,4.86A5.32,5.32,0,0,0,719,640a10.66,10.66,0,0,0,3.92.58v5.18q-5.39,0-8.48-2.79a11.74,11.74,0,0,1-3.84,3.81,8.65,8.65,0,0,1-4.42,1.3,6.16,6.16,0,0,1-4.72-2.07,8.25,8.25,0,0,1-1.91-5.8,15.66,15.66,0,0,1,.58-4.18,12,12,0,0,0-3.94,2.42l0.88,26.73-3,1.24L692.36,642v-0.15Zm11.78-7.05a14.14,14.14,0,0,0-.61,3.94,4.17,4.17,0,0,0,.94,2.89,3.18,3.18,0,0,0,2.48,1,8.21,8.21,0,0,0,5.42-2.54l-1.51-6.21A34.82,34.82,0,0,0,704.14,634.75Z"/><path class="cls-2" d="M721.15,644.94a2.4,2.4,0,0,1-.79-1.76,2.52,2.52,0,0,1,.77-1.79,2.36,2.36,0,0,1,1.74-.8,17.36,17.36,0,0,0,8-1.7l-1.06-30.21a2.94,2.94,0,0,1,.67-2.06,15.23,15.23,0,0,1,3.33-2.18,0.53,0.53,0,0,1,.64.54v32.67a2.59,2.59,0,0,0,.39,1.26,2,2,0,0,0,1.24.71,21.4,21.4,0,0,0,6.33,1v5.18a16.19,16.19,0,0,1-7.45-1.39,9.43,9.43,0,0,1-2.39-1.51q-3.18,2.91-9.6,2.91A2.73,2.73,0,0,1,721.15,644.94Z"/><path class="cls-2" d="M742.34,640.59H748a17.4,17.4,0,0,0,8.14-1.76,16.82,16.82,0,0,0,.27-3.3v-1.09a12.72,12.72,0,0,1-5.12,1,7.57,7.57,0,0,1-5.52-1.83,6.06,6.06,0,0,1-1.86-4.5,21.83,21.83,0,0,1,1.85-8.42,9.73,9.73,0,0,1,2.44-3.57,5,5,0,0,1,3.41-1.42,5.66,5.66,0,0,1,3.34,1.06,8.73,8.73,0,0,1,2.51,2.82,20.19,20.19,0,0,1,1.74,4.09,34.69,34.69,0,0,1,1.33,10q0,1.48-.15,3.21a8,8,0,0,1-1.85,5.09q-3.27,3.85-10.54,3.84h-5.69a2.48,2.48,0,0,1-1.77-.79,2.44,2.44,0,0,1-.8-1.79,2.79,2.79,0,0,1,.83-1.8A2.36,2.36,0,0,1,742.34,640.59Zm-0.73-36.93,2.18-2.79a0.74,0.74,0,0,1,.59-0.36,0.84,0.84,0,0,1,.65.21l2.85,2.06a0.82,0.82,0,0,1,.3.62,0.89,0.89,0,0,1-.21.68l-2.12,2.79a1.09,1.09,0,0,1-.61.35,0.74,0.74,0,0,1-.64-0.14L741.83,605a1.1,1.1,0,0,1-.35-0.64A0.8,0.8,0,0,1,741.62,603.66Zm7.24,18.92a8.13,8.13,0,0,0-2,4.93,2.64,2.64,0,0,0,.32,1.3,2.52,2.52,0,0,0,.7.85,2.94,2.94,0,0,0,1.11.42,11.67,11.67,0,0,0,2.33.18h0.24a12.19,12.19,0,0,0,4.42-1,21.91,21.91,0,0,0-1.88-6Q752.91,621,751.5,621A3.43,3.43,0,0,0,748.85,622.58Zm1.09-18.92,2.12-2.79a0.74,0.74,0,0,1,.59-0.36,0.84,0.84,0,0,1,.65.21l2.85,2.06a0.82,0.82,0,0,1,.3.62,0.89,0.89,0,0,1-.21.68l-2.12,2.79a1.09,1.09,0,0,1-.61.35,0.74,0.74,0,0,1-.64-0.14L750.09,605a1,1,0,0,1-.32-0.64A0.88,0.88,0,0,1,749.94,603.66Z"/><path class="cls-2" d="M777.49,634.42a9.27,9.27,0,0,1,2.39-6.05,11.59,11.59,0,0,1,2.21-2l3-2.07q1.62-1.12,3.07-2.18l-0.3-2.91,3.91-3.3q2.24,19.22,2.35,20l0.14,0.94a5.67,5.67,0,0,0,.17.68,2.63,2.63,0,0,0,.29.7l0.44,0.62a2,2,0,0,0,.64.59q0.35,0.2.89,0.45a4.84,4.84,0,0,0,1.21.38,16.73,16.73,0,0,0,3.51.33v5.18a15.58,15.58,0,0,1-7.6-1.59,6.53,6.53,0,0,1-3.42-4.71,14.24,14.24,0,0,1-5.12.82q-4.78,0-6.57-2.27A5.68,5.68,0,0,1,777.49,634.42Zm3.63-1.42q0,1.73,4.09,1.73a18.75,18.75,0,0,0,4.42-.48l-0.91-7.78a63.65,63.65,0,0,0-6.51,4.69A2.56,2.56,0,0,0,781.13,633Z"/><path class="cls-2" d="M799.56,645a2.48,2.48,0,0,1-.79-1.8,2.53,2.53,0,0,1,.76-1.8,2.37,2.37,0,0,1,1.76-.79h1.3a19.27,19.27,0,0,0,6.3-1,3.31,3.31,0,0,0,1.53-.89,2.09,2.09,0,0,0,.44-1.38,14.77,14.77,0,0,0-.54-3q-0.54-2.16-1.5-4.93t-1.26-3.74l3.94-3.36a64.52,64.52,0,0,1,3.18,10.38,24.23,24.23,0,0,1,.27,3.77,9.55,9.55,0,0,1-.88,4v0.15l-0.08.11-0.08.11a8.32,8.32,0,0,1-3.94,3.57,15.87,15.87,0,0,1-7.33,1.39h-1.36A2.4,2.4,0,0,1,799.56,645Zm5.51,9.05,2.27-3a0.85,0.85,0,0,1,.64-0.39,0.82,0.82,0,0,1,.7.18l3,2.27a0.85,0.85,0,0,1,.21,1.33l-2.33,3.06a1.11,1.11,0,0,1-.65.35,0.82,0.82,0,0,1-.68-0.14l-2.94-2.27a0.87,0.87,0,0,1-.39-0.65A0.84,0.84,0,0,1,805.07,654Z"/><path class="cls-2" d="M831.86,638.11v-1.18a1,1,0,0,1,1.18-1,1.58,1.58,0,0,1,.89.27,0.81,0.81,0,0,1,.41.7q0,3.72,5.93,3.72a13.67,13.67,0,0,0,7.81-2.3,72.18,72.18,0,0,1-1.89-7.4q-1.14-5.22-1.77-7.77l3.88-2.27q0.64,2.91,1.44,6.86t1.11,5.31a29.61,29.61,0,0,0,.91,3.13,7.07,7.07,0,0,0,1.09,2.29,7.6,7.6,0,0,0,1.56,1.17,5.37,5.37,0,0,0,2.26.77q1.18,0.12,3.21.21v5.18a20.61,20.61,0,0,1-6.33-1,7.88,7.88,0,0,1-3.69-2.86q-2.79,3.88-9.66,3.88-5,0-6.63-1.63a5.6,5.6,0,0,1-.94-1.12,4.07,4.07,0,0,1-.48-1.45A18.37,18.37,0,0,1,831.86,638.11Z"/><path class="cls-2" d="M858.08,645a2.48,2.48,0,0,1-.79-1.8,2.53,2.53,0,0,1,.76-1.8,2.37,2.37,0,0,1,1.76-.79,43.49,43.49,0,0,0,6.57-.36,4.77,4.77,0,0,0,2.72-1.83,7.41,7.41,0,0,0,.79-3.89v-5.27h3.63v8.26a1.94,1.94,0,0,0,1.63,2.12,21.3,21.3,0,0,0,6.3,1v5.18a16.11,16.11,0,0,1-7.42-1.39,9,9,0,0,1-2.45-1.6,9.24,9.24,0,0,1-3.81,2.3,23.43,23.43,0,0,1-6.6.7h-1.36A2.4,2.4,0,0,1,858.08,645Zm7.36-30.88,2.33-3.06a1,1,0,0,1,.62-0.32,1.06,1.06,0,0,1,.71.17l2.94,2.27a0.86,0.86,0,0,1,.39.64,1,1,0,0,1-.18.76L870,617.5a0.86,0.86,0,0,1-.64.39,0.82,0.82,0,0,1-.7-0.18l-3.06-2.27A0.9,0.9,0,0,1,865.44,614.1Z"/><path class="cls-2" d="M879.68,645a2.44,2.44,0,0,1-.8-1.79,2.49,2.49,0,0,1,.8-1.8,2.46,2.46,0,0,1,1.77-.8h4.39a18.7,18.7,0,0,0,5.31-.86q2.89-.86,3.47-1.92a0.93,0.93,0,0,0,.12-0.51q0-2.3-3-7.45a30,30,0,0,0-4-5.19,31.27,31.27,0,0,0-5.53-4.71l1.91-6.21,22.4-9.29L906.18,610l-19,7.54a38.84,38.84,0,0,1,8,9.35,17,17,0,0,1,2.68,8.26,9.19,9.19,0,0,1-.09,1.3q-0.73,5.21-3.74,7.25t-8.67,2h-4A2.48,2.48,0,0,1,879.68,645Zm5.19-34.45,0.24-3.09,19.07-7.66v2.94Z"/><path class="cls-2" d="M913.15,658.21a0.74,0.74,0,0,1,.27-0.45A32.82,32.82,0,0,0,924,652q3.68-3.24,4.5-6.27h-5.12q-3.69,0-5.54-1.8a6,6,0,0,1-1.85-4.5,21.71,21.71,0,0,1,1.85-8.36,10.11,10.11,0,0,1,2.48-3.59,5.08,5.08,0,0,1,3.51-1.44,5.56,5.56,0,0,1,3.59,1.35A10,10,0,0,1,930.1,631a27.28,27.28,0,0,1,2.42,9.63h5v5.18h-5.06a18.42,18.42,0,0,1-2.18,5.54,23.79,23.79,0,0,1-7.95,8.28,11.88,11.88,0,0,1-4.19,1.74,6.94,6.94,0,0,1-3-1.14Q913.15,659.06,913.15,658.21Zm5.9-21.65a6.53,6.53,0,0,0-.12,1.29,2.65,2.65,0,0,0,.3,1.26,2.24,2.24,0,0,0,.71.85,3.24,3.24,0,0,0,1.11.42,10.78,10.78,0,0,0,2.33.21h5.12a18,18,0,0,0-2-6.58Q925,631.3,923,631.3a2.77,2.77,0,0,0-2.24,1.54A14.77,14.77,0,0,0,919.05,636.57Z"/><path class="cls-2" d="M938.88,645.83l-1.45-.06a2.4,2.4,0,0,1-1.73-.79,2.45,2.45,0,0,1-.79-1.77,2.57,2.57,0,0,1,.74-1.79,2.41,2.41,0,0,1,1.74-.83,26.3,26.3,0,0,0,6.39-.48,6.19,6.19,0,0,0,2.91-1.63,10.59,10.59,0,0,0,2-3.54l1.63-4.81,3.57,0.67-1.82,5.9a17,17,0,0,1-1.24,3.18,10.89,10.89,0,0,0,5.63,1.76q4.27,0,5.45-4.42l1.91-6.87,3.6,0.61-2,7.54q3.3,2.85,5.9,3.12a6.29,6.29,0,0,0,2.92-1.14,6.16,6.16,0,0,0,2.25-1.92q0-1.85-2.69-10l4-3.42q2.84,7.11,2.85,12.14a8.18,8.18,0,0,1-1,3.92,9.38,9.38,0,0,1-2.5,3,15.19,15.19,0,0,1-3.07,1.88,8.5,8.5,0,0,1-2.85.8,9.39,9.39,0,0,1-4.07-1.12,22.56,22.56,0,0,1-3.83-2.88,9.19,9.19,0,0,1-7.6,3.66,12.23,12.23,0,0,1-7.93-3.09Q944.75,645.83,938.88,645.83Z"/><path class="cls-2" d="M989,618.86Q995,626,995,633.33a18.18,18.18,0,0,1-1.51,7.6,32.27,32.27,0,0,1-4.42,6.9l-2.54-2.15a18.55,18.55,0,0,0,4.6-12.35,17.46,17.46,0,0,0-1.2-6.69A23.16,23.16,0,0,0,986.5,621Zm10.08,14.47a17.54,17.54,0,0,0-1.24-6.36,19.25,19.25,0,0,0-3.66-6.21l2.79-2.33a27.55,27.55,0,0,1,4.63,7.24,18,18,0,0,1,1.73,7.63q0,7.36-6.36,15l-2.79-2.33A19.15,19.15,0,0,0,999.12,633.33Z"/><path class="cls-3" d="M154.35,325.18l28-13.11,2.37,5.56-27.83,13Z"/><path class="cls-3" d="M135.35,405.58q0-13.3,7.55-32l6.46,2.49q-6.27,14.65-6.27,24.91t5.25,15.32q5.24,5.05,14.2,5.05a46,46,0,0,0,18.68-4.32,45.8,45.8,0,0,0,15.42-10.52,10,10,0,0,0,.19-2.43q0-8.25-7.1-29.55l8.32-7.1a136.52,136.52,0,0,1,4.86,17.37,78.65,78.65,0,0,1,2.11,15.9q0,8.19-6.33,15.58a44.42,44.42,0,0,1-16,11.67,48.66,48.66,0,0,1-19.57,4.35q-14.84,0-22.2-8.64a22.2,22.2,0,0,1-4.06-7.64A33.82,33.82,0,0,1,135.35,405.58Zm28.72-49.89,4.92-6.46a2,2,0,0,1,1.31-.67,2.23,2.23,0,0,1,1.5.35l6.21,4.8a1.82,1.82,0,0,1,.83,1.34,2.12,2.12,0,0,1-.38,1.6l-4.8,6.2a1.81,1.81,0,0,1-1.34.83,1.73,1.73,0,0,1-1.47-.38l-6.46-4.8A1.9,1.9,0,0,1,164.07,355.69Z"/><path class="cls-3" d="M219,425.73a1.57,1.57,0,0,1,.58-1q18.68-6.78,27.25-17,4.35-5.37,4.93-10.3v-0.32a26.25,26.25,0,0,1-11.13,2.3q-7.74,0-11.61-3.81a12.78,12.78,0,0,1-3.87-9.5,43,43,0,0,1,2.49-14.07q2.88-8.7,7.8-12.15a10.13,10.13,0,0,1,6.08-2,12,12,0,0,1,8.28,3.42,24.46,24.46,0,0,1,6,8.8,60.16,60.16,0,0,1,4.61,23.35,32.94,32.94,0,0,1-3.1,13.56,46.6,46.6,0,0,1-7.74,12.09,53.65,53.65,0,0,1-10,8.8,26.84,26.84,0,0,1-10,4.45q-2.11,0-6.3-2.4T219,425.73ZM231.42,380a13.83,13.83,0,0,0-.26,2.72,5.61,5.61,0,0,0,.64,2.65,4.73,4.73,0,0,0,1.5,1.79,6.84,6.84,0,0,0,2.33.9,22.79,22.79,0,0,0,4.92.45h0.58a21.64,21.64,0,0,0,9.79-2.37,34.63,34.63,0,0,0-4.32-12.35q-3-4.92-6.94-4.93-2.62,0-4.73,3.26A31.26,31.26,0,0,0,231.42,380Z"/><path class="cls-3" d="M280,323.42a10.21,10.21,0,0,1,2.81-7.29,9.36,9.36,0,0,1,7.1-3q7.16,0.83,8.32,9.4,0,9-9.4,13.11l-18.55,8.64-2.49-5.37,15.48-7.29A12.65,12.65,0,0,1,280,323.42Zm12.35,0a3.84,3.84,0,0,0-1-2.62,3.22,3.22,0,0,0-2.49-1.15,3.91,3.91,0,0,0-2.62,1,2.83,2.83,0,0,0-1.15,2.14,7.53,7.53,0,0,0,2.17,5.56l0.77,0.77v0.26a21.41,21.41,0,0,0,2.27-1.47,5.81,5.81,0,0,0,1.41-1.79A5.45,5.45,0,0,0,292.38,323.39Z"/><path class="cls-3" d="M266.86,425.73a1.57,1.57,0,0,1,.58-1,88.59,88.59,0,0,0,15.26-7.16,46,46,0,0,0,10.07-7.8q6.84-7.55,6.84-13.43v-0.51a85.27,85.27,0,0,0-3.81-14.07q-3-8.89-3.29-9.66l8.19-7q5,13.75,6.27,18.68a3.93,3.93,0,0,0,3,2.62,45.64,45.64,0,0,0,13.37,2v10.94q-9.53,0-15.29-2.81a18.67,18.67,0,0,1-1.09,5.44,42.06,42.06,0,0,1-7.2,14.07,51.53,51.53,0,0,1-11.16,11,28.2,28.2,0,0,1-11.26,5.15q-2.11,0-6.3-2.4T266.86,425.73Z"/><path class="cls-3" d="M363.51,304.55a10.21,10.21,0,0,1,2.81-7.29,9.36,9.36,0,0,1,7.1-3q7.16,0.83,8.32,9.4,0,9-9.4,13.11l-18.55,8.64-2.49-5.37,15.48-7.29A12.65,12.65,0,0,1,363.51,304.55Zm12.35,0a3.84,3.84,0,0,0-1-2.62,3.22,3.22,0,0,0-2.49-1.15,3.91,3.91,0,0,0-2.62,1,2.83,2.83,0,0,0-1.15,2.14,7.53,7.53,0,0,0,2.17,5.56l0.77,0.77v0.26a21.41,21.41,0,0,0,2.27-1.47,5.81,5.81,0,0,0,1.41-1.79A5.45,5.45,0,0,0,375.86,304.52Z"/><path class="cls-3" d="M420.63,399.44a40,40,0,0,1-12.25-1.5,26.87,26.87,0,0,1-8.67-5q-5.82,6.46-21.17,6.46H323.28a5.7,5.7,0,0,1-5.44-5.44,6,6,0,0,1,1.7-3.81,4.8,4.8,0,0,1,3.61-1.69h6.78a15.07,15.07,0,0,0,5-.86q2.46-.86,2.53-2.4l-2.62-62.62q0-1.41,3-5.34a19.79,19.79,0,0,1,5.08-5.15,2.3,2.3,0,0,1,1.15.38,1,1,0,0,1,.64.77v65.31q4.54-5.37,8.48-9.43t8.73-8.22q10.11-8.57,18.68-8.57A22.74,22.74,0,0,1,391,354.73a20.38,20.38,0,0,1,7.42,6.14,27.3,27.3,0,0,1,5.63,16.31V380a11,11,0,0,0-.13,2q0,3.71,3.39,4.48a45.43,45.43,0,0,0,13.3,2v10.94Zm-42.22-10.94q12.28,0,17.46-4.35v-1.22a21.82,21.82,0,0,0-4-12.92,14.49,14.49,0,0,0-5.34-4.45,16.6,16.6,0,0,0-7.58-1.7q-12.86,0-34.92,24.63h34.41Z"/><path class="cls-3" d="M483.86,316.8a9.12,9.12,0,0,1,2.53,6.59,9.23,9.23,0,0,1-2.53,6.62,8.49,8.49,0,0,1-6.43,2.65,8,8,0,0,1-8.19-5.69,7,7,0,0,1-.77-3.58,9.48,9.48,0,0,1,2.43-6.43,8.12,8.12,0,0,1,6.43-2.78A8.66,8.66,0,0,1,483.86,316.8Zm-2.53,6.68a4,4,0,0,0-4-4.06,4,4,0,0,0-2.91,1.22,3.88,3.88,0,0,0-1.25,2.88,3.77,3.77,0,0,0,1.18,2.81,4.05,4.05,0,0,0,2.94,1.15,3.94,3.94,0,0,0,2.91-1.15A3.87,3.87,0,0,0,481.33,323.49Z"/><path class="cls-3" d="M423.57,399.57l-3.07-.13a5.07,5.07,0,0,1-3.65-1.66,5.17,5.17,0,0,1-1.66-3.74,5.44,5.44,0,0,1,1.57-3.77,5.09,5.09,0,0,1,3.68-1.76q10.23,0,13.5-1a13.08,13.08,0,0,0,6.14-3.45,22.38,22.38,0,0,0,4.16-7.48l3.45-10.17,7.55,1.41-3.84,12.47a35.89,35.89,0,0,1-2.62,6.72,23,23,0,0,0,11.9,3.71q9,0,11.51-9.34l4-14.52,7.61,1.28-4,15.1q7.35,6.91,13.43,7.48,2.24,0,6.11-2.33t4.7-4l-5.25-17.65,8.64-3.39,3.71,12.15q2,6.46,5.82,9.66,3.26,2.62,9.85,3.2,2.75,0.19,7,.19v10.94h-2.94a48.8,48.8,0,0,1-12.25-1.37,18.75,18.75,0,0,1-9.24-5.73,25.3,25.3,0,0,1-8,6.78,19.42,19.42,0,0,1-8.41,2.75,17.79,17.79,0,0,1-6.78-1.47,22.83,22.83,0,0,1-5.18-2.94q-1.92-1.54-5-4.35V391.9a19.8,19.8,0,0,1-7.42,6.91,20.24,20.24,0,0,1-9.59,2.37q-9,0-16.7-6.52Q436,399.57,423.57,399.57Z"/><path class="cls-3" d="M533.79,318.08l28-13.11,2.37,5.56-27.83,13Z"/><path class="cls-3" d="M530,397.78a5.24,5.24,0,0,1-1.66-3.81,5.34,5.34,0,0,1,1.6-3.81,5,5,0,0,1,3.71-1.66h2.75a38.94,38.94,0,0,0,13.3-2,6.69,6.69,0,0,0,3.23-2,4.78,4.78,0,0,0,.93-3,29.43,29.43,0,0,0-1.15-6.3q-1.15-4.45-3.17-10.3T546.9,357l8.31-7.1q2.3,6.21,3.42,9.5t2.49,9.18a45.86,45.86,0,0,1,1.38,10.23q0,13-10.49,17.72-5.37,2.94-15.48,2.94h-2.88A5.07,5.07,0,0,1,530,397.78Zm1.47,18.61,4.61-5.88a1.75,1.75,0,0,1,1.25-.83,1.59,1.59,0,0,1,1.38.38l6,4.48a1.67,1.67,0,0,1,.64,1.25,1.78,1.78,0,0,1-.45,1.38L540.44,423a2.3,2.3,0,0,1-1.28.74,1.57,1.57,0,0,1-1.34-.29L531.93,419a2.3,2.3,0,0,1-.74-1.28A1.57,1.57,0,0,1,531.48,416.39Zm17.59,0,4.48-5.88a1.74,1.74,0,0,1,1.25-.83,1.59,1.59,0,0,1,1.38.38l6,4.48a1.67,1.67,0,0,1,.64,1.25,1.78,1.78,0,0,1-.45,1.38L557.9,423a2.3,2.3,0,0,1-1.28.74,1.57,1.57,0,0,1-1.34-.29L549.39,419a2,2,0,0,1-.67-1.28A1.75,1.75,0,0,1,549.07,416.39Z"/><path class="cls-3" d="M608,313.28v66.4a7.06,7.06,0,0,0,4.54,7.1q4.16,1.73,12.28,1.73v10.94h-5.05q-10.24,0-15-5.82-3.9-4.8-4.29-13.82-0.06-.83-0.06-1.22l-2.24-57.5a6.12,6.12,0,0,1,1.44-4.35q1.44-1.54,7.07-4.61A1.08,1.08,0,0,1,608,313.28Z"/><path class="cls-3" d="M637.73,325.18l28-13.11,2.37,5.56-27.83,13Z"/><path class="cls-3" d="M621,397.78a5.16,5.16,0,0,1-1.7-3.77,5.27,5.27,0,0,1,1.7-3.81,5.2,5.2,0,0,1,3.74-1.69q10,0,13.88-3a26.51,26.51,0,0,0,2.69-2.3,17.2,17.2,0,0,0,2.4-3.29q1.31-2.21,2.27-4,3.26-6.46,5.82-11.07,3.71-6.78,9.53-6.78,4.22,0,8.41,3.58a26.61,26.61,0,0,1,6.84,9.47,29.28,29.28,0,0,1,2.65,12.15q0,9.47-5.44,13.88a10.91,10.91,0,0,1-7,2.3h-0.32A33.08,33.08,0,0,1,654.81,397a50.38,50.38,0,0,1-10.55-5.28,16.82,16.82,0,0,1-7.23,5.85q-4.41,1.89-12.28,1.89A5.24,5.24,0,0,1,621,397.78Zm46.09-9.34a17.48,17.48,0,0,0,5.5-.77,25.61,25.61,0,0,0-5.95-11.93q-4.48-5-8.38-5a4.18,4.18,0,0,0-3.52,2q-1.15,1.92-2.81,5.08t-2.18,4.06Q658.52,388.44,667.09,388.44Z"/><path class="cls-3" d="M695,333.5l28-13.11,2.37,5.56-27.83,13Z"/><path class="cls-3" d="M693.12,425.73a1.57,1.57,0,0,1,.58-1q18.68-6.78,27.25-17,4.35-5.37,4.93-10.3v-0.32a26.25,26.25,0,0,1-11.13,2.3q-7.74,0-11.61-3.81a12.78,12.78,0,0,1-3.87-9.5,43,43,0,0,1,2.49-14.07q2.88-8.7,7.8-12.15a10.13,10.13,0,0,1,6.08-2,12,12,0,0,1,8.28,3.42,24.46,24.46,0,0,1,6,8.8,60.16,60.16,0,0,1,4.61,23.35,32.94,32.94,0,0,1-3.1,13.56,46.6,46.6,0,0,1-7.74,12.09,53.65,53.65,0,0,1-10,8.8,26.84,26.84,0,0,1-10,4.45q-2.11,0-6.3-2.4T693.12,425.73ZM705.6,380a13.83,13.83,0,0,0-.26,2.72,5.61,5.61,0,0,0,.64,2.65,4.73,4.73,0,0,0,1.5,1.79,6.84,6.84,0,0,0,2.33.9,22.79,22.79,0,0,0,4.92.45h0.58a21.64,21.64,0,0,0,9.79-2.37,34.63,34.63,0,0,0-4.32-12.35q-3-4.92-6.94-4.93-2.62,0-4.73,3.26A31.26,31.26,0,0,0,705.6,380Z"/><path class="cls-3" d="M791.69,440.45l28-13L822,433l-27.83,13Z"/><path class="cls-3" d="M770.26,391.06q0-17.4,15.93-23.67a59.46,59.46,0,0,1,16.25-3.52q4.16-.32,9.08-0.45l3.71-2.43,2.24,11.39a38.68,38.68,0,0,0,4,10.27,11.26,11.26,0,0,0,5.15,4.64,22.55,22.55,0,0,0,8.28,1.22v10.94q-11.39,0-17.91-5.88a24.81,24.81,0,0,1-8.12,8.06,18.28,18.28,0,0,1-9.34,2.75,13,13,0,0,1-10-4.38q-4-4.38-4-12.25a33.11,33.11,0,0,1,1.21-8.83,25.36,25.36,0,0,0-8.31,5.12l1.85,56.48-6.4,2.62-3.65-51.75v-0.32Zm24.88-14.9a29.9,29.9,0,0,0-1.28,8.32,8.8,8.8,0,0,0,2,6.11,6.71,6.71,0,0,0,5.24,2.21q5.57,0,11.45-5.37l-3.2-13.11A73.57,73.57,0,0,0,795.15,376.16Z"/><path class="cls-3" d="M836.08,292.11L864,279l2.37,5.56-27.83,13Z"/><path class="cls-3" d="M831.09,397.69a5.07,5.07,0,0,1-1.66-3.71,5.33,5.33,0,0,1,1.63-3.77,5,5,0,0,1,3.68-1.69,36.68,36.68,0,0,0,16.82-3.58l-2.24-63.84a6.21,6.21,0,0,1,1.41-4.35q1.41-1.54,7-4.61a1.11,1.11,0,0,1,1.34,1.15v69a5.49,5.49,0,0,0,.83,2.65,4.12,4.12,0,0,0,2.62,1.5,45.21,45.21,0,0,0,13.37,2v10.94q-10.17,0-15.74-2.94a19.92,19.92,0,0,1-5.05-3.2q-6.72,6.14-20.28,6.14A5.78,5.78,0,0,1,831.09,397.69Z"/><path class="cls-3" d="M884.19,295.56l28-13.11L914.5,288l-27.83,13Z"/><path class="cls-3" d="M885.72,375.46a16.92,16.92,0,0,1-.26-3.58,24.68,24.68,0,0,1,1.34-6.88,43.91,43.91,0,0,1,3.61-8.38,21.69,21.69,0,0,1,5.92-6.81,12.23,12.23,0,0,1,7.42-2.75,11.14,11.14,0,0,1,7,2.53,20.77,20.77,0,0,1,5.28,6.11,40.67,40.67,0,0,1,3.26,7.2,19.84,19.84,0,0,1,1.22,6.11q0,9.47-7.74,17.21a57.17,57.17,0,0,0,16.5,2.3h3.77v10.94h-3.39a57.68,57.68,0,0,1-26.74-6.14q-11.64,6.14-27.06,6.14a5.91,5.91,0,0,1-3.71-1.76A4.77,4.77,0,0,1,870.5,394a5.65,5.65,0,0,1,1.6-3.74,5,5,0,0,1,3.58-1.73,63.49,63.49,0,0,0,17.14-2.3Q887.19,380.83,885.72,375.46Zm-0.13-50.21,4.61-5.88a1.56,1.56,0,0,1,1.25-.77,1.78,1.78,0,0,1,1.38.45l6,4.35a1.74,1.74,0,0,1,.64,1.31,1.87,1.87,0,0,1-.45,1.44L894.55,332a2.29,2.29,0,0,1-1.28.74,1.56,1.56,0,0,1-1.34-.29L886,328a2.33,2.33,0,0,1-.74-1.34A1.67,1.67,0,0,1,885.59,325.24ZM914,371.62q0-3.45-3.9-8.51t-7-5.05q-3.1,0-7,4.93t-4,8.83q3.39,5.95,11,10.3a33.85,33.85,0,0,0,7.93-5.6Q914,373.54,914,371.62Zm-10.81-46.37,4.48-5.88a1.56,1.56,0,0,1,1.25-.77,1.78,1.78,0,0,1,1.38.45l6,4.35a1.74,1.74,0,0,1,.64,1.31,1.87,1.87,0,0,1-.45,1.44L912,332a2.29,2.29,0,0,1-1.28.74,1.56,1.56,0,0,1-1.34-.29L903.5,328a2,2,0,0,1-.67-1.34A1.86,1.86,0,0,1,903.18,325.24Z"/><path class="cls-3" d="M944.28,281.24a9.12,9.12,0,0,1,2.53,6.59,9.23,9.23,0,0,1-2.53,6.62,8.49,8.49,0,0,1-6.43,2.65,8,8,0,0,1-8.19-5.69,7,7,0,0,1-.77-3.58,9.48,9.48,0,0,1,2.43-6.43,8.12,8.12,0,0,1,6.43-2.78A8.66,8.66,0,0,1,944.28,281.24Zm-2.53,6.68a4,4,0,0,0-4-4.06,4,4,0,0,0-2.91,1.22,3.88,3.88,0,0,0-1.25,2.88,3.77,3.77,0,0,0,1.18,2.81,4.05,4.05,0,0,0,2.94,1.15,3.94,3.94,0,0,0,2.91-1.15A3.87,3.87,0,0,0,941.75,287.92Z"/><path class="cls-3" d="M929.28,397.69a5,5,0,0,1-1.66-3.68,5.35,5.35,0,0,1,1.6-3.74,5.13,5.13,0,0,1,3.65-1.76q11.19,0,19.19-4.8l-4.8-63a5.34,5.34,0,0,1,1.44-3.9,44,44,0,0,1,6.75-4.8,1.1,1.1,0,0,1,1.28,1.22L959.09,380a18,18,0,0,1-1.47,7.36,16,16,0,0,1-3.93,5.53,22.77,22.77,0,0,1-5.85,3.74,36.38,36.38,0,0,1-14.78,2.81A5.78,5.78,0,0,1,929.28,397.69Z"/><path class="cls-3" d="M983.91,313.28v86.16q-3.65,2.75-5.57,2.75-1.41,0-1.41-1.66L973,322a7.17,7.17,0,0,1,.61-3.45,11,11,0,0,1,1-1.5,10.74,10.74,0,0,1,1.82-1.44q1.79-1.21,6-3.52A1.14,1.14,0,0,1,983.91,313.28Z"/><path class="cls-3" d="M999.71,333.5l28-13.11,2.37,5.56-27.83,13Z"/><path class="cls-3" d="M997.85,425.73a1.57,1.57,0,0,1,.58-1q18.68-6.78,27.25-17,4.35-5.37,4.93-10.3v-0.32a26.25,26.25,0,0,1-11.13,2.3q-7.74,0-11.61-3.81a12.78,12.78,0,0,1-3.87-9.5,43,43,0,0,1,2.49-14.07q2.88-8.7,7.8-12.15a10.13,10.13,0,0,1,6.08-2,12,12,0,0,1,8.28,3.42,24.46,24.46,0,0,1,6,8.8,60.16,60.16,0,0,1,4.61,23.35,32.94,32.94,0,0,1-3.1,13.56,46.6,46.6,0,0,1-7.74,12.09,53.65,53.65,0,0,1-10,8.8,26.84,26.84,0,0,1-10,4.45q-2.11,0-6.3-2.4T997.85,425.73ZM1010.32,380a13.83,13.83,0,0,0-.26,2.72,5.61,5.61,0,0,0,.64,2.65,4.73,4.73,0,0,0,1.5,1.79,6.84,6.84,0,0,0,2.33.9,22.79,22.79,0,0,0,4.92.45H1020a21.64,21.64,0,0,0,9.79-2.37,34.63,34.63,0,0,0-4.32-12.35q-3-4.92-6.94-4.93-2.62,0-4.73,3.26A31.26,31.26,0,0,0,1010.32,380Z"/><path class="cls-3" d="M1075,405.58q0-13.3,7.55-32l6.46,2.49q-6.27,14.65-6.27,24.91t5.25,15.32q5.24,5.05,14.2,5.05a51.18,51.18,0,0,0,34.09-14.84,10,10,0,0,0,.19-2.43q0-8.25-7.1-29.55l8.32-7.1a136.52,136.52,0,0,1,4.86,17.37,78.65,78.65,0,0,1,2.11,15.9q0,8.19-6.33,15.58a44.42,44.42,0,0,1-16,11.67,48.66,48.66,0,0,1-19.57,4.35q-14.84,0-22.2-8.64a22.2,22.2,0,0,1-4.06-7.64A33.82,33.82,0,0,1,1075,405.58Zm28.72-49.89,4.92-6.46a2,2,0,0,1,1.31-.67,2.23,2.23,0,0,1,1.5.35l6.21,4.8a1.82,1.82,0,0,1,.83,1.34,2.12,2.12,0,0,1-.38,1.6l-4.8,6.2a1.81,1.81,0,0,1-1.34.83,1.73,1.73,0,0,1-1.47-.38l-6.46-4.8A1.9,1.9,0,0,1,1103.71,355.69Z"/><path class="cls-4" d="M348,183.86L363,176.92l1.26,2.94-14.87,6.94Z"/><path class="cls-4" d="M336.57,157.47q0-9.3,8.51-12.65a31.77,31.77,0,0,1,8.68-1.88q2.22-.17,4.85-0.24l2-1.3,1.2,6.08a20.64,20.64,0,0,0,2.15,5.49,6,6,0,0,0,2.75,2.48,12,12,0,0,0,4.43.65V162q-6.08,0-9.57-3.14a13.25,13.25,0,0,1-4.34,4.31,9.76,9.76,0,0,1-5,1.47,7,7,0,0,1-5.33-2.34,9.31,9.31,0,0,1-2.15-6.55,17.67,17.67,0,0,1,.65-4.72,13.55,13.55,0,0,0-4.44,2.73l1,30.18-3.42,1.4-1.95-27.65v-0.17Zm13.3-8a16,16,0,0,0-.68,4.44,4.71,4.71,0,0,0,1.06,3.26,3.59,3.59,0,0,0,2.8,1.18q3,0,6.12-2.87l-1.71-7A39.3,39.3,0,0,0,349.87,149.51Z"/><path class="cls-4" d="M369.07,161.06a2.8,2.8,0,0,1-.89-2,2.85,2.85,0,0,1,.85-2,2.67,2.67,0,0,1,2-.89,49.09,49.09,0,0,0,7.42-.41,5.38,5.38,0,0,0,3.08-2.07,8.37,8.37,0,0,0,.89-4.39v-5.95h4.1v9.33a2.19,2.19,0,0,0,1.85,2.39,24,24,0,0,0,7.11,1.09V162q-5.4,0-8.37-1.57a10.18,10.18,0,0,1-2.77-1.81,10.43,10.43,0,0,1-4.31,2.6,26.45,26.45,0,0,1-7.45.79H371A2.71,2.71,0,0,1,369.07,161.06Zm0.79,10.12,2.46-3.14a0.93,0.93,0,0,1,.67-0.44,0.85,0.85,0,0,1,.74.21l3.21,2.39a0.89,0.89,0,0,1,.34.67,1,1,0,0,1-.24.73l-2.39,3.14a1.23,1.23,0,0,1-.68.39,0.84,0.84,0,0,1-.72-0.15l-3.14-2.39a1.23,1.23,0,0,1-.39-0.68A0.84,0.84,0,0,1,369.86,171.18Zm9.4,0,2.39-3.14a0.93,0.93,0,0,1,.67-0.44,0.85,0.85,0,0,1,.73.21l3.21,2.39a0.89,0.89,0,0,1,.34.67,1,1,0,0,1-.24.73L384,174.73a1.23,1.23,0,0,1-.68.39,0.84,0.84,0,0,1-.72-0.15l-3.14-2.39a1.07,1.07,0,0,1-.36-0.68A0.94,0.94,0,0,1,379.26,171.18Z"/><path class="cls-4" d="M402.47,178.73l14.94-6.94,1.26,2.94-14.87,6.94Z"/><path class="cls-4" d="M393.41,161a2.72,2.72,0,0,1-.85-2,2.86,2.86,0,0,1,.87-2,2.67,2.67,0,0,1,2-.91h4a30,30,0,0,0,12.44-2.29,45.31,45.31,0,0,0,4.17-2.17q1.67-1,4-2.63t3.59-2.41q-1.3-.48-3.91-1.5t-4.05-1.54a20.85,20.85,0,0,0-6.7-1.44q-5,0-7.28,5.47L399.19,146q1.81-5.3,4.19-7.52a7.88,7.88,0,0,1,5.55-2.22q3.28,0,9.6,2.5,2.67,1,5.57,2.05a49.42,49.42,0,0,0,6.48,1.76,36.4,36.4,0,0,0,7,.77l-2.32,5.84h-2.32a16,16,0,0,0-8.72,2.56q-1.78,1.13-3.55,2.5t-3.83,2.73a35.69,35.69,0,0,1-4.41,2.5A29.1,29.1,0,0,1,399.67,162h-4.27A3,3,0,0,1,393.41,161Z"/><path class="cls-4" d="M431.32,116.83l14.94-7,1.26,3-14.87,7Zm8.82,6.53-0.07-.44h2.46V124a9.36,9.36,0,0,0,.65,3.86,1.91,1.91,0,0,0,1.57,1.4q0.92,0,1.64-1.5a10.07,10.07,0,0,0,.72-4.24V123l2.7-.24v1.3a10.78,10.78,0,0,1-1.54,6.27,4.51,4.51,0,0,1-3.76,2.17,4.16,4.16,0,0,1-3.62-2.26,5.53,5.53,0,0,1-2,1.71,6.24,6.24,0,0,1-2.92.68,3.59,3.59,0,0,1-2.82-1.45,7.05,7.05,0,0,1-1.21-4.56,33.11,33.11,0,0,1,.31-3.86l2.67,0.24a16.2,16.2,0,0,0-.27,3,4.73,4.73,0,0,0,.63,2.53,1.82,1.82,0,0,0,1.56,1,2.9,2.9,0,0,0,2.29-1.71A8.41,8.41,0,0,0,440.13,123.36Z"/><path class="cls-4" d="M430.15,176a0.84,0.84,0,0,1,.31-0.51,47.37,47.37,0,0,0,8.15-3.83,24.58,24.58,0,0,0,5.38-4.17q3.66-4,3.66-7.18V160a45.59,45.59,0,0,0-2-7.52l-1.76-5.16,4.38-3.73q2.67,7.35,3.35,10a2.1,2.1,0,0,0,1.61,1.4,24.39,24.39,0,0,0,7.14,1.09V162a18.74,18.74,0,0,1-8.17-1.5,10,10,0,0,1-.58,2.91,22.48,22.48,0,0,1-3.85,7.52,27.51,27.51,0,0,1-6,5.9,15.06,15.06,0,0,1-6,2.75,7.84,7.84,0,0,1-3.37-1.28Q430.15,177,430.15,176Z"/><path class="cls-4" d="M458.28,161a2.69,2.69,0,0,1-.89-2,2.86,2.86,0,0,1,.85-2,2.74,2.74,0,0,1,1.95-.94,19.57,19.57,0,0,0,10.25-2.56l-2.56-33.67a2.85,2.85,0,0,1,.77-2.08,23.44,23.44,0,0,1,3.61-2.56,0.59,0.59,0,0,1,.68.65l1.26,35.68a9.62,9.62,0,0,1-.79,3.93,8.56,8.56,0,0,1-2.1,3,12.19,12.19,0,0,1-3.13,2,19.44,19.44,0,0,1-7.9,1.5A3.09,3.09,0,0,1,458.28,161Z"/><path class="cls-4" d="M487.47,115.91v46a5.88,5.88,0,0,1-3,1.47,0.73,0.73,0,0,1-.75-0.89l-2.08-41.94a3.83,3.83,0,0,1,.32-1.85,5.89,5.89,0,0,1,.55-0.8,5.75,5.75,0,0,1,1-.77q1-.65,3.21-1.88A0.61,0.61,0,0,1,487.47,115.91Z"/><path class="cls-4" d="M516.15,197.16l14.94-6.94,1.26,2.94-14.87,6.94Z"/><path class="cls-4" d="M506.58,165.23q0-7.11,4-17.09l3.45,1.33q-3.35,7.83-3.35,13.31t2.8,8.19a10.48,10.48,0,0,0,7.59,2.7,27.35,27.35,0,0,0,18.22-7.93,5.35,5.35,0,0,0,.1-1.3q0-4.41-3.79-15.79l4.44-3.79a69,69,0,0,1,2.5,9,2.46,2.46,0,0,0,1.57,1.13,24.39,24.39,0,0,0,7.14,1.09V162a18.77,18.77,0,0,1-7.59-1.23q0.1,1,.1,1.91a12.63,12.63,0,0,1-3.38,8.32,23.74,23.74,0,0,1-8.54,6.24,26,26,0,0,1-10.46,2.32q-7.93,0-11.86-4.61a11.84,11.84,0,0,1-2.17-4.08A18.07,18.07,0,0,1,506.58,165.23Zm15.93-26.08,2.63-3.45a1.07,1.07,0,0,1,.7-0.36,1.19,1.19,0,0,1,.8.19l3.32,2.56a1,1,0,0,1,.44.72,1.13,1.13,0,0,1-.21.85L527.63,143a1,1,0,0,1-.72.44,0.93,0.93,0,0,1-.79-0.21l-3.45-2.56A1,1,0,0,1,522.51,139.15Z"/><path class="cls-4" d="M560.75,145.2H558a37.87,37.87,0,0,0-2.46-12.78l3-1.06a33,33,0,0,1,1.73,6.31A52.12,52.12,0,0,1,560.75,145.2Z"/><path class="cls-4" d="M550.57,162a1.87,1.87,0,0,1-1.62-.87,3.51,3.51,0,0,1-.6-2,3.59,3.59,0,0,1,.6-2.05,1.86,1.86,0,0,1,1.62-.89H565V162H550.57Z"/><path class="cls-4" d="M577,122.92l14.94-7,1.26,3-14.87,7Z"/><path class="cls-4" d="M563,161.06a2.76,2.76,0,0,1-.91-2,2.82,2.82,0,0,1,.91-2,2.78,2.78,0,0,1,2-.91q5.26,0,7.79-2.63a15.66,15.66,0,0,0,2.07-2.56q0.77-1.23,1.81-3.26t1.79-3.2q1.71-2.49,3.38-2.5t4.27,2.84q1.13,1.23,2.39,2.73a39.69,39.69,0,0,0,2.82,3,29.8,29.8,0,0,0,3.28,2.75,15.36,15.36,0,0,0,4,2,14.22,14.22,0,0,0,4.72.79V162a17.5,17.5,0,0,1-10.49-3.55q-4.1,5.95-8.24,5.95A8.74,8.74,0,0,1,580.1,163a54,54,0,0,1-6-4.32q-3,3.28-9.16,3.28A2.8,2.8,0,0,1,563,161.06Zm22.37-2.6q2.19,0,4.48-2.53-1.4-1.3-3.38-3.5a42.42,42.42,0,0,0-3.14-3.23,3.3,3.3,0,0,0-1.95-1,1.68,1.68,0,0,0-1.33.65,24,24,0,0,0-3,5,44,44,0,0,0,4.85,3.5A6.94,6.94,0,0,0,585.33,158.46Z"/><path class="cls-4" d="M619.39,113.35a4.87,4.87,0,0,1,1.35,3.52,4.93,4.93,0,0,1-1.35,3.54,4.54,4.54,0,0,1-3.44,1.42,4.29,4.29,0,0,1-4.37-3,3.73,3.73,0,0,1-.41-1.91,5.06,5.06,0,0,1,1.3-3.44,4.34,4.34,0,0,1,3.44-1.49A4.63,4.63,0,0,1,619.39,113.35ZM618,116.92a2.16,2.16,0,0,0-2.15-2.17,2.16,2.16,0,0,0-1.55.65,2.07,2.07,0,0,0-.67,1.54,2,2,0,0,0,.63,1.5,2.17,2.17,0,0,0,1.57.62,2.11,2.11,0,0,0,1.56-.62A2.07,2.07,0,0,0,618,116.92Z"/><path class="cls-4" d="M601.22,161a2.72,2.72,0,0,1-.85-2,2.86,2.86,0,0,1,.87-2,2.67,2.67,0,0,1,2-.91h4a30,30,0,0,0,12.44-2.29,45.31,45.31,0,0,0,4.17-2.17q1.67-1,4-2.63t3.59-2.41q-1.3-.48-3.91-1.5t-4.05-1.54a20.85,20.85,0,0,0-6.7-1.44q-5,0-7.28,5.47L607,146q1.81-5.3,4.19-7.52a7.88,7.88,0,0,1,5.55-2.22q3.28,0,9.6,2.5,2.67,1,5.57,2.05a49.42,49.42,0,0,0,6.48,1.76,36.4,36.4,0,0,0,7,.77l-2.32,5.84h-2.32A16,16,0,0,0,632,151.7q-1.78,1.13-3.55,2.5t-3.83,2.73a35.69,35.69,0,0,1-4.41,2.5A29.1,29.1,0,0,1,607.48,162h-4.27A3,3,0,0,1,601.22,161Z"/><path class="cls-4" d="M654,116.83l14.94-7,1.26,3-14.87,7Zm8.82,6.53-0.07-.44h2.46V124a9.36,9.36,0,0,0,.65,3.86,1.91,1.91,0,0,0,1.57,1.4q0.92,0,1.64-1.5a10.07,10.07,0,0,0,.72-4.24V123l2.7-.24v1.3a10.78,10.78,0,0,1-1.54,6.27,4.51,4.51,0,0,1-3.76,2.17,4.16,4.16,0,0,1-3.62-2.26,5.53,5.53,0,0,1-2,1.71,6.24,6.24,0,0,1-2.92.68,3.59,3.59,0,0,1-2.82-1.45,7.05,7.05,0,0,1-1.21-4.56,33.11,33.11,0,0,1,.31-3.86l2.67,0.24a16.2,16.2,0,0,0-.27,3,4.73,4.73,0,0,0,.63,2.53,1.82,1.82,0,0,0,1.56,1,2.9,2.9,0,0,0,2.29-1.71A8.41,8.41,0,0,0,662.81,123.36Z"/><path class="cls-4" d="M652.83,176a0.84,0.84,0,0,1,.31-0.51,47.37,47.37,0,0,0,8.15-3.83,24.58,24.58,0,0,0,5.38-4.17q3.66-4,3.66-7.18V160a45.59,45.59,0,0,0-2-7.52l-1.76-5.16,4.38-3.73q2.67,7.35,3.35,10a2.1,2.1,0,0,0,1.61,1.4,24.39,24.39,0,0,0,7.14,1.09V162a18.74,18.74,0,0,1-8.17-1.5,10,10,0,0,1-.58,2.91,22.48,22.48,0,0,1-3.85,7.52,27.51,27.51,0,0,1-6,5.9,15.06,15.06,0,0,1-6,2.75,7.84,7.84,0,0,1-3.37-1.28Q652.83,177,652.83,176Z"/><path class="cls-4" d="M681,161a2.69,2.69,0,0,1-.89-2,2.86,2.86,0,0,1,.85-2,2.74,2.74,0,0,1,1.95-.94,19.57,19.57,0,0,0,10.25-2.56l-2.56-33.67a2.85,2.85,0,0,1,.77-2.08,23.44,23.44,0,0,1,3.61-2.56,0.59,0.59,0,0,1,.68.65l1.26,35.68a9.62,9.62,0,0,1-.79,3.93,8.56,8.56,0,0,1-2.1,3,12.19,12.19,0,0,1-3.13,2A19.44,19.44,0,0,1,683,162,3.09,3.09,0,0,1,681,161Z"/><path class="cls-4" d="M710.15,115.91v46a5.88,5.88,0,0,1-3,1.47,0.73,0.73,0,0,1-.75-0.89l-2.08-41.94a3.83,3.83,0,0,1,.32-1.85,5.89,5.89,0,0,1,.55-0.8,5.75,5.75,0,0,1,1-.77q1-.65,3.21-1.88A0.61,0.61,0,0,1,710.15,115.91Z"/><path class="cls-4" d="M742.9,175l14.94-6.94L759.1,171,744.23,178Z"/><path class="cls-4" d="M740.92,149.13a10.46,10.46,0,0,1,2.7-6.84,13.09,13.09,0,0,1,2.5-2.2l3.37-2.34q1.83-1.26,3.47-2.46L752.6,132l4.41-3.73q2.53,21.7,2.65,22.52l0.15,1.06a6.48,6.48,0,0,0,.19.77,3,3,0,0,0,.33.79q0.17,0.26.5,0.7a2.31,2.31,0,0,0,.72.67c0.26,0.15.6,0.32,1,.51a5.46,5.46,0,0,0,1.37.43,18.88,18.88,0,0,0,4,.38V162a17.59,17.59,0,0,1-8.58-1.79,7.37,7.37,0,0,1-3.86-5.31,16.08,16.08,0,0,1-5.78.92q-5.4,0-7.42-2.56A6.42,6.42,0,0,1,740.92,149.13Zm4.1-1.61q0,1.95,4.61,1.95a21.18,21.18,0,0,0,5-.55l-1-8.78a71.88,71.88,0,0,0-7.35,5.3A2.9,2.9,0,0,0,745,147.53Z"/><path class="cls-4" d="M767.68,94.1l14.94-7,1.26,3L769,97Zm8.82,6.53-0.07-.44h2.46v1.09a9.36,9.36,0,0,0,.65,3.86,1.91,1.91,0,0,0,1.57,1.4q0.92,0,1.64-1.5a10.07,10.07,0,0,0,.72-4.24v-0.51l2.7-.24v1.3a10.78,10.78,0,0,1-1.54,6.27,4.51,4.51,0,0,1-3.76,2.17,4.16,4.16,0,0,1-3.62-2.26,5.53,5.53,0,0,1-2,1.71,6.24,6.24,0,0,1-2.92.68,3.59,3.59,0,0,1-2.82-1.45,7.05,7.05,0,0,1-1.21-4.56,33.11,33.11,0,0,1,.31-3.86l2.67,0.24a16.2,16.2,0,0,0-.27,3,4.73,4.73,0,0,0,.63,2.53,1.82,1.82,0,0,0,1.56,1,2.9,2.9,0,0,0,2.29-1.71A8.41,8.41,0,0,0,776.5,100.63Z"/><path class="cls-4" d="M765.83,161a2.71,2.71,0,0,1-.89-2,2.84,2.84,0,0,1,.87-2,2.67,2.67,0,0,1,2-.91,19.6,19.6,0,0,0,9-1.91l-1.2-34.11a3.31,3.31,0,0,1,.75-2.32,17.2,17.2,0,0,1,3.76-2.46,0.59,0.59,0,0,1,.72.62v36.88a2.93,2.93,0,0,0,.44,1.42,2.2,2.2,0,0,0,1.4.8,24.16,24.16,0,0,0,7.14,1.09V162q-5.43,0-8.41-1.57a10.66,10.66,0,0,1-2.7-1.71Q775.09,162,767.85,162A3.09,3.09,0,0,1,765.83,161Z"/><path class="cls-4" d="M787.74,161a2.69,2.69,0,0,1-.89-2,2.86,2.86,0,0,1,.85-2,2.74,2.74,0,0,1,1.95-.94,19.57,19.57,0,0,0,10.25-2.56l-2.56-33.67a2.85,2.85,0,0,1,.77-2.08,23.44,23.44,0,0,1,3.61-2.56,0.59,0.59,0,0,1,.68.65l1.26,35.68a9.62,9.62,0,0,1-.79,3.93,8.56,8.56,0,0,1-2.1,3,12.19,12.19,0,0,1-3.13,2,19.44,19.44,0,0,1-7.9,1.5A3.09,3.09,0,0,1,787.74,161Z"/><path class="cls-4" d="M816.93,115.91v46a5.88,5.88,0,0,1-3,1.47,0.73,0.73,0,0,1-.75-0.89l-2.08-41.94a3.83,3.83,0,0,1,.32-1.85,5.89,5.89,0,0,1,.55-0.8,5.75,5.75,0,0,1,1-.77q1-.65,3.21-1.88A0.61,0.61,0,0,1,816.93,115.91Z"/><path class="cls-4" d="M847.49,183.86l14.94-6.94,1.26,2.94-14.87,6.94Z"/><path class="cls-4" d="M836,157.47q0-9.3,8.51-12.65a31.77,31.77,0,0,1,8.68-1.88q2.22-.17,4.85-0.24l2-1.3,1.2,6.08a20.64,20.64,0,0,0,2.15,5.49,6,6,0,0,0,2.75,2.48,12,12,0,0,0,4.43.65V162q-6.08,0-9.57-3.14a13.25,13.25,0,0,1-4.34,4.31,9.76,9.76,0,0,1-5,1.47,7,7,0,0,1-5.33-2.34,9.31,9.31,0,0,1-2.15-6.55,17.67,17.67,0,0,1,.65-4.72,13.55,13.55,0,0,0-4.44,2.73l1,30.18L838,185.3,836,157.64v-0.17Zm13.3-8a16,16,0,0,0-.68,4.44,4.71,4.71,0,0,0,1.06,3.26,3.59,3.59,0,0,0,2.8,1.18q3,0,6.12-2.87l-1.71-7A39.3,39.3,0,0,0,849.33,149.51Z"/><path class="cls-4" d="M904.35,117.79a4.87,4.87,0,0,1,1.35,3.52,4.93,4.93,0,0,1-1.35,3.54,4.54,4.54,0,0,1-3.44,1.42,4.29,4.29,0,0,1-4.37-3,3.73,3.73,0,0,1-.41-1.91,5.06,5.06,0,0,1,1.3-3.44,4.34,4.34,0,0,1,3.44-1.49A4.63,4.63,0,0,1,904.35,117.79ZM903,121.36a2.16,2.16,0,0,0-2.15-2.17,2.16,2.16,0,0,0-1.55.65,2.07,2.07,0,0,0-.67,1.54,2,2,0,0,0,.63,1.5,2.17,2.17,0,0,0,1.57.62,2.11,2.11,0,0,0,1.56-.62A2.07,2.07,0,0,0,903,121.36Z"/><path class="cls-4" d="M872.13,162l-1.64-.07a2.71,2.71,0,0,1-1.95-.89,2.76,2.76,0,0,1-.89-2,2.91,2.91,0,0,1,.84-2,2.72,2.72,0,0,1,2-.94,29.7,29.7,0,0,0,7.21-.55,7,7,0,0,0,3.28-1.85,12,12,0,0,0,2.22-4l1.85-5.43,4,0.75L887,151.7a19.14,19.14,0,0,1-1.4,3.59,12.29,12.29,0,0,0,6.36,2q4.82,0,6.15-5l2.15-7.76,4.07,0.68-2.15,8.07q3.93,3.69,7.18,4a7,7,0,0,0,3.26-1.25,6.75,6.75,0,0,0,2.51-2.14l-2.8-9.43,4.61-1.81,2,6.49a10.53,10.53,0,0,0,3.11,5.16A9.69,9.69,0,0,0,927.3,156q1.47,0.1,3.76.1V162h-1.57a26.07,26.07,0,0,1-6.54-.73,10,10,0,0,1-4.94-3.06,13.52,13.52,0,0,1-4.26,3.62,10.37,10.37,0,0,1-4.49,1.47,9.51,9.51,0,0,1-3.62-.79,12.2,12.2,0,0,1-2.77-1.57q-1-.82-2.67-2.32v-0.65a10.59,10.59,0,0,1-4,3.69,10.82,10.82,0,0,1-5.13,1.26,13.5,13.5,0,0,1-8.92-3.49Q878.76,162,872.13,162Z"/><path class="cls-4" d="M929.14,189.57l14.94-6.94,1.26,2.94-14.87,6.94Z"/><path class="cls-4" d="M929,161.06a2.8,2.8,0,0,1-.89-2,2.85,2.85,0,0,1,.85-2,2.67,2.67,0,0,1,2-.89h1.47a21.75,21.75,0,0,0,7.11-1.09,3.74,3.74,0,0,0,1.73-1,2.36,2.36,0,0,0,.5-1.56,16.67,16.67,0,0,0-.62-3.4q-0.62-2.44-1.69-5.57T938,139.26l4.44-3.79a72.9,72.9,0,0,1,3.59,11.72,27.36,27.36,0,0,1,.31,4.26,10.79,10.79,0,0,1-1,4.49v0.17l-0.09.12a0.62,0.62,0,0,1-.08.12,9.39,9.39,0,0,1-4.44,4,17.92,17.92,0,0,1-8.27,1.57H931A2.71,2.71,0,0,1,929,161.06Zm6.22,10.22,2.56-3.42a1,1,0,0,1,.72-0.44,0.93,0.93,0,0,1,.79.21l3.38,2.56a1,1,0,0,1,.24,1.5l-2.63,3.45a1.25,1.25,0,0,1-.74.39,0.93,0.93,0,0,1-.77-0.15l-3.32-2.56a1,1,0,0,1-.44-0.73A1,1,0,0,1,935.23,171.28Z"/></svg>