<?xml version="1.0" encoding="utf-8"?>
<!-- Generator: Adobe Illustrator 19.2.0, SVG Export Plug-In . SVG Version: 6.00 Build 0)  -->
<svg version="1.1" id="Layer_1" xmlns="http://www.w3.org/2000/svg" xmlns:xlink="http://www.w3.org/1999/xlink" x="0px" y="0px"
	 viewBox="0 0 213 100" style="enable-background:new 0 0 213 100;" xml:space="preserve">
<style type="text/css">
	.st0{display:none;opacity:0.87;}
	.st1{display:inline;fill:none;}
	.st2{display:inline;}
	.st3{opacity:0.1091;fill:#ED1E79;enable-background:new    ;}
	.st4{fill:#C82257;}
	.st5{display:none;}
	.st6{display:inline;fill:#FFFFFF;}
	.st7{fill:#001106;}
</style>
<g class="st0">
	<line class="st1" x1="-89.9" y1="64.9" x2="134.2" y2="64.9"/>
	<g class="st2">
		<g>
			<path class="st3" d="M-79.8,73.9c37.2,0,74.5,0.1,111.7,0.1c37.3,0,74.6-0.2,111.9,0c-0.1-0.5-0.4-0.9-0.9-1.3
				c-1.3-1.3-2.7-2.7-4-4c-1.4-1.3-2.7-2.6-4.1-3.8c-0.4-0.4-0.8-0.7-1.3-0.8c-3.2-0.1-6.4-0.3-9.6-0.4c-3.9-0.1-7.8,0-11.6,0.1
				c-5,0.2-10,0.1-15,0.1c-25.1-0.2-50.3-0.2-75.4-0.2c-12.9,0-25.8,0-38.7,0.1c-6.5,0-13.1,0-19.6,0.1c-5.8,0-11.7,0.2-17.5-0.1
				c-2.5-0.2-5-0.3-7.4-0.2c-2.4,0-4.8,0.1-7.2,0.1c-3.8,0-7.5,0.1-11.3-0.2c-3-0.2-6.1-0.4-9.1-0.5c0.1,0.5,0.3,1,0.7,1.3
				c1.2,1.5,2.3,2.9,3.5,4.3c1.2,1.4,2.4,2.8,3.7,4.2C-80.7,73.4-80.3,73.7-79.8,73.9z"/>
			<path class="st3" d="M-81.6,71.1c12,0.2,24,0.1,36.1,0.2c25.2,0.2,50.5,0,75.7,0c25.2,0,50.4,0,75.6,0c12.1,0,24.2-0.1,36.3,0
				c-0.1-0.5-0.3-0.9-0.7-1.2c-1.1-1.2-2.3-2.4-3.5-3.6c-1.2-1.2-2.4-2.4-3.6-3.5c-0.3-0.4-0.7-0.6-1.2-0.7
				c-3.2-0.1-6.4-0.3-9.6-0.3c-3.9-0.1-7.7,0-11.6,0.1c-5,0.2-10,0.1-15,0.1C71.8,62,46.6,62,21.5,62c-12.9,0-25.8,0-38.7,0
				c-6.5,0-13.1,0-19.6,0.1c-5.8,0-11.7,0.2-17.5,0c-2.5-0.2-4.9-0.3-7.4-0.2c-2.4,0-4.8,0.1-7.2,0.1c-3.8,0-7.6,0.1-11.4-0.1
				c-3.1-0.2-6.1-0.3-9.2-0.5c0,0.5,0.2,0.9,0.6,1.2c1,1.3,2,2.6,3,3.9c1,1.3,2.1,2.6,3.2,3.8C-82.4,70.7-82.1,71-81.6,71.1z"/>
			<path class="st3" d="M-83,75.1c37.3,0.2,74.5,0.1,111.8,0.1c37.3,0,74.6-0.2,111.9,0c-0.2-0.5-0.5-0.8-1-1c-1.4-1-2.9-2.1-4.4-3
				c-1.5-1-3-2-4.5-2.9c-0.4-0.3-0.9-0.5-1.4-0.5c-3.2-0.1-6.5-0.3-9.7-0.3c-3.9-0.1-7.7,0-11.6,0.1c-5,0.2-10,0.1-14.9,0.1
				c-25.2-0.2-50.3-0.2-75.5-0.2c-12.9,0-25.8,0-38.6,0c-6.5,0-13.1,0-19.6,0.1c-5.8,0-11.7,0.2-17.5,0c-2.5-0.2-5-0.3-7.5-0.2
				c-2.4,0-4.8,0.1-7.2,0.1c-3.8,0-7.6,0.1-11.4-0.1c-3.1-0.2-6.3-0.3-9.4-0.5c0.2,0.5,0.5,0.8,0.9,1.1c1.3,1.1,2.7,2.3,4.1,3.3
				c1.4,1.1,2.8,2.2,4.2,3.2C-83.9,74.9-83.5,75.1-83,75.1z"/>
			<path class="st3" d="M-81.7,79.9C-7,80.4,67.6,79.8,142.2,80c0.5,0.1,0.6,0,0.1-0.3c-1-0.6-2.1-1-3.2-1.4
				c-2.1-0.8-4.1-1.6-6.2-2.4c-1.1-0.5-2.2-0.8-3.3-1.1c-3.3-0.1-6.6-0.2-9.8-0.2c-3.8-0.1-7.7,0-11.5,0.1c-5,0.1-9.9,0.1-14.9,0.1
				c-25.2-0.1-50.4-0.1-75.5-0.1c-12.9,0-25.7,0-38.6,0c-12.4,0-24.7,0.3-37.1,0c-4.9-0.1-9.8-0.1-14.7-0.1c-3.8,0-7.6,0.1-11.4-0.1
				c-3.2-0.2-6.5-0.3-9.7-0.5c-0.5-0.1-0.6,0-0.2,0.3c1,0.6,2,1.2,3,1.6c2,0.9,4,1.9,6,2.7C-83.8,79.2-82.8,79.6-81.7,79.9z"/>
			<path class="st3" d="M-79.7,71.3c37.2,0.3,74.5,0.1,111.7,0.1c37.3,0,74.6-0.2,111.9,0.1c0-0.5-0.2-0.8-0.6-1.2
				c-1-1.3-2-2.5-3.1-3.7c-1-1.2-2.1-2.4-3.2-3.6c-0.3-0.4-0.6-0.7-1.1-0.8c-3.2-0.1-6.4-0.2-9.5-0.3c-3.9-0.1-7.7,0-11.6,0.1
				c-5,0.2-10,0.1-15,0.1c-25.1-0.2-50.3-0.2-75.4-0.2c-12.9,0-25.8,0-38.7,0c-6.5,0-13.1,0-19.6,0.1c-5.8,0-11.7,0.2-17.5,0
				c-2.5-0.2-4.9-0.3-7.4-0.2c-2.4,0-4.8,0-7.2,0.1c-3.8,0-7.6,0.1-11.4-0.1c-3-0.2-6.1-0.3-9.1-0.5c0,0.5,0.1,0.9,0.4,1.2
				c0.8,1.3,1.7,2.7,2.6,4c0.9,1.3,1.8,2.6,2.7,3.9C-80.5,70.8-80.1,71.1-79.7,71.3z"/>
			<path class="st3" d="M-82,69c12.1,0.7,24.1,0.4,36.2,0.5c25.2,0.2,50.5,0,75.7,0c25.2,0,50.4,0,75.6,0c12.1,0,24.2-0.1,36.3,0
				c0-0.4-0.1-0.7-0.5-1c-0.8-1-1.7-2-2.5-3c-0.9-1-1.7-1.9-2.7-2.9c-0.2-0.3-0.5-0.5-0.9-0.6c-3.2-0.1-6.4-0.2-9.6-0.3
				c-3.9-0.1-7.7-0.1-11.6,0.1c-5,0.2-10,0.1-15,0.1c-25.1-0.1-50.3-0.1-75.4-0.1c-12.9,0-25.8,0-38.7,0c-6.5,0-13.1,0-19.6,0.1
				c-5.9,0-11.7,0.2-17.6,0c-2.5-0.2-4.9-0.3-7.4-0.2c-2.4,0-4.8,0-7.2,0.1c-3.8,0-7.6,0.1-11.5,0c-3.2-0.1-6.4-0.6-9.6-1
				c0,0.4,0.1,0.7,0.4,1c0.7,1.1,1.5,2.2,2.3,3.3c0.8,1.1,1.6,2.1,2.4,3.2C-82.7,68.7-82.4,68.9-82,69z"/>
			<path class="st3" d="M-81.6,68.5c12-0.1,23.9,0,35.9,0c25.2,0.1,50.5,0,75.7,0c37.3,0,74.6-0.2,111.8,0.1c0.1-0.3,0-0.5-0.2-0.8
				c-0.6-0.8-1.1-1.5-1.8-2.2c-0.5-0.6-1.7-2.5-2.6-2.5c-3.2-0.1-6.4-0.1-9.7-0.2c-3.9-0.1-7.7-0.1-11.5,0c-5,0.1-10,0.1-15,0.1
				c-25.2-0.1-50.3-0.1-75.5-0.1c-12.9,0-25.8,0-38.6,0c-6.5,0-13.1,0-19.6,0c-5.9,0-11.8,0.2-17.6,0c-4.9-0.1-9.7-0.2-14.6-0.1
				c-3.9,0-7.7,0.1-11.5,0c-3.1-0.1-6.3-0.3-9.4-0.5c-0.3,0,1.8,3.4,1.7,3.3C-83.6,66.1-82.4,68.5-81.6,68.5z"/>
			<path class="st3" d="M-81.3,74.8c37.3,0.1,74.5,0.1,111.8,0.1c37.3,0,74.6-0.2,111.9,0c-0.2-0.5-0.6-0.9-1.1-1.3
				c-1.6-1.3-3.2-2.6-4.8-3.9c-1.6-1.3-3.2-2.5-4.9-3.7c-0.4-0.4-0.9-0.7-1.5-0.8c-3.2-0.1-6.4-0.3-9.6-0.4c-3.9-0.1-7.7,0-11.6,0.2
				c-5,0.2-10,0.1-15,0.1C68.8,65,43.7,65,18.5,65c-12.9,0-25.8,0-38.7,0.1c-6.5,0-13.1,0-19.6,0.1c-5.8,0-11.7,0.2-17.5-0.1
				c-2.5-0.2-5-0.3-7.5-0.2c-2.4,0-4.8,0.1-7.2,0.1c-3.8,0-7.6,0.1-11.3-0.2c-3.1-0.2-6.2-0.4-9.3-0.6c0.2,0.5,0.5,1,1,1.3
				c1.4,1.4,2.9,2.9,4.4,4.2c1.5,1.4,3,2.8,4.5,4.1C-82.3,74.4-81.8,74.7-81.3,74.8z"/>
			<path class="st3" d="M-83,70.7c12,0.3,24.1,0.1,36.1,0.2c25.2,0.2,50.5,0,75.7,0c25.2,0,50.4,0,75.6,0c12.1,0,24.2-0.1,36.3,0
				c0-0.4-0.2-0.7-0.6-1c-0.9-1-1.9-1.9-2.8-2.8c-1-0.9-1.9-1.8-3-2.7c-0.3-0.3-0.6-0.5-1-0.5c-3.2-0.1-6.4-0.2-9.6-0.3
				c-3.9-0.1-7.7-0.1-11.6,0.1c-5,0.2-10,0.1-15,0.1c-25.1-0.1-50.3-0.1-75.4-0.1c-12.9,0-25.8,0-38.6,0c-6.5,0-13.1,0-19.6,0.1
				c-5.8,0-11.7,0.2-17.6,0c-2.5-0.2-5-0.3-7.4-0.2c-2.4,0-4.8,0-7.2,0.1c-3.8,0-7.6,0.1-11.5,0c-3.2-0.1-6.3-0.4-9.5-0.7
				c0,0.4,0.2,0.7,0.5,1c0.8,1.1,1.7,2.1,2.6,3.1c0.9,1,1.8,2,2.7,3C-83.7,70.4-83.4,70.6-83,70.7z"/>
			<path class="st3" d="M-79.9,68c12-0.2,23.9-0.1,35.9-0.1c25.2,0.1,50.5,0,75.7,0c37.3,0,74.6-0.1,111.8,0.1
				c0.4,0-1.8-3.2-1.7-3.1c-0.4-0.5-1.5-2.6-2.3-2.7c-3.2-0.1-6.4-0.1-9.6-0.2c-8.8-0.1-17.7,0.1-26.5,0.1C78.2,62,53,62,27.9,62
				C15,62,2.1,62-10.8,62c-6.5,0-13.1,0-19.6,0c-5.9,0-11.8,0.2-17.6,0c-4.9-0.1-9.7-0.2-14.5-0.1c-3.9,0-7.7,0.1-11.6,0
				c-3.1-0.1-6.2-0.2-9.3-0.3c-0.4,0,1.4,3.5,1.4,3.4C-81.8,65.4-80.7,68-79.9,68z"/>
			<path class="st3" d="M-81.9,77.8c74.6,0.4,149.2-0.2,223.8,0.1c-0.3-0.5-0.7-0.8-1.3-1c-1.7-1-3.5-2-5.3-2.9
				c-1.8-1-3.6-1.9-5.4-2.8c-0.5-0.3-1-0.5-1.6-0.5c-3.3-0.1-6.5-0.3-9.8-0.3c-3.9-0.1-7.7,0-11.6,0.1c-5,0.2-9.9,0.1-14.9,0.1
				c-25.2-0.2-50.3-0.2-75.5-0.2c-12.9,0-25.8,0-38.6,0.1c-12.4,0-24.7,0.4-37.1,0c-2.5-0.2-5-0.3-7.6-0.2c-2.4,0-4.8,0.1-7.2,0.1
				c-3.8,0-7.6,0.1-11.4-0.2c-3.2-0.2-6.3-0.4-9.5-0.6c0.3,0.5,0.7,0.9,1.2,1.1c1.6,1.1,3.3,2.2,5,3.3c1.7,1.1,3.4,2.1,5.1,3.1
				C-82.9,77.6-82.4,77.8-81.9,77.8z"/>
			<path class="st3" d="M-82.2,72.8c37.2,0.2,74.5,0.1,111.7,0.1c25.2,0,50.4,0,75.6,0c12.1,0,24.2-0.1,36.3,0
				c-0.2-0.5-0.5-0.9-0.9-1.2c-1.4-1.3-2.7-2.5-4.1-3.7c-1.4-1.2-2.8-2.4-4.2-3.6c-0.4-0.4-0.8-0.6-1.3-0.7
				c-3.2-0.1-6.4-0.3-9.6-0.3c-3.9-0.1-7.7,0-11.6,0.1c-5,0.2-10,0.1-15,0.1c-25.1-0.2-50.3-0.2-75.4-0.2c-12.9,0-25.8,0-38.7,0.1
				c-6.5,0-13.1,0-19.6,0.1c-5.8,0-11.7,0.2-17.5,0c-2.5-0.2-5-0.3-7.5-0.2c-2.4,0-4.8,0.1-7.2,0.1c-3.8,0-7.6,0.1-11.4-0.1
				c-3.1-0.2-6.1-0.4-9.2-0.5c0.1,0.5,0.4,0.9,0.8,1.3c1.2,1.4,2.5,2.7,3.7,4c1.3,1.3,2.5,2.6,3.9,3.9
				C-83.1,72.4-82.6,72.6-82.2,72.8z"/>
		</g>
	</g>
</g>
<g>
	<path class="st4" d="M54.4,75.6c0,3.3-0.1,5.4-0.3,6.3c-0.1,0.4-2.3,0.8-6.6,1.4c-7.4,0.9-12,1.4-13.6,1.4c-2.9,0-5.3-0.6-7.2-1.8
		c-2.2-1.4-3.3-3.5-3.3-6.3c0-1.9,0.8-4.2,2.5-6.7c0.5-0.9,0.9-1.3,1.1-1.3c0.1,0,0.1,0.1,0.1,0.3c0,0.3-0.1,0.7-0.2,1.2
		c-0.2,0.8-0.3,1.6-0.3,2.4c0,4.1,3.2,6.1,9.6,6.1c4,0,8.9-0.4,14.6-1.3c-0.5-1.7-1.8-3.7-4-6l3.5-4.6c0.2-0.2,0.4-0.2,0.6,0
		C53.3,69.1,54.4,72.1,54.4,75.6z M38.4,67.9l-5,5L27,67.9l4.8-5L38.4,67.9z M49,67.5l-5,5l-6.4-5.1l4.8-5L49,67.5z"/>
	<path class="st4" d="M72.2,78.1c0,2,0,3.1-0.1,3.3c-0.4,0.9-3.2,1.3-8.6,1.3c-0.8,0-2-0.1-3.7-0.2c-1.6-0.1-2.9-0.2-3.7-0.2h-2.4
		c-1,0-1.5-0.5-1.5-1.5v-4.8H56c0.8,0,2.1,0,3.7,0.1s2.9,0.1,3.7,0.1c2,0,3.3-0.1,4.2-0.4c-0.6-1.9-1.6-3.8-3.1-5.5l3.1-5
		c0.2-0.4,0.5-0.4,0.7-0.1C70.9,68.9,72.2,73.2,72.2,78.1z M67.1,64.3l-5,5l-6.4-5.1l4.8-5L67.1,64.3z"/>
	<path class="st4" d="M97.1,79.5c0,3.8-1.1,7.4-3.3,10.9c-2.4,3.8-5.2,5.7-8.4,5.7c-1.8,0-3.8-0.8-5.8-2.3c-1.7-1.3-3.2-2.8-4.5-4.6
		c-0.3-0.4-0.4-0.6-0.4-0.8c0-0.2,0.1-0.2,0.3-0.2c0.2,0,0.5,0.1,0.9,0.4c1.8,1.2,4,1.7,6.5,1.7c2.4,0,4.7-0.7,6.7-2.1
		c2.1-1.4,3.6-3.2,4.5-5.4c-6.4-0.4-9.6-2.3-9.6-5.7c0-2,0.6-4.4,1.9-7.1c1.4-3.2,3-4.7,4.7-4.7c1.1,0,2.4,1,3.9,3.1
		c1.8,2.4,2.7,5.1,2.7,8L97.1,79.5L97.1,79.5z M93.2,76.2c-0.4-0.9-1-1.7-1.7-2.6c-0.9-1.1-1.7-1.7-2.3-1.7c-0.8,0-1.6,0.8-2.3,2.5
		C88.8,75.6,90.8,76.2,93.2,76.2z"/>
	<path class="st4" d="M114,73.2c0,4-0.4,6.7-1.2,8c-0.6,1-3,1.5-7.1,1.5c-0.8,0-2.1-0.1-3.7-0.2c-1.7-0.1-2.9-0.2-3.7-0.2h-1.7
		c-1,0-1.4-0.5-1.4-1.5v-4.8h1.6c1.3,0,3.4,0.1,6.1,0.2c2.7,0.2,4.7,0.2,6.1,0.2c-2.8-1.1-4.8-2.1-5.9-2.9c-1.7-1.1-2.5-2.3-2.5-3.6
		c0-1.2,0.9-3,2.7-5.5c1.8-2.5,3.3-3.8,4.5-3.8c1.5,0,2.9,1.1,4.2,3.4C113.2,66.7,114,69.7,114,73.2z M112.7,56l-5,5l-6.4-5.1l4.8-5
		L112.7,56z M111.2,72.3c-0.5-1.8-1.1-3.3-1.9-4.7c-0.9-1.7-1.8-2.6-2.6-2.6c-1.3,0-2.6,1-3.9,2.9C104.7,69.2,107.5,70.6,111.2,72.3
		z"/>
</g>
<g>
	<path class="st4" d="M82.8,42.3h-3c-1.3,0-2.3-0.7-3-2c-0.4-0.9-0.9-2.5-1.3-4.8c-1.1,2.7-1.9,4.1-2.4,4.2c-2,0-3.9-0.4-5.6-1.1
		c-1.9-0.8-2.9-1.9-2.9-3.2c0-0.7,0.5-2.1,1.4-4c1-2,1.8-3.3,2.5-3.8c0.3-0.2,1.2-0.6,2.8-1.3l3.3-1.4l-0.1-2.3
		c0.7-0.8,1.8-1.8,3.1-2.9c0.2,0.6,0.5,4.7,0.8,12.2c0.1,1.8,0.3,3,0.6,3.5c0.2,0.4,0.8,0.6,1.6,0.6h2.1L82.8,42.3L82.8,42.3z
		 M75.4,33.8c0-0.9-0.1-2.9-0.3-6.1c-3.3,1-5.4,2.3-6.5,3.8C70.1,33,72.4,33.8,75.4,33.8z"/>
	<path class="st4" d="M99.8,38c0,2,0,3.1-0.1,3.3c-0.4,0.9-3.2,1.3-8.6,1.3c-0.8,0-2-0.1-3.7-0.2c-1.6-0.1-2.9-0.2-3.7-0.2h-2.4
		c-1,0-1.5-0.5-1.5-1.5V36h3.7c0.8,0,2.1,0,3.7,0.1c1.7,0.1,2.9,0.1,3.7,0.1c2,0,3.3-0.1,4.2-0.4c-0.6-1.9-1.6-3.8-3.1-5.5l3.1-5
		c0.2-0.4,0.5-0.4,0.7-0.1C98.5,28.8,99.8,33,99.8,38z M94.7,24.2l-5,5l-6.4-5.1l4.8-5L94.7,24.2z"/>
	<path class="st4" d="M113.6,42.3H110c-1.6,0-2.8-0.6-3.5-1.8c-0.5-0.9-0.8-2.2-0.9-4.1l-1.3-19.5l3.8-3.6c0.1-0.1,0.3-0.2,0.5-0.3
		c0.1,0,0.2,0.2,0.2,0.6l0.7,18.9c0,0.8,0.2,1.7,0.4,2.8c0.3,0.5,1.2,0.8,2.5,0.8h1.1L113.6,42.3L113.6,42.3z"/>
	<path class="st4" d="M142.2,41.2c0,0.6-0.5,1-1.4,1c-0.4,0-1.5,0.1-3.3,0.1c-0.2,0-1.8,0.1-4.9,0.3c-1.9,0.1-3.1,0.2-3.9,0.2
		c-1.5,0-3.8-0.1-6.9-0.3s-5.3-0.3-6.9-0.3h-2.9c-1,0-1.5-0.5-1.5-1.5V36h3.3c0.9,0,2.3,0.1,4.2,0.3c1.9,0.2,3.3,0.3,4.2,0.3h10.6
		c-3.5-4.3-6.8-6.5-9.7-6.5c-0.9,0-2.2,0.3-4.1,1c-0.3,0.1-0.5,0.1-0.7,0.1c-0.4,0-0.6-0.2-0.6-0.5c0-0.3,0.1-0.6,0.4-0.9
		c2-2.7,4.3-4.1,7.1-4.1c2.4,0,4.8,0.9,7.1,2.6c0.3,0.2,2,1.9,5.2,5c1.8,1.8,3.3,2.6,4.6,2.6L142.2,41.2L142.2,41.2z M131.5,20.7
		l-5,5l-6.4-5.1l4.8-5L131.5,20.7z"/>
</g>
<g class="st5">
	<path class="st6" d="M-118.4,212.7c0-0.9,0.3-1.8,0.9-2.7c0.6-0.9,1.4-1.7,2.5-2.3l0.1,0.3l-0.1-0.3c-0.2-0.7-0.7-1-1.5-1
		c-0.1,0-0.4,0-0.6,0.1l-0.4-1.3c1.2-0.7,2.3-1,3.5-1c0.7,0,1.3,0.1,1.8,0.4c0.4,0.2,0.7,0.6,0.7,1c0,0.8-0.5,1.6-1.6,2.3
		c0.3,0.4,0.7,0.7,1.2,1c0.5,0.2,1.1,0.4,1.8,0.4h0.3v1.4h-0.5c-0.9,0-1.6-0.2-2.3-0.6c-0.7-0.4-1.2-0.9-1.6-1.5
		c-0.1,0-0.2,0.1-0.3,0.1c-0.8,0.5-1.4,1-1.8,1.6c-0.4,0.6-0.6,1.3-0.6,1.9c0,0.8,0.3,1.4,0.9,1.9c0.6,0.5,1.4,0.8,2.5,0.8h0.1
		c0.9,0,2-0.2,3.4-0.5l0.2,1.1c-0.5,0.2-1.1,0.4-1.8,0.6c-0.7,0.2-1.3,0.3-1.8,0.3c-0.8,0-1.5-0.1-2.1-0.3s-1.1-0.5-1.5-0.9
		C-118,214.7-118.4,213.8-118.4,212.7z"/>
	<path class="st6" d="M-110,211c-0.2,0-0.3-0.1-0.4-0.2c-0.1-0.1-0.1-0.3-0.1-0.5s0-0.4,0.1-0.5c0.1-0.1,0.2-0.2,0.4-0.2h3.5v1.4
		L-110,211L-110,211z"/>
	<path class="st6" d="M-106.7,211c-0.2,0-0.3-0.1-0.4-0.2c-0.1-0.1-0.1-0.3-0.1-0.5s0-0.4,0.1-0.5s0.2-0.2,0.4-0.2h3.5v1.4
		L-106.7,211L-106.7,211z"/>
	<path class="st6" d="M-103.9,210.3c0-0.2,0.1-0.4,0.2-0.5c0.1-0.1,0.3-0.2,0.5-0.2h0.3c0.2,0,0.5,0,0.7-0.1c0.2,0,0.4-0.1,0.6-0.2
		c0.2-0.1,0.3-0.2,0.5-0.3c0.1-0.1,0.3-0.2,0.4-0.4c0.1-0.1,0.2-0.3,0.3-0.4s0.2-0.3,0.2-0.4c0.1-0.1,0.1-0.3,0.2-0.5
		c0,0,0-0.1,0-0.1c0.3-0.6,0.6-1,0.9-1.3s0.7-0.4,1.1-0.4c0.5,0,0.9,0.2,1.4,0.6c0.4,0.4,0.8,0.8,1.1,1.4c0.3,0.6,0.4,1.2,0.4,1.8
		c0,1.3-0.6,2-1.7,2c-0.3,0-0.6,0-0.9-0.1c-0.4-0.1-0.6-0.1-0.9-0.2c-0.2-0.1-0.5-0.2-1-0.3s-0.7-0.3-0.8-0.3
		c-0.5,0.5-1.3,0.7-2.3,0.7h-0.4c-0.2,0-0.3-0.1-0.5-0.2C-103.9,210.6-103.9,210.5-103.9,210.3z M-99.7,209.2c0,0,0.1,0,0.3,0.1
		c0.2,0.1,0.3,0.1,0.3,0.1c0,0,0.1,0,0.3,0.1c0.1,0.1,0.2,0.1,0.3,0.1c0.1,0,0.2,0,0.3,0.1c0.1,0,0.2,0.1,0.3,0.1
		c0.1,0,0.2,0,0.3,0.1s0.2,0,0.3,0c0.1,0,0.2,0,0.2,0c0.4,0,0.7-0.2,0.7-0.5c0-0.2-0.1-0.5-0.2-0.8c-0.2-0.4-0.4-0.7-0.6-1
		c-0.3-0.3-0.5-0.5-0.8-0.5c-0.2,0-0.5,0.3-0.8,0.8c-0.1,0.1-0.2,0.4-0.4,0.7C-99.5,208.8-99.6,209-99.7,209.2z"/>
	<path class="st6" d="M-92.8,208.2v-8.6h1.3v8.3c0,0.6,0.1,1,0.4,1.2s0.6,0.4,1,0.4v1.4c-0.4,0-0.8-0.1-1.1-0.2
		c-0.3-0.1-0.6-0.2-0.8-0.4s-0.4-0.4-0.5-0.6C-92.7,209.4-92.8,208.8-92.8,208.2z"/>
	<path class="st6" d="M-90.3,211c-0.2,0-0.3-0.1-0.4-0.2c-0.1-0.1-0.1-0.3-0.1-0.5s0-0.4,0.1-0.5c0.1-0.1,0.2-0.2,0.4-0.2h3.5v1.4
		L-90.3,211L-90.3,211z"/>
	<path class="st6" d="M-86.9,211c-0.2,0-0.3-0.1-0.4-0.2c-0.1-0.1-0.1-0.3-0.1-0.5s0-0.4,0.1-0.5s0.2-0.2,0.4-0.2h3.5v1.4L-86.9,211
		L-86.9,211z"/>
	<path class="st6" d="M-83.9,210.8c-0.1-0.1-0.2-0.3-0.2-0.5s0.1-0.3,0.2-0.5c0.1-0.1,0.3-0.2,0.5-0.2h1.8c0.3,0,0.7,0,1-0.1
		c0.3-0.1,0.6-0.1,0.9-0.2c0.3-0.1,0.5-0.2,0.9-0.4c0.3-0.2,0.6-0.3,0.8-0.4c0.2-0.1,0.5-0.3,0.8-0.5c0.3-0.2,0.6-0.4,0.7-0.5
		c-0.4-0.1-0.9-0.3-1.4-0.5c-0.5-0.2-0.9-0.4-1.3-0.5s-0.6-0.2-0.8-0.2c-0.4,0-0.9,0.4-1.5,1.1l-0.8-0.7c0.5-0.7,0.9-1.1,1.1-1.3
		c0.4-0.4,0.9-0.6,1.3-0.6c0.3,0,0.7,0.1,1.1,0.3c0.5,0.2,0.9,0.4,1.3,0.6c0.4,0.2,0.9,0.4,1.6,0.6s1.2,0.3,1.9,0.3h1.1l-0.3,1.4
		h-0.5c-0.3,0-0.6,0.1-1,0.2c-0.3,0.1-0.7,0.3-1,0.4c-0.3,0.2-0.6,0.4-1,0.6c-0.3,0.2-0.7,0.4-1.1,0.7s-0.7,0.4-1.1,0.6
		c-0.4,0.2-0.8,0.3-1.3,0.4c-0.5,0.1-1,0.2-1.5,0.2h-1.8C-83.6,211-83.8,210.9-83.9,210.8z M-81,213.1l0.8-0.8
		c0.1,0,0.1-0.1,0.2-0.1s0.1,0,0.2,0.1l0.8,0.8c0.1,0,0.1,0.1,0.1,0.2s0,0.1-0.1,0.2l-0.8,0.8c-0.1,0.1-0.1,0.1-0.2,0.1
		s-0.1,0-0.2-0.1l-0.8-0.8c-0.1-0.1-0.1-0.1-0.1-0.2C-81.1,213.2-81.1,213.2-81,213.1z"/>
	<path class="st6" d="M-56.9,211.9L-56.9,211.9c-0.2,0.7-0.6,1.3-1.2,1.8c-0.6,0.5-1.3,0.9-2.1,1.1c-0.8,0.3-1.6,0.4-2.5,0.4
		c-0.9,0-1.7-0.2-2.4-0.5c-0.7-0.4-1.3-0.9-1.5-1.6c-0.1-0.4-0.2-0.8-0.2-1.2c0-1.1,0.5-2.4,1.4-3.9l0.9,0.6c-0.6,1.1-0.9,2.1-0.9,3
		c0,0.5,0.1,1,0.4,1.3c0.3,0.3,0.6,0.6,1,0.7c0.4,0.1,0.9,0.2,1.4,0.2c0.9,0,1.7-0.2,2.6-0.5c0.9-0.3,1.5-0.7,1.8-1.2
		c0.1-0.1,0.1-0.2,0.1-0.3c0-0.2-0.2-0.5-0.5-0.7s-0.8-0.4-1.4-0.6l0.4-1.4c1.5,0.4,2.8,0.6,4.1,0.6v1.4c-0.9,0-1.5-0.1-1.8-0.2
		c0.1,0.1,0.3,0.3,0.4,0.5C-56.9,211.5-56.9,211.7-56.9,211.9z"/>
	<path class="st6" d="M-56.3,210.3c0-0.2,0.1-0.3,0.2-0.5c0.1-0.1,0.3-0.2,0.5-0.2h2.3c1,0,1.5-0.4,1.5-1.3c0-0.2,0-0.5-0.1-0.9
		s-0.2-0.6-0.2-0.8c-0.1-0.2-0.2-0.4-0.3-0.8l1.3-0.5c0.4,1.1,0.7,2.2,0.7,3c0,1.7-0.9,2.6-2.8,2.6h-2.3c-0.2,0-0.3-0.1-0.5-0.2
		C-56.2,210.6-56.3,210.5-56.3,210.3z M-56.1,213.1l0.7-0.7c0.1,0,0.1-0.1,0.2-0.1s0.1,0,0.2,0.1l0.7,0.7c0.1,0,0.1,0.1,0.1,0.2
		s0,0.1-0.1,0.2l-0.7,0.7c-0.1,0-0.1,0.1-0.2,0.1c-0.1,0-0.1,0-0.2-0.1l-0.7-0.7c-0.1,0-0.1-0.1-0.1-0.2S-56.1,213.2-56.1,213.1z
		 M-54,213.1l0.7-0.7c0.1,0,0.1-0.1,0.2-0.1s0.1,0,0.2,0.1l0.7,0.7c0.1,0,0.1,0.1,0.1,0.2s0,0.1-0.1,0.2l-0.7,0.7
		c-0.1,0-0.1,0.1-0.2,0.1c-0.1,0-0.1,0-0.2-0.1l-0.7-0.7c-0.1,0-0.1-0.1-0.1-0.2S-54,213.2-54,213.1z"/>
	<path class="st6" d="M-48,208.2v-8.6h1.3v8.3c0,0.6,0.1,1,0.4,1.2s0.6,0.4,1,0.4v1.4c-0.4,0-0.8-0.1-1.1-0.2
		c-0.3-0.1-0.6-0.2-0.8-0.4s-0.4-0.4-0.5-0.6C-47.8,209.4-48,208.8-48,208.2z"/>
	<path class="st6" d="M-45.4,211c-0.2,0-0.3-0.1-0.4-0.2c-0.1-0.1-0.1-0.3-0.1-0.5s0-0.4,0.1-0.5c0.1-0.1,0.2-0.2,0.4-0.2h3.5v1.4
		L-45.4,211L-45.4,211z"/>
	<path class="st6" d="M-42.1,211c-0.2,0-0.3-0.1-0.4-0.2c-0.1-0.1-0.1-0.3-0.1-0.5s0-0.4,0.1-0.5s0.2-0.2,0.4-0.2h3.5v1.4L-42.1,211
		L-42.1,211z"/>
	<path class="st6" d="M-39.1,210.8c-0.1-0.1-0.2-0.3-0.2-0.5s0.1-0.4,0.2-0.5c0.1-0.1,0.3-0.2,0.5-0.2h1.4c0.4,0,0.7,0,1-0.1
		c-0.8-0.6-1.2-1.2-1.2-2c0-0.7,0.3-1.3,0.8-2c0.3-0.3,0.6-0.6,0.9-0.8c-0.3-0.1-0.4-0.2-0.5-0.2l0.4-1.3c0.8,0.3,1.6,0.7,2.3,1.1
		c0.7,0.4,1.3,0.7,1.7,1c0.4,0.3,0.7,0.6,1.1,0.9c0.8,0.7,1.2,1.5,1.2,2.4c0,0.8-0.3,1.5-1,2.3c-0.1,0.1-0.4,0.2-0.9,0.2
		s-1-0.1-1.6-0.2c-0.6-0.1-1.2-0.3-1.7-0.5c-0.7,0.5-1.4,0.7-2.2,0.7h-1.8C-38.8,211-39,210.9-39.1,210.8z M-36.1,207.3
		c0,0.5,0.5,0.9,1.5,1.4c0.5-0.5,0.8-1,0.8-1.6c0-0.5-0.1-0.8-0.2-1c-0.1-0.2-0.3-0.3-0.6-0.3c-0.3,0-0.5,0.1-0.8,0.4
		c-0.3,0.3-0.5,0.6-0.6,1C-36.1,207.2-36.1,207.2-36.1,207.3z M-31.5,209.5c0.3,0,0.4,0,0.5-0.1c0.2-0.3,0.4-0.6,0.4-0.9
		c0-0.7-0.7-1.5-2-2.3c0,0.2,0,0.4,0,0.6c0,0.8-0.3,1.6-0.8,2.4C-32.6,209.4-32,209.5-31.5,209.5z"/>
	<path class="st6" d="M-23,212.9c0.3-0.3,0.4-0.6,0.4-1s0-0.8-0.1-1.2c0-0.4-0.2-1-0.3-1.6c-0.2-0.7-0.4-1.2-0.7-1.7l1.1-0.9
		c0.6,1,1,2.1,1.1,3.2c0.1,0.5,0.1,0.9,0.1,1.2c0,0.3,0,0.6,0,1.1s-0.1,0.8-0.3,1.2c-0.2,0.4-0.4,0.7-0.7,0.9s-0.7,0.5-1.1,0.7
		c-0.8,0.4-1.8,0.7-3.1,0.9l-0.5-1.3c1.1-0.1,2.1-0.4,2.9-0.7C-23.6,213.4-23.2,213.2-23,212.9z"/>
	<path class="st6" d="M-19.2,208.2v-8.6h1.3v8.3c0,0.6,0.1,1,0.4,1.2s0.6,0.4,1,0.4v1.4c-0.4,0-0.8-0.1-1.1-0.2
		c-0.3-0.1-0.6-0.2-0.8-0.4s-0.4-0.4-0.5-0.6C-19,209.4-19.2,208.8-19.2,208.2z"/>
	<path class="st6" d="M-16.6,211c-0.2,0-0.3-0.1-0.4-0.2c-0.1-0.1-0.1-0.3-0.1-0.5s0-0.4,0.1-0.5c0.1-0.1,0.2-0.2,0.4-0.2h3.5v1.4
		L-16.6,211L-16.6,211z"/>
	<path class="st6" d="M-13.3,211c-0.2,0-0.3-0.1-0.4-0.2c-0.1-0.1-0.1-0.3-0.1-0.5s0-0.4,0.1-0.5s0.2-0.2,0.4-0.2h3.5v1.4L-13.3,211
		L-13.3,211z"/>
	<path class="st6" d="M-10,211c-0.2,0-0.3-0.1-0.4-0.2c-0.1-0.1-0.1-0.3-0.1-0.5s0-0.4,0.1-0.5c0.1-0.1,0.2-0.2,0.4-0.2h3.5v1.4
		L-10,211L-10,211z"/>
	<path class="st6" d="M-6.6,211c-0.2,0-0.3-0.1-0.4-0.2c-0.1-0.1-0.1-0.3-0.1-0.5s0-0.4,0.1-0.5s0.2-0.2,0.4-0.2h3.5v1.4L-6.6,211
		L-6.6,211z"/>
	<path class="st6" d="M-3.6,210.8c-0.1-0.1-0.2-0.3-0.2-0.5s0.1-0.3,0.2-0.5c0.1-0.1,0.3-0.2,0.5-0.2h2.1c0.8,0,1.4-0.1,1.8-0.3
		c0.3-0.2,0.5-0.5,0.5-0.8c0-0.9-0.6-1.9-1.9-2.9c-0.3-0.2-0.6-0.5-0.8-0.6c-0.2-0.1-0.5-0.4-1.1-0.7c0.1-0.7,0.2-1.2,0.3-1.4
		c0.1-0.2,0.3-0.4,0.5-0.6c0.7-0.5,1.6-0.9,2.6-1.4s2-0.9,2.9-1.2l0.5,1.3c-1.9,0.6-3.7,1.4-5.5,2.5c0.8,0.5,1.4,1,2,1.6
		c0.5,0.4,1,1.1,1.7,1.9c0.7,0.8,1.1,1.3,1.3,1.6c0.3,0.4,0.7,0.6,1,0.8c0.3,0.2,0.7,0.3,1,0.3v1.4c-1,0-1.8-0.3-2.4-0.9
		c-0.2-0.2-0.4-0.4-0.5-0.5c-0.1-0.2-0.3-0.4-0.5-0.7c-0.1,0.6-0.5,1.1-1.1,1.5c-0.6,0.4-1.3,0.6-2.3,0.6h-2.3
		C-3.3,211-3.5,210.9-3.6,210.8z"/>
	<path class="st6" d="M5.4,210.8c-0.1-0.1-0.2-0.3-0.2-0.5s0.1-0.4,0.2-0.5c0.1-0.1,0.3-0.2,0.5-0.2h1.4c0.4,0,0.7,0,1-0.1
		c-0.8-0.6-1.2-1.2-1.2-2c0-0.7,0.3-1.3,0.8-2c0.3-0.3,0.6-0.6,0.9-0.8c-0.3-0.1-0.4-0.2-0.5-0.2l0.4-1.3c0.8,0.3,1.6,0.7,2.3,1.1
		c0.7,0.4,1.3,0.7,1.7,1c0.4,0.3,0.7,0.6,1.1,0.9c0.8,0.7,1.2,1.5,1.2,2.4c0,0.8-0.3,1.5-1,2.3c-0.1,0.1-0.4,0.2-0.9,0.2
		c-0.5,0-1-0.1-1.6-0.2c-0.6-0.1-1.2-0.3-1.7-0.5c-0.7,0.5-1.4,0.7-2.2,0.7H5.9C5.7,211,5.6,210.9,5.4,210.8z M8.4,207.3
		c0,0.5,0.5,0.9,1.5,1.4c0.5-0.5,0.8-1,0.8-1.6c0-0.5-0.1-0.8-0.2-1s-0.3-0.3-0.6-0.3s-0.5,0.1-0.8,0.4c-0.3,0.3-0.5,0.6-0.6,1
		C8.4,207.2,8.4,207.2,8.4,207.3z M13.1,209.5c0.3,0,0.4,0,0.5-0.1c0.2-0.3,0.4-0.6,0.4-0.9c0-0.7-0.7-1.5-2-2.3c0,0.2,0,0.4,0,0.6
		c0,0.8-0.3,1.6-0.8,2.4C11.9,209.4,12.6,209.5,13.1,209.5z"/>
	<path class="st6" d="M17.6,211v-11.3h1.3V211H17.6z"/>
	<path class="st6" d="M25,212.9c0.3-0.3,0.4-0.6,0.4-1s0-0.8-0.1-1.2c0-0.4-0.2-1-0.3-1.6c-0.2-0.7-0.4-1.2-0.7-1.7l1.1-0.9
		c0.6,1,1,2.1,1.1,3.2c0.1,0.5,0.1,0.9,0.1,1.2c0,0.3,0,0.6,0,1.1s-0.1,0.8-0.3,1.2c-0.2,0.4-0.4,0.7-0.7,0.9s-0.7,0.5-1.1,0.7
		c-0.8,0.4-1.8,0.7-3.1,0.9l-0.5-1.3c1.1-0.1,2.1-0.4,2.9-0.7C24.4,213.4,24.7,213.2,25,212.9z"/>
	<path class="st6" d="M32.6,210.6c-0.2-0.3-0.3-0.6-0.3-1s0.1-0.8,0.4-1.3c0.2-0.5,0.6-0.9,1-1.3l0.5,0.5c-0.1,0.1-0.2,0.3-0.3,0.3
		c-0.1,0.1-0.2,0.2-0.2,0.4s-0.1,0.3-0.1,0.5c0,0.3,0.2,0.5,0.5,0.9c0.1,0.2,0.2,0.3,0.2,0.6s-0.1,0.4-0.3,0.6
		c-0.2,0.2-0.4,0.2-0.6,0.2C33,211,32.8,210.9,32.6,210.6z"/>
	<path class="st6" d="M45.8,213L45.8,213c-0.5,0.7-1.3,1.2-2.3,1.7s-2,0.6-3,0.6c-0.9,0-1.7-0.2-2.4-0.5c-0.7-0.4-1.3-0.9-1.5-1.6
		c-0.1-0.4-0.2-0.8-0.2-1.2c0-1.1,0.5-2.4,1.4-3.9l0.9,0.6c-0.6,1.1-0.9,2.1-0.9,3c0,0.5,0.1,1,0.4,1.3c0.3,0.3,0.6,0.6,1,0.7
		c0.4,0.1,0.9,0.2,1.4,0.2c0.9,0,1.8-0.2,2.6-0.5c0.9-0.4,1.5-0.8,1.8-1.3c0-0.1,0.1-0.2,0.1-0.3s-0.1-0.2-0.1-0.3
		c-0.1-0.1-0.3-0.2-0.5-0.3c-0.2-0.1-0.4-0.2-0.6-0.3c-0.2-0.1-0.4-0.2-0.7-0.3c-0.3-0.1-0.5-0.2-0.6-0.2c-0.2-0.1-0.4-0.2-0.5-0.4
		s-0.2-0.5-0.2-0.8s0.1-0.7,0.4-1.2c0.4-0.8,0.9-1.4,1.5-1.9s1.1-0.7,1.6-0.7c0.9,0,1.7,0.6,2.3,1.9l-1,0.8c-0.3-0.4-0.5-0.8-0.8-1
		s-0.5-0.3-0.7-0.3c-0.2,0-0.5,0.1-0.7,0.3c-0.2,0.2-0.5,0.5-0.9,0.8c-0.3,0.4-0.5,0.6-0.5,0.9c0,0.1,0,0.2,0.1,0.2
		c0.1,0.1,0.1,0.1,0.2,0.1c0.1,0,0.1,0.1,0.3,0.1c0.8,0.3,1.3,0.5,1.6,0.7c0.8,0.4,1.2,1,1.2,1.6C46.5,211.9,46.3,212.4,45.8,213z"
		/>
	<path class="st6" d="M53.7,212.9c0.3-0.3,0.4-0.6,0.4-1s0-0.8-0.1-1.2c0-0.4-0.2-1-0.3-1.6c-0.2-0.7-0.4-1.2-0.7-1.7l1.1-0.9
		c0.6,1,1,2.1,1.1,3.2c0.1,0.5,0.1,0.9,0.1,1.2c0,0.3,0,0.6,0,1.1s-0.1,0.8-0.3,1.2c-0.2,0.4-0.4,0.7-0.7,0.9s-0.7,0.5-1.1,0.7
		c-0.8,0.4-1.8,0.7-3.1,0.9l-0.5-1.3c1.1-0.1,2.1-0.4,2.9-0.7C53.1,213.4,53.4,213.2,53.7,212.9z M53.4,204.3c0-0.1,0-0.2,0.1-0.2
		l0.8-0.8c0.1,0,0.1-0.1,0.2-0.1s0.1,0,0.2,0.1l0.8,0.8c0.1,0,0.1,0.1,0.1,0.2s0,0.2-0.1,0.2l-0.8,0.8c-0.1,0-0.1,0.1-0.2,0.1
		s-0.1,0-0.2-0.1l-0.8-0.8C53.5,204.5,53.4,204.4,53.4,204.3z"/>
	<path class="st6" d="M57.5,208.2v-8.6h1.3v8.3c0,0.6,0.1,1,0.4,1.2s0.6,0.4,1,0.4v1.4c-0.4,0-0.8-0.1-1.1-0.2
		c-0.3-0.1-0.6-0.2-0.8-0.4s-0.4-0.4-0.5-0.6C57.6,209.4,57.5,208.8,57.5,208.2z"/>
	<path class="st6" d="M59.7,210.8c-0.1-0.1-0.2-0.3-0.2-0.5s0.1-0.3,0.2-0.5c0.1-0.1,0.3-0.2,0.5-0.2h1.8c0.3,0,0.7,0,1-0.1
		c0.3-0.1,0.6-0.1,0.9-0.2c0.3-0.1,0.5-0.2,0.9-0.4c0.3-0.2,0.6-0.3,0.8-0.4c0.2-0.1,0.5-0.3,0.8-0.5c0.3-0.2,0.6-0.4,0.7-0.5
		c-0.4-0.1-0.9-0.3-1.4-0.5c-0.5-0.2-0.9-0.4-1.3-0.5s-0.6-0.2-0.8-0.2c-0.4,0-0.9,0.4-1.5,1.1l-0.8-0.7c0.5-0.7,0.9-1.1,1.1-1.3
		c0.4-0.4,0.9-0.6,1.3-0.6c0.3,0,0.7,0.1,1.1,0.3c0.5,0.2,0.9,0.4,1.3,0.6c0.4,0.2,0.9,0.4,1.6,0.6c0.6,0.2,1.2,0.3,1.9,0.3h1.1
		l-0.3,1.4h-0.5c-0.3,0-0.6,0-0.9,0.1c0.1,0.5,0.4,0.9,0.8,1.2c0.4,0.3,1,0.4,1.8,0.4v1.4c-1.2,0-2-0.2-2.6-0.6
		c-0.6-0.4-0.9-1-1.1-1.9c-0.2,0.1-0.6,0.3-1,0.6c-0.4,0.3-0.8,0.5-1.1,0.7s-0.7,0.4-1.1,0.6s-0.9,0.4-1.3,0.5
		c-0.5,0.1-1,0.2-1.5,0.2h-1.8C60,211,59.8,210.9,59.7,210.8z M62.6,213.1l0.8-0.8c0.1,0,0.1-0.1,0.2-0.1s0.1,0,0.2,0.1l0.8,0.8
		c0.1,0,0.1,0.1,0.1,0.2s0,0.1-0.1,0.2l-0.8,0.8c-0.1,0.1-0.1,0.1-0.2,0.1s-0.1,0-0.2-0.1l-0.8-0.8c-0.1-0.1-0.1-0.1-0.1-0.2
		C62.5,213.2,62.5,213.2,62.6,213.1z"/>
	<path class="st6" d="M71.3,211c-0.2,0-0.3-0.1-0.4-0.2c-0.1-0.1-0.1-0.3-0.1-0.5s0-0.4,0.1-0.5c0.1-0.1,0.2-0.2,0.4-0.2h3.5v1.4
		L71.3,211L71.3,211z"/>
	<path class="st6" d="M74.7,211c-0.2,0-0.3-0.1-0.4-0.2c-0.1-0.1-0.1-0.3-0.1-0.5s0-0.4,0.1-0.5s0.2-0.2,0.4-0.2h3.5v1.4L74.7,211
		L74.7,211z"/>
	<path class="st6" d="M78,211c-0.2,0-0.3-0.1-0.4-0.2c-0.1-0.1-0.1-0.3-0.1-0.5s0-0.4,0.1-0.5c0.1-0.1,0.2-0.2,0.4-0.2h3.5v1.4
		L78,211L78,211z"/>
	<path class="st6" d="M80.8,210.3c0-0.2,0.1-0.4,0.2-0.5c0.1-0.1,0.3-0.2,0.5-0.2h0.3c0.2,0,0.5,0,0.7-0.1c0.2,0,0.4-0.1,0.6-0.2
		c0.2-0.1,0.3-0.2,0.5-0.3c0.1-0.1,0.3-0.2,0.4-0.4c0.1-0.1,0.2-0.3,0.3-0.4s0.2-0.3,0.2-0.4c0.1-0.1,0.1-0.3,0.2-0.5
		c0,0,0-0.1,0-0.1c0.3-0.6,0.6-1,0.9-1.3c0.4-0.3,0.7-0.4,1.1-0.4c0.5,0,0.9,0.2,1.4,0.6c0.4,0.4,0.8,0.8,1.1,1.4
		c0.3,0.6,0.4,1.2,0.4,1.8c0,1.3-0.6,2-1.7,2c-0.3,0-0.6,0-0.9-0.1c-0.4-0.1-0.6-0.1-0.9-0.2c-0.2-0.1-0.5-0.2-1-0.3
		s-0.7-0.3-0.8-0.3c-0.5,0.5-1.3,0.7-2.3,0.7h-0.4c-0.2,0-0.3-0.1-0.5-0.2C80.8,210.6,80.8,210.5,80.8,210.3z M85,209.2
		c0,0,0.1,0,0.3,0.1c0.2,0.1,0.3,0.1,0.3,0.1c0,0,0.1,0,0.3,0.1c0.1,0.1,0.2,0.1,0.3,0.1c0.1,0,0.2,0,0.3,0.1c0.1,0,0.2,0.1,0.3,0.1
		c0.1,0,0.2,0,0.3,0.1s0.2,0,0.3,0c0.1,0,0.2,0,0.2,0c0.4,0,0.7-0.2,0.7-0.5c0-0.2-0.1-0.5-0.2-0.8c-0.2-0.4-0.4-0.7-0.6-1
		s-0.5-0.5-0.8-0.5c-0.2,0-0.5,0.3-0.8,0.8c-0.1,0.1-0.2,0.4-0.4,0.7S85.1,209,85,209.2z"/>
	<path class="st6" d="M105,213L105,213c-0.5,0.7-1.3,1.2-2.3,1.7s-2,0.6-3,0.6c-0.9,0-1.7-0.2-2.4-0.5c-0.7-0.4-1.3-0.9-1.5-1.6
		c-0.1-0.4-0.2-0.8-0.2-1.2c0-1.1,0.5-2.4,1.4-3.9l0.9,0.6c-0.6,1.1-0.9,2.1-0.9,3c0,0.5,0.1,1,0.4,1.3c0.3,0.3,0.6,0.6,1,0.7
		c0.4,0.1,0.9,0.2,1.4,0.2c0.9,0,1.8-0.2,2.6-0.5c0.9-0.4,1.5-0.8,1.8-1.3c0-0.1,0.1-0.2,0.1-0.3s0-0.2-0.1-0.3
		c-0.1-0.1-0.3-0.2-0.5-0.3c-0.2-0.1-0.4-0.2-0.6-0.3s-0.4-0.2-0.7-0.3c-0.3-0.1-0.5-0.2-0.6-0.2c-0.2-0.1-0.4-0.2-0.5-0.4
		c-0.1-0.2-0.2-0.5-0.2-0.8s0.1-0.7,0.4-1.2c0.4-0.8,0.9-1.4,1.5-1.9c0.5-0.5,1.1-0.7,1.6-0.7c0.9,0,1.7,0.6,2.3,1.9l-1,0.8
		c-0.3-0.4-0.5-0.8-0.8-1c-0.2-0.2-0.5-0.3-0.7-0.3c-0.2,0-0.5,0.1-0.7,0.3c-0.2,0.2-0.5,0.5-0.9,0.8c-0.3,0.4-0.5,0.6-0.5,0.9
		c0,0.1,0,0.2,0.1,0.2c0.1,0.1,0.1,0.1,0.2,0.1c0.1,0,0.1,0.1,0.3,0.1c0.8,0.3,1.3,0.5,1.6,0.7c0.8,0.4,1.2,1,1.2,1.6
		C105.6,211.9,105.4,212.4,105,213z"/>
	<path class="st6" d="M108.8,211v-11.3h1.3V211H108.8z"/>
	<path class="st6" d="M112.9,209.3c-0.4-0.3-0.6-0.7-0.6-1.2s0.3-1.1,0.8-1.8s1.2-1.2,2.1-1.8l-0.2-0.9l1.2-0.6l1.1,4.6
		c0.1,0.5,0.2,0.8,0.3,1c0.3,0.7,0.9,1,1.8,1v1.4c-1.4,0-2.3-0.5-2.8-1.4v0c-0.6,0.1-1.1,0.2-1.6,0.2
		C114,209.7,113.3,209.6,112.9,209.3z M113.5,207.8c0,0.2,0.1,0.3,0.3,0.4c0.2,0.1,0.5,0.1,0.8,0.1s0.8,0,1.4-0.1l-0.5-2.2
		C114.2,206.8,113.5,207.4,113.5,207.8z"/>
	<path class="st6" d="M119,211c-0.2,0-0.3-0.1-0.4-0.2c-0.1-0.1-0.1-0.3-0.1-0.5s0-0.4,0.1-0.5c0.1-0.1,0.2-0.2,0.4-0.2h3.5v1.4
		L119,211L119,211z"/>
	<path class="st6" d="M122.4,211c-0.2,0-0.3-0.1-0.4-0.2c-0.1-0.1-0.1-0.3-0.1-0.5s0-0.4,0.1-0.5s0.2-0.2,0.4-0.2h3.5v1.4L122.4,211
		L122.4,211z"/>
	<path class="st6" d="M125.2,210.3c0-0.2,0.1-0.3,0.2-0.5c0.1-0.1,0.3-0.2,0.5-0.2h2.3c1,0,1.5-0.4,1.5-1.3c0-0.2,0-0.5-0.1-0.9
		c-0.1-0.3-0.2-0.6-0.2-0.8s-0.2-0.4-0.3-0.8l1.3-0.5c0.4,1.1,0.7,2.2,0.7,3c0,1.7-0.9,2.6-2.8,2.6h-2.3c-0.2,0-0.3-0.1-0.5-0.2
		S125.2,210.5,125.2,210.3z M127.1,202.5c0,0-0.1-0.1-0.1-0.2s0-0.2,0.1-0.2l0.8-0.8c0.1,0,0.1-0.1,0.2-0.1c0.1,0,0.1,0,0.2,0.1
		l0.8,0.8c0.1,0,0.1,0.1,0.1,0.2s0,0.2-0.1,0.2l-0.8,0.8c0,0-0.1,0.1-0.2,0.1c-0.1,0-0.1,0-0.2-0.1L127.1,202.5z"/>
	<path class="st6" d="M133.5,208.2v-8.6h1.3v8.3c0,0.6,0.1,1,0.4,1.2c0.3,0.3,0.6,0.4,1,0.4v1.4c-0.4,0-0.8-0.1-1.1-0.2
		s-0.6-0.2-0.8-0.4s-0.4-0.4-0.5-0.6C133.6,209.4,133.5,208.8,133.5,208.2z"/>
	<path class="st6" d="M136,211c-0.2,0-0.3-0.1-0.4-0.2c-0.1-0.1-0.1-0.3-0.1-0.5s0-0.4,0.1-0.5s0.2-0.2,0.4-0.2h3.5v1.4L136,211
		L136,211z"/>
	<path class="st6" d="M139.4,211c-0.2,0-0.3-0.1-0.4-0.2c-0.1-0.1-0.1-0.3-0.1-0.5s0-0.4,0.1-0.5s0.2-0.2,0.4-0.2h3.5v1.4L139.4,211
		L139.4,211z"/>
	<path class="st6" d="M142.4,210.8c-0.1-0.1-0.2-0.3-0.2-0.5s0.1-0.3,0.2-0.5c0.1-0.1,0.3-0.2,0.5-0.2h1.8c0.3,0,0.7,0,1-0.1
		c0.3-0.1,0.6-0.1,0.9-0.2s0.5-0.2,0.9-0.4c0.3-0.2,0.6-0.3,0.8-0.4c0.2-0.1,0.5-0.3,0.8-0.5c0.3-0.2,0.6-0.4,0.7-0.5
		c-0.4-0.1-0.9-0.3-1.4-0.5c-0.5-0.2-0.9-0.4-1.3-0.5s-0.6-0.2-0.8-0.2c-0.4,0-0.9,0.4-1.5,1.1l-0.8-0.7c0.5-0.7,0.9-1.1,1.1-1.3
		c0.4-0.4,0.9-0.6,1.3-0.6c0.3,0,0.7,0.1,1.1,0.3s0.9,0.4,1.3,0.6c0.4,0.2,0.9,0.4,1.6,0.6s1.2,0.3,1.9,0.3h1.1l-0.3,1.4h-0.5
		c-0.3,0-0.6,0.1-1,0.2c-0.3,0.1-0.7,0.3-1,0.4s-0.6,0.4-1,0.6c-0.3,0.2-0.7,0.4-1,0.7s-0.7,0.4-1.1,0.6c-0.4,0.2-0.8,0.3-1.3,0.4
		c-0.5,0.1-1,0.2-1.5,0.2h-1.8C142.7,211,142.5,210.9,142.4,210.8z M144.8,202.1c-0.1,0-0.1-0.1-0.1-0.2s0-0.2,0.1-0.2l0.8-0.8
		c0,0,0.1-0.1,0.2-0.1s0.1,0,0.2,0.1l0.8,0.8c0,0,0.1,0.1,0.1,0.2s0,0.2-0.1,0.2l-0.8,0.8c0,0-0.1,0.1-0.2,0.1s-0.1,0-0.2-0.1
		L144.8,202.1z"/>
	<path class="st6" d="M-118.8,239.3L-118.8,239.3c-0.2,0.7-0.6,1.3-1.2,1.8c-0.6,0.5-1.3,0.9-2.1,1.1c-0.8,0.3-1.6,0.4-2.5,0.4
		c-0.9,0-1.7-0.2-2.4-0.5c-0.7-0.4-1.3-0.9-1.5-1.6c-0.1-0.4-0.2-0.8-0.2-1.2c0-1.1,0.5-2.4,1.4-3.9l0.9,0.6c-0.6,1.1-0.9,2.1-0.9,3
		c0,0.5,0.1,1,0.4,1.3c0.3,0.3,0.6,0.6,1,0.7c0.4,0.1,0.9,0.2,1.4,0.2c0.9,0,1.7-0.2,2.6-0.5c0.9-0.3,1.5-0.7,1.8-1.2
		c0.1-0.1,0.1-0.2,0.1-0.3c0-0.2-0.2-0.5-0.5-0.7s-0.8-0.4-1.4-0.6l0.4-1.4c1.5,0.4,2.8,0.6,4.1,0.6v1.4c-0.9,0-1.5-0.1-1.8-0.2
		c0.1,0.1,0.3,0.3,0.4,0.5C-118.8,238.9-118.8,239.1-118.8,239.3z"/>
	<path class="st6" d="M-118,238.1c-0.1-0.1-0.2-0.3-0.2-0.5s0.1-0.3,0.2-0.5c0.1-0.1,0.3-0.2,0.5-0.2h1.4c0.5,0,0.9-0.1,1.2-0.4
		c0.3-0.2,0.5-0.5,0.6-0.9l0.4-1.7l1.3,0.3l-0.5,2.1c0.6,0.4,1.2,0.6,1.8,0.6c0.4,0,0.7-0.1,1-0.3c0.3-0.2,0.5-0.5,0.6-1l0.3-1.4
		l1.3,0.3l-0.4,1.8c0.5,0.4,1,0.6,1.7,0.6c0.5,0,0.9-0.1,1.1-0.3s0.4-0.4,0.4-0.8s0-0.7-0.1-1c-0.1-0.3-0.3-0.9-0.5-1.5l1.3-0.6
		c0.2,0.7,0.4,1.3,0.5,1.7c0.1,0.4,0.1,0.9,0.1,1.3c0,0.9-0.3,1.5-0.8,1.9c-0.5,0.4-1.2,0.6-2.1,0.6c-0.5,0-0.9-0.1-1.4-0.2
		c-0.4-0.2-0.8-0.4-1-0.6c-0.5,0.6-1.2,0.8-2.1,0.8c-0.4,0-0.9-0.1-1.3-0.2s-0.8-0.4-1.1-0.6c-0.6,0.6-1.3,0.9-2.1,0.9h-1.5
		C-117.7,238.4-117.8,238.3-118,238.1z"/>
	<path class="st6" d="M-97.7,240.2c0.3-0.3,0.4-0.6,0.4-1s0-0.8-0.1-1.2c0-0.4-0.2-1-0.3-1.6c-0.2-0.7-0.4-1.2-0.7-1.7l1.1-0.9
		c0.6,1,1,2.1,1.1,3.2c0.1,0.5,0.1,0.9,0.1,1.2c0,0.3,0,0.6,0,1.1s-0.1,0.8-0.3,1.2c-0.2,0.4-0.4,0.7-0.7,0.9s-0.7,0.5-1.1,0.7
		c-0.8,0.4-1.8,0.7-3.1,0.9l-0.5-1.3c1.1-0.1,2.1-0.4,2.9-0.7C-98.4,240.8-98,240.5-97.7,240.2z"/>
	<path class="st6" d="M-93.9,235.6V227h1.3v8.3c0,0.6,0.1,1,0.4,1.2s0.6,0.4,1,0.4v1.4c-0.4,0-0.8-0.1-1.1-0.2
		c-0.3-0.1-0.6-0.2-0.8-0.4s-0.4-0.4-0.5-0.6C-93.8,236.7-93.9,236.2-93.9,235.6z"/>
	<path class="st6" d="M-91.4,238.4c-0.2,0-0.3-0.1-0.4-0.2c-0.1-0.1-0.1-0.3-0.1-0.5s0-0.4,0.1-0.5c0.1-0.1,0.2-0.2,0.4-0.2h3.5v1.4
		L-91.4,238.4L-91.4,238.4z"/>
	<path class="st6" d="M-88.6,237.7c0-0.2,0.1-0.3,0.2-0.5c0.1-0.1,0.3-0.2,0.5-0.2h3.1c0.4,0,0.7-0.1,1.1-0.3
		c0.3-0.2,0.5-0.5,0.5-0.8v-0.6c-0.7,0.2-1.2,0.2-1.5,0.2h0c-0.9,0-1.5-0.2-1.9-0.6c-0.4-0.4-0.6-1-0.6-1.6c0-0.9,0.3-1.7,0.9-2.4
		c0.6-0.7,1.2-1,1.9-1c0.3,0,0.5,0.1,0.8,0.2s0.5,0.3,0.7,0.6c0.2,0.3,0.4,0.7,0.6,1.1s0.3,1,0.4,1.7s0.1,1.4,0.1,2.3v0.2
		c0,0.9-0.2,1.5-0.7,1.9c-0.5,0.4-1.2,0.6-2.1,0.6h-3.1c-0.2,0-0.3-0.1-0.5-0.2C-88.5,238-88.6,237.8-88.6,237.7z M-86,233.2
		c0,0.6,0.4,0.9,1.3,0.9h0.1c0.3,0,0.8-0.1,1.4-0.2c-0.1-0.9-0.3-1.5-0.6-1.9c-0.3-0.4-0.6-0.6-0.9-0.6c-0.3,0-0.6,0.2-0.9,0.5
		C-85.9,232.2-86,232.7-86,233.2z M-85.9,227.5c-0.1,0-0.1-0.1-0.1-0.2s0-0.2,0.1-0.2l0.8-0.8c0.1,0,0.1-0.1,0.2-0.1s0.1,0,0.2,0.1
		l0.8,0.8c0.1,0,0.1,0.1,0.1,0.2s0,0.2-0.1,0.2l-0.8,0.8c-0.1,0-0.1,0.1-0.2,0.1s-0.1,0-0.2-0.1L-85.9,227.5z"/>
	<path class="st6" d="M-63.9,237l0.5,0v1.4c-0.5,0-0.9,0-1.1,0c-0.3,0-0.6-0.1-1-0.1s-0.7-0.2-1-0.3c-0.5,0.3-1.2,0.5-2,0.5h-4.5
		c-0.9,0-1.9-0.2-2.9-0.7l0.6-1.3c0.5,0.3,0.9,0.4,1.5,0.5c0.4-0.5,0.8-0.9,1-1.2V227h1.3v7.3c1.4-1.3,2.5-2,3.4-2.1
		c0.1,0,0.3,0,0.4,0c0.8,0,1.4,0.3,2,0.9s0.8,1.3,0.8,2.1c0,0.6-0.2,1.2-0.5,1.7C-65.1,236.9-64.6,237-63.9,237z M-68.9,236.9
		c0.6,0,1.1-0.1,1.6-0.3s0.8-0.4,1-0.6c0.1-0.2,0.1-0.3,0.1-0.4c0-0.5-0.2-0.9-0.5-1.2c-0.3-0.4-0.8-0.6-1.2-0.6
		c-0.4,0-0.8,0.1-1.2,0.3c-0.4,0.2-0.9,0.5-1.3,0.8c-0.7,0.6-1.4,1.2-2,1.9H-68.9z"/>
	<path class="st6" d="M-63.5,238.4c-0.2,0-0.3-0.1-0.4-0.2c-0.1-0.1-0.1-0.3-0.1-0.5s0-0.4,0.1-0.5s0.2-0.2,0.4-0.2h3.5v1.4
		L-63.5,238.4L-63.5,238.4z"/>
	<path class="st6" d="M-60.5,238.1c-0.1-0.1-0.2-0.3-0.2-0.5s0.1-0.3,0.2-0.5c0.1-0.1,0.3-0.2,0.5-0.2h1.8c0.3,0,0.7,0,1-0.1
		c0.3-0.1,0.6-0.1,0.9-0.2c0.3-0.1,0.5-0.2,0.9-0.4c0.3-0.2,0.6-0.3,0.8-0.4c0.2-0.1,0.5-0.3,0.8-0.5c0.3-0.2,0.6-0.4,0.7-0.5
		c-0.4-0.1-0.9-0.3-1.4-0.5c-0.5-0.2-0.9-0.4-1.3-0.5s-0.6-0.2-0.8-0.2c-0.4,0-0.9,0.4-1.5,1.1L-59,234c0.5-0.7,0.9-1.1,1.1-1.3
		c0.4-0.4,0.9-0.6,1.3-0.6c0.3,0,0.7,0.1,1.1,0.3c0.5,0.2,0.9,0.4,1.3,0.6c0.4,0.2,0.9,0.4,1.6,0.6c0.6,0.2,1.2,0.3,1.9,0.3h1.1
		l-0.3,1.4h-0.5c-0.3,0-0.6,0.1-1,0.2c-0.3,0.1-0.7,0.3-1,0.4c-0.3,0.2-0.6,0.4-1,0.6c-0.3,0.2-0.7,0.4-1.1,0.7s-0.7,0.4-1.1,0.6
		c-0.4,0.2-0.8,0.3-1.3,0.4c-0.5,0.1-1,0.2-1.5,0.2H-60C-60.2,238.4-60.4,238.3-60.5,238.1z M-58,229.4c-0.1,0-0.1-0.1-0.1-0.2
		s0-0.2,0.1-0.2l0.8-0.8c0.1,0,0.1-0.1,0.2-0.1s0.1,0,0.2,0.1l0.8,0.8c0.1,0,0.1,0.1,0.1,0.2s0,0.2-0.1,0.2l-0.8,0.8
		c-0.1,0-0.1,0.1-0.2,0.1s-0.1,0-0.2-0.1L-58,229.4z"/>
	<path class="st6" d="M-43.5,239.3c0-0.5,0.1-1,0.3-1.6c0.2-0.6,0.4-1.2,0.7-1.7l1,0.4c-0.2,0.4-0.4,0.8-0.5,1.4s-0.2,1-0.2,1.4
		c0,0.5,0.1,0.8,0.4,1.1c0.3,0.3,0.6,0.5,1,0.6c0.4,0.1,0.9,0.2,1.4,0.2c0.7,0,1.5-0.1,2.2-0.3c0.8-0.2,1.4-0.5,1.9-0.9
		s0.8-0.8,0.8-1.3c0,0,0,0,0-0.1c0,0,0,0,0-0.1c-0.1-0.6-0.6-1.7-1.5-3.3l1.2-0.9c0,0,0.1,0.1,0.1,0.2c0.1,0.1,0.1,0.2,0.1,0.2
		s0.1,0.1,0.1,0.2s0.1,0.2,0.1,0.2c0,0,0.1,0.1,0.1,0.2s0.1,0.1,0.1,0.2c0,0.1,0.1,0.1,0.2,0.2c0.1,0.1,0.1,0.1,0.2,0.2
		c0.3,0.3,0.7,0.6,1.1,0.8c0.4,0.2,0.8,0.3,1.3,0.3c0.4,0,0.7-0.1,0.9-0.3s0.4-0.5,0.6-1l0.3-1.4l1.3,0.3l-0.4,1.8
		c0.5,0.4,1,0.6,1.7,0.6c0.5,0,0.8-0.1,1.1-0.3s0.4-0.5,0.4-0.8c0-0.3,0-0.7-0.1-1s-0.3-0.9-0.5-1.5l1.3-0.6
		c0.3,0.7,0.4,1.3,0.5,1.7c0.1,0.4,0.1,0.9,0.1,1.4c0,0.9-0.3,1.5-0.8,1.9c-0.5,0.4-1.2,0.6-2.1,0.6c-0.5,0-0.9-0.1-1.4-0.2
		c-0.4-0.2-0.8-0.4-1-0.6c-0.5,0.5-1.1,0.8-1.8,0.8v0h-0.1c0,0-0.1,0-0.1,0s-0.1,0-0.1,0c-0.7,0-1.3-0.1-1.8-0.4c0,0.1,0,0.2,0,0.4
		c0,0.5-0.1,1-0.4,1.4s-0.6,0.8-0.9,1.2s-0.9,0.6-1.4,0.9s-1.1,0.4-1.6,0.5c-0.6,0.1-1.1,0.2-1.7,0.2c-0.6,0-1.1-0.1-1.6-0.2
		s-0.9-0.3-1.3-0.6c-0.4-0.3-0.7-0.6-0.9-1C-43.4,240.3-43.5,239.9-43.5,239.3z M-33.6,230.9c-0.1,0-0.1-0.1-0.1-0.2s0-0.1,0.1-0.2
		l0.7-0.7c0.1,0,0.1-0.1,0.2-0.1c0.1,0,0.1,0,0.2,0.1l0.7,0.7c0.1,0,0.1,0.1,0.1,0.2s0,0.1-0.1,0.2l-0.7,0.7c-0.1,0-0.1,0.1-0.2,0.1
		s-0.1,0-0.2-0.1L-33.6,230.9z M-32.4,228.9c-0.1-0.1-0.1-0.2,0-0.3l0.6-0.6c0,0,0.1-0.1,0.2-0.1s0.1,0,0.2,0.1l0.6,0.6
		c0.1,0.1,0.1,0.2,0,0.3l-0.6,0.7c0,0-0.1,0.1-0.2,0.1s-0.1,0-0.2-0.1L-32.4,228.9z M-31.5,230.9c-0.1,0-0.1-0.1-0.1-0.2
		s0-0.1,0.1-0.2l0.7-0.7c0.1,0,0.1-0.1,0.2-0.1c0.1,0,0.1,0,0.2,0.1l0.7,0.7c0.1,0,0.1,0.1,0.1,0.2s0,0.1-0.1,0.2l-0.7,0.7
		c-0.1,0-0.1,0.1-0.2,0.1s-0.1,0-0.2-0.1L-31.5,230.9z"/>
	<path class="st6" d="M-14.5,236.9v1.4c-0.5,0-1,0-1.3-0.1c-0.3-0.1-0.6-0.3-0.8-0.5c0,0.8-0.2,1.5-0.7,2.2
		c-0.5,0.7-1.1,1.3-1.8,1.8c-0.8,0.5-1.7,0.9-2.7,1.3l-0.5-1.3c1-0.4,2-0.9,2.8-1.6c0.4-0.3,0.8-0.7,1-1.1c0.3-0.4,0.4-0.8,0.4-1.1
		c0-0.3,0-0.6,0-0.8c0-0.2-0.1-0.6-0.3-1s-0.4-0.9-0.7-1.4l1.1-0.9c0.2,0.3,0.4,0.7,0.7,1.4c0.1,0.2,0.2,0.4,0.4,0.6
		c0.2,0.2,0.3,0.4,0.5,0.6c0.2,0.1,0.4,0.3,0.7,0.4S-14.8,236.9-14.5,236.9z"/>
	<path class="st6" d="M-15.2,237.7c0-0.2,0.1-0.4,0.2-0.5c0.1-0.1,0.3-0.2,0.5-0.2h2.1c0.6,0,1.1-0.1,1.4-0.4s0.4-0.7,0.4-1.3v-1.4
		h1.3v1.4c0,0.6,0.2,1,0.5,1.3s0.8,0.4,1.3,0.4h0.2v1.4h-0.3c-0.7,0-1.2-0.1-1.6-0.3c-0.4-0.2-0.6-0.5-0.8-0.8
		c-0.1,0.3-0.3,0.6-0.7,0.8c-0.4,0.2-0.9,0.3-1.5,0.3h-2.3c-0.2,0-0.3-0.1-0.5-0.2C-15.1,238-15.2,237.8-15.2,237.7z M-13.7,231.1
		c-0.1,0-0.1-0.1-0.1-0.2s0-0.1,0.1-0.2l0.7-0.7c0.1,0,0.1-0.1,0.2-0.1c0.1,0,0.1,0,0.2,0.1l0.7,0.7c0.1,0,0.1,0.1,0.1,0.2
		s0,0.1-0.1,0.2l-0.7,0.7c-0.1,0-0.1,0.1-0.2,0.1s-0.1,0-0.2-0.1L-13.7,231.1z M-11.6,231.1c-0.1,0-0.1-0.1-0.1-0.2s0-0.1,0.1-0.2
		l0.7-0.7c0.1,0,0.1-0.1,0.2-0.1c0.1,0,0.1,0,0.2,0.1l0.7,0.7c0.1,0,0.1,0.1,0.1,0.2s0,0.1-0.1,0.2l-0.7,0.7c-0.1,0-0.1,0.1-0.2,0.1
		s-0.1,0-0.2-0.1L-11.6,231.1z"/>
	<path class="st6" d="M-7.8,238.1C-8,238-8,237.8-8,237.7s0.1-0.3,0.2-0.5c0.1-0.1,0.3-0.2,0.5-0.2h1.4c0.4,0,0.8-0.1,1.1-0.3
		c0.3-0.2,0.5-0.5,0.6-1l0.3-1.4l1.3,0.3l-0.5,1.8c0.6,0.4,1.2,0.6,1.8,0.6c0.4,0,0.7-0.1,1-0.3c0.3-0.2,0.5-0.5,0.6-1l0.3-1.4
		l1.3,0.3l-0.4,1.8c0.5,0.4,1,0.6,1.7,0.6c0.8,0,1.3-0.2,1.5-0.6l-0.5-2.2l1.2-0.4l0.4,2c0.1,0.4,0.3,0.7,0.5,1
		c0.3,0.2,0.7,0.3,1.2,0.3h0.6v1.4H7.5c-1,0-1.7-0.2-2.2-0.7c-0.5,0.5-1.2,0.7-2.2,0.7c-0.5,0-0.9-0.1-1.4-0.2
		c-0.4-0.2-0.8-0.4-1-0.6c-0.5,0.6-1.2,0.8-2.1,0.8c-0.4,0-0.9-0.1-1.3-0.2s-0.8-0.4-1.1-0.6c-0.6,0.6-1.3,0.9-2.1,0.9h-1.5
		C-7.5,238.4-7.7,238.3-7.8,238.1z"/>
	<path class="st6" d="M8,238.4c-0.2,0-0.3-0.1-0.4-0.2c-0.1-0.1-0.1-0.3-0.1-0.5s0-0.4,0.1-0.5c0.1-0.1,0.2-0.2,0.4-0.2h3.5v1.4
		L8,238.4L8,238.4z"/>
	<path class="st6" d="M11,238.1c-0.1-0.1-0.2-0.3-0.2-0.5s0.1-0.3,0.2-0.5c0.1-0.1,0.3-0.2,0.5-0.2h2.1c0.8,0,1.4-0.1,1.8-0.3
		c0.3-0.2,0.5-0.5,0.5-0.8c0-1-0.8-2.1-2.3-3.3c-0.3-0.2-0.6-0.4-0.9-0.6c-0.3-0.2-0.5-0.3-0.5-0.3c0.1-0.7,0.2-1.2,0.3-1.4
		c0.1-0.2,0.3-0.4,0.5-0.6c0.7-0.5,1.6-0.9,2.6-1.4s2-0.9,2.9-1.2l0.5,1.3c-1.9,0.6-3.7,1.4-5.5,2.5c0.3,0.2,0.6,0.4,0.9,0.6
		c0.3,0.2,0.6,0.5,0.9,0.8c0.4,0.3,0.7,0.7,0.9,1c0.2,0.3,0.4,0.7,0.6,1.2c0.2,0.5,0.3,0.9,0.3,1.4c0,0.8-0.3,1.4-0.9,1.8
		c-0.6,0.5-1.4,0.7-2.5,0.7h-2.3C11.3,238.4,11.1,238.3,11,238.1z M12.4,228.4c0.8-0.5,1.6-1,2.3-1.3s1.6-0.7,2.5-1l0.3,0.8
		c-0.9,0.3-1.7,0.6-2.4,1c-0.7,0.4-1.5,0.8-2.4,1.3L12.4,228.4z"/>
	<path class="st6" d="M29.7,238c-0.6,0.2-1.1,0.3-1.7,0.3c-0.6,0-1-0.1-1.4-0.4c-0.7-0.5-1-1.2-1-2.2c0-0.5,0.1-1,0.3-1.5
		c0.2-0.5,0.5-0.9,0.9-1.2c0.4-0.3,0.9-0.5,1.4-0.5c1,0,1.7,0.4,2.1,1.2c0.4,0.8,0.7,2.1,0.7,3.9c0,0.8-0.3,1.5-0.8,2.3
		s-1.2,1.3-2.1,1.9c-0.9,0.5-1.8,0.9-2.9,1.2l-0.3-1.4c1-0.3,2-0.7,3-1.4c0.5-0.3,0.9-0.7,1.2-1.1C29.5,238.9,29.7,238.5,29.7,238z
		 M27.3,234.6c-0.2,0.3-0.3,0.7-0.3,1s0.1,0.7,0.3,0.9c0.2,0.2,0.5,0.4,0.9,0.4h0.1c0.3,0,0.6,0,0.9-0.1c0.3-0.1,0.5-0.2,0.6-0.3
		l0.1,0.3c-0.1-1.8-0.6-2.7-1.6-2.7C27.8,234.1,27.5,234.3,27.3,234.6z"/>
	<path class="st6" d="M38,237.8c-0.4-0.2-0.8-0.5-1-0.8c-0.2-0.4-0.3-0.8-0.3-1.3c0-0.6,0.2-1.5,0.5-2.6l1.2,0.4
		c0,0.1-0.1,0.2-0.1,0.4c-0.1,0.2-0.1,0.3-0.1,0.4c0,0.1-0.1,0.2-0.1,0.4s-0.1,0.3-0.1,0.4c0,0.1,0,0.2,0,0.3c0,0,0,0,0,0.1
		c0,0,0,0.1,0,0.1c0.1,0.5,0.4,0.9,1,1.1c0.6,0.2,1.5,0.3,2.8,0.3c0.5,0,0.9,0,1.4,0c0.4,0,0.8,0,1.2-0.1c0.4,0,0.7-0.1,1-0.2
		c0.3-0.1,0.5-0.2,0.8-0.3c0.2-0.1,0.4-0.2,0.5-0.4s0.2-0.3,0.2-0.5c0,0,0,0,0-0.1v-1.6H48v1.4c0,0.6,0.2,1,0.5,1.3
		c0.3,0.3,0.8,0.4,1.3,0.4H50v1.4h-0.3c-1,0-1.8-0.4-2.4-1.2c-0.3,0.3-0.6,0.5-1,0.6c-0.4,0.2-0.9,0.3-1.4,0.4
		c-0.5,0.1-1,0.1-1.5,0.1c-0.5,0-1,0-1.7,0h-0.3c-0.8,0-1.4,0-1.9-0.1S38.4,238,38,237.8z M40.7,231.2c-0.1,0-0.1-0.1-0.1-0.2
		s0-0.1,0.1-0.2l0.7-0.7c0.1,0,0.1-0.1,0.2-0.1c0.1,0,0.1,0,0.2,0.1l0.7,0.7c0.1,0,0.1,0.1,0.1,0.2s0,0.1-0.1,0.2l-0.7,0.7
		c-0.1,0-0.1,0.1-0.2,0.1s-0.1,0-0.2-0.1L40.7,231.2z M42.8,231.2c-0.1,0-0.1-0.1-0.1-0.2s0-0.1,0.1-0.2l0.7-0.7
		c0.1,0,0.1-0.1,0.2-0.1c0.1,0,0.1,0,0.2,0.1l0.7,0.7c0.1,0,0.1,0.1,0.1,0.2s0,0.1-0.1,0.2l-0.7,0.7c-0.1,0-0.1,0.1-0.2,0.1
		s-0.1,0-0.2-0.1L42.8,231.2z"/>
	<path class="st6" d="M49.3,237.7c0-0.2,0.1-0.3,0.2-0.5c0.1-0.1,0.3-0.2,0.5-0.2h2.3c1,0,1.5-0.4,1.5-1.3c0-0.2,0-0.5-0.1-0.9
		s-0.2-0.6-0.2-0.8c-0.1-0.2-0.2-0.4-0.3-0.8l1.3-0.5c0.4,1.1,0.7,2.2,0.7,3c0,1.7-0.9,2.6-2.8,2.6H50c-0.2,0-0.3-0.1-0.5-0.2
		S49.3,237.8,49.3,237.7z M51.2,229.9c-0.1,0-0.1-0.1-0.1-0.2s0-0.2,0.1-0.2l0.8-0.8c0.1,0,0.1-0.1,0.2-0.1s0.1,0,0.2,0.1l0.8,0.8
		c0.1,0,0.1,0.1,0.1,0.2s0,0.2-0.1,0.2l-0.8,0.8c-0.1,0-0.1,0.1-0.2,0.1s-0.1,0-0.2-0.1L51.2,229.9z"/>
	<path class="st6" d="M57.7,235.6V227h1.3v8.3c0,0.6,0.1,1,0.4,1.2s0.6,0.4,1,0.4v1.4c-0.4,0-0.8-0.1-1.1-0.2
		c-0.3-0.1-0.6-0.2-0.8-0.4s-0.4-0.4-0.5-0.6C57.8,236.7,57.7,236.2,57.7,235.6z"/>
	<path class="st6" d="M59.6,237.7c0-0.2,0.1-0.4,0.2-0.5c0.1-0.1,0.3-0.2,0.5-0.2h2.1c0.6,0,1.1-0.1,1.4-0.4s0.4-0.7,0.4-1.3v-1.4
		h1.3v1.4c0,0.6,0.2,1,0.5,1.3s0.8,0.4,1.3,0.4h0.2v1.4h-0.3c-0.7,0-1.2-0.1-1.6-0.3c-0.4-0.2-0.6-0.5-0.8-0.8
		c-0.1,0.3-0.3,0.6-0.7,0.8c-0.4,0.2-0.9,0.3-1.5,0.3h-2.3c-0.2,0-0.3-0.1-0.5-0.2C59.7,238,59.6,237.8,59.6,237.7z M60.4,240.5
		l0.7-0.7c0.1,0,0.1-0.1,0.2-0.1c0.1,0,0.1,0,0.2,0.1l0.7,0.7c0.1,0,0.1,0.1,0.1,0.2s0,0.1-0.1,0.2l-0.7,0.7c-0.1,0-0.1,0.1-0.2,0.1
		s-0.1,0-0.2-0.1l-0.7-0.7c-0.1,0-0.1-0.1-0.1-0.2S60.3,240.5,60.4,240.5z M62.5,240.5l0.7-0.7c0.1,0,0.1-0.1,0.2-0.1
		c0.1,0,0.1,0,0.2,0.1l0.7,0.7c0.1,0,0.1,0.1,0.1,0.2s0,0.1-0.1,0.2l-0.7,0.7c-0.1,0-0.1,0.1-0.2,0.1s-0.1,0-0.2-0.1l-0.7-0.7
		c-0.1,0-0.1-0.1-0.1-0.2S62.4,240.5,62.5,240.5z"/>
	<path class="st6" d="M67.3,238.4c-0.2,0-0.3-0.1-0.4-0.2c-0.1-0.1-0.1-0.3-0.1-0.5s0-0.4,0.1-0.5s0.2-0.2,0.4-0.2h3.5v1.4
		L67.3,238.4L67.3,238.4z"/>
	<path class="st6" d="M70.3,238.1c-0.1-0.1-0.2-0.3-0.2-0.5s0.1-0.3,0.2-0.5c0.1-0.1,0.3-0.2,0.5-0.2h1.1c0.6,0,1.1-0.1,1.3-0.4
		c0.3-0.3,0.4-0.7,0.4-1.3v-1.1H75v1.1c0,0.6,0.2,1,0.6,1.3c0.5-0.6,0.9-1,1.2-1.4s0.7-0.7,1.1-1.1c0.4-0.4,0.8-0.7,1.1-0.9
		c0.3-0.2,0.7-0.4,1.1-0.5c0.4-0.1,0.8-0.2,1.2-0.2c0.6,0,1.1,0.1,1.6,0.4c0.4,0.3,0.8,0.6,1,1c0.2,0.4,0.3,0.9,0.3,1.3
		c0,0.4-0.1,0.8-0.2,1.2s-0.4,0.7-0.6,1c-0.3,0.3-0.6,0.6-1.1,0.7c-0.5,0.2-1,0.3-1.5,0.3h-3.9c-0.7,0-1.2-0.1-1.6-0.3
		c-0.4-0.2-0.6-0.5-0.8-0.8c-0.1,0.3-0.4,0.6-0.7,0.8s-0.8,0.3-1.5,0.3h-1.3C70.6,238.4,70.5,238.3,70.3,238.1z M76.4,236.9h3.8
		c0.8,0,1.5-0.2,1.9-0.5s0.7-0.8,0.7-1.2c0-0.4-0.2-0.7-0.5-1c-0.3-0.3-0.7-0.4-1.2-0.4C79.9,233.8,78.3,234.9,76.4,236.9z"/>
	<path class="st6" d="M90.3,237.9c-0.2-0.3-0.3-0.6-0.3-1s0.1-0.8,0.4-1.3c0.2-0.5,0.6-0.9,1-1.3l0.5,0.5c-0.1,0.1-0.2,0.3-0.3,0.3
		c-0.1,0.1-0.2,0.2-0.2,0.4s-0.1,0.3-0.1,0.5c0,0.3,0.2,0.5,0.5,0.9c0.1,0.2,0.2,0.3,0.2,0.6s-0.1,0.4-0.3,0.6
		c-0.2,0.2-0.4,0.2-0.6,0.2C90.7,238.4,90.5,238.2,90.3,237.9z"/>
	<path class="st6" d="M94.1,237.6l0.6-1.3c0.5,0.3,0.9,0.4,1.5,0.5c0.4-0.5,0.8-0.9,1-1.2V227h1.3v7.3c1.4-1.3,2.5-2,3.4-2.1
		c0.1,0,0.3,0,0.4,0c0.8,0,1.4,0.3,2,0.9c0.5,0.6,0.8,1.3,0.8,2.1c0,0.6-0.2,1.2-0.5,1.7c0.4,0.1,0.9,0.1,1.6,0.1c0.1,0,0.1,0,0.3,0
		c0.1,0,0.2,0,0.2,0v1.4c-0.5,0-0.9,0-1.1,0c-0.3,0-0.6-0.1-1-0.1c-0.4-0.1-0.7-0.2-1-0.3c-0.5,0.3-1.2,0.5-2,0.5H97
		C96,238.4,95.1,238.1,94.1,237.6z M97.4,236.9h3.6c0.6,0,1.1-0.1,1.6-0.3c0.4-0.2,0.8-0.4,1-0.6c0-0.2,0.1-0.3,0.1-0.4
		c0-0.5-0.2-0.9-0.5-1.2c-0.3-0.4-0.8-0.6-1.2-0.6c-0.4,0-0.8,0.1-1.2,0.3c-0.4,0.2-0.9,0.5-1.3,0.8c-0.4,0.3-0.8,0.7-1.1,1
		C98.1,236.3,97.8,236.6,97.4,236.9z M100.3,229.9c0,0-0.1-0.1-0.1-0.2s0-0.2,0.1-0.2l0.8-0.8c0,0,0.1-0.1,0.2-0.1s0.1,0,0.2,0.1
		l0.8,0.8c0,0,0.1,0.1,0.1,0.2s0,0.2-0.1,0.2l-0.8,0.8c0,0-0.1,0.1-0.2,0.1s-0.1,0-0.2-0.1L100.3,229.9z"/>
	<path class="st6" d="M106.2,238.1c-0.1-0.1-0.2-0.3-0.2-0.5s0.1-0.3,0.2-0.5c0.1-0.1,0.3-0.2,0.5-0.2h0.3c0.6,0,1.1,0,1.5-0.1
		c-0.5-0.6-0.8-1.2-0.8-1.9c0-0.5,0.1-1,0.2-1.4c0.2-0.4,0.4-0.7,0.6-1c0.3-0.2,0.5-0.4,0.9-0.6c0.3-0.1,0.7-0.2,1-0.2
		c0.3,0,0.7,0.1,1,0.2s0.6,0.3,0.9,0.5c0.3,0.2,0.5,0.5,0.6,0.9c0.2,0.4,0.2,0.8,0.2,1.2c0,0.4-0.1,0.7-0.3,1.1s-0.5,0.7-0.8,1.1
		c0.5,0,0.9,0,1.3,0h1.2v1.4h-1.2c-1.2,0-2.3-0.2-3.1-0.5c-0.9,0.3-1.9,0.5-3,0.5h-0.5C106.5,238.4,106.3,238.3,106.2,238.1z
		 M109,234.3c0,1,0.4,1.7,1.3,2.1c1-0.5,1.6-1.2,1.6-2.2c0-0.2-0.2-0.4-0.5-0.6s-0.6-0.3-0.9-0.3c-0.3,0-0.7,0.1-1,0.3
		C109.1,233.9,109,234.1,109,234.3z M109.5,228.9c0,0-0.1-0.1-0.1-0.2s0-0.2,0.1-0.2l0.8-0.8c0,0,0.1-0.1,0.2-0.1s0.1,0,0.2,0.1
		l0.8,0.8c0,0,0.1,0.1,0.1,0.2s0,0.2-0.1,0.2l-0.8,0.8c0,0-0.1,0.1-0.2,0.1s-0.1,0-0.2-0.1L109.5,228.9z"/>
	<path class="st6" d="M114.3,238.4c-0.2,0-0.3-0.1-0.4-0.2c-0.1-0.1-0.1-0.3-0.1-0.5s0-0.4,0.1-0.5s0.2-0.2,0.4-0.2h3.5v1.4
		L114.3,238.4L114.3,238.4z"/>
	<path class="st6" d="M117.3,238.1c-0.1-0.1-0.2-0.3-0.2-0.5s0.1-0.3,0.2-0.5c0.1-0.1,0.3-0.2,0.5-0.2h1.8c1.1,0,2.3-0.4,3.6-1.2
		c0.2-0.1,0.5-0.3,0.8-0.5s0.6-0.4,0.7-0.5c-0.4-0.1-0.9-0.3-1.4-0.5c-0.5-0.2-0.9-0.4-1.3-0.5s-0.6-0.2-0.8-0.2
		c-0.4,0-0.9,0.4-1.5,1.1l-0.8-0.7c0.5-0.7,0.9-1.1,1.1-1.3c0.4-0.4,0.9-0.6,1.3-0.6c0.5,0,1.3,0.3,2.4,0.9c0.4,0.2,0.9,0.4,1.6,0.6
		s1.2,0.3,1.9,0.3h1.1l-0.3,1.4h-0.5c-0.6,0-1.3,0.2-2,0.6c-0.3,0.2-0.6,0.4-1,0.6s-0.7,0.4-1,0.7s-0.7,0.4-1.1,0.6
		c-0.9,0.4-1.8,0.6-2.8,0.6h-1.8C117.6,238.4,117.5,238.3,117.3,238.1z"/>
	<path class="st6" d="M143.8,240.4L143.8,240.4c-0.5,0.7-1.3,1.2-2.3,1.7s-2,0.6-3,0.6c-0.9,0-1.7-0.2-2.4-0.5
		c-0.7-0.4-1.3-0.9-1.5-1.6c-0.1-0.4-0.2-0.8-0.2-1.2c0-1.1,0.5-2.4,1.4-3.9l0.9,0.6c-0.6,1.1-0.9,2.1-0.9,3c0,0.5,0.1,1,0.4,1.3
		c0.3,0.3,0.6,0.6,1,0.7c0.4,0.1,0.9,0.2,1.4,0.2c0.9,0,1.8-0.2,2.6-0.5c0.9-0.4,1.5-0.8,1.8-1.3c0-0.1,0.1-0.2,0.1-0.3
		s0-0.2-0.1-0.3c-0.1-0.1-0.3-0.2-0.5-0.3c-0.2-0.1-0.4-0.2-0.6-0.3s-0.4-0.2-0.7-0.3c-0.3-0.1-0.5-0.2-0.6-0.2
		c-0.2-0.1-0.4-0.2-0.5-0.4s-0.2-0.5-0.2-0.8s0.1-0.7,0.4-1.2c0.4-0.8,0.9-1.4,1.5-1.9c0.5-0.5,1.1-0.7,1.6-0.7
		c0.9,0,1.7,0.6,2.3,1.9l-1,0.8c-0.3-0.4-0.5-0.8-0.8-1s-0.5-0.3-0.7-0.3s-0.5,0.1-0.7,0.3s-0.5,0.5-0.9,0.8
		c-0.3,0.4-0.5,0.6-0.5,0.9c0,0.1,0,0.2,0.1,0.2c0.1,0.1,0.1,0.1,0.2,0.1c0.1,0,0.1,0.1,0.3,0.1c0.8,0.3,1.3,0.5,1.6,0.7
		c0.8,0.4,1.2,1,1.2,1.6C144.5,239.3,144.3,239.8,143.8,240.4z"/>
	<path class="st6" d="M147.7,238.4V227h1.3v11.3H147.7z"/>
	<path class="st6" d="M158.8,236.9v1.4c-0.5,0-1,0-1.3-0.1c-0.3-0.1-0.6-0.3-0.8-0.5c0,0.8-0.2,1.5-0.7,2.2
		c-0.5,0.7-1.1,1.3-1.8,1.8c-0.8,0.5-1.7,0.9-2.7,1.3l-0.5-1.3c1-0.4,2-0.9,2.8-1.6c0.4-0.3,0.8-0.7,1-1.1c0.3-0.4,0.4-0.8,0.4-1.1
		c0-0.3,0-0.6,0-0.8c0-0.2-0.1-0.6-0.3-1c-0.2-0.5-0.4-0.9-0.7-1.4l1.1-0.9c0.2,0.3,0.4,0.7,0.7,1.4c0.1,0.2,0.2,0.4,0.4,0.6
		s0.3,0.4,0.5,0.6c0.2,0.1,0.4,0.3,0.7,0.4S158.4,236.9,158.8,236.9z"/>
	<path class="st6" d="M158.6,238.4c-0.2,0-0.3-0.1-0.4-0.2c-0.1-0.1-0.1-0.3-0.1-0.5s0-0.4,0.1-0.5s0.2-0.2,0.4-0.2h3.5v1.4
		L158.6,238.4L158.6,238.4z"/>
	<path class="st6" d="M161.4,237.7c0-0.2,0.1-0.3,0.2-0.5c0.1-0.1,0.3-0.2,0.5-0.2h2.3c1,0,1.5-0.4,1.5-1.3c0-0.2,0-0.5-0.1-0.9
		s-0.2-0.6-0.2-0.8s-0.2-0.4-0.3-0.8l1.3-0.5c0.4,1.1,0.7,2.2,0.7,3c0,1.7-0.9,2.6-2.8,2.6h-2.3c-0.2,0-0.3-0.1-0.5-0.2
		S161.4,237.8,161.4,237.7z M162.8,240.5l0.8-0.8c0,0,0.1-0.1,0.2-0.1c0.1,0,0.1,0,0.2,0.1l0.8,0.8c0,0,0.1,0.1,0.1,0.2
		s0,0.1-0.1,0.2l-0.8,0.8c-0.1,0.1-0.1,0.1-0.2,0.1c-0.1,0-0.1,0-0.2-0.1l-0.8-0.8c0-0.1-0.1-0.1-0.1-0.2
		C162.8,240.7,162.8,240.6,162.8,240.5z"/>
	<path class="st6" d="M-127.5,266.7c0-1.1,0.5-2.4,1.4-4l0.9,0.6c-0.6,1.2-1,2.2-1,3c0,0.4,0.1,0.7,0.2,1c0.1,0.3,0.4,0.5,0.6,0.7
		c0.5,0.3,1.2,0.5,1.9,0.5c0.7,0,1.5-0.1,2.2-0.4c0.7-0.2,1.3-0.6,1.8-1c0.5-0.4,0.7-0.8,0.7-1.2v-11.6h1.3v11.5
		c0,0.6-0.2,1.2-0.6,1.7c-0.4,0.5-0.8,0.9-1.4,1.3c-0.6,0.3-1.2,0.6-1.9,0.8c-0.7,0.2-1.3,0.3-1.9,0.3c-0.6,0-1.1,0-1.5-0.1
		c-0.4-0.1-0.8-0.2-1.1-0.4c-0.4-0.2-0.7-0.4-0.9-0.6c-0.3-0.3-0.5-0.6-0.6-0.9S-127.5,267.2-127.5,266.7z"/>
	<path class="st6" d="M-115.2,263v-8.6h1.3v8.3c0,0.6,0.1,1,0.4,1.2c0.3,0.3,0.6,0.4,1,0.4v1.4c-0.4,0-0.8-0.1-1.1-0.2
		c-0.3-0.1-0.6-0.2-0.8-0.4c-0.2-0.2-0.4-0.4-0.5-0.6C-115.1,264.1-115.2,263.6-115.2,263z"/>
	<path class="st6" d="M-113.2,265c0-0.2,0.1-0.4,0.2-0.5c0.1-0.1,0.3-0.2,0.5-0.2h2.1c0.6,0,1.1-0.1,1.4-0.4
		c0.3-0.3,0.4-0.7,0.4-1.3v-1.4h1.3v1.4c0,0.6,0.2,1,0.5,1.3c0.3,0.3,0.8,0.4,1.3,0.4h0.2v1.4h-0.3c-0.7,0-1.2-0.1-1.6-0.3
		c-0.4-0.2-0.6-0.5-0.8-0.8c-0.1,0.3-0.3,0.6-0.7,0.8c-0.4,0.2-0.9,0.3-1.5,0.3h-2.3c-0.2,0-0.3-0.1-0.5-0.2
		C-113.1,265.4-113.2,265.2-113.2,265z M-111.8,258.4c-0.1,0-0.1-0.1-0.1-0.2s0-0.1,0.1-0.2l0.7-0.7c0.1,0,0.1-0.1,0.2-0.1
		s0.1,0,0.2,0.1l0.7,0.7c0.1,0,0.1,0.1,0.1,0.2s0,0.1-0.1,0.2l-0.7,0.7c-0.1,0-0.1,0.1-0.2,0.1c-0.1,0-0.1,0-0.2-0.1L-111.8,258.4z
		 M-109.6,258.4c-0.1,0-0.1-0.1-0.1-0.2s0-0.1,0.1-0.2l0.7-0.7c0.1,0,0.1-0.1,0.2-0.1s0.1,0,0.2,0.1l0.7,0.7c0.1,0,0.1,0.1,0.1,0.2
		s0,0.1-0.1,0.2l-0.7,0.7c-0.1,0-0.1,0.1-0.2,0.1c-0.1,0-0.1,0-0.2-0.1L-109.6,258.4z"/>
	<path class="st6" d="M-106.1,265c0-0.2,0.1-0.4,0.2-0.5c0.1-0.1,0.3-0.2,0.5-0.2h2.1c0.6,0,1.1-0.1,1.4-0.4
		c0.3-0.3,0.4-0.7,0.4-1.3v-1.4h1.3v1.4c0,0.6,0.2,1,0.5,1.3c0.3,0.3,0.8,0.4,1.3,0.4h0.2v1.4h-0.3c-0.7,0-1.2-0.1-1.6-0.3
		c-0.4-0.2-0.6-0.5-0.8-0.8c-0.1,0.3-0.3,0.6-0.7,0.8c-0.4,0.2-0.9,0.3-1.5,0.3h-2.3c-0.2,0-0.3-0.1-0.5-0.2
		C-106,265.4-106.1,265.2-106.1,265z M-105.4,267.8l0.7-0.7c0.1,0,0.1-0.1,0.2-0.1c0.1,0,0.1,0,0.2,0.1l0.7,0.7
		c0.1,0,0.1,0.1,0.1,0.2s0,0.1-0.1,0.2l-0.7,0.7c-0.1,0-0.1,0.1-0.2,0.1s-0.1,0-0.2-0.1l-0.7-0.7c-0.1,0-0.1-0.1-0.1-0.2
		S-105.4,267.9-105.4,267.8z M-103.2,267.8l0.7-0.7c0.1,0,0.1-0.1,0.2-0.1c0.1,0,0.1,0,0.2,0.1l0.7,0.7c0.1,0,0.1,0.1,0.1,0.2
		s0,0.1-0.1,0.2l-0.7,0.7c-0.1,0-0.1,0.1-0.2,0.1s-0.1,0-0.2-0.1l-0.7-0.7c-0.1,0-0.1-0.1-0.1-0.2S-103.3,267.9-103.2,267.8z"/>
	<path class="st6" d="M-98.7,265.5c-0.1-0.1-0.2-0.3-0.2-0.5c0-0.2,0.1-0.3,0.2-0.5c0.1-0.1,0.3-0.2,0.5-0.2h1.8c0.3,0,0.7,0,1-0.1
		c0.3-0.1,0.6-0.1,0.9-0.2c0.3-0.1,0.5-0.2,0.9-0.4c0.3-0.2,0.6-0.3,0.8-0.4c0.2-0.1,0.5-0.3,0.8-0.5c0.3-0.2,0.6-0.4,0.7-0.5
		c-0.4-0.1-0.9-0.3-1.4-0.5c-0.5-0.2-0.9-0.4-1.3-0.5s-0.6-0.2-0.8-0.2c-0.4,0-0.9,0.4-1.5,1.1l-0.8-0.7c0.5-0.7,0.9-1.1,1.1-1.3
		c0.4-0.4,0.9-0.6,1.3-0.6c0.3,0,0.7,0.1,1.1,0.3c0.5,0.2,0.9,0.4,1.3,0.6c0.4,0.2,0.9,0.4,1.6,0.6c0.6,0.2,1.2,0.3,1.9,0.3h1.1
		l-0.3,1.4h-0.5c-0.3,0-0.6,0.1-0.9,0.1c0.1,0.5,0.4,0.9,0.8,1.2c0.4,0.3,1,0.4,1.8,0.4v1.4c-1.2,0-2-0.2-2.6-0.6
		c-0.6-0.4-0.9-1-1.1-1.9c-0.2,0.1-0.6,0.3-1,0.6c-0.4,0.3-0.8,0.5-1.1,0.7c-0.3,0.2-0.7,0.4-1.1,0.6s-0.9,0.4-1.3,0.5
		c-0.5,0.1-1,0.2-1.5,0.2h-1.8C-98.4,265.7-98.5,265.7-98.7,265.5z M-95.8,267.9l0.8-0.8c0.1,0,0.1-0.1,0.2-0.1s0.1,0,0.2,0.1
		l0.8,0.8c0.1,0,0.1,0.1,0.1,0.2s0,0.1-0.1,0.2l-0.8,0.8c-0.1,0.1-0.1,0.1-0.2,0.1s-0.1,0-0.2-0.1l-0.8-0.8
		c-0.1-0.1-0.1-0.1-0.1-0.2S-95.9,267.9-95.8,267.9z"/>
	<path class="st6" d="M-87.6,265c0-0.2,0.1-0.3,0.2-0.5c0.1-0.1,0.3-0.2,0.5-0.2h2.3c1,0,1.5-0.4,1.5-1.3c0-0.2,0-0.5-0.1-0.9
		c-0.1-0.3-0.2-0.6-0.2-0.8c-0.1-0.2-0.2-0.4-0.3-0.8l1.3-0.5c0.4,1.1,0.7,2.2,0.7,3c0,1.7-0.9,2.6-2.8,2.6h-2.3
		c-0.2,0-0.3-0.1-0.5-0.2C-87.5,265.4-87.6,265.2-87.6,265z M-87.4,267.9l0.7-0.7c0.1,0,0.1-0.1,0.2-0.1s0.1,0,0.2,0.1l0.7,0.7
		c0.1,0,0.1,0.1,0.1,0.2c0,0.1,0,0.1-0.1,0.2l-0.7,0.7c-0.1,0-0.1,0.1-0.2,0.1c-0.1,0-0.1,0-0.2-0.1l-0.7-0.7
		c-0.1-0.1-0.1-0.1-0.1-0.2C-87.5,268-87.5,267.9-87.4,267.9z M-85.3,267.9l0.7-0.7c0.1,0,0.1-0.1,0.2-0.1s0.1,0,0.2,0.1l0.7,0.7
		c0.1,0,0.1,0.1,0.1,0.2c0,0.1,0,0.1-0.1,0.2l-0.7,0.7c-0.1,0-0.1,0.1-0.2,0.1c-0.1,0-0.1,0-0.2-0.1l-0.7-0.7
		c-0.1-0.1-0.1-0.1-0.1-0.2C-85.4,268-85.3,267.9-85.3,267.9z"/>
	<path class="st6" d="M-76.4,264.3c1,0,1.8-0.3,2.3-0.9c-0.1-1.1-0.9-2.5-2.3-4.1l1-0.9c0.6,0.6,1.1,1.3,1.7,2.1
		c0.3,0.5,0.5,0.9,0.7,1.5c0.2,0.5,0.3,1,0.3,1.5c0,0.2-0.1,0.5-0.4,0.9c-0.1,0.1-0.1,0.1-0.1,0.2c-0.8,0.8-1.9,1.2-3.1,1.2
		c-1,0-1.9-0.3-2.9-0.8l0.6-1.3C-78,264.1-77.2,264.3-76.4,264.3z"/>
	<path class="st6" d="M-57.6,267.7L-57.6,267.7c-0.5,0.7-1.3,1.2-2.3,1.7c-1,0.4-2,0.6-3,0.6c-0.9,0-1.7-0.2-2.4-0.5
		c-0.7-0.4-1.3-0.9-1.5-1.6c-0.1-0.4-0.2-0.8-0.2-1.2c0-1.1,0.5-2.4,1.4-3.9l0.9,0.6c-0.6,1.1-0.9,2.1-0.9,3c0,0.5,0.1,1,0.4,1.3
		c0.3,0.3,0.6,0.6,1,0.7c0.4,0.1,0.9,0.2,1.4,0.2c0.9,0,1.8-0.2,2.6-0.5c0.9-0.4,1.5-0.8,1.8-1.3c0-0.1,0.1-0.2,0.1-0.3
		c0-0.1-0.1-0.2-0.1-0.3c-0.1-0.1-0.3-0.2-0.5-0.3c-0.2-0.1-0.4-0.2-0.6-0.3c-0.2-0.1-0.4-0.2-0.7-0.3c-0.3-0.1-0.5-0.2-0.6-0.2
		c-0.2-0.1-0.4-0.2-0.5-0.4c-0.1-0.2-0.2-0.5-0.2-0.8c0-0.3,0.1-0.7,0.4-1.2c0.4-0.8,0.9-1.4,1.5-1.9c0.5-0.5,1.1-0.7,1.6-0.7
		c0.9,0,1.7,0.6,2.3,1.9l-1,0.8c-0.3-0.4-0.5-0.8-0.8-1c-0.2-0.2-0.5-0.3-0.7-0.3c-0.2,0-0.5,0.1-0.7,0.3c-0.2,0.2-0.5,0.5-0.9,0.8
		c-0.3,0.4-0.5,0.6-0.5,0.9c0,0.1,0,0.2,0.1,0.2s0.1,0.1,0.2,0.1c0.1,0,0.1,0.1,0.3,0.1c0.8,0.3,1.3,0.5,1.6,0.7
		c0.8,0.4,1.2,1,1.2,1.6C-57,266.6-57.2,267.2-57.6,267.7z"/>
	<path class="st6" d="M-53.7,263v-8.6h1.3v8.3c0,0.6,0.1,1,0.4,1.2c0.3,0.3,0.6,0.4,1,0.4v1.4c-0.4,0-0.8-0.1-1.1-0.2
		c-0.3-0.1-0.6-0.2-0.8-0.4c-0.2-0.2-0.4-0.4-0.5-0.6C-53.6,264.1-53.7,263.6-53.7,263z"/>
	<path class="st6" d="M-51.2,265.7c-0.2,0-0.3-0.1-0.4-0.2c-0.1-0.1-0.1-0.3-0.1-0.5c0-0.2,0-0.4,0.1-0.5c0.1-0.1,0.2-0.2,0.4-0.2
		h3.5v1.4H-51.2z"/>
	<path class="st6" d="M-48.2,265.5c-0.1-0.1-0.2-0.3-0.2-0.5s0.1-0.4,0.2-0.5c0.1-0.1,0.3-0.2,0.5-0.2h1.4c0.4,0,0.7,0,1-0.1
		c-0.8-0.6-1.2-1.2-1.2-2c0-0.7,0.3-1.3,0.8-2c0.3-0.3,0.6-0.6,0.9-0.8c-0.3-0.1-0.4-0.2-0.5-0.2l0.4-1.3c0.8,0.3,1.6,0.7,2.3,1.1
		c0.7,0.4,1.3,0.7,1.7,1c0.4,0.3,0.7,0.6,1.1,0.9c0.8,0.7,1.2,1.5,1.2,2.4c0,0.8-0.3,1.5-1,2.3c-0.1,0.1-0.4,0.2-0.9,0.2
		s-1-0.1-1.6-0.2c-0.6-0.1-1.2-0.3-1.7-0.5c-0.7,0.5-1.4,0.7-2.2,0.7h-1.8C-47.9,265.7-48,265.7-48.2,265.5z M-45.2,262
		c0,0.5,0.5,0.9,1.5,1.4c0.5-0.5,0.8-1,0.8-1.6c0-0.5-0.1-0.8-0.2-1c-0.1-0.2-0.3-0.3-0.6-0.3c-0.3,0-0.5,0.1-0.8,0.4
		c-0.3,0.3-0.5,0.6-0.6,1C-45.2,261.9-45.2,262-45.2,262z M-40.6,264.3c0.3,0,0.4,0,0.5-0.1c0.2-0.3,0.4-0.6,0.4-0.9
		c0-0.7-0.7-1.5-2-2.3c0,0.2,0,0.4,0,0.6c0,0.8-0.3,1.6-0.8,2.4C-41.7,264.2-41,264.3-40.6,264.3z"/>
	<path class="st6" d="M-35.4,264c-0.4-0.3-0.6-0.7-0.6-1.2c0-0.5,0.3-1.1,0.8-1.8s1.2-1.2,2.1-1.8l-0.2-0.9l1.2-0.6l1.1,4.6
		c0.1,0.5,0.2,0.8,0.3,1c0.3,0.7,0.9,1,1.8,1v1.4c-1.4,0-2.3-0.5-2.8-1.4v0c-0.6,0.1-1.1,0.2-1.6,0.2
		C-34.3,264.5-34.9,264.3-35.4,264z M-34.8,262.6c0,0.2,0.1,0.3,0.3,0.4c0.2,0.1,0.5,0.1,0.8,0.1c0.3,0,0.8-0.1,1.4-0.1l-0.5-2.2
		C-34.1,261.5-34.8,262.1-34.8,262.6z"/>
	<path class="st6" d="M-29.8,265c0-0.2,0.1-0.3,0.2-0.5c0.1-0.1,0.3-0.2,0.5-0.2h2.3c1,0,1.5-0.4,1.5-1.3c0-0.2,0-0.5-0.1-0.9
		c-0.1-0.3-0.2-0.6-0.2-0.8c-0.1-0.2-0.2-0.4-0.3-0.8l1.3-0.5c0.4,1.1,0.7,2.2,0.7,3c0,1.7-0.9,2.6-2.8,2.6H-29
		c-0.2,0-0.3-0.1-0.5-0.2C-29.7,265.4-29.8,265.2-29.8,265z M-27.9,257.3c-0.1,0-0.1-0.1-0.1-0.2s0-0.2,0.1-0.2l0.8-0.8
		c0.1,0,0.1-0.1,0.2-0.1s0.1,0,0.2,0.1l0.8,0.8c0.1,0,0.1,0.1,0.1,0.2s0,0.2-0.1,0.2l-0.8,0.8c-0.1,0-0.1,0.1-0.2,0.1
		s-0.1,0-0.2-0.1L-27.9,257.3z"/>
	<path class="st6" d="M-21.4,263v-8.6h1.3v8.3c0,0.6,0.1,1,0.4,1.2c0.3,0.3,0.6,0.4,1,0.4v1.4c-0.4,0-0.8-0.1-1.1-0.2
		c-0.3-0.1-0.6-0.2-0.8-0.4c-0.2-0.2-0.4-0.4-0.5-0.6C-21.3,264.1-21.4,263.6-21.4,263z"/>
	<path class="st6" d="M-19.2,265.5c-0.1-0.1-0.2-0.3-0.2-0.5c0-0.2,0.1-0.3,0.2-0.5c0.1-0.1,0.3-0.2,0.5-0.2h1.4
		c0.5,0,0.9-0.1,1.2-0.4c0.3-0.2,0.5-0.5,0.6-0.9l0.4-1.7l1.3,0.3l-0.5,2.1c0.6,0.4,1.2,0.6,1.8,0.6c0.4,0,0.7-0.1,1-0.3
		c0.3-0.2,0.5-0.5,0.6-1l0.3-1.4l1.3,0.3l-0.4,1.8c0.5,0.4,1,0.6,1.7,0.6c0.5,0,0.9-0.1,1.1-0.3s0.4-0.4,0.4-0.8c0-0.3,0-0.7-0.1-1
		c-0.1-0.3-0.3-0.9-0.5-1.5l1.3-0.6c0.2,0.7,0.4,1.3,0.5,1.7c0.1,0.4,0.1,0.9,0.1,1.3c0,0.9-0.3,1.5-0.8,1.9
		c-0.5,0.4-1.2,0.6-2.1,0.6c-0.5,0-0.9-0.1-1.4-0.2c-0.4-0.2-0.8-0.4-1-0.6c-0.5,0.6-1.2,0.8-2.1,0.8c-0.4,0-0.9-0.1-1.3-0.2
		c-0.4-0.1-0.8-0.4-1.1-0.6c-0.6,0.6-1.3,0.9-2.1,0.9h-1.5C-18.9,265.7-19.1,265.7-19.2,265.5z"/>
	<path class="st6" d="M1.1,267.6c0.3-0.3,0.4-0.6,0.4-1s0-0.8-0.1-1.2c0-0.4-0.2-1-0.3-1.6c-0.2-0.7-0.4-1.2-0.7-1.7l1.1-0.9
		c0.6,1,1,2.1,1.1,3.2c0.1,0.5,0.1,0.9,0.1,1.2s0,0.6,0,1.1c0,0.4-0.1,0.8-0.3,1.2c-0.2,0.4-0.4,0.7-0.7,0.9
		c-0.3,0.3-0.7,0.5-1.1,0.7c-0.8,0.4-1.8,0.7-3.1,0.9l-0.5-1.3c1.1-0.1,2.1-0.4,2.9-0.7C0.4,268.2,0.8,267.9,1.1,267.6z"/>
	<path class="st6" d="M13.1,265.4c-0.6,0.2-1.1,0.3-1.7,0.3c-0.6,0-1-0.1-1.4-0.4c-0.7-0.5-1-1.2-1-2.2c0-0.5,0.1-1,0.3-1.5
		c0.2-0.5,0.5-0.9,0.9-1.2c0.4-0.3,0.9-0.5,1.4-0.5c1,0,1.7,0.4,2.1,1.2c0.5,0.8,0.7,2.1,0.7,3.9c0,0.8-0.3,1.5-0.8,2.3
		s-1.2,1.3-2.1,1.9c-0.9,0.5-1.8,0.9-2.9,1.2l-0.3-1.4c1-0.3,2-0.7,3-1.4c0.5-0.3,0.9-0.7,1.2-1.1C12.9,266.3,13.1,265.8,13.1,265.4
		z M10.6,262c-0.2,0.3-0.3,0.7-0.3,1s0.1,0.7,0.3,0.9c0.2,0.2,0.5,0.4,0.9,0.4h0.1c0.3,0,0.6,0,0.9-0.1c0.3-0.1,0.5-0.2,0.6-0.3
		l0.1,0.3c-0.1-1.8-0.6-2.7-1.6-2.7C11.2,261.5,10.9,261.7,10.6,262z"/>
	<path class="st6" d="M29.6,267.7L29.6,267.7c-0.5,0.7-1.3,1.2-2.3,1.7c-1,0.4-2,0.6-3,0.6c-0.9,0-1.7-0.2-2.4-0.5
		c-0.7-0.4-1.3-0.9-1.5-1.6c-0.1-0.4-0.2-0.8-0.2-1.2c0-1.1,0.5-2.4,1.4-3.9l0.9,0.6c-0.6,1.1-0.9,2.1-0.9,3c0,0.5,0.1,1,0.4,1.3
		c0.3,0.3,0.6,0.6,1,0.7c0.4,0.1,0.9,0.2,1.4,0.2c0.9,0,1.8-0.2,2.6-0.5c0.9-0.4,1.5-0.8,1.8-1.3c0-0.1,0.1-0.2,0.1-0.3
		c0-0.1-0.1-0.2-0.1-0.3c-0.1-0.1-0.3-0.2-0.5-0.3c-0.2-0.1-0.4-0.2-0.6-0.3c-0.2-0.1-0.4-0.2-0.7-0.3c-0.3-0.1-0.5-0.2-0.6-0.2
		c-0.2-0.1-0.4-0.2-0.5-0.4c-0.1-0.2-0.2-0.5-0.2-0.8c0-0.3,0.1-0.7,0.4-1.2c0.4-0.8,0.9-1.4,1.5-1.9c0.5-0.5,1.1-0.7,1.6-0.7
		c0.9,0,1.7,0.6,2.3,1.9l-1,0.8c-0.3-0.4-0.5-0.8-0.8-1c-0.2-0.2-0.5-0.3-0.7-0.3c-0.2,0-0.5,0.1-0.7,0.3c-0.2,0.2-0.5,0.5-0.9,0.8
		c-0.3,0.4-0.5,0.6-0.5,0.9c0,0.1,0,0.2,0.1,0.2s0.1,0.1,0.2,0.1c0.1,0,0.1,0.1,0.3,0.1c0.8,0.3,1.3,0.5,1.6,0.7
		c0.8,0.4,1.2,1,1.2,1.6C30.2,266.6,30,267.2,29.6,267.7z"/>
	<path class="st6" d="M37.4,267.6c0.3-0.3,0.4-0.6,0.4-1s0-0.8-0.1-1.2s-0.2-1-0.3-1.6c-0.2-0.7-0.4-1.2-0.7-1.7l1.1-0.9
		c0.6,1,1,2.1,1.1,3.2c0.1,0.5,0.1,0.9,0.1,1.2s0,0.6,0,1.1c0,0.4-0.1,0.8-0.3,1.2c-0.2,0.4-0.4,0.7-0.7,0.9
		c-0.3,0.3-0.7,0.5-1.1,0.7c-0.8,0.4-1.8,0.7-3.1,0.9l-0.5-1.3c1.1-0.1,2.1-0.4,2.9-0.7C36.8,268.2,37.2,267.9,37.4,267.6z
		 M37.2,259c0-0.1,0-0.2,0.1-0.2l0.8-0.8c0.1,0,0.1-0.1,0.2-0.1s0.1,0,0.2,0.1l0.8,0.8c0.1,0,0.1,0.1,0.1,0.2s0,0.2-0.1,0.2
		l-0.8,0.8c-0.1,0-0.1,0.1-0.2,0.1s-0.1,0-0.2-0.1l-0.8-0.8C37.2,259.2,37.2,259.1,37.2,259z"/>
	<path class="st6" d="M41.2,263v-8.6h1.3v8.3c0,0.6,0.1,1,0.4,1.2c0.3,0.3,0.6,0.4,1,0.4v1.4c-0.4,0-0.8-0.1-1.1-0.2
		c-0.3-0.1-0.6-0.2-0.8-0.4c-0.2-0.2-0.4-0.4-0.5-0.6C41.4,264.1,41.2,263.6,41.2,263z"/>
	<path class="st6" d="M43.5,265.5c-0.1-0.1-0.2-0.3-0.2-0.5c0-0.2,0.1-0.3,0.2-0.5c0.1-0.1,0.3-0.2,0.5-0.2h1.8c0.3,0,0.7,0,1-0.1
		c0.3-0.1,0.6-0.1,0.9-0.2c0.3-0.1,0.5-0.2,0.9-0.4c0.3-0.2,0.6-0.3,0.8-0.4c0.2-0.1,0.5-0.3,0.8-0.5c0.3-0.2,0.6-0.4,0.7-0.5
		c-0.4-0.1-0.9-0.3-1.4-0.5c-0.5-0.2-0.9-0.4-1.3-0.5s-0.6-0.2-0.8-0.2c-0.4,0-0.9,0.4-1.5,1.1l-0.8-0.7c0.5-0.7,0.9-1.1,1.1-1.3
		c0.4-0.4,0.9-0.6,1.3-0.6c0.3,0,0.7,0.1,1.1,0.3c0.5,0.2,0.9,0.4,1.3,0.6c0.4,0.2,0.9,0.4,1.6,0.6c0.6,0.2,1.2,0.3,1.9,0.3h1.1
		l-0.3,1.4h-0.5c-0.3,0-0.6,0.1-0.9,0.1c0.1,0.5,0.4,0.9,0.8,1.2c0.4,0.3,1,0.4,1.8,0.4v1.4c-1.2,0-2-0.2-2.6-0.6
		c-0.6-0.4-0.9-1-1.1-1.9c-0.2,0.1-0.6,0.3-1,0.6s-0.8,0.5-1.1,0.7s-0.7,0.4-1.1,0.6s-0.9,0.4-1.3,0.5c-0.5,0.1-1,0.2-1.5,0.2h-1.8
		C43.8,265.7,43.6,265.7,43.5,265.5z M46.3,267.9l0.8-0.8c0.1,0,0.1-0.1,0.2-0.1s0.1,0,0.2,0.1l0.8,0.8c0.1,0,0.1,0.1,0.1,0.2
		s0,0.1-0.1,0.2l-0.8,0.8c-0.1,0.1-0.1,0.1-0.2,0.1s-0.1,0-0.2-0.1l-0.8-0.8c-0.1-0.1-0.1-0.1-0.1-0.2S46.3,267.9,46.3,267.9z"/>
	<path class="st6" d="M55.1,265.7c-0.2,0-0.3-0.1-0.4-0.2c-0.1-0.1-0.1-0.3-0.1-0.5c0-0.2,0-0.4,0.1-0.5c0.1-0.1,0.2-0.2,0.4-0.2
		h3.5v1.4H55.1z"/>
	<path class="st6" d="M57.9,265c0-0.2,0.1-0.4,0.2-0.5c0.1-0.1,0.3-0.2,0.5-0.2h0.3c0.2,0,0.5,0,0.7-0.1s0.4-0.1,0.6-0.2
		c0.2-0.1,0.3-0.2,0.5-0.3c0.1-0.1,0.3-0.2,0.4-0.4c0.1-0.1,0.2-0.3,0.3-0.4s0.2-0.3,0.2-0.4c0.1-0.1,0.1-0.3,0.2-0.5
		c0,0,0-0.1,0-0.1c0.3-0.6,0.6-1,0.9-1.3s0.7-0.4,1.1-0.4c0.5,0,0.9,0.2,1.4,0.6c0.4,0.4,0.8,0.8,1.1,1.4c0.3,0.6,0.4,1.2,0.4,1.8
		c0,1.3-0.6,2-1.7,2c-0.3,0-0.6,0-0.9-0.1c-0.4-0.1-0.6-0.1-0.9-0.2c-0.2-0.1-0.5-0.2-1-0.3s-0.7-0.3-0.8-0.3
		c-0.5,0.5-1.3,0.7-2.3,0.7h-0.4c-0.2,0-0.3-0.1-0.5-0.2C57.9,265.4,57.9,265.2,57.9,265z M62.1,263.9c0,0,0.1,0,0.3,0.1
		c0.2,0.1,0.3,0.1,0.3,0.1c0,0,0.1,0,0.3,0.1c0.1,0.1,0.2,0.1,0.3,0.1c0.1,0,0.2,0,0.3,0.1c0.1,0,0.2,0.1,0.3,0.1
		c0.1,0,0.2,0,0.3,0.1s0.2,0,0.3,0c0.1,0,0.2,0,0.2,0c0.4,0,0.7-0.2,0.7-0.5c0-0.2-0.1-0.5-0.2-0.8c-0.2-0.4-0.4-0.7-0.6-1
		c-0.3-0.3-0.5-0.5-0.8-0.5c-0.2,0-0.5,0.3-0.8,0.8c-0.1,0.1-0.2,0.4-0.4,0.7C62.3,263.5,62.2,263.8,62.1,263.9z"/>
	<path class="st6" d="M82.1,267.7L82.1,267.7c-0.5,0.7-1.3,1.2-2.3,1.7c-1,0.4-2,0.6-3,0.6c-0.9,0-1.7-0.2-2.4-0.5
		c-0.7-0.4-1.3-0.9-1.5-1.6c-0.1-0.4-0.2-0.8-0.2-1.2c0-1.1,0.5-2.4,1.4-3.9l0.9,0.6c-0.6,1.1-0.9,2.1-0.9,3c0,0.5,0.1,1,0.4,1.3
		s0.6,0.6,1,0.7c0.4,0.1,0.9,0.2,1.4,0.2c0.9,0,1.8-0.2,2.6-0.5c0.9-0.4,1.5-0.8,1.8-1.3c0-0.1,0.1-0.2,0.1-0.3c0-0.1,0-0.2-0.1-0.3
		c-0.1-0.1-0.3-0.2-0.5-0.3c-0.2-0.1-0.4-0.2-0.6-0.3c-0.2-0.1-0.4-0.2-0.7-0.3c-0.3-0.1-0.5-0.2-0.6-0.2c-0.2-0.1-0.4-0.2-0.5-0.4
		s-0.2-0.5-0.2-0.8c0-0.3,0.1-0.7,0.4-1.2c0.4-0.8,0.9-1.4,1.5-1.9s1.1-0.7,1.6-0.7c0.9,0,1.7,0.6,2.3,1.9l-1,0.8
		c-0.3-0.4-0.5-0.8-0.8-1c-0.2-0.2-0.5-0.3-0.7-0.3c-0.2,0-0.5,0.1-0.7,0.3c-0.2,0.2-0.5,0.5-0.9,0.8c-0.3,0.4-0.5,0.6-0.5,0.9
		c0,0.1,0,0.2,0.1,0.2s0.1,0.1,0.2,0.1c0.1,0,0.1,0.1,0.3,0.1c0.8,0.3,1.3,0.5,1.6,0.7c0.8,0.4,1.2,1,1.2,1.6
		C82.7,266.6,82.5,267.2,82.1,267.7z"/>
	<path class="st6" d="M86,263v-8.6h1.3v8.3c0,0.6,0.1,1,0.4,1.2c0.3,0.3,0.6,0.4,1,0.4v1.4c-0.4,0-0.8-0.1-1.1-0.2
		c-0.3-0.1-0.6-0.2-0.8-0.4c-0.2-0.2-0.4-0.4-0.5-0.6C86.1,264.1,86,263.6,86,263z"/>
	<path class="st6" d="M88.5,265.7c-0.2,0-0.3-0.1-0.4-0.2c-0.1-0.1-0.1-0.3-0.1-0.5c0-0.2,0-0.4,0.1-0.5c0.1-0.1,0.2-0.2,0.4-0.2H92
		v1.4H88.5z"/>
	<path class="st6" d="M91.5,265.5c-0.1-0.1-0.2-0.3-0.2-0.5s0.1-0.4,0.2-0.5c0.1-0.1,0.3-0.2,0.5-0.2h1.4c0.4,0,0.7,0,1-0.1
		c-0.8-0.6-1.2-1.2-1.2-2c0-0.7,0.3-1.3,0.8-2c0.3-0.3,0.6-0.6,0.9-0.8c-0.3-0.1-0.4-0.2-0.5-0.2l0.4-1.3c0.8,0.3,1.6,0.7,2.3,1.1
		c0.7,0.4,1.3,0.7,1.7,1c0.4,0.3,0.7,0.6,1.1,0.9c0.8,0.7,1.2,1.5,1.2,2.4c0,0.8-0.3,1.5-1,2.3c-0.1,0.1-0.4,0.2-0.9,0.2
		c-0.5,0-1-0.1-1.6-0.2c-0.6-0.1-1.2-0.3-1.7-0.5c-0.7,0.5-1.4,0.7-2.2,0.7H92C91.8,265.7,91.6,265.7,91.5,265.5z M94.5,262
		c0,0.5,0.5,0.9,1.5,1.4c0.5-0.5,0.8-1,0.8-1.6c0-0.5-0.1-0.8-0.2-1s-0.3-0.3-0.6-0.3s-0.5,0.1-0.8,0.4c-0.3,0.3-0.5,0.6-0.6,1
		C94.5,261.9,94.5,262,94.5,262z M99.1,264.3c0.3,0,0.4,0,0.5-0.1c0.2-0.3,0.4-0.6,0.4-0.9c0-0.7-0.7-1.5-2-2.3c0,0.2,0,0.4,0,0.6
		c0,0.8-0.3,1.6-0.8,2.4C98,264.2,98.6,264.3,99.1,264.3z"/>
	<path class="st6" d="M115.8,264.3l0.5,0v1.4c-0.5,0-0.9,0-1.1,0c-0.3,0-0.6-0.1-1-0.1c-0.4-0.1-0.7-0.2-1-0.3
		c-0.5,0.3-1.2,0.5-2,0.5h-4.5c-0.9,0-1.9-0.2-2.9-0.7l0.6-1.3c0.5,0.3,0.9,0.4,1.5,0.5c0.4-0.5,0.8-0.9,1-1.2v-8.6h1.3v7.3
		c1.4-1.3,2.5-2,3.4-2.1c0.1,0,0.3,0,0.4,0c0.8,0,1.4,0.3,2,0.9c0.5,0.6,0.8,1.3,0.8,2.1c0,0.6-0.2,1.2-0.5,1.7
		C114.5,264.3,115,264.3,115.8,264.3z M110.7,264.3c0.6,0,1.1-0.1,1.6-0.3c0.4-0.2,0.8-0.4,1-0.6c0-0.2,0.1-0.3,0.1-0.4
		c0-0.5-0.2-0.9-0.5-1.2c-0.3-0.4-0.8-0.6-1.2-0.6c-0.4,0-0.8,0.1-1.2,0.3c-0.4,0.2-0.9,0.5-1.3,0.8c-0.7,0.6-1.4,1.2-2,1.9H110.7z"
		/>
	<path class="st6" d="M115.6,265c0-0.2,0.1-0.4,0.2-0.5c0.1-0.1,0.3-0.2,0.5-0.2h2.1c0.6,0,1.1-0.1,1.4-0.4c0.3-0.3,0.4-0.7,0.4-1.3
		v-1.4h1.3v1.4c0,0.6,0.2,1,0.5,1.3c0.3,0.3,0.8,0.4,1.3,0.4h0.2v1.4h-0.3c-0.7,0-1.2-0.1-1.6-0.3c-0.4-0.2-0.6-0.5-0.8-0.8
		c-0.1,0.3-0.3,0.6-0.7,0.8c-0.4,0.2-0.9,0.3-1.5,0.3h-2.3c-0.2,0-0.3-0.1-0.5-0.2C115.6,265.4,115.6,265.2,115.6,265z M116.3,267.8
		l0.7-0.7c0,0,0.1-0.1,0.2-0.1c0.1,0,0.1,0,0.2,0.1l0.7,0.7c0,0,0.1,0.1,0.1,0.2s0,0.1-0.1,0.2l-0.7,0.7c0,0-0.1,0.1-0.2,0.1
		c-0.1,0-0.1,0-0.2-0.1l-0.7-0.7c0,0-0.1-0.1-0.1-0.2S116.2,267.9,116.3,267.8z M118.4,267.8l0.7-0.7c0,0,0.1-0.1,0.2-0.1
		c0.1,0,0.1,0,0.2,0.1l0.7,0.7c0,0,0.1,0.1,0.1,0.2s0,0.1-0.1,0.2l-0.7,0.7c0,0-0.1,0.1-0.2,0.1c-0.1,0-0.1,0-0.2-0.1l-0.7-0.7
		c0,0-0.1-0.1-0.1-0.2S118.3,267.9,118.4,267.8z"/>
	<path class="st6" d="M122.9,265.5c-0.1-0.1-0.2-0.3-0.2-0.5c0-0.2,0.1-0.3,0.2-0.5c0.1-0.1,0.3-0.2,0.5-0.2h1.8
		c1.1,0,2.3-0.4,3.6-1.2c0.2-0.1,0.5-0.3,0.8-0.5c0.3-0.2,0.6-0.4,0.7-0.5c-0.4-0.1-0.9-0.3-1.4-0.5s-0.9-0.4-1.3-0.5
		c-0.3-0.1-0.6-0.2-0.8-0.2c-0.4,0-0.9,0.4-1.5,1.1l-0.8-0.7c0.5-0.7,0.9-1.1,1.1-1.3c0.4-0.4,0.9-0.6,1.3-0.6
		c0.5,0,1.3,0.3,2.4,0.9c0.4,0.2,0.9,0.4,1.6,0.6c0.6,0.2,1.2,0.3,1.9,0.3h1.1l-0.3,1.4H133c-0.3,0-0.6,0.1-0.9,0.1
		c0.1,0.5,0.4,0.9,0.8,1.2s1,0.4,1.8,0.4v1.4c-1.2,0-2-0.2-2.6-0.6c-0.6-0.4-0.9-1-1.1-1.9c-0.2,0.1-0.6,0.3-1,0.6s-0.8,0.5-1.1,0.7
		s-0.7,0.4-1.1,0.6c-0.9,0.4-1.8,0.6-2.8,0.6h-1.8C123.2,265.7,123.1,265.7,122.9,265.5z"/>
	<path class="st6" d="M134.6,265.7c-0.2,0-0.3-0.1-0.4-0.2c-0.1-0.1-0.1-0.3-0.1-0.5c0-0.2,0-0.4,0.1-0.5c0.1-0.1,0.2-0.2,0.4-0.2
		h3.5v1.4H134.6z"/>
	<path class="st6" d="M137.3,265c0-0.2,0.1-0.4,0.2-0.5c0.1-0.1,0.3-0.2,0.5-0.2h0.3c0.2,0,0.5,0,0.7-0.1c0.2,0,0.4-0.1,0.6-0.2
		c0.2-0.1,0.3-0.2,0.5-0.3c0.1-0.1,0.3-0.2,0.4-0.4c0.1-0.1,0.2-0.3,0.3-0.4s0.2-0.3,0.2-0.4c0.1-0.1,0.1-0.3,0.2-0.5
		c0,0,0-0.1,0-0.1c0.3-0.6,0.6-1,0.9-1.3s0.7-0.4,1.1-0.4c0.5,0,0.9,0.2,1.4,0.6c0.4,0.4,0.8,0.8,1.1,1.4c0.3,0.6,0.4,1.2,0.4,1.8
		c0,1.3-0.6,2-1.7,2c-0.3,0-0.6,0-0.9-0.1s-0.6-0.1-0.9-0.2c-0.2-0.1-0.5-0.2-1-0.3s-0.7-0.3-0.8-0.3c-0.5,0.5-1.3,0.7-2.3,0.7H138
		c-0.2,0-0.3-0.1-0.5-0.2C137.4,265.4,137.3,265.2,137.3,265z M141.6,263.9c0,0,0.1,0,0.3,0.1c0.2,0.1,0.3,0.1,0.3,0.1
		c0,0,0.1,0,0.3,0.1c0.1,0.1,0.2,0.1,0.3,0.1c0.1,0,0.2,0,0.3,0.1c0.1,0,0.2,0.1,0.3,0.1c0.1,0,0.2,0,0.3,0.1s0.2,0,0.3,0
		c0.1,0,0.2,0,0.2,0c0.4,0,0.7-0.2,0.7-0.5c0-0.2-0.1-0.5-0.2-0.8s-0.4-0.7-0.6-1c-0.3-0.3-0.5-0.5-0.8-0.5c-0.2,0-0.5,0.3-0.8,0.8
		c-0.1,0.1-0.2,0.4-0.4,0.7S141.7,263.8,141.6,263.9z"/>
	<path class="st6" d="M156,267.6c0.3-0.3,0.4-0.6,0.4-1s0-0.8-0.1-1.2s-0.2-1-0.3-1.6c-0.2-0.7-0.4-1.2-0.7-1.7l1.1-0.9
		c0.6,1,1,2.1,1.1,3.2c0.1,0.5,0.1,0.9,0.1,1.2s0,0.6,0,1.1c0,0.4-0.1,0.8-0.3,1.2c-0.2,0.4-0.4,0.7-0.7,0.9
		c-0.3,0.3-0.7,0.5-1.1,0.7c-0.8,0.4-1.8,0.7-3.1,0.9L152,269c1.1-0.1,2.1-0.4,2.9-0.7C155.4,268.2,155.7,267.9,156,267.6z"/>
	<path class="st6" d="M162.7,264.3c1,0,1.8-0.3,2.3-0.9c-0.1-1.1-0.9-2.5-2.4-4.1l1-0.9c0.6,0.6,1.1,1.3,1.7,2.1
		c0.3,0.5,0.5,0.9,0.7,1.5s0.3,1,0.3,1.5c0,0.2-0.1,0.5-0.4,0.9c-0.1,0.1-0.1,0.1-0.1,0.2c-0.8,0.8-1.9,1.2-3.1,1.2
		c-1,0-1.9-0.3-2.9-0.8l0.6-1.3C161,264.1,161.8,264.3,162.7,264.3z"/>
</g>
<g>
	<path class="st7" d="M157.4,41.3c9.5-9.6,17-20.8,23.2-33.2c0,0.2,0,0.3,0,0.4c0,10.9,0,21.8,0,32.7c0,0.4-0.1,0.5-0.4,0.6
		c-1.1,0.4-1.8,1.2-1.9,2.6c-0.1,1.3,0.3,2.3,1.4,3.1c0.7,0.5,1.5,0.6,2.3,0.3c1.3-0.4,2.1-1.5,2-3.2c-0.1-1.6-0.8-2.5-2.2-2.9
		c-0.1,0-0.2-0.2-0.2-0.3c0-0.1,0-0.2,0-0.4c0-3.1,0.3-6.1,0.2-9.2c0-7.7,0.2-15.5,0.2-23.2c0-0.1,0-0.3,0-0.5
		c0.5,1.2,1,2.2,1.5,3.3c0.7,1.3,1.4,2.7,2.1,4c1.7,2.8,3.3,5.6,5.1,8.4c1.8,2.7,3.7,5.3,5.5,7.9c2.1,2.9,4.4,5.5,6.9,7.9
		c0.6,0.6,1.1,1.1,1.7,1.7c-1.5,1.8-2.5,3.9-3.3,6.1c-1.1,2.9-1.9,5.8-2.6,8.8c-1.2,5.4-2.1,10.8-2.8,16.3c-0.2,1.6-0.4,3.3-0.6,4.9
		c0,0.2-0.1,0.4-0.3,0.4c-3.3,0-6.6,0-10,0c0,0-0.1,0-0.2-0.1c0.1-0.1,0.1-0.3,0.2-0.4c0.7-1.9,1.4-3.7,1.9-5.6
		c0.6-2.2,0.9-4.5,0.8-6.8c-0.1-3.1-0.9-6-2.9-8.4c-1-1.3-2.3-2.1-3.9-2.3c-1-0.1-1.7,0.3-2.2,1.1c-1.8,2.2-3,4.7-4.1,7.3
		c-0.4,1.1-0.8,2.2-1.2,3.3c-0.7,2.3,0.5,4.5,2.8,4.9c1,0.2,2,0.1,3-0.4c0.5-0.3,1-0.2,1.4,0.4c0.6,0.7,1.1,1.5,1.6,2.3
		c0.3,0.6,0.3,1.1,0,1.7c-0.6,1-1.4,1.9-2.2,2.6c-0.1,0.1-0.3,0.1-0.4,0.1c-4.3,0-8.7,0-13,0c-0.3,0-0.4-0.1-0.4-0.4
		c-0.5-4.6-1.1-9.2-2-13.8c-0.5-2.6-1.1-5.1-1.6-7.6c-0.6-2.7-1.5-5.4-2.4-8C159.7,45.5,158.7,43.3,157.4,41.3z"/>
	<path class="st7" d="M163,100c0,0,0-0.3,0-0.5c0-3.6-0.1-7.2-0.1-10.7c0-1.2,0.4-1.8,1.5-1.8c11.2,0,22.4,0,33.6,0
		c1.1,0,1.6,0.6,1.6,1.7c0,3.6,0,7.2,0,10.8c0,0.1,0,0.4,0,0.4C187.3,100,175.5,100,163,100z"/>
	<path class="st7" d="M208,36.5c-0.8,1.2-1.5,2.3-2.3,3.4c-0.2-0.1-0.3-0.3-0.5-0.4c-2.6-2.2-4.8-4.7-6.9-7.4
		c-1.8-2.4-3.6-4.8-5.2-7.3c-1.8-2.8-3.6-5.6-5.3-8.4c-1.5-2.5-2.9-5.1-4.3-7.7c-0.6-1-1-2.1-1.5-3.2c-0.1-0.3-0.3-0.3-0.5-0.3
		c-1,0-1,0-1.4,0.9c-1.5,3.3-3.1,6.5-5,9.6c-1.6,2.7-3.3,5.4-5,8c-1.8,2.7-3.8,5.3-5.7,7.9c-2,2.8-4.3,5.2-6.7,7.6
		c-0.2,0.2-0.5,0.5-0.7,0.7c-0.8-1.1-1.7-2.1-2.5-3.2c0.8-0.7,1.6-1.4,2.3-2.1c0.9-0.8,1.8-1.6,2.5-2.5c2.2-2.6,4.4-5.2,6.5-7.9
		c1.8-2.4,3.5-4.9,5.2-7.4c1.8-2.7,3.4-5.4,5-8.2c1.5-2.5,2.8-5.2,4.1-7.8c0.3-0.6,0.6-0.8,1.2-0.8c0.5,0,0.7,0.3,0.9,0.7
		c1,1.8,1.9,3.6,3,5.4c1.9,3.3,3.8,6.6,5.9,9.8c1.6,2.5,3.3,4.9,5,7.2c2.1,3,4.5,5.8,7.1,8.5c1.6,1.6,3.2,3.2,4.8,4.8
		C207.9,36.4,207.9,36.5,208,36.5z"/>
	<path class="st7" d="M163.7,86c0-1.1,0.5-1.4,1.2-1.5c0.1,0,0.2-0.1,0.3-0.1c10.7,0,21.3,0.1,32,0.1c0.9,0,1.4,0.4,1.5,1.4
		C187,86,175.4,86,163.7,86z"/>
	<path class="st7" d="M165.3,81.1c0-1.1,0.5-1.6,1.3-1.6c9.8,0,19.6,0.1,29.4,0.1c0.7,0,1.2,0.4,1.3,1.5
		C186.5,81.1,175.9,81.1,165.3,81.1z"/>
	<path class="st7" d="M164.5,83.3c0.1-1.1,0.5-1.4,1.3-1.4c10.3,0,20.5,0,30.8,0c0.8,0,1.2,0.3,1.3,1.4
		C186.8,83.3,175.6,83.3,164.5,83.3z"/>
</g>
</svg>
