<svg id="Layer_8" data-name="Layer 8" xmlns="http://www.w3.org/2000/svg" viewBox="0 0 1280 800"><defs><style>.cls-1{fill:#c82257;}.cls-2{fill:#fff;}</style></defs><title>intro2</title><rect class="cls-1" y="1" width="1280" height="800"/><path class="cls-1" d="M115.46,425.54a5.88,5.88,0,0,1-1.83-4.34,5.8,5.8,0,0,1,1.83-4.32,6.25,6.25,0,0,1,8.73,0A5.8,5.8,0,0,1,126,421.2a5.88,5.88,0,0,1-1.83,4.34A6.19,6.19,0,0,1,115.46,425.54Z"/><path class="cls-1" d="M143.41,424.28q-7.54-4.9-7.54-14.8,0-7,3.91-15.95a1.32,1.32,0,0,1,1.24-.76,2.19,2.19,0,0,1,1.45.51,1.37,1.37,0,0,1,.51,1.68,27.7,27.7,0,0,0-1.83,9.17,16.1,16.1,0,0,0,1.27,6.78,12.6,12.6,0,0,0,3.43,4.52,18.37,18.37,0,0,0,5.26,2.95q5.64,2.13,14.93,2.13a90.34,90.34,0,0,0,20.46-2.62q11.17-2.61,16.45-5.51a38.37,38.37,0,0,1-.41-6q0-3.45.15-5.89a1.87,1.87,0,0,1,1.19-1.17,4.62,4.62,0,0,1,2.21-.66,0.84,0.84,0,0,1,1,.86q0,7,1.52,10.92a12.07,12.07,0,0,0,4.47,5.84,15.68,15.68,0,0,0,9.09,2.39v8.68q-12.49,0-16.91-7.87a24.85,24.85,0,0,1-4.37,2l-3.61,1.32q-18.54,6.4-33.62,6.4Q151,429.18,143.41,424.28Zm18.31-39.63a0.82,0.82,0,0,1,.1-1.32L167,379a0.82,0.82,0,0,1,1.32.1l4.52,5.18a1.15,1.15,0,0,1-.2,1.32l-5.28,4.52a1.28,1.28,0,0,1-1.32-.2Zm13,0a0.82,0.82,0,0,1,.1-1.32L180,379a0.82,0.82,0,0,1,1.32.1l4.42,5.18a0.84,0.84,0,0,1-.2,1.32l-5.18,4.52a1.28,1.28,0,0,1-1.32-.2Z"/><path class="cls-1" d="M219.18,426a4.17,4.17,0,0,1-1.29-3,4.25,4.25,0,0,1,1.29-3,4,4,0,0,1,2.92-1.35h1.73a23.22,23.22,0,0,0,10.61-2.13q4.16-2.13,6-7.57l2.18-5.89a1.54,1.54,0,0,1,.91-0.74,4.21,4.21,0,0,1,1.55-.28,2.83,2.83,0,0,1,1.45.36,1.12,1.12,0,0,1,.61,1l-3.91,12.49q5.43,4,9,4a7.23,7.23,0,0,0,6-3.28,36.31,36.31,0,0,0,4.6-10q0.25-1,2.34-1a2.72,2.72,0,0,1,1.47.38,1.14,1.14,0,0,1,.61,1q0,1.37-2.49,8.33a10.19,10.19,0,0,0,4,2.92,13.34,13.34,0,0,0,5.33,1.09,10.78,10.78,0,0,0,8-3,34.62,34.62,0,0,1-2.23-13.25,4.37,4.37,0,0,1,1.17-2.49,3.09,3.09,0,0,1,2.08-1.47q0.66,0,.81,1.22,0.51,8.48,4.6,13.41T301,418.66h1.83v8.68H301q-10.26,0-15.34-5.64a16.74,16.74,0,0,1-5.74,5,14.89,14.89,0,0,1-6.91,1.7A16.13,16.13,0,0,1,261.1,423q-3.71,5.43-9.22,5.43t-13-5.69a13.89,13.89,0,0,1-6.12,3.53,33,33,0,0,1-9,1H222.1A4,4,0,0,1,219.18,426Z"/><path class="cls-1" d="M302.79,418.66h1.73a32.25,32.25,0,0,0,10.05-1.52q-5.28-4.16-5.28-8.53,0-2.29,2-7.26a20.59,20.59,0,0,1,3.4-5.69,25.52,25.52,0,0,1,5.64-5.38l-0.51-.56,4.42-7.77q15.23,15.08,20.74,22t5.51,11a6.17,6.17,0,0,1-.61,3.1q-3.56,11-11.73,11-6.45,0-16.61-6.91a30.68,30.68,0,0,1-17,5.18h-1.73a4.16,4.16,0,0,1-3-1.32,4.1,4.1,0,0,1-1.35-3,4.69,4.69,0,0,1,1.4-3A4,4,0,0,1,302.79,418.66ZM315.33,404a4.48,4.48,0,0,0,1.27,2.89,29.35,29.35,0,0,0,4,3.35l3.4,2.49q4.42-3,5.28-4.72a8.07,8.07,0,0,0,.86-3.66,9.36,9.36,0,0,0-1.7-5.48,5.28,5.28,0,0,0-4.54-2.44q-3.91,0-8,5.33A13.47,13.47,0,0,0,315.33,404Zm26.81,17.32a2.72,2.72,0,0,0,2-.69,2.37,2.37,0,0,0,.69-1.75q0-1.88-2.46-5.33a94.52,94.52,0,0,0-8.2-9.45q-0.1.56-.48,2t-0.48,2q-0.91,3.15-4.67,7.62Q337.06,421.36,342.14,421.36Z"/><path class="cls-1" d="M378.81,423.54q0-7.87,4.27-17.93a1.25,1.25,0,0,1,1.22-.71,2.85,2.85,0,0,1,1.55.43,1.17,1.17,0,0,1,.69.89,1.23,1.23,0,0,1-.1.61,34.57,34.57,0,0,0-2.49,11.63,20.05,20.05,0,0,0,1.47,8.18,13.75,13.75,0,0,0,4.06,5.33q5.18,4.06,13.1,4.06a32.18,32.18,0,0,0,12.75-2.69A29.05,29.05,0,0,0,426,425.62q0.1-1.78-1.5-7.11a118.57,118.57,0,0,0-5.36-13.71l3.81-8.38q5.28,9.6,6.5,16.76a58,58,0,0,1,.84,9.72,17.4,17.4,0,0,1-2.59,8.84,21.65,21.65,0,0,1-6.73,7.11,34.35,34.35,0,0,1-9.29,4.29,36.55,36.55,0,0,1-10.46,1.52h-0.3a23.76,23.76,0,0,1-15.34-5.13,17.26,17.26,0,0,1-5-6.65A23.05,23.05,0,0,1,378.81,423.54Zm19.25-25.85a0.82,0.82,0,0,1,.1-1.32l5.54-4.67a0.82,0.82,0,0,1,1.32.1l4.67,5.54a0.82,0.82,0,0,1-.1,1.32L404,403.33a0.82,0.82,0,0,1-1.32-.1Z"/><path class="cls-1" d="M448.38,406.53q0,12.14,11.27,12.14h1v8.68h-1q-8.33,0-12.19-4.06t-4.27-13.1l-1.83-44.79a2,2,0,0,1,.51-1.68q4.11-4.42,5.38-5.69l1.12,0.76v47.73Z"/><path class="cls-1" d="M460.62,418.66h17.77a24.2,24.2,0,0,0,8.58-1.52q4-1.73,4-7.57,0-1.83-.05-2.18a20.93,20.93,0,0,1-10.59,2.79,15.14,15.14,0,0,1-9.22-2.59q-3.5-2.59-3.5-8a25.21,25.21,0,0,1,.84-5.61,29.74,29.74,0,0,1,2.87-7.21,20.58,20.58,0,0,1,5-6.17,9.63,9.63,0,0,1,6.17-2.44q4.32,0.25,7.49,4.7a29.42,29.42,0,0,1,4.6,10.61A57.19,57.19,0,0,1,496,406.38q0,9.55-2.34,14-3.66,7-15.13,7H460.62a4.16,4.16,0,0,1-3-1.32,4.1,4.1,0,0,1-1.35-3,4.69,4.69,0,0,1,1.4-3A4,4,0,0,1,460.62,418.66Zm12.24-22.8a4.32,4.32,0,0,0,2.41,4.09,14.13,14.13,0,0,0,6.63,1.29,20.61,20.61,0,0,0,7.67-1.37,31.39,31.39,0,0,0-4.09-8.81q-2.56-3.73-5.87-4.44a5.11,5.11,0,0,0-4,2.21,14,14,0,0,0-2.59,5.56A7.51,7.51,0,0,0,472.85,395.86ZM474,362.2a0.82,0.82,0,0,1,.1-1.32l5.54-4.67a0.82,0.82,0,0,1,1.32.1l4.67,5.54a0.82,0.82,0,0,1-.1,1.32L480,367.83a0.82,0.82,0,0,1-1.32-.1Z"/><path class="cls-1" d="M501.54,449.44q0-1.63,1.22-1.83,2.29,0,3-.05l1.7-.1a7.47,7.47,0,0,0,1.32-.15q0.38-.1,1.19-0.25a7.8,7.8,0,0,0,1.45-.41L513,446a29.86,29.86,0,0,0,12.52-8.43q4.9-5.64,5.26-10.26H522a17.65,17.65,0,0,1-9.24-2.29,8.23,8.23,0,0,1-3.12-3.33,12.49,12.49,0,0,1-1.14-5.81,24.4,24.4,0,0,1,1.78-8.4,23.49,23.49,0,0,1,5-8.1q3.2-3.35,6.75-3.35,5.43,0,9.37,6.25t4.6,16.35h10.21v8.68H536a14.21,14.21,0,0,1-.2,2.18q-0.2,1.27-.25,1.73a27.3,27.3,0,0,1-3.33,8.1,37.68,37.68,0,0,1-5.46,7.19,32.56,32.56,0,0,1-6.14,5,10.9,10.9,0,0,1-5.43,1.93q-5,0-13.15-2.95A1.46,1.46,0,0,1,501.54,449.44Zm12.14-35.85q0,5.08,7.87,5.08h8.18q-1.57-7.57-3.88-10.59t-5-3q-2.64,0-4.93,2.82A9,9,0,0,0,513.68,413.59Z"/><path class="cls-1" d="M543.13,426.05a4.15,4.15,0,0,1-1.27-3,4.28,4.28,0,0,1,1.29-3,4,4,0,0,1,2.92-1.35h10.05l0.86-1q1.88-2.74,2-8.48l-1.83-43.77a2.36,2.36,0,0,1,.66-1.7q0.66-.69,2.56-2.34t3.63-3.33l1.17,0.76v44.28q0,1.73-.3,4.88,13.35-15.44,22.09-15.44a13.37,13.37,0,0,1,10.31,4.75q4.27,4.75,4.27,12.92a26.89,26.89,0,0,1-.91,7.06,14.64,14.64,0,0,1-2.79,5.33q-3.86,4.77-13.56,4.77H546.18A4.12,4.12,0,0,1,543.13,426.05ZM585.28,401q-5.59,0-11.78,5.23-3.15,2.69-5.48,5.08t-6,6.45a1.49,1.49,0,0,1-.25.48,1.79,1.79,0,0,0-.25.43h22.7q9.8-.25,12.59-4.67a13.68,13.68,0,0,0-3.45-9.34A10.57,10.57,0,0,0,585.28,401Z"/><path class="cls-1" d="M629.92,409.47q0-7,3.91-15.95a1.32,1.32,0,0,1,1.24-.76,2.19,2.19,0,0,1,1.45.51,1.37,1.37,0,0,1,.51,1.68,28.15,28.15,0,0,0-1.88,9.24,15.89,15.89,0,0,0,1.27,6.7,12.47,12.47,0,0,0,3.45,4.52,18.76,18.76,0,0,0,5.28,2.95,39.64,39.64,0,0,0,13.94,2.13,89.42,89.42,0,0,0,17.39-1.8,106.21,106.21,0,0,0,15.74-4.24,6,6,0,0,0,2.34-2.29,11,11,0,0,0-1.37-4.77q-2.13-3.5-4.16-6.3a79.78,79.78,0,0,0-9-9.34,69.37,69.37,0,0,0-8.68-6.8,4.51,4.51,0,0,1-1.4-1.37,9.56,9.56,0,0,1-.23-2.79,15.8,15.8,0,0,1,.76-4.72,6.63,6.63,0,0,1,1.29-3.43,6,6,0,0,1,3-2.31l36.46-12.14-1.83,8.73-32.86,10.87q12,9.75,17.77,18.89,0.81,1.22,2.26,3.5T699,404q1,1.5,2.49,3.63a42.41,42.41,0,0,0,2.77,3.53,37.44,37.44,0,0,0,3,2.95,18.18,18.18,0,0,0,3.4,2.46,16.09,16.09,0,0,0,8,2.13v8.68a21.7,21.7,0,0,1-14.75-5.61,41.94,41.94,0,0,1-5.15-6q-1.07,4.77-7.31,7.06-18.54,6.4-33.62,6.4-12.75,0-20.29-4.9T629.92,409.47Z"/><path class="cls-1" d="M711,441.31a0.82,0.82,0,0,1,.1-1.32l5.18-4.32a0.82,0.82,0,0,1,1.32.1l4.52,5.18a1.13,1.13,0,0,1-.2,1.32l-5.28,4.52a0.89,0.89,0,0,1-1.32-.2Zm7.62-22.65h5.18q9.7-.25,12.49-4.67,0.15-3.1-5.43-12.49l3.81-8.38a74.22,74.22,0,0,1,4.72,9.27,20.59,20.59,0,0,1,1.65,8,25.55,25.55,0,0,1-.89,6.88,14.64,14.64,0,0,1-2.79,5.33q-3.86,4.77-13.56,4.77h-5.18a4.52,4.52,0,0,1-4.32-4.32,4.74,4.74,0,0,1,1.37-3A3.94,3.94,0,0,1,718.58,418.66ZM724,441.31a0.82,0.82,0,0,1,.1-1.32l5.18-4.32a0.82,0.82,0,0,1,1.32.1L735,441a0.84,0.84,0,0,1-.2,1.32l-5.18,4.52a0.89,0.89,0,0,1-1.32-.2Z"/><path class="cls-1" d="M769.42,440.25a31.36,31.36,0,0,1,4.77-15.95A47.87,47.87,0,0,1,787.29,410a20.07,20.07,0,0,1-5.64-6.91,18.49,18.49,0,0,1-2-8.28,13.5,13.5,0,0,1,.41-3.71,27.74,27.74,0,0,1,3.53-7.62,20,20,0,0,1,4.85-5.13,19.68,19.68,0,0,1,11.38-3.55,22.78,22.78,0,0,1,8.76,1.73,17.55,17.55,0,0,1,6.58,4.42L814,384a37.33,37.33,0,0,0-9.75-1.42q-11.58,0-18.48,8.18V391a13.08,13.08,0,0,0,2.79,7.49,23.54,23.54,0,0,0,6.91,6.47,55.08,55.08,0,0,1,23.51-5.48l-3.3,8.79a55,55,0,0,0-16.17,3.4,47.41,47.41,0,0,0-12.95,7.08,36.21,36.21,0,0,0-8.35,9.19,18.39,18.39,0,0,0-3.1,9.67q0,7.16,7.34,11.78t22.12,4.62q4.82,0,13.1-.86l-3.35,8.63a104,104,0,0,1-13.69.86,50.39,50.39,0,0,1-13.51-1.75A26.57,26.57,0,0,1,777,456,19.71,19.71,0,0,1,769.42,440.25Z"/><path class="cls-1" d="M825.88,449.44q0-1.63,1.22-1.83,2.29,0,3-.05l1.7-.1a7.47,7.47,0,0,0,1.32-.15q0.38-.1,1.19-0.25a7.8,7.8,0,0,0,1.45-.41l1.5-.61a29.86,29.86,0,0,0,12.52-8.43q4.9-5.64,5.26-10.26v-1.12a29.42,29.42,0,0,1-8.12,1.12,24.12,24.12,0,0,1-7.13-.91,9.82,9.82,0,0,1-7-10,25.42,25.42,0,0,1,1.78-8.89,23.49,23.49,0,0,1,5-8.1q3.2-3.35,6.75-3.35,6,0,10.11,7.39t4.11,19a43.81,43.81,0,0,1-.33,6.32q-0.33,2.06-.38,2.51a27.3,27.3,0,0,1-3.33,8.1,37.68,37.68,0,0,1-5.46,7.19,32.56,32.56,0,0,1-6.14,5,10.9,10.9,0,0,1-5.43,1.93q-5,0-13.15-2.95A1.46,1.46,0,0,1,825.88,449.44ZM838,413.59q0,5.08,7.82,5.08a31.32,31.32,0,0,0,8-1.12q-1.47-6.55-3.73-9.52t-4.93-3q-2.67,0-4.93,2.79A9.06,9.06,0,0,0,838,413.59Z"/><path class="cls-1" d="M858.13,449.44q0-1.63,1.22-1.83,2.29,0,3-.05l1.7-.1a7.47,7.47,0,0,0,1.32-.15q0.38-.1,1.19-0.25a7.8,7.8,0,0,0,1.45-.41l1.5-.61a30.44,30.44,0,0,0,12.72-8.56q5.05-5.76,5.05-10.38,0-3.6-7.16-17.32l3.81-8.43q3.91,7.26,6.25,12.64,2.89,4.67,11.53,4.67h2.39v8.68h-2.39a29.77,29.77,0,0,1-9-1.12,22.92,22.92,0,0,1-1.47,7.82,32.51,32.51,0,0,1-3.81,7.44,43.16,43.16,0,0,1-5.1,6.12,25.48,25.48,0,0,1-5.59,4.29,10.67,10.67,0,0,1-5,1.55q-5,0-13.15-2.95A1.46,1.46,0,0,1,858.13,449.44Z"/><path class="cls-1" d="M901.12,426a4.17,4.17,0,0,1-1.29-3,4.25,4.25,0,0,1,1.29-3,4,4,0,0,1,2.92-1.35h1.73a23.22,23.22,0,0,0,10.61-2.13q4.16-2.13,6-7.57l2.18-5.89a1.54,1.54,0,0,1,.91-0.74,4.21,4.21,0,0,1,1.55-.28,2.83,2.83,0,0,1,1.45.36,1.12,1.12,0,0,1,.61,1l-3.91,12.49q5.43,4,9,4a7.23,7.23,0,0,0,6-3.28,36.31,36.31,0,0,0,4.6-10q0.25-1,2.34-1a2.72,2.72,0,0,1,1.47.38,1.12,1.12,0,0,1,.61,1,1.62,1.62,0,0,1-.1.74,85,85,0,0,1-3.2,9.39,24.3,24.3,0,0,0,4.82,1.47,28,28,0,0,0,5.94.66q6.5,0,8.33-3.55,0.15-3.1-5.38-12.44l3.81-8.43a81,81,0,0,1,4.72,9.34,20.26,20.26,0,0,1,1.68,7.72q0,7.72-3.35,11.93a11.35,11.35,0,0,1-9.42,4.21q-6.07,0-14.5-4.42a10.71,10.71,0,0,1-8.94,4.82q-5.38,0-12.85-5.69a13.89,13.89,0,0,1-6.12,3.53,33,33,0,0,1-9,1H904A4,4,0,0,1,901.12,426Zm32.68-43.16a0.82,0.82,0,0,1,.1-1.32l5.18-4.32a0.82,0.82,0,0,1,1.32.1l4.52,5.18a1.15,1.15,0,0,1-.2,1.32l-5.28,4.52a1.28,1.28,0,0,1-1.32-.2Zm7.36-10.46a0.68,0.68,0,0,1-.2-0.61,0.52,0.52,0,0,1,.3-0.46l4.77-4.06a0.71,0.71,0,0,1,1.12.1l4,4.82q0.35,0.86-.05,1.07l-4.77,4.06a0.71,0.71,0,0,1-.63.2,0.54,0.54,0,0,1-.48-0.3Zm5.64,10.46a0.82,0.82,0,0,1,.1-1.32l5.18-4.32a0.82,0.82,0,0,1,1.32.1l4.42,5.18a0.84,0.84,0,0,1-.2,1.32l-5.18,4.52a1.28,1.28,0,0,1-1.32-.2Z"/><path class="cls-1" d="M998.29,432.22q0-7.92,4.27-18a1.32,1.32,0,0,1,1.27-.66,2.94,2.94,0,0,1,1.6.43,1.16,1.16,0,0,1,.69.81,1,1,0,0,1-.1.53,36.55,36.55,0,0,0-2.59,12.47,16.34,16.34,0,0,0,2.64,9.37q4.92,7.46,16.1,7.46a32.07,32.07,0,0,0,12.7-2.67,28.88,28.88,0,0,0,10.61-7.69q0.1-1.73-1.5-7.11a114.08,114.08,0,0,0-5.36-13.71l3.91-8.43a60.09,60.09,0,0,1,3.86,8.68q2.89,4.93,11.88,4.93h2.44v8.68h-2.44a28.84,28.84,0,0,1-8.63-1q0.25,3.3.25,4.57a18.93,18.93,0,0,1-1.78,7.9,19.9,19.9,0,0,1-4.62,6.32,30.48,30.48,0,0,1-6.65,4.57,36.48,36.48,0,0,1-16.45,3.76,24,24,0,0,1-15.34-5.23,17.26,17.26,0,0,1-5-6.65A23.06,23.06,0,0,1,998.29,432.22Zm20.11-29.3a0.82,0.82,0,0,1,.1-1.32l5.54-4.67a0.82,0.82,0,0,1,1.32.1l4.67,5.54a0.82,0.82,0,0,1-.1,1.32l-5.54,4.67a0.82,0.82,0,0,1-1.32-.1Z"/><path class="cls-1" d="M1053.08,441.31a0.82,0.82,0,0,1,.1-1.32l5.18-4.32a0.82,0.82,0,0,1,1.32.1l4.52,5.18a1.13,1.13,0,0,1-.2,1.32l-5.28,4.52a0.89,0.89,0,0,1-1.32-.2Zm7.62-22.65h5.18q9.7-.25,12.49-4.67,0.15-3.1-5.43-12.49l3.81-8.38a74.22,74.22,0,0,1,4.72,9.27,20.59,20.59,0,0,1,1.65,8,25.55,25.55,0,0,1-.89,6.88,14.64,14.64,0,0,1-2.79,5.33q-3.86,4.77-13.56,4.77h-5.18a4.52,4.52,0,0,1-4.32-4.32,4.74,4.74,0,0,1,1.37-3A3.94,3.94,0,0,1,1060.7,418.66Zm5.38,22.65a0.82,0.82,0,0,1,.1-1.32l5.18-4.32a0.82,0.82,0,0,1,1.32.1l4.42,5.18a0.84,0.84,0,0,1-.2,1.32l-5.18,4.52a0.89,0.89,0,0,1-1.32-.2Z"/><path class="cls-1" d="M1102.13,425.52a3.41,3.41,0,0,1-1.55,2.72,4.64,4.64,0,0,1-2.54,1.19,1.07,1.07,0,0,1-1.14-.46l-2.69-63.58a2,2,0,0,1,.51-1.68q0.61-.61,2.56-2.29T1101,358l1.17,0.76v66.73Z"/><path class="cls-1" d="M1130.47,449.44q0-1.63,1.22-1.83,2.29,0,3-.05l1.7-.1a7.47,7.47,0,0,0,1.32-.15q0.38-.1,1.19-0.25a7.8,7.8,0,0,0,1.45-.41l1.5-.61a29.86,29.86,0,0,0,12.52-8.43q4.9-5.64,5.26-10.26v-1.12a29.42,29.42,0,0,1-8.12,1.12,24.12,24.12,0,0,1-7.13-.91,9.82,9.82,0,0,1-7-10,25.42,25.42,0,0,1,1.78-8.89,23.49,23.49,0,0,1,5-8.1q3.2-3.35,6.75-3.35,6,0,10.11,7.39t4.11,19a43.81,43.81,0,0,1-.33,6.32q-0.33,2.06-.38,2.51a27.3,27.3,0,0,1-3.33,8.1,37.68,37.68,0,0,1-5.46,7.19,32.56,32.56,0,0,1-6.14,5,10.9,10.9,0,0,1-5.43,1.93q-5,0-13.15-2.95A1.46,1.46,0,0,1,1130.47,449.44Zm12.14-35.85q0,5.08,7.82,5.08a31.32,31.32,0,0,0,8-1.12Q1157,411,1154.72,408t-4.93-3q-2.67,0-4.93,2.79A9.06,9.06,0,0,0,1142.61,413.59Z"/><rect class="cls-1" y="1" width="1280" height="800"/><path class="cls-2" d="M115.46,425.54a5.88,5.88,0,0,1-1.83-4.34,5.8,5.8,0,0,1,1.83-4.32,6.25,6.25,0,0,1,8.73,0A5.8,5.8,0,0,1,126,421.2a5.88,5.88,0,0,1-1.83,4.34A6.19,6.19,0,0,1,115.46,425.54Z"/><path class="cls-2" d="M143.41,424.28q-7.54-4.9-7.54-14.8,0-7,3.91-15.95a1.32,1.32,0,0,1,1.24-.76,2.19,2.19,0,0,1,1.45.51,1.37,1.37,0,0,1,.51,1.68,27.7,27.7,0,0,0-1.83,9.17,16.1,16.1,0,0,0,1.27,6.78,12.6,12.6,0,0,0,3.43,4.52,18.37,18.37,0,0,0,5.26,2.95q5.64,2.13,14.93,2.13a90.34,90.34,0,0,0,20.46-2.62q11.17-2.61,16.45-5.51a38.37,38.37,0,0,1-.41-6q0-3.45.15-5.89a1.87,1.87,0,0,1,1.19-1.17,4.62,4.62,0,0,1,2.21-.66,0.84,0.84,0,0,1,1,.86q0,7,1.52,10.92a12.07,12.07,0,0,0,4.47,5.84,15.68,15.68,0,0,0,9.09,2.39v8.68q-12.49,0-16.91-7.87a24.85,24.85,0,0,1-4.37,2l-3.61,1.32q-18.54,6.4-33.62,6.4Q151,429.18,143.41,424.28Zm18.31-39.63a0.82,0.82,0,0,1,.1-1.32L167,379a0.82,0.82,0,0,1,1.32.1l4.52,5.18a1.15,1.15,0,0,1-.2,1.32l-5.28,4.52a1.28,1.28,0,0,1-1.32-.2Zm13,0a0.82,0.82,0,0,1,.1-1.32L180,379a0.82,0.82,0,0,1,1.32.1l4.42,5.18a0.84,0.84,0,0,1-.2,1.32l-5.18,4.52a1.28,1.28,0,0,1-1.32-.2Z"/><path class="cls-2" d="M219.18,426a4.17,4.17,0,0,1-1.29-3,4.25,4.25,0,0,1,1.29-3,4,4,0,0,1,2.92-1.35h1.73a23.22,23.22,0,0,0,10.61-2.13q4.16-2.13,6-7.57l2.18-5.89a1.54,1.54,0,0,1,.91-0.74,4.21,4.21,0,0,1,1.55-.28,2.83,2.83,0,0,1,1.45.36,1.12,1.12,0,0,1,.61,1l-3.91,12.49q5.43,4,9,4a7.23,7.23,0,0,0,6-3.28,36.31,36.31,0,0,0,4.6-10q0.25-1,2.34-1a2.72,2.72,0,0,1,1.47.38,1.14,1.14,0,0,1,.61,1q0,1.37-2.49,8.33a10.19,10.19,0,0,0,4,2.92,13.34,13.34,0,0,0,5.33,1.09,10.78,10.78,0,0,0,8-3,34.62,34.62,0,0,1-2.23-13.25,4.37,4.37,0,0,1,1.17-2.49,3.09,3.09,0,0,1,2.08-1.47q0.66,0,.81,1.22,0.51,8.48,4.6,13.41T301,418.66h1.83v8.68H301q-10.26,0-15.34-5.64a16.74,16.74,0,0,1-5.74,5,14.89,14.89,0,0,1-6.91,1.7A16.13,16.13,0,0,1,261.1,423q-3.71,5.43-9.22,5.43t-13-5.69a13.89,13.89,0,0,1-6.12,3.53,33,33,0,0,1-9,1H222.1A4,4,0,0,1,219.18,426Z"/><path class="cls-2" d="M302.79,418.66h1.73a32.25,32.25,0,0,0,10.05-1.52q-5.28-4.16-5.28-8.53,0-2.29,2-7.26a20.59,20.59,0,0,1,3.4-5.69,25.52,25.52,0,0,1,5.64-5.38l-0.51-.56,4.42-7.77q15.23,15.08,20.74,22t5.51,11a6.17,6.17,0,0,1-.61,3.1q-3.56,11-11.73,11-6.45,0-16.61-6.91a30.68,30.68,0,0,1-17,5.18h-1.73a4.16,4.16,0,0,1-3-1.32,4.1,4.1,0,0,1-1.35-3,4.69,4.69,0,0,1,1.4-3A4,4,0,0,1,302.79,418.66ZM315.33,404a4.48,4.48,0,0,0,1.27,2.89,29.35,29.35,0,0,0,4,3.35l3.4,2.49q4.42-3,5.28-4.72a8.07,8.07,0,0,0,.86-3.66,9.36,9.36,0,0,0-1.7-5.48,5.28,5.28,0,0,0-4.54-2.44q-3.91,0-8,5.33A13.47,13.47,0,0,0,315.33,404Zm26.81,17.32a2.72,2.72,0,0,0,2-.69,2.37,2.37,0,0,0,.69-1.75q0-1.88-2.46-5.33a94.52,94.52,0,0,0-8.2-9.45q-0.1.56-.48,2t-0.48,2q-0.91,3.15-4.67,7.62Q337.06,421.36,342.14,421.36Z"/><path class="cls-2" d="M378.81,423.54q0-7.87,4.27-17.93a1.25,1.25,0,0,1,1.22-.71,2.85,2.85,0,0,1,1.55.43,1.17,1.17,0,0,1,.69.89,1.23,1.23,0,0,1-.1.61,34.57,34.57,0,0,0-2.49,11.63,20.05,20.05,0,0,0,1.47,8.18,13.75,13.75,0,0,0,4.06,5.33q5.18,4.06,13.1,4.06a32.18,32.18,0,0,0,12.75-2.69A29.05,29.05,0,0,0,426,425.62q0.1-1.78-1.5-7.11a118.57,118.57,0,0,0-5.36-13.71l3.81-8.38q5.28,9.6,6.5,16.76a58,58,0,0,1,.84,9.72,17.4,17.4,0,0,1-2.59,8.84,21.65,21.65,0,0,1-6.73,7.11,34.35,34.35,0,0,1-9.29,4.29,36.55,36.55,0,0,1-10.46,1.52h-0.3a23.76,23.76,0,0,1-15.34-5.13,17.26,17.26,0,0,1-5-6.65A23.05,23.05,0,0,1,378.81,423.54Zm19.25-25.85a0.82,0.82,0,0,1,.1-1.32l5.54-4.67a0.82,0.82,0,0,1,1.32.1l4.67,5.54a0.82,0.82,0,0,1-.1,1.32L404,403.33a0.82,0.82,0,0,1-1.32-.1Z"/><path class="cls-2" d="M448.38,406.53q0,12.14,11.27,12.14h1v8.68h-1q-8.33,0-12.19-4.06t-4.27-13.1l-1.83-44.79a2,2,0,0,1,.51-1.68q4.11-4.42,5.38-5.69l1.12,0.76v47.73Z"/><path class="cls-2" d="M460.62,418.66h17.77a24.2,24.2,0,0,0,8.58-1.52q4-1.73,4-7.57,0-1.83-.05-2.18a20.93,20.93,0,0,1-10.59,2.79,15.14,15.14,0,0,1-9.22-2.59q-3.5-2.59-3.5-8a25.21,25.21,0,0,1,.84-5.61,29.74,29.74,0,0,1,2.87-7.21,20.58,20.58,0,0,1,5-6.17,9.63,9.63,0,0,1,6.17-2.44q4.32,0.25,7.49,4.7a29.42,29.42,0,0,1,4.6,10.61A57.19,57.19,0,0,1,496,406.38q0,9.55-2.34,14-3.66,7-15.13,7H460.62a4.16,4.16,0,0,1-3-1.32,4.1,4.1,0,0,1-1.35-3,4.69,4.69,0,0,1,1.4-3A4,4,0,0,1,460.62,418.66Zm12.24-22.8a4.32,4.32,0,0,0,2.41,4.09,14.13,14.13,0,0,0,6.63,1.29,20.61,20.61,0,0,0,7.67-1.37,31.39,31.39,0,0,0-4.09-8.81q-2.56-3.73-5.87-4.44a5.11,5.11,0,0,0-4,2.21,14,14,0,0,0-2.59,5.56A7.51,7.51,0,0,0,472.85,395.86ZM474,362.2a0.82,0.82,0,0,1,.1-1.32l5.54-4.67a0.82,0.82,0,0,1,1.32.1l4.67,5.54a0.82,0.82,0,0,1-.1,1.32L480,367.83a0.82,0.82,0,0,1-1.32-.1Z"/><path class="cls-2" d="M501.54,449.44q0-1.63,1.22-1.83,2.29,0,3-.05l1.7-.1a7.47,7.47,0,0,0,1.32-.15q0.38-.1,1.19-0.25a7.8,7.8,0,0,0,1.45-.41L513,446a29.86,29.86,0,0,0,12.52-8.43q4.9-5.64,5.26-10.26H522a17.65,17.65,0,0,1-9.24-2.29,8.23,8.23,0,0,1-3.12-3.33,12.49,12.49,0,0,1-1.14-5.81,24.4,24.4,0,0,1,1.78-8.4,23.49,23.49,0,0,1,5-8.1q3.2-3.35,6.75-3.35,5.43,0,9.37,6.25t4.6,16.35h10.21v8.68H536a14.21,14.21,0,0,1-.2,2.18q-0.2,1.27-.25,1.73a27.3,27.3,0,0,1-3.33,8.1,37.68,37.68,0,0,1-5.46,7.19,32.56,32.56,0,0,1-6.14,5,10.9,10.9,0,0,1-5.43,1.93q-5,0-13.15-2.95A1.46,1.46,0,0,1,501.54,449.44Zm12.14-35.85q0,5.08,7.87,5.08h8.18q-1.57-7.57-3.88-10.59t-5-3q-2.64,0-4.93,2.82A9,9,0,0,0,513.68,413.59Z"/><path class="cls-2" d="M543.13,426.05a4.15,4.15,0,0,1-1.27-3,4.28,4.28,0,0,1,1.29-3,4,4,0,0,1,2.92-1.35h10.05l0.86-1q1.88-2.74,2-8.48l-1.83-43.77a2.36,2.36,0,0,1,.66-1.7q0.66-.69,2.56-2.34t3.63-3.33l1.17,0.76v44.28q0,1.73-.3,4.88,13.35-15.44,22.09-15.44a13.37,13.37,0,0,1,10.31,4.75q4.27,4.75,4.27,12.92a26.89,26.89,0,0,1-.91,7.06,14.64,14.64,0,0,1-2.79,5.33q-3.86,4.77-13.56,4.77H546.18A4.12,4.12,0,0,1,543.13,426.05ZM585.28,401q-5.59,0-11.78,5.23-3.15,2.69-5.48,5.08t-6,6.45a1.49,1.49,0,0,1-.25.48,1.79,1.79,0,0,0-.25.43h22.7q9.8-.25,12.59-4.67a13.68,13.68,0,0,0-3.45-9.34A10.57,10.57,0,0,0,585.28,401Z"/><path class="cls-2" d="M629.92,409.47q0-7,3.91-15.95a1.32,1.32,0,0,1,1.24-.76,2.19,2.19,0,0,1,1.45.51,1.37,1.37,0,0,1,.51,1.68,28.15,28.15,0,0,0-1.88,9.24,15.89,15.89,0,0,0,1.27,6.7,12.47,12.47,0,0,0,3.45,4.52,18.76,18.76,0,0,0,5.28,2.95,39.64,39.64,0,0,0,13.94,2.13,89.42,89.42,0,0,0,17.39-1.8,106.21,106.21,0,0,0,15.74-4.24,6,6,0,0,0,2.34-2.29,11,11,0,0,0-1.37-4.77q-2.13-3.5-4.16-6.3a79.78,79.78,0,0,0-9-9.34,69.37,69.37,0,0,0-8.68-6.8,4.51,4.51,0,0,1-1.4-1.37,9.56,9.56,0,0,1-.23-2.79,15.8,15.8,0,0,1,.76-4.72,6.63,6.63,0,0,1,1.29-3.43,6,6,0,0,1,3-2.31l36.46-12.14-1.83,8.73-32.86,10.87q12,9.75,17.77,18.89,0.81,1.22,2.26,3.5T699,404q1,1.5,2.49,3.63a42.41,42.41,0,0,0,2.77,3.53,37.44,37.44,0,0,0,3,2.95,18.18,18.18,0,0,0,3.4,2.46,16.09,16.09,0,0,0,8,2.13v8.68a21.7,21.7,0,0,1-14.75-5.61,41.94,41.94,0,0,1-5.15-6q-1.07,4.77-7.31,7.06-18.54,6.4-33.62,6.4-12.75,0-20.29-4.9T629.92,409.47Z"/><path class="cls-2" d="M711,441.31a0.82,0.82,0,0,1,.1-1.32l5.18-4.32a0.82,0.82,0,0,1,1.32.1l4.52,5.18a1.13,1.13,0,0,1-.2,1.32l-5.28,4.52a0.89,0.89,0,0,1-1.32-.2Zm7.62-22.65h5.18q9.7-.25,12.49-4.67,0.15-3.1-5.43-12.49l3.81-8.38a74.22,74.22,0,0,1,4.72,9.27,20.59,20.59,0,0,1,1.65,8,25.55,25.55,0,0,1-.89,6.88,14.64,14.64,0,0,1-2.79,5.33q-3.86,4.77-13.56,4.77h-5.18a4.52,4.52,0,0,1-4.32-4.32,4.74,4.74,0,0,1,1.37-3A3.94,3.94,0,0,1,718.58,418.66ZM724,441.31a0.82,0.82,0,0,1,.1-1.32l5.18-4.32a0.82,0.82,0,0,1,1.32.1L735,441a0.84,0.84,0,0,1-.2,1.32l-5.18,4.52a0.89,0.89,0,0,1-1.32-.2Z"/><path class="cls-2" d="M769.42,440.25a31.36,31.36,0,0,1,4.77-15.95A47.87,47.87,0,0,1,787.29,410a20.07,20.07,0,0,1-5.64-6.91,18.49,18.49,0,0,1-2-8.28,13.5,13.5,0,0,1,.41-3.71,27.74,27.74,0,0,1,3.53-7.62,20,20,0,0,1,4.85-5.13,19.68,19.68,0,0,1,11.38-3.55,22.78,22.78,0,0,1,8.76,1.73,17.55,17.55,0,0,1,6.58,4.42L814,384a37.33,37.33,0,0,0-9.75-1.42q-11.58,0-18.48,8.18V391a13.08,13.08,0,0,0,2.79,7.49,23.54,23.54,0,0,0,6.91,6.47,55.08,55.08,0,0,1,23.51-5.48l-3.3,8.79a55,55,0,0,0-16.17,3.4,47.41,47.41,0,0,0-12.95,7.08,36.21,36.21,0,0,0-8.35,9.19,18.39,18.39,0,0,0-3.1,9.67q0,7.16,7.34,11.78t22.12,4.62q4.82,0,13.1-.86l-3.35,8.63a104,104,0,0,1-13.69.86,50.39,50.39,0,0,1-13.51-1.75A26.57,26.57,0,0,1,777,456,19.71,19.71,0,0,1,769.42,440.25Z"/><path class="cls-2" d="M825.88,449.44q0-1.63,1.22-1.83,2.29,0,3-.05l1.7-.1a7.47,7.47,0,0,0,1.32-.15q0.38-.1,1.19-0.25a7.8,7.8,0,0,0,1.45-.41l1.5-.61a29.86,29.86,0,0,0,12.52-8.43q4.9-5.64,5.26-10.26v-1.12a29.42,29.42,0,0,1-8.12,1.12,24.12,24.12,0,0,1-7.13-.91,9.82,9.82,0,0,1-7-10,25.42,25.42,0,0,1,1.78-8.89,23.49,23.49,0,0,1,5-8.1q3.2-3.35,6.75-3.35,6,0,10.11,7.39t4.11,19a43.81,43.81,0,0,1-.33,6.32q-0.33,2.06-.38,2.51a27.3,27.3,0,0,1-3.33,8.1,37.68,37.68,0,0,1-5.46,7.19,32.56,32.56,0,0,1-6.14,5,10.9,10.9,0,0,1-5.43,1.93q-5,0-13.15-2.95A1.46,1.46,0,0,1,825.88,449.44ZM838,413.59q0,5.08,7.82,5.08a31.32,31.32,0,0,0,8-1.12q-1.47-6.55-3.73-9.52t-4.93-3q-2.67,0-4.93,2.79A9.06,9.06,0,0,0,838,413.59Z"/><path class="cls-2" d="M858.13,449.44q0-1.63,1.22-1.83,2.29,0,3-.05l1.7-.1a7.47,7.47,0,0,0,1.32-.15q0.38-.1,1.19-0.25a7.8,7.8,0,0,0,1.45-.41l1.5-.61a30.44,30.44,0,0,0,12.72-8.56q5.05-5.76,5.05-10.38,0-3.6-7.16-17.32l3.81-8.43q3.91,7.26,6.25,12.64,2.89,4.67,11.53,4.67h2.39v8.68h-2.39a29.77,29.77,0,0,1-9-1.12,22.92,22.92,0,0,1-1.47,7.82,32.51,32.51,0,0,1-3.81,7.44,43.16,43.16,0,0,1-5.1,6.12,25.48,25.48,0,0,1-5.59,4.29,10.67,10.67,0,0,1-5,1.55q-5,0-13.15-2.95A1.46,1.46,0,0,1,858.13,449.44Z"/><path class="cls-2" d="M901.12,426a4.17,4.17,0,0,1-1.29-3,4.25,4.25,0,0,1,1.29-3,4,4,0,0,1,2.92-1.35h1.73a23.22,23.22,0,0,0,10.61-2.13q4.16-2.13,6-7.57l2.18-5.89a1.54,1.54,0,0,1,.91-0.74,4.21,4.21,0,0,1,1.55-.28,2.83,2.83,0,0,1,1.45.36,1.12,1.12,0,0,1,.61,1l-3.91,12.49q5.43,4,9,4a7.23,7.23,0,0,0,6-3.28,36.31,36.31,0,0,0,4.6-10q0.25-1,2.34-1a2.72,2.72,0,0,1,1.47.38,1.12,1.12,0,0,1,.61,1,1.62,1.62,0,0,1-.1.74,85,85,0,0,1-3.2,9.39,24.3,24.3,0,0,0,4.82,1.47,28,28,0,0,0,5.94.66q6.5,0,8.33-3.55,0.15-3.1-5.38-12.44l3.81-8.43a81,81,0,0,1,4.72,9.34,20.26,20.26,0,0,1,1.68,7.72q0,7.72-3.35,11.93a11.35,11.35,0,0,1-9.42,4.21q-6.07,0-14.5-4.42a10.71,10.71,0,0,1-8.94,4.82q-5.38,0-12.85-5.69a13.89,13.89,0,0,1-6.12,3.53,33,33,0,0,1-9,1H904A4,4,0,0,1,901.12,426Zm32.68-43.16a0.82,0.82,0,0,1,.1-1.32l5.18-4.32a0.82,0.82,0,0,1,1.32.1l4.52,5.18a1.15,1.15,0,0,1-.2,1.32l-5.28,4.52a1.28,1.28,0,0,1-1.32-.2Zm7.36-10.46a0.68,0.68,0,0,1-.2-0.61,0.52,0.52,0,0,1,.3-0.46l4.77-4.06a0.71,0.71,0,0,1,1.12.1l4,4.82q0.35,0.86-.05,1.07l-4.77,4.06a0.71,0.71,0,0,1-.63.2,0.54,0.54,0,0,1-.48-0.3Zm5.64,10.46a0.82,0.82,0,0,1,.1-1.32l5.18-4.32a0.82,0.82,0,0,1,1.32.1l4.42,5.18a0.84,0.84,0,0,1-.2,1.32l-5.18,4.52a1.28,1.28,0,0,1-1.32-.2Z"/><path class="cls-2" d="M998.29,432.22q0-7.92,4.27-18a1.32,1.32,0,0,1,1.27-.66,2.94,2.94,0,0,1,1.6.43,1.16,1.16,0,0,1,.69.81,1,1,0,0,1-.1.53,36.55,36.55,0,0,0-2.59,12.47,16.34,16.34,0,0,0,2.64,9.37q4.92,7.46,16.1,7.46a32.07,32.07,0,0,0,12.7-2.67,28.88,28.88,0,0,0,10.61-7.69q0.1-1.73-1.5-7.11a114.08,114.08,0,0,0-5.36-13.71l3.91-8.43a60.09,60.09,0,0,1,3.86,8.68q2.89,4.93,11.88,4.93h2.44v8.68h-2.44a28.84,28.84,0,0,1-8.63-1q0.25,3.3.25,4.57a18.93,18.93,0,0,1-1.78,7.9,19.9,19.9,0,0,1-4.62,6.32,30.48,30.48,0,0,1-6.65,4.57,36.48,36.48,0,0,1-16.45,3.76,24,24,0,0,1-15.34-5.23,17.26,17.26,0,0,1-5-6.65A23.06,23.06,0,0,1,998.29,432.22Zm20.11-29.3a0.82,0.82,0,0,1,.1-1.32l5.54-4.67a0.82,0.82,0,0,1,1.32.1l4.67,5.54a0.82,0.82,0,0,1-.1,1.32l-5.54,4.67a0.82,0.82,0,0,1-1.32-.1Z"/><path class="cls-2" d="M1053.08,441.31a0.82,0.82,0,0,1,.1-1.32l5.18-4.32a0.82,0.82,0,0,1,1.32.1l4.52,5.18a1.13,1.13,0,0,1-.2,1.32l-5.28,4.52a0.89,0.89,0,0,1-1.32-.2Zm7.62-22.65h5.18q9.7-.25,12.49-4.67,0.15-3.1-5.43-12.49l3.81-8.38a74.22,74.22,0,0,1,4.72,9.27,20.59,20.59,0,0,1,1.65,8,25.55,25.55,0,0,1-.89,6.88,14.64,14.64,0,0,1-2.79,5.33q-3.86,4.77-13.56,4.77h-5.18a4.52,4.52,0,0,1-4.32-4.32,4.74,4.74,0,0,1,1.37-3A3.94,3.94,0,0,1,1060.7,418.66Zm5.38,22.65a0.82,0.82,0,0,1,.1-1.32l5.18-4.32a0.82,0.82,0,0,1,1.32.1l4.42,5.18a0.84,0.84,0,0,1-.2,1.32l-5.18,4.52a0.89,0.89,0,0,1-1.32-.2Z"/><path class="cls-2" d="M1102.13,425.52a3.41,3.41,0,0,1-1.55,2.72,4.64,4.64,0,0,1-2.54,1.19,1.07,1.07,0,0,1-1.14-.46l-2.69-63.58a2,2,0,0,1,.51-1.68q0.61-.61,2.56-2.29T1101,358l1.17,0.76v66.73Z"/><path class="cls-2" d="M1130.47,449.44q0-1.63,1.22-1.83,2.29,0,3-.05l1.7-.1a7.47,7.47,0,0,0,1.32-.15q0.38-.1,1.19-0.25a7.8,7.8,0,0,0,1.45-.41l1.5-.61a29.86,29.86,0,0,0,12.52-8.43q4.9-5.64,5.26-10.26v-1.12a29.42,29.42,0,0,1-8.12,1.12,24.12,24.12,0,0,1-7.13-.91,9.82,9.82,0,0,1-7-10,25.42,25.42,0,0,1,1.78-8.89,23.49,23.49,0,0,1,5-8.1q3.2-3.35,6.75-3.35,6,0,10.11,7.39t4.11,19a43.81,43.81,0,0,1-.33,6.32q-0.33,2.06-.38,2.51a27.3,27.3,0,0,1-3.33,8.1,37.68,37.68,0,0,1-5.46,7.19,32.56,32.56,0,0,1-6.14,5,10.9,10.9,0,0,1-5.43,1.93q-5,0-13.15-2.95A1.46,1.46,0,0,1,1130.47,449.44Zm12.14-35.85q0,5.08,7.82,5.08a31.32,31.32,0,0,0,8-1.12Q1157,411,1154.72,408t-4.93-3q-2.67,0-4.93,2.79A9.06,9.06,0,0,0,1142.61,413.59Z"/></svg>