<svg id="Layer_5" data-name="Layer 5" xmlns="http://www.w3.org/2000/svg" viewBox="0 0 1280 800"><defs><style>.cls-1{fill:#43aba6;}.cls-2{fill:#fff6e7;}.cls-3{fill:#7f6845;}.cls-4{fill:#163937;}</style></defs><title>intro2</title><rect class="cls-1" width="1280" height="151"/><path class="cls-2" d="M536.68,84.21a21.25,21.25,0,0,1-8.45-1.58,12.94,12.94,0,0,1-6.78-6.16,23,23,0,0,1-11.26,3.17,14.62,14.62,0,0,1-6.86-4.49,13,13,0,0,1-3.52-9c0-4.22,2.11-8.1,6.34-11.7a45.53,45.53,0,0,1,5.28-3.7q0.92-.53,2.38-1.32l1.06-.53,0.88-.53,0.53-.79,0.44-.79a4.28,4.28,0,0,1,.88-1.32,45.46,45.46,0,0,1,5.9-1.41,38.46,38.46,0,0,1,6.51-.79l0.7,0.62c0.09,4.31.18,8.18,0.44,11.7,0.09,1.32.09,2.64,0.18,4l0.18,1.67,0.09,1.32c0.26,3.52,2,5.28,5.1,5.28q2.38,0,2.38,8.18T536.68,84.21ZM517.32,58.6c-3.43,1.5-5.9,3.08-7.3,4.75a14.86,14.86,0,0,0,7.83.44A46.88,46.88,0,0,1,517.32,58.6Z"/><path class="cls-2" d="M578.12,68.55q0,7-2.9,11.35a9.42,9.42,0,0,1-8.45,4.84c-4.66,0-9.5-2.38-14.61-7a20.12,20.12,0,0,1-15.49,6.51q-2.38,0-2.38-8.18t2.38-8.18a17.06,17.06,0,0,0,9.42-2.64,29.93,29.93,0,0,0,6.25-5.81l1.32-1.58,1.32-1.5a38.47,38.47,0,0,1,2.82-2.73A11.25,11.25,0,0,1,565,50.95a11.45,11.45,0,0,1,9.5,4.93C576.89,59.13,578.12,63.35,578.12,68.55Zm-13.46-3a13.34,13.34,0,0,0-7,1.85c2,1.5,4.84,2.2,8.45,2.2q3.83,0,4.75-1.06C570.73,66.52,568.62,65.55,564.66,65.55Z"/><path class="cls-2" d="M602.24,84.21c-7.48,0-13.11-.88-17-2.55q-0.66-2.51-1.06-18.74c-0.09-1.85-.09-4.22-0.18-7l-0.18-7.22c-0.18-5.81-.35-10.29-0.44-13.46l14.17-.79a314.34,314.34,0,0,1,.62,33.09l2.29,0.26a12.4,12.4,0,0,0,1.76.09q2.38,0,2.38,8.18T602.24,84.21Z"/><path class="cls-2" d="M630,84.21A18.1,18.1,0,0,1,623.35,83,11.68,11.68,0,0,1,617.64,78h-0.7c-2.9,4.14-7.74,6.16-14.7,6.16q-2.38,0-2.38-8.18t2.38-8.18c7.13,0,11.44-3.08,12.94-9.33l7.48,1.14c-0.26,3.34.18,5.54,1.23,6.6s3,1.58,6.16,1.58q2.38,0,2.38,8.18T630,84.21ZM607.69,46a14.84,14.84,0,0,1,2.46-4.93c1.5-2.2,2.82-3.43,3.87-3.61s2.64,0.44,4.93,2.11,3.43,2.82,3.61,3.78-0.44,2.46-2,4.75a17.07,17.07,0,0,1-3.87,4.22,23.86,23.86,0,0,1-4.75-2.73A21.61,21.61,0,0,1,607.69,46Z"/><path class="cls-2" d="M692,81.66a27.44,27.44,0,0,1-11.62,2.82c-5.63,0-9.77-2.11-12.5-6.42h-0.79a12.69,12.69,0,0,1-11.7,6.6c-5.19,0-8.89-2.2-11.26-6.6h-0.79a14.68,14.68,0,0,1-6.42,5.19,20.35,20.35,0,0,1-6.86,1q-2.38,0-2.38-8.18T630,67.84h2l2-.18a13,13,0,0,0,4-1.06c2.82-1.32,4.49-4.13,5-8.27h7.3q0.4,10,6.34,10c4.4,0,7.3-3.26,8.8-9.86l7.39,1.14c-0.62,6.07,1.23,9.06,5.54,9.06a17.72,17.72,0,0,0,4.66-.79c-0.44-1.67-1-3.61-1.67-5.81-0.26-.7-0.53-1.58-0.88-2.55l-0.35-1.14-0.35-1.06,14.08-3.26a35.91,35.91,0,0,1,1.67,11.62C695.6,72.51,694.37,77.87,692,81.66Z"/><path class="cls-2" d="M719.71,84.21c-7.48,0-13.11-.88-17-2.55q-0.66-2.51-1.06-18.74c-0.09-1.85-.09-4.22-0.18-7l-0.18-7.22c-0.18-5.81-.35-10.29-0.44-13.46l14.17-.79a314.58,314.58,0,0,1,.62,33.09L718,67.75a12.43,12.43,0,0,0,1.76.09q2.38,0,2.38,8.18T719.71,84.21Z"/><path class="cls-2" d="M747.52,84.21A18.11,18.11,0,0,1,740.83,83,11.68,11.68,0,0,1,735.11,78h-0.71c-2.9,4.14-7.74,6.16-14.7,6.16q-2.38,0-2.37-8.18t2.38-8.18c7.13,0,11.44-3.08,12.94-9.33l7.48,1.14c-0.26,3.34.18,5.54,1.23,6.6s3,1.58,6.16,1.58q2.38,0,2.38,8.18T747.52,84.21ZM725.17,46a14.83,14.83,0,0,1,2.46-4.93c1.5-2.2,2.82-3.43,3.87-3.61s2.64,0.44,4.93,2.11,3.43,2.82,3.61,3.78-0.44,2.46-2,4.75a17,17,0,0,1-3.87,4.22,23.86,23.86,0,0,1-4.75-2.73A21.57,21.57,0,0,1,725.17,46Z"/><path class="cls-2" d="M809.47,81.66a27.43,27.43,0,0,1-11.62,2.82c-5.63,0-9.77-2.11-12.5-6.42h-0.79a12.7,12.7,0,0,1-11.71,6.6c-5.19,0-8.89-2.2-11.26-6.6h-0.79a14.67,14.67,0,0,1-6.42,5.19,20.34,20.34,0,0,1-6.86,1q-2.38,0-2.38-8.18t2.38-8.18h2l2-.18a13,13,0,0,0,4-1.06c2.81-1.32,4.49-4.13,5-8.27h7.3q0.4,10,6.34,10c4.4,0,7.3-3.26,8.8-9.86l7.39,1.14c-0.62,6.07,1.23,9.06,5.54,9.06a17.72,17.72,0,0,0,4.66-.79c-0.44-1.67-1-3.61-1.67-5.81-0.26-.7-0.53-1.58-0.88-2.55l-0.35-1.14-0.35-1.06,14.08-3.26a35.91,35.91,0,0,1,1.67,11.62C813.08,72.51,811.85,77.87,809.47,81.66Zm-39.69-35.2a14.18,14.18,0,0,1,2.38-4.58c1.5-2,2.64-3.17,3.61-3.34,0.79-.18,2.2.44,4.22,1.76s3.17,2.46,3.61,3.43a20.16,20.16,0,0,1,2.29-3.34,4.54,4.54,0,0,1,2.46-1.85c0.88-.18,2.38.44,4.49,1.94s3.26,2.73,3.43,3.61-0.53,2.38-2,4.4a14.27,14.27,0,0,1-3.52,3.87,28.58,28.58,0,0,1-4-2.38,28.28,28.28,0,0,1-4-3.08,22.26,22.26,0,0,1-2.29,3.26,16.36,16.36,0,0,1-2.29,2.2,25.44,25.44,0,0,1-4.4-2.55A25.4,25.4,0,0,1,769.79,46.46Zm5.63-12.41a16.79,16.79,0,0,1,2.2-4.4c1.41-2,2.55-3.08,3.52-3.17,0.79-.09,2.29.53,4.31,1.94s3.08,2.46,3.26,3.26-0.53,2.2-1.94,4.22a15.06,15.06,0,0,1-3.34,3.78,25.36,25.36,0,0,1-4.22-2.55A28.82,28.82,0,0,1,775.42,34.05Z"/><path class="cls-3" d="M1073.5,349a0.21,0.21,0,0,1-.34,0l-2-2a0.21,0.21,0,0,1,0-.34l2-2a0.21,0.21,0,0,1,.34,0l2,2a0.21,0.21,0,0,1,0,.34Zm0,4.49a0.21,0.21,0,0,1-.34,0l-2-2a0.21,0.21,0,0,1,0-.34l2-2a0.21,0.21,0,0,1,.34,0l2,2a0.21,0.21,0,0,1,0,.34Z"/><path class="cls-3" d="M1091.63,344.47a7.18,7.18,0,0,1,1.88,3.35,8.9,8.9,0,0,1,.31,1.85V354a9,9,0,0,1-.82,4.26q-1.88,3.54-7.66,3.54-3.59,0-5.25-1.83a5.93,5.93,0,0,1-1.37-4.05,14.25,14.25,0,0,1,1.2-5.86h1.79q-0.72,3.09-.14,4.19,0.8,1.49,4.38,1.49,5.67,0,5.67-2.84,0-1.08-3.45-4.12Zm-3.95,6.07a0.21,0.21,0,0,0,0-.33l-1.9-1.88a0.19,0.19,0,0,0-.31,0l-1.9,1.88a0.21,0.21,0,0,0,0,.33l1.9,1.88a0.18,0.18,0,0,0,.31,0Z"/><path class="cls-3" d="M1102.16,347.73v5.86h-2.6a3.42,3.42,0,0,1-2.79-1.47,5.45,5.45,0,0,1-1.16-3.52v-8.72a1.32,1.32,0,0,1-1-.27,1.54,1.54,0,0,1-.51-0.8,1.72,1.72,0,0,1,0-1,1.66,1.66,0,0,1,.62-0.86q2.63-1.74,3.78-2.56a0.67,0.67,0,0,1,.75-0.12,0.77,0.77,0,0,1,.29.72v10.92a2.15,2.15,0,0,0,.34,1.35,1.5,1.5,0,0,0,1.23.46h1Z"/><path class="cls-3" d="M1112.23,331.87a1.12,1.12,0,0,1,1.06-.12,0.77,0.77,0,0,1,.32.92q-0.15.82-.56,2.84t-0.56,2.84a1,1,0,0,1-.44.63,1,1,0,0,1-.75.14,1,1,0,0,1-.77-1.15l-3.91,1.79a13,13,0,0,1,2.56,2.62,6.41,6.41,0,0,1,1.49,3.54v1.57q0,1,0,3a2.91,2.91,0,0,1-1.76,2.75,6.44,6.44,0,0,1-2.65.38h-4.5v-5.86h5a1.47,1.47,0,0,0,1.49-.62,1,1,0,0,0-.12-1.13,23.41,23.41,0,0,0-3.74-2.73q-1.49-.85-2.8-1.45l1.52-5.35Zm-2.51-1.23-6,3-0.5,2,6-3.06Z"/><path class="cls-3" d="M1120.41,336.73l3.86,9a4.27,4.27,0,0,0,.68,1,2.62,2.62,0,0,0,2,1h0.39v5.86h-0.74a3.38,3.38,0,0,1-2.17-.67,11.32,11.32,0,0,1-2.36-3.14q-2.14,3.81-4.68,3.81h-2.29q-2.48,0-2.94-3.35a15.45,15.45,0,0,1,.24-4.94h1.66q0,1,0,1.21a1.18,1.18,0,0,0,.55.92,1.58,1.58,0,0,0,.91.29h4.26a1,1,0,0,0,.75-0.26,0.5,0.5,0,0,0,0-.56q-1.95-4-3.52-6.94Z"/><path class="cls-3" d="M1135.76,353.59h-1.08a3.88,3.88,0,0,0-6.63,0H1127v-5.86h1.9a1.33,1.33,0,0,0,.92-0.38,1.28,1.28,0,0,0,.39-0.94v-1.83h2.36v1.83a1.34,1.34,0,0,0,1.33,1.32h1.88v5.86Zm-2.34-11.76a0.21,0.21,0,0,0,0-.32l-1.9-1.88a0.19,0.19,0,0,0-.31,0l-1.9,1.88a0.21,0.21,0,0,0,0,.32l1.9,1.88a0.18,0.18,0,0,0,.31,0Z"/><path class="cls-3" d="M1151.52,349.56A4.92,4.92,0,0,1,1151,352a4.66,4.66,0,0,1-1.42,1.79,3.54,3.54,0,0,1-2.61.79,5,5,0,0,1-2.52-1l-2-1.49a2.8,2.8,0,0,1-2.41,1.49h-4.46v-5.86h1.76a3.06,3.06,0,0,1-.68-2.73,3.78,3.78,0,0,1,1.56-2.31l-0.5-.34-0.5-.34-0.22-.15a0.79,0.79,0,0,1,.14-0.22l3.14-4.19Q1151.31,344.47,1151.52,349.56Zm-11.76-5a1.08,1.08,0,0,0,.33,1.57l0.53,0.36,0.8,0.51,1,0.67,1.33-1.85-1.81-1.21-0.53-.36a1.22,1.22,0,0,0-.89-0.17A1.21,1.21,0,0,0,1139.76,344.57Zm9,5.93a1.12,1.12,0,0,0-.33-1.57l-0.55-.36-1.57-1-1.33,1.85,2.14,1.44a1.22,1.22,0,0,0,.89.17A1.12,1.12,0,0,0,1148.71,350.5Z"/><path class="cls-3" d="M1157.57,336.74q3.38,0,4.92,4.79a17.86,17.86,0,0,1,.85,4.8v3.35a3.77,3.77,0,0,1-1.4,3.26,3.4,3.4,0,0,1-1.79.65h-3.28a5.08,5.08,0,0,1-3.67-1.13,5,5,0,0,1-1.11-3.95,27.16,27.16,0,0,1,.38-3.11h1.66q0,0.85,0,1.11a1.16,1.16,0,0,0,.58.92,1.76,1.76,0,0,0,1,.29h4.39q1.57,0,1.59-1a4.6,4.6,0,0,0-.73-1.93,6.39,6.39,0,0,0-1.52-1.81,5,5,0,0,0-2.08-1.14,2.3,2.3,0,0,0-1.91.26,1.62,1.62,0,0,0-.53.6h-1.62a11.45,11.45,0,0,1,.82-3Q1155.33,336.74,1157.57,336.74Z"/><path class="cls-3" d="M1180.48,353.59h-1.35a3.43,3.43,0,0,1-2.55-1.11,12.37,12.37,0,0,1-2.05-4c-0.09-.23-0.18-0.46-0.26-0.7l-2.07,3.93h-3.55a2.08,2.08,0,0,1-1.5-.62,2,2,0,0,1-.62-1.5v-5.88a1.67,1.67,0,0,1,1.85-1.85H1172q-0.46-1.14-.75-1.83l3.49-3.26,3,9a4.47,4.47,0,0,0,.5,1,1.72,1.72,0,0,0,1.33,1h0.92v5.86Zm-6.65-7q-0.48-1.3-1-2.6h-2.48a1.31,1.31,0,0,0-1.3,1.3,1.29,1.29,0,0,0,1.3,1.3h3.47Z"/><path class="cls-3" d="M1189,343.44q0.8,1.69-1.91,4.29h2.73v5.86h-1.93a3.74,3.74,0,0,0-5.95,0h-1.76v-5.86h2.27a1.26,1.26,0,0,0,.72-0.26,0.51,0.51,0,0,0,0-.7,3.75,3.75,0,0,0-.77-0.72,4.81,4.81,0,0,1-1.56-1.52,1.53,1.53,0,0,1,.82-1.57,6.41,6.41,0,0,1,2.48-1,6.33,6.33,0,0,1,2.85,0A2.86,2.86,0,0,1,1189,343.44Z"/><path class="cls-3" d="M1203.09,347.73q1.13-.05,1.13-0.68t-2.94-2.44l3.33-4.63a8.63,8.63,0,0,1,1.69,3.21,3.7,3.7,0,0,1,.15,1.27v5.28a3.53,3.53,0,0,1-.84,2.32,4.1,4.1,0,0,1-2,1.32,4.52,4.52,0,0,1-2.46.1,4.08,4.08,0,0,1-2.21-1.33,2.94,2.94,0,0,1-2.56,1.45,2.89,2.89,0,0,1-2.6-1.52,3.74,3.74,0,0,1-2.75,1.52h-1.35v-5.86h1.9a1.23,1.23,0,0,0,.92-0.39,1.25,1.25,0,0,0,.39-0.94v-1.79h2.36v1.79a1.44,1.44,0,0,0,.29.94,1.09,1.09,0,0,0,1.67,0,1.51,1.51,0,0,0,.27-0.94v-1.79h2.36v1.79a1.12,1.12,0,0,0,.75,1,2.8,2.8,0,0,0,1.3.31h1.18Z"/><path class="cls-3" d="M1217.86,353.59h-1.16V357a4.54,4.54,0,0,1-1.44,3.37,5,5,0,0,1-3.62,1.44,9.89,9.89,0,0,1-4.36-1.32,17.44,17.44,0,0,1-2.17-1.3l2.12-1q1.71-.79,2.61-1.23a23.94,23.94,0,0,0,4.32-2.43,2,2,0,0,0,.67-0.91h-4.08l-0.87,0a2.16,2.16,0,0,1-1.3-.39,1.83,1.83,0,0,1-.75-1.61v-5.64a4.61,4.61,0,0,1,.5-2.15,3.79,3.79,0,0,1,3.71-2,4.32,4.32,0,0,1,4,2,4.39,4.39,0,0,1,.68,2.26v1.66h1.16v5.86Zm-3.86-5.84a2.51,2.51,0,0,0-1.16-1.28,3.28,3.28,0,0,0-1.62-.41,2.11,2.11,0,0,0-1.73.84,1,1,0,0,0-.21.51c0,0.23,0,.34.21,0.34H1214Z"/><path class="cls-3" d="M1221.89,339.94a7.11,7.11,0,0,1,1.85,4.58v5.28a3.33,3.33,0,0,1-2.05,3.32,5.26,5.26,0,0,1-2.26.48h-1.86v-5.86H1220l1,0a0.56,0.56,0,0,0,.46-0.58q0-.67-2.89-2.38Zm-0.1-2a0.21,0.21,0,0,0,0-.33l-1.88-1.88a0.21,0.21,0,0,0-.32,0l-1.88,1.88a0.2,0.2,0,0,0,0,.33l1.88,1.88a0.2,0.2,0,0,0,.32,0Zm4.22,0a0.21,0.21,0,0,0,0-.33l-1.88-1.88a0.21,0.21,0,0,0-.32,0l-1.88,1.88a0.2,0.2,0,0,0,0,.33l1.88,1.88a0.2,0.2,0,0,0,.32,0Z"/><path class="cls-3" d="M1067.5,207a0.21,0.21,0,0,1-.34,0l-2-2a0.21,0.21,0,0,1,0-.34l2-2a0.21,0.21,0,0,1,.34,0l2,2a0.21,0.21,0,0,1,0,.34Zm0,4.49a0.21,0.21,0,0,1-.34,0l-2-2a0.21,0.21,0,0,1,0-.34l2-2a0.21,0.21,0,0,1,.34,0l2,2a0.21,0.21,0,0,1,0,.34Z"/><path class="cls-3" d="M1097.83,205.73v5.86H1097a3.43,3.43,0,0,1-2.7-1.57,2.88,2.88,0,0,1-2.58,1.55,2.92,2.92,0,0,1-2.65-1.5,5.15,5.15,0,0,1-1.27,1.15,3.33,3.33,0,0,1-1.66.38,2.22,2.22,0,0,1-1-.29,7.9,7.9,0,0,1-1,4.08q-2,3.33-7.2,3.33-3.49,0-5.16-1.86a6.4,6.4,0,0,1-1.47-4.12,14.67,14.67,0,0,1,1-6H1073q-1,3.38.27,4.72t5.42,1.32q3.57,0,4.36-1.33a1.48,1.48,0,0,0,.15-1.06,1.68,1.68,0,0,0-.38-0.77q-2.26-2.41-3-3.3a0.39,0.39,0,0,1-.1-0.31,0.57,0.57,0,0,1,.19-0.34q0.85-.85,3.21-3.64,1.79,2.32,2.41,3.06a1.61,1.61,0,0,0,1.73.72,1.1,1.1,0,0,0,.67-0.53,1.72,1.72,0,0,0,.22-0.89v-1.83h2.38v1.83a1.44,1.44,0,0,0,.29.94,1,1,0,0,0,.84.39,1,1,0,0,0,.82-0.39,1.44,1.44,0,0,0,.29-0.94v-1.83h2.38l0,1.85a3.9,3.9,0,0,0,.08.91,0.68,0.68,0,0,0,.72.41h1.85Z"/><path class="cls-3" d="M1107,211.59h-1.42a3.88,3.88,0,0,0-6.63,0h-1.42v-5.86h2.24a1.33,1.33,0,0,0,.92-0.38,1.28,1.28,0,0,0,.39-0.94v-1.85h2.36v1.85a1.34,1.34,0,0,0,1.33,1.32H1107v5.86Zm-4.8,3.21a0.2,0.2,0,0,0,0-.32l-1.88-1.88a0.21,0.21,0,0,0-.32,0l-1.88,1.88a0.21,0.21,0,0,0,0,.32l1.88,1.88a0.2,0.2,0,0,0,.32,0Zm4.22,0a0.21,0.21,0,0,0,0-.32l-1.88-1.88a0.21,0.21,0,0,0-.33,0l-1.88,1.88a0.21,0.21,0,0,0,0,.32l1.88,1.88a0.2,0.2,0,0,0,.33,0Z"/><path class="cls-3" d="M1116,203.76h0v2a8.84,8.84,0,0,1-.72,2.85,4.44,4.44,0,0,1-4,3h-4.39v-5.86h5a1.05,1.05,0,0,0,.5-0.1,1.52,1.52,0,0,0,.82-0.84h-3.93a2.51,2.51,0,0,1-1.38-.39,1.8,1.8,0,0,1-.86-1.62v-4.89a4.87,4.87,0,0,1,.6-2.38,3.73,3.73,0,0,1,3.61-1.95,4.31,4.31,0,0,1,4.68,4.34Zm-2.68-4.25a2.59,2.59,0,0,0-1.16-1.28,3.4,3.4,0,0,0-1.62-.39,2.1,2.1,0,0,0-1.73.84,0.94,0.94,0,0,0-.21.51q0,0.33.21,0.33h4.51Zm0.31-8.36a0.21,0.21,0,0,0,0-.32l-1.9-1.88a0.19,0.19,0,0,0-.31,0l-1.9,1.88a0.21,0.21,0,0,0,0,.32l1.9,1.88a0.18,0.18,0,0,0,.31,0Z"/><path class="cls-3" d="M1142.7,205.73v5.86h-1.57a3.38,3.38,0,0,1-3.11-1.95,5.54,5.54,0,0,1-2.36,1.64,5,5,0,0,1-1.4.31h-10.72a4.26,4.26,0,0,1-3.43-1.74,5.56,5.56,0,0,1-.8-3.28,12.89,12.89,0,0,1,1-4.6H1122q-0.7,2.51.38,3.38a1.58,1.58,0,0,0,1.21.38h10.72a4.42,4.42,0,0,0,3.9-1.88,4.26,4.26,0,0,0,.77-1.88h2q-0.12.43-.41,2.22a1.35,1.35,0,0,0,.27,1,1.08,1.08,0,0,0,.91.5h1Zm-12.61,9.07a0.2,0.2,0,0,0,0-.32l-1.88-1.88a0.2,0.2,0,0,0-.32,0l-1.88,1.88a0.21,0.21,0,0,0,0,.32l1.88,1.88a0.21,0.21,0,0,0,.32,0Zm2.12,3a0.21,0.21,0,0,0,0-.33l-1.88-1.88a0.21,0.21,0,0,0-.32,0l-1.88,1.88a0.2,0.2,0,0,0,0,.33l1.88,1.88a0.2,0.2,0,0,0,.32,0Zm2.1-3a0.2,0.2,0,0,0,0-.32l-1.88-1.88a0.2,0.2,0,0,0-.33,0l-1.88,1.88a0.21,0.21,0,0,0,0,.32l1.88,1.88a0.21,0.21,0,0,0,.33,0Z"/><path class="cls-3" d="M1148.27,197.93a7.15,7.15,0,0,1,1.83,4.58v5.28a3.33,3.33,0,0,1-2,3.32,5.38,5.38,0,0,1-2.27.48h-3.33v-5.86h3.93l1,0a0.54,0.54,0,0,0,.44-0.6q0-.65-2.89-2.36Zm-1.14,16.87a0.21,0.21,0,0,0,0-.32l-1.88-1.88a0.21,0.21,0,0,0-.32,0l-1.88,1.88a0.2,0.2,0,0,0,0,.32l1.88,1.88a0.2,0.2,0,0,0,.32,0Zm4.22,0a0.21,0.21,0,0,0,0-.32l-1.88-1.88a0.21,0.21,0,0,0-.33,0l-1.88,1.88a0.2,0.2,0,0,0,0,.32l1.88,1.88a0.2,0.2,0,0,0,.33,0Z"/><path class="cls-3" d="M1159.21,205.73v5.86h-2.6a3.42,3.42,0,0,1-2.79-1.47,5.45,5.45,0,0,1-1.16-3.52v-8.72a1.32,1.32,0,0,1-1-.27,1.54,1.54,0,0,1-.51-0.8,1.72,1.72,0,0,1,0-1,1.66,1.66,0,0,1,.62-0.86q2.63-1.74,3.78-2.56a0.67,0.67,0,0,1,.75-0.12,0.77,0.77,0,0,1,.29.72v10.92a2.15,2.15,0,0,0,.34,1.35,1.5,1.5,0,0,0,1.23.46h1Z"/><path class="cls-3" d="M1163.14,197.93a7.11,7.11,0,0,1,1.85,4.58v5.28a3.33,3.33,0,0,1-2.05,3.32,5.26,5.26,0,0,1-2.26.48h-1.86v-5.86h2.46l1,0a0.56,0.56,0,0,0,.46-0.58q0-.67-2.89-2.38Zm-0.1-2a0.21,0.21,0,0,0,0-.33l-1.88-1.88a0.21,0.21,0,0,0-.32,0l-1.88,1.88a0.2,0.2,0,0,0,0,.33l1.88,1.88a0.2,0.2,0,0,0,.32,0Zm4.22,0a0.21,0.21,0,0,0,0-.33l-1.88-1.88a0.21,0.21,0,0,0-.32,0l-1.88,1.88a0.2,0.2,0,0,0,0,.33l1.88,1.88a0.2,0.2,0,0,0,.32,0Z"/><path class="cls-3" d="M1182.86,202.46a7.18,7.18,0,0,1,1.88,3.35,8.9,8.9,0,0,1,.31,1.85V212a9,9,0,0,1-.82,4.26q-1.88,3.54-7.66,3.54-3.59,0-5.25-1.83a5.93,5.93,0,0,1-1.37-4.05,14.25,14.25,0,0,1,1.2-5.86h1.79q-0.72,3.09-.14,4.19,0.8,1.49,4.38,1.49,5.67,0,5.67-2.84,0-1.08-3.45-4.12Zm-3.95,6.07a0.21,0.21,0,0,0,0-.33l-1.9-1.88a0.19,0.19,0,0,0-.31,0l-1.9,1.88a0.21,0.21,0,0,0,0,.33l1.9,1.88a0.18,0.18,0,0,0,.31,0Z"/><path class="cls-3" d="M1193.39,205.73v5.86h-2.6a3.42,3.42,0,0,1-2.79-1.47,5.45,5.45,0,0,1-1.16-3.52v-8.72a1.32,1.32,0,0,1-1-.27,1.54,1.54,0,0,1-.51-0.8,1.72,1.72,0,0,1,0-1A1.66,1.66,0,0,1,1186,195q2.63-1.74,3.78-2.56a0.67,0.67,0,0,1,.75-0.12,0.77,0.77,0,0,1,.29.72v10.92a2.15,2.15,0,0,0,.34,1.35,1.5,1.5,0,0,0,1.23.46h1Z"/><path class="cls-3" d="M1210,200.15a0.51,0.51,0,0,1,0,.36q-0.17,1-.72,4l-0.68,0a7.32,7.32,0,0,0-3,1,11,11,0,0,0-2.6,2.39q-0.55.67-1.32,1.74a8.24,8.24,0,0,1-.74.94,4,4,0,0,1-2.77,1.06h-5.42v-5.86h5.67a8.24,8.24,0,0,0,2.27-.41,1.69,1.69,0,0,0,.46-0.21q0.55-.34,2-1.44l-1.54-.46-1.88-.56a7.9,7.9,0,0,0-3-.51,2.17,2.17,0,0,0-1.06.43,2.8,2.8,0,0,0-.67,1l-1.52-.32a11.57,11.57,0,0,1,2.12-4.73,3.84,3.84,0,0,1,2.73-1.37,4.5,4.5,0,0,1,.67,0l0.77,0.15,0.73,0.19q0.51,0.15,3.64,1.4a15.56,15.56,0,0,0,3.76,1l0.72,0.07,0.94,0A0.65,0.65,0,0,1,1210,200.15Z"/><path class="cls-3" d="M1216.47,192.63q0,0.1-1.56,19h-1.79L1210.44,196l5-3.47a0.94,0.94,0,0,1,.77-0.29A0.35,0.35,0,0,1,1216.47,192.63Z"/><path class="cls-3" d="M1226.2,211.59h-1.44a3.37,3.37,0,0,1-2.41-1q0,4.46-1.21,6.63a4.79,4.79,0,0,1-4.56,2.5,9.36,9.36,0,0,1-4.36-1.42,18.47,18.47,0,0,1-2.17-1.42q10.77-4.44,10.9-6.63,0.07-1-4-4.53l3.14-4.51a20.78,20.78,0,0,0,1.73,2.31q1.71,2.19,2.92,2.17h1.47v5.86Z"/><path class="cls-3" d="M1242.19,206.8a5.16,5.16,0,0,1-.5,2.39,4,4,0,0,1-4,2.39h-11.66v-5.86h2.84a20.4,20.4,0,0,0-2.8-8.72l5.14-4.72,2.17,4.36a1.58,1.58,0,0,1-1.88,2.2v4.92q3.79-4.39,6.17-4.48a4.55,4.55,0,0,1,3.37,1,3.85,3.85,0,0,1,1.13,3v3.55Zm-4.85-1.08a5.7,5.7,0,0,0,1.83-.19,1.29,1.29,0,0,0,.74-1.33,1.48,1.48,0,0,0-1.13-1.38,3.53,3.53,0,0,0-1.11-.26,6.85,6.85,0,0,0-4.12,1.59,9.63,9.63,0,0,0-1.71,1.57h5.5Z"/><path class="cls-4" d="M810.72,215.17a14.4,14.4,0,0,1,1.31-5.53,0.39,0.39,0,0,1,.38-0.2,0.88,0.88,0,0,1,.48.13,0.36,0.36,0,0,1,.21.25,0.32,0.32,0,0,1,0,.16,11.07,11.07,0,0,0-.77,3.8,5.17,5.17,0,0,0,.8,2.92A5.45,5.45,0,0,0,818,219a10,10,0,0,0,3.41-.61,8.83,8.83,0,0,0,3-1.81,1.27,1.27,0,0,0,.45-0.91,2.07,2.07,0,0,0-1-1.47,29.35,29.35,0,0,0-3.46-2.08,0.6,0.6,0,0,1-.3-0.61,2.34,2.34,0,0,1,.52-1.21,1.37,1.37,0,0,1,.92-0.74l0.8,0.29q0.72,0.27,1.45.51a13.78,13.78,0,0,0,2.1.44,19.72,19.72,0,0,0,2.89.2v2.67a11.64,11.64,0,0,1-2.78-.42,4.1,4.1,0,0,1,.61,2.11,5.13,5.13,0,0,1-2.16,3.89,9.22,9.22,0,0,1-3.16,1.81,11.47,11.47,0,0,1-3.77.64,7.37,7.37,0,0,1-4.72-1.61,5.3,5.3,0,0,1-1.52-2A7.09,7.09,0,0,1,810.72,215.17Z"/><path class="cls-4" d="M828.73,211h1.39a14.1,14.1,0,0,0,4.45-.67,13.86,13.86,0,0,0,1.8-.74,16.21,16.21,0,0,0,1.52-.83l1.44-.92,1.33-.84-1.41-.7q-1.05-.53-1.54-0.75a9.81,9.81,0,0,0-1.27-.45,5.26,5.26,0,0,0-1.43-.23,3.43,3.43,0,0,0-3,1.84,0.26,0.26,0,0,1-.23.13,0.6,0.6,0,0,1-.36-0.16,0.44,0.44,0,0,1-.2-0.32,0.47,0.47,0,0,1,0-.23,21,21,0,0,1,1.27-2.3,3.49,3.49,0,0,1,2.92-1.62,9.1,9.1,0,0,1,3.77,1.22q1,0.5,2.09,1a14.08,14.08,0,0,0,2.45.86,10.76,10.76,0,0,0,2.7.35l-1.27,2.7a7.6,7.6,0,0,0-1-.08,6,6,0,0,0-.91.08q1.37,2.66,5.25,2.66v2.67a7.23,7.23,0,0,1-4.43-1.2,6.29,6.29,0,0,1-2.21-3.7,10.77,10.77,0,0,0-1.86,1l-2,1.3a23.66,23.66,0,0,1-2.08,1.24,12.29,12.29,0,0,1-5.87,1.36h-1.36a1.41,1.41,0,0,1-.92-0.43,1.19,1.19,0,0,1-.39-0.91,1.4,1.4,0,0,1,.4-0.92A1.18,1.18,0,0,1,828.73,211Zm3.55,7a0.25,0.25,0,0,1,0-.41l1.59-1.33a0.25,0.25,0,0,1,.41,0l1.39,1.59a0.35,0.35,0,0,1-.06.41L834,219.67a0.28,0.28,0,0,1-.41-0.06Zm2,3.39c-0.08-.19-0.07-0.3,0-0.34l1.47-1.23a0.24,0.24,0,0,1,.38,0l1.25,1.47q0.11,0.27-.06.34l-1.45,1.22a0.23,0.23,0,0,1-.36,0Zm2-3.39a0.25,0.25,0,0,1,0-.41l1.59-1.33a0.25,0.25,0,0,1,.41,0l1.36,1.59a0.26,0.26,0,0,1-.06.41L838,219.67a0.28,0.28,0,0,1-.41-0.06Z"/><path class="cls-4" d="M848.55,211h1.59q3-.08,3.84-1.44,0-1-1.67-3.84l1.17-2.58a22.87,22.87,0,0,1,1.45,2.85,6.34,6.34,0,0,1,.51,2.45,7.89,7.89,0,0,1-.27,2.12,4.51,4.51,0,0,1-.86,1.64q-1.19,1.47-4.17,1.47h-1.59a1.39,1.39,0,0,1-1.33-1.33,1.46,1.46,0,0,1,.42-0.93A1.21,1.21,0,0,1,848.55,211Zm1.33-12.16a0.25,0.25,0,0,1,0-.41l1.7-1.44a0.25,0.25,0,0,1,.41,0l1.44,1.7a0.25,0.25,0,0,1,0,.41l-1.7,1.44a0.25,0.25,0,0,1-.41,0Z"/><path class="cls-4" d="M854,220.46a0.66,0.66,0,0,1,.11-0.36,0.37,0.37,0,0,1,.29-0.19l0.56,0,0.49,0,0.4,0a2.35,2.35,0,0,0,.41,0l0.37-.08a2.23,2.23,0,0,0,.44-0.12l0.45-.19a9.38,9.38,0,0,0,3.91-2.63,5.14,5.14,0,0,0,1.55-3.2q0-1.14-2.19-5.33l1.16-2.59a46.06,46.06,0,0,1,2.1,4.39,8.09,8.09,0,0,1,.59,2.92q0,0.13-.09,1.25a7.1,7.1,0,0,1-.81,2.55,11.13,11.13,0,0,1-1.69,2.48,10.5,10.5,0,0,1-2,1.75,3.55,3.55,0,0,1-1.83.69,12.7,12.7,0,0,1-4-.91A0.45,0.45,0,0,1,854,220.46Zm5.23-20.56a0.25,0.25,0,0,1,0-.41l1.7-1.44a0.25,0.25,0,0,1,.41,0l1.44,1.7a0.25,0.25,0,0,1,0,.41l-1.7,1.44a0.25,0.25,0,0,1-.41,0Z"/><path class="cls-4" d="M868,220.46a0.48,0.48,0,0,1,.38-0.56l0.94,0,0.52,0a2.35,2.35,0,0,0,.41,0l0.37-.08a2.44,2.44,0,0,0,.45-0.12l0.46-.19a9.19,9.19,0,0,0,3.85-2.59,5.76,5.76,0,0,0,1.62-3.16h-2.69a5.43,5.43,0,0,1-2.84-.7,2.53,2.53,0,0,1-1-1,3.84,3.84,0,0,1-.35-1.79,7.5,7.5,0,0,1,.55-2.59,7.23,7.23,0,0,1,1.53-2.49,2.87,2.87,0,0,1,2.08-1,3.44,3.44,0,0,1,2.88,1.92,10.68,10.68,0,0,1,1.41,5h3.14v2.67h-3.14a4.43,4.43,0,0,1-.06.67c0,0.26-.07.44-0.08,0.53a8.42,8.42,0,0,1-1,2.49,11.63,11.63,0,0,1-1.68,2.21,10.06,10.06,0,0,1-1.89,1.53,3.36,3.36,0,0,1-1.67.59,12.7,12.7,0,0,1-4-.91A0.45,0.45,0,0,1,868,220.46Zm3.73-11q0,1.56,2.42,1.56h2.52a8.5,8.5,0,0,0-1.2-3.26,1.73,1.73,0,0,0-3-.06A2.78,2.78,0,0,0,871.77,209.43Z"/><path class="cls-4" d="M880.84,213.26a1.28,1.28,0,0,1-.4-0.92,1.31,1.31,0,0,1,.4-0.93,1.22,1.22,0,0,1,.9-0.41h0.53a7.15,7.15,0,0,0,3.27-.66,3.89,3.89,0,0,0,1.86-2.33l0.67-1.81a0.47,0.47,0,0,1,.28-0.23,1.3,1.3,0,0,1,.48-0.09,0.87,0.87,0,0,1,.45.11,0.34,0.34,0,0,1,.19.31l-1.2,3.84a5.15,5.15,0,0,0,2.78,1.22,2.23,2.23,0,0,0,1.85-1,11.19,11.19,0,0,0,1.41-3.07A0.65,0.65,0,0,1,895,207a0.84,0.84,0,0,1,.45.12,0.34,0.34,0,0,1,.19.3,0.5,0.5,0,0,1,0,.23,26.13,26.13,0,0,1-1,2.89,7.43,7.43,0,0,0,1.48.45,8.6,8.6,0,0,0,1.83.2q2,0,2.56-1.09,0-1-1.66-3.83l1.17-2.59a25,25,0,0,1,1.45,2.88,6.23,6.23,0,0,1,.52,2.38,5.77,5.77,0,0,1-1,3.67,3.49,3.49,0,0,1-2.9,1.3,10,10,0,0,1-4.46-1.36,3.3,3.3,0,0,1-2.75,1.48,7,7,0,0,1-4-1.75,4.27,4.27,0,0,1-1.88,1.09,10.14,10.14,0,0,1-2.76.32h-0.53A1.23,1.23,0,0,1,880.84,213.26Z"/><path class="cls-4" d="M910.73,217.64a9.79,9.79,0,0,1,1.07-4.3,14.5,14.5,0,0,1,3.1-4.14,16.48,16.48,0,0,1,4.63-3.11l-0.69-.23-0.72-.24-0.63-.2-0.69-.2-0.62-.13a6.4,6.4,0,0,0-1.31-.14,3.39,3.39,0,0,0-3,1.84,0.28,0.28,0,0,1-.26.13,0.52,0.52,0,0,1-.35-0.16,0.45,0.45,0,0,1-.17-0.34,0.49,0.49,0,0,1,0-.23,16.65,16.65,0,0,1,1.3-2.36,3.57,3.57,0,0,1,3-1.61,14.7,14.7,0,0,1,4.7,1.19,19.29,19.29,0,0,0,2.86.83,15.52,15.52,0,0,0,3.34.38l-1.06,2.64a13.51,13.51,0,0,0-1.66.22q1.16,3.52,5.59,3.52v2.67a6.88,6.88,0,0,1-4.75-1.46,7.28,7.28,0,0,1-2.08-4.51,16,16,0,0,0-5.11,2.18,12.41,12.41,0,0,0-3.54,3.34,6.4,6.4,0,0,0-1.24,3.59,4.23,4.23,0,0,0,2.22,3.66q2.22,1.42,6.77,1.42a37.07,37.07,0,0,0,3.89-.25l-1,2.67a31,31,0,0,1-4.13.27,14.79,14.79,0,0,1-4.08-.55,8.27,8.27,0,0,1-3.07-1.52A6.06,6.06,0,0,1,910.73,217.64Z"/><path class="cls-4" d="M929.19,211h1.59q2.77-.08,3.72-1.28l-1.09-15.11a0.66,0.66,0,0,1,.16-0.48l0.39-.42a17.1,17.1,0,0,1,1.28-1.36l0.38,0.23,0.48,15.81a8.29,8.29,0,0,1-.28,2.17,4.51,4.51,0,0,1-.86,1.64q-1.19,1.47-4.17,1.47h-1.59a1.39,1.39,0,0,1-1.33-1.33,1.46,1.46,0,0,1,.42-0.93A1.21,1.21,0,0,1,929.19,211Z"/><path class="cls-4" d="M941.66,207.26q0,3.74,3.47,3.73h0.3v2.67h-0.3a5,5,0,0,1-3.75-1.25,6.13,6.13,0,0,1-1.31-4L939.5,194.6a0.61,0.61,0,0,1,.16-0.52q1.27-1.36,1.66-1.75l0.34,0.23v14.69Z"/><path class="cls-4" d="M944.5,213.26a1.28,1.28,0,0,1-.41-0.93,1.31,1.31,0,0,1,.39-0.93,1.22,1.22,0,0,1,.91-0.41h0.53a8.51,8.51,0,0,0,4.3-.92,12.63,12.63,0,0,1-.11-1.66q0-.83.06-2.21a0.69,0.69,0,0,1,.4-0.37,1.47,1.47,0,0,1,.69-0.2,0.26,0.26,0,0,1,.32.25v0.69a5.81,5.81,0,0,0,.61,3.16,2.77,2.77,0,0,0,.77.7,3.46,3.46,0,0,0,1.23.47q0.69-1,1.88-2.37t1.76-2q0.57-.59,1.38-1.33a13.26,13.26,0,0,1,1.48-1.2,5.4,5.4,0,0,1,2.88-1.06,4.14,4.14,0,0,1,3.18,1.46,5.7,5.7,0,0,1,1.3,4,5.76,5.76,0,0,1-1.22,3.9q-1.2,1.36-4.09,1.36H954v-0.11a4.37,4.37,0,0,1-3.08-1.58q-1.09,1.69-5,1.69h-0.52A1.24,1.24,0,0,1,944.5,213.26Zm18.5-7.7a4,4,0,0,0-1.48.31,7.31,7.31,0,0,0-1.44.77,13.68,13.68,0,0,0-1.5,1.24q-0.84.79-1.44,1.44t-1.5,1.68h7.06q3-.08,3.86-1.44a4.36,4.36,0,0,0-1.08-2.89A3.24,3.24,0,0,0,963,205.56Z"/><path class="cls-4" d="M976.8,210.23c0-.37,0-0.66,0-0.86a0.55,0.55,0,0,1,1.06,0,1.57,1.57,0,0,0,.71,1.4,3.2,3.2,0,0,0,1.76.45,8.38,8.38,0,0,0,2.23-.32,9.49,9.49,0,0,0,2.12-.85l-3-6.91,1.17-2.59,3.09,7.31a9.48,9.48,0,0,0,.61,1.24,4.76,4.76,0,0,0,.78,1,4,4,0,0,0,2.88.94v2.67a5.42,5.42,0,0,1-4.31-1.62,7.14,7.14,0,0,1-2.34,1.29,9,9,0,0,1-3.25.65A3.26,3.26,0,0,1,976.8,210.23Z"/><path class="cls-4" d="M989.31,213.26a1.27,1.27,0,0,1-.41-0.92,1.3,1.3,0,0,1,.41-0.93,1.26,1.26,0,0,1,.92-0.41h1.06a4.71,4.71,0,0,0,2-.45,5.27,5.27,0,0,0,1.59-1.12,17,17,0,0,0,1.23-1.45,16.11,16.11,0,0,0,1-1.45,6.13,6.13,0,0,1,.83-1.11,1.17,1.17,0,0,1,.77-0.45,1.28,1.28,0,0,1,.8.45,9.79,9.79,0,0,1,1,1.12,14.48,14.48,0,0,0,1.27,1.45,16.92,16.92,0,0,0,1.63,1.45,7.42,7.42,0,0,0,2.12,1.12,7.92,7.92,0,0,0,2.66.45v2.67a8.12,8.12,0,0,1-5-1.58q-1.61,2.63-3.41,2.63a4.51,4.51,0,0,1-2.12-.62,33.79,33.79,0,0,1-3.08-2,4.64,4.64,0,0,1-3.31,1.55h-1.06A1.27,1.27,0,0,1,989.31,213.26Zm10.81-1.19a2.59,2.59,0,0,0,1.88-.94q-0.58-.55-1.73-1.73l-1.55-1.58a0.45,0.45,0,0,0-.31-0.16,0.58,0.58,0,0,0-.27.06,1.29,1.29,0,0,0-.27.2l-0.27.27a4.48,4.48,0,0,0-.3.39L997,209l-0.34.52-0.35.53q1,0.75,1.48,1.07a7.15,7.15,0,0,0,1.13.63A3,3,0,0,0,1000.13,212.07Z"/><path class="cls-4" d="M1008.17,211h1.39a14.1,14.1,0,0,0,4.45-.67,13.86,13.86,0,0,0,1.8-.74,16.21,16.21,0,0,0,1.52-.83l1.44-.92,1.33-.84-1.41-.7q-1.05-.53-1.54-0.75a9.81,9.81,0,0,0-1.27-.45,5.26,5.26,0,0,0-1.43-.23,3.43,3.43,0,0,0-3,1.84,0.26,0.26,0,0,1-.23.13,0.6,0.6,0,0,1-.36-0.16,0.44,0.44,0,0,1-.2-0.32,0.47,0.47,0,0,1,0-.23,21,21,0,0,1,1.27-2.3,3.49,3.49,0,0,1,2.92-1.62,9.1,9.1,0,0,1,3.77,1.22q1,0.5,2.09,1a14.08,14.08,0,0,0,2.45.86,10.76,10.76,0,0,0,2.7.35l-1.27,2.7a7.6,7.6,0,0,0-1-.08,6,6,0,0,0-.91.08q1.37,2.66,5.25,2.66v2.67a7.23,7.23,0,0,1-4.43-1.2,6.29,6.29,0,0,1-2.21-3.7,10.77,10.77,0,0,0-1.86,1l-2,1.3a23.66,23.66,0,0,1-2.08,1.24,12.29,12.29,0,0,1-5.87,1.36h-1.36a1.41,1.41,0,0,1-.92-0.43,1.19,1.19,0,0,1-.39-0.91,1.4,1.4,0,0,1,.4-0.92A1.18,1.18,0,0,1,1008.17,211Z"/><path class="cls-4" d="M1027.05,213.26a1.28,1.28,0,0,1-.4-0.92,1.31,1.31,0,0,1,.4-0.93,1.22,1.22,0,0,1,.9-0.41h0.22a5.1,5.1,0,0,0,1.95-.36,4.38,4.38,0,0,0,1.47-.95,10.4,10.4,0,0,0,1.09-1.28,15.39,15.39,0,0,0,.9-1.4q0.4-.7.79-1.28a2.43,2.43,0,0,1,2-1.31,2.85,2.85,0,0,1,2,.93,6.17,6.17,0,0,1,1.44,2.3,8.29,8.29,0,0,1,.5,2.87,4.09,4.09,0,0,1-.62,2.39,2.57,2.57,0,0,1-2.28,1.22,5,5,0,0,1-2-.41l-1.28-.55-1.21-.61-1-.51a4.7,4.7,0,0,1-4,1.63A1.23,1.23,0,0,1,1027.05,213.26Zm11.55-2a0.17,0.17,0,0,1,.06-0.11,4.38,4.38,0,0,0-1-2.48,2.75,2.75,0,0,0-2-1.39,1.93,1.93,0,0,0-1.31,1.13l-0.44.71-0.41.68a11.92,11.92,0,0,0,4.53,1.7A0.66,0.66,0,0,0,1038.61,211.25Z"/><path class="cls-4" d="M813.7,354.83A14.4,14.4,0,0,1,815,349.3a0.39,0.39,0,0,1,.38-0.2,0.88,0.88,0,0,1,.48.13,0.36,0.36,0,0,1,.21.25,0.32,0.32,0,0,1,0,.16,11.07,11.07,0,0,0-.77,3.8,5.17,5.17,0,0,0,.8,2.92,5.45,5.45,0,0,0,4.94,2.3,10,10,0,0,0,3.41-.61,8.83,8.83,0,0,0,3-1.81,1.27,1.27,0,0,0,.45-0.91,2.07,2.07,0,0,0-1-1.47,29.35,29.35,0,0,0-3.46-2.08,0.6,0.6,0,0,1-.3-0.61,2.34,2.34,0,0,1,.52-1.21,1.37,1.37,0,0,1,.92-0.74l0.8,0.29q0.72,0.27,1.45.51a13.78,13.78,0,0,0,2.1.44,19.72,19.72,0,0,0,2.89.2v2.67a11.64,11.64,0,0,1-2.78-.42,4.1,4.1,0,0,1,.61,2.11,5.13,5.13,0,0,1-2.16,3.89,9.22,9.22,0,0,1-3.16,1.81,11.47,11.47,0,0,1-3.77.64,7.37,7.37,0,0,1-4.72-1.61,5.3,5.3,0,0,1-1.52-2A7.09,7.09,0,0,1,813.7,354.83Z"/><path class="cls-4" d="M831.72,350.66h1.39a14.1,14.1,0,0,0,4.45-.67,13.86,13.86,0,0,0,1.8-.74,16.21,16.21,0,0,0,1.52-.83l1.44-.92,1.33-.84-1.41-.7q-1.05-.53-1.54-0.75a9.81,9.81,0,0,0-1.27-.45,5.26,5.26,0,0,0-1.43-.23,3.43,3.43,0,0,0-3,1.84,0.26,0.26,0,0,1-.23.13,0.6,0.6,0,0,1-.36-0.16,0.44,0.44,0,0,1-.2-0.32,0.47,0.47,0,0,1,0-.23,21,21,0,0,1,1.27-2.3,3.49,3.49,0,0,1,2.92-1.62,9.1,9.1,0,0,1,3.77,1.22q1,0.5,2.09,1a14.08,14.08,0,0,0,2.45.86,10.76,10.76,0,0,0,2.7.35l-1.27,2.7a7.6,7.6,0,0,0-1-.08,6,6,0,0,0-.91.08q1.37,2.66,5.25,2.66v2.67a7.23,7.23,0,0,1-4.43-1.2,6.29,6.29,0,0,1-2.21-3.7,10.77,10.77,0,0,0-1.86,1l-2,1.3A23.66,23.66,0,0,1,839,352a12.29,12.29,0,0,1-5.87,1.36h-1.36a1.41,1.41,0,0,1-.92-0.43,1.19,1.19,0,0,1-.39-0.91,1.4,1.4,0,0,1,.4-0.92A1.18,1.18,0,0,1,831.72,350.66Zm3.55,7a0.25,0.25,0,0,1,0-.41l1.59-1.33a0.25,0.25,0,0,1,.41,0l1.39,1.59a0.35,0.35,0,0,1-.06.41L837,359.33a0.28,0.28,0,0,1-.41-0.06Zm2,3.39c-0.08-.19-0.07-0.3,0-0.34l1.47-1.23a0.24,0.24,0,0,1,.38,0l1.25,1.47q0.11,0.27-.06.34l-1.45,1.22a0.23,0.23,0,0,1-.36,0Zm2-3.39a0.25,0.25,0,0,1,0-.41l1.59-1.33a0.25,0.25,0,0,1,.41,0l1.36,1.59a0.26,0.26,0,0,1-.06.41L841,359.33a0.28,0.28,0,0,1-.41-0.06Z"/><path class="cls-4" d="M851.53,350.66h1.59q3-.08,3.84-1.44,0-1-1.67-3.84l1.17-2.58a22.87,22.87,0,0,1,1.45,2.85,6.34,6.34,0,0,1,.51,2.45,7.89,7.89,0,0,1-.27,2.12,4.51,4.51,0,0,1-.86,1.64q-1.19,1.47-4.17,1.47h-1.59A1.39,1.39,0,0,1,850.2,352a1.46,1.46,0,0,1,.42-0.93A1.21,1.21,0,0,1,851.53,350.66Zm1.33-12.16a0.25,0.25,0,0,1,0-.41l1.7-1.44a0.25,0.25,0,0,1,.41,0l1.44,1.7a0.25,0.25,0,0,1,0,.41l-1.7,1.44a0.25,0.25,0,0,1-.41,0Z"/><path class="cls-4" d="M857,360.13a0.66,0.66,0,0,1,.11-0.36,0.37,0.37,0,0,1,.29-0.19l0.56,0,0.49,0,0.4,0a2.35,2.35,0,0,0,.41,0l0.37-.08a2.23,2.23,0,0,0,.44-0.12l0.45-.19a9.38,9.38,0,0,0,3.91-2.63,5.14,5.14,0,0,0,1.55-3.2q0-1.14-2.19-5.33l1.16-2.59a46.06,46.06,0,0,1,2.1,4.39,8.09,8.09,0,0,1,.59,2.92q0,0.13-.09,1.25a7.1,7.1,0,0,1-.81,2.55,11.13,11.13,0,0,1-1.69,2.48,10.5,10.5,0,0,1-2,1.75,3.55,3.55,0,0,1-1.83.69,12.7,12.7,0,0,1-4-.91A0.45,0.45,0,0,1,857,360.13Zm5.23-20.56a0.25,0.25,0,0,1,0-.41l1.7-1.44a0.25,0.25,0,0,1,.41,0l1.44,1.7a0.25,0.25,0,0,1,0,.41L864,341.3a0.25,0.25,0,0,1-.41,0Z"/><path class="cls-4" d="M871,360.13a0.48,0.48,0,0,1,.38-0.56l0.94,0,0.52,0a2.35,2.35,0,0,0,.41,0l0.37-.08a2.44,2.44,0,0,0,.45-0.12l0.46-.19a9.19,9.19,0,0,0,3.85-2.59,5.76,5.76,0,0,0,1.62-3.16h-2.69a5.43,5.43,0,0,1-2.84-.7,2.53,2.53,0,0,1-1-1,3.84,3.84,0,0,1-.35-1.79,7.5,7.5,0,0,1,.55-2.59,7.23,7.23,0,0,1,1.53-2.49,2.87,2.87,0,0,1,2.08-1,3.44,3.44,0,0,1,2.88,1.92,10.68,10.68,0,0,1,1.41,5h3.14v2.67h-3.14a4.43,4.43,0,0,1-.06.67c0,0.26-.07.44-0.08,0.53a8.42,8.42,0,0,1-1,2.49,11.63,11.63,0,0,1-1.68,2.21,10.06,10.06,0,0,1-1.89,1.53,3.36,3.36,0,0,1-1.67.59,12.7,12.7,0,0,1-4-.91A0.45,0.45,0,0,1,871,360.13Zm3.73-11q0,1.56,2.42,1.56h2.52a8.5,8.5,0,0,0-1.2-3.26,1.73,1.73,0,0,0-3-.06A2.78,2.78,0,0,0,874.75,349.1Z"/><path class="cls-4" d="M883.82,352.93a1.28,1.28,0,0,1-.4-0.92,1.31,1.31,0,0,1,.4-0.93,1.22,1.22,0,0,1,.9-0.41h0.53a7.15,7.15,0,0,0,3.27-.66,3.89,3.89,0,0,0,1.86-2.33l0.67-1.81a0.47,0.47,0,0,1,.28-0.23,1.3,1.3,0,0,1,.48-0.09,0.87,0.87,0,0,1,.45.11,0.34,0.34,0,0,1,.19.31l-1.2,3.84A5.15,5.15,0,0,0,894,351a2.23,2.23,0,0,0,1.85-1,11.19,11.19,0,0,0,1.41-3.07,0.65,0.65,0,0,1,.72-0.3,0.84,0.84,0,0,1,.45.12,0.34,0.34,0,0,1,.19.3,0.5,0.5,0,0,1,0,.23,26.13,26.13,0,0,1-1,2.89,7.43,7.43,0,0,0,1.48.45,8.6,8.6,0,0,0,1.83.2q2,0,2.56-1.09,0-1-1.66-3.83l1.17-2.59a25,25,0,0,1,1.45,2.88,6.23,6.23,0,0,1,.52,2.38,5.77,5.77,0,0,1-1,3.67,3.49,3.49,0,0,1-2.9,1.3,10,10,0,0,1-4.46-1.36,3.3,3.3,0,0,1-2.75,1.48,7,7,0,0,1-4-1.75A4.27,4.27,0,0,1,888,353a10.14,10.14,0,0,1-2.76.32h-0.53A1.23,1.23,0,0,1,883.82,352.93Z"/><path class="cls-4" d="M913.72,357.3a9.79,9.79,0,0,1,1.07-4.3,14.5,14.5,0,0,1,3.1-4.14,16.48,16.48,0,0,1,4.63-3.11l-0.69-.23-0.72-.24-0.63-.2-0.69-.2-0.62-.13a6.4,6.4,0,0,0-1.31-.14,3.39,3.39,0,0,0-3,1.84,0.28,0.28,0,0,1-.26.13,0.52,0.52,0,0,1-.35-0.16,0.45,0.45,0,0,1-.17-0.34,0.49,0.49,0,0,1,0-.23,16.65,16.65,0,0,1,1.3-2.36,3.57,3.57,0,0,1,3-1.61,14.7,14.7,0,0,1,4.7,1.19,19.29,19.29,0,0,0,2.86.83,15.52,15.52,0,0,0,3.34.38l-1.06,2.64a13.51,13.51,0,0,0-1.66.22q1.16,3.52,5.59,3.52v2.67a6.88,6.88,0,0,1-4.75-1.46,7.28,7.28,0,0,1-2.08-4.51,16,16,0,0,0-5.11,2.18,12.41,12.41,0,0,0-3.54,3.34,6.4,6.4,0,0,0-1.24,3.59,4.23,4.23,0,0,0,2.22,3.66q2.22,1.42,6.77,1.42a37.07,37.07,0,0,0,3.89-.25l-1,2.67a31,31,0,0,1-4.13.27,14.79,14.79,0,0,1-4.08-.55,8.27,8.27,0,0,1-3.07-1.52A6.06,6.06,0,0,1,913.72,357.3Z"/><path class="cls-4" d="M932.17,350.66h1.59q2.77-.08,3.72-1.28l-1.09-15.11a0.66,0.66,0,0,1,.16-0.48l0.39-.42a17.1,17.1,0,0,1,1.28-1.36l0.38,0.23,0.48,15.81a8.29,8.29,0,0,1-.28,2.17,4.51,4.51,0,0,1-.86,1.64q-1.19,1.47-4.17,1.47h-1.59a1.39,1.39,0,0,1-1.33-1.33,1.46,1.46,0,0,1,.42-0.93A1.21,1.21,0,0,1,932.17,350.66Z"/><path class="cls-4" d="M944.64,346.93q0,3.74,3.47,3.73h0.3v2.67h-0.3a5,5,0,0,1-3.75-1.25,6.13,6.13,0,0,1-1.31-4l-0.56-13.78a0.61,0.61,0,0,1,.16-0.52q1.27-1.36,1.66-1.75l0.34,0.23v14.69Z"/><path class="cls-4" d="M947.48,352.93a1.28,1.28,0,0,1-.41-0.93,1.31,1.31,0,0,1,.39-0.93,1.22,1.22,0,0,1,.91-0.41h0.53a8.51,8.51,0,0,0,4.3-.92,12.63,12.63,0,0,1-.11-1.66q0-.83.06-2.21a0.69,0.69,0,0,1,.4-0.37,1.47,1.47,0,0,1,.69-0.2,0.26,0.26,0,0,1,.32.25v0.69a5.81,5.81,0,0,0,.61,3.16,2.77,2.77,0,0,0,.77.7,3.46,3.46,0,0,0,1.23.47q0.69-1,1.88-2.37t1.76-2q0.57-.59,1.38-1.33a13.26,13.26,0,0,1,1.48-1.2,5.4,5.4,0,0,1,2.88-1.06,4.14,4.14,0,0,1,3.18,1.46,5.7,5.7,0,0,1,1.3,4,5.76,5.76,0,0,1-1.22,3.9q-1.2,1.36-4.09,1.36H957v-0.11a4.37,4.37,0,0,1-3.08-1.58q-1.09,1.69-5,1.69h-0.52A1.24,1.24,0,0,1,947.48,352.93Zm18.5-7.7a4,4,0,0,0-1.48.31,7.31,7.31,0,0,0-1.44.77,13.68,13.68,0,0,0-1.5,1.24q-0.84.79-1.44,1.44t-1.5,1.68h7.06q3-.08,3.86-1.44a4.36,4.36,0,0,0-1.08-2.89A3.24,3.24,0,0,0,966,345.22Z"/><path class="cls-4" d="M979.78,349.9c0-.37,0-0.66,0-0.86a0.55,0.55,0,0,1,1.06,0,1.57,1.57,0,0,0,.71,1.4,3.2,3.2,0,0,0,1.76.45,8.38,8.38,0,0,0,2.23-.32,9.49,9.49,0,0,0,2.12-.85l-3-6.91,1.17-2.59,3.09,7.31a9.48,9.48,0,0,0,.61,1.24,4.76,4.76,0,0,0,.78,1,4,4,0,0,0,2.88.94v2.67a5.42,5.42,0,0,1-4.31-1.62,7.14,7.14,0,0,1-2.34,1.29,9,9,0,0,1-3.25.65A3.26,3.26,0,0,1,979.78,349.9Z"/><path class="cls-4" d="M992.3,352.93a1.27,1.27,0,0,1-.41-0.92,1.3,1.3,0,0,1,.41-0.93,1.26,1.26,0,0,1,.92-0.41h1.06a4.71,4.71,0,0,0,2-.45,5.27,5.27,0,0,0,1.59-1.12,17,17,0,0,0,1.23-1.45,16.11,16.11,0,0,0,1-1.45,6.13,6.13,0,0,1,.83-1.11,1.17,1.17,0,0,1,.77-0.45,1.28,1.28,0,0,1,.8.45,9.79,9.79,0,0,1,1,1.12,14.48,14.48,0,0,0,1.27,1.45,16.92,16.92,0,0,0,1.63,1.45,7.42,7.42,0,0,0,2.12,1.12,7.92,7.92,0,0,0,2.66.45v2.67a8.12,8.12,0,0,1-5-1.58q-1.61,2.63-3.41,2.63a4.51,4.51,0,0,1-2.12-.62,33.79,33.79,0,0,1-3.08-2,4.64,4.64,0,0,1-3.31,1.55h-1.06A1.27,1.27,0,0,1,992.3,352.93Zm10.81-1.19a2.59,2.59,0,0,0,1.88-.94q-0.58-.55-1.73-1.73l-1.55-1.58a0.45,0.45,0,0,0-.31-0.16,0.58,0.58,0,0,0-.27.06,1.29,1.29,0,0,0-.27.2l-0.27.27a4.48,4.48,0,0,0-.3.39l-0.3.43-0.34.52-0.35.53q1,0.75,1.48,1.07a7.15,7.15,0,0,0,1.13.63A3,3,0,0,0,1003.11,351.74Z"/><path class="cls-4" d="M1011.16,350.66h1.39A14.1,14.1,0,0,0,1017,350a13.86,13.86,0,0,0,1.8-.74,16.21,16.21,0,0,0,1.52-.83l1.44-.92,1.33-.84-1.41-.7q-1.05-.53-1.54-0.75a9.81,9.81,0,0,0-1.27-.45,5.26,5.26,0,0,0-1.43-.23,3.43,3.43,0,0,0-3,1.84,0.26,0.26,0,0,1-.23.13,0.6,0.6,0,0,1-.36-0.16,0.44,0.44,0,0,1-.2-0.32,0.47,0.47,0,0,1,0-.23,21,21,0,0,1,1.27-2.3,3.49,3.49,0,0,1,2.92-1.62,9.1,9.1,0,0,1,3.77,1.22q1,0.5,2.09,1a14.08,14.08,0,0,0,2.45.86,10.76,10.76,0,0,0,2.7.35l-1.27,2.7a7.6,7.6,0,0,0-1-.08,6,6,0,0,0-.91.08q1.37,2.66,5.25,2.66v2.67a7.23,7.23,0,0,1-4.43-1.2,6.29,6.29,0,0,1-2.21-3.7,10.77,10.77,0,0,0-1.86,1l-2,1.3a23.66,23.66,0,0,1-2.08,1.24,12.29,12.29,0,0,1-5.87,1.36h-1.36a1.41,1.41,0,0,1-.92-0.43,1.19,1.19,0,0,1-.39-0.91,1.4,1.4,0,0,1,.4-0.92A1.18,1.18,0,0,1,1011.16,350.66Z"/><path class="cls-4" d="M1030,352.93a1.28,1.28,0,0,1-.4-0.92,1.31,1.31,0,0,1,.4-0.93,1.22,1.22,0,0,1,.9-0.41h0.22a5.1,5.1,0,0,0,1.95-.36,4.38,4.38,0,0,0,1.47-.95,10.4,10.4,0,0,0,1.09-1.28,15.39,15.39,0,0,0,.9-1.4q0.4-.7.79-1.28a2.43,2.43,0,0,1,2-1.31,2.85,2.85,0,0,1,2,.93,6.17,6.17,0,0,1,1.44,2.3,8.29,8.29,0,0,1,.5,2.87,4.09,4.09,0,0,1-.62,2.39,2.57,2.57,0,0,1-2.28,1.22,5,5,0,0,1-2-.41l-1.28-.55-1.21-.61-1-.51a4.7,4.7,0,0,1-4,1.63A1.23,1.23,0,0,1,1030,352.93Zm11.55-2a0.17,0.17,0,0,1,.06-0.11,4.38,4.38,0,0,0-1-2.48,2.75,2.75,0,0,0-2-1.39,1.93,1.93,0,0,0-1.31,1.13l-0.44.71-0.41.68a11.92,11.92,0,0,0,4.53,1.7A0.66,0.66,0,0,0,1041.59,350.91Z"/><path class="cls-3" d="M1068.5,495a0.21,0.21,0,0,1-.34,0l-2-2a0.21,0.21,0,0,1,0-.34l2-2a0.21,0.21,0,0,1,.34,0l2,2a0.21,0.21,0,0,1,0,.34Zm0,4.49a0.21,0.21,0,0,1-.34,0l-2-2a0.21,0.21,0,0,1,0-.34l2-2a0.21,0.21,0,0,1,.34,0l2,2a0.21,0.21,0,0,1,0,.34Z"/><path class="cls-3" d="M1098.83,493.73v5.86H1098a3.43,3.43,0,0,1-2.7-1.57,2.88,2.88,0,0,1-2.58,1.55,2.92,2.92,0,0,1-2.65-1.5,5.15,5.15,0,0,1-1.27,1.15,3.33,3.33,0,0,1-1.66.38,2.22,2.22,0,0,1-1-.29,7.9,7.9,0,0,1-1,4.08q-2,3.33-7.2,3.33-3.49,0-5.16-1.86a6.4,6.4,0,0,1-1.47-4.12,14.67,14.67,0,0,1,1-6H1074q-1,3.38.27,4.72t5.42,1.32q3.57,0,4.36-1.33a1.48,1.48,0,0,0,.15-1.06,1.68,1.68,0,0,0-.38-0.77q-2.26-2.41-3-3.3a0.39,0.39,0,0,1-.1-0.31,0.57,0.57,0,0,1,.19-0.34q0.85-.85,3.21-3.64,1.79,2.32,2.41,3.06a1.61,1.61,0,0,0,1.73.72,1.1,1.1,0,0,0,.67-0.53,1.72,1.72,0,0,0,.22-0.89v-1.83h2.38v1.83a1.44,1.44,0,0,0,.29.94,1,1,0,0,0,.84.39,1,1,0,0,0,.82-0.39,1.44,1.44,0,0,0,.29-0.94v-1.83h2.38l0,1.85a3.9,3.9,0,0,0,.08.91,0.68,0.68,0,0,0,.72.41h1.85Z"/><path class="cls-3" d="M1108,499.59h-1.42a3.88,3.88,0,0,0-6.63,0h-1.42v-5.86h2.24a1.33,1.33,0,0,0,.92-0.38,1.28,1.28,0,0,0,.39-0.94v-1.85h2.36v1.85a1.34,1.34,0,0,0,1.33,1.32H1108v5.86Zm-4.8,3.21a0.2,0.2,0,0,0,0-.32l-1.88-1.88a0.21,0.21,0,0,0-.32,0l-1.88,1.88a0.21,0.21,0,0,0,0,.32l1.88,1.88a0.2,0.2,0,0,0,.32,0Zm4.22,0a0.21,0.21,0,0,0,0-.32l-1.88-1.88a0.21,0.21,0,0,0-.33,0l-1.88,1.88a0.21,0.21,0,0,0,0,.32l1.88,1.88a0.2,0.2,0,0,0,.33,0Z"/><path class="cls-3" d="M1117,491.76h0v2a8.84,8.84,0,0,1-.72,2.85,4.44,4.44,0,0,1-4,3h-4.39v-5.86h5a1.05,1.05,0,0,0,.5-0.1,1.52,1.52,0,0,0,.82-0.84h-3.93a2.51,2.51,0,0,1-1.38-.39,1.8,1.8,0,0,1-.86-1.62v-4.89a4.87,4.87,0,0,1,.6-2.38,3.73,3.73,0,0,1,3.61-1.95,4.31,4.31,0,0,1,4.68,4.34Zm-2.68-4.25a2.59,2.59,0,0,0-1.16-1.28,3.4,3.4,0,0,0-1.62-.39,2.1,2.1,0,0,0-1.73.84,0.94,0.94,0,0,0-.21.51q0,0.33.21,0.33h4.51Zm0.31-8.36a0.21,0.21,0,0,0,0-.32l-1.9-1.88a0.19,0.19,0,0,0-.31,0l-1.9,1.88a0.21,0.21,0,0,0,0,.32l1.9,1.88a0.18,0.18,0,0,0,.31,0Z"/><path class="cls-3" d="M1143.7,493.73v5.86h-1.57a3.38,3.38,0,0,1-3.11-1.95,5.54,5.54,0,0,1-2.36,1.64,5,5,0,0,1-1.4.31h-10.72a4.26,4.26,0,0,1-3.43-1.74,5.56,5.56,0,0,1-.8-3.28,12.89,12.89,0,0,1,1-4.6H1123q-0.7,2.51.38,3.38a1.58,1.58,0,0,0,1.21.38h10.72a4.42,4.42,0,0,0,3.9-1.88,4.26,4.26,0,0,0,.77-1.88h2q-0.12.43-.41,2.22a1.35,1.35,0,0,0,.27,1,1.08,1.08,0,0,0,.91.5h1Zm-12.61,9.07a0.2,0.2,0,0,0,0-.32l-1.88-1.88a0.2,0.2,0,0,0-.32,0l-1.88,1.88a0.21,0.21,0,0,0,0,.32l1.88,1.88a0.21,0.21,0,0,0,.32,0Zm2.12,3a0.21,0.21,0,0,0,0-.33l-1.88-1.88a0.21,0.21,0,0,0-.32,0l-1.88,1.88a0.2,0.2,0,0,0,0,.33l1.88,1.88a0.2,0.2,0,0,0,.32,0Zm2.1-3a0.2,0.2,0,0,0,0-.32l-1.88-1.88a0.2,0.2,0,0,0-.33,0l-1.88,1.88a0.21,0.21,0,0,0,0,.32l1.88,1.88a0.21,0.21,0,0,0,.33,0Z"/><path class="cls-3" d="M1149.27,485.93a7.15,7.15,0,0,1,1.83,4.58v5.28a3.33,3.33,0,0,1-2,3.32,5.38,5.38,0,0,1-2.27.48h-3.33v-5.86h3.93l1,0a0.54,0.54,0,0,0,.44-0.6q0-.65-2.89-2.36Zm-1.14,16.87a0.21,0.21,0,0,0,0-.32l-1.88-1.88a0.21,0.21,0,0,0-.32,0l-1.88,1.88a0.2,0.2,0,0,0,0,.32l1.88,1.88a0.2,0.2,0,0,0,.32,0Zm4.22,0a0.21,0.21,0,0,0,0-.32l-1.88-1.88a0.21,0.21,0,0,0-.33,0l-1.88,1.88a0.2,0.2,0,0,0,0,.32l1.88,1.88a0.2,0.2,0,0,0,.33,0Z"/><path class="cls-3" d="M1160.21,493.73v5.86h-2.6a3.42,3.42,0,0,1-2.79-1.47,5.45,5.45,0,0,1-1.16-3.52v-8.72a1.32,1.32,0,0,1-1-.27,1.54,1.54,0,0,1-.51-0.8,1.72,1.72,0,0,1,0-1,1.66,1.66,0,0,1,.62-0.86q2.63-1.74,3.78-2.56a0.67,0.67,0,0,1,.75-0.12,0.77,0.77,0,0,1,.29.72v10.92a2.15,2.15,0,0,0,.34,1.35,1.5,1.5,0,0,0,1.23.46h1Z"/><path class="cls-3" d="M1164.14,485.93a7.11,7.11,0,0,1,1.85,4.58v5.28a3.33,3.33,0,0,1-2.05,3.32,5.26,5.26,0,0,1-2.26.48h-1.86v-5.86h2.46l1,0a0.56,0.56,0,0,0,.46-0.58q0-.67-2.89-2.38Zm-0.1-2a0.21,0.21,0,0,0,0-.33l-1.88-1.88a0.21,0.21,0,0,0-.32,0l-1.88,1.88a0.2,0.2,0,0,0,0,.33l1.88,1.88a0.2,0.2,0,0,0,.32,0Zm4.22,0a0.21,0.21,0,0,0,0-.33l-1.88-1.88a0.21,0.21,0,0,0-.32,0l-1.88,1.88a0.2,0.2,0,0,0,0,.33l1.88,1.88a0.2,0.2,0,0,0,.32,0Z"/><path class="cls-3" d="M1186.66,505.45l-0.27.19a1.77,1.77,0,0,1-.27.19q-0.5.34-1,.63T1184,507a11.27,11.27,0,0,1-1.2.51,11.69,11.69,0,0,1-6.87.09,7,7,0,0,1-4.39-4.51,5.5,5.5,0,0,1-.24-1.06,7.27,7.27,0,0,1,.91-4.61,9,9,0,0,1,3.26-3.47l0.72-.39,0-.05-0.41-.48a3.94,3.94,0,0,1-1.08-2.22,6.08,6.08,0,0,1,.17-2.39,4.45,4.45,0,0,1,.85-1.79,6.1,6.1,0,0,1,1.25-1.18,6,6,0,0,1,2.08-.91,6.17,6.17,0,0,1,1.27-.14h0.17a4.75,4.75,0,0,1,2.09.55,4.24,4.24,0,0,1,.89.6,5,5,0,0,1,1.5,2.94h0v0.05h-6.6a1.3,1.3,0,0,0-.92.38,1.24,1.24,0,0,0-.15.19,1.23,1.23,0,0,0-.19.68,1.25,1.25,0,0,0,.38.92,1.23,1.23,0,0,0,.91.38h6.8c0,0.13-.06.28-0.1,0.46l-1.09,4.32h-0.77a14.7,14.7,0,0,0-2.1.19c-0.4.07-.78,0.15-1.15,0.24a5.66,5.66,0,0,0-3.49,2.05,4.43,4.43,0,0,0-.44.74,2.54,2.54,0,0,0-.19,1.78,3.89,3.89,0,0,0,.94,1.91q3.4,2.65,8.41.21l0,0Z"/><path class="cls-3" d="M1199.31,499.59h-1.16V503a4.54,4.54,0,0,1-1.44,3.37,5,5,0,0,1-3.62,1.44,9.89,9.89,0,0,1-4.36-1.32,17.44,17.44,0,0,1-2.17-1.3l2.12-1q1.71-.79,2.61-1.23a23.94,23.94,0,0,0,4.32-2.43,2,2,0,0,0,.67-0.91h-4.08l-0.87,0a2.16,2.16,0,0,1-1.3-.39,1.83,1.83,0,0,1-.75-1.61v-5.64a4.61,4.61,0,0,1,.5-2.15,3.79,3.79,0,0,1,3.71-2,4.32,4.32,0,0,1,4,2,4.39,4.39,0,0,1,.68,2.26v1.66h1.16v5.86Zm-3.86-5.84a2.51,2.51,0,0,0-1.16-1.28,3.28,3.28,0,0,0-1.62-.41,2.11,2.11,0,0,0-1.73.84,1,1,0,0,0-.21.51c0,0.23,0,.34.21,0.34h4.51Z"/><path class="cls-3" d="M1203,485.93a7.15,7.15,0,0,1,1.83,4.58v5.28a3.33,3.33,0,0,1-2,3.32,5.33,5.33,0,0,1-2.26.48H1199v-5.86h2.12l1,0a0.55,0.55,0,0,0,.46-0.58q0-.67-2.89-2.38Zm2.07-2.67a0.2,0.2,0,0,0,0-.33l-1.88-1.88a0.2,0.2,0,0,0-.33,0l-1.88,1.88a0.21,0.21,0,0,0,0,.33l1.88,1.88a0.21,0.21,0,0,0,.33,0Z"/><path class="cls-4" d="M812.58,496.15c0-.37,0-0.66,0-0.86a0.55,0.55,0,0,1,1.06,0,1.57,1.57,0,0,0,.71,1.4,3.2,3.2,0,0,0,1.76.45,8.38,8.38,0,0,0,2.23-.32,9.49,9.49,0,0,0,2.12-.85l-3-6.91,1.17-2.59,3.09,7.31a9.48,9.48,0,0,0,.61,1.24,4.76,4.76,0,0,0,.78,1,4,4,0,0,0,2.88.94v2.67A5.42,5.42,0,0,1,821.7,498a7.14,7.14,0,0,1-2.34,1.29,9,9,0,0,1-3.25.65A3.26,3.26,0,0,1,812.58,496.15Z"/><path class="cls-4" d="M825.09,499.18a1.28,1.28,0,0,1-.4-0.92,1.31,1.31,0,0,1,.4-0.93,1.22,1.22,0,0,1,.9-0.41h0.53a7.15,7.15,0,0,0,3.27-.66,3.89,3.89,0,0,0,1.86-2.33l0.67-1.81a0.47,0.47,0,0,1,.28-0.23,1.3,1.3,0,0,1,.48-0.09,0.87,0.87,0,0,1,.45.11,0.34,0.34,0,0,1,.19.31l-1.2,3.84a5.15,5.15,0,0,0,2.78,1.22,2.23,2.23,0,0,0,1.85-1,11.19,11.19,0,0,0,1.41-3.07,0.65,0.65,0,0,1,.72-0.3,0.84,0.84,0,0,1,.45.12,0.34,0.34,0,0,1,.19.3,0.5,0.5,0,0,1,0,.23,26.13,26.13,0,0,1-1,2.89,7.43,7.43,0,0,0,1.48.45,8.6,8.6,0,0,0,1.83.2q2,0,2.56-1.09,0-1-1.66-3.83l1.17-2.59a25,25,0,0,1,1.45,2.88,6.23,6.23,0,0,1,.52,2.38,5.77,5.77,0,0,1-1,3.67,3.49,3.49,0,0,1-2.9,1.3,10,10,0,0,1-4.46-1.36,3.3,3.3,0,0,1-2.75,1.48,7,7,0,0,1-4-1.75,4.27,4.27,0,0,1-1.88,1.09,10.14,10.14,0,0,1-2.76.32H826A1.23,1.23,0,0,1,825.09,499.18Zm10.05-13.28a0.25,0.25,0,0,1,0-.41l1.59-1.33a0.25,0.25,0,0,1,.41,0l1.39,1.59a0.36,0.36,0,0,1-.06.41l-1.62,1.39a0.39,0.39,0,0,1-.41-0.06Zm2.27-3.22a0.21,0.21,0,0,1-.06-0.19,0.16,0.16,0,0,1,.09-0.14l1.47-1.25a0.22,0.22,0,0,1,.34,0l1.22,1.48c0.07,0.18.07,0.29,0,.33L839,484.2a0.22,0.22,0,0,1-.2.06,0.16,0.16,0,0,1-.15-0.09Zm1.73,3.22a0.25,0.25,0,0,1,0-.41l1.59-1.33a0.25,0.25,0,0,1,.41,0l1.36,1.59a0.26,0.26,0,0,1-.06.41l-1.59,1.39a0.39,0.39,0,0,1-.41-0.06Z"/><path class="cls-4" d="M851.81,493.18q0,3.74,3.47,3.73h0.3v2.67h-0.3a5,5,0,0,1-3.75-1.25,6.13,6.13,0,0,1-1.31-4l-0.56-13.78a0.61,0.61,0,0,1,.16-0.52q1.27-1.36,1.66-1.75l0.34,0.23v14.69Z"/><path class="cls-4" d="M855.58,496.92h1.59q3-.08,3.84-1.44,0-1-1.67-3.84l1.17-2.58a22.87,22.87,0,0,1,1.45,2.85,6.34,6.34,0,0,1,.51,2.45,7.89,7.89,0,0,1-.27,2.12,4.51,4.51,0,0,1-.86,1.64q-1.19,1.47-4.17,1.47h-1.59a1.39,1.39,0,0,1-1.33-1.33,1.46,1.46,0,0,1,.42-0.93A1.21,1.21,0,0,1,855.58,496.92Zm0.83,7a0.25,0.25,0,0,1,0-.41l1.7-1.44a0.28,0.28,0,0,1,.41,0l1.44,1.7a0.25,0.25,0,0,1,0,.41l-1.7,1.44a0.25,0.25,0,0,1-.41,0Z"/><path class="cls-4" d="M865.89,501.09a14.4,14.4,0,0,1,1.31-5.53,0.39,0.39,0,0,1,.38-0.2,0.88,0.88,0,0,1,.48.13,0.36,0.36,0,0,1,.21.25,0.32,0.32,0,0,1,0,.16,11.07,11.07,0,0,0-.77,3.8,5.17,5.17,0,0,0,.8,2.92,5.45,5.45,0,0,0,4.94,2.3,10,10,0,0,0,3.41-.61,8.83,8.83,0,0,0,3-1.81,1.27,1.27,0,0,0,.45-0.91,2.07,2.07,0,0,0-1-1.47,29.35,29.35,0,0,0-3.46-2.08,0.6,0.6,0,0,1-.3-0.61,2.34,2.34,0,0,1,.52-1.21,1.37,1.37,0,0,1,.92-0.74l0.8,0.29q0.72,0.27,1.45.51a13.78,13.78,0,0,0,2.1.44,19.72,19.72,0,0,0,2.89.2v2.67a11.64,11.64,0,0,1-2.78-.42,4.1,4.1,0,0,1,.61,2.11,5.13,5.13,0,0,1-2.16,3.89,9.22,9.22,0,0,1-3.16,1.81,11.47,11.47,0,0,1-3.77.64A7.37,7.37,0,0,1,868,506a5.3,5.3,0,0,1-1.52-2A7.09,7.09,0,0,1,865.89,501.09Z"/><path class="cls-4" d="M883,499.18a1.28,1.28,0,0,1-.4-0.92,1.31,1.31,0,0,1,.4-0.93,1.22,1.22,0,0,1,.9-0.41h0.22a5.1,5.1,0,0,0,1.95-.36,4.38,4.38,0,0,0,1.47-.95,10.4,10.4,0,0,0,1.09-1.28,15.39,15.39,0,0,0,.9-1.4q0.4-.7.79-1.28a2.43,2.43,0,0,1,2-1.31,2.85,2.85,0,0,1,2,.93,6.17,6.17,0,0,1,1.44,2.3,8.29,8.29,0,0,1,.5,2.87,4.09,4.09,0,0,1-.62,2.39,2.57,2.57,0,0,1-2.28,1.22,5,5,0,0,1-2-.41l-1.28-.55-1.21-.61-1-.51a4.7,4.7,0,0,1-4,1.63A1.23,1.23,0,0,1,883,499.18Zm11.55-2a0.17,0.17,0,0,1,.06-0.11,4.38,4.38,0,0,0-1-2.48,2.75,2.75,0,0,0-2-1.39,1.93,1.93,0,0,0-1.31,1.13l-0.44.71-0.41.68a11.92,11.92,0,0,0,4.53,1.7A0.66,0.66,0,0,0,894.56,497.17Z"/><path class="cls-4" d="M905,496.15c0-.37,0-0.66,0-0.86a0.55,0.55,0,0,1,1.06,0,1.57,1.57,0,0,0,.71,1.4,3.2,3.2,0,0,0,1.76.45,8.38,8.38,0,0,0,2.23-.32,9.49,9.49,0,0,0,2.12-.85l-3-6.91,1.17-2.59,3.09,7.31a9.48,9.48,0,0,0,.61,1.24,4.76,4.76,0,0,0,.78,1,4,4,0,0,0,2.88.94v2.67a5.42,5.42,0,0,1-4.31-1.62,7.14,7.14,0,0,1-2.34,1.29,9,9,0,0,1-3.25.65A3.26,3.26,0,0,1,905,496.15Z"/><path class="cls-4" d="M916.08,503.88a0.25,0.25,0,0,1,0-.41l1.59-1.33a0.25,0.25,0,0,1,.41,0l1.39,1.59a0.35,0.35,0,0,1-.06.41l-1.62,1.39a0.28,0.28,0,0,1-.41-0.06Zm2.34-7H920q3-.08,3.84-1.44,0-1-1.67-3.84l1.17-2.58a22.87,22.87,0,0,1,1.45,2.85,6.34,6.34,0,0,1,.51,2.45,7.89,7.89,0,0,1-.27,2.12,4.51,4.51,0,0,1-.86,1.64q-1.19,1.47-4.17,1.47h-1.59a1.39,1.39,0,0,1-1.33-1.33,1.46,1.46,0,0,1,.42-0.93A1.21,1.21,0,0,1,918.42,496.92Zm1.66,7a0.25,0.25,0,0,1,0-.41l1.59-1.33a0.25,0.25,0,0,1,.41,0l1.36,1.59a0.26,0.26,0,0,1-.06.41l-1.59,1.39a0.28,0.28,0,0,1-.41-0.06Z"/><path class="cls-4" d="M928.73,496.15c0-.37,0-0.66,0-0.86a0.55,0.55,0,0,1,1.06,0,1.57,1.57,0,0,0,.71,1.4,3.2,3.2,0,0,0,1.76.45,8.38,8.38,0,0,0,2.23-.32,9.49,9.49,0,0,0,2.12-.85l-3-6.91,1.17-2.59,3.09,7.31a9.48,9.48,0,0,0,.61,1.24,4.76,4.76,0,0,0,.78,1,4,4,0,0,0,2.88.94v2.67a5.42,5.42,0,0,1-4.31-1.62,7.14,7.14,0,0,1-2.34,1.29,9,9,0,0,1-3.25.65A3.26,3.26,0,0,1,928.73,496.15Z"/><path class="cls-4" d="M942.14,496.92h1.39a14.1,14.1,0,0,0,4.45-.67,13.86,13.86,0,0,0,1.8-.74,16.21,16.21,0,0,0,1.52-.83l1.44-.92,1.33-.84-1.41-.7q-1.05-.53-1.54-0.75a9.81,9.81,0,0,0-1.27-.45,5.26,5.26,0,0,0-1.43-.23,3.43,3.43,0,0,0-3,1.84,0.26,0.26,0,0,1-.23.13,0.6,0.6,0,0,1-.36-0.16,0.44,0.44,0,0,1-.2-0.32,0.47,0.47,0,0,1,0-.23,21,21,0,0,1,1.27-2.3,3.49,3.49,0,0,1,2.92-1.62,9.1,9.1,0,0,1,3.77,1.22q1,0.5,2.09,1a14.08,14.08,0,0,0,2.45.86,10.76,10.76,0,0,0,2.7.35l-1.27,2.7a8.06,8.06,0,0,0-1.19-.08,5.27,5.27,0,0,0-1.59.3,8,8,0,0,0-1.7.77q-0.78.48-1.6,1.05t-1.76,1.16a19.52,19.52,0,0,1-2,1.06,12.4,12.4,0,0,1-5.27,1.06h-1.36a1.41,1.41,0,0,1-.92-0.43,1.19,1.19,0,0,1-.39-0.91,1.4,1.4,0,0,1,.4-0.92A1.18,1.18,0,0,1,942.14,496.92Zm4.45,7.09a0.25,0.25,0,0,1,0-.41l1.7-1.44a0.28,0.28,0,0,1,.41,0l1.44,1.7a0.25,0.25,0,0,1,0,.41l-1.7,1.44a0.25,0.25,0,0,1-.41,0Z"/><path class="cls-4" d="M968.58,501.09a14.4,14.4,0,0,1,1.31-5.53,0.39,0.39,0,0,1,.38-0.2,0.88,0.88,0,0,1,.48.13,0.36,0.36,0,0,1,.21.25,0.32,0.32,0,0,1,0,.16,11.07,11.07,0,0,0-.77,3.8,5.17,5.17,0,0,0,.8,2.92,5.45,5.45,0,0,0,4.94,2.3,10,10,0,0,0,3.41-.61,8.83,8.83,0,0,0,3-1.81,1.27,1.27,0,0,0,.45-0.91,2.07,2.07,0,0,0-1-1.47,29.35,29.35,0,0,0-3.46-2.08,0.6,0.6,0,0,1-.3-0.61,2.34,2.34,0,0,1,.52-1.21,1.37,1.37,0,0,1,.92-0.74l0.8,0.29q0.72,0.27,1.45.51a13.78,13.78,0,0,0,2.1.44,19.72,19.72,0,0,0,2.89.2v2.67a11.64,11.64,0,0,1-2.78-.42,4.1,4.1,0,0,1,.61,2.11,5.13,5.13,0,0,1-2.16,3.89,9.22,9.22,0,0,1-3.16,1.81,11.47,11.47,0,0,1-3.77.64,7.37,7.37,0,0,1-4.72-1.61,5.3,5.3,0,0,1-1.52-2A7.09,7.09,0,0,1,968.58,501.09Z"/><path class="cls-4" d="M986.59,496.92H988a14.1,14.1,0,0,0,4.45-.67,13.86,13.86,0,0,0,1.8-.74,16.21,16.21,0,0,0,1.52-.83l1.44-.92,1.33-.84-1.41-.7q-1.05-.53-1.54-0.75a9.81,9.81,0,0,0-1.27-.45,5.26,5.26,0,0,0-1.43-.23,3.43,3.43,0,0,0-3,1.84,0.26,0.26,0,0,1-.23.13,0.6,0.6,0,0,1-.36-0.16,0.44,0.44,0,0,1-.2-0.32,0.47,0.47,0,0,1,0-.23,21,21,0,0,1,1.27-2.3,3.49,3.49,0,0,1,2.92-1.62,9.1,9.1,0,0,1,3.77,1.22q1,0.5,2.09,1a14.08,14.08,0,0,0,2.45.86,10.76,10.76,0,0,0,2.7.35l-1.27,2.7a8.06,8.06,0,0,0-1.19-.08,5.27,5.27,0,0,0-1.59.3,8,8,0,0,0-1.7.77q-0.78.48-1.6,1.05t-1.76,1.16a19.52,19.52,0,0,1-2,1.06,12.4,12.4,0,0,1-5.27,1.06h-1.36a1.41,1.41,0,0,1-.92-0.43,1.19,1.19,0,0,1-.39-0.91,1.4,1.4,0,0,1,.4-0.92A1.18,1.18,0,0,1,986.59,496.92Z"/><path class="cls-4" d="M1010.14,499a1.05,1.05,0,0,1-.48.84,1.43,1.43,0,0,1-.78.37,0.33,0.33,0,0,1-.35-0.14l-0.83-19.56a0.61,0.61,0,0,1,.16-0.52q0.19-.19.79-0.7t1.13-1l0.36,0.23V499Z"/><path class="cls-4" d="M1009.11,506.38a0.48,0.48,0,0,1,.38-0.56l0.94,0,0.52,0a2.35,2.35,0,0,0,.41,0l0.37-.08a2.44,2.44,0,0,0,.45-0.12l0.46-.19a9.38,9.38,0,0,0,3.91-2.63,5.14,5.14,0,0,0,1.55-3.2q0-1.11-2.2-5.33l1.17-2.59q1.2,2.24,1.92,3.89,0.89,1.44,3.55,1.44h0.73v2.67h-0.73a9.15,9.15,0,0,1-2.78-.34,7.06,7.06,0,0,1-.45,2.41,10.05,10.05,0,0,1-1.17,2.29,13.32,13.32,0,0,1-1.57,1.88,7.87,7.87,0,0,1-1.72,1.32,3.29,3.29,0,0,1-1.54.48,12.7,12.7,0,0,1-4-.91A0.45,0.45,0,0,1,1009.11,506.38Z"/><path class="cls-4" d="M1022.33,499.19a1.28,1.28,0,0,1-.39-0.92,1.32,1.32,0,0,1,.4-0.94,1.22,1.22,0,0,1,.9-0.41h3.09l0.27-.31a4.92,4.92,0,0,0,.63-2.61l-0.56-13.47a0.72,0.72,0,0,1,.2-0.52q0.2-.21.79-0.72t1.12-1l0.36,0.23v13.63q0,0.53-.09,1.5,4.11-4.75,6.8-4.75a4.11,4.11,0,0,1,3.17,1.46,5.73,5.73,0,0,1,1.31,4,8.29,8.29,0,0,1-.28,2.17,4.51,4.51,0,0,1-.86,1.64q-1.19,1.47-4.17,1.47h-11.73A1.27,1.27,0,0,1,1022.33,499.19Zm13-7.71a5.76,5.76,0,0,0-3.62,1.61q-1,.83-1.69,1.56t-1.84,2a0.47,0.47,0,0,1-.08.15,0.53,0.53,0,0,0-.08.13h7q3-.08,3.88-1.44a4.21,4.21,0,0,0-1.06-2.87A3.25,3.25,0,0,0,1035.3,491.48Z"/></svg>