<svg id="Layer_6" data-name="Layer 6" xmlns="http://www.w3.org/2000/svg" viewBox="0 0 1280 800"><defs><style>.cls-1{fill:#2d2c28;}.cls-2{fill:#c82257;}.cls-3{fill:#fcee21;}.cls-4{fill:#e6e6e6;}.cls-5{fill:#c69c6d;}</style></defs><title>intro2</title><rect class="cls-1" width="1280" height="800"/><path class="cls-2" d="M503.83,130.76a35.66,35.66,0,0,1-8.43.78,108.86,108.86,0,0,1-1.67-23.13,20.9,20.9,0,0,1-12.05-3.14,12.32,12.32,0,0,1-6-10.68,23.32,23.32,0,0,1,3.92-13.23c3.23-5,7.25-7.45,12.15-7.55,5.59-.1,9.7,2.06,12.54,6.66,2.45,4.21,3.63,9.7,3.33,16.66-0.69,8.72.49,19.31,3.33,31.75A38.47,38.47,0,0,1,503.83,130.76ZM490.21,88.42a5,5,0,0,0-3.23.78,2.71,2.71,0,0,0-1.27,2.45c0.49,0.69,2.16,1.08,5.1,1.27a34,34,0,0,0,8-.59A11.88,11.88,0,0,0,490.21,88.42Z"/><path class="cls-2" d="M563.52,113.41a38.46,38.46,0,0,1-.69,7.25,32.62,32.62,0,0,1-2.55,7.74,21.17,21.17,0,0,1-10.09,2.74c-4.9,0-8-2.06-9.31-6.08H540c-2.74,4.21-6.17,6.27-10.39,6.27a9.48,9.48,0,0,1-7.64-3.53c-2.06-2.55-3.14-6-3.14-10.39,0-7.74,3.82-16.37,11.37-26a42.7,42.7,0,0,1,1.37-16.17A56.65,56.65,0,0,1,554.4,91.65Q563.52,102.53,563.52,113.41ZM539.6,97.24a56.68,56.68,0,0,0-7.45,8.13c-1.76,2.25-2.65,3.82-2.65,4.61a2.65,2.65,0,0,0,1,2.16,3.69,3.69,0,0,0,2.74,1.08c2.84,0,4.21-1.67,4.21-4.9H545q0,5,4.41,5a17.57,17.57,0,0,0,4.7-.69C551.27,106.55,546.37,101.45,539.6,97.24Z"/><path class="cls-2" d="M626.14,130.86a23.68,23.68,0,0,1-9.41-1.76,14.41,14.41,0,0,1-7.55-6.86,25.67,25.67,0,0,1-12.54,3.53,16.29,16.29,0,0,1-7.64-5,14.49,14.49,0,0,1-3.92-10c0-4.7,2.35-9,7.06-13A50.87,50.87,0,0,1,598,93.61q1-.59,2.65-1.47l1.18-.59,1-.59,0.59-.88,0.49-.88a4.73,4.73,0,0,1,1-1.47,50.44,50.44,0,0,1,6.57-1.57,42.82,42.82,0,0,1,7.25-.88L619.47,86c0.1,4.8.2,9.11,0.49,13,0.1,1.47.1,2.94,0.2,4.41l0.2,1.86,0.1,1.47c0.29,3.92,2.25,5.88,5.68,5.88q2.65,0,2.65,9.11T626.14,130.86Zm-21.56-28.52c-3.82,1.67-6.57,3.43-8.13,5.29a16.57,16.57,0,0,0,8.72.49A52.59,52.59,0,0,1,604.58,102.34Z"/><path class="cls-2" d="M645.83,128a66,66,0,0,1-19.7,2.84q-2.65,0-2.65-9.11t2.65-9.11a39.47,39.47,0,0,0,9.51-.88c-0.49-1.86-1-3.82-1.67-6-0.29-.78-0.59-1.67-0.88-2.55L632.7,102,632.31,101l15.78-3.63a42.78,42.78,0,0,1,1.76,12.84C649.85,117.92,648.48,123.8,645.83,128ZM628.09,85.28a16.54,16.54,0,0,1,2.74-5.49c1.67-2.45,3.14-3.82,4.31-4s2.94,0.49,5.49,2.35,3.82,3.14,4,4.21-0.49,2.74-2.25,5.29a19,19,0,0,1-4.31,4.7,26.56,26.56,0,0,1-5.29-3A24,24,0,0,1,628.09,85.28Z"/><path class="cls-2" d="M656.42,130.66c0.29-5.19.49-10.68,0.49-16.27,0-10.49-.39-23.23-1.18-38.12l15.88-.88c0.88,12.54,1.27,24.4,1.27,35.67,0,7.15-.1,12.94-0.39,17.35a20.82,20.82,0,0,1-6.86,2,62.67,62.67,0,0,1-8.62.78Z"/><path class="cls-2" d="M724.82,130.86c-5.49,0-10.58-2.55-15.19-7.64-0.59.88-1.27,2-2,3a14.32,14.32,0,0,0-.88,1.27l-0.39.59-0.39.49c-4,1.86-9.31,2.74-15.68,2.74a38.19,38.19,0,0,1-10.58-1.27A65.33,65.33,0,0,1,683,112.63c3.43,0.29,6.27.49,8.72,0.49A53.59,53.59,0,0,0,702.48,112,146.41,146.41,0,0,0,690.71,94.3l13.53-11.47a79,79,0,0,1,6.47,11c0.69,1.47,1.47,3.23,2.35,5.1l2.06,5c1.47,3.43,2.84,5.78,3.92,6.86,1.27,1.27,3.23,1.86,5.78,1.86q2.65,0,2.65,9.11T724.82,130.86Z"/><path class="cls-2" d="M763.14,130.86c-6.67,0-11.76-2.25-15.19-6.86h-0.88a28.8,28.8,0,0,1-11.76,5.78,47.6,47.6,0,0,1-5.59.88c-1.47.1-3.14,0.2-4.9,0.2s-2.65-3-2.65-9.11,0.88-9.11,2.65-9.11a31.77,31.77,0,0,0,12.15-2,16.46,16.46,0,0,0,8.23-8.43l8.23,1.27c-0.29,3.63.2,6.08,1.67,7.35,1.27,1.18,4,1.76,8,1.76q2.65,0,2.65,9.11T763.14,130.86Zm-8.82,13c0.1,1-.59,2.65-2.25,4.9a18.41,18.41,0,0,1-3.92,4.41,24,24,0,0,1-4.61-2.65,19.24,19.24,0,0,1-4.31-3.53,24.79,24.79,0,0,1-2.55,3.63,15.15,15.15,0,0,1-2.55,2.55,33.54,33.54,0,0,1-4.9-2.94,28.81,28.81,0,0,1-4.41-3.63,21.21,21.21,0,0,1,2.65-5.1c1.67-2.35,2.94-3.63,4-3.82q1.32-.15,4.71,2.06c2.25,1.47,3.53,2.74,4,3.82a32.45,32.45,0,0,1,2.55-3.82c1.08-1.27,2-2,2.74-2.06,1-.1,2.65.59,5,2.25S754.12,143,754.32,143.89Z"/><path class="cls-2" d="M794.11,126.64a31.36,31.36,0,0,1-8.53-1.27c-8.43,3.63-15.88,5.49-22.44,5.49q-2.65,0-2.65-9.11t2.65-9.11c1.08,0,2.25,0,3.63-.1l3.92-.29a20.7,20.7,0,0,1-1.18-4.7,18.14,18.14,0,0,1,4.41-15.29c3.82-4.41,9.41-7.06,16.56-8.13a22.51,22.51,0,0,1,9.7.49,56.39,56.39,0,0,1,.49,7.06,35.72,35.72,0,0,1-.29,7.15c-11.08.1-17.15,1.67-18.13,4.51-0.59,1.86.88,4.21,4.51,7.15,7.15-.69,12.74-1,16.76-1L804.2,110a43,43,0,0,1-2,16.27A40.54,40.54,0,0,1,794.11,126.64Z"/><path class="cls-3" d="M503.83,130.76a35.66,35.66,0,0,1-8.43.78,108.86,108.86,0,0,1-1.67-23.13,20.9,20.9,0,0,1-12.05-3.14,12.32,12.32,0,0,1-6-10.68,23.32,23.32,0,0,1,3.92-13.23c3.23-5,7.25-7.45,12.15-7.55,5.59-.1,9.7,2.06,12.54,6.66,2.45,4.21,3.63,9.7,3.33,16.66-0.69,8.72.49,19.31,3.33,31.75A38.47,38.47,0,0,1,503.83,130.76ZM490.21,88.42a5,5,0,0,0-3.23.78,2.71,2.71,0,0,0-1.27,2.45c0.49,0.69,2.16,1.08,5.1,1.27a34,34,0,0,0,8-.59A11.88,11.88,0,0,0,490.21,88.42Z"/><path class="cls-3" d="M563.52,113.41a38.46,38.46,0,0,1-.69,7.25,32.62,32.62,0,0,1-2.55,7.74,21.17,21.17,0,0,1-10.09,2.74c-4.9,0-8-2.06-9.31-6.08H540c-2.74,4.21-6.17,6.27-10.39,6.27a9.48,9.48,0,0,1-7.64-3.53c-2.06-2.55-3.14-6-3.14-10.39,0-7.74,3.82-16.37,11.37-26a42.7,42.7,0,0,1,1.37-16.17A56.65,56.65,0,0,1,554.4,91.65Q563.52,102.53,563.52,113.41ZM539.6,97.24a56.68,56.68,0,0,0-7.45,8.13c-1.76,2.25-2.65,3.82-2.65,4.61a2.65,2.65,0,0,0,1,2.16,3.69,3.69,0,0,0,2.74,1.08c2.84,0,4.21-1.67,4.21-4.9H545q0,5,4.41,5a17.57,17.57,0,0,0,4.7-.69C551.27,106.55,546.37,101.45,539.6,97.24Z"/><path class="cls-3" d="M626.14,130.86a23.68,23.68,0,0,1-9.41-1.76,14.41,14.41,0,0,1-7.55-6.86,25.67,25.67,0,0,1-12.54,3.53,16.29,16.29,0,0,1-7.64-5,14.49,14.49,0,0,1-3.92-10c0-4.7,2.35-9,7.06-13A50.87,50.87,0,0,1,598,93.61q1-.59,2.65-1.47l1.18-.59,1-.59,0.59-.88,0.49-.88a4.73,4.73,0,0,1,1-1.47,50.44,50.44,0,0,1,6.57-1.57,42.82,42.82,0,0,1,7.25-.88L619.47,86c0.1,4.8.2,9.11,0.49,13,0.1,1.47.1,2.94,0.2,4.41l0.2,1.86,0.1,1.47c0.29,3.92,2.25,5.88,5.68,5.88q2.65,0,2.65,9.11T626.14,130.86Zm-21.56-28.52c-3.82,1.67-6.57,3.43-8.13,5.29a16.57,16.57,0,0,0,8.72.49A52.59,52.59,0,0,1,604.58,102.34Z"/><path class="cls-3" d="M645.83,128a66,66,0,0,1-19.7,2.84q-2.65,0-2.65-9.11t2.65-9.11a39.47,39.47,0,0,0,9.51-.88c-0.49-1.86-1-3.82-1.67-6-0.29-.78-0.59-1.67-0.88-2.55L632.7,102,632.31,101l15.78-3.63a42.78,42.78,0,0,1,1.76,12.84C649.85,117.92,648.48,123.8,645.83,128ZM628.09,85.28a16.54,16.54,0,0,1,2.74-5.49c1.67-2.45,3.14-3.82,4.31-4s2.94,0.49,5.49,2.35,3.82,3.14,4,4.21-0.49,2.74-2.25,5.29a19,19,0,0,1-4.31,4.7,26.56,26.56,0,0,1-5.29-3A24,24,0,0,1,628.09,85.28Z"/><path class="cls-3" d="M656.42,130.66c0.29-5.19.49-10.68,0.49-16.27,0-10.49-.39-23.23-1.18-38.12l15.88-.88c0.88,12.54,1.27,24.4,1.27,35.67,0,7.15-.1,12.94-0.39,17.35a20.82,20.82,0,0,1-6.86,2,62.67,62.67,0,0,1-8.62.78Z"/><path class="cls-3" d="M724.82,130.86c-5.49,0-10.58-2.55-15.19-7.64-0.59.88-1.27,2-2,3a14.32,14.32,0,0,0-.88,1.27l-0.39.59-0.39.49c-4,1.86-9.31,2.74-15.68,2.74a38.19,38.19,0,0,1-10.58-1.27A65.33,65.33,0,0,1,683,112.63c3.43,0.29,6.27.49,8.72,0.49A53.59,53.59,0,0,0,702.48,112,146.41,146.41,0,0,0,690.71,94.3l13.53-11.47a79,79,0,0,1,6.47,11c0.69,1.47,1.47,3.23,2.35,5.1l2.06,5c1.47,3.43,2.84,5.78,3.92,6.86,1.27,1.27,3.23,1.86,5.78,1.86q2.65,0,2.65,9.11T724.82,130.86Z"/><path class="cls-3" d="M763.14,130.86c-6.67,0-11.76-2.25-15.19-6.86h-0.88a28.8,28.8,0,0,1-11.76,5.78,47.6,47.6,0,0,1-5.59.88c-1.47.1-3.14,0.2-4.9,0.2s-2.65-3-2.65-9.11,0.88-9.11,2.65-9.11a31.77,31.77,0,0,0,12.15-2,16.46,16.46,0,0,0,8.23-8.43l8.23,1.27c-0.29,3.63.2,6.08,1.67,7.35,1.27,1.18,4,1.76,8,1.76q2.65,0,2.65,9.11T763.14,130.86Zm-8.82,13c0.1,1-.59,2.65-2.25,4.9a18.41,18.41,0,0,1-3.92,4.41,24,24,0,0,1-4.61-2.65,19.24,19.24,0,0,1-4.31-3.53,24.79,24.79,0,0,1-2.55,3.63,15.15,15.15,0,0,1-2.55,2.55,33.54,33.54,0,0,1-4.9-2.94,28.81,28.81,0,0,1-4.41-3.63,21.21,21.21,0,0,1,2.65-5.1c1.67-2.35,2.94-3.63,4-3.82q1.32-.15,4.71,2.06c2.25,1.47,3.53,2.74,4,3.82a32.45,32.45,0,0,1,2.55-3.82c1.08-1.27,2-2,2.74-2.06,1-.1,2.65.59,5,2.25S754.12,143,754.32,143.89Z"/><path class="cls-3" d="M794.11,126.64a31.36,31.36,0,0,1-8.53-1.27c-8.43,3.63-15.88,5.49-22.44,5.49q-2.65,0-2.65-9.11t2.65-9.11c1.08,0,2.25,0,3.63-.1l3.92-.29a20.7,20.7,0,0,1-1.18-4.7,18.14,18.14,0,0,1,4.41-15.29c3.82-4.41,9.41-7.06,16.56-8.13a22.51,22.51,0,0,1,9.7.49,56.39,56.39,0,0,1,.49,7.06,35.72,35.72,0,0,1-.29,7.15c-11.08.1-17.15,1.67-18.13,4.51-0.59,1.86.88,4.21,4.51,7.15,7.15-.69,12.74-1,16.76-1L804.2,110a43,43,0,0,1-2,16.27A40.54,40.54,0,0,1,794.11,126.64Z"/><path class="cls-4" d="M439.23,369.5c-6,0-11.66-2.81-16.74-8.42-0.65,1-1.4,2.16-2.16,3.35a15.62,15.62,0,0,0-1,1.4l-0.43.65-0.43.54c-4.43,2.05-10.26,3-17.28,3a42.09,42.09,0,0,1-11.66-1.4,72,72,0,0,1,3.56-19.22c3.78,0.32,6.91.54,9.61,0.54a59.08,59.08,0,0,0,11.88-1.19,161.46,161.46,0,0,0-13-19.55l14.9-12.64a86.83,86.83,0,0,1,7.13,12.1c0.76,1.62,1.62,3.56,2.59,5.62l2.27,5.51c1.62,3.78,3.13,6.37,4.32,7.56,1.4,1.4,3.56,2.05,6.37,2.05q2.92,0,2.92,10T439.23,369.5Z"/><path class="cls-4" d="M439.23,349.41c7.67,0,13.39-.43,17.06-1.3-0.43-1.84-1.08-4-1.84-6.37-0.22-.76-0.54-1.73-0.86-2.81l-0.43-1.19-0.43-1.19,17.28-4a45,45,0,0,1,2.05,14q0,12.64-4.54,19.76c-7.13,2.05-16.52,3.13-28.3,3.13q-2.92,0-2.92-10T439.23,349.41Zm30.46,34.45c0.11,1.08-.65,2.92-2.48,5.4a20.26,20.26,0,0,1-4.32,4.86,26.44,26.44,0,0,1-5.08-2.92,21.23,21.23,0,0,1-4.75-3.89,27.32,27.32,0,0,1-2.81,4,16.79,16.79,0,0,1-2.81,2.81,37,37,0,0,1-5.4-3.24,31.74,31.74,0,0,1-4.86-4,23.36,23.36,0,0,1,2.92-5.62c1.84-2.59,3.24-4,4.43-4.21q1.46-.16,5.18,2.27c2.48,1.62,3.89,3,4.43,4.21a35.62,35.62,0,0,1,2.81-4.21c1.19-1.4,2.16-2.16,3-2.27,1.08-.11,2.92.65,5.51,2.48S469.47,382.89,469.69,383.86Z"/><path class="cls-4" d="M528.23,369.5c-6,0-11.66-2.81-16.74-8.42-0.65,1-1.4,2.16-2.16,3.35a15.62,15.62,0,0,0-1,1.4l-0.43.65-0.43.54c-4.43,2.05-10.26,3-17.28,3a42.09,42.09,0,0,1-11.66-1.4,72,72,0,0,1,3.56-19.22c3.78,0.32,6.91.54,9.61,0.54a59.08,59.08,0,0,0,11.88-1.19,161.46,161.46,0,0,0-13-19.55l14.9-12.64a86.93,86.93,0,0,1,7.13,12.1c0.76,1.62,1.62,3.56,2.59,5.62l2.27,5.51c1.62,3.78,3.13,6.37,4.32,7.56,1.4,1.4,3.56,2.05,6.37,2.05q2.92,0,2.92,10T528.23,369.5Z"/><path class="cls-4" d="M563.22,330.19q4.37,2.75,7.13,4.54c5.18,3.13,8.53,4.75,9.94,4.75a56.94,56.94,0,0,1-4.75,20.2,41.52,41.52,0,0,0-18.14,2.48l-3.13,1.19-3.13,1.19c-2.7,1.08-5,1.84-6.7,2.38a52.91,52.91,0,0,1-16.2,2.59q-2.92,0-2.92-10t2.92-10c5.51,0,12.42-1.08,21-3.13l2.16-.54,2.27-.54c1.84-.43,3.56-0.76,5-1.08a64,64,0,0,0-6.91-3.35q-4.37-1.78-17.82-2.59l-0.43-.43c0.76-7,2.05-12.53,4.1-16.52a29.93,29.93,0,0,1,4.21-.32c4.75,0,9.61,1.62,14.47,4.75,0.76,0.54,1.94,1.3,3.46,2.27Zm1.19,50.87c0.32,1.08-.54,3-2.48,5.83a20.91,20.91,0,0,1-4.75,5.18,29.25,29.25,0,0,1-5.83-3.35,26.46,26.46,0,0,1-5.18-4.43,18.21,18.21,0,0,1,3-6c1.84-2.7,3.46-4.21,4.75-4.43s3.24,0.54,6,2.59S564.19,379.87,564.4,381.06Z"/><path class="cls-4" d="M681,369.5c-7.88,0-13-2.48-15.44-7.56h-1.08c-4,5.51-14.69,8.21-31.86,8.21-4.43,0-9.18-.22-14.26-0.54-5.83-.43-11.12-1.08-15.77-1.84A133.25,133.25,0,0,1,606.31,348a167.81,167.81,0,0,0,29.16,2.38c9.4,0,16.2-1,20.41-2.81a11.68,11.68,0,0,0,7.34-9.83h8.86c0,7.78,3,11.66,9,11.66q2.92,0,2.92,10T681,369.5Zm-62.21-34.88a23.4,23.4,0,0,1,2.92-5.62c1.84-2.59,3.24-4,4.43-4.21q1.46-.16,5.18,2.27c2.48,1.62,3.89,3,4.43,4.21a35.47,35.47,0,0,1,2.81-4.21c1.19-1.4,2.16-2.16,3-2.27,1.08-.11,2.92.65,5.51,2.48s4,3.35,4.21,4.32-0.65,2.92-2.48,5.4a20.26,20.26,0,0,1-4.32,4.86,26.47,26.47,0,0,1-5.08-2.92,21.23,21.23,0,0,1-4.75-3.89,27.29,27.29,0,0,1-2.81,4,16.77,16.77,0,0,1-2.81,2.81,37,37,0,0,1-5.4-3.24A31.68,31.68,0,0,1,618.83,334.62Z"/><path class="cls-4" d="M702.75,366.37A72.7,72.7,0,0,1,681,369.5q-2.92,0-2.92-10t2.92-10a43.46,43.46,0,0,0,10.48-1c-0.54-2.05-1.08-4.21-1.84-6.59-0.32-.86-0.65-1.84-1-2.81l-0.43-1.3-0.43-1.19,17.39-4a47.17,47.17,0,0,1,1.94,14.15C707.18,355.24,705.67,361.72,702.75,366.37ZM683.2,319.28a18.22,18.22,0,0,1,3-6c1.84-2.7,3.46-4.21,4.75-4.43s3.24,0.54,6,2.59,4.21,3.46,4.43,4.64-0.54,3-2.48,5.83a20.91,20.91,0,0,1-4.75,5.18,29.25,29.25,0,0,1-5.83-3.35A26.48,26.48,0,0,1,683.2,319.28Z"/><path class="cls-4" d="M753,369.5h-1.3a9.3,9.3,0,0,1-1.73-.11,53.67,53.67,0,0,1-5.4-.54A81.48,81.48,0,0,1,737,384.73a84.4,84.4,0,0,1-8.1,11.56,47.9,47.9,0,0,1-8.42-4.54,41.24,41.24,0,0,1-7.88-6.48l1.4-1.4,0.76-.86,0.86-.86c1.51-1.62,2.81-3,4-4.32a94.23,94.23,0,0,0,8.32-10.58,22.3,22.3,0,0,1-10.37-5.08A13.05,13.05,0,0,1,712.9,352q0-8.26,6.16-15.88c4.21-5.18,8.53-7.78,13.07-7.78s8.42,2.27,11.34,6.7a28.11,28.11,0,0,1,4.43,14.15c2.27,0.11,4,.22,5.08.22q2.92,0,2.92,10T753,369.5ZM738.39,350a13.46,13.46,0,0,0-9.07-5.18,6.63,6.63,0,0,0-3.67.54A2.93,2.93,0,0,0,724,347.9c0.43,0.76,2.27,1.4,5.51,1.84A34.38,34.38,0,0,0,738.39,350Z"/><path class="cls-4" d="M788.39,348.12a33.57,33.57,0,0,1-5.18,18.25c-5.51,2.05-15.66,3.13-30.24,3.13q-2.92,0-2.92-10t2.92-10h2.16a25.69,25.69,0,0,1,5.18-14.47c3.56-4.86,7.88-7.24,13-7.24,4.64,0,8.32,2.05,11.12,6.16C787.1,337.64,788.39,342.39,788.39,348.12Zm-27.54-34.67a18.21,18.21,0,0,1,3-6c1.84-2.7,3.46-4.21,4.75-4.43s3.24,0.54,6,2.59,4.21,3.46,4.43,4.64-0.54,3-2.48,5.83a20.91,20.91,0,0,1-4.75,5.18,29.25,29.25,0,0,1-5.83-3.35A26.51,26.51,0,0,1,760.85,313.45Zm9.61,30.78a6.28,6.28,0,0,0-3.56,1,3,3,0,0,0-1.4,2.7c0.54,0.76,2.48,1.19,5.72,1.3a40.91,40.91,0,0,0,8.86-.76A13.6,13.6,0,0,0,770.46,344.23Z"/><path class="cls-4" d="M816.36,369.39a221.61,221.61,0,0,0,0-26.78,181.8,181.8,0,0,0-4.21-30.46l16.74-3.78A180.07,180.07,0,0,1,834,341.31a200.24,200.24,0,0,1,0,25.49,27,27,0,0,1-8.42,2.27,53.19,53.19,0,0,1-8.75.76Z"/><path class="cls-4" d="M843,342.07c0-4.64,1.3-8.42,4-11.23s6.37-4.32,11.12-4.32,8.42,1.4,11.12,4.32,3.89,6.59,3.89,11.23c0,4.86-1.3,8.75-3.89,11.45s-6.37,4-11.12,4-8.53-1.3-11.12-4S843,346.93,843,342.07Zm18.79,0c0-2.27-1.19-3.46-3.67-3.46s-3.67,1.19-3.67,3.46,1.19,3.46,3.67,3.46a3.51,3.51,0,0,0,2.59-1.08A3.22,3.22,0,0,0,861.83,342.07Z"/><path class="cls-4" d="M314.82,490.84a25.39,25.39,0,0,1-3.13,8.1c-1.19.86-3.46,1.73-6.8,2.48a50.3,50.3,0,0,1-11.12,1.3c-5.4,0-9.5-1.4-12.31-4.32-2.59-2.59-3.89-6-3.89-10.48,0-5.94,2.16-11.77,6.59-17.6a55.66,55.66,0,0,1,.43-14.26l0.54-.43c8.1,0.11,14.69,2.27,20,6.26a24.35,24.35,0,0,1,10.58,20.84A41.29,41.29,0,0,1,314.82,490.84Zm-9.72-8.21c0-1.08-2.27-2.16-6.7-3.35-1.62-.43-3.35-0.76-5.18-1.08a18.35,18.35,0,0,0-3.35-.43q-1.62,2.11-1,3.56,0.81,1.46,3.56,1.94a38,38,0,0,0,6.26.11A49.26,49.26,0,0,0,305.1,482.63Z"/><path class="cls-4" d="M371.84,502.5c-6,0-11.66-2.81-16.74-8.42-0.65,1-1.4,2.16-2.16,3.35a15.62,15.62,0,0,0-1,1.4l-0.43.65-0.43.54c-4.43,2.05-10.26,3-17.28,3a42.09,42.09,0,0,1-11.66-1.4,72,72,0,0,1,3.56-19.22c3.78,0.32,6.91.54,9.61,0.54a59.08,59.08,0,0,0,11.88-1.19,161.46,161.46,0,0,0-13-19.55l14.9-12.64a86.93,86.93,0,0,1,7.13,12.1c0.76,1.62,1.62,3.56,2.59,5.62l2.27,5.51c1.62,3.78,3.13,6.37,4.32,7.56,1.4,1.4,3.56,2.05,6.37,2.05q2.92,0,2.92,10T371.84,502.5Z"/><path class="cls-4" d="M447.87,499.37a33.68,33.68,0,0,1-14.26,3.46c-6.91,0-12-2.59-15.34-7.88h-1c-3.13,5.4-8,8.1-14.36,8.1s-10.91-2.7-13.82-8.1h-1a18,18,0,0,1-7.88,6.37,24.94,24.94,0,0,1-8.42,1.19q-2.92,0-2.92-10t2.92-10h2.48l2.48-.22a16,16,0,0,0,4.86-1.3c3.46-1.62,5.51-5.08,6.16-10.15h9q0.49,12.31,7.78,12.31c5.4,0,9-4,10.8-12.1l9.07,1.4c-0.76,7.45,1.51,11.12,6.8,11.12a21.77,21.77,0,0,0,5.72-1c-0.54-2.05-1.19-4.43-2.05-7.13-0.32-.86-0.65-1.94-1.08-3.13l-0.43-1.4-0.43-1.3,17.28-4a44.07,44.07,0,0,1,2.05,14.26C452.3,488.14,450.79,494.72,447.87,499.37Zm-48.71-43.2a17.43,17.43,0,0,1,2.92-5.62c1.84-2.48,3.24-3.89,4.43-4.1,1-.22,2.7.54,5.18,2.16s3.89,3,4.43,4.21a24.79,24.79,0,0,1,2.81-4.1c1.19-1.4,2.16-2.16,3-2.27,1.08-.22,2.92.54,5.51,2.38s4,3.35,4.21,4.43-0.65,2.92-2.48,5.4a17.47,17.47,0,0,1-4.32,4.75,45.76,45.76,0,0,1-9.83-6.7,27.19,27.19,0,0,1-2.81,4,20.08,20.08,0,0,1-2.81,2.7A35.92,35.92,0,0,1,399.17,456.17Zm6.91-15.23a20.57,20.57,0,0,1,2.7-5.4c1.73-2.48,3.13-3.78,4.32-3.89,1-.11,2.81.65,5.29,2.38s3.78,3,4,4-0.65,2.7-2.38,5.18c-1.62,2.27-2.92,3.89-4.1,4.64a31.1,31.1,0,0,1-5.18-3.13A35.3,35.3,0,0,1,406.08,440.94Z"/><path class="cls-4" d="M490.42,509.52q0,11.66,20.09,11.66A100.09,100.09,0,0,0,524.88,520a63.28,63.28,0,0,1,1.4,8.1,65.05,65.05,0,0,1,.76,9.61,64.18,64.18,0,0,1-17.6,2.48c-9.94,0-18-2.27-24.3-6.7A22.5,22.5,0,0,1,475,513.95q0-19.28,18.47-31.1a113.67,113.67,0,0,1,11.13-6.26,108.78,108.78,0,0,0-11.12-3.24,92.11,92.11,0,0,0-13.93-1.4l-0.43-.43a66.78,66.78,0,0,1,1.51-8.64,36.82,36.82,0,0,1,2.59-7.88,25.19,25.19,0,0,1,13,1.19,88.87,88.87,0,0,1,12.74,5.72l5.4,2.81c2.05,1,3.78,1.73,5.29,2.38a27.22,27.22,0,0,0,10.26,2.38,42.52,42.52,0,0,1-1,9,71.11,71.11,0,0,1-2.48,11,64,64,0,0,0-22.68,5.83Q490.42,501.26,490.42,509.52Z"/><path class="cls-4" d="M589.46,482.41q2.92,0,2.92,10t-2.92,10a18.3,18.3,0,0,1-11.23-3.78c-2.48,1.73-6.37,2.81-11.56,3.35-3.46.32-10.48,0.43-21,.43-1.3-1.4-2.59-4.1-3.78-8a41.77,41.77,0,0,1-2.27-12.1h5.94Q543.5,470.59,535.24,449l16.63-8a155.71,155.71,0,0,1,5.4,18.79c0.65,2.7,1.19,5.29,1.62,7.88,0.32,2.16.65,4.1,0.86,5.83a25,25,0,0,1-4.75,4.86,43.77,43.77,0,0,1-5.4,4c9.72-.11,16.42-0.32,20-0.54q-0.33-7.61-1.3-18.79c-0.32-2.7-.65-6.16-1-10.26l-1.08-10.48,17.39-1c1,15.77,1.51,28.73,1.51,38.88v1.08L585,482.41h4.43Z"/><path class="cls-4" d="M665.49,482.84a14.13,14.13,0,0,1-.32,2.48,30.61,30.61,0,0,1-1,4,28.06,28.06,0,0,1-3.89,8.86,90.28,90.28,0,0,1-30.57,5c-12.53,0-20.41-2.7-23.76-8.21h-1a16,16,0,0,1-7.45,6,22.93,22.93,0,0,1-8.1,1.51q-2.92,0-2.92-10t2.92-10a18.07,18.07,0,0,0,8.32-1.62,7,7,0,0,0,3.78-7l9.07-1.4c0.54,4.64,1.4,7.34,2.59,8.32,11.34-14.15,22.36-21.17,33-21.17A17.21,17.21,0,0,1,660.2,466C663.76,470.21,665.49,475.82,665.49,482.84Zm-12.85-1.08c-1-2.48-3.67-3.78-8.21-3.78a32.3,32.3,0,0,0-17.93,5.72,108.68,108.68,0,0,0,15.77.22C648.53,483.6,652,482.84,652.64,481.76Z"/><path class="cls-4" d="M672.72,502.28c0.32-5.72.54-11.77,0.54-17.93,0-11.56-.43-25.6-1.3-42l17.5-1c1,13.82,1.4,26.89,1.4,39.31,0,7.88-.11,14.26-0.43,19.12a23,23,0,0,1-7.56,2.16,69.14,69.14,0,0,1-9.5.86Z"/><path class="cls-4" d="M793,502.5c-7.88,0-13-2.48-15.44-7.56h-1.08c-4,5.51-14.69,8.21-31.86,8.21-4.43,0-9.18-.22-14.26-0.54-5.83-.43-11.12-1.08-15.77-1.84A133.25,133.25,0,0,1,718.3,481a167.81,167.81,0,0,0,29.16,2.38c9.4,0,16.2-1,20.41-2.81a11.68,11.68,0,0,0,7.34-9.83h8.86c0,7.78,3,11.66,9,11.66q2.92,0,2.92,10T793,502.5Zm-62.21-34.88a23.4,23.4,0,0,1,2.92-5.62c1.84-2.59,3.24-4,4.43-4.21q1.46-.16,5.18,2.27c2.48,1.62,3.89,3,4.43,4.21a35.47,35.47,0,0,1,2.81-4.21c1.19-1.4,2.16-2.16,3-2.27,1.08-.11,2.92.65,5.51,2.48s4,3.35,4.21,4.32-0.65,2.92-2.48,5.4a20.26,20.26,0,0,1-4.32,4.86,26.47,26.47,0,0,1-5.08-2.92A21.23,21.23,0,0,1,746.7,468a27.29,27.29,0,0,1-2.81,4,16.77,16.77,0,0,1-2.81,2.81,37,37,0,0,1-5.4-3.24A31.68,31.68,0,0,1,730.83,467.62Z"/><path class="cls-4" d="M814.74,499.37A72.7,72.7,0,0,1,793,502.5q-2.92,0-2.92-10t2.92-10a43.46,43.46,0,0,0,10.48-1c-0.54-2.05-1.08-4.21-1.84-6.59-0.32-.86-0.65-1.84-1-2.81l-0.43-1.3-0.43-1.19,17.39-4a47.17,47.17,0,0,1,1.94,14.15C819.17,488.24,817.66,494.72,814.74,499.37ZM795.2,452.28a18.22,18.22,0,0,1,3-6c1.84-2.7,3.46-4.21,4.75-4.43s3.24,0.54,6,2.59,4.21,3.46,4.43,4.64-0.54,3-2.48,5.83a20.91,20.91,0,0,1-4.75,5.18,29.25,29.25,0,0,1-5.83-3.35A26.48,26.48,0,0,1,795.2,452.28Z"/><path class="cls-4" d="M865,502.5h-1.3a9.3,9.3,0,0,1-1.73-.11,53.67,53.67,0,0,1-5.4-.54A81.48,81.48,0,0,1,849,517.73a84.4,84.4,0,0,1-8.1,11.56,47.9,47.9,0,0,1-8.42-4.54,41.24,41.24,0,0,1-7.88-6.48l1.4-1.4,0.76-.86,0.86-.86c1.51-1.62,2.81-3,4-4.32a94.23,94.23,0,0,0,8.32-10.58,22.3,22.3,0,0,1-10.37-5.08A13.05,13.05,0,0,1,824.89,485q0-8.26,6.16-15.88c4.21-5.18,8.53-7.78,13.07-7.78s8.42,2.27,11.34,6.7a28.11,28.11,0,0,1,4.43,14.15c2.27,0.11,4,.22,5.08.22q2.92,0,2.92,10T865,502.5ZM850.38,483a13.46,13.46,0,0,0-9.07-5.18,6.63,6.63,0,0,0-3.67.54A2.93,2.93,0,0,0,836,480.9c0.43,0.76,2.27,1.4,5.51,1.84A34.38,34.38,0,0,0,850.38,483Z"/><path class="cls-4" d="M900.39,481.12a33.57,33.57,0,0,1-5.18,18.25c-5.51,2.05-15.66,3.13-30.24,3.13q-2.92,0-2.92-10t2.92-10h2.16a25.69,25.69,0,0,1,5.18-14.47c3.56-4.86,7.88-7.24,13-7.24,4.64,0,8.32,2.05,11.12,6.16C899.09,470.64,900.39,475.39,900.39,481.12Zm-27.54-34.67a18.21,18.21,0,0,1,3-6c1.84-2.7,3.46-4.21,4.75-4.43s3.24,0.54,6,2.59,4.21,3.46,4.43,4.64-0.54,3-2.48,5.83a20.91,20.91,0,0,1-4.75,5.18,29.25,29.25,0,0,1-5.83-3.35A26.51,26.51,0,0,1,872.85,446.45Zm9.61,30.78a6.28,6.28,0,0,0-3.56,1,3,3,0,0,0-1.4,2.7c0.54,0.76,2.48,1.19,5.72,1.3a40.91,40.91,0,0,0,8.86-.76A13.6,13.6,0,0,0,882.46,477.23Z"/><path class="cls-4" d="M928.36,502.39a221.61,221.61,0,0,0,0-26.78,181.8,181.8,0,0,0-4.21-30.46l16.74-3.78A180.07,180.07,0,0,1,946,474.31a200.24,200.24,0,0,1,0,25.49,27,27,0,0,1-8.42,2.27,53.19,53.19,0,0,1-8.75.76Z"/><path class="cls-4" d="M955,475.07c0-4.64,1.3-8.42,4-11.23s6.37-4.32,11.12-4.32,8.42,1.4,11.12,4.32,3.89,6.59,3.89,11.23c0,4.86-1.3,8.75-3.89,11.45s-6.37,4-11.12,4-8.53-1.3-11.12-4S955,479.93,955,475.07Zm18.79,0c0-2.27-1.19-3.46-3.67-3.46s-3.67,1.19-3.67,3.46,1.19,3.46,3.67,3.46a3.51,3.51,0,0,0,2.59-1.08A3.22,3.22,0,0,0,973.82,475.07Z"/><path class="cls-5" d="M552.83,715.09a21.86,21.86,0,0,1-5.39,1.39,47.66,47.66,0,0,1-8,.7,26.88,26.88,0,0,1-6.21-.64,37.06,37.06,0,0,1,1.91-10.32c2.15,0.17,4.12.29,6,.29,1.68,0,3.25-.06,4.76-0.17a39.35,39.35,0,0,0-6.44-11l8-6.79c4.41,6.55,6.61,12.88,6.61,19A22.05,22.05,0,0,1,552.83,715.09Z"/><path class="cls-5" d="M558,716.88c0.17-3.07.29-6.32,0.29-9.63,0-6.21-.23-13.75-0.7-22.56l9.4-.52c0.52,7.42.75,14.44,0.75,21.11,0,4.23-.06,7.66-0.23,10.27a12.33,12.33,0,0,1-4.06,1.16,37,37,0,0,1-5.1.46Z"/><path class="cls-5" d="M566.57,725.93a74.87,74.87,0,0,0,5.45-9.8,85.72,85.72,0,0,0,4.58-11.72l8.12,2.73a67,67,0,0,1-3.6,12.59,88,88,0,0,1-3.71,8.29q-0.7,1.39-1.39,2.61a5.34,5.34,0,0,0-.41.81,3.77,3.77,0,0,1-.29.41,25.17,25.17,0,0,1-4.76-2.61A18.25,18.25,0,0,1,566.57,725.93Zm3.94-28.59a9.78,9.78,0,0,1,1.62-3.25c1-1.45,1.86-2.26,2.55-2.38s1.74,0.29,3.25,1.39,2.26,1.86,2.38,2.49-0.29,1.62-1.33,3.13a11.23,11.23,0,0,1-2.55,2.78,15.65,15.65,0,0,1-3.13-1.8A14.2,14.2,0,0,1,570.52,697.34Z"/><path class="cls-5" d="M601.26,674a4.62,4.62,0,0,1,.17,4.87c-0.87,1.8-2.49,2.67-4.87,2.67a27.07,27.07,0,0,1-3.71-.46l-1-.12-0.93-.17c-0.64-.06-1.22-0.12-1.62-0.12a2.77,2.77,0,0,0-2,.58,2.4,2.4,0,0,0-.58,1.22h-2.55c-1.1-2.26-1.22-4.23-.35-6s2.61-2.67,5-2.67a19.6,19.6,0,0,1,4,.64l2,0.46a8.61,8.61,0,0,0,2,.23c1.74,0,2.84-.41,3.25-1.16h1.22Zm-12.93,42.86c0.17-3.07.29-6.32,0.29-9.63,0-6.21-.23-13.75-0.7-22.56l9.4-.52c0.52,7.42.75,14.44,0.75,21.11,0,4.23-.06,7.66-0.23,10.27a12.33,12.33,0,0,1-4.06,1.16,37,37,0,0,1-5.1.46Z"/><path class="cls-5" d="M606.48,725.93a74.87,74.87,0,0,0,5.45-9.8,85.72,85.72,0,0,0,4.58-11.72l8.12,2.73a67,67,0,0,1-3.6,12.59,88,88,0,0,1-3.71,8.29q-0.7,1.39-1.39,2.61a5.34,5.34,0,0,0-.41.81,3.77,3.77,0,0,1-.29.41,25.17,25.17,0,0,1-4.76-2.61A18.25,18.25,0,0,1,606.48,725.93Zm3.94-28.59a9.78,9.78,0,0,1,1.62-3.25c1-1.45,1.86-2.26,2.55-2.38s1.74,0.29,3.25,1.39,2.26,1.86,2.38,2.49-0.29,1.62-1.33,3.13a11.23,11.23,0,0,1-2.55,2.78,15.65,15.65,0,0,1-3.13-1.8A14.23,14.23,0,0,1,610.42,697.34Z"/><path class="cls-5" d="M648.93,717h-0.7a5,5,0,0,1-.93-0.06,28.75,28.75,0,0,1-2.9-.29,43.7,43.7,0,0,1-4.06,8.53,45.35,45.35,0,0,1-4.35,6.21,25.71,25.71,0,0,1-4.52-2.44,22.13,22.13,0,0,1-4.23-3.48l0.75-.75,0.41-.46,0.46-.46,2.15-2.32a50.56,50.56,0,0,0,4.47-5.68,12,12,0,0,1-5.57-2.73,7,7,0,0,1-2.49-5.45,13.4,13.4,0,0,1,3.31-8.53c2.26-2.78,4.58-4.18,7-4.18a7.08,7.08,0,0,1,6.09,3.6,15.1,15.1,0,0,1,2.38,7.6c1.22,0.06,2.15.12,2.73,0.12q1.57,0,1.57,5.39T648.93,717Zm-7.83-10.5a7.23,7.23,0,0,0-4.87-2.78,3.56,3.56,0,0,0-2,.29,1.57,1.57,0,0,0-.87,1.39c0.23,0.41,1.22.75,3,1A18.47,18.47,0,0,0,641.1,706.5Z"/><path class="cls-5" d="M681.41,706.21q1.57,0,1.57,5.39T681.41,717a13.36,13.36,0,0,1-6-1.39,9.35,9.35,0,0,1-4.35-3.94,23,23,0,0,0-6.44,1.39l-1.68.64-1.68.64c-1.45.58-2.67,1-3.6,1.28a28.4,28.4,0,0,1-8.7,1.39q-1.57,0-1.57-5.39t1.57-5.39a50.24,50.24,0,0,0,11.25-1.68l1.16-.29,1.22-.29c1-.23,1.91-0.41,2.67-0.58a34.5,34.5,0,0,0-3.71-1.8q-2.35-1-9.57-1.39l-0.23-.23a26,26,0,0,1,2.2-8.87,16,16,0,0,1,2.26-.17,14.37,14.37,0,0,1,7.77,2.55c0.41,0.29,1,.7,1.86,1.22l1.91,1.22q2.35,1.48,3.83,2.44c2.78,1.68,4.58,2.55,5.34,2.55a33.83,33.83,0,0,1-.58,4.93,23,23,0,0,0,3,.35,8.55,8.55,0,0,0,1.22.06h0.93Zm-13,17c0.17,0.58-.29,1.62-1.33,3.13a11.25,11.25,0,0,1-2.55,2.78,15.67,15.67,0,0,1-3.13-1.8,14.2,14.2,0,0,1-2.78-2.38,9.78,9.78,0,0,1,1.62-3.25c1-1.45,1.86-2.26,2.55-2.38s1.74,0.29,3.25,1.39S668.25,722.57,668.36,723.21Z"/><path class="cls-5" d="M708.73,706.68a13.25,13.25,0,0,1-1.91,7.48,6.21,6.21,0,0,1-5.57,3.19c-3.07,0-6.26-1.57-9.63-4.64A13.27,13.27,0,0,1,681.41,717q-1.57,0-1.57-5.39t1.57-5.39a11.24,11.24,0,0,0,6.21-1.74,19.75,19.75,0,0,0,4.12-3.83l0.87-1,0.87-1a25.25,25.25,0,0,1,1.86-1.8,7.41,7.41,0,0,1,4.76-1.74,7.55,7.55,0,0,1,6.26,3.25A13.83,13.83,0,0,1,708.73,706.68Zm-8.87-2a8.79,8.79,0,0,0-4.64,1.22,9.21,9.21,0,0,0,5.57,1.45q2.52,0,3.13-.7C703.86,705.34,702.47,704.7,699.86,704.7Z"/><path class="cls-5" d="M744.4,715.32A34.66,34.66,0,0,1,733,717a29.33,29.33,0,0,1-10.85-1.68q-0.44-1.65-.7-12.35c-0.06-1.22-.06-2.78-0.12-4.64l-0.12-4.76c-0.12-3.83-.23-6.79-0.29-8.87l9.34-.52a206.31,206.31,0,0,1,.41,21.75c0.75,0.12,1.51.17,2.26,0.23a15.17,15.17,0,0,0,1.57.06,15.33,15.33,0,0,0,3.94-.46c-0.23-1.1-.58-2.26-1-3.54-0.17-.46-0.35-1-0.58-1.57l-0.23-.7-0.23-.64,9.34-2.15a25.32,25.32,0,0,1,1,7.6C746.78,709.34,746,712.82,744.4,715.32Zm-5.22,9.63c0.17,0.58-.29,1.62-1.33,3.13a11.26,11.26,0,0,1-2.55,2.78,15.68,15.68,0,0,1-3.13-1.8,14.2,14.2,0,0,1-2.78-2.38,9.77,9.77,0,0,1,1.62-3.25c1-1.45,1.86-2.26,2.55-2.38s1.74,0.29,3.25,1.39S739.06,724.31,739.18,724.95Z"/></svg>