<svg id="Layer_1" data-name="Layer 1" xmlns="http://www.w3.org/2000/svg" viewBox="0 0 1280 800"><defs><style>.cls-1{fill:#995c87;}.cls-2{fill:#fff;}.cls-3{fill:#404040;}.cls-4{fill:#ebeb7c;}</style></defs><title>intro2</title><rect class="cls-1" width="1280" height="800"/><path class="cls-2" d="M437.77,113.83V344.44q0,18,14.68,24.66,13.43,6,39.69,6v38H475.81q-33.08,0-48.37-20.22-12.61-16.66-13.85-48-0.21-2.89-.21-4.22l-7.23-199.73q0-9.77,4.65-15.11t22.84-16Q437.77,109.83,437.77,113.83Z"/><path class="cls-2" d="M479.84,407.31a18.55,18.55,0,0,1-5.48-13.11A18.94,18.94,0,0,1,479.84,381q5.48-5.88,12.09-5.89h30q16.54,0,36.28-6.33t23.67-14.11a7.2,7.2,0,0,0,.83-3.78q0-16.88-20.46-54.65Q552.29,278,535,258.13a218.4,218.4,0,0,0-37.73-34.55l13-45.54,153-68.21-2.48,40.88L531.41,206q23.36,22,37.52,41.77a290.68,290.68,0,0,1,26.36,45.77q14.88,33.77,22.32,46,22.12,35.55,54.57,35.55h9.1v38h-9.1q-19.43,0-33.9-5.55t-23.46-14.44a107.2,107.2,0,0,1-17.05-22.88q-8.68,23.55-28,33.21T519,413.09H491.93Q485.32,413.09,479.84,407.31Z"/><path class="cls-2" d="M669.08,407.31a18.85,18.85,0,0,1-5.37-13.22,19.27,19.27,0,0,1,5.17-13.22q5.17-5.77,12-5.78,30,0,44.86-2.67Q738.95,368,744.33,359t5.38-28.55V291.79h24.8v60.65q0,12.89,11.16,15.55a136.16,136.16,0,0,0,43,7.11v38q-32.66,0-50.64-10.22-11.16-5.77-16.74-11.77a62.4,62.4,0,0,1-26,16.88q-15.09,5.11-45.06,5.11h-9.3Q674.46,413.09,669.08,407.31ZM673.42,472l14.88-20.44a5.64,5.64,0,0,1,4-2.89,4.89,4.89,0,0,1,4.44,1.33l19.43,15.55a5.94,5.94,0,0,1,2.07,4.33,6.47,6.47,0,0,1-1.45,4.78l-14.47,20.44a7.33,7.33,0,0,1-4.13,2.55,4.81,4.81,0,0,1-4.34-1l-19-15.55a8.13,8.13,0,0,1-2.38-4.44A5.77,5.77,0,0,1,673.42,472Zm56.85,0,14.47-20.44a5.64,5.64,0,0,1,4-2.89,4.89,4.89,0,0,1,4.44,1.33l19.43,15.55a5.94,5.94,0,0,1,2.07,4.33,6.48,6.48,0,0,1-1.45,4.78L758.8,495.07a7.33,7.33,0,0,1-4.13,2.55,4.81,4.81,0,0,1-4.34-1l-19-15.55a7.09,7.09,0,0,1-2.17-4.44A6.41,6.41,0,0,1,730.27,472Z"/><path class="cls-2" d="M816.47,407.31a18.85,18.85,0,0,1-5.37-13.22,19.27,19.27,0,0,1,5.17-13.22q5.17-5.77,12-5.78h8.89q23.77,0,43-7.11,7.44-2.67,10.44-6.55t3-10.11q0-6.22-3.72-22.11T879.62,293q-6.51-20.33-8.58-27.44l26.87-24.66q17.78,51.32,21.71,76.2a190.87,190.87,0,0,1,1.86,27.66,74.54,74.54,0,0,1-6,29.21v1.11a4.34,4.34,0,0,0-.52.78,4.27,4.27,0,0,1-.52.78q-8.68,17.11-26.87,26.22-18,10.22-50,10.22h-9.3Q821.85,413.09,816.47,407.31Zm30.18-266.82,15.92-22.44a6.36,6.36,0,0,1,4.24-2.33,6.83,6.83,0,0,1,4.86,1.22l20.05,16.66a6.37,6.37,0,0,1,2.69,4.67,7.76,7.76,0,0,1-1.24,5.55l-15.5,21.55a5.81,5.81,0,0,1-4.34,2.89,5.32,5.32,0,0,1-4.75-1.33l-20.88-16.66Q843.13,146.27,846.65,140.49Z"/><path class="cls-3" d="M502.52,588.92a29.31,29.31,0,0,1,2.2-10l1.88,0.78a21.82,21.82,0,0,0-1.83,7.8,6.69,6.69,0,0,0,1.52,4.79,5.45,5.45,0,0,0,4.13,1.58,12.69,12.69,0,0,0,5.45-1.35,13.35,13.35,0,0,0,4.5-3.29,0.89,0.89,0,0,0,.15-0.54,1.1,1.1,0,0,0-.41-0.74,4.71,4.71,0,0,0-1.19-.79q-0.78-.39-1.5-0.68l-1.77-.69q-1.05-.4-1.52-0.61t-0.13-.91a14.77,14.77,0,0,1,.87-2.2,0.67,0.67,0,0,1,.57-0.36q0.11,0,1.88.59a30.8,30.8,0,0,0,3.44.94,19.5,19.5,0,0,0,4,.35V587q-1.08,0-1.94-.06a1.87,1.87,0,0,1,0,.46,7.73,7.73,0,0,1-1.83,4.88,12.91,12.91,0,0,1-4.67,3.65,13.52,13.52,0,0,1-5.74,1.36q-4.28,0-6.43-2.7A7.14,7.14,0,0,1,503,592.2,11.33,11.33,0,0,1,502.52,588.92Z"/><path class="cls-3" d="M523.6,586.48a1.7,1.7,0,0,1-.48-1.19,1.74,1.74,0,0,1,.47-1.19,1.41,1.41,0,0,1,1.08-.52h0.8a11.09,11.09,0,0,0,3.87-.64,2,2,0,0,0,.94-0.59,1.45,1.45,0,0,0,.27-0.91,10.47,10.47,0,0,0-.33-2q-0.34-1.43-.92-3.26t-0.77-2.47l2.42-2.22a45.09,45.09,0,0,1,2,6.87,17.19,17.19,0,0,1,.17,2.49,6.72,6.72,0,0,1-.54,2.63v0.1l0,0.07,0,0.07a5.27,5.27,0,0,1-2.42,2.36,9.18,9.18,0,0,1-4.51.92h-0.84A1.43,1.43,0,0,1,523.6,586.48Zm2.72-24,1.43-2a0.57,0.57,0,0,1,.38-0.21,0.61,0.61,0,0,1,.44.11l1.81,1.5a0.57,0.57,0,0,1,.24.42,0.7,0.7,0,0,1-.11.5l-1.4,1.94a0.52,0.52,0,0,1-.39.26,0.48,0.48,0,0,1-.43-0.12l-1.88-1.5A0.62,0.62,0,0,1,526.32,562.44Z"/><path class="cls-3" d="M537.12,566.54a2,2,0,0,1,.34-1,16.64,16.64,0,0,1,1.26-1.69,0.29,0.29,0,0,1,.43.2l5.27,15.21a2.78,2.78,0,0,1-.5,1.44,2.06,2.06,0,0,1-1,.94l-5.49-13.73A4.3,4.3,0,0,1,537.12,566.54Zm2.09,19.91a1.63,1.63,0,0,1-.48-1.15,1.76,1.76,0,0,1,.46-1.17,1.43,1.43,0,0,1,1.05-.55h0.17a11.13,11.13,0,0,0,5.45-1.43q2.6-1.43,3-2.65l-1.4-17.14a1.83,1.83,0,0,1,.4-1.23,10.92,10.92,0,0,1,1.95-1.49,0.35,0.35,0,0,1,.41.38l0.67,17.56a11.13,11.13,0,0,1-.87,4.22,7.46,7.46,0,0,1-2.51,3.16,12,12,0,0,1-7.25,2A1.63,1.63,0,0,1,539.21,586.45Z"/><path class="cls-3" d="M555,595.23a0.5,0.5,0,0,1,.17-0.3,19.83,19.83,0,0,0,6.51-3.78,9,9,0,0,0,2.77-4.14h-3.15a4.5,4.5,0,0,1-3.41-1.19,4.13,4.13,0,0,1-1.14-3,15.27,15.27,0,0,1,1.14-5.53,6.71,6.71,0,0,1,1.53-2.37,3,3,0,0,1,2.16-1,3.28,3.28,0,0,1,2.21.89,6.56,6.56,0,0,1,1.65,2.33,19.13,19.13,0,0,1,1.49,6.37H570V587h-3.11a12.74,12.74,0,0,1-1.34,3.66,15.72,15.72,0,0,1-2.24,3.18,15,15,0,0,1-2.65,2.29,7,7,0,0,1-2.58,1.15,4.09,4.09,0,0,1-1.83-.75A2.06,2.06,0,0,1,555,595.23Zm3.63-14.31a4.64,4.64,0,0,0-.07.85,1.86,1.86,0,0,0,.19.83,1.46,1.46,0,0,0,.44.56,1.91,1.91,0,0,0,.68.28,6.18,6.18,0,0,0,1.43.14h3.15a12.55,12.55,0,0,0-1.23-4.35q-0.93-1.79-2.18-1.79a1.7,1.7,0,0,0-1.38,1A10.17,10.17,0,0,0,558.62,580.91Z"/><path class="cls-3" d="M569.93,583.58h2a4.13,4.13,0,0,0,1.46-.27,0.92,0.92,0,0,0,.74-0.75L573.33,563a4.05,4.05,0,0,1,.87-1.67,6,6,0,0,1,1.48-1.61,0.64,0.64,0,0,1,.34.12,0.32,0.32,0,0,1,.19.24v20.44q1.32-1.68,2.47-3t2.54-2.57q2.94-2.68,5.44-2.68a6.25,6.25,0,0,1,3,.74,6.06,6.06,0,0,1,2.16,1.92,9,9,0,0,1,1.64,5.11v0q0,3.52-1.25,4.91a6.08,6.08,0,0,1-3.35,1.78,14.88,14.88,0,0,1-2.83.24H570a1.47,1.47,0,0,1-1.1-.52,1.69,1.69,0,0,1-.48-1.18,2,2,0,0,1,.49-1.19A1.36,1.36,0,0,1,569.93,583.58Zm16.09,0q3.58,0,5.09-1.36v-0.38a7.19,7.19,0,0,0-1.17-4,4.32,4.32,0,0,0-1.56-1.39,4.55,4.55,0,0,0-2.21-.53q-3.74,0-10.17,7.71h10Z"/><path class="cls-3" d="M603.9,588.92a29.31,29.31,0,0,1,2.2-10l1.88,0.78a21.82,21.82,0,0,0-1.83,7.8,6.66,6.66,0,0,0,1.53,4.79,5.48,5.48,0,0,0,4.14,1.58,12.63,12.63,0,0,0,5.44-1.35,13.37,13.37,0,0,0,4.49-3.29,3.38,3.38,0,0,0,.06-0.76q0-2.58-2.07-9.25l2.42-2.22a45.15,45.15,0,0,1,1.42,5.44,26.34,26.34,0,0,1,.61,5,7.71,7.71,0,0,1-1.84,4.88,13,13,0,0,1-4.66,3.65,13.35,13.35,0,0,1-5.7,1.36q-4.32,0-6.46-2.7a7.14,7.14,0,0,1-1.18-2.39A11.33,11.33,0,0,1,603.9,588.92Zm8.36-15.62,1.43-2a0.57,0.57,0,0,1,.38-0.21,0.62,0.62,0,0,1,.44.11l1.81,1.5a0.58,0.58,0,0,1,.24.42,0.7,0.7,0,0,1-.11.5l-1.4,1.94a0.52,0.52,0,0,1-.39.26,0.48,0.48,0,0,1-.43-0.12l-1.88-1.5A0.62,0.62,0,0,1,612.26,573.31Z"/><path class="cls-3" d="M628.25,595.23a0.5,0.5,0,0,1,.17-0.3,19.83,19.83,0,0,0,6.51-3.78,9,9,0,0,0,2.77-4.14h-3.15a4.5,4.5,0,0,1-3.41-1.19,4.13,4.13,0,0,1-1.14-3,15.27,15.27,0,0,1,1.14-5.53,6.71,6.71,0,0,1,1.53-2.37,3,3,0,0,1,2.16-1,3.28,3.28,0,0,1,2.21.89,6.56,6.56,0,0,1,1.65,2.33,19.13,19.13,0,0,1,1.49,6.37h3.06V587h-3.11a12.74,12.74,0,0,1-1.34,3.66,15.72,15.72,0,0,1-2.24,3.18,15,15,0,0,1-2.65,2.29,7,7,0,0,1-2.58,1.15,4.09,4.09,0,0,1-1.83-.75A2.06,2.06,0,0,1,628.25,595.23Zm3.63-14.31a4.64,4.64,0,0,0-.07.85,1.86,1.86,0,0,0,.19.83,1.46,1.46,0,0,0,.44.56,1.91,1.91,0,0,0,.68.28,6.18,6.18,0,0,0,1.43.14h3.15a12.55,12.55,0,0,0-1.23-4.35q-0.93-1.79-2.18-1.79a1.7,1.7,0,0,0-1.38,1A10.17,10.17,0,0,0,631.88,580.91Z"/><path class="cls-3" d="M642.12,586.48a1.7,1.7,0,0,1-.48-1.19,1.74,1.74,0,0,1,.47-1.19,1.41,1.41,0,0,1,1.08-.52,24.91,24.91,0,0,0,4-.24,2.94,2.94,0,0,0,1.68-1.21,5.2,5.2,0,0,0,.48-2.57v-3.48h2.24v5.47a1.27,1.27,0,0,0,1,1.4,12.25,12.25,0,0,0,3.88.64V587a9.32,9.32,0,0,1-4.56-.92,5.52,5.52,0,0,1-1.51-1.06,5.62,5.62,0,0,1-2.35,1.52A13.44,13.44,0,0,1,644,587h-0.84A1.43,1.43,0,0,1,642.12,586.48Zm2.33-20,1.34-1.84a0.45,0.45,0,0,1,.36-0.24,0.49,0.49,0,0,1,.4.14l1.75,1.36a0.56,0.56,0,0,1,.19.41,0.62,0.62,0,0,1-.13.45l-1.3,1.84a0.65,0.65,0,0,1-.37.23,0.43,0.43,0,0,1-.39-0.09l-1.71-1.4a0.75,0.75,0,0,1-.21-0.42A0.56,0.56,0,0,1,644.45,566.5Zm5.12,0,1.3-1.84a0.45,0.45,0,0,1,.36-0.24,0.49,0.49,0,0,1,.4.14l1.75,1.36a0.55,0.55,0,0,1,.19.41,0.61,0.61,0,0,1-.13.45l-1.3,1.84a0.66,0.66,0,0,1-.37.23,0.43,0.43,0,0,1-.39-0.09l-1.71-1.4a0.66,0.66,0,0,1-.2-0.42A0.61,0.61,0,0,1,649.57,566.5Z"/><path class="cls-3" d="M655.41,586.48a1.67,1.67,0,0,1-.49-1.18,1.7,1.7,0,0,1,.49-1.19,1.47,1.47,0,0,1,1.09-.53q2.92,0,4-.94a7.7,7.7,0,0,0,.78-0.72,5.32,5.32,0,0,0,.7-1q0.38-.69.66-1.25,0.95-2,1.69-3.46,1.08-2.12,2.78-2.12a3.65,3.65,0,0,1,2.45,1.12,8.32,8.32,0,0,1,2,3,9.74,9.74,0,0,1,.77,3.8,5.47,5.47,0,0,1-1.58,4.34,3,3,0,0,1-2,.72h-0.09a9.06,9.06,0,0,1-3.39-.77,14.31,14.31,0,0,1-3.07-1.65,5,5,0,0,1-2.11,1.83,8.75,8.75,0,0,1-3.58.59A1.48,1.48,0,0,1,655.41,586.48Zm13.42-2.92a4.76,4.76,0,0,0,1.6-.24,8.25,8.25,0,0,0-1.73-3.73,3.48,3.48,0,0,0-2.44-1.57,1.2,1.2,0,0,0-1,.62q-0.34.6-.82,1.59t-0.63,1.27A8.07,8.07,0,0,0,668.83,583.56Z"/><path class="cls-3" d="M682.77,595.23a0.5,0.5,0,0,1,.17-0.3q5.44-2.12,7.93-5.33a6.65,6.65,0,0,0,1.43-3.22v-0.1a7.19,7.19,0,0,1-3.24.72,4.44,4.44,0,0,1-3.38-1.19,4.16,4.16,0,0,1-1.13-3,14.37,14.37,0,0,1,.73-4.4,7.32,7.32,0,0,1,2.27-3.8,2.82,2.82,0,0,1,1.77-.64,3.37,3.37,0,0,1,2.41,1.07,7.68,7.68,0,0,1,1.74,2.75,20.05,20.05,0,0,1,1.34,7.31,11,11,0,0,1-.9,4.24,14.78,14.78,0,0,1-2.25,3.78,16,16,0,0,1-2.92,2.75,7.55,7.55,0,0,1-2.92,1.39,4.09,4.09,0,0,1-1.83-.75A2.05,2.05,0,0,1,682.77,595.23Zm3.63-14.31a4.64,4.64,0,0,0-.07.85,1.86,1.86,0,0,0,.19.83,1.45,1.45,0,0,0,.44.56,1.91,1.91,0,0,0,.68.28,6.19,6.19,0,0,0,1.43.14h0.17a5.94,5.94,0,0,0,2.85-.74,11.37,11.37,0,0,0-1.26-3.86,2.47,2.47,0,0,0-2-1.54,1.71,1.71,0,0,0-1.38,1A10.21,10.21,0,0,0,686.4,580.91Z"/><path class="cls-3" d="M705.23,579.69a22.49,22.49,0,0,1,1.34-6.77l1.88,0.82a17.06,17.06,0,0,0-.86,4.64,4.78,4.78,0,0,0,.8,2.88q1.68,2.28,8.12,2.28h0.17a38.17,38.17,0,0,0,5.45-.5,23.36,23.36,0,0,0,5-1.18,1.44,1.44,0,0,0,1-1.44,6.84,6.84,0,0,0-.21-1.33l-0.33-1.48q-0.13-.57-0.72-2.36t-0.81-2.53l2.46-2.26q0.67,2,1,3t0.73,2.88a15.53,15.53,0,0,1,.4,3.21,5.7,5.7,0,0,1-2.12,4.92q-1.4,1.1-5.34,1.79a40.21,40.21,0,0,1-6.07.71q-2.13,0-3.46-.08a21.52,21.52,0,0,1-2.69-.38,8.68,8.68,0,0,1-2.35-.8,7.78,7.78,0,0,1-1.78-1.3A6.33,6.33,0,0,1,705.23,579.69Zm10.92,12.77,1.4-2a0.52,0.52,0,0,1,.39-0.26,0.48,0.48,0,0,1,.43.12l1.84,1.5a0.58,0.58,0,0,1,.13.88l-1.43,2a0.68,0.68,0,0,1-.4.23,0.47,0.47,0,0,1-.42-0.09l-1.81-1.5a0.58,0.58,0,0,1-.24-0.43A0.59,0.59,0,0,1,716.15,592.46Z"/><path class="cls-3" d="M734.7,595.23a0.5,0.5,0,0,1,.17-0.3q5.44-2.12,7.93-5.33a6.65,6.65,0,0,0,1.43-3.22v-0.1A7.19,7.19,0,0,1,741,587a4.44,4.44,0,0,1-3.38-1.19,4.16,4.16,0,0,1-1.13-3,14.37,14.37,0,0,1,.73-4.4,7.32,7.32,0,0,1,2.27-3.8,2.82,2.82,0,0,1,1.77-.64,3.37,3.37,0,0,1,2.41,1.07,7.68,7.68,0,0,1,1.74,2.75,20.05,20.05,0,0,1,1.34,7.31,11,11,0,0,1-.9,4.24,14.78,14.78,0,0,1-2.25,3.78,16,16,0,0,1-2.92,2.75,7.55,7.55,0,0,1-2.92,1.39,4.09,4.09,0,0,1-1.83-.75A2.05,2.05,0,0,1,734.7,595.23Zm3.63-14.31a4.64,4.64,0,0,0-.07.85,1.86,1.86,0,0,0,.19.83,1.45,1.45,0,0,0,.44.56,1.91,1.91,0,0,0,.68.28,6.19,6.19,0,0,0,1.43.14h0.17a5.94,5.94,0,0,0,2.85-.74,11.37,11.37,0,0,0-1.26-3.86,2.47,2.47,0,0,0-2-1.54,1.71,1.71,0,0,0-1.38,1A10.21,10.21,0,0,0,738.33,580.91Z"/><path class="cls-3" d="M757.16,579.69a22.49,22.49,0,0,1,1.34-6.77l1.88,0.82a17.06,17.06,0,0,0-.86,4.64,4.78,4.78,0,0,0,.8,2.88q1.68,2.28,8.12,2.28h0.17a38.17,38.17,0,0,0,5.45-.5,23.36,23.36,0,0,0,5-1.18,1.44,1.44,0,0,0,1-1.44,6.84,6.84,0,0,0-.21-1.33l-0.33-1.48q-0.13-.57-0.72-2.36T778,572.73l2.46-2.26q0.67,2,1,3t0.73,2.88a15.53,15.53,0,0,1,.4,3.21,5.7,5.7,0,0,1-2.12,4.92q-1.4,1.1-5.34,1.79A40.21,40.21,0,0,1,769,587q-2.13,0-3.46-.08a21.52,21.52,0,0,1-2.69-.38,8.68,8.68,0,0,1-2.35-.8,7.78,7.78,0,0,1-1.78-1.3A6.33,6.33,0,0,1,757.16,579.69ZM765,568l1.34-1.84a0.45,0.45,0,0,1,.36-0.24,0.49,0.49,0,0,1,.4.14l1.75,1.36a0.56,0.56,0,0,1,.19.41,0.61,0.61,0,0,1-.13.45l-1.3,1.84a0.65,0.65,0,0,1-.37.23,0.43,0.43,0,0,1-.39-0.09l-1.71-1.4a0.74,0.74,0,0,1-.21-0.42A0.56,0.56,0,0,1,765,568Zm5.12,0,1.3-1.84a0.45,0.45,0,0,1,.36-0.24,0.49,0.49,0,0,1,.4.14l1.75,1.36a0.56,0.56,0,0,1,.19.41,0.61,0.61,0,0,1-.13.45l-1.3,1.84a0.65,0.65,0,0,1-.37.23,0.43,0.43,0,0,1-.39-0.09l-1.71-1.4a0.65,0.65,0,0,1-.2-0.42A0.61,0.61,0,0,1,770.16,568Z"/><path class="cls-3" d="M789.46,560v20.78a2.22,2.22,0,0,0,1.32,2.22,9.14,9.14,0,0,0,3.58.54V587h-1.47a5.11,5.11,0,0,1-4.36-1.82,7.57,7.57,0,0,1-1.25-4.32c0-.17,0-0.3,0-0.38l-0.65-18a2,2,0,0,1,.42-1.36,9.69,9.69,0,0,1,2.06-1.44A0.32,0.32,0,0,1,789.46,560Z"/><path class="cls-3" d="M793.22,586.46a1.65,1.65,0,0,1-.47-1.16,1.74,1.74,0,0,1,.47-1.19,1.41,1.41,0,0,1,1.07-.53h2.2a15.33,15.33,0,0,0,6.78-1.34,23.82,23.82,0,0,0,2.27-1.27q0.91-.59,2.16-1.54t2-1.41l-2.13-.88q-1.43-.6-2.21-0.9a10.69,10.69,0,0,0-3.65-.84q-2.74,0-4,3.2l-1.34-1a11.07,11.07,0,0,1,2.28-4.4,4.14,4.14,0,0,1,3-1.3,15,15,0,0,1,5.23,1.46q1.45,0.6,3,1.2a25.5,25.5,0,0,0,3.53,1,18.49,18.49,0,0,0,3.81.45L816,579.49h-1.27a6.67,6.67,0,0,0-1.7.2,5.3,5.3,0,0,0,1.95,3,6.4,6.4,0,0,0,3.68.92H820V587h-1.3a7.39,7.39,0,0,1-5.21-1.71,9.74,9.74,0,0,1-2.67-4.75,15.8,15.8,0,0,0-2.1,1.44q-1.19.94-2.24,1.73a22.62,22.62,0,0,1-2.43,1.57,14.58,14.58,0,0,1-7.39,1.72H794.3A1.58,1.58,0,0,1,793.22,586.46Z"/><path class="cls-3" d="M822.86,579.49a5.68,5.68,0,0,1-.07-1.12,8.23,8.23,0,0,1,.39-2.15,14.29,14.29,0,0,1,1.05-2.62,6.69,6.69,0,0,1,1.72-2.13,3.42,3.42,0,0,1,2.16-.86,3.11,3.11,0,0,1,2,.79,6.39,6.39,0,0,1,1.54,1.91,13.24,13.24,0,0,1,1,2.25,6.61,6.61,0,0,1,.35,1.91,7.73,7.73,0,0,1-2.25,5.38,15.57,15.57,0,0,0,4.81.72h1.1V587h-1a15.85,15.85,0,0,1-7.79-1.92A15.7,15.7,0,0,1,820,587a1.67,1.67,0,0,1-1.08-.55,1.54,1.54,0,0,1-.48-1.16,1.83,1.83,0,0,1,.47-1.17,1.41,1.41,0,0,1,1-.54,17.29,17.29,0,0,0,5-.72A7.64,7.64,0,0,1,822.86,579.49Zm8.23-1.2a4.93,4.93,0,0,0-1.14-2.66q-1.14-1.58-2-1.58t-2,1.54a5.13,5.13,0,0,0-1.17,2.76,8.56,8.56,0,0,0,3.2,3.22,9.91,9.91,0,0,0,2.31-1.75A2.59,2.59,0,0,0,831.09,578.29Zm-5.22-16,1.43-2a0.57,0.57,0,0,1,.38-0.21,0.62,0.62,0,0,1,.44.11l1.81,1.5a0.57,0.57,0,0,1,.24.42,0.7,0.7,0,0,1-.11.5l-1.4,1.94a0.52,0.52,0,0,1-.39.26,0.48,0.48,0,0,1-.43-0.12l-1.88-1.5A0.62,0.62,0,0,1,825.88,562.34Z"/><path class="cls-3" d="M835.55,586.48a1.67,1.67,0,0,1-.49-1.18,1.74,1.74,0,0,1,.47-1.19,1.41,1.41,0,0,1,1.07-.53,10,10,0,0,0,5.44-1.4,17.83,17.83,0,0,1-.56-2.6q-0.26-1.68-.35-2.2l2.4-.82q0.07,0.42.21,1.27t0.22,1.33a10.8,10.8,0,0,0,.3,1.2,5.82,5.82,0,0,0,.47,1.17,4.38,4.38,0,0,0,.7.91,3.6,3.6,0,0,0,1,.74q3.17-4.06,4.58-5.62a29.35,29.35,0,0,1,2.46-2.5q0.71-.58,1.48-1.18a7,7,0,0,1,1.41-.88,6.83,6.83,0,0,1,2.66-.72,6.2,6.2,0,0,1,3,.74,6.08,6.08,0,0,1,2.15,1.92,9,9,0,0,1,1.66,5.11v0q0,3.52-1.27,4.91a6,6,0,0,1-3.35,1.78,14.59,14.59,0,0,1-2.81.24h-9.8q-3.91,0-5.53-2.38a6.58,6.58,0,0,1-2.5,1.69,10.27,10.27,0,0,1-4,.69A1.48,1.48,0,0,1,835.55,586.48Zm22.86-2.9q3.58,0,5.08-1.36v-0.38a7.34,7.34,0,0,0-1.15-4,4.32,4.32,0,0,0-1.56-1.39,4.55,4.55,0,0,0-2.21-.53q-3.76,0-10.19,7.71h10Z"/><path class="cls-3" d="M613.57,653l-1.47.06a3.9,3.9,0,0,1-3.26-1.34,5.08,5.08,0,0,1-.76-1.46,5.27,5.27,0,0,1-1.91,2.22,4.64,4.64,0,0,1-2.52.76,4.43,4.43,0,0,1-3.43-1.55,6.06,6.06,0,0,1-1.4-4.21,21.89,21.89,0,0,1,1-5.43,28.59,28.59,0,0,1,2.11-5.15,50.73,50.73,0,0,1,3.75-6.18l0.76,0.62q-1.47-1.28-3-2.36l1.94-3.3a24,24,0,0,1,2.2,1.7,32.63,32.63,0,0,1,2.52,2.36,33.13,33.13,0,0,1,2.52,3.06,27.89,27.89,0,0,1,2.41,3.85,24.54,24.54,0,0,1,1.75,4.59,21.28,21.28,0,0,1,.79,5.33v0.34a9,9,0,0,1-.71,3.44,5.31,5.31,0,0,1-.71,1.27,3.73,3.73,0,0,1-1.1.93A3.33,3.33,0,0,1,613.57,653Zm-11.34-7a3.46,3.46,0,0,0,.53,2.09,1.6,1.6,0,0,0,1.33.71,2.45,2.45,0,0,0,1.93-1.11,4.5,4.5,0,0,0,.87-2.85v-0.44l2.72-.76v0.18a12.88,12.88,0,0,0,.21,2.52,2.55,2.55,0,0,0,1,1.64,3,3,0,0,0,1.73.58,2.07,2.07,0,0,0,1.44-.48,1.63,1.63,0,0,0,.53-1.27q0-.79-0.07-1.53a17.36,17.36,0,0,0-.46-2.25,19.51,19.51,0,0,0-1-3,23.35,23.35,0,0,0-1.94-3.44,25.61,25.61,0,0,0-3-3.74Q602.22,641.44,602.22,646Z"/><path class="cls-3" d="M624.5,659.78a3.67,3.67,0,0,1-.93.1,8.7,8.7,0,0,1-2-.4L628.43,639l2.78,0.34Z"/><path class="cls-3" d="M636.58,645.45a5.35,5.35,0,0,1,0-7.23,4.49,4.49,0,0,1,6.72,0,5.35,5.35,0,0,1,0,7.23A4.49,4.49,0,0,1,636.58,645.45Zm3.36-6.18a2.22,2.22,0,0,0-1.7.74,2.56,2.56,0,0,0-.69,1.81,2.6,2.6,0,0,0,.69,1.82,2.29,2.29,0,0,0,3.39,0,2.6,2.6,0,0,0,.69-1.82,2.56,2.56,0,0,0-.69-1.81A2.22,2.22,0,0,0,639.94,639.28Z"/><path class="cls-3" d="M651.59,659.78a3.67,3.67,0,0,1-.93.1,8.7,8.7,0,0,1-2-.4L655.52,639l2.78,0.34Z"/><path class="cls-3" d="M663.67,645.45a5.34,5.34,0,0,1,0-7.23,4.49,4.49,0,0,1,6.72,0,5.35,5.35,0,0,1,0,7.23A4.49,4.49,0,0,1,663.67,645.45Zm3.36-6.18a2.22,2.22,0,0,0-1.69.74,2.56,2.56,0,0,0-.69,1.81,2.59,2.59,0,0,0,.69,1.82,2.29,2.29,0,0,0,3.39,0,2.6,2.6,0,0,0,.69-1.82,2.56,2.56,0,0,0-.69-1.81A2.22,2.22,0,0,0,667,639.28Z"/><path class="cls-3" d="M682.11,641.84l2.48-2.7,2.46,2.7-2.46,2.62Zm0,7.55,2.48-2.62,2.46,2.62L684.59,652Z"/><path class="cls-3" d="M717.26,652.83l0,0.58a7.73,7.73,0,0,1-1.83,4.88,12.92,12.92,0,0,1-4.67,3.65,13.52,13.52,0,0,1-5.74,1.36q-4.28,0-6.43-2.7a7.16,7.16,0,0,1-1.18-2.39,11.33,11.33,0,0,1-.44-3.27,29.31,29.31,0,0,1,2.2-10l1.88,0.78a21.82,21.82,0,0,0-1.83,7.8,6.69,6.69,0,0,0,1.52,4.79,5.45,5.45,0,0,0,4.13,1.58,12.68,12.68,0,0,0,5.45-1.35,13.35,13.35,0,0,0,4.5-3.29,3.38,3.38,0,0,0,.06-0.76,10.47,10.47,0,0,0-.13-1.45q-0.13-.89-0.28-1.63t-0.45-1.87q-0.3-1.13-.44-1.64t-0.46-1.57q-0.32-1.06-.32-1.08l2.38-2.22a42.7,42.7,0,0,1,1.49,5.81,7.6,7.6,0,0,0,1.85,1,5.48,5.48,0,0,0,2,.42q2.61,0,3.39-2.92l1.17-4.54,2.24,0.4-1.21,5a6.9,6.9,0,0,0,3.63,2.06,5.39,5.39,0,0,0,3.17-2,34.69,34.69,0,0,0-1.66-6.59l2.42-2.26a24,24,0,0,1,1.79,8,5.73,5.73,0,0,1-.62,2.59,6.13,6.13,0,0,1-1.54,2,9.3,9.3,0,0,1-1.89,1.24,5,5,0,0,1-1.75.53,5.47,5.47,0,0,1-2.51-.74,14,14,0,0,1-2.36-1.9,5.52,5.52,0,0,1-4.68,2.42A6.68,6.68,0,0,1,717.26,652.83Zm3.54-19.5,1.34-1.84a0.45,0.45,0,0,1,.36-0.24,0.5,0.5,0,0,1,.4.14l1.75,1.36a0.56,0.56,0,0,1,.19.41,0.62,0.62,0,0,1-.13.45l-1.3,1.84a0.66,0.66,0,0,1-.37.23,0.43,0.43,0,0,1-.39-0.09l-1.71-1.4a0.74,0.74,0,0,1-.21-0.42A0.56,0.56,0,0,1,720.8,633.33Zm2.48-4.74,1.21-1.72a0.47,0.47,0,0,1,.73-0.1l1.56,1.34a0.47,0.47,0,0,1,.09.74l-1.21,1.72a0.52,0.52,0,0,1-.34.19,0.51,0.51,0,0,1-.38-0.09l-1.57-1.26a0.57,0.57,0,0,1-.2-0.39A0.6,0.6,0,0,1,723.28,628.59Zm2.65,4.74,1.3-1.84a0.45,0.45,0,0,1,.36-0.24,0.5,0.5,0,0,1,.4.14l1.75,1.36a0.56,0.56,0,0,1,.19.41,0.61,0.61,0,0,1-.13.45l-1.3,1.84a0.66,0.66,0,0,1-.37.23,0.43,0.43,0,0,1-.39-0.09l-1.71-1.4a0.66,0.66,0,0,1-.2-0.42A0.61,0.61,0,0,1,725.93,633.33Z"/><path class="cls-3" d="M733.43,661.24a0.5,0.5,0,0,1,.17-0.3A25.09,25.09,0,0,0,738,658.7a13.6,13.6,0,0,0,2.93-2.44,6.93,6.93,0,0,0,2-4.2v-0.16a28.34,28.34,0,0,0-1.11-4.4l-1-3,2.38-2.18a36.26,36.26,0,0,1,2.07,7.65,8,8,0,0,1,.09,1.14v0.4a7.93,7.93,0,0,1-.34,2.36,13.55,13.55,0,0,1-2.09,4.4,15.59,15.59,0,0,1-3.25,3.45,8,8,0,0,1-3.28,1.61,4.09,4.09,0,0,1-1.83-.75A2.05,2.05,0,0,1,733.43,661.24Z"/><path class="cls-3" d="M752.34,626v20.78a2.22,2.22,0,0,0,1.32,2.22,9.14,9.14,0,0,0,3.58.54V653h-1.47a5.11,5.11,0,0,1-4.36-1.82,7.57,7.57,0,0,1-1.25-4.32c0-.17,0-0.3,0-0.38l-0.65-18a2,2,0,0,1,.42-1.36,9.69,9.69,0,0,1,2.06-1.44A0.32,0.32,0,0,1,752.34,626Z"/><path class="cls-3" d="M756.13,652.49a1.67,1.67,0,0,1-.49-1.18,1.7,1.7,0,0,1,.49-1.19,1.47,1.47,0,0,1,1.09-.53h2.7a10.75,10.75,0,0,0,3.27-.57,3.58,3.58,0,0,0,2.13-1.27,0.64,0.64,0,0,0,.07-0.34q0-1.52-1.84-4.92a21.07,21.07,0,0,0-5.85-6.55l1.17-4.1,13.78-6.15-0.22,3.68-11.66,5a23.58,23.58,0,0,1,5.76,7.89,40.91,40.91,0,0,0,2,4.14q2,3.2,4.92,3.2h0.82V653h-0.82a8.52,8.52,0,0,1-3.05-.5,6,6,0,0,1-2.11-1.3,9.68,9.68,0,0,1-1.54-2.06,5.16,5.16,0,0,1-2.52,3,10.26,10.26,0,0,1-4.57.87h-2.44A1.48,1.48,0,0,1,756.13,652.49Zm3.19-22.78,0.15-2,11.73-5.07v1.94Z"/><path class="cls-3" d="M773.18,652.49a1.7,1.7,0,0,1-.48-1.19,1.73,1.73,0,0,1,.47-1.19,1.41,1.41,0,0,1,1.08-.52H775a11.09,11.09,0,0,0,3.87-.64,2,2,0,0,0,.94-0.59,1.45,1.45,0,0,0,.27-0.91,10.43,10.43,0,0,0-.33-2q-0.34-1.43-.92-3.26t-0.77-2.47l2.42-2.22a45.06,45.06,0,0,1,2,6.87,17.12,17.12,0,0,1,.17,2.49,6.71,6.71,0,0,1-.54,2.63v0.1l0,0.07,0,0.07a5.27,5.27,0,0,1-2.42,2.36,9.18,9.18,0,0,1-4.51.92h-0.84A1.43,1.43,0,0,1,773.18,652.49Zm2.72-24,1.43-2a0.57,0.57,0,0,1,.38-0.21,0.61,0.61,0,0,1,.44.11l1.81,1.5a0.57,0.57,0,0,1,.24.42,0.69,0.69,0,0,1-.11.5l-1.4,1.94a0.52,0.52,0,0,1-.39.26,0.48,0.48,0,0,1-.43-0.12l-1.88-1.5A0.62,0.62,0,0,1,775.9,628.45Z"/><path class="cls-4" d="M657.13,680.78a7.18,7.18,0,0,1,7.16,7.44c0,4.85-3.38,7.84-7.44,7.84a7.23,7.23,0,0,1-7.21-7.51c0-4.07,2.84-7.78,7.48-7.78h0Zm-0.47.84c-2.4,0-4.68,2.1-4.68,6.36s2.27,7.25,5.34,7.25c2.4,0,4.6-2.06,4.6-6.4,0-4.71-2.43-7.2-5.24-7.2h0Z"/><path class="cls-4" d="M675.11,684.6a4.61,4.61,0,0,0-.64-1.83c-0.37-.63-0.83-0.83-2.41-0.83h-1.56c-0.67,0-.73.06-0.73,0.74v5.25h2.14c2,0,2.07-.21,2.34-1.67h0.63v4.42h-0.64c-0.26-1.57-.37-1.81-2.33-1.81h-2.14v3.92c0,2,.19,2.13,2.14,2.29v0.64h-6v-0.64c1.7-.14,1.89-0.29,1.89-2.29V684c0-2-.19-2.1-1.83-2.23v-0.68h9.57c0,0.83.13,2.26,0.23,3.38Z"/><path class="cls-4" d="M687.89,692.09c-0.14.77-.59,2.93-0.8,3.62h-9.85v-0.64c1.83-.14,2-0.29,2-2.26V684c0-2-.14-2.09-1.91-2.21v-0.68h5.78v0.68c-1.68.12-1.88,0.25-1.88,2.21v8.73c0,1.23.1,1.66,0.5,1.89a4.37,4.37,0,0,0,2,.29,2.84,2.84,0,0,0,2.37-.72,6.25,6.25,0,0,0,1.16-2.24Z"/><path class="cls-4" d="M696.14,695.71v-0.64c1.89-.14,2-0.37,2-2V684.6c0-1.17-.08-1.27-1-1.34l-1.11,0v-0.54a21.69,21.69,0,0,0,4-1.17v11.56c0,1.63.14,1.86,2,2v0.64h-6Z"/><path class="cls-4" d="M706.56,696a1.24,1.24,0,0,1-1.23-1.38,1.25,1.25,0,1,1,2.5,0,1.24,1.24,0,0,1-1.24,1.38h0Z"/><path class="cls-4" d="M711.36,695.71v-0.64c1.89-.14,2-0.37,2-2V684.6c0-1.17-.08-1.27-1-1.34l-1.11,0v-0.54a21.69,21.69,0,0,0,4-1.17v11.56c0,1.63.14,1.86,2,2v0.64h-6Z"/></svg>